<?xml version="1.0" standalone="no"?>
<!DOCTYPE svg PUBLIC "-//W3C//DTD SVG 1.1//EN" "http://www.w3.org/Graphics/SVG/1.1/DTD/svg11.dtd" >
<svg>
<metadata>
Created by FontForge 20110222 at Thu Feb 12 12:22:53 2015
 By deploy user
Copyright (c) 2014 Typotheque.com All rights reserved.
</metadata>
<defs>
<font id="NeutralStd-Regular" horiz-adv-x="620" >
  <font-face 
    font-family="Neutral Std Reg"
    font-weight="400"
    font-stretch="normal"
    units-per-em="1000"
    panose-1="0 0 0 0 0 0 0 0 0 0"
    ascent="778"
    descent="-222"
    x-height="535"
    cap-height="755"
    bbox="-217 -232 1185 1026"
    underline-thickness="70"
    underline-position="-117"
    unicode-range="U+0020-FB02"
  />
<missing-glyph horiz-adv-x="712" 
d="M80 0v27h27v-27h-27zM80 75v27h27v-27h-27zM80 150v27h27v-27h-27zM80 225v27h27v-27h-27zM80 300v27h27v-27h-27zM80 375v27h27v-27h-27zM80 450v27h27v-27h-27zM80 525v27h27v-27h-27zM80 600v27h27v-27h-27zM80 675v27h27v-27h-27zM155 0v27h27v-27h-27zM155 675v27
h27v-27h-27zM230 0v27h27v-27h-27zM230 525v27h27v-27h-27zM230 675v27h27v-27h-27zM305 0v27h27v-27h-27zM305 150v27h27v-27h-27zM305 300v27h27v-27h-27zM305 375v27h27v-27h-27zM305 525v27h27v-27h-27zM305 675v27h27v-27h-27zM380 0v27h27v-27h-27zM380 375v27h27v-27
h-27zM380 525v27h27v-27h-27zM380 675v27h27v-27h-27zM455 0v27h27v-27h-27zM455 375v27h27v-27h-27zM455 450v27h27v-27h-27zM455 525v27h27v-27h-27zM455 675v27h27v-27h-27zM530 0v27h27v-27h-27zM530 675v27h27v-27h-27zM605 0v27h27v-27h-27zM605 75v27h27v-27h-27z
M605 150v27h27v-27h-27zM605 225v27h27v-27h-27zM605 300v27h27v-27h-27zM605 375v27h27v-27h-27zM605 450v27h27v-27h-27zM605 525v27h27v-27h-27zM605 600v27h27v-27h-27zM605 675v27h27v-27h-27z" />
    <glyph glyph-name=".notdef" horiz-adv-x="712" 
d="M80 0v27h27v-27h-27zM80 75v27h27v-27h-27zM80 150v27h27v-27h-27zM80 225v27h27v-27h-27zM80 300v27h27v-27h-27zM80 375v27h27v-27h-27zM80 450v27h27v-27h-27zM80 525v27h27v-27h-27zM80 600v27h27v-27h-27zM80 675v27h27v-27h-27zM155 0v27h27v-27h-27zM155 675v27
h27v-27h-27zM230 0v27h27v-27h-27zM230 525v27h27v-27h-27zM230 675v27h27v-27h-27zM305 0v27h27v-27h-27zM305 150v27h27v-27h-27zM305 300v27h27v-27h-27zM305 375v27h27v-27h-27zM305 525v27h27v-27h-27zM305 675v27h27v-27h-27zM380 0v27h27v-27h-27zM380 375v27h27v-27
h-27zM380 525v27h27v-27h-27zM380 675v27h27v-27h-27zM455 0v27h27v-27h-27zM455 375v27h27v-27h-27zM455 450v27h27v-27h-27zM455 525v27h27v-27h-27zM455 675v27h27v-27h-27zM530 0v27h27v-27h-27zM530 675v27h27v-27h-27zM605 0v27h27v-27h-27zM605 75v27h27v-27h-27z
M605 150v27h27v-27h-27zM605 225v27h27v-27h-27zM605 300v27h27v-27h-27zM605 375v27h27v-27h-27zM605 450v27h27v-27h-27zM605 525v27h27v-27h-27zM605 600v27h27v-27h-27zM605 675v27h27v-27h-27z" />
    <glyph glyph-name=".null" horiz-adv-x="0" 
 />
    <glyph glyph-name="nonmarkingreturn" horiz-adv-x="333" 
 />
    <glyph glyph-name="space" unicode=" " horiz-adv-x="260" 
 />
    <glyph glyph-name="exclam" unicode="!" horiz-adv-x="287" 
d="M79 0v129h129v-129h-129zM110 205l-15 280v293h96v-293l-15 -280h-66z" />
    <glyph glyph-name="quotedbl" unicode="&#x22;" horiz-adv-x="431" 
d="M100 473l-45 282h131l-45 -282h-41zM290 473l-45 282h131l-45 -282h-41z" />
    <glyph glyph-name="numbersign" unicode="#" horiz-adv-x="630" 
d="M380 260l29 176h-155l-29 -176h155zM338 0l31 193h-155l-31 -193h-65l31 193h-119v67h130l29 176h-119v67h130l28 172h65l-28 -172h155l28 172h65l-28 -172h115v-67h-126l-29 -176h115v-67h-126l-31 -193h-65z" />
    <glyph glyph-name="dollar" unicode="$" horiz-adv-x="643" 
d="M170 573q0 -58 29 -84t93 -42v244q-62 -6 -92 -39.5t-30 -78.5zM485 208q0 101 -133 132v-276q62 7 97.5 44.5t35.5 99.5zM352 -142h-60v128q-205 14 -242 213l86 21q19 -76 55.5 -113t100.5 -44v290l-25 5q-188 42 -188 200q0 84 57.5 140.5t155.5 65.5v101h60v-100
q162 -11 215 -169l-83 -23q-39 103 -132 117v-258l26 -7q106 -25 153 -75t47 -135q0 -93 -62.5 -156t-163.5 -73v-128z" />
    <glyph glyph-name="percent" unicode="%" horiz-adv-x="834" 
d="M45 578q0 88 46 138t119 50q76 0 117.5 -47.5t41.5 -140.5q0 -90 -45 -139t-118 -49q-76 0 -118.5 48.5t-42.5 139.5zM129 -14l503 780h74l-502 -780h-75zM206 710q-83 0 -83 -132t84 -132q82 0 82 132t-83 132zM465 174q0 88 46 138t119 50q76 0 117.5 -47.5
t41.5 -140.5q0 -90 -45 -139t-118 -49q-76 0 -118.5 48.5t-42.5 139.5zM626 306q-83 0 -83 -132t84 -132q82 0 82 132t-83 132z" />
    <glyph glyph-name="ampersand" unicode="&#x26;" horiz-adv-x="689" 
d="M596 -15l-82 97q-94 -97 -218 -97q-120 0 -182 56.5t-62 147.5q0 70 41.5 119.5t137.5 105.5q-27 32 -37.5 46t-26.5 39t-21.5 47.5t-5.5 50.5q0 74 53 121.5t134 47.5q89 0 137 -46.5t48 -109.5q0 -108 -159 -205l160 -189q30 71 30 159h81q0 -124 -58 -223l96 -113z
M229 602q0 -32 15.5 -59t63.5 -84q66 41 89.5 75.5t23.5 75.5q0 38 -24.5 63t-69.5 25t-71.5 -28.5t-26.5 -67.5zM299 63q99 0 166 76l-189 222q-73 -44 -100 -78t-27 -85q0 -62 39 -98.5t111 -36.5z" />
    <glyph glyph-name="quotesingle" unicode="'" horiz-adv-x="241" 
d="M100 473l-45 282h131l-45 -282h-41z" />
    <glyph glyph-name="parenleft" unicode="(" horiz-adv-x="320" 
d="M308 -163h-74q-23 33 -33.5 50t-36.5 68.5t-40 97t-26.5 117t-12.5 147.5q0 89 14 167t41 140.5t43 91.5t44 71q5 8 7 11h74q-23 -38 -39 -69.5t-41 -94.5t-39 -144.5t-14 -172.5q0 -261 133 -480z" />
    <glyph glyph-name="parenright" unicode=")" horiz-adv-x="320" 
d="M12 798h74q23 -33 33.5 -50t36.5 -68.5t40 -97t26.5 -117t12.5 -147.5q0 -89 -14 -167t-41 -140.5t-43 -91.5t-44 -71q-5 -8 -7 -11h-74q23 38 39 69.5t41 94.5t39 144.5t14 172.5q0 261 -133 480z" />
    <glyph glyph-name="asterisk" unicode="*" horiz-adv-x="468" 
d="M275 778l-11 -175l4 -2l154 65l25 -74l-158 -50l-1 -4l112 -134l-68 -47l-95 145h-6l-98 -142l-68 47l115 131l-1 4l-157 47l25 74l152 -62l4 3l-10 174h82z" />
    <glyph glyph-name="plus" unicode="+" horiz-adv-x="600" 
d="M65 292v68h199v204h72v-204h199v-68h-199v-208h-72v208h-199z" />
    <glyph glyph-name="comma" unicode="," horiz-adv-x="269" 
d="M59 -154l-14 47q43 13 64.5 37t21.5 70h-61v129h129v-112q0 -135 -140 -171z" />
    <glyph glyph-name="hyphen" unicode="-" horiz-adv-x="450" 
d="M65 252v87h320v-87h-320z" />
    <glyph glyph-name="hyphen" unicode="&#xad;" horiz-adv-x="450" 
d="M65 252v87h320v-87h-320z" />
    <glyph glyph-name="period" unicode="." horiz-adv-x="269" 
d="M70 0v129h129v-129h-129z" />
    <glyph glyph-name="slash" unicode="/" horiz-adv-x="417" 
d="M-27 -163l353 961h72l-352 -961h-73z" />
    <glyph glyph-name="zero" unicode="0" horiz-adv-x="684" 
d="M70 375q0 191 73 291t201 100q129 0 199.5 -98.5t70.5 -292.5q0 -191 -74 -290.5t-197 -99.5q-273 0 -273 390zM342 687q-170 0 -170 -312q0 -311 172 -311q168 0 168 311q0 154 -43.5 233t-126.5 79z" />
    <glyph glyph-name="one" unicode="1" horiz-adv-x="450" 
d="M330 0h-94v638l-145 -104l-49 66l210 155h78v-755z" />
    <glyph glyph-name="two" unicode="2" horiz-adv-x="627" 
d="M173 523l-90 9l1 15q6 92 67 155.5t169 63.5q117 0 173 -58t56 -139q0 -35 -4.5 -62t-23 -61.5t-38 -61.5t-67.5 -78.5t-92.5 -95t-131.5 -127.5v-3h370v-80h-492v83q241 233 288 285q76 83 90 141q5 23 5 55q0 58 -35 90t-98 32q-129 0 -145 -145z" />
    <glyph glyph-name="three" unicode="3" horiz-adv-x="640" 
d="M320 63q66 0 109 38t43 104q0 68 -42 107.5t-128 39.5h-54v80h59q66 0 105 36t39 95q0 56 -35.5 90t-98.5 34q-129 0 -145 -147l-90 10q5 93 70 154.5t170 61.5q112 0 169.5 -55t57.5 -144q0 -59 -34 -102.5t-98 -65.5v-4q71 -16 112 -62.5t41 -121.5q0 -98 -69 -162
t-188 -64q-108 0 -171 54t-78 151l91 15q17 -71 56.5 -106.5t108.5 -35.5z" />
    <glyph glyph-name="four" unicode="4" horiz-adv-x="630" 
d="M474 0h-92v194h-334v73l330 488h96v-482h111v-79h-111v-194zM143 272h239v354h-7q-8 -20 -44 -73z" />
    <glyph glyph-name="five" unicode="5" horiz-adv-x="635" 
d="M301 -15q-117 0 -176.5 58.5t-72.5 146.5l93 12q31 -141 165 -141q66 0 112 46.5t46 132.5q0 87 -43 132.5t-120 45.5q-97 0 -151 -79l-75 33l61 383h392v-83h-321l-38 -239h2q53 66 163 66q93 0 159.5 -65t66.5 -183q0 -122 -69 -194t-194 -72z" />
    <glyph glyph-name="six" unicode="6" horiz-adv-x="654" 
d="M578 589l-93 -10q-27 113 -134 113q-92 0 -137.5 -84t-47.5 -234h2q62 115 191 115q101 0 167 -63t66 -182q0 -106 -70.5 -182.5t-183.5 -76.5q-267 0 -267 361q0 200 73.5 310t208.5 110q187 0 225 -177zM497 236q0 80 -42 126.5t-118 46.5q-71 0 -114.5 -46.5
t-43.5 -126.5q0 -84 46 -129.5t118 -45.5q63 0 108.5 46t45.5 129z" />
    <glyph glyph-name="seven" unicode="7" horiz-adv-x="556" 
d="M103 0l322 672h-387v83h482v-80l-315 -675h-102z" />
    <glyph glyph-name="eight" unicode="8" horiz-adv-x="640" 
d="M320 766q110 0 172 -56t62 -142q0 -122 -110 -172v-2q135 -52 135 -195q0 -92 -70 -153t-191 -61q-119 0 -188 60t-69 155q0 139 134 194v2q-109 49 -109 172q0 86 62.5 142t171.5 56zM182 560q0 -64 38.5 -97.5t99.5 -33.5t99.5 34.5t38.5 96.5q0 64 -39 98.5t-99 34.5
q-63 0 -100.5 -35t-37.5 -98zM480 208q0 68 -43 108.5t-117 40.5q-71 0 -115.5 -40.5t-44.5 -108.5t44 -108.5t116 -40.5q75 0 117.5 40t42.5 109z" />
    <glyph glyph-name="nine" unicode="9" horiz-adv-x="651" 
d="M156 518q0 -79 43.5 -124t116.5 -45q63 0 109.5 47t46.5 122q0 80 -44.5 125.5t-111.5 45.5t-113.5 -44t-46.5 -127zM70 165l90 9q16 -60 50 -87.5t91 -27.5q94 0 138.5 81t45.5 244h-3q-27 -57 -76.5 -86t-111.5 -29q-102 0 -168 64t-66 185q0 101 71 174.5t192 73.5
q53 0 97.5 -18t81.5 -57t58 -109.5t21 -166.5q0 -214 -68 -322t-216 -108q-98 0 -156.5 48.5t-70.5 131.5z" />
    <glyph glyph-name="colon" unicode=":" horiz-adv-x="269" 
d="M70 356v129h129v-129h-129zM70 0v129h129v-129h-129z" />
    <glyph glyph-name="semicolon" unicode=";" horiz-adv-x="269" 
d="M70 356v129h129v-129h-129zM77 -175l-27 42q39 22 57.5 51.5t18.5 81.5h-56v129h129v-112q0 -67 -28 -114t-94 -78z" />
    <glyph glyph-name="less" unicode="&#x3c;" horiz-adv-x="600" 
d="M535 48l-470 225v57l470 225v-77l-371 -175l371 -174v-81z" />
    <glyph glyph-name="equal" unicode="=" horiz-adv-x="600" 
d="M65 377v68h470v-68h-470zM65 207v68h470v-68h-470z" />
    <glyph glyph-name="greater" unicode="&#x3e;" horiz-adv-x="600" 
d="M65 556l470 -225v-57l-470 -225v77l371 175l-371 174v81z" />
    <glyph glyph-name="question" unicode="?" horiz-adv-x="525" 
d="M184 0v129h129v-129h-129zM204 204v63q0 59 15 87t72 75q60 50 83 83.5t23 80.5q0 53 -36.5 83.5t-99.5 30.5q-135 0 -160 -146l-87 14q10 96 78.5 153t173.5 57q109 0 168 -52.5t59 -138.5q0 -61 -31.5 -109.5t-96.5 -100.5q-43 -35 -57.5 -60.5t-14.5 -63.5v-56h-89z
" />
    <glyph glyph-name="at" unicode="@" horiz-adv-x="1071" 
d="M515 -186q-200 0 -326 124.5t-126 327.5q0 220 142 359t357 139q207 0 326.5 -118t119.5 -291q0 -141 -70 -225.5t-164 -84.5q-115 0 -139 90h-4q-49 -84 -152 -84q-77 0 -122.5 52.5t-45.5 149.5q0 115 59.5 199t164.5 84q49 0 83 -20.5t49 -53.5h3l13 66h74l-44 -305
q-15 -114 72 -114q60 0 105.5 67.5t45.5 176.5q0 153 -105 251t-276 98q-183 0 -299 -122t-116 -306q0 -183 114 -290t278 -107q173 0 292 88l33 -48q-63 -51 -142.5 -77t-199.5 -26zM497 117q47 0 82 37t49.5 86.5t14.5 100.5q0 128 -100 128q-72 0 -109 -65t-37 -151
q0 -136 100 -136z" />
    <glyph glyph-name="A" unicode="A" horiz-adv-x="726" 
d="M333 588l-103 -291h259l-102 289l-25 82h-3q-11 -39 -26 -80zM593 0l-76 217h-315l-77 -217h-95l273 755h117l276 -755h-103z" />
    <glyph glyph-name="B" unicode="B" horiz-adv-x="703" 
d="M95 0v755h291q109 0 170 -48.5t61 -130.5q0 -126 -121 -172v-3q65 -15 108.5 -58.5t43.5 -120.5q0 -103 -71.5 -162.5t-198.5 -59.5h-283zM192 678v-247h183q72 0 108 32.5t36 91.5q0 64 -35 93.5t-116 29.5h-176zM192 81h198q78 0 119 35.5t41 103.5q0 66 -41 101
t-107 35h-210v-275z" />
    <glyph glyph-name="C" unicode="C" horiz-adv-x="743" 
d="M396 -15q-150 0 -242 101t-92 290q0 176 93.5 283t242.5 107q114 0 185.5 -52.5t102.5 -130.5l-86 -40q-68 141 -204 141q-109 0 -170.5 -85.5t-61.5 -222.5q0 -140 62 -224t170 -84q156 0 209 155l88 -27q-6 -26 -23.5 -57.5t-50.5 -68t-91.5 -61t-131.5 -24.5z" />
    <glyph glyph-name="D" unicode="D" horiz-adv-x="750" 
d="M313 0h-218v755h218q372 0 372 -376q0 -191 -95.5 -286t-276.5 -93zM192 79h121q140 0 206.5 68.5t66.5 231.5q0 152 -65.5 222.5t-207.5 70.5h-121v-593z" />
    <glyph glyph-name="E" unicode="E" horiz-adv-x="637" 
d="M95 0v755h470v-84h-373v-247h334v-84h-334v-256h380v-84h-477z" />
    <glyph glyph-name="F" unicode="F" horiz-adv-x="587" 
d="M95 0v755h452v-84h-355v-257h301v-83h-301v-331h-97z" />
    <glyph glyph-name="G" unicode="G" horiz-adv-x="773" 
d="M385 -15q-146 0 -234.5 100.5t-88.5 290.5q0 178 95.5 284t247.5 106q113 0 180.5 -50.5t97.5 -123.5l-86 -39q-35 65 -81 98t-117 33q-109 0 -173 -86t-64 -222q0 -134 60 -221.5t170 -87.5q57 0 99.5 19t65.5 52t33.5 70.5t10.5 80.5v21h-202v80h289v-390h-82l-4 98h-4
q-71 -113 -213 -113z" />
    <glyph glyph-name="H" unicode="H" horiz-adv-x="762" 
d="M570 0v346h-378v-346h-97v755h97v-327h378v327h97v-755h-97z" />
    <glyph glyph-name="I" unicode="I" horiz-adv-x="287" 
d="M95 0v755h97v-755h-97z" />
    <glyph glyph-name="J" unicode="J" horiz-adv-x="616" 
d="M274 -15q-113 0 -171 59.5t-68 164.5l89 13q17 -159 152 -159q154 0 154 160v532h96v-518q0 -48 -10.5 -88.5t-36.5 -79.5t-78 -61.5t-127 -22.5z" />
    <glyph glyph-name="K" unicode="K" horiz-adv-x="703" 
d="M192 262v-262h-97v755h97v-378l340 378h116l-290 -315l305 -440h-118l-253 370z" />
    <glyph glyph-name="L" unicode="L" horiz-adv-x="590" 
d="M95 0v755h97v-670h363v-85h-460z" />
    <glyph glyph-name="M" unicode="M" horiz-adv-x="944" 
d="M95 755h152l204 -575l24 -76h2q12 44 24 76l206 575h142v-755h-92v646h-4q-5 -23 -18 -58l-212 -588h-103l-212 588l-17 58h-4v-646h-92v755z" />
    <glyph glyph-name="N" unicode="N" horiz-adv-x="758" 
d="M95 0v755h114l329 -564l30 -60h2v624h92v-755h-114l-329 564l-30 60h-2v-624h-92z" />
    <glyph glyph-name="O" unicode="O" horiz-adv-x="793" 
d="M395 -15q-156 0 -244.5 102.5t-88.5 288.5q0 181 92.5 285.5t243.5 104.5q154 0 243.5 -102.5t89.5 -287.5q0 -182 -92.5 -286.5t-243.5 -104.5zM395 66q110 0 172.5 82t62.5 228q0 148 -62 228.5t-172 80.5q-109 0 -171 -82.5t-62 -226.5q0 -146 61.5 -228t170.5 -82z
" />
    <glyph glyph-name="P" unicode="P" horiz-adv-x="637" 
d="M95 0v755h247q118 0 189 -55.5t71 -170.5q0 -111 -73 -169t-195 -58h-142v-302h-97zM336 676h-144v-294h140q84 0 128.5 37.5t44.5 109.5q0 147 -169 147z" />
    <glyph glyph-name="Q" unicode="Q" horiz-adv-x="795" 
d="M641 -85l-93 106q-69 -36 -152 -36q-153 0 -243.5 102.5t-90.5 288.5q0 182 93 286t243 104q153 0 243 -102.5t90 -287.5q0 -198 -115 -306l88 -101zM397 64q53 0 96 20l-84 96l63 54l87 -99q71 83 71 239q0 143 -62.5 227.5t-171.5 84.5t-170.5 -83.5t-61.5 -226.5
t62 -227.5t171 -84.5z" />
    <glyph glyph-name="R" unicode="R" horiz-adv-x="686" 
d="M337 676h-145v-282h157q78 0 119.5 30.5t41.5 110.5q0 74 -43.5 107.5t-129.5 33.5zM530 0l-179 315h-159v-315h-97v755h254q125 0 192.5 -56t67.5 -164q0 -77 -41 -129t-118 -74v-1l191 -331h-111z" />
    <glyph glyph-name="S" unicode="S" horiz-adv-x="684" 
d="M339 -15q-114 0 -189.5 57t-98.5 139l91 29q50 -142 201 -142q85 0 134 35t49 102q0 49 -33.5 79.5t-119.5 49.5l-85 19q-90 21 -143 67.5t-54 133.5q-1 90 68.5 151t182.5 61t175 -43.5t94 -121.5l-85 -35q-27 61 -69.5 89.5t-114.5 28.5q-77 0 -115.5 -34.5
t-38.5 -86.5q0 -54 35 -80.5t112 -45.5l94 -22q195 -46 195 -195q0 -108 -76.5 -171.5t-208.5 -63.5z" />
    <glyph glyph-name="T" unicode="T" horiz-adv-x="627" 
d="M30 671v84h567v-84h-235v-671h-97v671h-235z" />
    <glyph glyph-name="U" unicode="U" horiz-adv-x="754" 
d="M379 -15q-144 0 -216.5 71.5t-72.5 201.5v497h97v-487q0 -101 45.5 -151t146.5 -50q100 0 146 51t46 150v487h93v-497q0 -129 -71 -201t-214 -72z" />
    <glyph glyph-name="V" unicode="V" horiz-adv-x="715" 
d="M133 755l202 -572l25 -80h4q9 39 24 80l202 572h95l-274 -755h-107l-274 755h103z" />
    <glyph glyph-name="W" unicode="W" horiz-adv-x="1042" 
d="M683 0l-157 653l-157 -653h-135l-194 755h101l163 -672l163 672h119l163 -658l159 658h94l-193 -755h-126z" />
    <glyph glyph-name="X" unicode="X" horiz-adv-x="671" 
d="M45 755h114l181 -290l180 290h105l-234 -365l250 -390h-113l-194 310l-200 -310h-104l252 389z" />
    <glyph glyph-name="Y" unicode="Y" horiz-adv-x="661" 
d="M284 0v308l-254 447h107l199 -360l199 360h96l-249 -441v-314h-98z" />
    <glyph glyph-name="Z" unicode="Z" horiz-adv-x="660" 
d="M55 0v72l433 601h-412v82h529v-72l-434 -601h426v-82h-542z" />
    <glyph glyph-name="bracketleft" unicode="[" horiz-adv-x="320" 
d="M100 -163v961h195v-57h-108v-847h108v-57h-195z" />
    <glyph glyph-name="backslash" unicode="\" horiz-adv-x="417" 
d="M88 798l353 -961h-73l-352 961h72z" />
    <glyph glyph-name="bracketright" unicode="]" horiz-adv-x="320" 
d="M220 798v-961h-195v57h108v847h-108v57h195z" />
    <glyph glyph-name="asciicircum" unicode="^" horiz-adv-x="424" 
d="M251 755l153 -292h-82l-111 211l-114 -211h-77l157 292h74z" />
    <glyph glyph-name="underscore" unicode="_" horiz-adv-x="530" 
d="M30 -222v70h470v-70h-470z" />
    <glyph glyph-name="grave" unicode="`" horiz-adv-x="500" 
d="M275 778l81 -167h-76l-128 167h123z" />
    <glyph glyph-name="a" unicode="a" horiz-adv-x="581" 
d="M250 61q46 0 79.5 18t50 47t24 56t7.5 53v12q-41 2 -87 2q-97 0 -135 -24.5t-38 -76.5q0 -40 28.5 -63.5t70.5 -23.5zM230 -14q-77 0 -126.5 43.5t-49.5 115.5q0 87 71.5 132t191.5 45l94 -3v14q0 67 -26 103.5t-99 36.5q-95 0 -123 -91l-84 25q12 57 64.5 100t150.5 43
q207 0 207 -211v-198l5 -141h-89l-5 81q-30 -45 -70.5 -70t-111.5 -25z" />
    <glyph glyph-name="b" unicode="b" horiz-adv-x="642" 
d="M332 -15q-59 0 -98 25.5t-55 61.5v-72h-89v778h96v-327q21 38 63 68t107 30q80 0 134 -42t75.5 -102t21.5 -133q0 -126 -65 -206.5t-190 -80.5zM329 64q79 0 119.5 57t40.5 147q0 97 -39 149.5t-113 52.5q-81 0 -121.5 -55.5t-40.5 -149.5q0 -92 40 -146.5t114 -54.5z
" />
    <glyph glyph-name="c" unicode="c" horiz-adv-x="569" 
d="M306 -15q-124 0 -187.5 75t-63.5 197q0 124 67.5 208t193.5 84q153 0 207 -129l-86 -37q-9 18 -17.5 30.5t-23.5 27.5t-37 23t-51 8q-74 0 -116 -57.5t-42 -145.5q0 -94 41 -150t120 -56q97 0 144 93l76 -34q-32 -65 -85 -101t-140 -36z" />
    <glyph glyph-name="d" unicode="d" horiz-adv-x="642" 
d="M306 66q79 0 120 55.5t41 148.5q0 91 -40 146.5t-114 55.5q-79 0 -119.5 -55.5t-40.5 -147.5q0 -95 37.5 -149t115.5 -54zM291 -15q-106 0 -171 71.5t-65 205.5q0 77 26.5 140t85.5 105t143 42q52 0 91.5 -25t57.5 -60v314h93v-778h-90v83q-54 -98 -171 -98z" />
    <glyph glyph-name="e" unicode="e" horiz-adv-x="587" 
d="M305 -15q-118 0 -184 77t-66 203q0 124 67 204t185 80q123 0 179 -82.5t56 -218.5h-390q1 -80 44.5 -132t115.5 -52q85 0 136 76l74 -40q-30 -52 -85 -83.5t-132 -31.5zM301 474q-66 0 -103.5 -44.5t-43.5 -108.5h286q-5 70 -39.5 111.5t-99.5 41.5z" />
    <glyph glyph-name="f" unicode="f" horiz-adv-x="365" 
d="M30 462v73h91v104q0 71 40.5 107.5t107.5 36.5q17 0 35 -2.5t27 -4.5l9 -2l-5 -79q-32 8 -53 8q-42 0 -55 -21.5t-13 -64.5v-82h120v-73h-120v-462h-93v462h-91z" />
    <glyph glyph-name="g" unicode="g" horiz-adv-x="642" 
d="M309 76q75 0 116.5 54t41.5 146q0 87 -40.5 141.5t-113.5 54.5q-78 0 -119 -55.5t-41 -143.5q0 -91 39 -144t117 -53zM298 -232q-181 0 -229 140l88 27q32 -92 140 -92q86 0 124 38.5t38 118.5v98q-50 -102 -173 -102q-109 0 -170 76t-61 196q0 121 64 201t178 80
q117 0 166 -93v79h89v-508q0 -125 -58.5 -192t-195.5 -67z" />
    <glyph glyph-name="h" unicode="h" horiz-adv-x="621" 
d="M183 778v-320q59 91 167 91q90 0 138 -55.5t48 -145.5v-348h-93v320q0 147 -121 147q-64 0 -101.5 -40t-37.5 -120v-307h-93v778h93z" />
    <glyph glyph-name="i" unicode="i" horiz-adv-x="273" 
d="M84 648v107h105v-107h-105zM90 0v535h93v-535h-93z" />
    <glyph glyph-name="j" unicode="j" horiz-adv-x="273" 
d="M84 648v107h105v-107h-105zM42 -222q-43 0 -74 9l7 71q25 -5 55 -5q60 0 60 80v602h93v-608q0 -72 -38 -110.5t-103 -38.5z" />
    <glyph glyph-name="k" unicode="k" horiz-adv-x="564" 
d="M431 0l-177 247l-71 -84v-163h-93v778h93v-499l218 256h110l-191 -221l226 -314h-115z" />
    <glyph glyph-name="l" unicode="l" horiz-adv-x="273" 
d="M90 0v778h93v-778h-93z" />
    <glyph glyph-name="m" unicode="m" horiz-adv-x="974" 
d="M90 0v535h90v-79q63 93 170 93q126 0 169 -107q72 107 184 107q90 0 138 -55.5t48 -145.5v-348h-93v320q0 147 -121 147q-64 0 -101.5 -40t-37.5 -120v-307h-93v320q0 147 -121 147q-64 0 -101.5 -40t-37.5 -120v-307h-93z" />
    <glyph glyph-name="n" unicode="n" horiz-adv-x="621" 
d="M90 0v535h90v-79q63 93 170 93q90 0 138 -55.5t48 -145.5v-348h-93v320q0 147 -121 147q-64 0 -101.5 -40t-37.5 -120v-307h-93z" />
    <glyph glyph-name="o" unicode="o" horiz-adv-x="622" 
d="M307 -15q-121 0 -186.5 78t-65.5 204q0 124 69 203t191 79q121 0 186.5 -78t65.5 -204q0 -124 -69 -203t-191 -79zM312 61q79 0 118.5 55.5t39.5 150.5q0 94 -40.5 150t-119.5 56t-118.5 -55.5t-39.5 -150.5q0 -94 40.5 -150t119.5 -56z" />
    <glyph glyph-name="p" unicode="p" horiz-adv-x="642" 
d="M329 64q79 0 119.5 57t40.5 147q0 97 -39 149.5t-113 52.5q-81 0 -121.5 -55.5t-40.5 -149.5q0 -92 40 -146.5t114 -54.5zM90 -222v757h89v-89q24 43 68.5 73t108.5 30q60 0 106.5 -24t72.5 -64t39 -88t13 -101q0 -126 -68.5 -206.5t-186.5 -80.5q-55 0 -93.5 23.5
t-55.5 55.5v-286h-93z" />
    <glyph glyph-name="q" unicode="q" horiz-adv-x="642" 
d="M456 -222v305q-21 -38 -63 -68t-107 -30q-111 0 -171 78t-60 199q0 126 63.5 206.5t178.5 80.5q61 0 105 -27t61 -66v79h89v-757h-96zM305 66q80 0 121 56.5t41 148.5t-40 146.5t-114 54.5q-79 0 -119.5 -56.5t-40.5 -147.5q0 -93 38 -147.5t114 -54.5z" />
    <glyph glyph-name="r" unicode="r" horiz-adv-x="393" 
d="M90 0v535h90v-97h3q44 108 180 108v-96q-19 2 -47 2q-42 0 -76 -23t-47 -67q-10 -35 -10 -145v-217h-93z" />
    <glyph glyph-name="s" unicode="s" horiz-adv-x="519" 
d="M258 -15q-88 0 -136.5 34t-75.5 99l79 33q42 -91 134 -91q55 0 85.5 22t30.5 59q0 30 -18.5 48t-69.5 31l-74 19q-144 37 -144 157q0 62 51.5 107.5t138.5 45.5q147 0 199 -116l-79 -35q-39 75 -119 75q-52 0 -76 -21t-24 -50q0 -33 21 -51t68 -30l86 -22
q130 -33 130 -143q0 -77 -55.5 -124t-151.5 -47z" />
    <glyph glyph-name="t" unicode="t" horiz-adv-x="390" 
d="M30 462v73h92l6 145h84v-145h122v-73h-120v-330q0 -40 16.5 -54t55.5 -14l50 4l4 -69q-48 -10 -84 -10q-76 0 -106 32.5t-30 109.5l2 331h-92z" />
    <glyph glyph-name="u" unicode="u" horiz-adv-x="611" 
d="M266 -14q-85 0 -133 57.5t-48 152.5v339h93v-320q0 -148 116 -148q72 0 103 44t31 114v310h93v-535h-90v77q-54 -91 -165 -91z" />
    <glyph glyph-name="v" unicode="v" horiz-adv-x="529" 
d="M320 0h-111l-189 535h100l123 -372l23 -76h3q9 32 24 76l124 372h92z" />
    <glyph glyph-name="w" unicode="w" horiz-adv-x="829" 
d="M530 0l-100 331l-16 68h-3q-3 -26 -17 -70l-102 -329h-103l-164 535h98l104 -367l15 -72h3q6 33 18 72l111 367h84l111 -367l18 -79h4q6 39 17 78l104 368h93l-166 -535h-109z" />
    <glyph glyph-name="x" unicode="x" horiz-adv-x="526" 
d="M393 0l-135 206l-135 -206h-98l183 273l-173 262h108l121 -189l123 189h100l-174 -257l188 -278h-108z" />
    <glyph glyph-name="y" unicode="y" horiz-adv-x="516" 
d="M137 -222l74 222l-191 535h100l124 -363q7 -19 11.5 -36.5t5.5 -25.5l1 -7h3q4 27 20 74l119 358h92l-267 -757h-92z" />
    <glyph glyph-name="z" unicode="z" horiz-adv-x="505" 
d="M55 457v78h399v-78l-303 -379h311v-78h-415v77l305 380h-297z" />
    <glyph glyph-name="braceleft" unicode="{" horiz-adv-x="335" 
d="M40 280v76h31q42 0 55 21t10 67l-14 203q-6 78 31 114.5t102 36.5h50v-62h-29q-41 0 -57 -19.5t-13 -69.5l12 -222q5 -87 -70 -106v-2q75 -19 70 -106l-12 -223q-3 -50 13 -69.5t57 -19.5h29v-62h-50q-65 0 -102 36.5t-31 114.5l14 204q3 46 -10 67t-55 21h-31z" />
    <glyph glyph-name="bar" unicode="|" horiz-adv-x="317" 
d="M125 -163v961h67v-961h-67z" />
    <glyph glyph-name="braceright" unicode="}" horiz-adv-x="335" 
d="M285 354v-76h-31q-42 0 -55 -21t-10 -67l14 -203q6 -78 -31 -114.5t-102 -36.5h-50v62h29q41 0 57 19.5t13 69.5l-12 222q-5 87 70 106v2q-75 19 -70 106l12 223q3 50 -13 69.5t-57 19.5h-29v62h50q65 0 102 -36.5t31 -114.5l-14 -204q-3 -46 10 -67t55 -21h31z" />
    <glyph glyph-name="asciitilde" unicode="~" horiz-adv-x="600" 
d="M67 267q0 58 34.5 98.5t97.5 40.5q46 0 112 -38.5t93 -38.5q51 0 67 71h61q0 -54 -36 -96.5t-91 -42.5q-50 0 -117 39t-94 39t-44.5 -19t-21.5 -53h-61z" />
    <glyph glyph-name="uni00A0" unicode="&#xa0;" horiz-adv-x="260" 
 />
    <glyph glyph-name="exclamdown" unicode="&#xa1;" horiz-adv-x="287" 
d="M208 611v-129h-129v129h129zM177 406l15 -280v-293h-96v293l15 280h66z" />
    <glyph glyph-name="cent" unicode="&#xa2;" horiz-adv-x="576" 
d="M531 122q-62 -126 -198 -136v-128h-60v129q-108 10 -163 83.5t-55 186.5t56 194t162 95v140h60v-137q78 -5 123.5 -42t66.5 -87l-85 -36q-11 22 -21 37t-32.5 31.5t-51.5 21.5v-414q81 10 123 95zM149 269q0 -82 31.5 -137t92.5 -69v409q-58 -14 -91 -70.5t-33 -132.5z
" />
    <glyph glyph-name="sterling" unicode="&#xa3;" horiz-adv-x="657" 
d="M590 86v-86h-525v75q148 5 117 200l-9 60h-88v65h78l-17 106q-18 112 42.5 186t181.5 74q90 0 148 -45.5t74 -137.5l-89 -17q-15 63 -47 93.5t-90 30.5q-154 0 -122 -198l15 -92h210v-65h-200l8 -48q12 -75 -2.5 -120t-55.5 -78v-3h371z" />
    <glyph glyph-name="currency" unicode="&#xa4;" horiz-adv-x="631" 
d="M206 347q0 -51 30 -84t78 -33t78.5 33t30.5 84t-30.5 84.5t-78.5 33.5t-78 -33.5t-30 -84.5zM135 347q0 52 26 96l-79 79l57 57l78 -79q44 27 97 27q55 0 100 -29l82 84l55 -55l-84 -83q27 -44 27 -97q0 -54 -27 -97l81 -80l-57 -57l-80 81q-43 -26 -97 -26t-97 26
l-81 -82l-55 55l82 81q-28 44 -28 99z" />
    <glyph glyph-name="yen" unicode="&#xa5;" horiz-adv-x="650" 
d="M590 141h-213v-141h-92v141h-225v64h225v101h-225v64h215l-222 385h101l179 -329l170 329h94l-211 -385h204v-64h-213v-101h213v-64z" />
    <glyph glyph-name="brokenbar" unicode="&#xa6;" horiz-adv-x="317" 
d="M125 427v371h67v-371h-67zM125 -163v371h67v-371h-67z" />
    <glyph glyph-name="section" unicode="&#xa7;" horiz-adv-x="545" 
d="M317 305q37 -11 52 -17q37 22 37 68q0 35 -19.5 52t-66.5 30l-83 23q-31 8 -53 17q-36 -26 -36 -68q0 -38 20.5 -54t65.5 -28zM425 258v-3q44 -38 44 -105q0 -73 -53.5 -119t-152.5 -46q-101 0 -149 40t-60 98l85 21q27 -85 124 -85q116 0 116 81q0 61 -72 80l-112 29
q-133 34 -133 140q0 40 15.5 67.5t51.5 51.5v3q-44 38 -44 105q0 64 50.5 109t140.5 45q83 0 132 -37.5t62 -92.5l-83 -23q-27 83 -118 83q-48 0 -72.5 -21t-24.5 -52q0 -35 19 -53t55 -28l113 -30q133 -36 133 -138q0 -40 -15.5 -68t-51.5 -52z" />
    <glyph glyph-name="dieresis" unicode="&#xa8;" horiz-adv-x="500" 
d="M304 653v102h99v-102h-99zM97 653v102h99v-102h-99z" />
    <glyph glyph-name="copyright" unicode="&#xa9;" horiz-adv-x="925" 
d="M70 377q0 163 114.5 278t277.5 115t278 -115t115 -278t-115 -277.5t-278 -114.5t-277.5 114.5t-114.5 277.5zM125 377q0 -143 98.5 -243.5t238.5 -100.5t239 100.5t99 243.5t-99 244t-239 101t-238.5 -101t-98.5 -244zM465 149q-99 0 -153.5 63.5t-54.5 161.5
q0 103 56.5 172t159.5 69q118 0 171 -106l-71 -31q-33 74 -107 74q-61 0 -95.5 -48t-34.5 -120q0 -78 34 -124.5t99 -46.5q81 0 119 77l63 -28q-56 -113 -186 -113z" />
    <glyph glyph-name="ordfeminine" unicode="&#xaa;" horiz-adv-x="453" 
d="M195 409q58 0 86 40t28 82v9q-29 3 -61 3q-116 0 -116 -73q0 -28 17 -44.5t46 -16.5zM189 347q-64 0 -101.5 33t-37.5 91q0 62 53.5 95t141.5 33l64 -3v9q0 103 -89 103q-61 0 -87 -67l-68 22q33 107 163 107q75 0 115.5 -37t40.5 -129v-140l4 -106h-75l-4 61
q-44 -72 -120 -72z" />
    <glyph glyph-name="guillemotleft" unicode="&#xab;" horiz-adv-x="490" 
d="M350 464h85l-117 -202l117 -205h-87l-123 204zM170 464h85l-117 -202l117 -205h-87l-123 204z" />
    <glyph glyph-name="logicalnot" unicode="&#xac;" horiz-adv-x="600" 
d="M65 292v68h470v-276h-72v208h-398z" />
    <glyph glyph-name="registered" unicode="&#xae;" horiz-adv-x="472" 
d="M236 354q-86 0 -146.5 60.5t-60.5 146.5t60.5 146.5t146.5 60.5t146.5 -60.5t60.5 -146.5t-60.5 -146.5t-146.5 -60.5zM236 736q-71 0 -121.5 -51.5t-50.5 -123.5t50.5 -123.5t121.5 -51.5t121.5 51.5t50.5 123.5t-50.5 123.5t-121.5 51.5zM196 575h38q45 0 45 33
q0 35 -43 35h-40v-68zM157 450v227h79q84 0 84 -69q0 -46 -43 -61l53 -97h-44l-46 89h-44v-89h-39z" />
    <glyph glyph-name="macron" unicode="&#xaf;" horiz-adv-x="500" 
d="M80 653v75h334v-75h-334z" />
    <glyph glyph-name="degree" unicode="&#xb0;" horiz-adv-x="400" 
d="M50 620q0 64 43 107t107 43q65 0 107.5 -43t42.5 -107t-43.5 -106.5t-108.5 -42.5q-64 0 -106 42.5t-42 106.5zM109 620q0 -43 25 -70t65 -27q41 0 66.5 27t25.5 70t-25.5 70.5t-66.5 27.5q-40 0 -65 -27.5t-25 -70.5z" />
    <glyph glyph-name="plusminus" unicode="&#xb1;" horiz-adv-x="600" 
d="M65 337v68h199v179h72v-179h199v-68h-199v-183h-72v183h-199zM65 0v68h470v-68h-470z" />
    <glyph glyph-name="twosuperior" unicode="&#xb2;" horiz-adv-x="408" 
d="M126 685l-69 4q2 59 40.5 99t108.5 40q68 0 103.5 -33.5t35.5 -84.5q0 -56 -34.5 -96.5t-163.5 -149.5v-2h201v-62h-300v57q165 145 189 171q33 40 34 73q0 33 -17.5 50.5t-48.5 17.5q-74 0 -79 -84z" />
    <glyph glyph-name="threesuperior" unicode="&#xb3;" horiz-adv-x="419" 
d="M206 448q39 0 61 19.5t22 53.5q0 66 -83 66h-46v59h44q74 0 74 62q0 30 -19.5 46t-51.5 16q-68 0 -81 -74l-65 8q6 55 45 89.5t102 34.5q68 0 104 -31t36 -79q0 -72 -73 -95v-2q87 -17 87 -101q0 -55 -44 -92t-112 -37q-69 0 -109 34t-46 89l69 8q13 -74 86 -74z" />
    <glyph glyph-name="acute" unicode="&#xb4;" horiz-adv-x="500" 
d="M143 611l96 167h123l-142 -167h-77z" />
    <glyph glyph-name="paragraph" unicode="&#xb6;" horiz-adv-x="580" 
d="M304 366h-50q-94 0 -149 55t-55 139t55.5 139.5t148.5 55.5h50v-389zM392 -222v977h93v-977h-93z" />
    <glyph glyph-name="periodcentered" unicode="&#xb7;" horiz-adv-x="299" 
d="M85 231v129h129v-129h-129z" />
    <glyph glyph-name="cedilla" unicode="&#xb8;" horiz-adv-x="500" 
d="M311 9l-33 -69l4 -1q19 8 41 8q35 0 59.5 -21.5t24.5 -59.5q0 -42 -31 -69.5t-84 -27.5q-60 0 -101 32l29 42q29 -21 70 -21q19 0 31 9.5t12 26.5t-11 26t-28 9q-19 0 -34 -12l-45 23l46 105h50z" />
    <glyph glyph-name="onesuperior" unicode="&#xb9;" horiz-adv-x="307" 
d="M218 400h-71v333l-85 -51l-31 52l135 87h52v-421z" />
    <glyph glyph-name="ordmasculine" unicode="&#xba;" horiz-adv-x="486" 
d="M239 347q-90 0 -137 55.5t-47 156.5q0 99 49.5 155t140.5 56q90 0 138 -55.5t48 -155.5q0 -98 -50.5 -155t-141.5 -57zM243 410q53 0 80.5 40.5t27.5 108.5q0 67 -28.5 107.5t-81.5 40.5t-79.5 -40t-26.5 -108t27.5 -108.5t80.5 -40.5z" />
    <glyph glyph-name="guillemotright" unicode="&#xbb;" horiz-adv-x="490" 
d="M320 57h-85l117 202l-117 205h87l123 -204zM140 57h-85l117 202l-117 205h87l123 -204z" />
    <glyph glyph-name="onequarter" unicode="&#xbc;" horiz-adv-x="883" 
d="M218 335h-71v333l-85 -51l-31 52l135 87h52v-421zM129 -14l502 780h71l-501 -780h-72zM780 0h-67v99h-201v47l181 274h87v-262h64v-59h-64v-99zM585 157h128v207h-4q-17 -46 -63 -115z" />
    <glyph glyph-name="onehalf" unicode="&#xbd;" horiz-adv-x="915" 
d="M218 335h-71v333l-85 -51l-31 52l135 87h52v-421zM129 -14l502 780h71l-501 -780h-72zM632 285l-69 4q2 59 40.5 99t108.5 40q68 0 103.5 -33.5t35.5 -84.5q0 -56 -34.5 -96.5t-163.5 -149.5v-2h201v-62h-300v57q165 145 189 171q33 40 34 73q0 33 -17.5 50.5t-48.5 17.5
q-74 0 -79 -84z" />
    <glyph glyph-name="threequarters" unicode="&#xbe;" horiz-adv-x="975" 
d="M206 383q39 0 61 19.5t22 53.5q0 66 -83 66h-46v59h44q74 0 74 62q0 30 -19.5 46t-51.5 16q-68 0 -81 -74l-65 8q6 55 45 89.5t102 34.5q68 0 104 -31t36 -79q0 -72 -73 -95v-2q87 -17 87 -101q0 -55 -44 -92t-112 -37q-69 0 -109 34t-46 89l69 8q13 -74 86 -74zM228 -14
l502 780h71l-501 -780h-72zM873 0h-67v99h-201v47l181 274h87v-262h64v-59h-64v-99zM678 157h128v207h-4q-17 -46 -63 -115z" />
    <glyph glyph-name="questiondown" unicode="&#xbf;" horiz-adv-x="525" 
d="M341 611v-129h-129v129h129zM321 407v-63q0 -59 -15 -87t-72 -75q-60 -50 -83 -83.5t-23 -80.5q0 -53 36.5 -83.5t99.5 -30.5q135 0 160 146l87 -14q-10 -96 -78.5 -153t-173.5 -57q-109 0 -168 52.5t-59 138.5q0 61 31.5 109.5t96.5 100.5q43 35 57.5 60.5t14.5 63.5v56
h89z" />
    <glyph glyph-name="Agrave" unicode="&#xc0;" horiz-adv-x="726" 
d="M333 588l-103 -291h259l-102 289l-25 82h-3q-11 -39 -26 -80zM593 0l-76 217h-315l-77 -217h-95l273 755h117l276 -755h-103zM312 948l93 -142h-80l-140 142h127z" />
    <glyph glyph-name="Aacute" unicode="&#xc1;" horiz-adv-x="726" 
d="M333 588l-103 -291h259l-102 289l-25 82h-3q-11 -39 -26 -80zM593 0l-76 217h-315l-77 -217h-95l273 755h117l276 -755h-103zM321 806l93 142h127l-140 -142h-80z" />
    <glyph glyph-name="Acircumflex" unicode="&#xc2;" horiz-adv-x="726" 
d="M333 588l-103 -291h259l-102 289l-25 82h-3q-11 -39 -26 -80zM593 0l-76 217h-315l-77 -217h-95l273 755h117l276 -755h-103zM213 795v78l151 82l149 -82v-81l-154 75z" />
    <glyph glyph-name="Atilde" unicode="&#xc3;" horiz-adv-x="726" 
d="M333 588l-103 -291h259l-102 289l-25 82h-3q-11 -39 -26 -80zM593 0l-76 217h-315l-77 -217h-95l273 755h117l276 -755h-103zM246 817h-67q0 57 27.5 95.5t74.5 38.5q40 0 91 -28.5t69 -28.5q44 0 44 61h67q-3 -133 -108 -133q-38 0 -86.5 28.5t-66.5 28.5q-45 0 -45 -62
z" />
    <glyph glyph-name="Adieresis" unicode="&#xc4;" horiz-adv-x="726" 
d="M333 588l-103 -291h259l-102 289l-25 82h-3q-11 -39 -26 -80zM593 0l-76 217h-315l-77 -217h-95l273 755h117l276 -755h-103zM422 826v101h99v-101h-99zM205 826v101h99v-101h-99z" />
    <glyph glyph-name="Aring" unicode="&#xc5;" horiz-adv-x="726" 
d="M333 588l-103 -291h259l-102 289l-25 82h-3q-11 -39 -26 -80zM593 0l-76 217h-315l-77 -217h-95l273 755h117l276 -755h-103zM241 906q0 50 35.5 85t86.5 35t86.5 -35t35.5 -85t-35.5 -85t-86.5 -35t-86.5 35t-35.5 85zM290 906q0 -31 21.5 -53t51.5 -22q29 0 50 22
t21 53q0 30 -21 51.5t-50 21.5q-30 0 -51.5 -21t-21.5 -52z" />
    <glyph glyph-name="AE" unicode="&#xc6;" horiz-adv-x="954" 
d="M372 590l-125 -293h205v374h-48q-15 -41 -32 -81zM452 0v217h-239l-92 -217h-96l331 755h526v-84h-333v-248h294v-82h-294v-257h340v-84h-437z" />
    <glyph glyph-name="Ccedilla" unicode="&#xc7;" horiz-adv-x="743" 
d="M395 -231q-60 0 -101 32l29 42q29 -21 70 -21q19 0 31 9.5t12 26.5t-11 26t-28 9q-19 0 -34 -12l-45 23l36 83q-133 14 -212.5 114t-79.5 275q0 176 93.5 283t242.5 107q114 0 185.5 -52.5t102.5 -130.5l-86 -40q-68 141 -204 141q-109 0 -170.5 -85.5t-61.5 -222.5
q0 -140 62 -224t170 -84q156 0 209 155l88 -27q-5 -22 -17 -47t-36.5 -55t-56 -53.5t-79 -39.5t-102.5 -16l-21 -45l4 -1q19 8 41 8q35 0 59.5 -21.5t24.5 -59.5q0 -42 -31 -69.5t-84 -27.5z" />
    <glyph glyph-name="Egrave" unicode="&#xc8;" horiz-adv-x="637" 
d="M95 0v755h470v-84h-373v-247h334v-84h-334v-256h380v-84h-477zM290 948l93 -142h-80l-140 142h127z" />
    <glyph glyph-name="Eacute" unicode="&#xc9;" horiz-adv-x="637" 
d="M95 0v755h470v-84h-373v-247h334v-84h-334v-256h380v-84h-477zM291 806l93 142h127l-140 -142h-80z" />
    <glyph glyph-name="Ecircumflex" unicode="&#xca;" horiz-adv-x="637" 
d="M95 0v755h470v-84h-373v-247h334v-84h-334v-256h380v-84h-477zM191 795v78l151 82l149 -82v-81l-154 75z" />
    <glyph glyph-name="Edieresis" unicode="&#xcb;" horiz-adv-x="637" 
d="M95 0v755h470v-84h-373v-247h334v-84h-334v-256h380v-84h-477zM400 826v101h99v-101h-99zM183 826v101h99v-101h-99z" />
    <glyph glyph-name="Igrave" unicode="&#xcc;" horiz-adv-x="287" 
d="M95 0v755h97v-755h-97zM92 948l93 -142h-80l-140 142h127z" />
    <glyph glyph-name="Iacute" unicode="&#xcd;" horiz-adv-x="287" 
d="M95 0v755h97v-755h-97zM101 806l93 142h127l-140 -142h-80z" />
    <glyph glyph-name="Icircumflex" unicode="&#xce;" horiz-adv-x="287" 
d="M13 795v81l131 80l129 -80v-84l-134 73zM95 0v755h97v-755h-97z" />
    <glyph glyph-name="Idieresis" unicode="&#xcf;" horiz-adv-x="287" 
d="M176 826v101h99v-101h-99zM12 826v101h99v-101h-99zM95 0v755h97v-755h-97z" />
    <glyph glyph-name="Eth" unicode="&#xd0;" horiz-adv-x="750" 
d="M685 379q0 -191 -95.5 -286t-276.5 -93h-218v348h-86v65h86v342h218q372 0 372 -376zM192 79h121q140 0 206.5 68.5t66.5 231.5q0 152 -65.5 222.5t-207.5 70.5h-121v-259h207v-65h-207v-269z" />
    <glyph glyph-name="Ntilde" unicode="&#xd1;" horiz-adv-x="758" 
d="M95 0v755h114l329 -564l30 -60h2v624h92v-755h-114l-329 564l-30 60h-2v-624h-92zM275 817h-67q0 57 27.5 95.5t74.5 38.5q40 0 91 -28.5t69 -28.5q44 0 44 61h67q-3 -133 -108 -133q-38 0 -86.5 28.5t-66.5 28.5q-45 0 -45 -62z" />
    <glyph glyph-name="Ograve" unicode="&#xd2;" horiz-adv-x="793" 
d="M395 -15q-156 0 -244.5 102.5t-88.5 288.5q0 181 92.5 285.5t243.5 104.5q154 0 243.5 -102.5t89.5 -287.5q0 -182 -92.5 -286.5t-243.5 -104.5zM395 66q110 0 172.5 82t62.5 228q0 148 -62 228.5t-172 80.5q-109 0 -171 -82.5t-62 -226.5q0 -146 61.5 -228t170.5 -82z
M345 948l93 -142h-80l-140 142h127z" />
    <glyph glyph-name="Oacute" unicode="&#xd3;" horiz-adv-x="793" 
d="M395 -15q-156 0 -244.5 102.5t-88.5 288.5q0 181 92.5 285.5t243.5 104.5q154 0 243.5 -102.5t89.5 -287.5q0 -182 -92.5 -286.5t-243.5 -104.5zM395 66q110 0 172.5 82t62.5 228q0 148 -62 228.5t-172 80.5q-109 0 -171 -82.5t-62 -226.5q0 -146 61.5 -228t170.5 -82z
M354 806l93 142h127l-140 -142h-80z" />
    <glyph glyph-name="Ocircumflex" unicode="&#xd4;" horiz-adv-x="793" 
d="M395 -15q-156 0 -244.5 102.5t-88.5 288.5q0 181 92.5 285.5t243.5 104.5q154 0 243.5 -102.5t89.5 -287.5q0 -182 -92.5 -286.5t-243.5 -104.5zM395 66q110 0 172.5 82t62.5 228q0 148 -62 228.5t-172 80.5q-109 0 -171 -82.5t-62 -226.5q0 -146 61.5 -228t170.5 -82z
M246 795v78l151 82l149 -82v-81l-154 75z" />
    <glyph glyph-name="Otilde" unicode="&#xd5;" horiz-adv-x="793" 
d="M395 -15q-156 0 -244.5 102.5t-88.5 288.5q0 181 92.5 285.5t243.5 104.5q154 0 243.5 -102.5t89.5 -287.5q0 -182 -92.5 -286.5t-243.5 -104.5zM395 66q110 0 172.5 82t62.5 228q0 148 -62 228.5t-172 80.5q-109 0 -171 -82.5t-62 -226.5q0 -146 61.5 -228t170.5 -82z
M285 817h-67q0 57 27.5 95.5t74.5 38.5q40 0 91 -28.5t69 -28.5q44 0 44 61h67q-3 -133 -108 -133q-38 0 -86.5 28.5t-66.5 28.5q-45 0 -45 -62z" />
    <glyph glyph-name="Odieresis" unicode="&#xd6;" horiz-adv-x="793" 
d="M395 -15q-156 0 -244.5 102.5t-88.5 288.5q0 181 92.5 285.5t243.5 104.5q154 0 243.5 -102.5t89.5 -287.5q0 -182 -92.5 -286.5t-243.5 -104.5zM395 66q110 0 172.5 82t62.5 228q0 148 -62 228.5t-172 80.5q-109 0 -171 -82.5t-62 -226.5q0 -146 61.5 -228t170.5 -82z
M455 826v101h99v-101h-99zM238 826v101h99v-101h-99z" />
    <glyph glyph-name="multiply" unicode="&#xd7;" horiz-adv-x="600" 
d="M114 86l-51 52l185 185l-185 186l51 52l185 -187l185 187l52 -52l-186 -186l186 -185l-52 -52l-185 186z" />
    <glyph glyph-name="Oslash" unicode="&#xd8;" horiz-adv-x="793" 
d="M163 376q0 -129 48 -210l329 470q-56 49 -144 49q-108 0 -170.5 -84.5t-62.5 -224.5zM395 66q109 0 172 84.5t63 225.5q0 134 -49 212l-330 -471q57 -51 144 -51zM395 -15q-114 0 -194 59l-68 -97l-51 35l73 104q-93 106 -93 290q0 181 92.5 285t243.5 105q113 0 193 -58
l73 105l51 -33l-79 -113q95 -105 95 -291q0 -182 -92.5 -286.5t-243.5 -104.5z" />
    <glyph glyph-name="Ugrave" unicode="&#xd9;" horiz-adv-x="754" 
d="M379 -15q-144 0 -216.5 71.5t-72.5 201.5v497h97v-487q0 -101 45.5 -151t146.5 -50q100 0 146 51t46 150v487h93v-497q0 -129 -71 -201t-214 -72zM326 948l93 -142h-80l-140 142h127z" />
    <glyph glyph-name="Uacute" unicode="&#xda;" horiz-adv-x="754" 
d="M379 -15q-144 0 -216.5 71.5t-72.5 201.5v497h97v-487q0 -101 45.5 -151t146.5 -50q100 0 146 51t46 150v487h93v-497q0 -129 -71 -201t-214 -72zM335 806l93 142h127l-140 -142h-80z" />
    <glyph glyph-name="Ucircumflex" unicode="&#xdb;" horiz-adv-x="754" 
d="M379 -15q-144 0 -216.5 71.5t-72.5 201.5v497h97v-487q0 -101 45.5 -151t146.5 -50q100 0 146 51t46 150v487h93v-497q0 -129 -71 -201t-214 -72zM227 795v78l151 82l149 -82v-81l-154 75z" />
    <glyph glyph-name="Udieresis" unicode="&#xdc;" horiz-adv-x="754" 
d="M379 -15q-144 0 -216.5 71.5t-72.5 201.5v497h97v-487q0 -101 45.5 -151t146.5 -50q100 0 146 51t46 150v487h93v-497q0 -129 -71 -201t-214 -72zM436 826v101h99v-101h-99zM219 826v101h99v-101h-99z" />
    <glyph glyph-name="Yacute" unicode="&#xdd;" horiz-adv-x="661" 
d="M284 0v308l-254 447h107l199 -360l199 360h96l-249 -441v-314h-98zM293 806l93 142h127l-140 -142h-80z" />
    <glyph glyph-name="Thorn" unicode="&#xde;" horiz-adv-x="627" 
d="M90 0v755h97v-171h160q250 0 250 -206q0 -104 -68 -155.5t-190 -51.5h-152v-171h-97zM347 505h-160v-254h156q160 0 160 127t-156 127z" />
    <glyph glyph-name="germandbls" unicode="&#xdf;" horiz-adv-x="652" 
d="M90 0v546q0 118 57.5 177t165.5 59q85 0 141 -44.5t56 -111.5q0 -35 -16 -68.5t-27.5 -46.5t-42.5 -45q-16 -17 -23 -25t-13.5 -21t-6.5 -25q0 -17 7.5 -28t17.5 -17t34 -16l49 -21q128 -54 128 -156q0 -74 -51 -122.5t-143 -48.5q-79 0 -124.5 38t-56.5 96l75 24
q31 -86 114 -86q42 0 68 22t26 57q0 62 -88 100l-40 17q-52 22 -79 50t-27 77q0 25 9 46.5t19.5 34t29.5 31.5l8 8q56 58 56 109q0 45 -27 72.5t-80 27.5q-121 0 -121 -149v-561h-95z" />
    <glyph glyph-name="agrave" unicode="&#xe0;" horiz-adv-x="581" 
d="M250 61q46 0 79.5 18t50 47t24 56t7.5 53v12q-41 2 -87 2q-97 0 -135 -24.5t-38 -76.5q0 -40 28.5 -63.5t70.5 -23.5zM230 -14q-77 0 -126.5 43.5t-49.5 115.5q0 87 71.5 132t191.5 45l94 -3v14q0 67 -26 103.5t-99 36.5q-95 0 -123 -91l-84 25q12 57 64.5 100t150.5 43
q207 0 207 -211v-198l5 -141h-89l-5 81q-30 -45 -70.5 -70t-111.5 -25zM258 778l81 -167h-76l-128 167h123z" />
    <glyph glyph-name="aacute" unicode="&#xe1;" horiz-adv-x="581" 
d="M250 61q46 0 79.5 18t50 47t24 56t7.5 53v12q-41 2 -87 2q-97 0 -135 -24.5t-38 -76.5q0 -40 28.5 -63.5t70.5 -23.5zM230 -14q-77 0 -126.5 43.5t-49.5 115.5q0 87 71.5 132t191.5 45l94 -3v14q0 67 -26 103.5t-99 36.5q-95 0 -123 -91l-84 25q12 57 64.5 100t150.5 43
q207 0 207 -211v-198l5 -141h-89l-5 81q-30 -45 -70.5 -70t-111.5 -25zM240 611l96 167h123l-142 -167h-77z" />
    <glyph glyph-name="acircumflex" unicode="&#xe2;" horiz-adv-x="581" 
d="M250 61q46 0 79.5 18t50 47t24 56t7.5 53v12q-41 2 -87 2q-97 0 -135 -24.5t-38 -76.5q0 -40 28.5 -63.5t70.5 -23.5zM230 -14q-77 0 -126.5 43.5t-49.5 115.5q0 87 71.5 132t191.5 45l94 -3v14q0 67 -26 103.5t-99 36.5q-95 0 -123 -91l-84 25q12 57 64.5 100t150.5 43
q207 0 207 -211v-198l5 -141h-89l-5 81q-30 -45 -70.5 -70t-111.5 -25zM146 586v81l151 102l149 -100v-83l-151 94z" />
    <glyph glyph-name="atilde" unicode="&#xe3;" horiz-adv-x="581" 
d="M250 61q46 0 79.5 18t50 47t24 56t7.5 53v12q-41 2 -87 2q-97 0 -135 -24.5t-38 -76.5q0 -40 28.5 -63.5t70.5 -23.5zM230 -14q-77 0 -126.5 43.5t-49.5 115.5q0 87 71.5 132t191.5 45l94 -3v14q0 67 -26 103.5t-99 36.5q-95 0 -123 -91l-84 25q12 57 64.5 100t150.5 43
q207 0 207 -211v-198l5 -141h-89l-5 81q-30 -45 -70.5 -70t-111.5 -25zM176 617h-67q0 57 27.5 95.5t74.5 38.5q40 0 91 -28.5t69 -28.5q44 0 44 61h67q-3 -133 -108 -133q-38 0 -86.5 28.5t-66.5 28.5q-45 0 -45 -62z" />
    <glyph glyph-name="adieresis" unicode="&#xe4;" horiz-adv-x="581" 
d="M250 61q46 0 79.5 18t50 47t24 56t7.5 53v12q-41 2 -87 2q-97 0 -135 -24.5t-38 -76.5q0 -40 28.5 -63.5t70.5 -23.5zM230 -14q-77 0 -126.5 43.5t-49.5 115.5q0 87 71.5 132t191.5 45l94 -3v14q0 67 -26 103.5t-99 36.5q-95 0 -123 -91l-84 25q12 57 64.5 100t150.5 43
q207 0 207 -211v-198l5 -141h-89l-5 81q-30 -45 -70.5 -70t-111.5 -25zM350 653v102h99v-102h-99zM143 653v102h99v-102h-99z" />
    <glyph glyph-name="aring" unicode="&#xe5;" horiz-adv-x="581" 
d="M250 61q46 0 79.5 18t50 47t24 56t7.5 53v12q-41 2 -87 2q-97 0 -135 -24.5t-38 -76.5q0 -40 28.5 -63.5t70.5 -23.5zM230 -14q-77 0 -126.5 43.5t-49.5 115.5q0 87 71.5 132t191.5 45l94 -3v14q0 67 -26 103.5t-99 36.5q-95 0 -123 -91l-84 25q12 57 64.5 100t150.5 43
q207 0 207 -211v-198l5 -141h-89l-5 81q-30 -45 -70.5 -70t-111.5 -25zM174 716q0 50 35.5 85t86.5 35t86.5 -35t35.5 -85t-35.5 -85t-86.5 -35t-86.5 35t-35.5 85zM223 716q0 -31 21.5 -53t51.5 -22q29 0 50 22t21 53q0 30 -21 51.5t-50 21.5q-30 0 -51.5 -21t-21.5 -52z
" />
    <glyph glyph-name="ae" unicode="&#xe6;" horiz-adv-x="929" 
d="M54 145q0 86 73.5 129t193.5 43h90v25q0 60 -26.5 95.5t-98.5 35.5q-95 0 -123 -91l-84 25q12 57 64.5 100t150.5 43q127 0 179 -89q68 88 181 88q117 0 173.5 -84.5t56.5 -220.5h-389q1 -81 43.5 -130.5t116.5 -49.5q84 0 135 76l74 -40q-29 -52 -83.5 -83.5
t-128.5 -31.5t-128.5 29t-78.5 85q-69 -113 -214 -113q-77 0 -127 43.5t-50 115.5zM643 474q-66 0 -103 -45t-43 -110h285q-5 70 -39.5 112.5t-99.5 42.5zM248 61q45 0 79 18.5t51 46.5t25 56t8 53v7h-48q-114 0 -162.5 -19t-48.5 -72q0 -42 27 -66t69 -24z" />
    <glyph glyph-name="ccedilla" unicode="&#xe7;" horiz-adv-x="569" 
d="M307 -231q-60 0 -101 32l29 42q29 -21 70 -21q19 0 31 9.5t12 26.5t-11 26t-28 9q-19 0 -34 -12l-45 23l36 83q-104 12 -157.5 85.5t-53.5 184.5q0 124 67.5 208t193.5 84q153 0 207 -129l-86 -37q-9 18 -17.5 30.5t-23.5 27.5t-37 23t-51 8q-74 0 -116 -57.5t-42 -145.5
q0 -94 41 -150t120 -56q97 0 144 93l76 -34q-31 -63 -82 -99t-134 -38l-22 -45l4 -1q19 8 41 8q35 0 59.5 -21.5t24.5 -59.5q0 -42 -31 -69.5t-84 -27.5z" />
    <glyph glyph-name="egrave" unicode="&#xe8;" horiz-adv-x="587" 
d="M305 -15q-118 0 -184 77t-66 203q0 124 67 204t185 80q123 0 179 -82.5t56 -218.5h-390q1 -80 44.5 -132t115.5 -52q85 0 136 76l74 -40q-30 -52 -85 -83.5t-132 -31.5zM301 474q-66 0 -103.5 -44.5t-43.5 -108.5h286q-5 70 -39.5 111.5t-99.5 41.5zM275 778l81 -167h-76
l-128 167h123z" />
    <glyph glyph-name="eacute" unicode="&#xe9;" horiz-adv-x="587" 
d="M305 -15q-118 0 -184 77t-66 203q0 124 67 204t185 80q123 0 179 -82.5t56 -218.5h-390q1 -80 44.5 -132t115.5 -52q85 0 136 76l74 -40q-30 -52 -85 -83.5t-132 -31.5zM301 474q-66 0 -103.5 -44.5t-43.5 -108.5h286q-5 70 -39.5 111.5t-99.5 41.5zM261 611l96 167h123
l-142 -167h-77z" />
    <glyph glyph-name="ecircumflex" unicode="&#xea;" horiz-adv-x="587" 
d="M305 -15q-118 0 -184 77t-66 203q0 124 67 204t185 80q123 0 179 -82.5t56 -218.5h-390q1 -80 44.5 -132t115.5 -52q85 0 136 76l74 -40q-30 -52 -85 -83.5t-132 -31.5zM301 474q-66 0 -103.5 -44.5t-43.5 -108.5h286q-5 70 -39.5 111.5t-99.5 41.5zM155 586v81l151 102
l149 -100v-83l-151 94z" />
    <glyph glyph-name="edieresis" unicode="&#xeb;" horiz-adv-x="587" 
d="M305 -15q-118 0 -184 77t-66 203q0 124 67 204t185 80q123 0 179 -82.5t56 -218.5h-390q1 -80 44.5 -132t115.5 -52q85 0 136 76l74 -40q-30 -52 -85 -83.5t-132 -31.5zM301 474q-66 0 -103.5 -44.5t-43.5 -108.5h286q-5 70 -39.5 111.5t-99.5 41.5zM359 653v102h99v-102
h-99zM152 653v102h99v-102h-99z" />
    <glyph glyph-name="igrave" unicode="&#xec;" horiz-adv-x="273" 
d="M90 0v535h93v-535h-93zM102 778l81 -167h-76l-128 167h123z" />
    <glyph glyph-name="iacute" unicode="&#xed;" horiz-adv-x="273" 
d="M90 0v535h93v-535h-93zM90 611l96 167h123l-142 -167h-77z" />
    <glyph glyph-name="icircumflex" unicode="&#xee;" horiz-adv-x="273" 
d="M10 589v78l127 102l126 -100v-80l-127 90zM90 0v535h93v-535h-93z" />
    <glyph glyph-name="idieresis" unicode="&#xef;" horiz-adv-x="273" 
d="M164 653v102h99v-102h-99zM10 653v102h99v-102h-99zM90 0v535h93v-535h-93z" />
    <glyph glyph-name="eth" unicode="&#xf0;" horiz-adv-x="623" 
d="M307 -15q-121 0 -186.5 78t-65.5 204q0 122 67.5 200t180.5 78q67 0 119 -45l6 3q-57 93 -116 147l-135 -73l-28 53l113 61q-35 27 -77 55l52 49q46 -24 99 -63l100 54l29 -53l-80 -43q86 -80 134.5 -182.5t48.5 -215.5q0 -141 -65.5 -224t-195.5 -83zM312 62
q157 0 157 215q0 195 -159 195q-78 0 -117.5 -55.5t-39.5 -149.5t40.5 -149.5t118.5 -55.5z" />
    <glyph glyph-name="ntilde" unicode="&#xf1;" horiz-adv-x="622" 
d="M90 0v535h90v-79q63 93 170 93q90 0 138 -55.5t48 -145.5v-348h-93v320q0 147 -121 147q-64 0 -101.5 -40t-37.5 -120v-307h-93zM203 617h-67q0 57 27.5 95.5t74.5 38.5q40 0 91 -28.5t69 -28.5q44 0 44 61h67q-3 -133 -108 -133q-38 0 -86.5 28.5t-66.5 28.5
q-45 0 -45 -62z" />
    <glyph glyph-name="ograve" unicode="&#xf2;" horiz-adv-x="622" 
d="M307 -15q-121 0 -186.5 78t-65.5 204q0 124 69 203t191 79q121 0 186.5 -78t65.5 -204q0 -124 -69 -203t-191 -79zM312 61q79 0 118.5 55.5t39.5 150.5q0 94 -40.5 150t-119.5 56t-118.5 -55.5t-39.5 -150.5q0 -94 40.5 -150t119.5 -56zM273 778l81 -167h-76l-128 167
h123z" />
    <glyph glyph-name="oacute" unicode="&#xf3;" horiz-adv-x="622" 
d="M307 -15q-121 0 -186.5 78t-65.5 204q0 124 69 203t191 79q121 0 186.5 -78t65.5 -204q0 -124 -69 -203t-191 -79zM312 61q79 0 118.5 55.5t39.5 150.5q0 94 -40.5 150t-119.5 56t-118.5 -55.5t-39.5 -150.5q0 -94 40.5 -150t119.5 -56zM269 611l96 167h123l-142 -167
h-77z" />
    <glyph glyph-name="ocircumflex" unicode="&#xf4;" horiz-adv-x="622" 
d="M307 -15q-121 0 -186.5 78t-65.5 204q0 124 69 203t191 79q121 0 186.5 -78t65.5 -204q0 -124 -69 -203t-191 -79zM312 61q79 0 118.5 55.5t39.5 150.5q0 94 -40.5 150t-119.5 56t-118.5 -55.5t-39.5 -150.5q0 -94 40.5 -150t119.5 -56zM162 586v81l151 102l149 -100v-83
l-151 94z" />
    <glyph glyph-name="otilde" unicode="&#xf5;" horiz-adv-x="622" 
d="M307 -15q-121 0 -186.5 78t-65.5 204q0 124 69 203t191 79q121 0 186.5 -78t65.5 -204q0 -124 -69 -203t-191 -79zM312 61q79 0 118.5 55.5t39.5 150.5q0 94 -40.5 150t-119.5 56t-118.5 -55.5t-39.5 -150.5q0 -94 40.5 -150t119.5 -56zM198 617h-67q0 57 27.5 95.5
t74.5 38.5q40 0 91 -28.5t69 -28.5q44 0 44 61h67q-3 -133 -108 -133q-38 0 -86.5 28.5t-66.5 28.5q-45 0 -45 -62z" />
    <glyph glyph-name="odieresis" unicode="&#xf6;" horiz-adv-x="622" 
d="M307 -15q-121 0 -186.5 78t-65.5 204q0 124 69 203t191 79q121 0 186.5 -78t65.5 -204q0 -124 -69 -203t-191 -79zM312 61q79 0 118.5 55.5t39.5 150.5q0 94 -40.5 150t-119.5 56t-118.5 -55.5t-39.5 -150.5q0 -94 40.5 -150t119.5 -56zM365 653v102h99v-102h-99z
M158 653v102h99v-102h-99z" />
    <glyph glyph-name="divide" unicode="&#xf7;" horiz-adv-x="600" 
d="M251 453v98h98v-98h-98zM65 292v68h470v-68h-470zM251 101v98h98v-98h-98z" />
    <glyph glyph-name="oslash" unicode="&#xf8;" horiz-adv-x="622" 
d="M152 266q0 -88 34 -141l206 328q-33 21 -81 21q-78 0 -118.5 -57t-40.5 -151zM311 60q78 0 118.5 57t40.5 151q0 87 -34 140l-205 -327q33 -21 80 -21zM307 -15q-65 0 -119 27l-50 -80l-53 31l53 85q-83 78 -83 219q0 124 69 203t191 79q67 0 120 -28l46 74l55 -28
l-51 -81q82 -79 82 -219q0 -124 -69 -203t-191 -79z" />
    <glyph glyph-name="ugrave" unicode="&#xf9;" horiz-adv-x="611" 
d="M266 -14q-85 0 -133 57.5t-48 152.5v339h93v-320q0 -148 116 -148q72 0 103 44t31 114v310h93v-535h-90v77q-54 -91 -165 -91zM269 778l81 -167h-76l-128 167h123z" />
    <glyph glyph-name="uacute" unicode="&#xfa;" horiz-adv-x="611" 
d="M266 -14q-85 0 -133 57.5t-48 152.5v339h93v-320q0 -148 116 -148q72 0 103 44t31 114v310h93v-535h-90v77q-54 -91 -165 -91zM265 611l96 167h123l-142 -167h-77z" />
    <glyph glyph-name="ucircumflex" unicode="&#xfb;" horiz-adv-x="611" 
d="M266 -14q-85 0 -133 57.5t-48 152.5v339h93v-320q0 -148 116 -148q72 0 103 44t31 114v310h93v-535h-90v77q-54 -91 -165 -91zM157 586v81l151 102l149 -100v-83l-151 94z" />
    <glyph glyph-name="udieresis" unicode="&#xfc;" horiz-adv-x="611" 
d="M266 -14q-85 0 -133 57.5t-48 152.5v339h93v-320q0 -148 116 -148q72 0 103 44t31 114v310h93v-535h-90v77q-54 -91 -165 -91zM361 653v102h99v-102h-99zM154 653v102h99v-102h-99z" />
    <glyph glyph-name="yacute" unicode="&#xfd;" horiz-adv-x="516" 
d="M137 -222l74 222l-191 535h100l124 -363q7 -19 11.5 -36.5t5.5 -25.5l1 -7h3q4 27 20 74l119 358h92l-267 -757h-92zM229 611l96 167h123l-142 -167h-77z" />
    <glyph glyph-name="thorn" unicode="&#xfe;" horiz-adv-x="642" 
d="M329 64q79 0 119.5 57t40.5 147q0 97 -39 149.5t-113 52.5q-81 0 -121.5 -55.5t-40.5 -149.5q0 -92 40 -146.5t114 -54.5zM90 -222v1000h96v-327q20 39 63 68.5t107 29.5q60 0 106.5 -24t72.5 -64t39 -88t13 -101q0 -126 -68.5 -206.5t-186.5 -80.5q-55 0 -93.5 23.5
t-55.5 55.5v-286h-93z" />
    <glyph glyph-name="ydieresis" unicode="&#xff;" horiz-adv-x="516" 
d="M137 -222l74 222l-191 535h100l124 -363q7 -19 11.5 -36.5t5.5 -25.5l1 -7h3q4 27 20 74l119 358h92l-267 -757h-92zM325 653v102h99v-102h-99zM118 653v102h99v-102h-99z" />
    <glyph glyph-name="Amacron" unicode="&#x100;" horiz-adv-x="726" 
d="M333 588l-103 -291h259l-102 289l-25 82h-3q-11 -39 -26 -80zM593 0l-76 217h-315l-77 -217h-95l273 755h117l276 -755h-103zM196 826v75h334v-75h-334z" />
    <glyph glyph-name="amacron" unicode="&#x101;" horiz-adv-x="581" 
d="M250 61q46 0 79.5 18t50 47t24 56t7.5 53v12q-41 2 -87 2q-97 0 -135 -24.5t-38 -76.5q0 -40 28.5 -63.5t70.5 -23.5zM230 -14q-77 0 -126.5 43.5t-49.5 115.5q0 87 71.5 132t191.5 45l94 -3v14q0 67 -26 103.5t-99 36.5q-95 0 -123 -91l-84 25q12 57 64.5 100t150.5 43
q207 0 207 -211v-198l5 -141h-89l-5 81q-30 -45 -70.5 -70t-111.5 -25zM129 653v75h334v-75h-334z" />
    <glyph glyph-name="Abreve" unicode="&#x102;" horiz-adv-x="726" 
d="M333 588l-103 -291h259l-102 289l-25 82h-3q-11 -39 -26 -80zM593 0l-76 217h-315l-77 -217h-95l273 755h117l276 -755h-103zM365 812q-61 0 -104.5 36t-53.5 103h60q19 -68 99 -68q76 0 100 68h54q-7 -64 -51 -101.5t-104 -37.5z" />
    <glyph glyph-name="abreve" unicode="&#x103;" horiz-adv-x="581" 
d="M250 61q46 0 79.5 18t50 47t24 56t7.5 53v12q-41 2 -87 2q-97 0 -135 -24.5t-38 -76.5q0 -40 28.5 -63.5t70.5 -23.5zM230 -14q-77 0 -126.5 43.5t-49.5 115.5q0 87 71.5 132t191.5 45l94 -3v14q0 67 -26 103.5t-99 36.5q-95 0 -123 -91l-84 25q12 57 64.5 100t150.5 43
q207 0 207 -211v-198l5 -141h-89l-5 81q-30 -45 -70.5 -70t-111.5 -25zM296 599q-64 0 -107.5 39t-50.5 106h62q18 -74 99 -74t100 74h55q-7 -66 -51.5 -105.5t-106.5 -39.5z" />
    <glyph glyph-name="Aogonek" unicode="&#x104;" horiz-adv-x="726" 
d="M333 588l-103 -291h259l-102 289l-25 82h-3q-11 -39 -26 -80zM629 0h-36l-76 217h-315l-77 -217h-95l273 755h117l276 -755q-85 -62 -85 -112q0 -52 56 -52q16 0 29 2v-67q-16 -3 -52 -3q-56 0 -86.5 24.5t-30.5 72.5q0 43 23.5 73t78.5 62z" />
    <glyph glyph-name="aogonek" unicode="&#x105;" horiz-adv-x="581" 
d="M250 61q46 0 79.5 18t50 47t24 56t7.5 53v12q-41 2 -87 2q-97 0 -135 -24.5t-38 -76.5q0 -40 28.5 -63.5t70.5 -23.5zM439 0h-22l-5 81q-30 -45 -70.5 -70t-111.5 -25q-77 0 -126.5 43.5t-49.5 115.5q0 87 71.5 132t191.5 45l94 -3v14q0 67 -26 103.5t-99 36.5
q-95 0 -123 -91l-84 25q12 57 64.5 100t150.5 43q207 0 207 -211v-198l5 -141q-85 -62 -85 -112q0 -52 56 -52q16 0 29 2v-67q-16 -3 -52 -3q-56 0 -86.5 24.5t-30.5 72.5q0 43 23.5 73t78.5 62z" />
    <glyph glyph-name="Cacute" unicode="&#x106;" horiz-adv-x="743" 
d="M396 -15q-150 0 -242 101t-92 290q0 176 93.5 283t242.5 107q114 0 185.5 -52.5t102.5 -130.5l-86 -40q-68 141 -204 141q-109 0 -170.5 -85.5t-61.5 -222.5q0 -140 62 -224t170 -84q156 0 209 155l88 -27q-6 -26 -23.5 -57.5t-50.5 -68t-91.5 -61t-131.5 -24.5zM353 806
l93 142h127l-140 -142h-80z" />
    <glyph glyph-name="cacute" unicode="&#x107;" horiz-adv-x="569" 
d="M306 -15q-124 0 -187.5 75t-63.5 197q0 124 67.5 208t193.5 84q153 0 207 -129l-86 -37q-9 18 -17.5 30.5t-23.5 27.5t-37 23t-51 8q-74 0 -116 -57.5t-42 -145.5q0 -94 41 -150t120 -56q97 0 144 93l76 -34q-32 -65 -85 -101t-140 -36zM266 611l96 167h123l-142 -167
h-77z" />
    <glyph glyph-name="Ccircumflex" unicode="&#x108;" horiz-adv-x="743" 
d="M396 -15q-150 0 -242 101t-92 290q0 176 93.5 283t242.5 107q114 0 185.5 -52.5t102.5 -130.5l-86 -40q-68 141 -204 141q-109 0 -170.5 -85.5t-61.5 -222.5q0 -140 62 -224t170 -84q156 0 209 155l88 -27q-6 -26 -23.5 -57.5t-50.5 -68t-91.5 -61t-131.5 -24.5zM245 795
v78l151 82l149 -82v-81l-154 75z" />
    <glyph glyph-name="ccircumflex" unicode="&#x109;" horiz-adv-x="569" 
d="M306 -15q-124 0 -187.5 75t-63.5 197q0 124 67.5 208t193.5 84q153 0 207 -129l-86 -37q-9 18 -17.5 30.5t-23.5 27.5t-37 23t-51 8q-74 0 -116 -57.5t-42 -145.5q0 -94 41 -150t120 -56q97 0 144 93l76 -34q-32 -65 -85 -101t-140 -36zM158 586v81l151 102l149 -100v-83
l-151 94z" />
    <glyph glyph-name="Cdotaccent" unicode="&#x10a;" horiz-adv-x="743" 
d="M396 -15q-150 0 -242 101t-92 290q0 176 93.5 283t242.5 107q114 0 185.5 -52.5t102.5 -130.5l-86 -40q-68 141 -204 141q-109 0 -170.5 -85.5t-61.5 -222.5q0 -140 62 -224t170 -84q156 0 209 155l88 -27q-6 -26 -23.5 -57.5t-50.5 -68t-91.5 -61t-131.5 -24.5zM347 834
v99h97v-99h-97z" />
    <glyph glyph-name="cdotaccent" unicode="&#x10b;" horiz-adv-x="569" 
d="M306 -15q-124 0 -187.5 75t-63.5 197q0 124 67.5 208t193.5 84q153 0 207 -129l-86 -37q-9 18 -17.5 30.5t-23.5 27.5t-37 23t-51 8q-74 0 -116 -57.5t-42 -145.5q0 -94 41 -150t120 -56q97 0 144 93l76 -34q-32 -65 -85 -101t-140 -36zM259 653v102h99v-102h-99z" />
    <glyph glyph-name="Ccaron" unicode="&#x10c;" horiz-adv-x="743" 
d="M396 -15q-150 0 -242 101t-92 290q0 176 93.5 283t242.5 107q114 0 185.5 -52.5t102.5 -130.5l-86 -40q-68 141 -204 141q-109 0 -170.5 -85.5t-61.5 -222.5q0 -140 62 -224t170 -84q156 0 209 155l88 -27q-6 -26 -23.5 -57.5t-50.5 -68t-91.5 -61t-131.5 -24.5zM550 945
v-79l-151 -82l-149 82v81l154 -75z" />
    <glyph glyph-name="ccaron" unicode="&#x10d;" horiz-adv-x="569" 
d="M306 -15q-124 0 -187.5 75t-63.5 197q0 124 67.5 208t193.5 84q153 0 207 -129l-86 -37q-9 18 -17.5 30.5t-23.5 27.5t-37 23t-51 8q-74 0 -116 -57.5t-42 -145.5q0 -94 41 -150t120 -56q97 0 144 93l76 -34q-32 -65 -85 -101t-140 -36zM458 773v-81l-151 -102l-149 100
v83l151 -94z" />
    <glyph glyph-name="Dcaron" unicode="&#x10e;" horiz-adv-x="755" 
d="M313 0h-218v755h218q372 0 372 -376q0 -191 -95.5 -286t-276.5 -93zM192 79h121q140 0 206.5 68.5t66.5 231.5q0 152 -65.5 222.5t-207.5 70.5h-121v-593zM500 945v-79l-151 -82l-149 82v81l154 -75z" />
    <glyph glyph-name="dcaron" unicode="&#x10f;" horiz-adv-x="642" 
d="M306 66q79 0 120 55.5t41 148.5q0 91 -40 146.5t-114 55.5q-79 0 -119.5 -55.5t-40.5 -147.5q0 -95 37.5 -149t115.5 -54zM291 -15q-106 0 -171 71.5t-65 205.5q0 77 26.5 140t85.5 105t143 42q52 0 91.5 -25t57.5 -60v314h93v-778h-90v83q-54 -98 -171 -98zM602 576
l25 202h110l-83 -202h-52z" />
    <glyph glyph-name="Dcroat" unicode="&#x110;" horiz-adv-x="750" 
d="M685 379q0 -191 -95.5 -286t-276.5 -93h-218v348h-86v65h86v342h218q372 0 372 -376zM192 79h121q140 0 206.5 68.5t66.5 231.5q0 152 -65.5 222.5t-207.5 70.5h-121v-259h207v-65h-207v-269z" />
    <glyph glyph-name="dcroat" unicode="&#x111;" horiz-adv-x="642" 
d="M306 66q79 0 120 55.5t41 148.5q0 91 -40 146.5t-114 55.5q-79 0 -119.5 -55.5t-40.5 -147.5q0 -95 37.5 -149t115.5 -54zM462 83q-54 -98 -171 -98q-106 0 -171 71.5t-65 205.5q0 77 26.5 140t85.5 105t143 42q52 0 91.5 -25t57.5 -60v155h-158v57h158v102h93v-102h69
v-57h-69v-619h-90v83z" />
    <glyph glyph-name="Emacron" unicode="&#x112;" horiz-adv-x="637" 
d="M95 0v755h470v-84h-373v-247h334v-84h-334v-256h380v-84h-477zM174 826v75h334v-75h-334z" />
    <glyph glyph-name="emacron" unicode="&#x113;" horiz-adv-x="587" 
d="M305 -15q-118 0 -184 77t-66 203q0 124 67 204t185 80q123 0 179 -82.5t56 -218.5h-390q1 -80 44.5 -132t115.5 -52q85 0 136 76l74 -40q-30 -52 -85 -83.5t-132 -31.5zM301 474q-66 0 -103.5 -44.5t-43.5 -108.5h286q-5 70 -39.5 111.5t-99.5 41.5zM135 653v75h334v-75
h-334z" />
    <glyph glyph-name="Ebreve" unicode="&#x114;" horiz-adv-x="637" 
d="M95 0v755h470v-84h-373v-247h334v-84h-334v-256h380v-84h-477zM343 812q-61 0 -104.5 36t-53.5 103h60q19 -68 99 -68q76 0 100 68h54q-7 -64 -51 -101.5t-104 -37.5z" />
    <glyph glyph-name="ebreve" unicode="&#x115;" horiz-adv-x="587" 
d="M305 -15q-118 0 -184 77t-66 203q0 124 67 204t185 80q123 0 179 -82.5t56 -218.5h-390q1 -80 44.5 -132t115.5 -52q85 0 136 76l74 -40q-30 -52 -85 -83.5t-132 -31.5zM301 474q-66 0 -103.5 -44.5t-43.5 -108.5h286q-5 70 -39.5 111.5t-99.5 41.5zM309 599
q-64 0 -107.5 39t-50.5 106h62q19 -74 99 -74q81 0 100 74h55q-7 -66 -51.5 -105.5t-106.5 -39.5z" />
    <glyph glyph-name="Edotaccent" unicode="&#x116;" horiz-adv-x="637" 
d="M95 0v755h470v-84h-373v-247h334v-84h-334v-256h380v-84h-477zM293 834v99h97v-99h-97z" />
    <glyph glyph-name="edotaccent" unicode="&#x117;" horiz-adv-x="587" 
d="M305 -15q-118 0 -184 77t-66 203q0 124 67 204t185 80q123 0 179 -82.5t56 -218.5h-390q1 -80 44.5 -132t115.5 -52q85 0 136 76l74 -40q-30 -52 -85 -83.5t-132 -31.5zM301 474q-66 0 -103.5 -44.5t-43.5 -108.5h286q-5 70 -39.5 111.5t-99.5 41.5zM257 653v102h99v-102
h-99z" />
    <glyph glyph-name="Eogonek" unicode="&#x118;" horiz-adv-x="637" 
d="M504 0h-409v755h470v-84h-373v-247h334v-84h-334v-256h380v-84h-1q-85 -62 -85 -112q0 -52 56 -52q16 0 29 2v-67q-16 -3 -52 -3q-56 0 -86.5 24.5t-30.5 72.5q0 43 23.5 73t78.5 62z" />
    <glyph glyph-name="eogonek" unicode="&#x119;" horiz-adv-x="587" 
d="M423 -4q-40 -35 -56.5 -59.5t-16.5 -48.5q0 -25 14 -38.5t37 -13.5q20 0 34 2v-67q-16 -3 -52 -3q-56 0 -86.5 24.5t-30.5 69.5q0 38 18.5 65t58.5 54v6q-22 -2 -38 -2q-117 0 -183.5 77t-66.5 203q0 124 67 204t187 80q121 0 177 -82.5t56 -218.5h-390q1 -80 44.5 -132
t115.5 -52q85 0 136 76l74 -40q-7 -12 -14 -22t-19 -22l-17.5 -17.5t-24.5 -21.5t-24 -21zM301 474q-66 0 -103.5 -44.5t-43.5 -108.5h286q-5 70 -39.5 111.5t-99.5 41.5z" />
    <glyph glyph-name="Ecaron" unicode="&#x11a;" horiz-adv-x="637" 
d="M95 0v755h470v-84h-373v-247h334v-84h-334v-256h380v-84h-477zM491 945v-79l-151 -82l-149 82v81l154 -75z" />
    <glyph glyph-name="ecaron" unicode="&#x11b;" horiz-adv-x="587" 
d="M305 -15q-118 0 -184 77t-66 203q0 124 67 204t185 80q123 0 179 -82.5t56 -218.5h-390q1 -80 44.5 -132t115.5 -52q85 0 136 76l74 -40q-30 -52 -85 -83.5t-132 -31.5zM301 474q-66 0 -103.5 -44.5t-43.5 -108.5h286q-5 70 -39.5 111.5t-99.5 41.5zM457 773v-81
l-151 -102l-149 100v83l151 -94z" />
    <glyph glyph-name="Gcircumflex" unicode="&#x11c;" horiz-adv-x="773" 
d="M385 -15q-146 0 -234.5 100.5t-88.5 290.5q0 178 95.5 284t247.5 106q113 0 180.5 -50.5t97.5 -123.5l-86 -39q-35 65 -81 98t-117 33q-109 0 -173 -86t-64 -222q0 -134 60 -221.5t170 -87.5q57 0 99.5 19t65.5 52t33.5 70.5t10.5 80.5v21h-202v80h289v-390h-82l-4 98h-4
q-71 -113 -213 -113zM249 795v78l151 82l149 -82v-81l-154 75z" />
    <glyph glyph-name="gcircumflex" unicode="&#x11d;" horiz-adv-x="642" 
d="M309 76q75 0 116.5 54t41.5 146q0 87 -40.5 141.5t-113.5 54.5q-78 0 -119 -55.5t-41 -143.5q0 -91 39 -144t117 -53zM298 -232q-181 0 -229 140l88 27q32 -92 140 -92q86 0 124 38.5t38 118.5v98q-50 -102 -173 -102q-109 0 -170 76t-61 196q0 121 64 201t178 80
q117 0 166 -93v79h89v-508q0 -125 -58.5 -192t-195.5 -67zM159 586v81l151 102l149 -100v-83l-151 94z" />
    <glyph glyph-name="Gbreve" unicode="&#x11e;" horiz-adv-x="773" 
d="M385 -15q-146 0 -234.5 100.5t-88.5 290.5q0 178 95.5 284t247.5 106q113 0 180.5 -50.5t97.5 -123.5l-86 -39q-35 65 -81 98t-117 33q-109 0 -173 -86t-64 -222q0 -134 60 -221.5t170 -87.5q57 0 99.5 19t65.5 52t33.5 70.5t10.5 80.5v21h-202v80h289v-390h-82l-4 98h-4
q-71 -113 -213 -113zM401 812q-61 0 -104.5 36t-53.5 103h60q19 -68 99 -68q76 0 100 68h54q-7 -64 -51 -101.5t-104 -37.5z" />
    <glyph glyph-name="gbreve" unicode="&#x11f;" horiz-adv-x="642" 
d="M309 76q75 0 116.5 54t41.5 146q0 87 -40.5 141.5t-113.5 54.5q-78 0 -119 -55.5t-41 -143.5q0 -91 39 -144t117 -53zM298 -232q-181 0 -229 140l88 27q32 -92 140 -92q86 0 124 38.5t38 118.5v98q-50 -102 -173 -102q-109 0 -170 76t-61 196q0 121 64 201t178 80
q117 0 166 -93v79h89v-508q0 -125 -58.5 -192t-195.5 -67zM315 599q-64 0 -107.5 39t-50.5 106h62q19 -74 99 -74q81 0 100 74h55q-7 -66 -51.5 -105.5t-106.5 -39.5z" />
    <glyph glyph-name="Gdotaccent" unicode="&#x120;" horiz-adv-x="773" 
d="M385 -15q-146 0 -234.5 100.5t-88.5 290.5q0 178 95.5 284t247.5 106q113 0 180.5 -50.5t97.5 -123.5l-86 -39q-35 65 -81 98t-117 33q-109 0 -173 -86t-64 -222q0 -134 60 -221.5t170 -87.5q57 0 99.5 19t65.5 52t33.5 70.5t10.5 80.5v21h-202v80h289v-390h-82l-4 98h-4
q-71 -113 -213 -113zM351 834v99h97v-99h-97z" />
    <glyph glyph-name="gdotaccent" unicode="&#x121;" horiz-adv-x="642" 
d="M309 76q75 0 116.5 54t41.5 146q0 87 -40.5 141.5t-113.5 54.5q-78 0 -119 -55.5t-41 -143.5q0 -91 39 -144t117 -53zM298 -232q-181 0 -229 140l88 27q32 -92 140 -92q86 0 124 38.5t38 118.5v98q-50 -102 -173 -102q-109 0 -170 76t-61 196q0 121 64 201t178 80
q117 0 166 -93v79h89v-508q0 -125 -58.5 -192t-195.5 -67zM266 653v102h99v-102h-99z" />
    <glyph glyph-name="Gcommaaccent" unicode="&#x122;" horiz-adv-x="773" 
d="M385 -15q-146 0 -234.5 100.5t-88.5 290.5q0 178 95.5 284t247.5 106q113 0 180.5 -50.5t97.5 -123.5l-86 -39q-35 65 -81 98t-117 33q-109 0 -173 -86t-64 -222q0 -134 60 -221.5t170 -87.5q57 0 99.5 19t65.5 52t33.5 70.5t10.5 80.5v21h-202v80h289v-390h-82l-4 98h-4
q-71 -113 -213 -113zM346 -223l-18 35q59 22 67 56h-52v99h108v-47q0 -59 -20.5 -88t-84.5 -55z" />
    <glyph glyph-name="gcommaaccent" unicode="&#x123;" horiz-adv-x="642" 
d="M309 76q75 0 116.5 54t41.5 146q0 87 -40.5 141.5t-113.5 54.5q-78 0 -119 -55.5t-41 -143.5q0 -91 39 -144t117 -53zM298 -232q-181 0 -229 140l88 27q32 -92 140 -92q86 0 124 38.5t38 118.5v98q-50 -102 -173 -102q-109 0 -170 76t-61 196q0 121 64 201t178 80
q117 0 166 -93v79h89v-508q0 -125 -58.5 -192t-195.5 -67zM356 855q18 -28 23 -35q-26 -15 -37.5 -29t-17.5 -39h39v-99h-99v47q0 58 19 92.5t73 62.5z" />
    <glyph glyph-name="Hcircumflex" unicode="&#x124;" horiz-adv-x="762" 
d="M570 0v346h-378v-346h-97v755h97v-327h378v327h97v-755h-97zM231 795v78l151 82l149 -82v-81l-154 75z" />
    <glyph glyph-name="hcircumflex" unicode="&#x125;" horiz-adv-x="621" 
d="M183 778v-320q59 91 167 91q90 0 138 -55.5t48 -145.5v-348h-93v320q0 147 -121 147q-64 0 -101.5 -40t-37.5 -120v-307h-93v778h93zM-9 795v78l151 82l149 -82v-81l-154 75z" />
    <glyph glyph-name="Hbar" unicode="&#x126;" horiz-adv-x="762" 
d="M192 428h378v114h-378v-114zM192 346v-346h-97v542h-90v63h90v150h97v-150h378v150h97v-150h90v-63h-90v-542h-97v346h-378z" />
    <glyph glyph-name="hbar" unicode="&#x127;" horiz-adv-x="621" 
d="M183 307v-307h-93v619h-68v57h68v102h93v-102h159v-57h-159v-161q59 91 167 91q90 0 138 -55.5t48 -145.5v-348h-93v320q0 147 -121 147q-64 0 -101.5 -40t-37.5 -120z" />
    <glyph glyph-name="Itilde" unicode="&#x128;" horiz-adv-x="287" 
d="M42 817h-63q0 64 25 99t72 35q33 0 72.5 -27.5t53.5 -27.5q34 0 34 59h62q0 -133 -93 -133q-35 0 -75.5 27.5t-52.5 27.5q-35 0 -35 -60zM95 0v755h97v-755h-97z" />
    <glyph glyph-name="itilde" unicode="&#x129;" horiz-adv-x="273" 
d="M44 617h-58q0 134 89 134q23 0 63 -26t59 -26q37 0 37 56h57q0 -133 -93 -133q-31 0 -68 25.5t-52 25.5q-34 0 -34 -56zM90 0v535h93v-535h-93z" />
    <glyph glyph-name="Imacron" unicode="&#x12a;" horiz-adv-x="287" 
d="M95 0v755h97v-755h-97zM20 826v75h250v-75h-250z" />
    <glyph glyph-name="imacron" unicode="&#x12b;" horiz-adv-x="273" 
d="M90 0v535h93v-535h-93zM12 653v75h250v-75h-250z" />
    <glyph glyph-name="Ibreve" unicode="&#x12c;" horiz-adv-x="287" 
d="M145 812q-58 0 -99 33.5t-43 105.5h54q17 -68 89 -68q69 0 90 68h49q1 -68 -41 -103.5t-99 -35.5zM95 0v755h97v-755h-97z" />
    <glyph glyph-name="ibreve" unicode="&#x12d;" horiz-adv-x="273" 
d="M138 599q-53 0 -89.5 39.5t-41.5 105.5h57q15 -74 77 -74t78 74h51q-6 -66 -43 -105.5t-89 -39.5zM90 0v535h93v-535h-93z" />
    <glyph glyph-name="Iogonek" unicode="&#x12e;" horiz-adv-x="287" 
d="M125 0h-30v755h97v-755q-85 -62 -85 -112q0 -52 56 -52q16 0 29 2v-67q-16 -3 -52 -3q-56 0 -86.5 24.5t-30.5 72.5q0 43 23.5 73t78.5 62z" />
    <glyph glyph-name="iogonek" unicode="&#x12f;" horiz-adv-x="273" 
d="M84 648v107h105v-107h-105zM116 0h-26v535h93v-535q-85 -62 -85 -112q0 -52 56 -52q16 0 29 2v-67q-16 -3 -52 -3q-56 0 -86.5 24.5t-30.5 72.5q0 43 23.5 73t78.5 62z" />
    <glyph glyph-name="Idotaccent" unicode="&#x130;" horiz-adv-x="287" 
d="M95 0v755h97v-755h-97zM95 834v99h97v-99h-97z" />
    <glyph glyph-name="dotlessi" unicode="&#x131;" horiz-adv-x="273" 
d="M90 0v535h93v-535h-93z" />
    <glyph glyph-name="IJ" unicode="&#x132;" horiz-adv-x="883" 
d="M95 0v755h97v-755h-97zM541 -15q-113 0 -171 59.5t-68 164.5l89 13q17 -159 152 -159q154 0 154 160v532h96v-518q0 -48 -10.5 -88.5t-36.5 -79.5t-78 -61.5t-127 -22.5z" />
    <glyph glyph-name="ij" unicode="&#x133;" horiz-adv-x="546" 
d="M84 648v107h105v-107h-105zM90 0v535h93v-535h-93zM357 648v107h105v-107h-105zM315 -222q-43 0 -74 9l7 71q25 -5 55 -5q60 0 60 80v602h93v-608q0 -72 -38 -110.5t-103 -38.5z" />
    <glyph glyph-name="Jcircumflex" unicode="&#x134;" horiz-adv-x="616" 
d="M274 -15q-113 0 -171 59.5t-68 164.5l89 13q17 -159 152 -159q154 0 154 160v532h96v-518q0 -48 -10.5 -88.5t-36.5 -79.5t-78 -61.5t-127 -22.5zM332 795v78l151 82l149 -82v-81l-154 75z" />
    <glyph glyph-name="jcircumflex" unicode="&#x135;" horiz-adv-x="273" 
d="M10 610v78l127 102l126 -100v-80l-128 94zM42 -222q-43 0 -74 9l7 71q25 -5 55 -5q60 0 60 80v602h93v-608q0 -72 -38 -110.5t-103 -38.5z" />
    <glyph glyph-name="Kcommaaccent" unicode="&#x136;" horiz-adv-x="703" 
d="M192 262v-262h-97v755h97v-378l340 378h116l-290 -315l305 -440h-118l-253 370zM310 -223l-18 35q59 22 67 56h-52v99h108v-47q0 -59 -20.5 -88t-84.5 -55z" />
    <glyph glyph-name="kcommaaccent" unicode="&#x137;" horiz-adv-x="564" 
d="M431 0l-177 247l-71 -84v-163h-93v778h93v-499l218 256h110l-191 -221l226 -314h-115zM246 -223l-18 35q59 22 67 56h-52v99h108v-47q0 -59 -20.5 -88t-84.5 -55z" />
    <glyph glyph-name="Lacute" unicode="&#x139;" horiz-adv-x="590" 
d="M95 0v755h97v-670h363v-85h-460zM105 806l93 142h127l-140 -142h-80z" />
    <glyph glyph-name="lacute" unicode="&#x13a;" horiz-adv-x="273" 
d="M90 0v778h93v-778h-93zM97 816l93 142h127l-140 -142h-80z" />
    <glyph glyph-name="Lcommaaccent" unicode="&#x13b;" horiz-adv-x="590" 
d="M95 0v755h97v-670h363v-85h-460zM285 -223l-18 35q59 22 67 56h-52v99h108v-47q0 -59 -20.5 -88t-84.5 -55z" />
    <glyph glyph-name="lcommaaccent" unicode="&#x13c;" horiz-adv-x="273" 
d="M90 0v778h93v-778h-93zM83 -223l-18 35q59 22 67 56h-52v99h108v-47q0 -59 -20.5 -88t-84.5 -55z" />
    <glyph glyph-name="Lcaron" unicode="&#x13d;" horiz-adv-x="590" 
d="M95 0v755h97v-670h363v-85h-460zM306 553l25 202h110l-83 -202h-52z" />
    <glyph glyph-name="lcaron" unicode="&#x13e;" horiz-adv-x="273" 
d="M90 0v778h93v-778h-93zM233 576l25 202h110l-83 -202h-52z" />
    <glyph glyph-name="Ldot" unicode="&#x13f;" horiz-adv-x="590" 
d="M95 0v755h97v-670h363v-85h-460zM373 324v129h129v-129h-129z" />
    <glyph glyph-name="ldot" unicode="&#x140;" horiz-adv-x="364" 
d="M90 0v778h93v-778h-93zM254 322v129h129v-129h-129z" />
    <glyph glyph-name="Lslash" unicode="&#x141;" horiz-adv-x="590" 
d="M555 0h-460v250l-86 -50v82l86 49v424h97v-368l248 143v-81l-248 -143v-221h363v-85z" />
    <glyph glyph-name="lslash" unicode="&#x142;" horiz-adv-x="273" 
d="M183 0h-93v327l-83 -56v85l83 56v366h93v-303l88 60v-85l-88 -60v-390z" />
    <glyph glyph-name="Nacute" unicode="&#x143;" horiz-adv-x="758" 
d="M95 0v755h114l329 -564l30 -60h2v624h92v-755h-114l-329 564l-30 60h-2v-624h-92zM344 806l93 142h127l-140 -142h-80z" />
    <glyph glyph-name="nacute" unicode="&#x144;" horiz-adv-x="621" 
d="M90 0v535h90v-79q63 93 170 93q90 0 138 -55.5t48 -145.5v-348h-93v320q0 147 -121 147q-64 0 -101.5 -40t-37.5 -120v-307h-93zM277 611l96 167h123l-142 -167h-77z" />
    <glyph glyph-name="Ncommaaccent" unicode="&#x145;" horiz-adv-x="758" 
d="M95 0v755h114l329 -564l30 -60h2v624h92v-755h-114l-329 564l-30 60h-2v-624h-92zM333 -223l-18 35q59 22 67 56h-52v99h108v-47q0 -59 -20.5 -88t-84.5 -55z" />
    <glyph glyph-name="ncommaaccent" unicode="&#x146;" horiz-adv-x="621" 
d="M90 0v535h90v-79q63 93 170 93q90 0 138 -55.5t48 -145.5v-348h-93v320q0 147 -121 147q-64 0 -101.5 -40t-37.5 -120v-307h-93zM266 -223l-18 35q59 22 67 56h-52v99h108v-47q0 -59 -20.5 -88t-84.5 -55z" />
    <glyph glyph-name="Ncaron" unicode="&#x147;" horiz-adv-x="758" 
d="M95 0v755h114l329 -564l30 -60h2v624h92v-755h-114l-329 564l-30 60h-2v-624h-92zM536 945v-79l-151 -82l-149 82v81l154 -75z" />
    <glyph glyph-name="ncaron" unicode="&#x148;" horiz-adv-x="621" 
d="M90 0v535h90v-79q63 93 170 93q90 0 138 -55.5t48 -145.5v-348h-93v320q0 147 -121 147q-64 0 -101.5 -40t-37.5 -120v-307h-93zM469 773v-81l-151 -102l-149 100v83l151 -94z" />
    <glyph glyph-name="Eng" unicode="&#x14a;" horiz-adv-x="758" 
d="M521 -222q-43 0 -74 9l7 68q25 -5 55 -5q66 0 66 80v70h-27l-329 564l-30 60h-2v-624h-92v755h114l329 -564l30 -60h2v624h92v-811q0 -82 -41 -124t-100 -42z" />
    <glyph glyph-name="eng" unicode="&#x14b;" horiz-adv-x="626" 
d="M443 320q0 147 -121 147q-64 0 -101.5 -40t-37.5 -120v-307h-93v535h90v-79q63 93 170 93q90 0 138 -55.5t48 -145.5v-421q0 -73 -37.5 -111t-102.5 -38q-42 0 -74 9l7 71q25 -5 55 -5q59 0 59 80v387z" />
    <glyph glyph-name="Omacron" unicode="&#x14c;" horiz-adv-x="793" 
d="M395 -15q-156 0 -244.5 102.5t-88.5 288.5q0 181 92.5 285.5t243.5 104.5q154 0 243.5 -102.5t89.5 -287.5q0 -182 -92.5 -286.5t-243.5 -104.5zM395 66q110 0 172.5 82t62.5 228q0 148 -62 228.5t-172 80.5q-109 0 -171 -82.5t-62 -226.5q0 -146 61.5 -228t170.5 -82z
M229 826v75h334v-75h-334z" />
    <glyph glyph-name="omacron" unicode="&#x14d;" horiz-adv-x="622" 
d="M307 -15q-121 0 -186.5 78t-65.5 204q0 124 69 203t191 79q121 0 186.5 -78t65.5 -204q0 -124 -69 -203t-191 -79zM312 61q79 0 118.5 55.5t39.5 150.5q0 94 -40.5 150t-119.5 56t-118.5 -55.5t-39.5 -150.5q0 -94 40.5 -150t119.5 -56zM146 653v75h334v-75h-334z" />
    <glyph glyph-name="Obreve" unicode="&#x14e;" horiz-adv-x="793" 
d="M395 -15q-156 0 -244.5 102.5t-88.5 288.5q0 181 92.5 285.5t243.5 104.5q154 0 243.5 -102.5t89.5 -287.5q0 -182 -92.5 -286.5t-243.5 -104.5zM395 66q110 0 172.5 82t62.5 228q0 148 -62 228.5t-172 80.5q-109 0 -171 -82.5t-62 -226.5q0 -146 61.5 -228t170.5 -82z
M398 812q-61 0 -104.5 36t-53.5 103h60q19 -68 99 -68q76 0 100 68h54q-7 -64 -51 -101.5t-104 -37.5z" />
    <glyph glyph-name="obreve" unicode="&#x14f;" horiz-adv-x="622" 
d="M307 -15q-121 0 -186.5 78t-65.5 204q0 124 69 203t191 79q121 0 186.5 -78t65.5 -204q0 -124 -69 -203t-191 -79zM312 61q79 0 118.5 55.5t39.5 150.5q0 94 -40.5 150t-119.5 56t-118.5 -55.5t-39.5 -150.5q0 -94 40.5 -150t119.5 -56zM311 599q-64 0 -107.5 39
t-50.5 106h62q19 -74 99 -74q81 0 100 74h55q-7 -66 -51.5 -105.5t-106.5 -39.5z" />
    <glyph glyph-name="Ohungarumlaut" unicode="&#x150;" horiz-adv-x="793" 
d="M395 -15q-156 0 -244.5 102.5t-88.5 288.5q0 181 92.5 285.5t243.5 104.5q154 0 243.5 -102.5t89.5 -287.5q0 -182 -92.5 -286.5t-243.5 -104.5zM395 66q110 0 172.5 82t62.5 228q0 148 -62 228.5t-172 80.5q-109 0 -171 -82.5t-62 -226.5q0 -146 61.5 -228t170.5 -82z
M261 806l81 142h109l-115 -142h-75zM448 806l81 142h110l-115 -142h-76z" />
    <glyph glyph-name="ohungarumlaut" unicode="&#x151;" horiz-adv-x="622" 
d="M307 -15q-121 0 -186.5 78t-65.5 204q0 124 69 203t191 79q121 0 186.5 -78t65.5 -204q0 -124 -69 -203t-191 -79zM312 61q79 0 118.5 55.5t39.5 150.5q0 94 -40.5 150t-119.5 56t-118.5 -55.5t-39.5 -150.5q0 -94 40.5 -150t119.5 -56zM174 606l85 172h113l-127 -172
h-71zM366 606l85 172h113l-127 -172h-71z" />
    <glyph glyph-name="OE" unicode="&#x152;" horiz-adv-x="1157" 
d="M396 65q108 0 169.5 84t61.5 226q0 149 -61 230t-170 81q-108 0 -170 -85.5t-62 -225.5q0 -141 61.5 -225.5t170.5 -84.5zM626 0v92q-84 -107 -228 -107q-154 0 -245 103t-91 287q0 182 92.5 286.5t243.5 104.5q71 0 126 -23t101 -79v91h460v-84h-363v-248h324v-82h-324
v-257h370v-84h-466z" />
    <glyph glyph-name="oe" unicode="&#x153;" horiz-adv-x="994" 
d="M718 -15q-143 0 -204 109h-2q-65 -109 -205 -109q-121 0 -186.5 78t-65.5 204q0 124 69 203t191 79q141 0 202 -109h2q63 109 197 109q121 0 177.5 -82.5t56.5 -219.5h-389q1 -80 44 -131.5t116 -51.5q84 0 135 76l74 -40q-29 -51 -84 -83t-128 -32zM709 474
q-65 0 -102.5 -44t-43.5 -108h285q-5 70 -39.5 111t-99.5 41zM312 62q78 0 117.5 55.5t39.5 149.5t-40.5 149.5t-118.5 55.5t-117.5 -55.5t-39.5 -149.5t40.5 -149.5t118.5 -55.5z" />
    <glyph glyph-name="Racute" unicode="&#x154;" horiz-adv-x="686" 
d="M337 676h-145v-282h157q78 0 119.5 30.5t41.5 110.5q0 74 -43.5 107.5t-129.5 33.5zM530 0l-179 315h-159v-315h-97v755h254q125 0 192.5 -56t67.5 -164q0 -77 -41 -129t-118 -74v-1l191 -331h-111zM282 806l93 142h127l-140 -142h-80z" />
    <glyph glyph-name="racute" unicode="&#x155;" horiz-adv-x="393" 
d="M90 0v535h90v-97h3q44 108 180 108v-96q-19 2 -47 2q-42 0 -76 -23t-47 -67q-10 -35 -10 -145v-217h-93zM184 611l96 167h123l-142 -167h-77z" />
    <glyph glyph-name="Rcommaaccent" unicode="&#x156;" horiz-adv-x="686" 
d="M337 676h-145v-282h157q78 0 119.5 30.5t41.5 110.5q0 74 -43.5 107.5t-129.5 33.5zM530 0l-179 315h-159v-315h-97v755h254q125 0 192.5 -56t67.5 -164q0 -77 -41 -129t-118 -74v-1l191 -331h-111zM295 -223l-18 35q59 22 67 56h-52v99h108v-47q0 -59 -20.5 -88
t-84.5 -55z" />
    <glyph glyph-name="rcommaaccent" unicode="&#x157;" horiz-adv-x="393" 
d="M90 0v535h90v-97h3q44 108 180 108v-96q-19 2 -47 2q-42 0 -76 -23t-47 -67q-10 -35 -10 -145v-217h-93zM86 -223l-18 35q59 22 67 56h-52v99h108v-47q0 -59 -20.5 -88t-84.5 -55z" />
    <glyph glyph-name="Rcaron" unicode="&#x158;" horiz-adv-x="686" 
d="M337 676h-145v-282h157q78 0 119.5 30.5t41.5 110.5q0 74 -43.5 107.5t-129.5 33.5zM530 0l-179 315h-159v-315h-97v755h254q125 0 192.5 -56t67.5 -164q0 -77 -41 -129t-118 -74v-1l191 -331h-111zM474 945v-79l-151 -82l-149 82v81l154 -75z" />
    <glyph glyph-name="rcaron" unicode="&#x159;" horiz-adv-x="393" 
d="M90 0v535h90v-97h3q44 108 180 108v-96q-19 2 -47 2q-42 0 -76 -23t-47 -67q-10 -35 -10 -145v-217h-93zM376 773v-81l-151 -102l-149 100v83l151 -94z" />
    <glyph glyph-name="Sacute" unicode="&#x15a;" horiz-adv-x="684" 
d="M339 -15q-114 0 -189.5 57t-98.5 139l91 29q50 -142 201 -142q85 0 134 35t49 102q0 49 -33.5 79.5t-119.5 49.5l-85 19q-90 21 -143 67.5t-54 133.5q-1 90 68.5 151t182.5 61t175 -43.5t94 -121.5l-85 -35q-27 61 -69.5 89.5t-114.5 28.5q-77 0 -115.5 -34.5
t-38.5 -86.5q0 -54 35 -80.5t112 -45.5l94 -22q195 -46 195 -195q0 -108 -76.5 -171.5t-208.5 -63.5zM311 806l93 142h127l-140 -142h-80z" />
    <glyph glyph-name="sacute" unicode="&#x15b;" horiz-adv-x="519" 
d="M258 -15q-88 0 -136.5 34t-75.5 99l79 33q42 -91 134 -91q55 0 85.5 22t30.5 59q0 30 -18.5 48t-69.5 31l-74 19q-144 37 -144 157q0 62 51.5 107.5t138.5 45.5q147 0 199 -116l-79 -35q-39 75 -119 75q-52 0 -76 -21t-24 -50q0 -33 21 -51t68 -30l86 -22
q130 -33 130 -143q0 -77 -55.5 -124t-151.5 -47zM216 611l96 167h123l-142 -167h-77z" />
    <glyph glyph-name="Scircumflex" unicode="&#x15c;" horiz-adv-x="684" 
d="M339 -15q-114 0 -189.5 57t-98.5 139l91 29q50 -142 201 -142q85 0 134 35t49 102q0 49 -33.5 79.5t-119.5 49.5l-85 19q-90 21 -143 67.5t-54 133.5q-1 90 68.5 151t182.5 61t175 -43.5t94 -121.5l-85 -35q-27 61 -69.5 89.5t-114.5 28.5q-77 0 -115.5 -34.5
t-38.5 -86.5q0 -54 35 -80.5t112 -45.5l94 -22q195 -46 195 -195q0 -108 -76.5 -171.5t-208.5 -63.5zM203 795v78l151 82l149 -82v-81l-154 75z" />
    <glyph glyph-name="scircumflex" unicode="&#x15d;" horiz-adv-x="519" 
d="M258 -15q-88 0 -136.5 34t-75.5 99l79 33q42 -91 134 -91q55 0 85.5 22t30.5 59q0 30 -18.5 48t-69.5 31l-74 19q-144 37 -144 157q0 62 51.5 107.5t138.5 45.5q147 0 199 -116l-79 -35q-39 75 -119 75q-52 0 -76 -21t-24 -50q0 -33 21 -51t68 -30l86 -22
q130 -33 130 -143q0 -77 -55.5 -124t-151.5 -47zM108 586v81l151 102l149 -100v-83l-151 94z" />
    <glyph glyph-name="Scedilla" unicode="&#x15e;" horiz-adv-x="684" 
d="M352 -231q-60 0 -101 32l29 42q29 -21 70 -21q19 0 31 9.5t12 26.5t-11 26t-28 9q-19 0 -34 -12l-45 23l36 82q-103 7 -171 63t-89 132l91 29q50 -142 201 -142q85 0 134 35t49 102q0 49 -33.5 79.5t-119.5 49.5l-85 19q-90 21 -143 67.5t-54 133.5q-1 90 68.5 151
t182.5 61t175 -43.5t94 -121.5l-85 -35q-27 61 -69.5 89.5t-114.5 28.5q-77 0 -115.5 -34.5t-38.5 -86.5q0 -54 35 -80.5t112 -45.5l94 -22q195 -46 195 -195q0 -103 -70.5 -166.5t-193.5 -68.5l-22 -45l4 -1q19 8 41 8q35 0 59.5 -21.5t24.5 -59.5q0 -42 -31 -69.5
t-84 -27.5z" />
    <glyph glyph-name="scedilla" unicode="&#x15f;" horiz-adv-x="519" 
d="M257 -231q-60 0 -101 32l29 42q29 -21 70 -21q19 0 31 9.5t12 26.5t-11 26t-28 9q-19 0 -34 -12l-45 23l36 83q-68 8 -107 41t-63 90l79 33q42 -91 134 -91q55 0 85.5 22t30.5 59q0 30 -18.5 48t-69.5 31l-74 19q-144 37 -144 157q0 62 51.5 107.5t138.5 45.5
q147 0 199 -116l-79 -35q-39 75 -119 75q-52 0 -76 -21t-24 -50q0 -33 21 -51t68 -30l86 -22q130 -33 130 -143q0 -77 -54.5 -124t-145.5 -47l-22 -45l4 -1q19 8 41 8q35 0 59.5 -21.5t24.5 -59.5q0 -42 -31 -69.5t-84 -27.5z" />
    <glyph glyph-name="Scaron" unicode="&#x160;" horiz-adv-x="684" 
d="M339 -15q-114 0 -189.5 57t-98.5 139l91 29q50 -142 201 -142q85 0 134 35t49 102q0 49 -33.5 79.5t-119.5 49.5l-85 19q-90 21 -143 67.5t-54 133.5q-1 90 68.5 151t182.5 61t175 -43.5t94 -121.5l-85 -35q-27 61 -69.5 89.5t-114.5 28.5q-77 0 -115.5 -34.5
t-38.5 -86.5q0 -54 35 -80.5t112 -45.5l94 -22q195 -46 195 -195q0 -108 -76.5 -171.5t-208.5 -63.5zM503 945v-79l-151 -82l-149 82v81l154 -75z" />
    <glyph glyph-name="scaron" unicode="&#x161;" horiz-adv-x="519" 
d="M258 -15q-88 0 -136.5 34t-75.5 99l79 33q42 -91 134 -91q55 0 85.5 22t30.5 59q0 30 -18.5 48t-69.5 31l-74 19q-144 37 -144 157q0 62 51.5 107.5t138.5 45.5q147 0 199 -116l-79 -35q-39 75 -119 75q-52 0 -76 -21t-24 -50q0 -33 21 -51t68 -30l86 -22
q130 -33 130 -143q0 -77 -55.5 -124t-151.5 -47zM408 773v-81l-151 -102l-149 100v83l151 -94z" />
    <glyph glyph-name="Tcommaaccent" unicode="&#x162;" horiz-adv-x="627" 
d="M30 671v84h567v-84h-235v-671h-97v671h-235zM260 -223l-18 35q59 22 67 56h-52v99h108v-47q0 -59 -20.5 -88t-84.5 -55z" />
    <glyph glyph-name="tcommaaccent" unicode="&#x163;" horiz-adv-x="390" 
d="M30 462v73h92l6 145h84v-145h122v-73h-120v-330q0 -40 16.5 -54t55.5 -14l50 4l4 -69q-48 -10 -84 -10q-76 0 -106 32.5t-30 109.5l2 331h-92zM168 -223l-18 35q59 22 67 56h-52v99h108v-47q0 -59 -20.5 -88t-84.5 -55z" />
    <glyph glyph-name="Tcaron" unicode="&#x164;" horiz-adv-x="627" 
d="M30 671v84h567v-84h-235v-671h-97v671h-235zM468 945v-79l-151 -82l-149 82v81l154 -75z" />
    <glyph glyph-name="tcaron" unicode="&#x165;" horiz-adv-x="390" 
d="M30 462v73h92l6 145h84v-145h122v-73h-120v-330q0 -40 16.5 -54t55.5 -14l50 4l4 -69q-48 -10 -84 -10q-76 0 -106 32.5t-30 109.5l2 331h-92zM283 576l25 202h110l-83 -202h-52z" />
    <glyph glyph-name="Tbar" unicode="&#x166;" horiz-adv-x="627" 
d="M528 409h-166v-409h-97v409h-165v69h165v193h-235v84h567v-84h-235v-193h166v-69z" />
    <glyph glyph-name="tbar" unicode="&#x167;" horiz-adv-x="390" 
d="M340 -1q-48 -10 -84 -10q-76 0 -106 32.5t-30 109.5l1 164h-91v73h92v94h-92v73h92l6 145h84v-145h122v-73h-120v-94h120v-73h-120v-163q0 -40 16.5 -54t55.5 -14l50 4z" />
    <glyph glyph-name="Utilde" unicode="&#x168;" horiz-adv-x="754" 
d="M379 -15q-144 0 -216.5 71.5t-72.5 201.5v497h97v-487q0 -101 45.5 -151t146.5 -50q100 0 146 51t46 150v487h93v-497q0 -129 -71 -201t-214 -72zM266 817h-67q0 57 27.5 95.5t74.5 38.5q40 0 91 -28.5t69 -28.5q44 0 44 61h67q-3 -133 -108 -133q-38 0 -86.5 28.5
t-66.5 28.5q-45 0 -45 -62z" />
    <glyph glyph-name="utilde" unicode="&#x169;" horiz-adv-x="611" 
d="M266 -14q-85 0 -133 57.5t-48 152.5v339h93v-320q0 -148 116 -148q72 0 103 44t31 114v310h93v-535h-90v77q-54 -91 -165 -91zM198 617h-67q0 57 27.5 95.5t74.5 38.5q40 0 91 -28.5t69 -28.5q44 0 44 61h67q-3 -133 -108 -133q-38 0 -86.5 28.5t-66.5 28.5
q-45 0 -45 -62z" />
    <glyph glyph-name="Umacron" unicode="&#x16a;" horiz-adv-x="754" 
d="M379 -15q-144 0 -216.5 71.5t-72.5 201.5v497h97v-487q0 -101 45.5 -151t146.5 -50q100 0 146 51t46 150v487h93v-497q0 -129 -71 -201t-214 -72zM210 826v75h334v-75h-334z" />
    <glyph glyph-name="umacron" unicode="&#x16b;" horiz-adv-x="611" 
d="M266 -14q-85 0 -133 57.5t-48 152.5v339h93v-320q0 -148 116 -148q72 0 103 44t31 114v310h93v-535h-90v77q-54 -91 -165 -91zM140 653v75h334v-75h-334z" />
    <glyph glyph-name="Ubreve" unicode="&#x16c;" horiz-adv-x="754" 
d="M379 -15q-144 0 -216.5 71.5t-72.5 201.5v497h97v-487q0 -101 45.5 -151t146.5 -50q100 0 146 51t46 150v487h93v-497q0 -129 -71 -201t-214 -72zM379 812q-61 0 -104.5 36t-53.5 103h60q19 -68 99 -68q76 0 100 68h54q-7 -64 -51 -101.5t-104 -37.5z" />
    <glyph glyph-name="ubreve" unicode="&#x16d;" horiz-adv-x="611" 
d="M266 -14q-85 0 -133 57.5t-48 152.5v339h93v-320q0 -148 116 -148q72 0 103 44t31 114v310h93v-535h-90v77q-54 -91 -165 -91zM307 599q-64 0 -107.5 39t-50.5 106h62q19 -74 99 -74q81 0 100 74h55q-7 -66 -51.5 -105.5t-106.5 -39.5z" />
    <glyph glyph-name="Uring" unicode="&#x16e;" horiz-adv-x="754" 
d="M379 -15q-144 0 -216.5 71.5t-72.5 201.5v497h97v-487q0 -101 45.5 -151t146.5 -50q100 0 146 51t46 150v487h93v-497q0 -129 -71 -201t-214 -72zM255 891q0 50 35.5 85t86.5 35t86.5 -35t35.5 -85t-35.5 -85t-86.5 -35t-86.5 35t-35.5 85zM304 891q0 -31 21.5 -53
t51.5 -22q29 0 50 22t21 53q0 30 -21 51.5t-50 21.5q-30 0 -51.5 -21t-21.5 -52z" />
    <glyph glyph-name="uring" unicode="&#x16f;" horiz-adv-x="611" 
d="M266 -14q-85 0 -133 57.5t-48 152.5v339h93v-320q0 -148 116 -148q72 0 103 44t31 114v310h93v-535h-90v77q-54 -91 -165 -91zM185 701q0 50 35.5 85t86.5 35t86.5 -35t35.5 -85t-35.5 -85t-86.5 -35t-86.5 35t-35.5 85zM234 701q0 -31 21.5 -53t51.5 -22q29 0 50 22
t21 53q0 30 -21 51.5t-50 21.5q-30 0 -51.5 -21t-21.5 -52z" />
    <glyph glyph-name="Uhungarumlaut" unicode="&#x170;" horiz-adv-x="754" 
d="M379 -15q-144 0 -216.5 71.5t-72.5 201.5v497h97v-487q0 -101 45.5 -151t146.5 -50q100 0 146 51t46 150v487h93v-497q0 -129 -71 -201t-214 -72zM234 806l81 142h109l-115 -142h-75zM421 806l81 142h110l-115 -142h-76z" />
    <glyph glyph-name="uhungarumlaut" unicode="&#x171;" horiz-adv-x="611" 
d="M266 -14q-85 0 -133 57.5t-48 152.5v339h93v-320q0 -148 116 -148q72 0 103 44t31 114v310h93v-535h-90v77q-54 -91 -165 -91zM165 606l85 172h113l-127 -172h-71zM357 606l85 172h113l-127 -172h-71z" />
    <glyph glyph-name="Uogonek" unicode="&#x172;" horiz-adv-x="754" 
d="M409 -232q-56 0 -86.5 24.5t-30.5 72.5q0 39 18.5 66t59.5 54q-140 2 -210 73.5t-70 199.5v497h97v-487q0 -101 45.5 -151t146.5 -50q100 0 146 51t46 150v487h93v-497q0 -112 -53.5 -181.5t-162.5 -86.5q-72 -55 -72 -102q0 -52 56 -52q16 0 29 2v-67q-16 -3 -52 -3z
" />
    <glyph glyph-name="uogonek" unicode="&#x173;" horiz-adv-x="611" 
d="M454 0h-23v77q-54 -91 -165 -91q-85 0 -133 57.5t-48 152.5v339h93v-320q0 -148 116 -148q72 0 103 44t31 114v310h93v-535q-85 -62 -85 -112q0 -52 56 -52q16 0 29 2v-67q-16 -3 -52 -3q-56 0 -86.5 24.5t-30.5 72.5q0 43 23.5 73t78.5 62z" />
    <glyph glyph-name="Wcircumflex" unicode="&#x174;" horiz-adv-x="1042" 
d="M683 0l-157 653l-157 -653h-135l-194 755h101l163 -672l163 672h119l163 -658l159 658h94l-193 -755h-126zM378 795v78l151 82l149 -82v-81l-154 75z" />
    <glyph glyph-name="wcircumflex" unicode="&#x175;" horiz-adv-x="829" 
d="M530 0l-100 331l-16 68h-3q-3 -26 -17 -70l-102 -329h-103l-164 535h98l104 -367l15 -72h3q6 33 18 72l111 367h84l111 -367l18 -79h4q6 39 17 78l104 368h93l-166 -535h-109zM266 586v81l151 102l149 -100v-83l-151 94z" />
    <glyph glyph-name="Ycircumflex" unicode="&#x176;" horiz-adv-x="661" 
d="M284 0v308l-254 447h107l199 -360l199 360h96l-249 -441v-314h-98zM189 795v78l151 82l149 -82v-81l-154 75z" />
    <glyph glyph-name="ycircumflex" unicode="&#x177;" horiz-adv-x="516" 
d="M137 -222l74 222l-191 535h100l124 -363q7 -19 11.5 -36.5t5.5 -25.5l1 -7h3q4 27 20 74l119 358h92l-267 -757h-92zM121 586v81l151 102l149 -100v-83l-151 94z" />
    <glyph glyph-name="Ydieresis" unicode="&#x178;" horiz-adv-x="661" 
d="M284 0v308l-254 447h107l199 -360l199 360h96l-249 -441v-314h-98zM398 826v101h99v-101h-99zM181 826v101h99v-101h-99z" />
    <glyph glyph-name="Zacute" unicode="&#x179;" horiz-adv-x="660" 
d="M55 0v72l433 601h-412v82h529v-72l-434 -601h426v-82h-542zM288 806l93 142h127l-140 -142h-80z" />
    <glyph glyph-name="zacute" unicode="&#x17a;" horiz-adv-x="505" 
d="M55 457v78h399v-78l-303 -379h311v-78h-415v77l305 380h-297zM233 611l96 167h123l-142 -167h-77z" />
    <glyph glyph-name="Zdotaccent" unicode="&#x17b;" horiz-adv-x="660" 
d="M55 0v72l433 601h-412v82h529v-72l-434 -601h426v-82h-542zM282 834v99h97v-99h-97z" />
    <glyph glyph-name="zdotaccent" unicode="&#x17c;" horiz-adv-x="505" 
d="M55 457v78h399v-78l-303 -379h311v-78h-415v77l305 380h-297zM226 653v102h99v-102h-99z" />
    <glyph glyph-name="Zcaron" unicode="&#x17d;" horiz-adv-x="660" 
d="M55 0v72l433 601h-412v82h529v-72l-434 -601h426v-82h-542zM480 945v-79l-151 -82l-149 82v81l154 -75z" />
    <glyph glyph-name="zcaron" unicode="&#x17e;" horiz-adv-x="505" 
d="M55 457v78h399v-78l-303 -379h311v-78h-415v77l305 380h-297zM425 773v-81l-151 -102l-149 100v83l151 -94z" />
    <glyph glyph-name="florin" unicode="&#x192;" horiz-adv-x="412" 
d="M350 462h-119l-59 -625h-88l59 625h-89v73h96l9 98q7 80 43.5 115t102.5 35q17 0 35 -2.5t27 -4.5l9 -2l-5 -79q-32 8 -53 8q-22 0 -36 -6t-21 -19.5t-10 -25.5t-5 -35l-8 -82h112v-73z" />
    <glyph glyph-name="AEacute" unicode="&#x1fc;" horiz-adv-x="954" 
d="M372 590l-125 -293h205v374h-48q-15 -41 -32 -81zM452 0v217h-239l-92 -217h-96l331 755h526v-84h-333v-248h294v-82h-294v-257h340v-84h-437zM557 806l93 142h127l-140 -142h-80z" />
    <glyph glyph-name="aeacute" unicode="&#x1fd;" horiz-adv-x="927" 
d="M54 145q0 86 73.5 129t193.5 43h90v25q0 60 -26.5 95.5t-98.5 35.5q-95 0 -123 -91l-84 25q12 57 64.5 100t150.5 43q127 0 179 -89q68 88 181 88q117 0 173.5 -84.5t56.5 -220.5h-389q1 -81 43.5 -130.5t116.5 -49.5q84 0 135 76l74 -40q-29 -52 -83.5 -83.5
t-128.5 -31.5t-128.5 29t-78.5 85q-69 -113 -214 -113q-77 0 -127 43.5t-50 115.5zM643 474q-66 0 -103 -45t-43 -110h285q-5 70 -39.5 112.5t-99.5 42.5zM248 61q45 0 79 18.5t51 46.5t25 56t8 53v7h-48q-114 0 -162.5 -19t-48.5 -72q0 -42 27 -66t69 -24zM455 611l96 167
h123l-142 -167h-77z" />
    <glyph glyph-name="Oslashacute" unicode="&#x1fe;" horiz-adv-x="793" 
d="M163 376q0 -129 48 -210l329 470q-56 49 -144 49q-108 0 -170.5 -84.5t-62.5 -224.5zM395 66q109 0 172 84.5t63 225.5q0 134 -49 212l-330 -471q57 -51 144 -51zM395 -15q-114 0 -194 59l-68 -97l-51 35l73 104q-93 106 -93 290q0 181 92.5 285t243.5 105q113 0 193 -58
l73 105l51 -33l-79 -113q95 -105 95 -291q0 -182 -92.5 -286.5t-243.5 -104.5zM349 806l93 142h127l-140 -142h-80z" />
    <glyph glyph-name="oslashacute" unicode="&#x1ff;" horiz-adv-x="622" 
d="M152 266q0 -88 34 -141l206 328q-33 21 -81 21q-78 0 -118.5 -57t-40.5 -151zM311 60q78 0 118.5 57t40.5 151q0 87 -34 140l-205 -327q33 -21 80 -21zM307 -15q-65 0 -119 27l-50 -80l-53 31l53 85q-83 78 -83 219q0 124 69 203t191 79q67 0 120 -28l46 74l55 -28
l-51 -81q82 -79 82 -219q0 -124 -69 -203t-191 -79zM269 611l96 167h123l-142 -167h-77z" />
    <glyph glyph-name="Scommaaccent" unicode="&#x218;" horiz-adv-x="684" 
d="M339 -15q-114 0 -189.5 57t-98.5 139l91 29q50 -142 201 -142q85 0 134 35t49 102q0 49 -33.5 79.5t-119.5 49.5l-85 19q-90 21 -143 67.5t-54 133.5q-1 90 68.5 151t182.5 61t175 -43.5t94 -121.5l-85 -35q-27 61 -69.5 89.5t-114.5 28.5q-77 0 -115.5 -34.5
t-38.5 -86.5q0 -54 35 -80.5t112 -45.5l94 -22q195 -46 195 -195q0 -108 -76.5 -171.5t-208.5 -63.5zM300 -223l-18 35q59 22 67 56h-52v99h108v-47q0 -59 -20.5 -88t-84.5 -55z" />
    <glyph glyph-name="scommaaccent" unicode="&#x219;" horiz-adv-x="519" 
d="M258 -15q-88 0 -136.5 34t-75.5 99l79 33q42 -91 134 -91q55 0 85.5 22t30.5 59q0 30 -18.5 48t-69.5 31l-74 19q-144 37 -144 157q0 62 51.5 107.5t138.5 45.5q147 0 199 -116l-79 -35q-39 75 -119 75q-52 0 -76 -21t-24 -50q0 -33 21 -51t68 -30l86 -22
q130 -33 130 -143q0 -77 -55.5 -124t-151.5 -47zM205 -223l-18 35q59 22 67 56h-52v99h108v-47q0 -59 -20.5 -88t-84.5 -55z" />
    <glyph glyph-name="uni021A" unicode="&#x21a;" horiz-adv-x="627" 
d="M30 671v84h567v-84h-235v-671h-97v671h-235zM260 -223l-18 35q59 22 67 56h-52v99h108v-47q0 -59 -20.5 -88t-84.5 -55z" />
    <glyph glyph-name="uni021B" unicode="&#x21b;" horiz-adv-x="390" 
d="M30 462v73h92l6 145h84v-145h122v-73h-120v-330q0 -40 16.5 -54t55.5 -14l50 4l4 -69q-48 -10 -84 -10q-76 0 -106 32.5t-30 109.5l2 331h-92zM168 -223l-18 35q59 22 67 56h-52v99h108v-47q0 -59 -20.5 -88t-84.5 -55z" />
    <glyph glyph-name="uni0237" unicode="&#x237;" horiz-adv-x="273" 
d="M42 -222q-43 0 -74 9l7 71q25 -5 55 -5q60 0 60 80v602h93v-608q0 -72 -38 -110.5t-103 -38.5z" />
    <glyph glyph-name="circumflex" unicode="&#x2c6;" horiz-adv-x="494" 
d="M97 586v81l151 102l149 -100v-83l-151 94z" />
    <glyph glyph-name="caron" unicode="&#x2c7;" horiz-adv-x="494" 
d="M397 773v-81l-151 -102l-149 100v83l151 -94z" />
    <glyph glyph-name="breve" unicode="&#x2d8;" horiz-adv-x="500" 
d="M247 599q-64 0 -107.5 39t-50.5 106h62q19 -74 99 -74q81 0 100 74h55q-7 -66 -51.5 -105.5t-106.5 -39.5z" />
    <glyph glyph-name="dotaccent" unicode="&#x2d9;" horiz-adv-x="501" 
d="M201 653v102h99v-102h-99z" />
    <glyph glyph-name="ring" unicode="&#x2da;" horiz-adv-x="500" 
d="M128 716q0 50 35.5 85t86.5 35t86.5 -35t35.5 -85t-35.5 -85t-86.5 -35t-86.5 35t-35.5 85zM177 716q0 -31 21.5 -53t51.5 -22q29 0 50 22t21 53q0 30 -21 51.5t-50 21.5q-30 0 -51.5 -21t-21.5 -52z" />
    <glyph glyph-name="ogonek" unicode="&#x2db;" horiz-adv-x="500" 
d="M298 -162v-67q-16 -3 -52 -3q-56 0 -86.5 24.5t-30.5 72.5q0 43 23.5 73t78.5 62h67q-85 -62 -85 -112q0 -52 56 -52q16 0 29 2z" />
    <glyph glyph-name="tilde" unicode="&#x2dc;" horiz-adv-x="500" 
d="M136 617h-67q0 57 27.5 95.5t74.5 38.5q40 0 91 -28.5t69 -28.5q44 0 44 61h67q-3 -133 -108 -133q-38 0 -86.5 28.5t-66.5 28.5q-45 0 -45 -62z" />
    <glyph glyph-name="hungarumlaut" unicode="&#x2dd;" horiz-adv-x="500" 
d="M48 606l85 172h113l-127 -172h-71zM240 606l85 172h113l-127 -172h-71z" />
    <glyph glyph-name="Wgrave" unicode="&#x1e80;" horiz-adv-x="1042" 
d="M683 0l-157 653l-157 -653h-135l-194 755h101l163 -672l163 672h119l163 -658l159 658h94l-193 -755h-126zM477 948l93 -142h-80l-140 142h127z" />
    <glyph glyph-name="wgrave" unicode="&#x1e81;" horiz-adv-x="829" 
d="M530 0l-100 331l-16 68h-3q-3 -26 -17 -70l-102 -329h-103l-164 535h98l104 -367l15 -72h3q6 33 18 72l111 367h84l111 -367l18 -79h4q6 39 17 78l104 368h93l-166 -535h-109zM378 778l81 -167h-76l-128 167h123z" />
    <glyph glyph-name="Wacute" unicode="&#x1e82;" horiz-adv-x="1042" 
d="M683 0l-157 653l-157 -653h-135l-194 755h101l163 -672l163 672h119l163 -658l159 658h94l-193 -755h-126zM486 806l93 142h127l-140 -142h-80z" />
    <glyph glyph-name="wacute" unicode="&#x1e83;" horiz-adv-x="829" 
d="M530 0l-100 331l-16 68h-3q-3 -26 -17 -70l-102 -329h-103l-164 535h98l104 -367l15 -72h3q6 33 18 72l111 367h84l111 -367l18 -79h4q6 39 17 78l104 368h93l-166 -535h-109zM374 611l96 167h123l-142 -167h-77z" />
    <glyph glyph-name="Wdieresis" unicode="&#x1e84;" horiz-adv-x="1042" 
d="M683 0l-157 653l-157 -653h-135l-194 755h101l163 -672l163 672h119l163 -658l159 658h94l-193 -755h-126zM587 826v101h99v-101h-99zM370 826v101h99v-101h-99z" />
    <glyph glyph-name="wdieresis" unicode="&#x1e85;" horiz-adv-x="829" 
d="M530 0l-100 331l-16 68h-3q-3 -26 -17 -70l-102 -329h-103l-164 535h98l104 -367l15 -72h3q6 33 18 72l111 367h84l111 -367l18 -79h4q6 39 17 78l104 368h93l-166 -535h-109zM470 653v102h99v-102h-99zM263 653v102h99v-102h-99z" />
    <glyph glyph-name="Ygrave" unicode="&#x1ef2;" horiz-adv-x="661" 
d="M284 0v308l-254 447h107l199 -360l199 360h96l-249 -441v-314h-98zM289 948l93 -142h-80l-140 142h127z" />
    <glyph glyph-name="ygrave" unicode="&#x1ef3;" horiz-adv-x="516" 
d="M137 -222l74 222l-191 535h100l124 -363q7 -19 11.5 -36.5t5.5 -25.5l1 -7h3q4 27 20 74l119 358h92l-267 -757h-92zM233 778l81 -167h-76l-128 167h123z" />
    <glyph glyph-name="uni2004" unicode="&#x2004;" horiz-adv-x="333" 
 />
    <glyph glyph-name="uni2007" unicode="&#x2007;" horiz-adv-x="400" 
 />
    <glyph glyph-name="uni2009" unicode="&#x2009;" horiz-adv-x="160" 
 />
    <glyph glyph-name="uni200A" unicode="&#x200a;" horiz-adv-x="80" 
 />
    <glyph glyph-name="uni200B" unicode="&#x200b;" horiz-adv-x="0" 
 />
    <glyph glyph-name="uni2012" unicode="&#x2012;" horiz-adv-x="571" 
d="M-120 319v78h811v-78h-811z" />
    <glyph glyph-name="endash" unicode="&#x2013;" horiz-adv-x="530" 
d="M30 260v70h470v-70h-470z" />
    <glyph glyph-name="emdash" unicode="&#x2014;" horiz-adv-x="930" 
d="M30 260v70h870v-70h-870z" />
    <glyph glyph-name="quoteleft" unicode="&#x2018;" horiz-adv-x="230" 
d="M190 778l14 -47q-43 -13 -64.5 -37t-21.5 -70h61v-129h-129v112q0 135 140 171z" />
    <glyph glyph-name="quoteright" unicode="&#x2019;" horiz-adv-x="230" 
d="M40 472l-14 47q43 13 64.5 37t21.5 70h-61v129h129v-112q0 -135 -140 -171z" />
    <glyph glyph-name="quotesinglbase" unicode="&#x201a;" horiz-adv-x="230" 
d="M40 -154l-14 47q43 13 64.5 37t21.5 70h-61v129h129v-112q0 -135 -140 -171z" />
    <glyph glyph-name="quotedblleft" unicode="&#x201c;" horiz-adv-x="430" 
d="M190 778l14 -47q-43 -13 -64.5 -37t-21.5 -70h61v-129h-129v112q0 135 140 171zM390 778l14 -47q-43 -13 -64.5 -37t-21.5 -70h61v-129h-129v112q0 135 140 171z" />
    <glyph glyph-name="quotedblright" unicode="&#x201d;" horiz-adv-x="430" 
d="M40 472l-14 47q43 13 64.5 37t21.5 70h-61v129h129v-112q0 -135 -140 -171zM240 472l-14 47q43 13 64.5 37t21.5 70h-61v129h129v-112q0 -135 -140 -171z" />
    <glyph glyph-name="quotedblbase" unicode="&#x201e;" horiz-adv-x="430" 
d="M40 -154l-14 47q43 13 64.5 37t21.5 70h-61v129h129v-112q0 -135 -140 -171zM240 -154l-14 47q43 13 64.5 37t21.5 70h-61v129h129v-112q0 -135 -140 -171z" />
    <glyph glyph-name="dagger" unicode="&#x2020;" horiz-adv-x="326" 
d="M34 591v58h97v106h65v-106h96v-58h-96v-261h-65v261h-97z" />
    <glyph glyph-name="daggerdbl" unicode="&#x2021;" horiz-adv-x="326" 
d="M195 755v-106h98v-57h-100v-99h100v-57h-98v-106h-63v106h-98v57h100v99h-100v57h98v106h63z" />
    <glyph glyph-name="bullet" unicode="&#x2022;" horiz-adv-x="390" 
d="M70 295q0 52 36.5 88.5t88.5 36.5t88.5 -36.5t36.5 -88.5t-36.5 -88.5t-88.5 -36.5t-88.5 36.5t-36.5 88.5z" />
    <glyph glyph-name="ellipsis" unicode="&#x2026;" horiz-adv-x="807" 
d="M608 0v129h129v-129h-129zM339 0v129h129v-129h-129zM70 0v129h129v-129h-129z" />
    <glyph glyph-name="perthousand" unicode="&#x2030;" horiz-adv-x="1227" 
d="M45 578q0 88 46 138t119 50q76 0 117.5 -47.5t41.5 -140.5q0 -90 -45 -139t-118 -49q-76 0 -118.5 48.5t-42.5 139.5zM129 -14l503 780h74l-502 -780h-75zM206 710q-83 0 -83 -132t84 -132q82 0 82 132t-83 132zM858 174q0 88 46 138t119 50q76 0 117.5 -47.5
t41.5 -140.5q0 -90 -45 -139t-118 -49q-76 0 -118.5 48.5t-42.5 139.5zM465 174q0 88 46 138t119 50q76 0 117.5 -47.5t41.5 -140.5q0 -90 -45 -139t-118 -49q-76 0 -118.5 48.5t-42.5 139.5zM1019 306q-83 0 -83 -132t84 -132q82 0 82 132t-83 132zM626 306q-83 0 -83 -132
t84 -132q82 0 82 132t-83 132z" />
    <glyph glyph-name="uni2032" unicode="&#x2032;" horiz-adv-x="285" 
d="M60 452l69 303h121l-134 -303h-56z" />
    <glyph glyph-name="uni2033" unicode="&#x2033;" horiz-adv-x="485" 
d="M260 452l69 303h121l-134 -303h-56zM60 452l69 303h121l-134 -303h-56z" />
    <glyph glyph-name="guilsinglleft" unicode="&#x2039;" horiz-adv-x="310" 
d="M170 464h85l-117 -202l117 -205h-87l-123 204z" />
    <glyph glyph-name="guilsinglright" unicode="&#x203a;" horiz-adv-x="310" 
d="M140 57h-85l117 202l-117 205h87l123 -204z" />
    <glyph glyph-name="fraction" unicode="&#x2044;" horiz-adv-x="140" 
d="M-217 -14l502 780h71l-501 -780h-72z" />
    <glyph glyph-name="zero.sup" unicode="&#x2070;" horiz-adv-x="446" 
d="M58 609q0 109 43 163.5t123 54.5q75 0 119.5 -54t44.5 -164q0 -109 -43.5 -163.5t-122.5 -54.5q-78 0 -121 54.5t-43 163.5zM223 768q-44 0 -65.5 -37t-21.5 -122t21.5 -122t65.5 -37t65.5 36.5t21.5 122.5q0 84 -21.5 121.5t-65.5 37.5z" />
    <glyph glyph-name="four.sup" unicode="&#x2074;" horiz-adv-x="406" 
d="M304 400h-67v99h-201v47l181 274h87v-262h64v-59h-64v-99zM109 557h128v207h-4q-17 -46 -63 -115z" />
    <glyph glyph-name="five.sup" unicode="&#x2075;" horiz-adv-x="427" 
d="M209 392q-67 0 -105 34t-46 83l69 9q15 -69 83 -69q85 0 85 88q0 38 -23 60.5t-61 22.5q-49 0 -78 -37l-60 20l37 217h237v-63h-189l-18 -112h3q36 32 85 32q59 0 98.5 -35t39.5 -101q0 -68 -42.5 -108.5t-114.5 -40.5z" />
    <glyph glyph-name="six.sup" unicode="&#x2076;" horiz-adv-x="431" 
d="M368 724l-71 -10q-11 57 -71 57q-46 0 -69 -34t-26 -115h2q38 51 107 51q56 0 95 -35t39 -101q0 -60 -42 -103t-111 -43q-76 0 -119.5 50.5t-43.5 154.5q0 113 44 172t129 59q55 0 91.5 -29.5t45.5 -73.5zM305 533q0 40 -23.5 63.5t-61.5 23.5t-60 -23.5t-22 -63.5
q0 -41 23.5 -64t61.5 -23q34 0 58 23.5t24 63.5z" />
    <glyph glyph-name="seven.sup" unicode="&#x2077;" horiz-adv-x="371" 
d="M73 400l180 357h-212v63h289v-54l-180 -366h-77z" />
    <glyph glyph-name="eight.sup" unicode="&#x2078;" horiz-adv-x="421" 
d="M211 828q66 0 105.5 -32t39.5 -81q0 -64 -63 -96v-1q77 -24 77 -102q0 -55 -44 -90t-116 -35q-75 0 -117 33.5t-42 90.5q0 39 22.5 65.5t55.5 37.5v1q-64 30 -64 95q0 49 40 81.5t106 32.5zM138 709q0 -31 19.5 -47.5t53.5 -16.5t53.5 17t19.5 47q0 65 -73 65
q-35 0 -54 -17t-19 -48zM295 520q0 33 -22 52.5t-62 19.5t-62 -19.5t-22 -52.5q0 -34 22 -53.5t62 -19.5t62 19.5t22 53.5z" />
    <glyph glyph-name="nine.sup" unicode="&#x2079;" horiz-adv-x="428" 
d="M125 686q0 -38 22.5 -61t59.5 -23q36 0 59 23t23 61q0 40 -22 62.5t-60 22.5q-35 0 -58.5 -22.5t-23.5 -62.5zM52 495l69 10q18 -57 76 -57q48 0 70.5 33.5t27.5 117.5h-2q-31 -51 -100 -51q-61 0 -100.5 36t-39.5 102q0 57 43.5 99t112.5 42q72 0 116 -49.5t44 -150.5
q0 -236 -172 -236q-59 0 -98 28.5t-47 75.5z" />
    <glyph glyph-name="plus.sup" unicode="&#x207a;" horiz-adv-x="410" 
d="M62 568v56h113v114h60v-114h113v-56h-113v-118h-60v118h-113z" />
    <glyph glyph-name="minus.sup" unicode="&#x207b;" horiz-adv-x="410" 
d="M62 568v56h286v-56h-286z" />
    <glyph glyph-name="zero.sub" unicode="&#x2080;" horiz-adv-x="446" 
d="M58 129q0 109 43 163.5t123 54.5q75 0 119.5 -54t44.5 -164q0 -109 -43.5 -163.5t-122.5 -54.5q-78 0 -121 54.5t-43 163.5zM223 288q-44 0 -65.5 -37t-21.5 -122t21.5 -122t65.5 -37t65.5 36.5t21.5 122.5q0 84 -21.5 121.5t-65.5 37.5z" />
    <glyph glyph-name="one.sub" unicode="&#x2081;" horiz-adv-x="307" 
d="M218 -80h-71v333l-85 -51l-31 52l135 87h52v-421z" />
    <glyph glyph-name="two.sub" unicode="&#x2082;" horiz-adv-x="406" 
d="M126 205l-69 4q2 59 40.5 99t108.5 40q68 0 103.5 -33.5t35.5 -84.5q0 -56 -34.5 -96.5t-163.5 -149.5v-2h201v-62h-300v57q165 145 189 171q33 40 34 73q0 33 -17.5 50.5t-48.5 17.5q-74 0 -79 -84z" />
    <glyph glyph-name="three.sub" unicode="&#x2083;" horiz-adv-x="419" 
d="M206 -32q39 0 61 19.5t22 53.5q0 66 -83 66h-46v59h44q74 0 74 62q0 30 -19.5 46t-51.5 16q-68 0 -81 -74l-65 8q6 55 45 89.5t102 34.5q68 0 104 -31t36 -79q0 -72 -73 -95v-2q87 -17 87 -101q0 -55 -44 -92t-112 -37q-69 0 -109 34t-46 89l69 8q13 -74 86 -74z" />
    <glyph glyph-name="four.sub" unicode="&#x2084;" horiz-adv-x="406" 
d="M304 -80h-67v99h-201v47l181 274h87v-262h64v-59h-64v-99zM109 77h128v207h-4q-17 -46 -63 -115z" />
    <glyph glyph-name="five.sub" unicode="&#x2085;" horiz-adv-x="427" 
d="M209 -88q-67 0 -105 34t-46 83l69 9q15 -69 83 -69q85 0 85 88q0 38 -23 60.5t-61 22.5q-49 0 -78 -37l-60 20l37 217h237v-63h-189l-18 -112h3q36 32 85 32q59 0 98.5 -35t39.5 -101q0 -68 -42.5 -108.5t-114.5 -40.5z" />
    <glyph glyph-name="six.sub" unicode="&#x2086;" horiz-adv-x="431" 
d="M368 244l-71 -10q-11 57 -71 57q-46 0 -69 -34t-26 -115h2q38 51 107 51q56 0 95 -35t39 -101q0 -60 -42 -103t-111 -43q-76 0 -119.5 50.5t-43.5 154.5q0 113 44 172t129 59q55 0 91.5 -29.5t45.5 -73.5zM305 53q0 40 -23.5 63.5t-61.5 23.5t-60 -23.5t-22 -63.5
q0 -41 23.5 -64t61.5 -23q34 0 58 23.5t24 63.5z" />
    <glyph glyph-name="seven.sub" unicode="&#x2087;" horiz-adv-x="371" 
d="M73 -80l180 357h-212v63h289v-54l-180 -366h-77z" />
    <glyph glyph-name="eight.sub" unicode="&#x2088;" horiz-adv-x="421" 
d="M211 348q66 0 105.5 -32t39.5 -81q0 -64 -63 -96v-1q77 -24 77 -102q0 -55 -44 -90t-116 -35q-75 0 -117 33.5t-42 90.5q0 39 22.5 65.5t55.5 37.5v1q-64 30 -64 95q0 49 40 81.5t106 32.5zM138 229q0 -31 19.5 -47.5t53.5 -16.5t53.5 17t19.5 47q0 65 -73 65
q-35 0 -54 -17t-19 -48zM295 40q0 33 -22 52.5t-62 19.5t-62 -19.5t-22 -52.5q0 -34 22 -53.5t62 -19.5t62 19.5t22 53.5z" />
    <glyph glyph-name="nine.sub" unicode="&#x2089;" horiz-adv-x="428" 
d="M125 206q0 -38 22.5 -61t59.5 -23q36 0 59 23t23 61q0 40 -22 62.5t-60 22.5q-35 0 -58.5 -22.5t-23.5 -62.5zM52 15l69 10q18 -57 76 -57q48 0 70.5 33.5t27.5 117.5h-2q-31 -51 -100 -51q-61 0 -100.5 36t-39.5 102q0 57 43.5 99t112.5 42q72 0 116 -49.5t44 -150.5
q0 -236 -172 -236q-59 0 -98 28.5t-47 75.5z" />
    <glyph glyph-name="plus.sub" unicode="&#x208a;" horiz-adv-x="410" 
d="M62 88v56h113v114h60v-114h113v-56h-113v-118h-60v118h-113z" />
    <glyph glyph-name="minus.sub" unicode="&#x208b;" horiz-adv-x="410" 
d="M62 88v56h286v-56h-286z" />
    <glyph glyph-name="Euro" unicode="&#x20ac;" horiz-adv-x="684" 
d="M635 171q-25 -94 -89 -140t-147 -46q-232 0 -266 276h-86v64h80q-1 16 -1 50q0 19 2 51h-81v64h87q22 137 93.5 206.5t176.5 69.5q178 0 231 -169l-92 -29q-25 64 -58 93t-88 29q-137 0 -166 -200h233v-64h-240q-1 -17 -1 -53q0 -33 1 -48h240v-64h-234q28 -201 171 -201
q105 0 150 135z" />
    <glyph glyph-name="uni20B9" unicode="&#x20b9;" horiz-adv-x="651" 
d="M267 260l215 -260h-116l-212 255h-59v77h107q158 0 177 132h-284v77h284q-10 68 -57.5 102.5t-124.5 34.5h-102v77h486v-79h-183v-1q66 -51 77 -134h106v-77h-107q-12 -80 -67 -134t-140 -69v-1z" />
    <glyph glyph-name="uni20BA" unicode="&#x20ba;" horiz-adv-x="687" 
d="M269 0h-111v289l-88 -29v67l88 30v87l-88 -30v68l88 29v244h95v-212l234 78v-67l-234 -79v-86l234 79v-69l-234 -78v-242h26q112 0 174.5 49.5t87.5 166.5l86 -16q-28 -144 -117 -211.5t-241 -67.5z" />
    <glyph glyph-name="trademark" unicode="&#x2122;" horiz-adv-x="659" 
d="M106 456v247h-86v52h234v-52h-85v-247h-63zM302 456v299h82l62 -176l10 -43h4q1 17 9 43l57 176h85v-299h-60v205h-4q-3 -19 -9 -37l-53 -168h-58l-58 171l-9 34h-3v-205h-55z" />
    <glyph glyph-name="onethird" unicode="&#x2153;" horiz-adv-x="926" 
d="M218 335h-71v333l-85 -51l-31 52l135 87h52v-421zM129 -14l502 780h71l-501 -780h-72zM712 48q39 0 61 19.5t22 53.5q0 66 -83 66h-46v59h44q74 0 74 62q0 30 -19.5 46t-51.5 16q-68 0 -81 -74l-65 8q6 55 45 89.5t102 34.5q68 0 104 -31t36 -79q0 -72 -73 -95v-2
q87 -17 87 -101q0 -55 -44 -92t-112 -37q-69 0 -109 34t-46 89l69 8q13 -74 86 -74z" />
    <glyph glyph-name="twothirds" unicode="&#x2154;" horiz-adv-x="1047" 
d="M126 620l-69 4q2 59 40.5 99t108.5 40q68 0 103.5 -33.5t35.5 -84.5q0 -56 -34.5 -96.5t-163.5 -149.5v-2h201v-62h-300v57q165 145 189 171q33 40 34 73q0 32 -17.5 50t-48.5 18q-74 0 -79 -84zM249 -14l502 780h71l-501 -780h-72zM833 48q39 0 61 19.5t22 53.5
q0 66 -83 66h-46v59h44q74 0 74 62q0 30 -19.5 46t-51.5 16q-68 0 -81 -74l-65 8q6 55 45 89.5t102 34.5q68 0 104 -31t36 -79q0 -72 -73 -95v-2q87 -17 87 -101q0 -55 -44 -92t-112 -37q-69 0 -109 34t-46 89l69 8q13 -74 86 -74z" />
    <glyph glyph-name="oneeighth" unicode="&#x215b;" horiz-adv-x="933" 
d="M218 335h-71v333l-85 -51l-31 52l135 87h52v-421zM129 -14l502 780h71l-501 -780h-72zM722 428q66 0 105.5 -32t39.5 -81q0 -64 -63 -96v-1q77 -24 77 -102q0 -55 -44 -90t-116 -35q-75 0 -117 33.5t-42 90.5q0 39 22.5 65.5t55.5 37.5v1q-64 30 -64 95q0 49 40 81.5
t106 32.5zM649 309q0 -31 19.5 -47.5t53.5 -16.5t53.5 17t19.5 47q0 65 -73 65q-35 0 -54 -17t-19 -48zM806 120q0 33 -22 52.5t-62 19.5t-62 -19.5t-22 -52.5q0 -34 22 -53.5t62 -19.5t62 19.5t22 53.5z" />
    <glyph glyph-name="threeeighths" unicode="&#x215c;" horiz-adv-x="1025" 
d="M206 383q39 0 61 19.5t22 53.5q0 66 -83 66h-46v59h44q74 0 74 62q0 30 -19.5 46t-51.5 16q-68 0 -81 -74l-65 8q6 55 45 89.5t102 34.5q68 0 104 -31t36 -79q0 -72 -73 -95v-2q87 -17 87 -101q0 -55 -44 -92t-112 -37q-69 0 -109 34t-46 89l69 8q13 -74 86 -74zM221 -14
l502 780h71l-501 -780h-72zM815 428q66 0 105.5 -32t39.5 -81q0 -64 -63 -96v-1q77 -24 77 -102q0 -55 -44 -90t-116 -35q-75 0 -117 33.5t-42 90.5q0 39 22.5 65.5t55.5 37.5v1q-64 30 -64 95q0 49 40 81.5t106 32.5zM742 309q0 -31 19.5 -47.5t53.5 -16.5t53.5 17t19.5 47
q0 65 -73 65q-35 0 -54 -17t-19 -48zM899 120q0 33 -22 52.5t-62 19.5t-62 -19.5t-22 -52.5q0 -34 22 -53.5t62 -19.5t62 19.5t22 53.5z" />
    <glyph glyph-name="fiveeighths" unicode="&#x215d;" horiz-adv-x="1033" 
d="M209 327q-67 0 -105 34t-46 83l69 9q15 -69 83 -69q85 0 85 88q0 38 -23 60.5t-61 22.5q-49 0 -78 -37l-60 20l37 217h237v-63h-189l-18 -112h3q36 32 85 32q59 0 98.5 -35t39.5 -101q0 -68 -42.5 -108.5t-114.5 -40.5zM228 -14l502 780h71l-501 -780h-72zM822 428
q66 0 105.5 -32t39.5 -81q0 -64 -63 -96v-1q77 -24 77 -102q0 -55 -44 -90t-116 -35q-75 0 -117 33.5t-42 90.5q0 39 22.5 65.5t55.5 37.5v1q-64 30 -64 95q0 49 40 81.5t106 32.5zM749 309q0 -31 19.5 -47.5t53.5 -16.5t53.5 17t19.5 47q0 65 -73 65q-35 0 -54 -17t-19 -48
zM906 120q0 33 -22 52.5t-62 19.5t-62 -19.5t-22 -52.5q0 -34 22 -53.5t62 -19.5t62 19.5t22 53.5z" />
    <glyph glyph-name="seveneighths" unicode="&#x215e;" horiz-adv-x="917" 
d="M73 335l180 357h-212v63h289v-54l-180 -366h-77zM110 -14l502 780h71l-501 -780h-72zM706 428q66 0 105.5 -32t39.5 -81q0 -64 -63 -96v-1q77 -24 77 -102q0 -55 -44 -90t-116 -35q-75 0 -117 33.5t-42 90.5q0 39 22.5 65.5t55.5 37.5v1q-64 30 -64 95q0 49 40 81.5
t106 32.5zM633 309q0 -31 19.5 -47.5t53.5 -16.5t53.5 17t19.5 47q0 65 -73 65q-35 0 -54 -17t-19 -48zM790 120q0 33 -22 52.5t-62 19.5t-62 -19.5t-22 -52.5q0 -34 22 -53.5t62 -19.5t62 19.5t22 53.5z" />
    <glyph glyph-name="uni2190" unicode="&#x2190;" horiz-adv-x="950" 
d="M413 21l-336 336v2l336 336l56 -56l-244 -242h640v-78h-640l244 -242z" />
    <glyph glyph-name="arrowup" unicode="&#x2191;" horiz-adv-x="950" 
d="M138 452l336 336h2l336 -336l-56 -56l-242 244v-640h-78v640l-242 -244z" />
    <glyph glyph-name="uni2192" unicode="&#x2192;" horiz-adv-x="950" 
d="M873 357l-336 -336l-56 56l244 242h-640v78h640l-244 242l56 56l336 -336v-2z" />
    <glyph glyph-name="arrowdown" unicode="&#x2193;" horiz-adv-x="950" 
d="M474 -10l-336 336l56 56l242 -244v640h78v-640l242 244l56 -56l-336 -336h-2z" />
    <glyph glyph-name="uni2196" unicode="&#x2196;" horiz-adv-x="950" 
d="M210 175v475l1 1h475v-79l-343 2l452 -453l-55 -55l-452 452l1 -343h-79z" />
    <glyph glyph-name="uni2197" unicode="&#x2197;" horiz-adv-x="950" 
d="M264 652h475l1 -1v-475h-79l2 343l-453 -452l-55 55l452 452l-343 -1v79z" />
    <glyph glyph-name="uni2198" unicode="&#x2198;" horiz-adv-x="950" 
d="M740 541v-475l-1 -1h-475v79l343 -2l-452 453l55 55l452 -452l-1 343h79z" />
    <glyph glyph-name="uni2199" unicode="&#x2199;" horiz-adv-x="950" 
d="M686 65h-475l-1 1v475h79l-2 -343l453 452l55 -55l-452 -452l343 1v-79z" />
    <glyph glyph-name="minus" unicode="&#x2212;" horiz-adv-x="600" 
d="M65 292v68h470v-68h-470z" />
    <glyph glyph-name="infinity" unicode="&#x221e;" horiz-adv-x="890" 
d="M625 117q-68 0 -111.5 34.5t-73.5 111.5h-2q-62 -146 -179 -146q-89 0 -136.5 59t-47.5 149q0 94 51 151.5t139 57.5q66 0 110.5 -34.5t74.5 -104.5h2q31 71 73.5 105t105.5 34q89 0 136.5 -57.5t47.5 -151.5q0 -92 -49 -150t-141 -58zM624 181q62 0 89 41t27 103
q0 63 -26.5 104t-88.5 41q-28 0 -51.5 -12t-41 -35.5t-28.5 -42.5t-24 -49q36 -85 68.5 -117.5t75.5 -32.5zM265 181q88 0 146 141q-37 82 -67.5 115t-78.5 33q-60 0 -87.5 -39.5t-27.5 -105.5q0 -63 27 -103.5t88 -40.5z" />
    <glyph glyph-name="approxequal" unicode="&#x2248;" horiz-adv-x="600" 
d="M67 352q0 55 34.5 93t97.5 38q46 0 112 -31t93 -31q53 0 67 64h61q0 -55 -36 -93t-96 -38q-47 0 -113 30.5t-93 30.5q-59 0 -66 -63h-61zM67 182q0 55 34.5 93t97.5 38q46 0 112 -30.5t93 -30.5q53 0 67 63h61q0 -54 -35.5 -92.5t-91.5 -38.5q-50 0 -117 31t-94 31
q-59 0 -66 -64h-61z" />
    <glyph glyph-name="notequal" unicode="&#x2260;" horiz-adv-x="600" 
d="M535 207h-258l-62 -121h-76l62 121h-136v68h171l52 102h-223v68h258l61 118h76l-61 -118h136v-68h-171l-52 -102h223v-68z" />
    <glyph glyph-name="lessequal" unicode="&#x2264;" horiz-adv-x="600" 
d="M535 138l-470 205v57l470 205v-77l-366 -155l366 -154v-81zM65 0v68h470v-68h-470z" />
    <glyph glyph-name="greaterequal" unicode="&#x2265;" horiz-adv-x="600" 
d="M65 606l470 -205v-57l-470 -205v77l366 155l-366 154v81zM65 0v68h470v-68h-470z" />
    <glyph glyph-name="uni24C5" unicode="&#x24c5;" horiz-adv-x="925" 
d="M70 377q0 163 114.5 278t277.5 115t278 -115t115 -278t-115 -277.5t-278 -114.5t-277.5 114.5t-114.5 277.5zM125 377q0 -143 98.5 -243.5t238.5 -100.5t239 100.5t99 243.5t-99 244t-239 101t-238.5 -101t-98.5 -244zM333 155v453h159q70 0 114.5 -38.5t44.5 -104.5
q0 -71 -44.5 -111.5t-119.5 -40.5h-79v-158h-75zM481 547h-73v-173h70q98 0 98 87q0 86 -95 86z" />
    <glyph glyph-name="uni2713" unicode="&#x2713;" horiz-adv-x="1000" 
d="M372 -14l-324 313l64 64l262 -256l515 562l62 -60l-568 -623h-11z" />
    <glyph glyph-name="uni2717" unicode="&#x2717;" horiz-adv-x="1000" 
d="M766 20l-268 270l-267 -269l-59 59l268 270l-269 271l62 61l268 -270l267 269l59 -59l-268 -270l269 -271z" />
    <glyph glyph-name="apple" unicode="&#xf8ff;" horiz-adv-x="1241" 
d="M390 318v11h10v18h-10v41h11v-40h19v40h11v-41h-10v-9h-10v-10h-10v-10h-11zM350 338v9h-10v30h-10v11h10v10h11v-10h20v-11h-20v-29h20v-10h-21zM590 338v9h-10v30h-10v11h10v10h11v-10h20v-11h-20v-29h20v-10h-21zM700 338v9h-10v31h10v10h21v-10h10v-21h-30v-9h30v-10
h-31zM880 338v9h-10v31h10v10h21v-10h10v-21h-30v-9h30v-10h-31zM110 347v10h-10v11h10v10h11v-10h10v-11h-10v-10h-11zM180 347v10h-10v11h10v10h11v-10h10v-11h-10v-10h-11zM270 347v10h-10v11h10v10h11v-10h10v-11h-10v-10h-11zM520 338v9h-10v31h10v10h21v-10h10v-31
h-10v-9h-21zM630 338v70h11v-20h20v-10h10v-40h-11v39h-19v-39h-11zM960 347v10h-10v11h10v10h11v-10h10v-11h-10v-10h-11zM1050 347v10h-10v11h10v10h11v-10h10v-11h-10v-10h-11zM1120 347v10h-10v11h10v10h11v-10h10v-11h-10v-10h-11zM450 318v70h31v-10h10v-31h-10v-9
h-20v-20h-11zM780 318v20h-20v9h-10v31h10v10h31v-70h-11zM820 338v9h-10v41h11v-40h19v40h11v-50h-31zM240 328v10h10v10h11v-10h-10v-10h-11zM250 377v10h-10v11h11v-10h10v-11h-11zM300 328v10h-10v10h11v-10h10v-10h-11zM290 377v11h10v10h11v-11h-10v-10h-11zM930 328
v10h10v10h11v-10h-10v-10h-11zM940 377v10h-10v11h11v-10h10v-11h-11zM990 328v10h-10v10h11v-10h10v-10h-11zM980 377v11h10v10h11v-11h-10v-10h-11zM160 338v10h11v-10h-11zM160 377v11h11v-11h-11zM200 338v10h11v-10h-11zM200 377v11h11v-11h-11zM461 348h19v29h-19v-29
zM521 348h19v29h-19v-29zM701 368h19v9h-19v-9zM761 348h19v29h-19v-29zM881 368h19v9h-19v-9zM1030 338v10h11v-10h-11zM1030 377v11h11v-11h-11zM1070 338v10h11v-10h-11zM1070 377v11h11v-11h-11z" />
    <glyph glyph-name="fi" unicode="&#xfb01;" horiz-adv-x="642" 
d="M30 462v73h91v104q0 71 40.5 107.5t107.5 36.5q17 0 35 -2.5t27 -4.5l9 -2l-5 -79q-32 8 -53 8q-42 0 -55 -21.5t-13 -64.5v-82h120v-73h-120v-462h-93v462h-91zM453 648v107h105v-107h-105zM459 0v535h93v-535h-93z" />
    <glyph glyph-name="fl" unicode="&#xfb02;" horiz-adv-x="642" 
d="M30 462v73h91v104q0 71 40.5 107.5t107.5 36.5q17 0 35 -2.5t27 -4.5l9 -2l-5 -79q-32 8 -53 8q-42 0 -55 -21.5t-13 -64.5v-82h120v-73h-120v-462h-93v462h-91zM459 0v778h93v-778h-93z" />
    <glyph glyph-name="zero.zero" horiz-adv-x="684" 
d="M70 375q0 191 73 291t201 100q129 0 199.5 -98.5t70.5 -292.5q0 -191 -74 -290.5t-197 -99.5q-273 0 -273 390zM168 375q0 -65 8 -121l312 328q-42 107 -146 107q-174 0 -174 -314zM344 62q173 0 173 313q0 67 -7 115l-311 -327q42 -101 145 -101z" />
    <glyph glyph-name="idotaccent" horiz-adv-x="273" 
d="M84 648v107h105v-107h-105zM90 0v535h93v-535h-93z" />
    <glyph glyph-name="germandbls.alt" horiz-adv-x="629" 
d="M253 -6l11 76q105 -17 157.5 25.5t52.5 116.5q0 71 -43 111.5t-127 40.5h-26v80h9q63 0 104 35t41 102q0 58 -30.5 93.5t-89.5 35.5q-67 0 -97 -40t-30 -103v-567h-95v546q0 117 63.5 177.5t170.5 60.5q88 0 148.5 -50.5t60.5 -146.5q0 -61 -34 -104t-94 -65v-4
q169 -38 169 -197q0 -114 -86.5 -180t-234.5 -43z" />
    <glyph glyph-name="a.alt" horiz-adv-x="642" 
d="M307 66q79 0 120 55.5t41 148.5q0 91 -40 146.5t-114 55.5q-79 0 -119.5 -55.5t-40.5 -147.5q0 -95 37.5 -149t115.5 -54zM291 -15q-106 0 -171 71.5t-65 205.5q0 77 26.5 140t85.5 105t143 42q101 0 152 -85v71h90v-535h-90v83q-54 -98 -171 -98z" />
    <glyph glyph-name="t.alt" horiz-adv-x="353" 
d="M218 462v-462h-93v462h-110v73h110v145h93v-145h120v-73h-120z" />
    <glyph glyph-name="l.alt" horiz-adv-x="324" 
d="M178 778v-638q0 -43 16.5 -57.5t55.5 -14.5l39 2l3 -69q-34 -8 -74 -8q-74 0 -103.5 32.5t-29.5 109.5v643h93z" />
    <glyph glyph-name="aacute.alt" horiz-adv-x="642" 
d="M307 66q79 0 120 55.5t41 148.5q0 91 -40 146.5t-114 55.5q-79 0 -119.5 -55.5t-40.5 -147.5q0 -95 37.5 -149t115.5 -54zM291 -15q-106 0 -171 71.5t-65 205.5q0 77 26.5 140t85.5 105t143 42q101 0 152 -85v71h90v-535h-90v83q-54 -98 -171 -98zM276 611l96 167h123
l-142 -167h-77z" />
    <glyph glyph-name="abreve.alt" horiz-adv-x="642" 
d="M307 66q79 0 120 55.5t41 148.5q0 91 -40 146.5t-114 55.5q-79 0 -119.5 -55.5t-40.5 -147.5q0 -95 37.5 -149t115.5 -54zM291 -15q-106 0 -171 71.5t-65 205.5q0 77 26.5 140t85.5 105t143 42q101 0 152 -85v71h90v-535h-90v83q-54 -98 -171 -98zM318 599
q-64 0 -107.5 39t-50.5 106h62q18 -74 99 -74t100 74h55q-7 -66 -51.5 -105.5t-106.5 -39.5z" />
    <glyph glyph-name="acircumflex.alt" horiz-adv-x="642" 
d="M307 66q79 0 120 55.5t41 148.5q0 91 -40 146.5t-114 55.5q-79 0 -119.5 -55.5t-40.5 -147.5q0 -95 37.5 -149t115.5 -54zM291 -15q-106 0 -171 71.5t-65 205.5q0 77 26.5 140t85.5 105t143 42q101 0 152 -85v71h90v-535h-90v83q-54 -98 -171 -98zM168 586v81l151 102
l149 -100v-83l-151 94z" />
    <glyph glyph-name="adieresis.alt" horiz-adv-x="642" 
d="M307 66q79 0 120 55.5t41 148.5q0 91 -40 146.5t-114 55.5q-79 0 -119.5 -55.5t-40.5 -147.5q0 -95 37.5 -149t115.5 -54zM291 -15q-106 0 -171 71.5t-65 205.5q0 77 26.5 140t85.5 105t143 42q101 0 152 -85v71h90v-535h-90v83q-54 -98 -171 -98zM372 653v102h99v-102
h-99zM165 653v102h99v-102h-99z" />
    <glyph glyph-name="agrave.alt" horiz-adv-x="642" 
d="M307 66q79 0 120 55.5t41 148.5q0 91 -40 146.5t-114 55.5q-79 0 -119.5 -55.5t-40.5 -147.5q0 -95 37.5 -149t115.5 -54zM291 -15q-106 0 -171 71.5t-65 205.5q0 77 26.5 140t85.5 105t143 42q101 0 152 -85v71h90v-535h-90v83q-54 -98 -171 -98zM280 778l81 -167h-76
l-128 167h123z" />
    <glyph glyph-name="amacron.alt" horiz-adv-x="642" 
d="M307 66q79 0 120 55.5t41 148.5q0 91 -40 146.5t-114 55.5q-79 0 -119.5 -55.5t-40.5 -147.5q0 -95 37.5 -149t115.5 -54zM291 -15q-106 0 -171 71.5t-65 205.5q0 77 26.5 140t85.5 105t143 42q101 0 152 -85v71h90v-535h-90v83q-54 -98 -171 -98zM151 653v75h334v-75
h-334z" />
    <glyph glyph-name="aogonek.alt" horiz-adv-x="642" 
d="M307 66q79 0 120 55.5t41 148.5q0 91 -40 146.5t-114 55.5q-79 0 -119.5 -55.5t-40.5 -147.5q0 -95 37.5 -149t115.5 -54zM485 0h-23v83q-54 -98 -171 -98q-106 0 -171 71.5t-65 205.5q0 77 26.5 140t85.5 105t143 42q101 0 152 -85v71h90v-535q-85 -62 -85 -112
q0 -52 56 -52q16 0 29 2v-67q-16 -3 -52 -3q-56 0 -86.5 24.5t-30.5 72.5q0 43 23.5 73t78.5 62z" />
    <glyph glyph-name="aring.alt" horiz-adv-x="642" 
d="M307 66q79 0 120 55.5t41 148.5q0 91 -40 146.5t-114 55.5q-79 0 -119.5 -55.5t-40.5 -147.5q0 -95 37.5 -149t115.5 -54zM291 -15q-106 0 -171 71.5t-65 205.5q0 77 26.5 140t85.5 105t143 42q101 0 152 -85v71h90v-535h-90v83q-54 -98 -171 -98zM196 716q0 50 35.5 85
t86.5 35t86.5 -35t35.5 -85t-35.5 -85t-86.5 -35t-86.5 35t-35.5 85zM245 716q0 -31 21.5 -53t51.5 -22q29 0 50 22t21 53q0 30 -21 51.5t-50 21.5q-30 0 -51.5 -21t-21.5 -52z" />
    <glyph glyph-name="atilde.alt" horiz-adv-x="642" 
d="M307 66q79 0 120 55.5t41 148.5q0 91 -40 146.5t-114 55.5q-79 0 -119.5 -55.5t-40.5 -147.5q0 -95 37.5 -149t115.5 -54zM291 -15q-106 0 -171 71.5t-65 205.5q0 77 26.5 140t85.5 105t143 42q101 0 152 -85v71h90v-535h-90v83q-54 -98 -171 -98zM209 617h-67
q0 57 27.5 95.5t74.5 38.5q40 0 91 -28.5t69 -28.5q44 0 44 61h67q-3 -133 -108 -133q-38 0 -86.5 28.5t-66.5 28.5q-45 0 -45 -62z" />
    <glyph glyph-name="lacute.alt" horiz-adv-x="324" 
d="M178 778v-638q0 -43 16.5 -57.5t55.5 -14.5l39 2l3 -69q-34 -8 -74 -8q-74 0 -103.5 32.5t-29.5 109.5v643h93zM93 816l93 142h127l-140 -142h-80z" />
    <glyph glyph-name="lcaron.alt" horiz-adv-x="324" 
d="M178 778v-638q0 -43 16.5 -57.5t55.5 -14.5l39 2l3 -69q-34 -8 -74 -8q-74 0 -103.5 32.5t-29.5 109.5v643h93zM228 576l25 202h110l-83 -202h-52z" />
    <glyph glyph-name="lcommaaccent.alt" horiz-adv-x="324" 
d="M178 778v-638q0 -43 16.5 -57.5t55.5 -14.5l39 2l3 -69q-34 -8 -74 -8q-74 0 -103.5 32.5t-29.5 109.5v643h93zM150 -223l-18 35q59 22 67 56h-52v99h108v-47q0 -59 -20.5 -88t-84.5 -55z" />
    <glyph glyph-name="tcaron.alt" horiz-adv-x="353" 
d="M218 462v-462h-93v462h-110v73h110v145h93v-145h120v-73h-120zM287 576l25 202h110l-83 -202h-52z" />
    <glyph glyph-name="tcommaaccent.alt" horiz-adv-x="353" 
d="M218 462v-462h-93v462h-110v73h110v145h93v-145h120v-73h-120zM120 -223l-18 35q59 22 67 56h-52v99h108v-47q0 -59 -20.5 -88t-84.5 -55z" />
    <glyph glyph-name="tbar.alt" horiz-adv-x="353" 
d="M338 295h-120v-295h-93v295h-110v73h110v94h-110v73h110v145h93v-145h120v-73h-120v-94h120v-73z" />
    <glyph glyph-name="ldot.alt" horiz-adv-x="364" 
d="M178 778v-638q0 -43 16.5 -57.5t55.5 -14.5l39 2l3 -69q-34 -8 -74 -8q-74 0 -103.5 32.5t-29.5 109.5v643h93zM248 324v129h129v-129h-129z" />
    <glyph glyph-name="ae.alt" horiz-adv-x="989" 
d="M703 -15q-62 0 -100.5 26t-52.5 64v-75h-88v83q-54 -98 -171 -98q-106 0 -171 71.5t-65 205.5q0 77 26.5 140t85.5 105t143 42q101 0 152 -85v71h88v-71q54 85 165 85q116 0 172.5 -81t47.5 -220h-379q1 -82 45 -133.5t115 -51.5q87 0 136 73l76 -36q-65 -115 -225 -115z
M707 478q-66 0 -105 -46t-45 -110h284q-2 67 -35.5 111.5t-98.5 44.5zM307 66q79 0 120 55.5t41 148.5q0 91 -40 146.5t-114 55.5q-79 0 -119.5 -55.5t-40.5 -147.5q0 -95 37.5 -149t115.5 -54z" />
    <glyph glyph-name="aeacute.alt" horiz-adv-x="989" 
d="M703 -15q-62 0 -100.5 26t-52.5 64v-75h-88v83q-54 -98 -171 -98q-106 0 -171 71.5t-65 205.5q0 77 26.5 140t85.5 105t143 42q101 0 152 -85v71h88v-71q54 85 165 85q116 0 172.5 -81t47.5 -220h-379q1 -82 45 -133.5t115 -51.5q87 0 136 73l76 -36q-65 -115 -225 -115z
M707 478q-66 0 -105 -46t-45 -110h284q-2 67 -35.5 111.5t-98.5 44.5zM307 66q79 0 120 55.5t41 148.5q0 91 -40 146.5t-114 55.5q-79 0 -119.5 -55.5t-40.5 -147.5q0 -95 37.5 -149t115.5 -54zM472 611l96 167h123l-142 -167h-77z" />
    <glyph glyph-name="f_l.alt" horiz-adv-x="693" 
d="M30 462v73h91v104q0 71 40.5 107.5t107.5 36.5q17 0 35 -2.5t27 -4.5l9 -2l-5 -79q-32 8 -53 8q-42 0 -55 -21.5t-13 -64.5v-82h120v-73h-120v-462h-93v462h-91zM547 778v-638q0 -43 16.5 -57.5t55.5 -14.5l39 2l3 -69q-34 -8 -74 -8q-74 0 -103.5 32.5t-29.5 109.5v643
h93z" />
    <glyph glyph-name="lslash.alt" horiz-adv-x="324" 
d="M218 -7q-74 0 -103.5 32.5t-29.5 109.5v197l-73 -49v92l73 49v354h93v-292l83 56v-92l-83 -56v-254q0 -43 16.5 -57.5t55.5 -14.5l39 2l3 -69q-34 -8 -74 -8z" />
    <glyph glyph-name="comma.tab" horiz-adv-x="310" 
d="M80 -154l-14 47q43 13 64.5 37t21.5 70h-61v129h129v-112q0 -135 -140 -171z" />
    <glyph glyph-name="period.tab" horiz-adv-x="310" 
d="M90 0v129h129v-129h-129z" />
    <glyph glyph-name="colon.tab" horiz-adv-x="310" 
d="M90 356v129h129v-129h-129zM90 0v129h129v-129h-129z" />
    <glyph glyph-name="semicolon.tab" horiz-adv-x="310" 
d="M90 356v129h129v-129h-129zM97 -175l-27 42q39 22 57.5 51.5t18.5 81.5h-56v129h129v-112q0 -67 -28 -114t-94 -78z" />
    <glyph glyph-name="questiondown.uc" horiz-adv-x="525" 
d="M341 755v-129h-129v129h129zM321 551v-63q0 -59 -15 -87t-72 -75q-60 -50 -83 -83.5t-23 -80.5q0 -53 36.5 -83.5t99.5 -30.5q135 0 160 146l87 -14q-10 -96 -78.5 -153t-173.5 -57q-109 0 -168 52.5t-59 138.5q0 61 31.5 109.5t96.5 100.5q43 35 57.5 60.5t14.5 63.5v56
h89z" />
    <glyph glyph-name="exclamdown.uc" horiz-adv-x="287" 
d="M208 755v-129h-129v129h129zM177 550l15 -280v-293h-96v293l15 280h66z" />
    <glyph glyph-name="hyphen.uc" horiz-adv-x="450" 
d="M65 297v87h320v-87h-320z" />
    <glyph glyph-name="endash.uc" horiz-adv-x="530" 
d="M30 305v70h470v-70h-470z" />
    <glyph glyph-name="emdash.uc" horiz-adv-x="930" 
d="M30 305v70h870v-70h-870z" />
    <glyph glyph-name="at.uc" horiz-adv-x="1071" 
d="M515 -136q-200 0 -326 124.5t-126 327.5q0 220 142 359t357 139q207 0 326.5 -118t119.5 -291q0 -141 -70 -225.5t-164 -84.5q-115 0 -139 90h-4q-49 -84 -152 -84q-77 0 -122.5 52.5t-45.5 149.5q0 115 59.5 199t164.5 84q49 0 83 -20.5t49 -53.5h3l13 66h74l-44 -305
q-15 -114 72 -114q60 0 105.5 67.5t45.5 176.5q0 153 -105 251t-276 98q-183 0 -299 -122t-116 -306q0 -183 114 -290t278 -107q173 0 292 88l33 -48q-63 -51 -142.5 -77t-199.5 -26zM497 167q47 0 82 37t49.5 86.5t14.5 100.5q0 128 -100 128q-72 0 -109 -65t-37 -151
q0 -136 100 -136z" />
    <glyph glyph-name="slash.tab" horiz-adv-x="465" 
d="M0 -163l353 961h72l-352 -961h-73z" />
    <glyph glyph-name="slash.tabuc" horiz-adv-x="465" 
d="M15 -118l353 961h72l-352 -961h-73z" />
    <glyph glyph-name="slash.uc" horiz-adv-x="417" 
d="M5 -83l353 961h72l-352 -961h-73z" />
    <glyph glyph-name="backslash.uc" horiz-adv-x="417" 
d="M70 878l353 -961h-73l-352 961h72z" />
    <glyph glyph-name="bar.uc" horiz-adv-x="317" 
d="M125 -83v961h67v-961h-67z" />
    <glyph glyph-name="parenleft.tab" horiz-adv-x="465" 
d="M386 -163h-74q-23 33 -33.5 50t-36.5 68.5t-40 97t-26.5 117t-12.5 147.5q0 89 14 167t41 140.5t43 91.5t44 71q5 8 7 11h74q-23 -38 -39 -69.5t-41 -94.5t-39 -144.5t-14 -172.5q0 -261 133 -480z" />
    <glyph glyph-name="parenleft.tabuc" horiz-adv-x="465" 
d="M386 -118h-74q-23 33 -33.5 50t-36.5 68.5t-40 97t-26.5 117t-12.5 147.5q0 89 14 167t41 140.5t43 91.5t44 71q5 8 7 11h74q-23 -38 -39 -69.5t-41 -94.5t-39 -144.5t-14 -172.5q0 -261 133 -480z" />
    <glyph glyph-name="parenleft.uc" horiz-adv-x="320" 
d="M318 -118h-74q-23 33 -33.5 50t-36.5 68.5t-40 97t-26.5 117t-12.5 147.5q0 89 14 167t41 140.5t43 91.5t44 71q5 8 7 11h74q-23 -38 -39 -69.5t-41 -94.5t-39 -144.5t-14 -172.5q0 -261 133 -480z" />
    <glyph glyph-name="parenright.tab" horiz-adv-x="465" 
d="M99 798h74q23 -33 33.5 -50t36.5 -68.5t40 -97t26.5 -117t12.5 -147.5q0 -89 -14 -167t-41 -140.5t-43 -91.5t-44 -71q-5 -8 -7 -11h-74q23 38 39 69.5t41 94.5t39 144.5t14 172.5q0 261 -133 480z" />
    <glyph glyph-name="parenright.tabuc" horiz-adv-x="465" 
d="M99 843h74q23 -33 33.5 -50t36.5 -68.5t40 -97t26.5 -117t12.5 -147.5q0 -89 -14 -167t-41 -140.5t-43 -91.5t-44 -71q-5 -8 -7 -11h-74q23 38 39 69.5t41 94.5t39 144.5t14 172.5q0 261 -133 480z" />
    <glyph glyph-name="parenright.uc" horiz-adv-x="320" 
d="M22 843h74q23 -33 33.5 -50t36.5 -68.5t40 -97t26.5 -117t12.5 -147.5q0 -89 -14 -167t-41 -140.5t-43 -91.5t-44 -71q-5 -8 -7 -11h-74q23 38 39 69.5t41 94.5t39 144.5t14 172.5q0 261 -133 480z" />
    <glyph glyph-name="bracketleft.tab" horiz-adv-x="465" 
d="M191 -163v961h195v-57h-108v-847h108v-57h-195z" />
    <glyph glyph-name="bracketleft.tabuc" horiz-adv-x="465" 
d="M191 -118v961h195v-57h-108v-847h108v-57h-195z" />
    <glyph glyph-name="bracketleft.uc" horiz-adv-x="320" 
d="M110 -118v961h195v-57h-108v-847h108v-57h-195z" />
    <glyph glyph-name="bracketright.tab" horiz-adv-x="465" 
d="M294 798v-961h-195v57h108v847h-108v57h195z" />
    <glyph glyph-name="bracketright.tabuc" horiz-adv-x="465" 
d="M294 843v-961h-195v57h108v847h-108v57h195z" />
    <glyph glyph-name="bracketright.uc" horiz-adv-x="320" 
d="M230 843v-961h-195v57h108v847h-108v57h195z" />
    <glyph glyph-name="braceleft.uc" horiz-adv-x="335" 
d="M50 325v76h31q42 0 55 21t10 67l-14 203q-6 78 31 114.5t102 36.5h50v-62h-29q-41 0 -57 -19.5t-13 -69.5l12 -222q5 -87 -70 -106v-2q75 -19 70 -106l-12 -223q-3 -50 13 -69.5t57 -19.5h29v-62h-50q-65 0 -102 36.5t-31 114.5l14 204q3 46 -10 67t-55 21h-31z" />
    <glyph glyph-name="braceleft.tab" horiz-adv-x="465" 
d="M135 280v76h31q42 0 55 21t10 67l-14 203q-6 78 31 114.5t102 36.5h50v-62h-29q-41 0 -57 -19.5t-13 -69.5l12 -222q5 -87 -70 -106v-2q75 -19 70 -106l-12 -223q-3 -50 13 -69.5t57 -19.5h29v-62h-50q-65 0 -102 36.5t-31 114.5l14 204q3 46 -10 67t-55 21h-31z" />
    <glyph glyph-name="braceleft.tabuc" horiz-adv-x="465" 
d="M135 325v76h31q42 0 55 21t10 67l-14 203q-6 78 31 114.5t102 36.5h50v-62h-29q-41 0 -57 -19.5t-13 -69.5l12 -222q5 -87 -70 -106v-2q75 -19 70 -106l-12 -223q-3 -50 13 -69.5t57 -19.5h29v-62h-50q-65 0 -102 36.5t-31 114.5l14 204q3 46 -10 67t-55 21h-31z" />
    <glyph glyph-name="braceright.uc" horiz-adv-x="335" 
d="M295 399v-76h-31q-42 0 -55 -21t-10 -67l14 -203q6 -78 -31 -114.5t-102 -36.5h-50v62h29q41 0 57 19.5t13 69.5l-12 222q-5 87 70 106v2q-75 19 -70 106l12 223q3 50 -13 69.5t-57 19.5h-29v62h50q65 0 102 -36.5t31 -114.5l-14 -204q-3 -46 10 -67t55 -21h31z" />
    <glyph glyph-name="braceright.tab" horiz-adv-x="465" 
d="M355 354v-76h-31q-42 0 -55 -21t-10 -67l14 -203q6 -78 -31 -114.5t-102 -36.5h-50v62h29q41 0 57 19.5t13 69.5l-12 222q-5 87 70 106v2q-75 19 -70 106l12 223q3 50 -13 69.5t-57 19.5h-29v62h50q65 0 102 -36.5t31 -114.5l-14 -204q-3 -46 10 -67t55 -21h31z" />
    <glyph glyph-name="braceright.tabuc" horiz-adv-x="465" 
d="M355 399v-76h-31q-42 0 -55 -21t-10 -67l14 -203q6 -78 -31 -114.5t-102 -36.5h-50v62h29q41 0 57 19.5t13 69.5l-12 222q-5 87 70 106v2q-75 19 -70 106l12 223q3 50 -13 69.5t-57 19.5h-29v62h50q65 0 102 -36.5t31 -114.5l-14 -204q-3 -46 10 -67t55 -21h31z" />
    <glyph glyph-name="degree.old" horiz-adv-x="400" 
d="M50 565q0 64 43 107t107 43q65 0 107.5 -43t42.5 -107t-43.5 -106.5t-108.5 -42.5q-64 0 -106 42.5t-42 106.5zM109 565q0 -43 25 -70t65 -27q41 0 66.5 27t25.5 70t-25.5 70.5t-66.5 27.5q-40 0 -65 -27.5t-25 -70.5z" />
    <glyph glyph-name="numbersign.tab" 
d="M367 260l29 176h-145l-29 -176h145zM325 0l31 193h-145l-31 -193h-65l31 193h-119v67h130l29 176h-119v67h130l28 172h65l-28 -172h145l28 172h65l-28 -172h115v-67h-126l-29 -176h115v-67h-126l-31 -193h-65z" />
    <glyph glyph-name="percent.old" horiz-adv-x="855" 
d="M48 540q0 82 45.5 128.5t116.5 46.5q74 0 115 -44.5t41 -130.5q0 -83 -44.5 -129t-115.5 -46q-74 0 -116 45.5t-42 129.5zM165 0l450 700h74l-449 -700h-75zM206 661q-81 0 -81 -121t82 -121q80 0 80 121t-81 121zM489 161q0 82 45.5 128.5t116.5 46.5q74 0 115 -44.5
t41 -130.5q0 -83 -44.5 -129t-115.5 -46q-74 0 -116 45.5t-42 129.5zM647 282q-81 0 -81 -121t82 -121q80 0 80 121t-81 121z" />
    <glyph glyph-name="percent.tab" horiz-adv-x="775" 
d="M190 394q-75 0 -116.5 47.5t-41.5 136.5q0 87 45.5 135.5t116.5 48.5q74 0 115 -46.5t41 -137.5q0 -88 -44 -136t-116 -48zM177 0h-76l501 755h75zM191 449q80 0 80 129t-81 129t-81 -129t82 -129zM583 -14q-75 0 -116.5 48.5t-41.5 139.5q0 88 45.5 138t116.5 50
q74 0 115 -47.5t41 -140.5q0 -90 -44 -139t-116 -49zM584 42q80 0 80 132t-81 132t-81 -132t82 -132z" />
    <glyph glyph-name="percent.tabold" horiz-adv-x="775" 
d="M32 540q0 82 45 128.5t114 46.5q72 0 112.5 -44.5t40.5 -130.5q0 -83 -43.5 -129t-113.5 -46q-73 0 -114 45.5t-41 129.5zM123 0l456 700h73l-455 -700h-74zM187 661q-79 0 -79 -121t80 -121q78 0 78 121t-79 121zM431 161q0 82 45 128.5t114 46.5q72 0 112.5 -44.5
t40.5 -130.5q0 -83 -43.5 -129t-113.5 -46q-73 0 -114 45.5t-41 129.5zM586 282q-79 0 -79 -121t80 -121q78 0 78 121t-79 121z" />
    <glyph glyph-name="perthousand.old" horiz-adv-x="1230" 
d="M48 540q0 82 45.5 128.5t116.5 46.5q74 0 115 -44.5t41 -130.5q0 -83 -44.5 -129t-115.5 -46q-74 0 -116 45.5t-42 129.5zM165 0l450 700h74l-449 -700h-75zM206 661q-81 0 -81 -121t82 -121q80 0 80 121t-81 121zM864 161q0 82 45.5 128.5t116.5 46.5q74 0 115 -44.5
t41 -130.5q0 -83 -44.5 -129t-115.5 -46q-74 0 -116 45.5t-42 129.5zM489 161q0 82 45.5 128.5t116.5 46.5q74 0 115 -44.5t41 -130.5q0 -83 -44.5 -129t-115.5 -46q-74 0 -116 45.5t-42 129.5zM1022 282q-81 0 -81 -121t82 -121q80 0 80 121t-81 121zM647 282
q-81 0 -81 -121t82 -121q80 0 80 121t-81 121z" />
    <glyph glyph-name="perthousand.tab" horiz-adv-x="1240" 
d="M212 390q-75 0 -116.5 48.5t-41.5 139.5q0 88 45.5 138t116.5 50q74 0 115 -47.5t41 -140.5q0 -90 -44 -139t-116 -49zM220 0h-75l486 755h74zM213 446q80 0 80 132t-81 132t-81 -132t82 -132zM632 -14q-75 0 -116.5 48.5t-41.5 139.5q0 88 45.5 138t116.5 50
q74 0 115 -47.5t41 -140.5q0 -90 -44 -139t-116 -49zM1025 -14q-75 0 -116.5 48.5t-41.5 139.5q0 88 45.5 138t116.5 50q74 0 115 -47.5t41 -140.5q0 -90 -44 -139t-116 -49zM633 42q80 0 80 132t-81 132t-81 -132t82 -132zM1026 42q80 0 80 132t-81 132t-81 -132t82 -132z
" />
    <glyph glyph-name="perthousand.tabold" horiz-adv-x="1240" 
d="M59 540q0 82 45 128.5t114 46.5q72 0 112.5 -44.5t40.5 -130.5q0 -83 -43.5 -129t-113.5 -46q-73 0 -114 45.5t-41 129.5zM155 0l456 700h73l-455 -700h-74zM135 540q0 -121 80 -121q78 0 78 121t-79 121t-79 -121zM863 161q0 82 45 128.5t114 46.5q72 0 112.5 -44.5
t40.5 -130.5q0 -83 -43.5 -129t-113.5 -46q-73 0 -114 45.5t-41 129.5zM468 161q0 82 45 128.5t114 46.5q72 0 112.5 -44.5t40.5 -130.5q0 -83 -43.5 -129t-113.5 -46q-73 0 -114 45.5t-41 129.5zM1018 282q-79 0 -79 -121t80 -121q78 0 78 121t-79 121zM623 282
q-79 0 -79 -121t80 -121q78 0 78 121t-79 121z" />
    <glyph glyph-name="ordfeminine.old" horiz-adv-x="453" 
d="M195 353q58 0 86 40t28 82v9q-29 3 -61 3q-116 0 -116 -73q0 -28 17 -44.5t46 -16.5zM189 291q-64 0 -101.5 33t-37.5 91q0 62 53.5 95t141.5 33l64 -3v9q0 103 -89 103q-61 0 -87 -67l-68 22q33 107 163 107q75 0 115.5 -37t40.5 -129v-140l4 -106h-75l-4 61
q-44 -72 -120 -72z" />
    <glyph glyph-name="ordmasculine.old" horiz-adv-x="486" 
d="M239 291q-90 0 -137 55.5t-47 156.5q0 99 49.5 155t140.5 56q90 0 138 -55.5t48 -155.5q0 -98 -50.5 -155t-141.5 -57zM243 354q53 0 80.5 40.5t27.5 108.5q0 67 -28.5 107.5t-81.5 40.5t-79.5 -40t-26.5 -108t27.5 -108.5t80.5 -40.5z" />
    <glyph glyph-name="guilsinglright.uc" horiz-adv-x="310" 
d="M140 102h-85l117 202l-117 205h87l123 -204z" />
    <glyph glyph-name="guilsinglleft.uc" horiz-adv-x="310" 
d="M170 509h85l-117 -202l117 -205h-87l-123 204z" />
    <glyph glyph-name="guillemotleft.uc" horiz-adv-x="490" 
d="M350 509h85l-117 -202l117 -205h-87l-123 204zM170 509h85l-117 -202l117 -205h-87l-123 204z" />
    <glyph glyph-name="guillemotright.uc" horiz-adv-x="490" 
d="M320 102h-85l117 202l-117 205h87l123 -204zM140 102h-85l117 202l-117 205h87l123 -204z" />
    <glyph glyph-name="minus.tab" 
d="M75 292v68h470v-68h-470z" />
    <glyph glyph-name="plus.tab" 
d="M75 292v68h199v204h72v-204h199v-68h-199v-208h-72v208h-199z" />
    <glyph glyph-name="multiply.tab" 
d="M124 86l-51 52l185 185l-185 186l51 52l185 -187l185 187l52 -52l-186 -186l186 -185l-52 -52l-185 186z" />
    <glyph glyph-name="less.tab" 
d="M545 48l-470 225v57l470 225v-77l-371 -175l371 -174v-81z" />
    <glyph glyph-name="equal.tab" 
d="M75 377v68h470v-68h-470zM75 207v68h470v-68h-470z" />
    <glyph glyph-name="greater.tab" 
d="M75 556l470 -225v-57l-470 -225v77l371 175l-371 174v81z" />
    <glyph glyph-name="plusminus.tab" 
d="M75 337v68h199v179h72v-179h199v-68h-199v-183h-72v183h-199zM75 0v68h470v-68h-470z" />
    <glyph glyph-name="lessequal.tab" 
d="M545 138l-470 205v57l470 205v-77l-366 -155l366 -154v-81zM75 0v68h470v-68h-470z" />
    <glyph glyph-name="notequal.tab" 
d="M545 207h-258l-62 -121h-76l62 121h-136v68h171l52 102h-223v68h258l61 118h76l-61 -118h136v-68h-171l-52 -102h223v-68z" />
    <glyph glyph-name="greaterequal.tab" 
d="M75 606l470 -205v-57l-470 -205v77l366 155l-366 154v81zM75 0v68h470v-68h-470z" />
    <glyph glyph-name="divide.tab" 
d="M261 453v98h98v-98h-98zM75 292v68h470v-68h-470zM261 101v98h98v-98h-98z" />
    <glyph glyph-name="approxequal.tab" 
d="M77 352q0 55 34.5 93t97.5 38q46 0 112 -31t93 -31q53 0 67 64h61q0 -55 -36 -93t-96 -38q-47 0 -113 30.5t-93 30.5q-59 0 -66 -63h-61zM77 182q0 55 34.5 93t97.5 38q46 0 112 -30.5t93 -30.5q53 0 67 63h61q0 -54 -35.5 -92.5t-91.5 -38.5q-50 0 -117 31t-94 31
q-59 0 -66 -64h-61z" />
    <glyph glyph-name="acute.uc" horiz-adv-x="500" 
d="M140 806l93 142h127l-140 -142h-80z" />
    <glyph glyph-name="breve.uc" horiz-adv-x="500" 
d="M249 812q-61 0 -104.5 36t-53.5 103h60q19 -68 99 -68q76 0 100 68h54q-7 -64 -51 -101.5t-104 -37.5z" />
    <glyph glyph-name="caron.uc" horiz-adv-x="494" 
d="M397 945v-79l-151 -82l-149 82v81l154 -75z" />
    <glyph glyph-name="circumflex.uc" horiz-adv-x="494" 
d="M97 795v78l151 82l149 -82v-81l-154 75z" />
    <glyph glyph-name="dieresis.uc" horiz-adv-x="500" 
d="M309 826v101h99v-101h-99zM92 826v101h99v-101h-99z" />
    <glyph glyph-name="dotaccent.uc" horiz-adv-x="501" 
d="M202 834v99h97v-99h-97z" />
    <glyph glyph-name="hungarumlaut.uc" horiz-adv-x="500" 
d="M54 806l81 142h109l-115 -142h-75zM241 806l81 142h110l-115 -142h-76z" />
    <glyph glyph-name="grave.uc" horiz-adv-x="500" 
d="M267 948l93 -142h-80l-140 142h127z" />
    <glyph glyph-name="macron.uc" horiz-adv-x="500" 
d="M80 826v75h334v-75h-334z" />
    <glyph glyph-name="tilde.uc" horiz-adv-x="500" 
d="M136 817h-67q0 57 27.5 95.5t74.5 38.5q40 0 91 -28.5t69 -28.5q44 0 44 61h67q-3 -133 -108 -133q-38 0 -86.5 28.5t-66.5 28.5q-45 0 -45 -62z" />
    <glyph glyph-name="commaaccent" horiz-adv-x="500" 
d="M220 -223l-18 35q59 22 67 56h-52v99h108v-47q0 -59 -20.5 -88t-84.5 -55z" />
    <glyph glyph-name="ring.uc" horiz-adv-x="500" 
d="M128 906q0 50 35.5 85t86.5 35t86.5 -35t35.5 -85t-35.5 -85t-86.5 -35t-86.5 35t-35.5 85zM177 906q0 -31 21.5 -53t51.5 -22q29 0 50 22t21 53q0 30 -21 51.5t-50 21.5q-30 0 -51.5 -21t-21.5 -52z" />
    <glyph glyph-name="caron.alt" horiz-adv-x="500" 
d="M134 576l25 202h110l-83 -202h-52z" />
    <glyph glyph-name="zero.tabzero" 
d="M53 375q0 203 65.5 297t193.5 94q130 0 192.5 -92t62.5 -299q0 -390 -256 -390q-133 0 -195.5 90t-62.5 300zM149 375q0 -56 5 -109l294 311q-35 110 -138 110q-86 0 -123.5 -71.5t-37.5 -240.5zM312 64q84 0 121.5 71t37.5 240q0 62 -4 102l-294 -307q34 -106 139 -106z
" />
    <glyph glyph-name="zero.tab" 
d="M53 375q0 203 65.5 297t193.5 94q130 0 192.5 -92t62.5 -299q0 -390 -256 -390q-133 0 -195.5 90t-62.5 300zM465 375q0 166 -36 239t-119 73t-119 -71.5t-36 -240.5q0 -167 36.5 -239t120.5 -72q81 0 117 70.5t36 240.5z" />
    <glyph glyph-name="one.tab" 
d="M562 0h-452v80h190v556l-167 -117l-44 67l233 169h72v-675h168v-80z" />
    <glyph glyph-name="two.tab" 
d="M171 523l-88 9l1 15q6 93 68 156t173 63q113 0 168.5 -58t55.5 -139q0 -35 -4.5 -62t-23 -61.5t-38 -61.5t-67.5 -78.5t-92.5 -95t-131.5 -127.5v-3h370v-80h-492v83q240 232 290 288q73 81 86 139q5 23 5 54q0 58 -33.5 90t-92.5 32q-140 0 -152 -145z" />
    <glyph glyph-name="three.tab" 
d="M310 63q66 0 109 38t43 104q0 68 -42 107.5t-128 39.5h-54v80h59q66 0 105 36t39 95q0 56 -35.5 90t-98.5 34q-129 0 -145 -147l-90 10q5 93 70 154.5t170 61.5q112 0 169.5 -55t57.5 -144q0 -59 -34 -102.5t-98 -65.5v-4q71 -16 112 -62.5t41 -121.5q0 -98 -69 -162
t-188 -64q-108 0 -171 54t-78 151l91 15q17 -71 56.5 -106.5t108.5 -35.5z" />
    <glyph glyph-name="four.tab" 
d="M474 0h-92v194h-324v73l317 488h99v-482h101v-79h-101v-194zM153 272h229v359h-7q-10 -24 -44 -78z" />
    <glyph glyph-name="five.tab" 
d="M299 -15q-214 0 -243 205l92 12q15 -77 55.5 -109t104.5 -32t108.5 44t44.5 135q0 86 -43.5 131.5t-114.5 45.5q-52 0 -84.5 -19.5t-58.5 -58.5l-74 16l35 400h409v-83h-335l-20 -240h2q55 68 154 68q93 0 159.5 -64t66.5 -185q0 -126 -66 -196t-192 -70z" />
    <glyph glyph-name="six.tab" 
d="M557 604l-89 -25q-34 110 -135 110q-178 0 -181 -314h2q58 114 200 114q95 0 155.5 -63t60.5 -182q0 -106 -68 -182.5t-181 -76.5q-266 0 -266 361q0 206 72.5 313t208.5 107q171 0 221 -162zM475 236q0 81 -41.5 127t-113.5 46q-71 0 -114 -46.5t-43 -126.5
q0 -84 45.5 -129.5t117.5 -45.5q61 0 105 46.5t44 128.5z" />
    <glyph glyph-name="seven.tab" 
d="M155 0l321 672h-416v83h512v-80l-315 -675h-102z" />
    <glyph glyph-name="eight.tab" 
d="M312 766q110 0 171 -55t61 -143q0 -122 -110 -172v-2q135 -52 135 -195q0 -95 -69 -154.5t-193 -59.5q-121 0 -188.5 59t-67.5 156q0 139 134 194v2q-109 49 -109 172q0 87 63 142.5t173 55.5zM172 559q0 -64 38.5 -97t99.5 -33t99.5 34t38.5 96q0 66 -38.5 99t-99.5 33
q-63 0 -100.5 -34t-37.5 -98zM470 208q0 68 -44 108.5t-116 40.5q-70 0 -115 -41t-45 -108t44.5 -107.5t115.5 -40.5q72 0 116 40t44 108z" />
    <glyph glyph-name="nine.tab" 
d="M147 520q0 -79 42.5 -124t114.5 -45q68 0 110.5 44.5t42.5 127.5q0 76 -44 121t-110 45q-67 0 -111.5 -43t-44.5 -126zM56 162l89 12q30 -115 147 -115q92 0 135 81t44 240h-3q-57 -109 -186 -109q-101 0 -166 64t-65 185q0 101 69 173.5t190 72.5q116 0 186.5 -82
t70.5 -269q0 -218 -65.5 -324t-213.5 -106q-99 0 -160 47.5t-72 129.5z" />
    <glyph glyph-name="zero.oldzero" horiz-adv-x="650" 
d="M66 348q0 181 69 271.5t193 90.5q114 0 184.5 -90t70.5 -272q0 -181 -68.5 -271.5t-191.5 -90.5q-120 0 -188.5 90.5t-68.5 271.5zM159 348q0 -63 8 -116l294 309q-40 93 -136 93q-83 0 -124.5 -68t-41.5 -218zM326 62q81 0 122.5 67t41.5 219q0 64 -7 107l-292 -306
q39 -87 135 -87z" />
    <glyph glyph-name="zero.old" horiz-adv-x="650" 
d="M66 348q0 181 69 271.5t193 90.5q112 0 183.5 -90.5t71.5 -271.5t-68.5 -271.5t-191.5 -90.5q-120 0 -188.5 91.5t-68.5 270.5zM325 634q-80 0 -120 -68t-40 -218q0 -151 40 -218.5t121 -67.5q78 0 118 67t40 219q0 149 -40 217.5t-119 68.5z" />
    <glyph glyph-name="one.old" horiz-adv-x="412" 
d="M291 0h-90v588l-130 -87l-40 64l192 135h68v-700z" />
    <glyph glyph-name="two.old" horiz-adv-x="578" 
d="M155 491l-87 5q7 95 66 155.5t167 60.5q107 0 161 -55.5t54 -132.5q0 -94 -53 -159.5t-255 -244.5q-26 -24 -40 -36v-4h353v-80h-471v81q261 234 316 297t55 137q0 55 -33.5 87.5t-90.5 32.5q-68 0 -101.5 -35t-40.5 -109z" />
    <glyph glyph-name="three.old" horiz-adv-x="595" 
d="M296 60q62 0 103 37.5t41 99.5q0 58 -38.5 93t-111.5 35h-64v78h62q55 0 91 31t36 92q0 50 -32.5 79.5t-90.5 29.5q-61 0 -95 -32t-47 -102l-85 11q15 92 72.5 146t156.5 54q102 0 159 -52.5t57 -133.5q0 -112 -120 -155v-4q145 -30 145 -173q0 -89 -66.5 -148.5
t-179.5 -59.5q-106 0 -166 51.5t-71 138.5l87 14q32 -130 157 -130z" />
    <glyph glyph-name="four.old" horiz-adv-x="569" 
d="M431 0h-87v178h-319v70l298 452h108v-444h106v-78h-106v-178zM113 255h231v346h-7q-28 -55 -75 -125z" />
    <glyph glyph-name="five.old" horiz-adv-x="603" 
d="M288 -14q-106 0 -165 55t-72 135l88 13q30 -128 155 -128q66 0 109 42t43 125q0 73 -42 116.5t-110 43.5q-95 0 -146 -73l-74 30l63 355h372v-82h-306l-38 -216h1q49 61 150 61q92 0 157.5 -57t65.5 -169q0 -115 -66 -183t-185 -68z" />
    <glyph glyph-name="six.old" horiz-adv-x="617" 
d="M552 546l-92 -12q-31 103 -125 103q-85 0 -128.5 -73t-45.5 -206h3q57 97 177 97q93 0 157 -59.5t64 -169.5q0 -98 -66 -169t-173 -71q-257 0 -257 345q0 178 70.5 278.5t198.5 100.5q89 0 144 -43t73 -121zM468 220q0 71 -40.5 112.5t-107.5 41.5q-64 0 -105 -42
t-41 -112q0 -76 42.5 -116.5t109.5 -40.5q58 0 100 41t42 116z" />
    <glyph glyph-name="seven.old" horiz-adv-x="524" 
d="M88 0l307 618h-361v82h458v-77l-308 -623h-96z" />
    <glyph glyph-name="eight.old" horiz-adv-x="608" 
d="M305 710q103 0 162 -54t59 -130q0 -109 -109 -161v-2q59 -18 96 -60t37 -113q0 -87 -68 -145.5t-178 -58.5q-116 0 -181 55.5t-65 148.5q0 66 39.5 110.5t94.5 62.5v2q-110 47 -110 161q0 76 60 130t163 54zM176 519q0 -58 36 -88.5t92 -30.5q57 0 92.5 31t35.5 88
q0 58 -36 89.5t-92 31.5q-58 0 -93 -32t-35 -89zM453 193q0 61 -42 98t-107 37q-64 0 -106.5 -37.5t-42.5 -97.5q0 -61 42.5 -98t106.5 -37q66 0 107.5 36.5t41.5 98.5z" />
    <glyph glyph-name="nine.old" horiz-adv-x="616" 
d="M150 479q0 -71 40.5 -111.5t107.5 -40.5q63 0 103.5 41.5t40.5 110.5q0 73 -39 114t-105 41q-62 0 -105 -40t-43 -115zM63 153l89 8q17 -53 48 -77.5t84 -24.5q86 0 126 70t46 221h-3q-24 -48 -70 -74.5t-102 -26.5q-97 0 -161.5 59.5t-64.5 171.5q0 93 66.5 161.5
t177.5 68.5q112 0 181 -78.5t69 -249.5q0 -196 -62.5 -296t-204.5 -100q-98 0 -152 45.5t-67 121.5z" />
    <glyph glyph-name="zero.taboldzero" 
d="M53 348q0 180 69 271t192 91q113 0 183 -90t70 -272t-67.5 -272t-190.5 -90q-120 0 -188 90.5t-68 271.5zM146 348q0 -62 8 -115l291 307q-38 94 -134 94q-82 0 -123.5 -68t-41.5 -218zM312 62q80 0 121 67t41 219q0 60 -6 105l-291 -303q40 -88 135 -88z" />
    <glyph glyph-name="zero.tabold" 
d="M53 348q0 180 66.5 271t192.5 91q128 0 191.5 -88.5t63.5 -273.5q0 -178 -67.5 -270t-188.5 -92q-258 0 -258 362zM465 348q0 151 -36.5 218.5t-118.5 67.5t-118.5 -67.5t-36.5 -218.5q0 -153 36.5 -219.5t120.5 -66.5q81 0 117 66t36 220z" />
    <glyph glyph-name="one.tabold" 
d="M560 0h-448v80h190v512l-164 -103l-41 67l227 144h68v-620h168v-80z" />
    <glyph glyph-name="two.tabold" 
d="M167 491l-87 5q9 97 67 156.5t168 59.5q106 0 161.5 -55.5t55.5 -132.5q0 -27 -2.5 -48t-13.5 -46t-19 -41.5t-34.5 -46.5t-44 -48t-62.5 -59.5t-75 -67t-96 -83.5v-4h362v-80h-483v81q238 208 292 265q68 71 78 128q3 18 3 41q0 55 -32 87.5t-90 32.5
q-74 0 -106.5 -35.5t-41.5 -108.5z" />
    <glyph glyph-name="three.tabold" 
d="M310 61q65 0 108.5 36.5t43.5 96.5q0 61 -41 96t-123 35h-60v78h60q68 0 106 29.5t38 87.5q0 54 -33.5 84.5t-95.5 30.5q-134 0 -150 -134l-87 10q9 90 70.5 145.5t165.5 55.5q110 0 167 -52t57 -128q0 -126 -129 -161v-4q150 -29 150 -178q0 -86 -68 -144.5t-186 -58.5
q-206 0 -245 190l88 12q17 -67 57 -97t107 -30z" />
    <glyph glyph-name="four.tabold" 
d="M474 180v-180h-88v180h-328v68l317 452h99v-444h101v-76h-101zM315 484l-158 -229h229v333h-7q-21 -42 -64 -104z" />
    <glyph glyph-name="five.tabold" 
d="M301 -14q-105 0 -167 50.5t-78 139.5l89 12q29 -127 156 -127q69 0 115 45t46 123q0 74 -41 116.5t-112 42.5q-54 0 -86.5 -18.5t-59.5 -55.5l-78 24l36 362h409v-82h-335l-20 -218h2q59 63 159 63q92 0 156.5 -58t64.5 -169q0 -114 -65 -182t-191 -68z" />
    <glyph glyph-name="six.tabold" 
d="M556 546l-92 -12q-17 54 -47 78.5t-81 24.5q-94 0 -136.5 -71.5t-44.5 -207.5h2q57 97 193 97q92 0 154.5 -59.5t62.5 -169.5q0 -99 -66 -169.5t-178 -70.5q-265 0 -265 345q0 179 71.5 279t205.5 100q184 0 221 -164zM473 220q0 72 -39.5 113.5t-113.5 41.5
q-70 0 -112.5 -42t-42.5 -113q0 -76 44.5 -116.5t116.5 -40.5q62 0 104.5 41t42.5 116z" />
    <glyph glyph-name="seven.tabold" 
d="M141 0l325 618h-398v82h492v-77l-328 -623h-91z" />
    <glyph glyph-name="eight.tabold" 
d="M307 -14q-121 0 -187.5 55.5t-66.5 148.5q0 66 38.5 110.5t93.5 62.5v2q-107 47 -107 161q0 76 63 130t171 54t169 -53.5t61 -130.5q0 -110 -108 -161v-2q58 -18 95.5 -60.5t37.5 -112.5q0 -89 -68.5 -146.5t-191.5 -57.5zM172 519q0 -58 39 -88.5t99 -30.5q61 0 99.5 31
t38.5 88q0 58 -39 89.5t-99 31.5q-63 0 -100.5 -32t-37.5 -89zM470 193q0 61 -44 98t-116 37q-70 0 -115 -37t-45 -98t44.5 -98t115.5 -37q72 0 116 36.5t44 98.5z" />
    <glyph glyph-name="nine.tabold" 
d="M150 479q0 -71 41 -111.5t113 -40.5q69 0 111 41t42 111q0 72 -44 113.5t-108 41.5q-67 0 -111 -39.5t-44 -115.5zM61 153l87 8q31 -101 144 -101q91 0 133 72t46 220h-3q-53 -103 -179 -103q-104 0 -168.5 60.5t-64.5 173.5q0 95 67.5 161t188.5 66q113 0 182.5 -78.5
t69.5 -249.5q0 -396 -276 -396q-94 0 -154.5 47t-72.5 120z" />
    <glyph glyph-name="zero.num" horiz-adv-x="446" 
d="M58 544q0 109 43 163.5t123 54.5q75 0 119.5 -54t44.5 -164q0 -109 -43.5 -163.5t-122.5 -54.5q-78 0 -121 54.5t-43 163.5zM223 703q-44 0 -65.5 -37t-21.5 -122t21.5 -122t65.5 -37t65.5 36.5t21.5 122.5q0 84 -21.5 121.5t-65.5 37.5z" />
    <glyph glyph-name="one.num" horiz-adv-x="307" 
d="M218 335h-71v333l-85 -51l-31 52l135 87h52v-421z" />
    <glyph glyph-name="two.num" horiz-adv-x="406" 
d="M126 620l-69 4q2 59 40.5 99t108.5 40q68 0 103.5 -33.5t35.5 -84.5q0 -56 -34.5 -96.5t-163.5 -149.5v-2h201v-62h-300v57q165 145 189 171q33 40 34 73q0 32 -17.5 50t-48.5 18q-74 0 -79 -84z" />
    <glyph glyph-name="three.num" horiz-adv-x="419" 
d="M206 383q39 0 61 19.5t22 53.5q0 66 -83 66h-46v59h44q74 0 74 62q0 30 -19.5 46t-51.5 16q-68 0 -81 -74l-65 8q6 55 45 89.5t102 34.5q68 0 104 -31t36 -79q0 -72 -73 -95v-2q87 -17 87 -101q0 -55 -44 -92t-112 -37q-69 0 -109 34t-46 89l69 8q13 -74 86 -74z" />
    <glyph glyph-name="four.num" horiz-adv-x="406" 
d="M304 335h-67v99h-201v47l181 274h87v-262h64v-59h-64v-99zM109 492h128v207h-4q-17 -46 -63 -115z" />
    <glyph glyph-name="five.num" horiz-adv-x="427" 
d="M209 327q-67 0 -105 34t-46 83l69 9q15 -69 83 -69q85 0 85 88q0 38 -23 60.5t-61 22.5q-49 0 -78 -37l-60 20l37 217h237v-63h-189l-18 -112h3q36 32 85 32q59 0 98.5 -35t39.5 -101q0 -68 -42.5 -108.5t-114.5 -40.5z" />
    <glyph glyph-name="six.num" horiz-adv-x="431" 
d="M368 659l-71 -10q-11 57 -71 57q-46 0 -69 -34t-26 -115h2q38 51 107 51q56 0 95 -35t39 -101q0 -60 -42 -103t-111 -43q-76 0 -119.5 50.5t-43.5 154.5q0 113 44 172t129 59q55 0 91.5 -29.5t45.5 -73.5zM305 468q0 40 -23.5 63.5t-61.5 23.5t-60 -23.5t-22 -63.5
q0 -41 23.5 -64t61.5 -23q34 0 58 23.5t24 63.5z" />
    <glyph glyph-name="seven.num" horiz-adv-x="371" 
d="M73 335l180 357h-212v63h289v-54l-180 -366h-77z" />
    <glyph glyph-name="eight.num" horiz-adv-x="421" 
d="M211 763q66 0 105.5 -32t39.5 -81q0 -64 -63 -96v-1q77 -24 77 -102q0 -55 -44 -90t-116 -35q-75 0 -117 33.5t-42 90.5q0 39 22.5 65.5t55.5 37.5v1q-64 30 -64 95q0 49 40 81.5t106 32.5zM138 644q0 -31 19.5 -47.5t53.5 -16.5t53.5 17t19.5 47q0 65 -73 65
q-35 0 -54 -17t-19 -48zM295 455q0 33 -22 52.5t-62 19.5t-62 -19.5t-22 -52.5q0 -34 22 -53.5t62 -19.5t62 19.5t22 53.5z" />
    <glyph glyph-name="nine.num" horiz-adv-x="428" 
d="M125 621q0 -38 22.5 -61t59.5 -23q36 0 59 23t23 61q0 40 -22 62.5t-60 22.5q-35 0 -58.5 -22.5t-23.5 -62.5zM52 430l69 10q18 -57 76 -57q48 0 70.5 33.5t27.5 117.5h-2q-31 -51 -100 -51q-61 0 -100.5 36t-39.5 102q0 57 43.5 99t112.5 42q72 0 116 -49.5t44 -150.5
q0 -236 -172 -236q-59 0 -98 28.5t-47 75.5z" />
    <glyph glyph-name="Euro.tab" 
d="M577 171q-25 -95 -86 -140.5t-143 -45.5q-114 0 -174.5 66t-76.5 210h-72v64h68q-1 16 -1 50q0 35 1 51h-68v64h74q35 276 253 276q89 0 142 -42t79 -126l-89 -29q-20 60 -53 89t-86 29q-66 0 -102.5 -46.5t-48.5 -150.5h230v-64h-234q-1 -16 -1 -51q0 -34 1 -50h234v-64
h-229q12 -107 50.5 -152t104.5 -45q110 0 147 131z" />
    <glyph glyph-name="dollar.tab" 
d="M163 571q0 -56 29 -82.5t91 -42.5v245q-62 -6 -91 -39t-29 -81zM473 207q0 103 -130 132v-275q61 7 95.5 44t34.5 99zM343 -142h-60v128q-205 11 -242 213l86 21q19 -76 55.5 -113t100.5 -44v290l-15 3q-40 9 -71.5 22.5t-61.5 36t-46.5 59.5t-16.5 85q0 84 56.5 140
t154.5 65v101h60v-100q163 -12 215 -169l-83 -23q-39 103 -132 117v-258l16 -4q112 -28 159.5 -78t47.5 -136q0 -92 -62.5 -154.5t-160.5 -72.5v-129z" />
    <glyph glyph-name="uni20B9.tab" 
d="M247 260l215 -260h-116l-212 255h-39v77h87q158 0 177 132h-264v77h264q-10 68 -57.5 102.5t-124.5 34.5h-82v77h446v-79h-164v-1q67 -50 78 -134h86v-77h-87q-12 -80 -67 -134t-140 -69v-1z" />
    <glyph glyph-name="uni20BA.tab" 
d="M234 0h-110v289l-70 -23v67l70 24v86l-70 -23v68l70 23v244h95v-212l219 72v-67l-219 -73v-87l219 74v-69l-219 -72v-242h24q106 0 164.5 49.5t82.5 166.5l84 -18q-27 -143 -111.5 -210t-228.5 -67z" />
    <glyph glyph-name="cent.tab" 
d="M558 122q-62 -126 -198 -136v-128h-60v129q-108 10 -163 83.5t-55 186.5t56 194t162 95v140h60v-137q78 -5 123.5 -42t66.5 -87l-85 -36q-11 22 -21 37t-32.5 31.5t-51.5 21.5v-414q81 10 123 95zM176 269q0 -82 31.5 -137t92.5 -69v409q-58 -14 -91 -70.5t-33 -132.5z
" />
    <glyph glyph-name="sterling.tab" 
d="M561 86v-86h-505v75q149 5 118 202l-9 58h-89v65h79l-17 108q-18 113 37.5 185.5t175.5 72.5q180 0 212 -183l-89 -17q-15 65 -42.5 94.5t-84.5 29.5q-74 0 -101 -49t-11 -149l15 -92h210v-65h-200l8 -48q12 -75 -2.5 -120t-55.5 -78v-3h351z" />
    <glyph glyph-name="yen.tab" 
d="M563 141h-201v-141h-92v141h-212v64h212v101h-212v64h202l-209 385h101l166 -329l158 329h94l-200 -385h193v-64h-201v-101h201v-64z" />
    <glyph glyph-name="florin.tab" 
d="M484 462h-149l-59 -625h-88l59 625h-122v73h129l7 78q16 170 168 170q17 0 34.5 -2.5t26.5 -5.5l9 -3l-5 -79q-31 10 -59 10q-44 0 -62.5 -25.5t-24.5 -80.5l-6 -62h142v-73z" />
    <glyph glyph-name="Euro.old" horiz-adv-x="644" 
d="M598 159q-25 -90 -85 -131.5t-139 -41.5q-110 0 -173 62.5t-80 192.5h-81v62h76q-1 14 -1 45t1 45h-76v62h83q20 127 88 191t168 64q89 0 139.5 -39t75.5 -118l-83 -27q-22 57 -54.5 84t-83.5 27q-129 0 -156 -182h219v-62h-225q-1 -15 -1 -47q0 -30 1 -43h225v-62h-219
q25 -181 159 -181q105 0 140 122z" />
    <glyph glyph-name="dollar.old" horiz-adv-x="611" 
d="M163 528q0 -52 27.5 -76.5t85.5 -37.5v224q-58 -6 -85.5 -35.5t-27.5 -74.5zM459 193q0 95 -124 121v-253q58 6 91 40t33 92zM335 -132h-59v119q-195 12 -231 197l85 20q18 -71 52 -104.5t94 -39.5v266l-29 6q-174 37 -175 184q-1 77 53.5 130t150.5 62v104h59v-103
q159 -9 203 -156l-80 -22q-19 49 -48 74.5t-75 31.5v-237l23 -5q101 -22 147 -69.5t46 -126.5q0 -85 -60.5 -143.5t-155.5 -67.5v-120z" />
    <glyph glyph-name="uni20B9.old" horiz-adv-x="630" 
d="M248 236l180 -236h-108l-177 231h-57v75h97q156 0 176 120h-273v77h274q-10 61 -58 92t-124 31h-92v73h476v-75h-177v-1q60 -52 70 -120h107v-77h-108q-13 -74 -67.5 -124t-138.5 -65v-1z" />
    <glyph glyph-name="uni20BA.old" horiz-adv-x="666" 
d="M253 0h-109v233l-79 -26v65l79 26v95l-79 -27v66l79 26v242h91v-211l227 76v-65l-227 -77v-94l228 76v-65l-228 -76v-188h28q114 0 177.5 49.5t88.5 166.5l82 -13q-28 -144 -117 -211.5t-241 -67.5z" />
    <glyph glyph-name="sterling.old" horiz-adv-x="624" 
d="M560 82v-82h-498v74q140 3 111 181l-9 54h-83v64h73l-15 92q-17 107 41.5 176t173.5 69q86 0 140.5 -42t67.5 -128l-88 -15q-27 112 -128 112q-139 0 -109 -181l14 -83h195v-64h-185l7 -43q11 -68 -4.5 -109t-55.5 -72v-3h352z" />
    <glyph glyph-name="yen.old" horiz-adv-x="617" 
d="M560 130h-201v-130h-89v130h-213v62h213v90h-213v62h202l-209 356h98l168 -303l160 303h91l-199 -356h192v-62h-201v-90h201v-62z" />
    <glyph glyph-name="florin.old" horiz-adv-x="412" 
d="M344 395h-119l-53 -558h-88l53 558h-89v73h96l9 98q7 80 43.5 115t102.5 35q17 0 35 -2t27 -4l9 -3l-5 -79q-32 8 -53 8q-22 0 -36 -6t-21 -19.5t-10 -25.5t-5 -35l-8 -82h112v-73z" />
    <glyph glyph-name="Euro.tabold" 
d="M574 159q-48 -173 -228 -173q-115 0 -172.5 59.5t-71.5 195.5h-74v62h70q-1 14 -1 45t1 45h-70v62h76q34 255 246 255q89 0 141 -39t78 -118l-86 -27q-39 111 -139 111q-65 0 -101.5 -43.5t-48.5 -138.5h227v-62h-232q-1 -15 -1 -47q0 -30 1 -43h232v-62h-227
q12 -99 50.5 -140.5t104.5 -41.5q101 0 141 123z" />
    <glyph glyph-name="dollar.tabold" 
d="M166 528q0 -53 27 -77t89 -37v225q-61 -6 -88.5 -36.5t-27.5 -74.5zM469 193q0 47 -29 76.5t-98 43.5v-253q61 7 94 41t33 92zM342 -132h-60v119q-198 11 -235 197l84 20q19 -72 53.5 -106t97.5 -39v268l-17 4q-188 32 -188 185q0 77 54.5 130.5t150.5 62.5v103h60v-103
q164 -11 210 -156l-81 -22q-20 49 -50.5 75t-78.5 32v-236l20 -4q105 -21 151.5 -69.5t46.5 -129.5q0 -85 -60 -143.5t-158 -67.5v-120z" />
    <glyph glyph-name="uni20B9.tabold" 
d="M246 236l180 -236h-108l-177 231h-47v75h87q156 0 176 120h-263v77h264q-10 61 -58 92t-124 31h-82v73h446v-75h-157v-1q60 -52 70 -120h87v-77h-88q-13 -74 -67.5 -124t-138.5 -65v-1z" />
    <glyph glyph-name="uni20BA.tabold" 
d="M235 0h-109v233l-72 -24v65l72 24v94l-72 -24v66l72 24v242h90v-212l207 69v-65l-207 -70v-94l208 69v-65l-208 -69v-187h29q105 0 163 49.5t83 166.5l78 -15q-24 -138 -110 -207.5t-224 -69.5z" />
    <glyph glyph-name="sterling.tabold" 
d="M561 84v-84h-505v74q148 3 118 181l-9 54h-89v64h78l-16 92q-18 108 37.5 176.5t175.5 68.5q180 0 212 -170l-89 -15q-15 60 -42.5 86t-84.5 26q-144 0 -112 -181l14 -83h211v-64h-199l7 -43q12 -69 -2.5 -108.5t-55.5 -70.5v-3h351z" />
    <glyph glyph-name="yen.tabold" 
d="M563 130h-201v-130h-92v130h-212v62h212v90h-212v62h201l-208 356h101l166 -303l158 303h94l-199 -356h192v-62h-201v-90h201v-62z" />
    <glyph glyph-name="florin.tabold" 
d="M479 395h-147l-56 -558h-88l56 558h-124v73h131l10 98q9 78 54 114t114 36q17 0 34.5 -2t26.5 -4l9 -3l-5 -79q-35 8 -59 8q-43 0 -62 -22.5t-25 -63.5l-8 -82h139v-73z" />
    <glyph glyph-name="zero.den" horiz-adv-x="446" 
d="M58 209q0 109 43 163.5t123 54.5q75 0 119.5 -54t44.5 -164q0 -109 -43.5 -163.5t-122.5 -54.5q-78 0 -121 54.5t-43 163.5zM223 368q-44 0 -65.5 -37t-21.5 -122t21.5 -122t65.5 -37t65.5 36.5t21.5 122.5q0 84 -21.5 121.5t-65.5 37.5z" />
    <glyph glyph-name="one.den" horiz-adv-x="307" 
d="M218 0h-71v333l-85 -51l-31 52l135 87h52v-421z" />
    <glyph glyph-name="two.den" horiz-adv-x="406" 
d="M126 285l-69 4q2 59 40.5 99t108.5 40q68 0 103.5 -33.5t35.5 -84.5q0 -56 -34.5 -96.5t-163.5 -149.5v-2h201v-62h-300v57q165 145 189 171q33 40 34 73q0 33 -17.5 50.5t-48.5 17.5q-74 0 -79 -84z" />
    <glyph glyph-name="three.den" horiz-adv-x="419" 
d="M206 48q39 0 61 19.5t22 53.5q0 66 -83 66h-46v59h44q74 0 74 62q0 30 -19.5 46t-51.5 16q-68 0 -81 -74l-65 8q6 55 45 89.5t102 34.5q68 0 104 -31t36 -79q0 -72 -73 -95v-2q87 -17 87 -101q0 -55 -44 -92t-112 -37q-69 0 -109 34t-46 89l69 8q13 -74 86 -74z" />
    <glyph glyph-name="four.den" horiz-adv-x="406" 
d="M304 0h-67v99h-201v47l181 274h87v-262h64v-59h-64v-99zM109 157h128v207h-4q-17 -46 -63 -115z" />
    <glyph glyph-name="five.den" horiz-adv-x="427" 
d="M209 -8q-67 0 -105 34t-46 83l69 9q15 -69 83 -69q85 0 85 88q0 38 -23 60.5t-61 22.5q-49 0 -78 -37l-60 20l37 217h237v-63h-189l-18 -112h3q36 32 85 32q59 0 98.5 -35t39.5 -101q0 -68 -42.5 -108.5t-114.5 -40.5z" />
    <glyph glyph-name="six.den" horiz-adv-x="431" 
d="M368 324l-71 -10q-11 57 -71 57q-46 0 -69 -34t-26 -115h2q38 51 107 51q56 0 95 -35t39 -101q0 -60 -42 -103t-111 -43q-76 0 -119.5 50.5t-43.5 154.5q0 113 44 172t129 59q55 0 91.5 -29.5t45.5 -73.5zM305 133q0 40 -23.5 63.5t-61.5 23.5t-60 -23.5t-22 -63.5
q0 -41 23.5 -64t61.5 -23q34 0 58 23.5t24 63.5z" />
    <glyph glyph-name="seven.den" horiz-adv-x="371" 
d="M73 0l180 357h-212v63h289v-54l-180 -366h-77z" />
    <glyph glyph-name="eight.den" horiz-adv-x="421" 
d="M211 428q66 0 105.5 -32t39.5 -81q0 -64 -63 -96v-1q77 -24 77 -102q0 -55 -44 -90t-116 -35q-75 0 -117 33.5t-42 90.5q0 39 22.5 65.5t55.5 37.5v1q-64 30 -64 95q0 49 40 81.5t106 32.5zM138 309q0 -31 19.5 -47.5t53.5 -16.5t53.5 17t19.5 47q0 65 -73 65
q-35 0 -54 -17t-19 -48zM295 120q0 33 -22 52.5t-62 19.5t-62 -19.5t-22 -52.5q0 -34 22 -53.5t62 -19.5t62 19.5t22 53.5z" />
    <glyph glyph-name="nine.den" horiz-adv-x="428" 
d="M125 286q0 -38 22.5 -61t59.5 -23q36 0 59 23t23 61q0 40 -22 62.5t-60 22.5q-35 0 -58.5 -22.5t-23.5 -62.5zM52 95l69 10q18 -57 76 -57q48 0 70.5 33.5t27.5 117.5h-2q-31 -51 -100 -51q-61 0 -100.5 36t-39.5 102q0 57 43.5 99t112.5 42q72 0 116 -49.5t44 -150.5
q0 -236 -172 -236q-59 0 -98 28.5t-47 75.5z" />
    <glyph glyph-name="space_uni0326" horiz-adv-x="500" 
d="M220 -223l-18 35q59 22 67 56h-52v99h108v-47q0 -59 -20.5 -88t-84.5 -55z" />
    <glyph glyph-name="space.tab" horiz-adv-x="310" 
 />
    <glyph glyph-name="one.sup" horiz-adv-x="307" 
d="M218 400h-71v333l-85 -51l-31 52l135 87h52v-421z" />
    <glyph glyph-name="two.sup" horiz-adv-x="406" 
d="M126 685l-69 4q2 59 40.5 99t108.5 40q68 0 103.5 -33.5t35.5 -84.5q0 -56 -34.5 -96.5t-163.5 -149.5v-2h201v-62h-300v57q165 145 189 171q33 40 34 73q0 33 -17.5 50.5t-48.5 17.5q-74 0 -79 -84z" />
    <glyph glyph-name="three.sup" horiz-adv-x="419" 
d="M206 448q39 0 61 19.5t22 53.5q0 66 -83 66h-46v59h44q74 0 74 62q0 30 -19.5 46t-51.5 16q-68 0 -81 -74l-65 8q6 55 45 89.5t102 34.5q68 0 104 -31t36 -79q0 -72 -73 -95v-2q87 -17 87 -101q0 -55 -44 -92t-112 -37q-69 0 -109 34t-46 89l69 8q13 -74 86 -74z" />
    <glyph glyph-name="space_uni0326.alt" horiz-adv-x="501" 
d="M293 855q18 -28 23 -35q-26 -15 -37.5 -29t-17.5 -39h39v-99h-99v47q0 58 19 92.5t73 62.5z" />
    <glyph glyph-name="cent.old" horiz-adv-x="576" 
d="M531 122q-62 -126 -198 -136v-128h-60v129q-108 10 -163 83.5t-55 186.5t56 194t162 95v140h60v-137q78 -5 123.5 -42t66.5 -87l-85 -36q-11 22 -21 37t-32.5 31.5t-51.5 21.5v-414q81 10 123 95zM149 269q0 -82 31.5 -137t92.5 -69v409q-58 -14 -91 -70.5t-33 -132.5z
" />
    <glyph glyph-name="cent.tabold" 
d="M558 122q-62 -126 -198 -136v-128h-60v129q-108 10 -163 83.5t-55 186.5t56 194t162 95v140h60v-137q78 -5 123.5 -42t66.5 -87l-85 -36q-11 22 -21 37t-32.5 31.5t-51.5 21.5v-414q81 10 123 95zM176 269q0 -82 31.5 -137t92.5 -69v409q-58 -14 -91 -70.5t-33 -132.5z
" />
    </font>
</defs>
</svg>
