<svg viewBox="0 0 233 181" fill="none" xmlns="http://www.w3.org/2000/svg">
  <path d="M45.6972 46.1341C45.7624 48.6611 45.3413 51.1467 44.5405 53.5083C43.6982 55.9762 42.1916 58.1252 40.3587 60.0263C39.2792 61.154 38.2411 62.323 37.1912 63.4802C37.037 63.6455 36.9184 63.8462 36.7701 64.0175C36.4142 64.4485 36.4379 64.7673 36.9421 65.1097C38.1225 65.9245 39.2554 66.7983 40.4121 67.6425C41.0765 68.1267 41.6637 68.6816 42.1916 69.3075C44.499 72.0292 46.4564 74.9576 47.5123 78.4115C48.0164 80.0646 48.4198 81.7355 48.5028 83.4535C48.6155 85.8211 48.7401 88.1945 48.4079 90.5561C47.7673 95.1199 46.8301 99.6188 45.3176 103.988C44.9142 105.151 44.6592 106.391 44.0838 107.465C43.2415 109.036 42.4941 110.653 41.6874 112.242C40.4418 114.709 38.686 116.811 37.0667 119.019C34.6466 122.326 31.5147 124.829 28.0803 127.014C25.85 128.43 23.6316 129.836 21.1581 130.81C17.8126 132.126 14.3486 133.006 10.8015 133.591C9.32449 133.833 7.84751 134.098 6.36461 134.317C5.42148 134.453 4.47242 134.429 3.54709 134.175C2.71666 133.945 2.18875 133.213 2.39042 132.422C2.95393 130.19 2.83529 127.905 2.89461 125.644C2.94206 123.825 2.85309 122.001 2.90054 120.183C2.95986 117.98 3.12594 115.778 3.19712 113.57C3.25644 111.787 3.24457 109.998 3.26237 108.215C3.29796 104.124 3.55302 100.038 3.49963 95.9406C3.46404 93.1184 3.52336 90.2845 3.3988 87.4683C3.18526 82.5974 3.20305 77.7266 3.16746 72.8617C3.13781 68.8411 2.94206 64.8145 3.10815 60.7879C3.24457 57.4758 2.96579 54.1754 2.87088 50.8692C2.8175 49.0212 2.53871 47.1555 2.74039 45.3253C3.01917 42.8043 2.31331 40.4367 1.88623 38.0279C1.69049 36.9297 1.04394 35.9969 0.40926 35.0877C0.177927 34.7512 -0.106791 34.4323 0.00590966 33.9423C0.195722 33.1275 0.450781 32.8205 1.4295 32.7792C3.48184 32.6847 5.52825 32.4486 7.58059 32.3482C9.72784 32.2419 11.8751 32.0943 14.0223 32.0176C16.1696 31.9467 18.3168 31.6811 20.4759 31.8877C20.7666 31.9172 21.0632 31.9349 21.3538 31.9231C25.0492 31.7814 28.7209 32.1711 32.3985 32.3954C34.1543 32.5017 35.9515 32.7969 37.5531 33.4582C40.507 34.6862 42.8144 36.7054 44.3033 39.6515C45.3532 41.7297 45.6557 43.8906 45.6853 46.14L45.6972 46.1341ZM16.9585 102.134C17.0059 103.486 16.917 105.334 16.8754 107.188C16.8043 110.535 17.1364 113.871 17.261 117.213C17.2966 118.222 17.605 119.185 18.127 120.076C18.4533 120.637 18.9159 121.009 19.515 121.233C21.0276 121.8 22.3207 121.222 23.596 120.501C25.2805 119.551 26.3186 118.022 27.3448 116.463C29.0649 113.848 29.9309 110.878 30.9334 107.967C31.835 105.358 32.2561 102.618 33.0866 99.9907C33.5433 98.5383 34.0653 97.0919 34.2432 95.5745C34.7118 91.5421 35.127 87.5037 35.0203 83.4358C34.9787 81.8358 34.7474 80.289 34.1187 78.7893C33.6263 77.6026 32.9027 76.5694 32.2443 75.4949C31.1944 73.7709 29.6759 72.6787 27.6888 72.2595C26.283 71.9643 24.9128 71.5451 23.5604 71.0669C22.8842 70.8307 22.1961 70.6241 21.4962 70.4647C20.2446 70.1872 19.2659 70.6713 18.4948 71.6337C18.2516 71.9407 18.0677 72.2949 17.7948 72.5724C16.2289 74.2078 15.9916 76.1798 16.3179 78.2875C16.4899 79.3916 16.478 80.4897 16.3535 81.5879C16.3001 82.0425 16.2408 82.4912 16.2586 82.9458C16.3416 85.2188 16.3831 87.4919 16.5195 89.759C16.7568 93.7147 16.9822 97.6705 16.9526 102.134H16.9585ZM16.0035 52.2271C16.2586 54.3112 16.4958 56.3717 17.172 58.3496C17.4212 59.0699 17.8245 59.7134 18.4295 60.1739C19.3371 60.8588 20.3039 61.461 21.3538 61.9215C22.0715 62.2344 22.8071 62.3112 23.5544 62.1754C26.0398 61.7326 28.1752 60.6049 29.9131 58.7983C31.2774 57.3813 32.0663 55.6455 32.3273 53.6913C32.5527 51.9968 33.0094 50.3378 32.6951 48.5843C32.2324 46.0161 31.2359 43.7371 29.3556 41.9127C28.1811 40.7733 26.7575 40.112 25.0255 40.3069C23.9875 40.4249 22.9316 40.4426 21.8995 40.2891C21.0632 40.1652 20.2861 40.3305 19.4913 40.4958C18.3406 40.7378 17.6406 41.4463 17.4152 42.5622C17.1898 43.7017 16.8814 44.8293 16.65 45.9629C16.2289 48.0293 16.3772 50.1666 15.9976 52.2271H16.0035Z" fill="white"/>
  <path d="M136.048 31.4921C137.519 31.4744 138.622 31.7342 139.719 31.7165C143.533 31.6397 147.347 31.7873 151.161 31.7165C155.011 31.6456 158.855 31.7519 162.651 32.5076C165.356 33.0449 167.989 33.8301 170.374 35.1821C173.019 36.6818 174.923 38.819 175.416 41.9777C175.606 43.1821 175.517 44.3511 175.434 45.5496C175.356 46.6596 175.178 47.7282 174.912 48.8027C174.093 52.0972 172.658 55.0787 170.326 57.5998C169.751 58.2197 169.128 58.7924 168.446 59.306C167.776 59.8079 167.687 60.2507 168.114 60.971C168.464 61.5614 168.873 62.1104 169.401 62.5591C172.586 65.275 174.514 68.7407 175.546 72.7436C176.483 76.3746 177.059 80.0587 176.91 83.8137C176.798 86.7066 176.317 89.5642 175.683 92.3804C174.983 95.4741 174.17 98.5501 172.907 101.484C171.115 105.653 168.618 109.337 165.498 112.625C163.808 114.408 162.028 116.067 159.887 117.295C158.161 118.281 156.274 118.931 154.436 119.692C150.782 121.21 147.021 122.385 143.1 122.94C141.101 123.223 139.073 123.312 137.056 123.406C135.721 123.471 135.395 122.957 135.615 121.653C135.787 120.643 136.451 119.858 136.659 118.854C137.02 117.107 137.293 115.359 137.388 113.57C137.525 110.913 137.501 108.25 137.863 105.6C138.035 104.324 137.969 103.008 138.047 101.715C138.248 98.3435 138.485 94.9664 138.438 91.5952C138.373 87.1494 138.302 82.6978 138.017 78.258C137.91 76.5399 137.916 74.8159 137.928 73.0919C137.969 66.7215 137.75 60.3569 137.679 53.9924C137.637 50.5562 137.602 47.1024 137.086 43.6957C136.789 41.7533 136.16 39.8581 135.686 37.9393C135.235 36.0973 134.381 34.4205 133.509 32.7497C133.052 31.8759 133.23 31.6515 134.244 31.5452C134.962 31.4685 135.68 31.4862 136.036 31.498L136.048 31.4921ZM148.878 101.868C148.735 103.25 148.818 104.549 148.961 105.836C149.127 107.324 149.465 108.776 150.07 110.152C150.61 111.38 151.511 111.639 152.674 110.943C153.291 110.571 153.86 110.134 154.37 109.626C158.226 105.818 160.854 101.272 162.271 96.0763C162.888 93.8328 163.416 91.5598 163.95 89.2867C164.377 87.4624 164.887 85.6498 165.172 83.7901C165.587 81.1037 165.178 78.5 164.484 75.9023C163.861 73.582 162.473 71.7104 161.037 69.8624C160.901 69.6853 160.699 69.5613 160.51 69.4373C158.024 67.7842 155.225 67.3355 152.318 67.3414C151.428 67.3414 149.969 68.4809 149.696 69.3252C149.317 70.4824 149.299 71.6809 149.317 72.8853C149.346 74.9281 149.661 76.9532 149.524 79.0078C149.37 81.2749 149.21 83.548 149.412 85.8151C149.619 88.1472 149.649 90.4911 149.465 92.8173C149.228 95.8579 148.89 98.8867 148.884 101.862L148.878 101.868ZM155.337 39.5452C154.412 39.5334 153.398 39.6102 152.401 39.7873C151.393 39.9703 150.408 40.2714 149.981 41.3518C149.548 42.4382 149.251 43.56 149.073 44.7231C148.812 46.4529 149.168 48.1533 149.299 49.8596C149.441 51.7016 149.696 53.5378 150.111 55.3385C150.544 57.216 152.004 58.1547 153.902 57.8536C154.483 57.7592 155.064 57.706 155.646 57.6234C156.802 57.464 157.947 57.3577 159.003 56.7141C160.794 55.6278 161.601 53.8743 162.147 52.0559C162.847 49.7179 163.019 47.2795 162.603 44.8352C162.135 42.0721 160.539 40.3009 157.852 39.6574C157.051 39.4685 156.233 39.4862 155.331 39.5393L155.337 39.5452Z" fill="white"/>
  <path d="M70.2542 79.6927C70.2542 82.3554 70.3195 85.0181 70.2364 87.6808C70.1237 91.1524 70.1237 94.6299 70.1593 98.1014C70.1831 100.209 70.3136 102.317 70.5152 104.419C70.7644 106.94 70.9126 109.473 71.488 111.946C72.0634 114.402 72.5201 116.894 73.4395 119.262C73.6886 119.899 73.9734 120.513 74.353 121.086C74.6021 121.458 74.8038 121.847 74.5131 122.249C74.2581 122.597 73.8785 122.42 73.5226 122.373C72.6506 122.267 71.7668 122.131 70.8948 122.16C69.2281 122.219 67.5672 122.255 65.9004 122.261C64.6548 122.267 63.4507 122.591 62.2228 122.757C60.734 122.952 59.2392 123.07 57.7563 122.692C56.9793 122.491 56.8962 122.367 57.175 121.623C57.4835 120.802 57.8275 120 58.1597 119.191C58.8596 117.461 59.1087 115.631 59.3341 113.794C59.7612 110.311 59.9273 106.81 60.0103 103.303C60.04 101.91 60.0103 100.504 59.8858 99.1169C59.7731 97.8535 59.7612 96.5841 59.7375 95.3206C59.6485 90.4498 59.1858 85.5849 59.4172 80.7141C59.6366 76.1325 59.5299 71.551 59.4765 66.9754C59.4409 63.858 59.2452 60.7466 59.0079 57.6352C58.9723 57.1511 58.9604 56.661 58.9604 56.1769C58.996 53.0241 58.5393 49.895 58.4681 46.7422C58.4266 44.8293 58.2724 42.9164 58.1656 41.0035C58.0766 39.4508 57.9699 37.898 57.6436 36.3688C57.4479 35.436 57.1098 34.5799 56.5344 33.8124C56.1133 33.2574 56.2853 32.8796 56.9852 32.7024C57.9698 32.4486 58.996 32.5726 59.9985 32.3895C62.4304 31.9408 64.8505 31.4095 67.3359 31.2619C69.5187 31.132 71.6897 30.8781 73.8785 30.9548C74.958 30.9962 75.2902 31.4862 74.8394 32.4722C74.3767 33.4759 73.8844 34.4618 73.3802 35.4478C72.4667 37.2249 71.832 39.0729 71.5414 41.0567C71.1143 43.9555 70.8177 46.8485 70.9482 49.7828C71.0016 51.0168 71.1025 52.2448 71.3219 53.461C71.5651 54.8072 73.137 56.1415 74.5191 56.2064C75.2249 56.2418 75.7825 55.9171 76.2333 55.4153C76.5358 55.0787 76.7968 54.7009 77.0815 54.3466C77.5442 53.768 77.9238 53.7621 78.4339 54.323C78.6297 54.5415 78.8076 54.7776 79.0152 54.9784C79.5194 55.4743 80.1126 55.7872 80.8481 55.7695C80.943 55.7695 81.0438 55.7695 81.1388 55.7813C84.1579 56.3009 85.4926 54.388 85.979 51.8197C86.2755 50.2492 86.2459 48.6492 86.2577 47.0611C86.2815 43.8729 85.9849 40.7083 85.5697 37.5497C85.368 36.0441 85.0477 34.5504 84.3774 33.163C84.2647 32.9268 84.1402 32.6965 84.0749 32.4486C83.897 31.7696 84.1224 31.374 84.8223 31.2382C85.4333 31.1202 86.0739 31.0375 86.6552 31.3091C88.3872 32.1238 90.2023 31.9585 92.0351 31.8818C94.0282 31.7991 95.9915 31.439 97.9786 31.3681C99.3726 31.3209 99.6988 31.6751 99.7225 33.0744C99.7285 33.5999 99.6988 34.1194 99.5327 34.6154C98.9692 36.3452 98.5896 38.1223 98.2634 39.9113C98.1803 40.36 98.0439 40.791 98.2752 41.2397C98.4057 41.4876 98.3049 41.7474 98.21 41.9954C97.6109 43.5363 97.5516 45.16 97.4626 46.7836C97.2431 50.7688 96.9703 54.754 96.8101 58.7451C96.6796 61.9274 96.8042 65.1038 97.1245 68.2802C97.2906 69.9569 97.4389 71.6396 97.3914 73.334C97.3202 76.0971 97.688 78.8484 97.6465 81.6115C97.6168 83.9495 97.5219 86.2875 97.5753 88.6255C97.6583 92.1679 98.0202 95.6926 98.1625 99.2291C98.2693 101.957 98.4769 104.679 98.4591 107.406C98.4472 109.024 98.5421 110.648 98.4413 112.271C98.2871 114.68 98.7142 117.047 99.3726 119.368C99.5268 119.923 99.942 120.383 100.132 120.938C100.452 121.871 100.221 122.273 99.2361 122.225C96.1102 122.066 92.9664 122.225 89.8523 121.83C88.4406 121.653 87.0526 121.924 85.6587 121.96C85.4985 121.96 85.3384 122.031 85.1782 122.042C83.9029 122.131 83.4343 121.487 84.0868 120.383C85.7298 117.62 86.1866 114.55 86.5959 111.456C86.8924 109.236 87.2246 107.005 87.1297 104.767C87.0289 102.335 86.8272 99.9081 86.7975 97.4756C86.756 93.8033 86.756 90.1369 86.8212 86.4646C86.9043 81.6233 86.8213 76.7879 86.7441 71.9525C86.7086 69.8802 85.9612 68.0912 84.2173 66.8101C82.9716 65.889 81.2693 65.8772 80.0414 66.8101C79.8101 66.9872 79.5787 67.1761 79.3593 67.3591C78.4636 68.1089 78.078 68.1148 77.2891 67.3001C76.779 66.7746 76.1799 66.4027 75.5215 66.1016C73.1845 65.0329 71.749 66.2256 70.9838 67.92C70.4263 69.154 70.2068 70.506 70.2009 71.8993C70.189 74.4971 70.1297 77.0949 70.2542 79.6927Z" fill="white"/>
  <path d="M183.584 72.0115C183.483 68.6639 183.667 65.3281 183.987 61.9924C184.895 52.5164 188.163 44.0264 194.581 36.8589C196.177 35.0759 197.998 33.5349 200.127 32.4249C201.669 31.622 203.36 31.2382 205.11 31.1733C207.168 31.0965 209.197 31.3681 211.243 31.6043C213.883 31.9113 216.57 32.1238 219.162 31.1083C220.603 30.5475 221.689 29.5143 222.798 28.5106C224.174 27.2648 224.85 27.3888 225.55 29.1541C226.226 30.8545 226.564 32.6493 226.701 34.4618C226.991 38.388 226.802 42.3083 226.38 46.2227C226.013 49.6411 225.568 53.0477 224.773 56.3953C224.304 58.3791 223.895 60.3806 223.189 62.3053C222.952 62.9488 222.721 63.5864 222.288 64.1296C221.938 64.5724 221.517 64.8381 220.941 64.7318C220.39 64.6315 220.152 64.2241 219.98 63.7399C219.767 63.1377 219.832 62.5237 219.838 61.9097C219.868 58.816 219.761 55.7282 218.859 52.7525C218.124 50.3319 217.264 47.9408 215.887 45.7917C214.535 43.6839 212.661 42.143 210.294 41.2515C208.111 40.4367 205.537 41.222 204.208 43.1172C202.879 45.0183 201.859 47.067 201.153 49.2869C200.459 51.4832 199.67 53.6559 199.196 55.9053C198.359 59.8728 197.713 63.8698 197.482 67.9318C197.244 72.0292 197.434 76.0971 197.849 80.1768C198.223 83.8609 198.656 87.5391 199.309 91.176C200.37 97.0505 201.746 102.854 204.149 108.369C204.932 110.169 206.023 111.781 207.02 113.452C209.689 117.945 213.515 121.387 217.341 124.835C219.719 126.984 222.311 128.832 225.159 130.314C226.031 130.768 226.938 131.117 227.857 131.436C228.196 131.554 228.534 131.672 228.818 131.902C229.637 132.569 229.607 133.331 228.688 133.839C227.685 134.394 226.6 134.736 225.473 134.954C223.166 135.403 220.882 135.143 218.569 134.884C214.185 134.388 210.496 132.41 207.126 129.782C203.496 126.949 200.151 123.796 197.404 120.076C195.512 117.514 193.691 114.893 192.143 112.106C190.992 110.033 190.18 107.79 189.379 105.564C187.955 101.597 186.739 97.5642 185.844 93.4432C185.049 89.8004 184.497 86.1162 184.165 82.3967C183.857 78.9369 183.613 75.4713 183.584 71.9997V72.0115Z" fill="white"/>
  <path d="M120.697 150.086C120.697 151.385 120.685 152.684 120.697 153.983C120.709 154.816 120.555 155.601 120.11 156.309C119.345 157.537 119.066 158.854 119.143 160.306C119.25 162.284 119.273 164.262 119.178 166.246C119.125 167.391 119.416 168.466 120.027 169.481C120.899 170.928 121.664 172.433 122.459 173.921C123.592 176.029 122.856 178.839 121.308 180.049C119.849 181.189 118.235 181.372 116.723 180.274C116.165 179.866 115.797 179.872 115.287 180.256C114.842 180.587 114.309 180.752 113.757 180.87C111.817 181.277 110.133 180.108 109.895 178.148C109.688 176.407 110.038 174.789 111.022 173.325C111.491 172.622 111.989 171.943 112.494 171.264C113.11 170.432 113.508 169.546 113.413 168.472C113.146 165.431 113.306 162.373 113.081 159.332C113.016 158.482 112.766 157.679 112.28 156.959C111.788 156.227 111.639 155.424 111.728 154.544C112.043 151.498 111.782 148.439 111.894 145.387C111.906 145.044 111.758 144.861 111.491 144.684C110.874 144.277 110.192 144.041 109.468 144.053C108.098 144.07 106.728 143.988 105.358 143.94C100.405 143.775 95.4757 143.415 90.6711 141.992C88.0434 141.213 85.4394 140.392 82.9778 139.217C81.483 138.503 80.0238 137.688 78.8435 136.484C78.0546 135.681 78.0368 135.433 78.6003 134.453C79.49 132.894 80.6704 131.548 81.8033 130.166C81.9279 130.019 82.0762 129.883 82.2245 129.759C82.7702 129.298 83.2388 129.387 83.5057 130.072C83.8142 130.863 84.1701 131.625 84.6387 132.333C85.8724 134.211 87.6638 135.261 89.817 135.704C92.4625 136.253 95.0902 136.909 97.7831 137.222C100.156 137.493 102.534 137.558 104.913 137.281C105.939 137.163 106.627 136.602 106.918 135.669C107.173 134.842 107.375 133.986 107.369 133.101C107.357 130.568 107.244 128.023 107.38 125.496C107.588 121.765 107.487 118.033 107.553 114.302C107.647 109.301 107.469 104.307 107.553 99.3059C107.564 98.497 107.535 97.6823 107.547 96.8675C107.576 94.2992 107.357 91.7428 107.226 89.1863C107.137 87.4683 107.131 85.7443 107.102 84.0203C107.036 80.6432 106.93 77.2661 107.001 73.889C107.042 71.7458 107.214 69.6086 107.309 67.4713C107.398 65.4285 107.38 63.3798 107.446 61.3311C107.553 57.9894 107.641 54.6537 108.092 51.3297C108.324 49.6293 108.335 47.8935 108.561 46.1873C109.16 41.6412 109.213 37.0655 109.587 32.5076C109.83 29.5969 110.145 26.698 110.429 23.7874C110.554 22.4944 110.613 21.1955 110.684 19.9025C110.88 16.5962 110.892 13.2782 111.135 9.97782C111.289 7.85236 111.266 5.69149 111.912 3.61917C112.001 3.34168 112.102 3.06419 112.238 2.81032C112.375 2.55645 112.671 2.40294 112.903 2.56235C113.383 2.90478 113.947 3.11142 114.148 3.82581C114.736 5.92175 115.109 8.06491 115.643 10.1667C116.551 13.7446 116.693 17.4169 117.191 21.042C117.613 24.1298 117.962 27.2235 118.271 30.3231C118.437 31.9999 118.437 33.7061 118.763 35.3593C119.256 37.8803 119.487 40.4367 119.671 42.9873C119.867 45.6736 120.175 48.354 120.359 51.0404C120.691 55.9289 121.023 60.8175 121.64 65.6824C121.883 67.613 121.954 69.5613 122.109 71.5038C122.275 73.6056 122.465 75.7074 122.625 77.8093C122.702 78.813 122.72 79.8225 122.791 80.8262C123.022 84.1915 123.337 87.5509 123.503 90.9221C123.704 95.0432 123.793 99.1642 123.93 103.285C124.036 106.367 123.906 109.455 124.256 112.525C124.748 116.888 124.831 121.269 124.902 125.65C124.932 127.586 125.276 129.523 125.519 131.453C125.62 132.262 125.703 133.071 125.68 133.88C125.656 134.606 125.852 135.291 125.982 135.994C126.035 136.289 126.219 136.46 126.439 136.59C127.222 137.062 128.046 137.446 128.983 137.475C133.705 137.617 138.373 137.18 142.958 136.07C145.242 135.515 147.419 134.642 149.204 133.006C149.892 132.38 150.183 131.66 150.094 130.757C150.088 130.692 150.076 130.627 150.082 130.562C150.13 130.196 149.922 129.635 150.314 129.517C150.806 129.363 151.037 129.912 151.31 130.267C151.678 130.745 151.785 131.323 152.046 131.843C152.514 132.77 152.965 133.703 153.434 134.624C153.831 135.409 153.742 135.875 153.048 136.395C150.047 138.656 146.778 140.303 143.035 141.03C139.263 141.762 135.496 142.541 131.688 143.067C129.001 143.439 126.285 143.415 123.58 143.492C123.188 143.503 122.797 143.503 122.405 143.545C121.51 143.633 121.148 143.946 120.916 144.826C120.816 145.204 120.768 145.588 120.774 145.983C120.786 147.347 120.774 148.711 120.774 150.075C120.756 150.075 120.738 150.075 120.721 150.075L120.697 150.086ZM113.033 29.5615C112.897 26.3025 112.95 21.8863 112.624 17.4759C112.6 17.1689 112.844 16.6199 112.333 16.614C111.977 16.614 112.108 17.1571 112.084 17.4582C111.889 20.0442 111.705 22.6361 111.509 25.222C111.384 26.9047 111.094 28.5696 111.064 30.2641C111.04 31.7578 110.904 33.2456 110.809 34.7393C110.589 38.2404 110.346 41.7356 110.145 45.2367C110.073 46.4411 110.109 46.447 111.289 46.6065C111.384 46.6183 111.491 46.6242 111.574 46.6596C111.829 46.7718 112.203 46.754 112.233 47.1378C112.262 47.5688 111.912 47.6751 111.586 47.7282C110.589 47.8935 110.162 48.5016 110.068 49.464C109.688 53.2544 109.759 57.0566 109.581 60.8529C109.563 61.2012 109.664 61.3902 110.056 61.4197C110.506 61.4492 110.957 61.5496 111.408 61.6204C111.616 61.6499 111.8 61.7444 111.829 61.9569C111.865 62.1813 111.681 62.3112 111.491 62.3702C111.212 62.4588 110.922 62.5119 110.637 62.5828C109.759 62.7953 109.563 63.0197 109.546 63.9053C109.522 64.8499 109.51 65.7887 109.504 66.7333C109.504 67.6248 109.569 67.7016 110.471 67.8433C110.827 67.8964 111.195 67.8846 111.527 68.0322C111.728 68.1208 111.989 68.1798 112.037 68.4337C112.09 68.7348 111.847 68.9119 111.651 69.0654C111.337 69.3134 110.928 69.3252 110.56 69.4492C109.629 69.7621 109.368 70.1104 109.362 71.0905C109.344 73.3635 109.326 75.6366 109.314 77.9096C109.314 78.8012 109.326 78.7775 110.168 78.9724C110.572 79.0668 111.189 78.9547 111.272 79.5096C111.384 80.2535 110.637 80.1118 110.234 80.2595C109.664 80.4661 109.285 80.7023 109.273 81.4048C109.225 83.8373 109.142 86.2757 109.041 88.7081C109.018 89.2631 109.249 89.5052 109.765 89.4875C110.394 89.4697 110.975 89.7472 111.604 89.7118C111.859 89.7 112.203 89.7531 112.209 90.0661C112.209 90.4026 111.977 90.6919 111.58 90.6565C111.076 90.6151 110.625 90.8395 110.139 90.8749C109.771 90.9044 109.207 90.8572 109.184 91.2882C109.154 91.7664 109.723 91.5775 110.038 91.6778C110.269 91.7487 110.607 91.7546 110.625 92.0793C110.643 92.3981 110.435 92.5398 110.103 92.6579C109.071 93.024 108.946 93.2601 108.941 94.3937C108.911 99.9494 108.941 105.499 109.142 111.049C109.16 111.468 109.047 111.946 109.201 112.301C109.397 112.732 109.99 112.419 110.358 112.625C110.412 112.655 110.483 112.655 110.548 112.673C111.094 112.844 111.2 113.281 110.803 113.676C110.607 113.871 110.34 113.918 110.097 113.989C109.824 114.066 109.599 114.178 109.563 114.479C109.445 115.512 109.362 116.546 109.658 117.573C109.812 118.098 110.121 118.37 110.696 118.423C111.408 118.488 112.108 118.642 112.814 118.76C113.021 118.795 113.182 118.907 113.193 119.132C113.205 119.35 112.986 119.368 112.849 119.415C112.179 119.669 111.467 119.769 110.779 119.94C109.812 120.177 109.462 120.602 109.451 121.588C109.439 122.526 109.504 123.471 109.51 124.416C109.51 125.036 109.807 125.384 110.4 125.52C110.524 125.549 110.661 125.561 110.779 125.614C111.242 125.844 111.26 126.128 110.874 126.488C110.619 126.724 110.281 126.754 109.996 126.895C109.344 127.226 109.255 127.474 109.54 128.135C109.735 128.596 110.079 128.72 110.548 128.714C110.85 128.714 111.141 128.909 111.23 129.192C111.331 129.523 110.91 129.54 110.75 129.723C110.607 129.883 110.376 129.977 110.168 130.066C109.409 130.408 109.012 131.005 108.976 131.819C108.935 132.693 108.887 133.573 108.911 134.453C108.941 135.444 109.884 136.135 110.874 135.929C111.77 135.74 112.606 135.374 113.443 135.013C113.852 134.836 114.137 134.512 114.315 134.128C114.676 133.36 114.931 132.569 114.973 131.707C115.086 129.369 114.997 127.031 114.949 124.693C114.789 116.186 114.57 107.678 114.421 99.1701C114.356 95.4328 114.326 91.6956 114.113 87.9701C113.893 84.1738 113.698 80.3775 113.632 76.5871C113.532 70.7126 113.585 64.8322 113.585 58.9518C113.585 53.0418 112.986 47.1496 113.188 41.2338C113.306 37.7268 113.051 34.2198 113.016 29.5556L113.033 29.5615ZM122.868 117.059C122.856 115.371 122.785 113.688 122.702 112C122.53 108.304 122.334 104.608 122.085 100.918C121.705 95.3147 121.373 89.7059 121.231 84.0853C121.201 82.8867 121.071 81.6882 120.97 80.4897C120.703 77.4196 120.27 74.3672 120.211 71.2794C120.163 68.9119 120.021 66.5444 119.855 64.1769C119.552 59.8374 119.208 55.5038 118.864 51.1703C118.668 48.7142 118.562 46.2404 118.117 43.8138C117.79 42.0249 117.601 40.2183 117.375 38.4176C116.924 34.7807 116.711 31.1202 116.153 27.4951C115.857 25.5645 115.928 23.6043 115.602 21.6796C115.566 21.4789 115.685 21.1364 115.465 21.1187C115.287 21.101 115.192 21.4435 115.181 21.6737C115.169 21.8685 115.175 22.0634 115.181 22.2582C115.228 23.3268 115.281 24.4014 115.335 25.47C115.596 30.7246 115.637 35.9851 116.165 41.2279C116.48 44.3924 116.83 47.5511 117.055 50.7275C117.286 54.0278 117.423 57.34 117.725 60.6344C118.022 63.8344 118.2 67.0403 118.431 70.2462C118.656 73.4226 118.941 76.593 119.101 79.7694C119.244 82.6211 119.6 85.455 119.795 88.3067C120.015 91.4476 120.335 94.5826 120.721 97.7059C120.982 99.8431 120.863 101.986 121.029 104.124C121.403 108.847 121.284 113.6 121.599 118.329C121.8 121.369 122.061 124.416 122.144 127.468C122.204 129.641 122.459 131.802 122.447 133.98C122.447 134.429 122.399 134.636 121.842 134.447C121.266 134.252 120.727 133.898 120.086 133.904C119.961 133.904 119.813 133.774 119.724 133.904C119.641 134.022 119.766 134.134 119.861 134.216C120.845 135.084 121.937 135.781 123.147 136.283C123.491 136.425 123.633 136.265 123.586 135.917C123.491 135.208 123.36 134.5 123.455 133.785C123.764 131.512 123.431 129.239 123.354 126.978C123.236 123.672 122.85 120.383 122.862 117.065L122.868 117.059ZM111.153 140.947C110.874 140.947 110.643 140.941 110.417 140.947C109.54 140.982 108.662 141.071 107.802 140.794C107.63 140.74 107.464 140.652 107.469 140.498C107.469 140.357 107.624 140.239 107.802 140.191C108.561 139.985 109.338 139.932 110.109 139.813C111.681 139.565 113.259 139.329 114.688 138.556C114.943 138.42 115.216 138.284 115.43 138.089C115.821 137.729 115.72 137.233 115.596 136.814C115.459 136.342 115.068 136.631 114.771 136.661C113.923 136.743 113.122 137.015 112.322 137.287C109.818 138.137 107.244 138.721 104.622 139.005C100.191 139.477 95.7426 139.377 91.3948 138.402C87.6401 137.558 84.176 136.088 82.4677 132.221C82.3372 131.926 82.2186 131.855 82.0347 132.203C81.6076 133.006 81.139 133.785 80.7179 134.588C80.2908 135.397 80.3204 135.409 81.1271 135.94C82.3787 136.767 83.7311 137.411 85.0835 138.042C89.0636 139.896 93.2276 141.148 97.5755 141.732C100.879 142.175 104.207 142.187 107.535 142.11C109.231 142.069 110.922 142.051 112.606 142.329C113.478 142.476 114.32 142.695 115.163 142.954C115.305 143.002 115.507 143.196 115.596 142.842C115.827 141.898 115.483 141.366 114.516 141.154C113.389 140.906 112.238 141.006 111.159 140.941L111.153 140.947ZM118.36 149.295C118.413 149.295 118.461 149.295 118.514 149.295C118.514 148.551 118.514 147.802 118.514 147.058C118.514 146.119 118.514 145.174 118.526 144.236C118.532 143.781 118.407 143.669 117.957 143.858C117.506 144.047 117.049 144.212 116.64 144.484C116.284 144.726 115.928 144.737 115.536 144.531C115.222 144.365 114.89 144.224 114.546 144.129C114.338 144.07 114.048 143.97 113.899 144.165C113.721 144.395 114 144.566 114.113 144.743C114.439 145.251 114.92 145.576 115.465 145.824C115.744 145.948 116.041 146.166 115.928 146.467C115.809 146.792 115.459 146.869 115.103 146.733C114.985 146.686 114.848 146.674 114.73 146.627C114.427 146.52 114.03 146.272 113.822 146.532C113.626 146.774 113.976 147.105 114.137 147.371C114.285 147.619 114.487 147.843 114.7 148.038C115.092 148.38 115.513 148.687 115.928 149C116.035 149.083 116.165 149.171 116.106 149.289C116.053 149.39 115.898 149.496 115.792 149.496C115.507 149.496 115.216 149.431 114.931 149.402C114.647 149.378 114.249 149.189 114.113 149.449C113.935 149.791 114.386 149.974 114.57 150.216C114.92 150.671 115.525 150.76 115.934 151.137C116.106 151.297 116.48 151.356 116.325 151.71C116.189 152.017 115.863 151.905 115.631 151.887C115.311 151.869 115.003 151.751 114.682 151.71C114.498 151.686 114.255 151.651 114.143 151.828C114.006 152.035 114.214 152.188 114.332 152.324C114.819 152.903 115.394 153.369 116.029 153.776C116.201 153.889 116.586 154.007 116.462 154.154C116.325 154.314 116.124 154.544 115.863 154.603C115.602 154.656 115.347 154.627 115.098 154.514C114.86 154.408 114.623 154.308 114.374 154.237C114.006 154.131 113.775 154.249 113.87 154.662C113.994 155.193 113.994 155.754 114.309 156.238C114.635 156.74 114.736 157.301 114.753 157.898C114.825 160.495 114.753 163.093 114.943 165.685C114.991 166.382 115.098 167.084 114.872 167.799C114.765 168.153 114.985 168.613 115.246 168.956C115.471 169.245 115.744 169.316 116.106 169.151C117.019 168.731 117.174 168.466 117.185 167.45C117.215 164.634 116.889 161.818 117.15 158.996C117.257 157.833 117.304 156.669 117.968 155.642C118.235 155.229 118.348 154.751 118.348 154.249C118.348 152.596 118.348 150.943 118.348 149.284L118.36 149.295ZM111.479 176.625C111.45 178.172 111.865 178.816 112.826 179.093C113.775 179.37 114.813 178.892 115.329 177.954C115.442 177.753 115.566 177.564 115.697 177.375C115.916 177.056 115.999 176.838 115.596 176.513C114.807 175.869 114.831 175.474 115.673 174.948C116.189 174.63 116.1 174.441 115.708 174.151C115.323 173.874 115.264 173.531 115.548 173.148C115.952 172.599 116.361 172.055 116.764 171.512C116.883 171.353 117.013 171.164 117.233 171.264C117.423 171.353 117.482 171.571 117.452 171.766C117.363 172.274 117.245 172.776 117.037 173.254C116.907 173.555 116.93 173.762 117.257 173.98C117.962 174.464 117.962 174.7 117.286 175.167C116.883 175.438 116.646 175.556 117.274 175.875C118.105 176.3 118.099 176.43 117.571 177.198C117.476 177.334 117.399 177.475 117.292 177.593C117.043 177.859 117.085 178.095 117.292 178.367C117.879 179.111 119.001 179.394 119.849 178.999C121.029 178.449 121.759 176.879 121.338 175.645C120.655 173.655 119.232 172.168 117.773 170.727C117.411 170.367 116.877 170.284 116.438 170.644C115.252 171.601 113.935 172.404 112.944 173.585C112.114 174.571 111.521 175.669 111.485 176.619L111.479 176.625Z" fill="white"/>
  <path d="M147.021 20.0796C150.177 19.9143 153.564 19.7313 156.957 19.5601C158.849 19.4656 160.735 19.3888 162.627 19.2944C165.035 19.1704 167.432 18.9047 169.822 18.5859C172.883 18.1726 175.95 17.7652 179.01 17.3401C181.199 17.039 183.364 16.5785 185.523 16.1121C187.054 15.7815 188.608 15.6575 190.156 15.4627C192.487 15.1675 194.759 14.6125 197.048 14.1579C203.727 12.8295 210.205 10.7867 216.563 8.38963C220.733 6.81916 224.797 4.983 228.717 2.86345C230.04 2.14907 231.203 1.19852 232.377 0.26568C232.52 0.153503 232.65 -0.0767542 232.869 0.0472306C233.071 0.159407 232.982 0.389665 232.994 0.57269C233.047 1.39925 232.84 2.1963 232.555 2.94611C231.659 5.31953 230.568 7.58668 228.972 9.59405C227.602 11.3239 225.87 12.5166 223.788 13.2368C223.45 13.3549 222.845 13.2959 222.869 13.7387C222.892 14.0929 223.468 14.1165 223.836 14.2287C226.546 15.0848 228.705 16.5844 229.518 19.4479C229.927 20.8885 229.655 22.27 228.694 23.4744C227.792 24.608 226.754 25.5704 225.402 26.1667C224.974 26.3556 224.856 26.3733 224.909 25.8183C225.034 24.5313 224.583 23.3918 223.711 22.4412C222.246 20.8412 220.395 20.0029 218.26 19.6663C216.397 19.3711 214.553 19.4892 212.702 19.7077C211.213 19.8789 209.73 20.0442 208.247 20.2508C206.248 20.5283 204.255 20.8353 202.262 21.1364C199.563 21.5438 196.865 21.9807 194.142 22.2405C191.224 22.5121 188.311 22.8781 185.393 23.1497C182.67 23.4036 179.959 23.7814 177.237 24.0058C173.239 24.3423 169.241 24.6139 165.237 24.8028C160.605 25.0213 155.978 25.2516 151.345 25.0921C148.089 24.98 144.826 24.9032 141.57 24.6493C139.002 24.4486 136.421 24.3896 133.853 24.1652C132.133 24.0176 130.413 23.8464 128.692 23.6575C127.85 23.5689 127.002 23.5807 126.166 23.3977C124.546 23.0375 124.19 22.0516 124.712 20.546C124.908 19.9792 125.59 19.6545 126.231 19.7313C132.53 20.5106 138.379 19.0818 143.931 16.1771C145.23 15.4981 146.363 14.5534 147.579 13.7446C147.715 13.656 147.834 13.538 147.97 13.4494C148.16 13.3254 148.368 13.1601 148.587 13.349C148.783 13.5202 148.605 13.7151 148.546 13.8804C147.982 15.38 147.199 16.7556 146.167 17.9896C145.71 18.5328 145.242 19.0759 144.797 19.6368C144.559 19.932 144.637 20.1032 145.034 20.0973C145.621 20.0973 146.208 20.0973 147.033 20.0973L147.021 20.0796Z" fill="white"/>
  <path d="M77.7816 25.1217C75.2251 25.2043 72.1584 24.9564 69.0918 24.8737C65.9006 24.791 62.7094 24.5785 59.5241 24.3128C55.9888 24.0176 52.4536 23.7165 48.9361 23.2265C46.6821 22.9136 44.3925 22.8191 42.1266 22.5829C39.2498 22.2818 36.367 21.963 33.5021 21.5379C30.0617 21.0243 26.6451 20.363 23.1751 20.0442C21.0694 19.8494 18.9815 19.4125 16.8579 19.4833C14.5446 19.5601 12.3321 20.0088 10.4577 21.4966C9.35444 22.3704 8.51215 23.4036 8.28081 24.8324C8.25116 25.0213 8.23336 25.2161 8.19777 25.411C8.14439 25.6944 8.43504 26.0958 8.20963 26.2257C7.8834 26.4146 7.56309 26.0545 7.25464 25.9069C5.93189 25.2516 4.87606 24.242 4.14054 23.0198C3.10844 21.2899 3.22114 19.4538 4.33035 17.783C5.49295 16.0235 7.15974 14.8545 9.20022 14.2464C9.35444 14.1992 9.55018 14.2287 9.66881 14.1461C9.88235 13.9808 10.345 14.087 10.3094 13.6796C10.2798 13.349 9.88828 13.3963 9.67474 13.3372C6.19288 12.3394 4.01005 9.88335 2.37292 6.86049C1.50097 5.23097 0.646817 3.58375 0.29092 1.74759C0.273125 1.65313 0.225672 1.55866 0.21974 1.4642C0.178219 0.985971 -0.0649776 0.318815 0.29092 0.088558C0.664612 -0.153507 1.03237 0.460512 1.36454 0.732098C3.44654 2.43836 5.81919 3.64279 8.23336 4.79407C13.5244 7.30919 18.9815 9.39332 24.5809 11.1409C28.8635 12.4752 33.1996 13.5734 37.6068 14.4531C40.0921 14.949 42.5774 15.4745 45.0984 15.7283C47.9871 16.0176 50.7572 16.8855 53.6281 17.2516C55.7575 17.5232 57.881 17.8184 60.0046 18.1313C62.1637 18.4501 64.3287 18.6981 66.4937 18.9519C68.6647 19.2058 70.8476 19.3475 73.0245 19.4479C77.23 19.6309 81.4355 19.8494 85.6351 20.056C86.4477 20.0973 87.2663 20.0737 88.0848 20.0855C88.5356 20.0914 88.6128 19.9143 88.3458 19.5778C87.9188 19.0464 87.4739 18.5328 87.0349 18.0132C85.9732 16.7616 85.1724 15.3623 84.6089 13.8272C84.5496 13.656 84.3835 13.4553 84.6089 13.3077C84.7987 13.1896 84.9826 13.3018 85.1487 13.414C85.7834 13.8627 86.4181 14.3232 87.0587 14.766C90.7303 17.3047 94.7698 18.8988 99.2007 19.5187C100.328 19.6781 101.443 19.9143 102.588 19.9202C103.222 19.9202 103.608 20.2804 103.839 20.8353C104.509 22.4353 103.709 23.7755 101.935 23.9468C99.9244 24.1357 97.9076 24.2833 95.8909 24.4073C90.0304 24.7615 84.17 25.1217 77.7816 25.1335V25.1217Z" fill="white"/>
  <path d="M174.485 143.037C179.034 143.084 183.263 144.295 187.113 146.644C189.604 148.162 191.823 150.075 192.968 152.873C194.207 155.902 194.106 158.96 192.855 161.971C191.888 164.297 190.69 166.458 188.786 168.206C186.609 170.196 184.195 171.536 181.199 171.861C175.926 172.427 171.181 171.158 166.916 168.058C165.599 167.102 164.715 165.768 163.843 164.439C163.327 163.66 162.829 162.863 162.491 161.983C162.414 161.771 162.331 161.499 162.544 161.351C162.758 161.204 162.983 161.369 163.161 161.517C163.286 161.623 163.398 161.741 163.499 161.865C165.403 164.203 167.984 165.366 170.86 165.951C174.485 166.689 177.367 165.242 179.829 162.751C180.464 162.107 180.861 161.245 181.098 160.359C181.466 159.019 181.87 157.685 181.472 156.256C181.276 155.554 180.998 154.928 180.511 154.385C180.381 154.237 180.072 154.125 180.238 153.847C180.387 153.611 180.677 153.517 180.926 153.57C182.042 153.794 183.169 154.007 184.04 154.827C184.313 155.081 184.598 155.636 184.948 155.371C185.227 155.158 184.912 154.621 184.717 154.272C182.937 151.185 180.28 149.467 176.691 149.396C169.763 149.26 164.253 152.041 160.154 157.585C159.092 159.019 158.001 160.436 157.295 162.101C156.886 163.064 156.583 164.05 156.269 165.035C155.931 166.11 155.634 166.193 154.857 165.407C154.181 164.723 153.362 164.469 152.443 164.669C151.345 164.906 150.343 165.36 149.542 166.193C148.575 167.202 147.591 168.2 146.624 169.21C145.396 170.491 143.937 171.483 142.46 172.433C140.295 173.827 138.047 175.066 135.567 175.852C133.313 176.566 131.018 176.631 128.693 176.489C128.598 176.483 128.479 176.489 128.408 176.442C128.194 176.3 127.868 176.17 127.821 175.976C127.743 175.68 128.129 175.616 128.337 175.503C129.57 174.848 130.852 174.281 132.056 173.573C135.146 171.748 137.744 169.357 140.224 166.801C143.106 163.831 145.687 160.59 148.587 157.644C152.111 154.072 155.794 150.659 160.029 147.914C163.701 145.534 167.717 143.952 172.041 143.208C172.842 143.072 173.666 143.096 174.479 143.049L174.485 143.037Z" fill="white"/>
  <path d="M57.0265 141.986C60.9177 142.092 64.7376 143.108 68.2432 145.251C72.1106 147.613 75.4383 150.612 78.5227 153.906C83.3273 159.043 88.0311 164.274 93.0492 169.198C95.6414 171.742 98.4114 174.039 101.698 175.645C102.273 175.928 102.884 176.147 103.471 176.413C103.625 176.483 103.904 176.489 103.839 176.773C103.768 177.086 103.495 177.186 103.234 177.151C102.326 177.032 101.413 177.133 100.505 176.962C94.7931 175.905 90.036 173.13 85.961 169.086C85.0593 168.194 84.1815 167.273 83.1553 166.511C82.5206 166.039 81.8444 165.667 81.1089 165.39C79.8455 164.912 78.2676 165.295 77.3364 166.287C77.2059 166.429 77.0932 166.6 76.939 166.718C76.4822 167.066 75.9662 166.86 75.9958 166.293C76.1975 162.509 74.2816 159.58 72.0988 156.793C70.2837 154.473 68.2076 152.419 65.4969 151.096C63.486 150.116 61.3685 149.531 59.1678 149.16C57.1926 148.823 55.2174 148.581 53.2659 149.201C49.6654 150.34 47.2571 152.714 46.0649 156.292C46.0234 156.41 46.0174 156.545 46.0233 156.675C46.0233 156.764 46.0589 156.9 46.1183 156.929C46.2428 156.988 46.3555 156.929 46.4326 156.799C46.658 156.398 47.0021 156.085 47.3402 155.784C48.2892 154.934 49.3035 154.19 50.567 153.871C50.739 153.83 50.9585 153.611 51.1008 153.806C51.255 154.024 51.0178 154.207 50.8932 154.391C50.1518 155.53 49.7306 156.799 49.7543 158.128C49.8077 160.684 51.0059 162.721 52.9693 164.315C55.7453 166.571 58.8416 166.86 62.1811 165.779C63.8182 165.248 65.313 164.51 66.6239 163.4C67.0747 163.022 67.5611 162.692 68.1127 162.491C68.5813 162.32 68.7652 162.503 68.7474 163.004C68.7355 163.353 68.5161 163.595 68.35 163.878C66.7425 166.606 64.2572 168.377 61.6176 169.971C59.9152 170.999 57.9934 171.382 56.0715 171.772C53.5387 172.286 51.0178 172.339 48.5146 171.642C43.9651 170.385 40.7561 167.645 39.1901 163.14C37.3513 157.85 38.1877 152.944 41.5687 148.54C43.8287 145.593 46.8894 143.722 50.5077 142.736C52.5778 142.169 54.6894 142.11 57.0087 141.98L57.0265 141.986Z" fill="white"/>
  <path d="M30.1151 146.987C29.9787 146.143 30.4058 145.298 30.6074 144.424C30.9752 142.842 30.3287 142.075 28.6737 142.258C26.7282 142.47 24.8656 143.078 22.9853 143.58C18.1332 144.873 13.5125 146.78 9.02821 149.012C7.83002 149.608 6.6437 150.228 5.77768 151.297C5.5938 151.521 5.3684 151.751 5.0303 151.645C4.63881 151.515 4.65067 151.167 4.64474 150.836C4.60915 149.632 5.05402 148.557 5.53448 147.489C5.62939 147.282 5.74209 147.087 5.84886 146.886C6.03274 146.544 6.37084 146.202 6.35898 145.865C6.34712 145.446 5.75395 145.499 5.44551 145.281C4.03972 144.295 3.07879 142.978 2.50936 141.378C2.24243 140.628 2.31361 140.498 3.11438 140.634C4.57356 140.888 6.03867 140.823 7.50378 140.805C9.36631 140.782 11.217 140.534 13.0083 140.109C19.6755 138.538 26.3604 137.039 32.986 135.273C36.8475 134.24 40.7802 133.473 44.6832 132.611C49.0726 131.642 53.551 131.188 57.97 130.414C62.9051 129.558 67.8818 129.369 72.8702 129.275C73.843 129.257 74.8336 129.21 75.8005 129.375C76.7436 129.54 76.8622 129.877 76.3996 130.709C75.9666 131.483 75.3556 132.115 74.7743 132.77C74.3472 133.254 73.7541 133.337 73.1787 133.384C72.1407 133.473 71.0967 133.526 70.0527 133.573C66.731 133.726 63.433 134.116 60.1469 134.63C56.2914 135.238 52.4477 135.923 48.6692 136.897C45.0628 137.83 41.5394 139.016 38.4609 141.177C36.3374 142.665 34.4749 144.43 33.2352 146.751C32.7488 147.654 32.2742 148.563 32.4818 149.667C32.5708 150.14 32.1971 150.476 31.8294 150.665C31.5209 150.824 31.3133 150.458 31.1413 150.246C30.3939 149.325 30.0973 148.25 30.127 146.981L30.1151 146.987Z" fill="white"/>
  <path d="M161.916 129.269C165.641 129.363 169.366 129.576 173.032 130.149C176.181 130.639 179.331 131.152 182.481 131.642C188.341 132.557 194.095 133.963 199.837 135.391C204.475 136.549 209.114 137.706 213.782 138.739C215.14 139.04 216.469 139.495 217.821 139.825C219.53 140.239 221.297 140.309 223.035 140.581C224.874 140.87 226.736 140.864 228.599 140.799C228.86 140.788 229.121 140.776 229.382 140.74C230.189 140.634 230.45 140.894 230.165 141.614C229.69 142.801 229.4 144.112 228.207 144.885C227.935 145.062 227.691 145.286 227.407 145.44C226.736 145.8 226.736 145.788 227.092 146.491C227.602 147.5 228.136 148.504 228.385 149.626C228.474 150.045 228.498 150.458 228.504 150.884C228.504 151.185 228.48 151.492 228.154 151.622C227.822 151.757 227.585 151.539 227.401 151.309C226.576 150.293 225.467 149.673 224.328 149.106C221.101 147.489 217.803 146.036 214.381 144.879C211.676 143.964 208.948 143.12 206.1 142.724C205.555 142.647 205.033 142.429 204.487 142.34C202.832 142.063 202.144 142.813 202.547 144.413C202.808 145.446 203.17 146.467 203.034 147.565C202.915 148.54 202.69 149.484 202.025 150.252C201.847 150.458 201.64 150.83 201.337 150.677C200.964 150.494 200.59 150.145 200.673 149.685C200.91 148.427 200.317 147.418 199.724 146.432C197.909 143.421 195.281 141.295 192.179 139.701C188.839 137.983 185.239 137.098 181.591 136.371C177.569 135.568 173.548 134.73 169.479 134.216C166.471 133.839 163.446 133.543 160.415 133.443C159.697 133.419 159.015 133.154 158.286 133.154C157.942 133.154 157.71 132.888 157.52 132.611C157.058 131.949 156.583 131.3 156.008 130.721C155.427 130.131 155.61 129.576 156.435 129.422C157.728 129.186 159.039 129.298 160.338 129.281C160.86 129.275 161.382 129.281 161.904 129.281L161.916 129.269Z" fill="white"/>
  <path d="M27.2441 160.159C27.7602 159.958 28.2643 159.722 28.7923 159.568C29.599 159.332 29.9727 159.621 29.9786 160.454C29.9786 161.168 29.9845 161.883 29.9193 162.591C29.8481 163.359 30.1447 163.831 30.7912 164.274C32.9325 165.744 34.6942 167.604 36.1534 169.747C36.2424 169.883 36.3313 170.018 36.4085 170.16C36.5923 170.497 36.6695 170.833 36.3847 171.152C36.0822 171.489 35.75 171.382 35.4119 171.199C32.1021 169.434 28.5075 168.767 24.8121 168.454C22.2793 168.235 19.7287 168.247 17.2078 167.899C14.9716 167.592 12.7887 167.096 10.8491 165.85C7.98413 164.014 6.96982 160.259 8.6722 157.508C9.61533 155.985 11.0508 155.04 12.7413 154.485C15.8554 153.458 18.9398 153.416 21.965 154.827C22.2556 154.963 22.5403 155.128 22.8073 155.312C23.7207 155.926 23.9738 156.746 23.5665 157.774C23.4894 157.974 23.2521 158.222 23.436 158.376C23.5843 158.5 23.8394 158.275 24.041 158.187C24.907 157.803 25.7671 157.419 26.6331 157.047C26.995 156.894 27.3746 156.728 27.7246 157.065C28.0449 157.372 27.8966 157.732 27.7898 158.069C27.6534 158.5 27.4873 158.925 27.3449 159.356C27.256 159.621 27.0484 159.875 27.256 160.176C27.2204 160.153 27.1848 160.129 27.1492 160.106C27.1492 160.117 27.1611 160.135 27.167 160.147C27.2322 160.259 27.1195 160.117 27.2441 160.147V160.159Z" fill="white"/>
  <path d="M223.035 159.32C222.887 162.94 220.354 166.234 216.866 167.125C213.704 167.934 210.489 168.371 207.233 168.548C204.267 168.714 201.325 169.109 198.537 170.213C197.63 170.573 196.77 171.04 195.886 171.459C195.767 171.512 195.66 171.589 195.548 171.654C195.245 171.819 194.937 171.902 194.646 171.636C194.361 171.376 194.522 171.063 194.634 170.827C195.15 169.711 195.755 168.649 196.503 167.657C197.784 165.962 199.374 164.652 201.278 163.725C201.699 163.518 201.883 163.282 201.77 162.821C201.562 161.965 201.705 161.074 201.491 160.212C201.402 159.858 201.473 159.486 201.817 159.255C202.15 159.031 202.363 159.35 202.595 159.48C203.075 159.751 203.579 159.976 203.983 160.371C204.149 160.531 204.368 160.631 204.593 160.501C204.849 160.359 204.813 160.106 204.736 159.893C204.475 159.185 204.38 158.447 204.238 157.714C204.166 157.348 204.172 157 204.487 156.728C204.819 156.445 205.115 156.711 205.394 156.823C206.563 157.313 207.625 157.992 208.686 158.677C208.841 158.777 209.024 159.002 209.196 158.866C209.374 158.718 209.339 158.441 209.238 158.228C208.87 157.49 208.698 156.705 208.597 155.902C208.491 155.069 208.651 154.721 209.416 154.455C213.621 152.985 217.625 153.21 221.255 156.008C222.388 156.882 222.976 158.104 223.047 159.326L223.035 159.32Z" fill="white"/>
  <path d="M137.05 158.163C134.114 158.234 132.589 154.886 133.8 153.056C134.63 151.799 135.923 151.421 137.341 151.421C137.845 151.421 138.367 151.527 138.859 151.722C140.787 152.478 141.517 154.491 140.455 156.262C139.696 157.526 138.521 158.128 137.056 158.169L137.05 158.163Z" fill="white"/>
  <path d="M97.6762 154.261C97.694 156.227 96.1636 158.098 94.5502 158.081C92.7114 158.063 90.9082 156.357 90.9379 154.662C90.9616 153.109 92.7173 151.681 94.6629 151.627C96.1162 151.586 97.6643 152.938 97.6762 154.261Z" fill="white"/>
  <path d="M61.6062 38.8427L61.6242 38.908L61.5703 38.902L61.6062 38.8427Z" fill="white"/>
  <defs>
    <clipPath id="clip0_11_77">
      <rect width="233" height="181" fill="white"/>
    </clipPath>
  </defs>
</svg>
