<svg xmlns="http://www.w3.org/2000/svg" width="1094.11" height="41.96" viewBox="0 0 1094.11 41.96">
  <path d="M13.77,7.07c-3.69,0-6.7,3-6.7,6.69v3.68h25.58v7.07H7.07v17.44H0V13.76C0,6.17,6.17,0,13.77,0h18.89v7.07H13.77Z" style="fill: #dddad9;"/>
  <path d="M92.67,0v23.3c0,10.28-8.37,18.65-18.66,18.65s-18.65-8.37-18.65-18.65V0h7.07v23.3c0,6.39,5.19,11.58,11.58,11.58s11.58-5.2,11.58-11.58V0h7.07Z" style="fill: #dddad9;"/>
  <path d="M152.7,0v41.96h-7.07v-16.15l-16.12-18.14c-.34-.38-.83-.6-1.33-.6h-3.37v34.88h-7.07V0h10.45c2.52,0,4.94,1.08,6.62,2.97l10.84,12.2V0h7.07Z" style="fill: #dddad9;"/>
  <path d="M213.61,17.49v6.98c0,9.65-7.84,17.49-17.49,17.49h-17.49V0h17.49c9.65,0,17.49,7.85,17.49,17.49ZM206.54,17.49c0-5.74-4.67-10.42-10.42-10.42h-10.42v27.81h10.42c5.74,0,10.42-4.67,10.42-10.42v-6.98Z" style="fill: #dddad9;"/>
  <path d="M331.8,0c4.62,0,8.38,3.76,8.38,8.38v33.58h-7.07V8.38c0-.72-.58-1.3-1.3-1.3h-.97c-.56,0-1.06.36-1.24.9l-2.44,7.33c-1.15,3.42-4.35,5.73-7.95,5.73s-6.8-2.3-7.95-5.72l-2.44-7.34c-.17-.53-.67-.89-1.24-.89h-.97c-.72,0-1.31.58-1.31,1.3v33.58h-7.07V8.38c0-4.62,3.76-8.38,8.38-8.38h.97c3.6,0,6.8,2.3,7.95,5.72l2.44,7.34c.36,1.06,2.12,1.07,2.48,0l2.44-7.33c1.15-3.42,4.34-5.73,7.95-5.73h.97Z" style="fill: #dddad9;"/>
  <path d="M378.59,7.07c-3.69,0-6.69,3-6.69,6.69v3.68h25.58v7.07h-25.58v3.68c0,3.69,3,6.69,6.69,6.69h18.89v7.07h-18.89c-7.59,0-13.76-6.17-13.76-13.76v-14.43c0-7.59,6.17-13.76,13.76-13.76h18.89v7.07h-18.89Z" style="fill: #dddad9;"/>
  <path d="M457.33,0v41.96h-7.07v-16.15l-16.12-18.14c-.34-.38-.83-.6-1.33-.6h-3.37v34.88h-7.07V0h10.45c2.52,0,4.94,1.08,6.62,2.97l10.84,12.2V0h7.07Z" style="fill: #dddad9;"/>
  <path d="M516.6,0v7.07h-16.28v34.88h-7.07V7.07h-13.95V0h37.3Z" style="fill: #dddad9;"/>
  <path d="M572.54,41.96h-7.49l-11.6-32.86c-.43-1.21-1.58-2.03-2.87-2.03s-2.44.81-2.86,2.02l-11.6,32.86h-7.49l12.43-35.21c1.42-4.03,5.25-6.75,9.53-6.75s8.11,2.71,9.54,6.75l12.43,35.21Z" style="fill: #dddad9;"/>
  <path d="M624.97,34.89v7.07h-30.33V0h7.08v34.89h23.25Z" style="fill: #dddad9;"/>
  <path d="M722.44,41.96h-7.49l-11.6-32.86c-.43-1.21-1.58-2.03-2.87-2.03s-2.44.81-2.86,2.02l-11.6,32.86h-7.49l12.43-35.21c1.42-4.03,5.25-6.75,9.53-6.75s8.11,2.71,9.54,6.75l12.43,35.21Z" style="fill: #dddad9;"/>
  <path d="M778.31,41.96h-8.38l-8.88-13.96h-8.62c-1.21,0-2.19.98-2.19,2.19v11.77h-7.07v-11.77c0-5.11,4.16-9.26,9.26-9.26h11.72c3.82,0,6.93-3.11,6.93-6.93s-3.11-6.93-6.93-6.93h-20.98V0h20.98c7.72,0,14,6.28,14,14,0,5.99-3.74,11.18-9.27,13.15l9.42,14.8Z" style="fill: #dddad9;"/>
  <path d="M835.2,0v7.07h-16.28v34.88h-7.07V7.07h-13.95V0h37.3Z" style="fill: #dddad9;"/>
  <path d="M857.23,41.96V0h7.07v41.96h-7.07Z" style="fill: #dddad9;"/>
  <path d="M903.46,7.07c-3.69,0-6.7,3-6.7,6.69v3.68h25.58v7.07h-25.58v17.44h-7.07V13.76c0-7.59,6.17-13.76,13.77-13.76h18.88v7.07h-18.88Z" style="fill: #dddad9;"/>
  <path d="M982.65,41.96h-7.49l-11.6-32.86c-.43-1.21-1.58-2.03-2.87-2.03s-2.44.81-2.86,2.02l-11.6,32.86h-7.49l12.43-35.21c1.42-4.03,5.25-6.75,9.53-6.75s8.11,2.71,9.54,6.75l12.43,35.21Z" style="fill: #dddad9;"/>
  <path d="M1031.33,24.56l.12-1.07h7.04l-.1,1.31c-.78,9.62-8.91,17.16-18.51,17.16-10.28,0-18.65-8.37-18.65-18.65v-4.65c0-10.28,8.37-18.65,18.65-18.65,9.6,0,17.73,7.54,18.51,17.16l.1,1.31h-7.04l-.12-1.08c-.65-5.88-5.57-10.32-11.45-10.32-6.39,0-11.58,5.19-11.58,11.58v4.65c0,6.39,5.2,11.58,11.58,11.58,5.88,0,10.8-4.44,11.45-10.32h0Z" style="fill: #dddad9;"/>
  <path d="M1094.11,0v7.07h-16.28v34.88h-7.07V7.07h-13.95V0h37.3Z" style="fill: #dddad9;"/>
  <path d="M241.22,38.24l10.29-29.14c.42-1.21,1.58-2.02,2.86-2.02s2.44.81,2.87,2.03l7,19.84,6.56-2.65-6.9-19.54c-1.42-4.03-5.26-6.75-9.54-6.75s-8.11,2.71-9.53,6.75l-12.36,35.02,8.74-3.53Z" style="fill: #dddad9;"/>
</svg>