<svg xmlns="http://www.w3.org/2000/svg" width="1824.92" height="96" viewBox="0 0 1824.92 96">
  <path d="M103.32,67.96c0,11.56,1.14,18.65,4,26.89h-24.83c2.86-8.24,4.01-15.33,4.01-26.89V30.44l-29.75,36.84L26.43,29.86v38.1c0,11.33,1.14,18.54,4.01,26.89H5.72c2.86-8.24,3.89-15.45,3.89-26.89V11.9C6.86,8.24,3.66,4.81,0,1.49v-.34h25.29c1.72,4.46,3.43,7.55,8.47,13.5l23.11,28.49,25.86-32.04c3.09-3.78,5.26-7.09,6.52-9.95h21.17v.34c-2.86,3.55-4.81,6.86-5.72,9.84s-1.37,6.98-1.37,12.13v44.51Z" fill="#ffffff" />
  <path d="M222.42,94.85h-25.97c.23-.8.34-1.83.34-3.09,0-4-1.26-8.24-4.58-16.36l-2.06-5.03h-36.61l-2.4,5.38c-3.2,7.32-4.58,12.01-4.58,16.02,0,1.03.11,2.06.23,3.09h-25.63v-.34c4.69-5.49,8.35-11.44,13.04-21.63l22.54-48.63c4.46-9.61,7.55-17.28,9.04-23.11h14.76c1.26,5.38,4.12,13.04,8.47,23.11l20.82,48.97c4,9.27,7.21,14.76,12.59,21.28v.34ZM159.6,56.75h25.06l-12.01-29.41-13.04,29.41Z" fill="#ffffff" />
  <path d="M240.26,28.03c0-11.33-1.14-18.54-4.01-26.89h24.83c-2.86,8.35-4.01,15.56-4.01,26.89v39.93c0,11.33,1.14,18.54,4.01,26.89h-24.83c2.86-8.35,4.01-15.56,4.01-26.89V28.03Z" fill="#ffffff" />
  <path d="M372.63,64.3c0,13.16,1.03,21.74,2.97,30.55h-22.08c-.8-2.97-3.32-7.09-7.32-12.47l-37.76-49.77v31.69c0,6.98.23,12.59.8,17.05.57,4.46,1.6,8.92,3.09,13.5h-24.14c1.49-4.69,2.4-9.27,2.97-13.62.57-4.46.92-10.07.92-16.93V14.53c-4.46-5.84-7.55-8.92-12.47-12.93v-.46h27.57c.8,2.4,1.95,4.81,3.2,6.98s3.43,5.15,6.52,9.15l39.36,51.95V31.69c0-6.86-.34-12.47-.92-16.82-.57-4.46-1.49-9.04-2.97-13.73h24.26c-1.49,4.69-2.63,9.15-3.2,13.62-.57,4.46-.8,10.07-.8,16.93v32.61Z" fill="#ffffff" />
  <path d="M422.74,13.62c-11.33,0-21.74,2.75-29.98,7.21l-.23-.23,5.72-19.45h73.34l-7.89,18.42c-6.75-4.01-14.07-5.84-24.14-5.95v54.35c0,11.33,1.14,18.54,4,26.89h-24.83c2.86-8.24,4.01-15.33,4.01-26.89V13.62Z" fill="#ffffff" />
  <path d="M566.44,94.85h-25.97c.23-.8.34-1.83.34-3.09,0-4-1.26-8.24-4.58-16.36l-2.06-5.03h-36.61l-2.4,5.38c-3.2,7.32-4.58,12.01-4.58,16.02,0,1.03.11,2.06.23,3.09h-25.63v-.34c4.69-5.49,8.35-11.44,13.04-21.63l22.54-48.63c4.46-9.61,7.55-17.28,9.04-23.11h14.76c1.26,5.38,4.12,13.04,8.47,23.11l20.82,48.97c4,9.27,7.21,14.76,12.59,21.28v.34ZM503.62,56.75h25.06l-12.01-29.41-13.04,29.41Z" fill="#ffffff" />
  <path d="M584.28,28.03c0-11.33-1.14-18.54-4.01-26.89h24.83c-2.86,8.35-4.01,15.56-4.01,26.89v39.93c0,11.33,1.14,18.54,4.01,26.89h-24.83c2.86-8.35,4.01-15.56,4.01-26.89V28.03Z" fill="#ffffff" />
  <path d="M716.65,64.3c0,13.16,1.03,21.74,2.97,30.55h-22.08c-.8-2.97-3.32-7.09-7.32-12.47l-37.76-49.77v31.69c0,6.98.23,12.59.8,17.05.57,4.46,1.6,8.92,3.09,13.5h-24.14c1.49-4.69,2.4-9.27,2.97-13.62.57-4.46.92-10.07.92-16.93V14.53c-4.46-5.84-7.55-8.92-12.47-12.93v-.46h27.57c.8,2.4,1.95,4.81,3.2,6.98s3.43,5.15,6.52,9.15l39.36,51.95V31.69c0-6.86-.34-12.47-.92-16.82-.57-4.46-1.49-9.04-2.97-13.73h24.26c-1.49,4.69-2.63,9.15-3.2,13.62-.57,4.46-.8,10.07-.8,16.93v32.61Z" fill="#ffffff" />
  <path d="M802.8,13.62c-11.33,0-21.74,2.75-29.98,7.21l-.23-.23,5.72-19.45h73.34l-7.89,18.42c-6.75-4.01-14.07-5.84-24.14-5.95v54.35c0,11.33,1.14,18.54,4,26.89h-24.83c2.86-8.24,4.01-15.33,4.01-26.89V13.62Z" fill="#ffffff" />
  <path d="M943.29,67.96c0,11.33,1.14,18.54,4,26.89h-24.83c2.86-8.35,4.01-15.56,4.01-26.89v-13.27h-38.1v13.27c0,11.33,1.14,18.54,4.01,26.89h-24.83c2.86-8.35,4.01-15.56,4.01-26.89V28.03c0-11.33-1.14-18.54-4.01-26.89h24.83c-2.86,8.35-4.01,15.56-4.01,26.89v13.04h38.1v-13.04c0-11.33-1.14-18.54-4.01-26.89h24.83c-2.86,8.35-4,15.56-4,26.89v39.93Z" fill="#ffffff" />
  <path d="M976.01,28.03c0-11.33-1.14-18.54-4.01-26.89h53.78l-8.12,17.74c-6.64-3.89-14.87-5.95-24.83-6.18v28.38h29.75l-9.5,16.13c-5.38-2.4-12.13-3.78-20.25-4.12v29.63c15.22,0,26.43-1.95,37.76-6.86l.23.23-7.78,18.76h-51.03c2.86-8.35,4.01-15.56,4.01-26.89V28.03Z" fill="#ffffff" />
  <path d="M1088.35,69.91h.46c8.24,9.95,13.5,13.16,20.82,13.16s12.59-4.92,12.59-11.67c0-6.18-3.09-9.38-16.36-17.16-13.27-7.78-18.08-15.45-18.08-27,0-14.19,11.78-27.23,29.18-27.23,6.64,0,12.82,1.37,18.54,4.12v16.93l-.34.11c-6.29-5.61-11.33-7.67-17.62-7.67-7.67,0-12.59,5.03-12.59,11.1s4.01,11.1,15.56,17.85c14.53,8.47,19.57,13.73,19.91,25.97,0,17.28-14.07,27.57-31.58,27.57-7.55,0-14.42-1.26-20.48-3.66v-22.43Z" fill="#ffffff" />
  <path d="M1182.86,13.62c-11.33,0-21.74,2.75-29.98,7.21l-.23-.23,5.72-19.45h73.34l-7.89,18.42c-6.75-4.01-14.07-5.84-24.14-5.95v54.35c0,11.33,1.14,18.54,4,26.89h-24.83c2.86-8.24,4.01-15.33,4.01-26.89V13.62Z" fill="#ffffff" />
  <path d="M1326.56,94.85h-25.97c.23-.8.34-1.83.34-3.09,0-4-1.26-8.24-4.58-16.36l-2.06-5.03h-36.61l-2.4,5.38c-3.2,7.32-4.58,12.01-4.58,16.02,0,1.03.11,2.06.23,3.09h-25.63v-.34c4.69-5.49,8.35-11.44,13.04-21.63l22.54-48.63c4.46-9.61,7.55-17.28,9.04-23.11h14.76c1.26,5.38,4.12,13.04,8.47,23.11l20.82,48.97c4,9.27,7.21,14.76,12.59,21.28v.34ZM1263.75,56.75h25.06l-12.01-29.41-13.04,29.41Z" fill="#ffffff" />
  <path d="M1427.24,64.3c0,13.16,1.03,21.74,2.97,30.55h-22.08c-.8-2.97-3.32-7.09-7.32-12.47l-37.76-49.77v31.69c0,6.98.23,12.59.8,17.05.57,4.46,1.6,8.92,3.09,13.5h-24.14c1.49-4.69,2.4-9.27,2.97-13.62.57-4.46.92-10.07.92-16.93V14.53c-4.46-5.84-7.55-8.92-12.47-12.93v-.46h27.57c.8,2.4,1.95,4.81,3.2,6.98s3.43,5.15,6.52,9.15l39.36,51.95V31.69c0-6.86-.34-12.47-.92-16.82-.57-4.46-1.49-9.04-2.97-13.73h24.26c-1.49,4.69-2.63,9.15-3.2,13.62-.57,4.46-.8,10.07-.8,16.93v32.61Z" fill="#ffffff" />
  <path d="M1459.95,28.03c0-11.33-1.37-18.42-4.69-26.66,7.67-.57,13.73-.92,18.31-.92,38.9,0,60.53,18.76,60.53,46.8.46,29.52-24.14,47.83-56.18,47.6h-21.97c2.86-8.35,4.01-15.56,4.01-26.89V28.03ZM1477.46,12.01c-.46,4.46-.69,10.07-.69,16.82v36.27c0,7.44.34,13.5.91,18.19,22.54-1.26,36.73-13.27,36.73-34.9s-14.19-35.24-36.96-36.38Z" fill="#ffffff" />
  <path d="M1644.96,94.85h-25.97c.23-.8.34-1.83.34-3.09,0-4-1.26-8.24-4.58-16.36l-2.06-5.03h-36.61l-2.4,5.38c-3.2,7.32-4.58,12.01-4.58,16.02,0,1.03.11,2.06.23,3.09h-25.63v-.34c4.69-5.49,8.35-11.44,13.04-21.63l22.54-48.63c4.46-9.61,7.55-17.28,9.04-23.11h14.76c1.26,5.38,4.12,13.04,8.47,23.11l20.82,48.97c4,9.27,7.21,14.76,12.59,21.28v.34ZM1582.14,56.75h25.06l-12.01-29.41-13.04,29.41Z" fill="#ffffff" />
  <path d="M1730.3,94.85h-14.65c-3.55-1.37-7.78-5.15-12.93-11.21-6.64-8.12-14.3-18.65-23.11-31.81v16.13c0,11.33,1.14,18.54,4,26.89h-24.83c2.86-8.35,4.01-15.56,4.01-26.89V28.03c0-11.33-1.14-18.54-4.01-26.89h23c24.03,0,37.07,12.13,37.07,27.23,0,10.87-5.72,19.22-17.05,25.06,3.78,6.64,7.67,12.93,11.9,18.99,4.23,5.95,9.84,13.27,16.59,21.97v.46ZM1679.62,11.33v38.79c14.3-3.32,21.97-10.76,21.97-19.79,0-11.44-9.61-18.99-21.97-18.99Z" fill="#ffffff" />
  <path d="M1750.77,28.03c0-11.33-1.37-18.42-4.69-26.66,7.67-.57,13.73-.92,18.31-.92,38.9,0,60.53,18.76,60.53,46.8.46,29.52-24.14,47.83-56.18,47.6h-21.97c2.86-8.35,4.01-15.56,4.01-26.89V28.03ZM1768.28,12.01c-.46,4.46-.69,10.07-.69,16.82v36.27c0,7.44.34,13.5.92,18.19,22.54-1.26,36.73-13.27,36.73-34.9s-14.19-35.24-36.96-36.38Z" fill="#ffffff" />
</svg>