<svg xmlns="http://www.w3.org/2000/svg" width="1170.75" height="96.82" viewBox="0 0 1170.75 96.82">
  <path d="M30.35,11.52H0V1.71h71.76v9.81h-30.2v83.59h-11.21V11.52Z" fill="#ffffff" />
  <path d="M126.38,1.71h11.36v42.03h40.78V1.71h11.21v93.39h-11.21v-41.56h-40.78v41.56h-11.36V1.71Z" fill="#ffffff" />
  <path d="M252.92,1.71h58.37v9.49h-47.16v31.44h41.72v9.65h-41.72v33.31h46.85v9.5h-58.06V1.71Z" fill="#ffffff" />
  <path d="M402.5,0c23.19,0,36.27,17.28,36.27,48.25s-13.08,48.57-36.27,48.57-36.42-17.43-36.42-48.57S379.15,0,402.5,0ZM402.5,87.01c16.81,0,25.06-12.76,25.06-38.76s-8.25-38.45-25.06-38.45-25.22,12.61-25.22,38.45,8.25,38.76,25.22,38.76Z" fill="#ffffff" />
  <path d="M496.03,1.71h30.66c21.01,0,30.04,9.81,30.04,27.55,0,14.32-6.69,23.97-18.99,27.55l23.04,35.18v3.11h-12.3l-22.1-36.89h-19.15v36.89h-11.21V1.71ZM525.61,49.03c12.92,0,19.92-6.38,19.92-19.61s-4.98-18.37-20.08-18.37h-18.21v37.98h18.37Z" fill="#ffffff" />
  <path d="M607.47,1.71h11.52l26,55.88h3.74l26.15-55.88h11.21v3.11l-33.62,61.48v28.8h-11.21v-28.95l-33.78-61.33V1.71Z" fill="#ffffff" />
  <path d="M866.77,1.71h11.36v83.59h48.25v9.81h-59.62V1.71Z" fill="#ffffff" />
  <path d="M1004.68,1.71h17.28l30.04,93.39h-11.83l-8.25-27.09h-37.51l-8.25,27.09h-11.52L1004.68,1.71ZM1029.11,58.84l-3.74-12.3c-3.58-11.36-7-25.22-9.18-35.34h-5.76c-2.65,10.27-6.23,23.82-9.65,35.34l-3.74,12.3h32.07Z" fill="#ffffff" />
  <path d="M1103.97,1.71h33.78c18.99,0,29.11,8.25,29.11,23.66,0,12.3-8.56,19.46-20.55,21.64v1.87c16.5,1.25,24.44,7.63,24.44,20.7,0,15.57-10.27,25.53-29.73,25.53h-37.05V1.71ZM1139.93,43.9c9.18,0,16.19-6.23,16.19-17.12,0-10.27-5.76-16.34-17.59-16.34h-23.35v33.47h24.75ZM1140.86,86.39c12.76,0,18.99-6.38,18.99-17.12,0-9.81-4.05-16.66-18.83-16.66h-25.84v33.78h25.68Z" fill="#ffffff" />
</svg>