<svg width="536" height="127" viewBox="0 0 536 127" fill="none" xmlns="http://www.w3.org/2000/svg">
<g clip-path="url(#clip0_11_148)">
<path d="M0 2.62604H20.7262C20.7262 2.62604 16.7547 7.48281 17.7897 10.7814L43.8725 107.593L69.7815 10.7814C70.6453 7.31082 66.8451 2.62604 66.8451 2.62604H87.5712C87.5712 2.62604 82.9072 7.13627 82.0434 10.7814L53.3718 115.921C52.508 119.391 56.3082 124.076 56.3082 124.076H31.263C31.263 124.076 35.0632 119.219 34.1994 115.921L5.52783 10.7814C4.66402 7.13627 0 2.62604 0 2.62604Z" fill="white"/>
<path d="M99.6648 115.918V10.7814C99.6648 7.48538 95.5195 2.62604 95.5195 2.62604H116.246C116.246 2.62604 112.1 7.48281 112.1 10.7814V115.921C112.1 119.217 116.246 124.076 116.246 124.076H95.5195C95.5195 124.076 99.6648 119.219 99.6648 115.921V115.918Z" fill="white"/>
<path d="M163.399 2.62604C185.508 2.62604 203.816 13.7309 203.816 37.6734C203.816 59.3594 191.897 66.126 173.588 71.5039C181.534 91.9758 190.862 105.856 212.625 112.622C220.397 115.051 227.826 115.918 234.734 115.918C254.77 115.918 269.626 108.459 269.626 108.459C263.063 119.91 242.335 124.246 229.554 124.246C222.991 124.246 216.254 123.378 208.654 121.643C182.055 115.744 169.79 98.3933 160.117 75.1465C152.691 76.8818 146.989 77.9214 146.989 77.9214V115.918C146.989 119.214 151.134 124.074 151.134 124.074H130.408C130.408 124.074 134.553 119.217 134.553 115.918V10.7814C134.553 7.48538 130.408 2.62604 130.408 2.62604H163.399ZM184.128 55.1957C189.482 52.4208 191.209 45.6542 191.209 38.0199C191.209 20.6695 179.119 14.252 163.228 14.252H146.992V66.3006C146.992 66.3006 169.1 62.83 184.128 55.1957ZM208.135 20.8441V2.62604H268.072V19.9764L265.136 17.3735C263.927 16.5058 261.681 14.9451 260.127 14.9451H244.581V89.3754C244.581 90.5896 246.135 93.018 247.172 94.4067L249.59 97.3562H226.444L228.861 94.4067C229.899 93.018 231.624 90.5896 231.624 89.3754V14.9451H216.078C213.315 14.9451 211.243 17.2015 211.243 17.2015L208.133 20.8441H208.135Z" fill="white"/>
<path d="M299.538 2.77493C299.538 2.77493 295.392 7.63171 295.392 10.9303V82.7577C295.392 98.3728 300.746 112.425 318.539 112.425C336.331 112.425 341.511 98.1982 341.511 82.7577V10.9303C341.511 7.63427 337.366 2.77493 337.366 2.77493H358.44C358.44 2.77493 354.295 7.63171 354.295 10.9303V82.9322C354.295 106.528 343.931 124.225 318.539 124.225C293.146 124.225 282.783 106.528 282.783 82.9322V10.9303C282.783 7.63427 278.638 2.77493 278.638 2.77493H299.538Z" fill="white"/>
<path d="M370.876 63.5C370.876 45.9776 375.195 30.8836 384.004 18.5646C392.811 6.24552 403.521 0 415.957 0C428.393 0 439.274 6.24552 448.084 18.5646C456.893 30.8836 461.212 45.9776 461.212 63.5C461.212 81.0224 456.893 96.1164 448.084 108.435C439.274 120.754 428.566 127 415.957 127C403.347 127 392.811 120.754 384.001 108.435C375.192 96.1164 370.873 81.0224 370.873 63.5H370.876ZM415.957 115.377C439.967 115.377 448.603 82.4111 448.603 63.5C448.603 44.5889 439.967 11.6234 415.957 11.6234C391.947 11.6234 383.485 44.5889 383.485 63.5C383.485 82.4111 392.121 115.377 415.957 115.377Z" fill="white"/>
<path d="M472.437 96.4655C472.437 85.8817 480.208 75.4725 491.264 75.4725C494.2 75.4725 496.792 75.9936 498.864 77.3798C502.665 79.9827 502.838 83.6253 502.838 83.6253C502.838 83.6253 498.519 81.5435 495.757 81.3689C488.33 81.3689 484.356 88.6566 484.356 95.2487C484.356 106.179 493.339 112.771 503.702 112.771C515.448 112.771 523.393 104.965 523.393 93.1669C523.393 83.7973 518.039 74.7769 511.129 68.7033C507.674 65.5793 503.873 62.4578 499.728 58.8152C495.583 55.3446 491.783 52.0486 488.327 48.9271C481.42 42.6816 476.063 34.0051 476.063 24.4636C476.063 9.02302 488.154 0 502.836 0C508.882 0 515.79 2.60294 521.144 5.55243C523.217 6.76662 524.426 7.28773 524.599 7.28773C525.463 7.28773 527.71 6.07353 527.71 6.07353V24.9847C527.71 24.9847 512.683 11.4514 503.873 11.4514C495.928 11.4514 488.501 16.1362 488.501 24.8101C488.501 31.2302 494.029 39.0364 505.256 48.2315C519.593 58.8152 536.003 72.5205 536.003 91.7781C536.003 111.036 522.874 124.223 503.876 124.223C487.64 124.223 472.439 113.813 472.439 96.4629L472.437 96.4655Z" fill="white"/>
</g>
<defs>
<clipPath id="clip0_11_148">
<rect width="536" height="127" fill="white"/>
</clipPath>
</defs>
</svg>
