<?xml version="1.0" encoding="utf-8"?>
<!-- Generator: Adobe Illustrator 16.0.0, SVG Export Plug-In . SVG Version: 6.00 Build 0)  -->
<svg version="1.2" baseProfile="tiny" id="Layer_1" xmlns="http://www.w3.org/2000/svg" xmlns:xlink="http://www.w3.org/1999/xlink"
	 x="0px" y="0px" width="15.978px" height="25.979px" viewBox="-0.5 -0.5 15.978 25.979" xml:space="preserve">
<g>
	<path fill="#263037" stroke="#263037" stroke-width="3" stroke-miterlimit="10" d="M13.706,12.948
		c0.056-0.021,0.104-0.055,0.146-0.097c0.116-0.117,0.129-0.262,0.125-0.334c0.005-0.124-0.006-0.271-0.122-0.386
		c-0.045-0.045-0.095-0.076-0.152-0.103l-0.149-0.094L1.789,1.147C1.688,1.047,1.574,1,1.453,1S1.217,1.047,1.132,1.132
		S1,1.331,1,1.452s0.047,0.235,0.132,0.32l11.688,10.72L1.119,23.225c-0.161,0.162-0.161,0.448,0.016,0.627
		c0.169,0.169,0.469,0.171,0.641-0.001L13.706,12.948z"/>
</g>
</svg>
