<?xml version="1.0" encoding="utf-8"?>
<!-- Generator: Adobe Illustrator 16.0.0, SVG Export Plug-In . SVG Version: 6.00 Build 0)  -->
<svg version="1.2" baseProfile="tiny" id="Layer_1" xmlns="http://www.w3.org/2000/svg" xmlns:xlink="http://www.w3.org/1999/xlink"
	 x="0px" y="0px" width="28.018px" height="28.019px" viewBox="0 0 28.018 28.019" xml:space="preserve">
<path fill="#D0D0D0" d="M28.018,0.987V0.982c-0.001-0.251-0.097-0.502-0.288-0.694c-0.385-0.384-1.008-0.384-1.392,0l-12.33,12.329
	L1.679,0.288c-0.383-0.384-1.006-0.384-1.391,0c-0.384,0.385-0.384,1.008,0,1.391l12.329,12.33L0.288,26.338
	c-0.384,0.385-0.384,1.008,0,1.393c0.385,0.384,1.008,0.384,1.391,0L14.008,15.4l12.33,12.33c0.384,0.384,1.007,0.384,1.392,0
	c0.191-0.191,0.287-0.442,0.288-0.693v-0.006c-0.001-0.251-0.097-0.502-0.288-0.693L15.4,14.009l12.329-12.33
	C27.921,1.488,28.017,1.238,28.018,0.987z"/>
</svg>
