<?xml version="1.0" encoding="utf-8"?>
<!-- Generator: Adobe Illustrator 16.0.0, SVG Export Plug-In . SVG Version: 6.00 Build 0)  -->
<!DOCTYPE svg PUBLIC "-//W3C//DTD SVG 1.1//EN" "http://www.w3.org/Graphics/SVG/1.1/DTD/svg11.dtd">
<svg version="1.1" id="Layer_1" xmlns="http://www.w3.org/2000/svg" xmlns:xlink="http://www.w3.org/1999/xlink" x="0px" y="0px"
	 width="622.756px" height="248.276px" viewBox="34.426 269.904 622.756 248.276"
	 enable-background="new 34.426 269.904 622.756 248.276" xml:space="preserve">
<path fill="#B39346" d="M578.582,344.209c0.317-0.016,0.415-0.231,0.622-0.349c0.1-0.112,0.187-0.539-0.234-0.416
	c-0.205,0.117-0.308,0.229-0.404,0.446C578.466,344.002,578.368,344.219,578.582,344.209z"/>
<path fill="#B39346" d="M575.635,369.676c0.213-0.01,0.414-0.233,0.511-0.451c0.188-0.539,0.375-1.081,0.354-1.505
	c-0.023-0.531-0.343-0.517-0.768-0.497c-0.213,0.01-0.42,0.128-0.409,0.34c-0.081,0.535-0.161,1.071-0.238,1.712
	C575.082,369.275,575.417,369.579,575.635,369.676z"/>
<path fill="#B39346" d="M578.24,352.736c0.852-0.039,1.052-0.262,1.224-1.12c0.095-0.217-0.13-0.525-0.444-0.405
	c-0.526,0.131-0.937,0.471-1.127,0.904C577.689,352.34,577.922,352.753,578.24,352.736z"/>
<path fill="#B39346" d="M576.413,356.868c0.42-0.126,0.723-0.46,1.112-1.224c0.49-0.875-0.479-1.147-0.899-1.022
	c-0.312,0.123-0.617,0.457-0.925,0.684c-0.207,0.116-0.405,0.444-0.5,0.663C575.239,356.817,575.989,356.887,576.413,356.868z"/>
<path fill="#B39346" d="M569.45,441.585c0.714-0.672,0.693-1.096-0.094-2.018c-0.109-0.101-0.322-0.091-0.312,0.122
	c0.024,0.53-0.057,1.063-0.021,1.81C569.026,441.606,569.35,441.696,569.45,441.585z"/>
<circle fill="#B39346" cx="566.58" cy="439.38" r="0.319"/>
<path fill="#B39346" d="M573.798,375.827c-0.947,0.258-1.675,0.611-2.408,0.858c-0.105,0.006-0.202,0.223-0.09,0.324
	c0.114,0.207,0.231,0.413,0.237,0.52c-0.461,1.511-0.927,2.917-1.933,4.135c-0.905,1.105-1.271,2.4-1.625,3.908
	c0.011,0.213,0.121,0.312,0.332,0.304c0.421-0.128,0.513-0.45,0.604-0.774c0.182-0.647,0.247-1.5,0.764-1.846
	c0.729-0.353,1.134-0.798,1.229-1.014c0.8-1.102,1.814-2.108,1.755-3.383c0.052-1.173,0.34-1.823,1.271-2.4
	c0.105-0.006,0.095-0.218,0.086-0.43C574.018,376.03,574.009,375.816,573.798,375.827z"/>
<path fill="#B39346" d="M559.706,399.691c0.005,0.105,0.01,0.213,0.01,0.213c0.329,0.198,0.763,0.392,1.093,0.588
	c0,0,0.201-0.223,0.3-0.334c-0.326-0.197-0.549-0.398-0.872-0.49C560.131,399.672,559.917,399.681,559.706,399.691z"/>
<path fill="#B39346" d="M570.7,362.14c0.21-0.116,0.417-0.232,0.518-0.344c0.404-0.445,0.697-0.99,1.108-1.329
	c0.515-0.346,1.678-0.506,1.87-0.941c0.097-0.218-0.02-0.424-0.231-0.413c-0.536-0.081-1.062,0.05-1.587,0.181
	c-0.422,0.124-0.729,0.353-1.034,0.688c-0.504,0.556-0.909,1-1.201,1.546C569.943,361.855,570.081,362.488,570.7,362.14z"/>
<path fill="#B39346" d="M563.19,383.352c-0.006-0.106-0.322-0.089-0.534-0.08c-0.106,0.004-0.208,0.115-0.205,0.222
	c0.009,0.213,0.026,0.53,0.036,0.743c0.005,0.106,0.111,0.102,0.218,0.096C563.014,384.105,563.539,383.972,563.19,383.352z"/>
<path fill="#B39346" d="M562.649,383.165c0.207-0.116,0.41-0.339,0.618-0.455c0.202-0.223-0.133-0.525-0.329-0.197
	C562.726,382.523,562.635,382.846,562.649,383.165C562.544,383.171,562.544,383.171,562.649,383.165z"/>
<path fill="#B39346" d="M564.714,379.556c-0.321-0.092-0.535-0.082-0.849,0.039c-0.521,0.237-0.273,0.971,0.358,0.835
	c0.211-0.01,0.419-0.125,0.629-0.241C565.052,379.965,565.038,379.646,564.714,379.556z"/>
<path fill="#B39346" d="M595.347,433.338c-0.6,0.883-0.588,1.094-0.224,2.036c0.006,0.104,0.225,0.201,0.319-0.016
	c0.287-0.652,0.384-0.87,0.222-2.034C595.661,433.217,595.445,433.122,595.347,433.338z"/>
<path fill="#B39346" d="M559.925,384.039c-0.111-0.102-0.217-0.096-0.318,0.015c-0.292,0.544-0.587,1.09-1.082,1.859
	c-0.101,0.112,0.01,0.215,0.115,0.209c0.521-0.237,0.834-0.358,1.147-0.479c0.312-0.12,0.85-0.041,1.035-0.58
	c-0.004-0.107-0.01-0.214-0.115-0.209C560.585,384.538,560.257,384.342,559.925,384.039z"/>
<path fill="#B39346" d="M564.779,389.979c-0.005-0.105-0.109-0.1-0.211,0.01c-0.404,0.447-0.92,0.79-1.427,1.346l-0.099,0.11
	c0.014,0.319,0.024,0.531,0.135,0.632c0.224,0.202,0.456,0.618,0.773,0.602c0.43,0.087,0.734-0.247,0.605-0.666
	c-0.245-0.732,0.481-1.086,0.559-1.729C565.114,390.284,564.896,390.189,564.779,389.979z"/>
<path fill="#B39346" d="M564.832,373.059c-0.207,0.115-0.312,0.121-0.519,0.235c-0.107,0.007,0.004,0.106,0.009,0.213
	c0.316-0.014,0.424-0.021,0.519-0.237C564.943,373.161,564.934,372.947,564.832,373.059z"/>
<circle fill="#B39346" cx="563.332" cy="442.726" r="0.213"/>
<circle fill="#B39346" cx="567.439" cy="441.788" r="0.213"/>
<circle fill="#B39346" cx="563.406" cy="439.744" r="0.425"/>
<circle fill="#B39346" cx="563.139" cy="436.352" r="0.32"/>
<circle fill="#B39346" cx="558.518" cy="399.323" r="0.532"/>
<circle fill="#B39346" cx="559.143" cy="401.314" r="0.426"/>
<circle fill="#B39346" cx="561.514" cy="377.153" r="0.318"/>
<circle fill="#B39346" cx="567.634" cy="376.013" r="0.212"/>
<circle fill="#B39346" cx="573.65" cy="363.702" r="0.212"/>
<circle fill="#B39346" cx="576.336" cy="361.98" r="0.319"/>
<ellipse transform="matrix(-0.9989 0.047 -0.047 -0.9989 1145.1052 723.2863)" fill="#B39346" cx="564.055" cy="375.096" rx="0.426" ry="0.213"/>
<path fill="#B39346" d="M656.495,439.178c-0.517,0.344-1.033,0.688-1.441,1.027c-0.207,0.114-0.616,0.454-0.909,0.999
	c-0.29,0.652-1.25,0.592-1.979,0.944c-2.296,0.96-4.36,2.335-6.534,3.608c-4.97,2.895-9.938,5.896-15.484,7.862
	c-1.154,0.373-2.195,0.847-3.352,1.114c-2.204,0.636-4.399,1.485-6.487,2.328c-0.315,0.121-0.517,0.344-0.831,0.466
	c-0.312,0.12-0.718,0.564-1.684,0.399c-0.43-0.087-0.858-0.173-1.496-0.144c-1.268,0.166-2.311,0.642-3.23,1.431
	c-0.512,0.45-1.021,0.898-1.669,0.718c-1.405-0.468-2.775-0.189-4.046-0.023c-1.161,0.162-2.441,0.116-3.441-0.794
	c-1.439-1.209-2.886-2.525-4.128-4.062c-1.814-2.36-2.162-5.218-2.72-7.958c-0.412-2.002-0.405-4.132-0.606-6.146
	c-0.015-0.315-0.046-0.954-0.674-0.712c-0.838,0.253-0.939,0.364-0.914,0.896c0.08,1.698-0.261,3.522,0.67,5.182
	c0.237,0.521,0.378,1.259,0.304,1.9c-0.117,2.028,0.704,3.692,1.113,5.588c0.131,0.527,0.369,1.045,0.485,1.256
	c0.471,0.933,0.302,1.898,0.03,2.87c-0.086,0.43-0.673,1.521-1.968,1.156c-0.54-0.188-0.979-0.485-1.53-0.886
	c-0.881-0.597-1.871-1.295-2.75-1.892l0,0c-0.328-0.198-0.87-0.385-0.621,0.348c0.006,0.107,0.01,0.212,0.12,0.314
	c0.005,0.105,0.031,0.637-0.606,0.666c-0.108,0.006-0.213,0.01-0.319,0.016c-0.536-0.081-0.446-0.405-0.247-0.734
	c0.298-0.439,0.597-0.879,0.795-1.207c0.383-0.869-0.611-1.675-0.445-2.64c0.088-0.43-0.03-0.636-0.236-0.521
	c-0.527,0.129-0.708,0.778-0.703,0.884c-0.092,0.324-0.082,0.536-0.173,0.86c-0.075,0.641-0.562,1.623-1.219,1.229
	c-0.545-0.293-0.064-1.382,0.031-1.599c0.476-1.193,0.521-2.471-0.066-3.615c-0.236-0.521-0.144-0.845-0.045-0.955
	c0.192-0.436,0.487-0.98,0.781-1.526c0.095-0.217,0.084-0.431-0.137-0.631c-0.444-0.406-0.89-0.812-1.44-1.209
	c-0.109-0.102-0.115-0.208-0.015-0.319c0.804-0.994,0.765-1.844,0.19-2.774c-0.468-0.829-0.729-1.882-1.801-2.044
	c-0.105,0.005-0.535-0.081-0.611,0.562c-0.086,0.428-0.179,0.752-0.48,1.085c-0.5,0.661-1.003,1.324-1.726,1.784
	c-0.719,0.565-1.708-0.133-1.648-1.093c-0.046-0.957,0.233-1.82,1.058-2.391c0.825-0.57,1.422-1.451,1.913-2.326
	c0.292-0.545,0.804-0.996,1.203-1.547c0.198-0.328,0.395-0.657,0.693-1.096c0.095-0.218,0.082-0.535-0.036-0.744
	c-0.448-0.511-0.792-1.025-1.237-1.431c-0.116-0.207-0.434-0.193-0.642-0.075c-0.415,0.231-0.723,0.459-1.137,0.691
	c-0.102,0.11-0.311,0.228-0.417,0.231c-0.525,0.131-2.491-0.945-3.048-1.451c-0.557-0.505-0.495-1.467,0.573-1.409
	c0.959,0.059,2.037,0.329,2.997,0.391c0.961,0.061,1.578-0.395,1.745-1.359c0.066-0.854,0.127-1.814,0.082-2.771
	s-0.2-2.014,0.284-2.994c0.49-0.875,0.658-1.84,0.289-2.888c-0.124-0.418,0.061-0.96,0.259-1.287
	c0.801-1.102,0.761-1.952-0.14-2.973c-0.45-0.511-0.586-1.145-0.404-1.792c0.184-0.647,0.824-0.571,1.35-0.701
	c0.945-0.257,1.108-1.328,0.335-1.932c-0.334-0.304-0.66-0.5-0.99-0.698c-0.218-0.095-0.339-0.408-0.242-0.627
	c0.09-0.323,0.187-0.54,0.282-0.758c0.299-0.439,0.702-0.886,1.002-1.324c0.586-1.092,0.334-1.932-0.763-2.624
	c-0.552-0.399-0.687-1.031-0.505-1.677c0.484-0.981,1.118-1.119,1.891-0.518c0.334,0.305,0.566,0.719,1.207,0.794
	c0.213-0.01,0.42-0.125,0.41-0.337c0.188-0.541,0.272-0.972,0.459-1.513c0.104-0.109-0.014-0.315-0.024-0.53
	c-0.115-0.207-0.12-0.312-0.231-0.415c-0.772-0.603-1.031-1.548-0.969-2.509c0.06-0.96,1.014-1.005,1.415-1.556
	c0,0,0.102-0.11,0.096-0.218c0.096-0.216-0.024-0.53-0.349-0.621c-0.219-0.096-0.544-0.293-0.763-0.389
	c-0.216-0.097-0.43-0.086-0.643-0.076c-0.839,0.252-1.122,1.009-1.85,1.363c-0.314,0.12-0.644-0.076-0.552-0.398
	c0.066-0.855,0.138-1.603,0.319-2.25c0.177-0.753,0.683-1.309,1.416-1.555c0.739-0.143,0.874,0.488,1.314,0.789
	c0.111,0.101,0.216,0.096,0.323,0.091c0.104-0.008,0.313-0.122,0.308-0.229c0.087-0.429,0.168-0.964,0.475-1.194
	c0.306-0.331,0.825-0.569,1.239-0.801c0.101-0.11,0.202-0.224,0.192-0.436c-0.723-1.774-0.94-1.871-2.33-2.019
	c-0.964-0.167-1.911,0.091-2.74,0.557l0,0l0,0c-0.207,0.116-0.414,0.231-0.618,0.454c-0.408,0.339-0.819,0.678-1.43,1.239
	c-0.101,0.11-0.318,0.014-0.323-0.091c-0.024-0.532-0.041-0.85,0.167-0.966c0.612-0.561,1.446-0.92,1.841-1.577
	c0.896-1.319,2.266-1.596,3.54-1.655c0.318-0.015,0.535,0.079,0.759,0.281c0.111,0.101,0.228,0.309,0.23,0.417
	c0.229,0.307,0.354,0.727,0.68,0.818c0.328,0.198,0.756,0.283,1.07,0.162c0.208-0.115,0.399-0.551,0.49-0.873
	c-0.006-0.107-0.01-0.213,0.09-0.325c-0.005-0.106-0.014-0.319-0.126-0.42c-0.894-0.915-1.89-1.722-2.683-2.746
	c-0.224-0.202-0.358-0.835-0.151-0.95c0.197-0.329,0.823-0.571,1.144-0.585c0.43,0.083,0.762,0.389,1.203,0.687
	c0.222,0.203,0.536,0.081,0.628-0.242c0.187-0.54,0.378-0.978,0.569-1.41c0.098-0.217,0.082-0.536-0.134-0.631
	c-0.223-0.204-0.331-0.306-0.557-0.509c-0.221-0.199-0.236-0.52-0.141-0.737c0.589-1.092,1.174-2.184,1.862-3.388
	c0.096-0.216,0.187-0.539,0.072-0.748c-0.232-0.413-0.471-0.935-0.707-1.457c-0.122-0.311-0.03-0.637,0.282-0.757
	c1.047-0.368,0.894-1.318,0.854-2.169c-0.015-0.316-0.349-0.621-0.667-0.606c-0.955,0.045-0.662-0.5-0.561-0.612
	c0.703-0.885,0.972-1.962,1.896-2.643c0.928-0.683,1.508-1.883,2.296-3.195c0.3-0.439,0.38-0.976,0.254-1.396
	c-0.155-1.057-0.425-2.214-0.691-3.371c-0.126-0.421-0.374-1.155,0.647-2.054c1.225-1.123,2.129-2.229,2.256-4.045
	c0.066-0.854,0.456-1.617,0.405-2.68c-0.146-0.845,0.127-1.815,0.406-2.678c0.193-0.437,0.495-0.77,0.802-1.104
	c0.307-0.227,0.393-0.657,0.266-1.076c-0.498-1.573-0.574-3.165,0.2-4.798c0.977-1.855,1.847-3.705,2.171-5.849
	c0.092-0.323,0.29-0.651,0.486-0.98c0.497-0.768,0.991-1.536,1.487-2.306c0.097-0.216,0.193-0.433,0.076-0.641
	c-0.127-0.42-0.254-0.84-0.268-1.159c-0.021-0.425,0.269-1.075,0.587-1.09c1.045-0.368,1.654-1.035,2.245-2.021
	c0.198-0.327,0.284-0.759,0.158-1.177c-0.253-0.842-0.405-1.791,0.623-2.586c0.308-0.226,0.38-0.974,0.353-1.505
	c0.081-0.536-0.054-1.167,0.355-1.507c0.819-0.677,0.774-1.632,0.84-2.485c0.072-0.749,0.36-1.401,0.756-2.06
	c0.394-0.659,1.005-1.217,1.107-1.329c1.17-2.288-1.145-3.988,0.145-5.965c0.409-0.339,0.834-0.358,1.254-0.485
	c0.318-0.015,0.521-0.237,0.612-0.562c0.369-1.186,0.955-2.277,1.107-3.562c0.148-1.392,0.628-2.477,1.763-3.276
	c1.026-0.794,1.285-2.083,1.032-2.921c-0.732-1.989,0.071-2.984,1.634-3.695c0,0,0,0,0.105-0.006c0.204-0.221,0.188-0.54,0.07-0.747
	c-0.109-0.101-0.222-0.202-0.227-0.309c-0.222-0.202-0.231-0.414-0.141-0.737c0.264-1.184,0.632-2.371,1.771-3.065
	c0.515-0.343,0.682-1.307,0.864-1.954c0.188-0.541,0.057-1.067,0.139-1.604c0.085-0.43,0.274-0.971,0.359-1.399
	c0.096-0.217-0.02-0.424-0.236-0.52c-0.754-0.178-0.467-0.83-0.384-1.365c0.091-0.325-0.137-0.632-0.353-0.729
	c-0.871-0.386-1.74-0.769-2.605-1.048c-1.621-0.561-3.243-1.124-4.974-1.679c-1.082-0.375-2.165-0.75-3.351-1.119
	c-0.219-0.097-0.426,0.02-0.628,0.242c-0.198,0.329-0.289,0.653-0.713,0.672c-1.057,0.156-1.669,0.719-2.277,1.386
	c-1.512,1.772-3.027,3.441-4.541,5.214c-1.103,1.438-2.199,2.977-3.3,4.519c-1.096,1.542-2.407,3.096-3.281,4.837
	c-0.881,1.639-2.206,2.872-2.979,4.504c-1.163,2.396-3.09,4.402-4.365,6.697c-1.366,2.619-3.161,5.149-4.64,7.666
	c-0.396,0.658-0.891,1.426-1.286,2.085c-0.096,0.218-0.08,0.533,0.036,0.742c0.111,0.103,0.228,0.31,0.231,0.416
	c0.228,0.307,0.031,0.637-0.282,0.758c-0.312,0.122-0.626,0.244-0.944,0.258c-0.208,0.114-0.415,0.231-0.513,0.45
	c-0.979,1.75-2.072,3.396-2.947,5.14c-1.762,3.273-3.745,6.349-5.071,9.816c-0.473,1.3-1.052,2.498-1.849,3.705
	c-0.894,1.32-1.673,2.846-2.021,4.459c-0.269,1.076-0.653,1.947-1.14,2.927c-0.395,0.657-0.79,1.313-1.072,2.072
	c-0.572,1.41-1.028,3.028-1.706,4.443c-1.062,2.284-1.797,4.767-3.294,6.857c-0.297,0.439-0.485,0.981-0.672,1.521
	c-0.943,2.599-1.778,5.193-2.614,7.785c-0.277,0.864-0.985,1.644-0.836,2.594c0.012,0.212-0.079,0.537-0.28,0.758
	c-1.332,1.126-1.469,2.73-1.611,4.226c-0.163,1.073-0.977,1.857-0.821,2.913c0.004,0.107,0.132,0.526-0.262,1.183
	c-0.293,0.546-0.583,1.198-0.771,1.739c-0.612,2.795-1.442,5.497-2.385,8.094c-0.086,0.431-0.065,0.854-0.046,1.279
	c0.01,0.212,0.03,0.637-0.269,1.076c-0.606,0.668-0.243,1.608-0.633,2.37c-0.575,1.304-0.836,2.595-0.877,3.979
	c0.065,1.38-0.618,2.689-0.663,3.97c0.009,0.211-0.088,0.428-0.078,0.642c0.007,0.106,0.112,0.102,0.118,0.208
	c0.006,0.104,0.006,0.104,0.015,0.317c0.471,0.937-0.025,1.704-0.522,2.473c-0.298,0.439-0.598,0.88-1.002,1.324
	c-0.298,0.439-0.162,1.07,0.277,1.369c0.217,0.097,0.328,0.199,0.546,0.292c0.219,0.097,0.678,0.82-0.359,1.402
	c-0.208,0.114-0.524,0.129-0.844,0.145c-0.106,0.005-0.313,0.122-0.304,0.334c0.228,2.544-0.305,4.802-0.836,7.063
	c-0.093,0.323-0.29,0.651-0.598,0.88c-0.719,0.564-1.543,1.135-2.039,1.905c-0.885,1.53-2.114,2.547-3.338,3.669
	c-0.921,0.787-1.4,1.876-2.21,2.766c-0.814,0.783-2.191,0.954-2.889,1.945c-1.498,2.093-4.586,4.258-5.84,4.744
	c-1.883,0.729-3.288,0.261-4.117-1.508c-0.358-0.834-0.402-1.79-0.23-2.649c0.173-0.86,0.445-1.831-0.337-2.644
	c-0.224-0.201-0.354-0.728-0.155-1.057c0.479-1.086,0.43-2.147,0.161-3.306c-0.271-1.264,0.006-2.129,0.203-2.458
	c0.693-1.098,0.532-2.259-0.165-3.504c-0.343-0.515-0.257-0.944-0.286-1.582c0.046-1.279,0.091-2.558,0.132-3.944
	c0.062-0.96,0.451-1.723,0.851-2.274c0.303-0.332,0.386-0.87,0.249-1.502c-0.323-2.326-0.438-4.766,0.52-7.049
	c0.287-0.65,0.363-1.293,0.33-2.035c-0.168-1.27,0.117-2.028,0.314-2.356c0.789-1.313,1.047-2.604,0.87-4.085
	c-0.151-0.952-0.096-2.02,0.497-3.006c0.196-0.328,0.177-0.752,0.163-1.07c-0.171-1.376-0.449-2.745,0.026-3.938
	c0.289-0.653,0.445-1.833,0.543-2.049c0.156-1.177,0.637-2.264,1.333-3.255c0.601-0.882,1.09-1.752,1.146-2.822
	c0.202-2.456,0.619-4.923,1.465-7.305c0.192-0.434,0.172-0.86,0.253-1.395c0.163-1.072-0.095-2.018-0.773-2.837
	c-0.786-0.921-1.576-1.841-2.358-2.655c-0.229-0.309-0.794-1.026-0.925-1.553c-0.377-1.26-1.769-1.407-2.956-1.775
	c-0.865-0.277-1.635-0.775-2.396-1.162c-0.546-0.294-1.325-1.001-2.581-0.517c-0.625,0.24-1.242,0.697-1.875,0.831
	c-1.572,0.499-3.261,0.794-4.593,1.919c-0.511,0.45-1.258,0.38-1.81-0.021c-0.551-0.397-0.994-0.803-1.338-1.317
	c-0.692-1.139-1.279-2.28-1.864-3.424c-0.469-0.935-1.137-1.541-2.118-2.027c-1.415-0.679-2.831-1.357-4.241-1.928
	c-0.546-0.295-1.198-0.582-1.541-1.098c-0.562-0.613-1.204-0.688-1.957-0.866c-1.076-0.267-2.145-0.324-3.316-0.376
	c-2.239-0.106-4.461,0.212-6.537-0.965c-0.327-0.199-0.964-0.169-1.278-0.047c-0.84,0.253-1.677,0.504-2.4,0.964
	c-0.31,0.229-0.295,0.547-0.289,0.652c0.004,0.106,0.021,0.425-0.409,0.339c-0.105,0.004-0.537-0.08-0.844,0.146
	c-0.204,0.222-0.305,0.334-0.506,0.557c-4.509,5.958-9.021,11.812-13.194,18.076c-2.287,3.406-4.241,7.116-6.415,10.626
	c-1.771,3.063-3.436,6.119-4.988,9.28c-1.935,4.135-4.298,8.186-6.231,12.319c-1.927,4.24-3.633,8.686-5.344,13.023
	c-0.479,1.086-0.743,2.271-1.226,3.357c-2.293,5.535-3.716,11.454-5.573,17.183c-0.091,0.322-0.456,1.618-0.401,2.785
	c0.05,1.061-0.541,2.048-0.81,3.126c-0.902,3.447-1.272,6.869,0.792,10.071c0.117,0.207,0.244,0.627,0.359,0.835
	c0.005,0.105,0.015,0.318,0.126,0.42c0.12,0.312,0.332,0.302,0.44,0.296c0.105-0.005,0.105-0.005,0.218,0.097
	c0.11,0.101,0.656,0.396,0.768,0.496c0.338,0.408,0.565,0.719,0.485,1.253c0.005,0.104,0.014,0.317,0.231,0.414
	c0.329,0.197,0.229,0.31,0.455,0.619c0.116,0.207,0.541,0.187,0.865,0.276c0.111,0.102,0.227,0.31,0.332,0.305
	c0.218,0.097,0.233,0.414,0.558,0.505c0.211-0.01,0.424-0.02,0.637-0.03c0.217,0.096,0.327,0.198,0.337,0.411
	c0.017,0.317,0.548,0.292,0.548,0.292c0.534,0.08,1.269-0.166,2.017-0.095c0.536,0.079,0.549,0.398,1.085,0.479
	c0.325,0.092,0.627-0.24,1.17-0.055c0.103-0.005,0.428,0.087,0.752,0.179c0.322,0.091,1.512,0.459,1.839,0.658
	c0.435,0.191,0.335,0.303,0.877,0.489c0.429,0.086,0.853,0.067,1.283,0.152c1.611,0.352,3.208,0.382,4.573-0.003
	c1.048-0.367,2.029,0.117,2.351,0.208c0.43,0.087,0.86,0.174,1.176,0.052c1.367-0.278,2.729-0.768,3.754-1.561
	c1.129-0.904,2.383-1.388,3.642-1.769c0.836-0.358,1.78-0.617,2.392-1.176c1.422-1.452,2.732-3.002,4.042-4.555
	c0.405-0.444,0.688-1.203,0.556-1.729c-0.149-0.95,0.244-1.606,0.856-2.168c0.607-0.666,1.21-1.44,1.93-2.007
	c0.719-0.564,1.004-1.217,1.071-2.072c0.071-0.747,0.359-1.399,0.754-2.057c0.795-1.208,1.371-2.512,1.942-3.924
	c0.38-0.977,0.967-2.067,2.004-2.648c0.83-0.465,1.538-1.243,2.523-0.651c0.769,0.496,0.6,1.462,0.535,2.317
	c-0.069,0.747-0.249,1.5-0.006,2.128c0.241,0.628,0.267,1.157,0.085,1.805c-0.557,1.729-0.595,5.455-0.191,7.244
	c0.127,0.421,0.354,0.729,0.586,1.146c0.46,0.722,0.282,1.476,0.41,1.895c0.253,0.84,0.92,1.446,1.59,2.16
	c0.562,0.61,1.435,1.102,1.381,2.168c-0.065,0.854,0.363,0.939,0.58,1.035c1.069,0.163,1.045,1.867,2.122,2.136
	c0.323,0.091,0.775,0.602,0.794,1.025c0.146,0.847,0.596,1.355,1.254,1.751c0.873,0.49,1.652,1.197,2.629,1.579
	c3.143,1.234,6.352,1.615,9.73,1.03c2.008-0.308,3.908-0.611,5.653,0.265c0.76,0.282,1.067,0.057,1.274-0.06
	c0.416-0.232,0.742-0.036,0.961,0.06c0.545,0.293,1.182,0.263,1.287,0.258c1.486-0.071,2.867-0.136,4.334-0.629
	c0.728-0.354,1.577-0.395,2.419-0.54c0.739-0.142,1.472-0.388,1.861-1.152c0.486-0.982,1.316-1.445,2.256-1.81
	c1.669-0.718,3.333-1.54,5.104-2.369c1.356-0.595,1.431-1.238,1.523-1.561c0.383-0.871,0.985-1.643,2.027-2.118
	c0.521-0.237,0.815-0.783,1.223-1.121c0.911-1.001,1.822-2,2.84-3.007c0.915-0.896,2.103-0.524,2.481,0.734
	c0.005,0.105,0.009,0.212,0.014,0.316c0.378,1.26,0.651,2.525,1.029,3.784c1.137,3.776,2.866,6.566,3.224,7.402
	c0.471,0.937,0.945,1.978,1.521,2.91c0.924,1.551,1.535,3.225,2.875,4.543c2.127,2.242,4.046,4.599,6.574,6.288
	c1.647,1.095,2.472,2.757,3.239,3.252c0.769,0.496,1.279,0.046,1.147-0.479c-0.014-0.319-0.247-0.733-0.155-1.058
	c-0.021-0.425,0.606-0.668,1.899-0.304c0.648,0.185,1.4,0.36,1.852,0.87c0.224,0.204,0.688,1.031-0.374,1.082
	c-1.062,0.05-0.816,0.782-0.698,0.992c0.47,0.935,1.115,1.117,1.547,1.201c0.217,0.096,0.524-0.128,0.515-0.34
	c0.086-0.432-0.046-0.957,0.592-0.985c0.639-0.032,1.279,0.044,1.426,0.889c0.025,0.53-0.607,0.666-0.801,1.102
	c-0.101,0.11-0.187,0.541,0.668,0.608c0.961,0.061,1.926,0.228,2.703,0.936c0.224,0.201,0.54,0.187,0.76,0.283
	c1.807-0.085,3.552,0.895,5.442,0.382c0.422-0.126,0.957-0.046,1.393,0.147c0.875,0.491,1.486-0.069,1.997-0.519
	c0.208-0.118,0.419-0.128,0.631-0.137c1.076,0.267,2.049,0.541,3.016,0.708c0.965,0.168,1.475-0.28,1.683-0.398
	c1.143-0.585,2.326-0.322,3.6-0.383c0.742-0.036,1.37-0.277,1.983-0.839c0.308-0.228,0.834-0.357,1.254-0.483
	c0.53-0.025,1.064,0.056,1.598,0.03c0.843-0.147,1.693-0.187,2.421-0.542c0.312-0.12,1.663-0.821,2.089-0.842
	c1.051-0.263,1.986-0.734,2.918-1.31c1.552-0.924,3.341-1.326,4.673-2.454c0.202-0.224,1.228-1.016,2.274-1.385
	c0.839-0.253,1.67-0.717,2.514-0.862c1.259-0.378,2.397-1.071,3.201-2.065c0.708-0.777,1.421-1.452,2.249-1.917
	c0.521-0.237,0.925-0.681,1.225-1.119c1.922-2.115,4.177-3.924,6.551-5.524c0.516-0.344,1.04-0.476,1.339-0.916
	c1.933-1.9,4.323-3.077,6.596-4.568c0.824-0.571,1.765-0.933,2.257-1.81c0.201-0.222,0.267-1.075,0.884-1.529
	c1.542-1.138,2.857-2.583,4.735-3.416c1.562-0.714,2.791-1.73,3.898-3.059c1.901-2.535,4.259-4.458,6.494-6.691
	C657.172,439.998,657.732,438.375,656.495,439.178z M584.853,393.609c0.197-0.328,0.617-0.455,0.813-0.783
	c-0.006-0.106,0.213-0.011,0.218,0.096c0.02,0.425-0.49,0.875-0.805,0.995C584.868,393.928,584.755,393.826,584.853,393.609z
	 M533.395,369.861c0.104-0.006,0.216,0.095,0.222,0.202c0.004,0.105-0.096,0.217-0.203,0.223c-0.105,0.005-0.218-0.097-0.22-0.203
	C533.293,369.97,533.289,369.865,533.395,369.861z M527.288,368.979c0.105-0.007,0.217,0.095,0.223,0.201
	c0.005,0.105-0.096,0.217-0.203,0.223c-0.107,0.004-0.217-0.096-0.222-0.202C527.08,369.094,527.18,368.983,527.288,368.979z
	 M524.11,362.529c0.105-0.005,0.219,0.097,0.223,0.203c0.006,0.106-0.095,0.218-0.203,0.223c-0.106,0.006-0.216-0.096-0.222-0.202
	C523.903,362.647,524.003,362.536,524.11,362.529z M524.586,399.647c0.105-0.005,0.217,0.096,0.221,0.202
	c0.005,0.106-0.094,0.218-0.203,0.224c-0.105,0.006-0.217-0.096-0.221-0.203C524.377,399.763,524.479,399.652,524.586,399.647z
	 M461.057,406.478c-0.106,0.005-0.216-0.096-0.223-0.204c-0.005-0.105,0.095-0.217,0.203-0.22c0.106-0.006,0.219,0.095,0.222,0.201
	C461.266,406.361,461.164,406.472,461.057,406.478z M461.026,394.56c-0.213,0.009-0.435-0.193-0.445-0.404
	c-0.01-0.214,0.193-0.438,0.404-0.446c0.213-0.011,0.437,0.192,0.446,0.404C461.441,394.328,461.345,394.546,461.026,394.56z
	 M466.344,398.99c-0.212,0.011-0.323-0.092-0.333-0.303c-0.01-0.213,0.092-0.322,0.303-0.333c0.212-0.01,0.322,0.091,0.333,0.302
	C466.658,398.869,466.556,398.981,466.344,398.99z M469.296,391.615c-0.106,0.006-0.217-0.095-0.225-0.202
	c-0.004-0.105,0.097-0.216,0.204-0.222c0.106-0.004,0.217,0.096,0.224,0.202C469.396,391.504,469.402,391.612,469.296,391.615z
	 M490.923,360.584c0.105-0.005,0.218,0.096,0.223,0.203c0.005,0.106-0.096,0.218-0.204,0.224c-0.105,0.005-0.217-0.095-0.221-0.203
	C490.715,360.701,490.816,360.589,490.923,360.584z M489.676,367.987c0.211-0.012,0.434,0.193,0.443,0.404
	c0.01,0.214-0.192,0.437-0.404,0.446c-0.213,0.009-0.435-0.192-0.444-0.405C489.154,368.224,489.356,368.002,489.676,367.987z
	 M487.412,365.114c0.104-0.005,0.216,0.097,0.222,0.202c0.004,0.107-0.095,0.218-0.201,0.223s-0.219-0.096-0.223-0.201
	C487.203,365.232,487.305,365.12,487.412,365.114z M484.748,353.745c0.105-0.004,0.216,0.098,0.223,0.205
	c0.004,0.105-0.097,0.218-0.202,0.223c-0.106,0.005-0.219-0.097-0.224-0.204C484.539,353.863,484.641,353.752,484.748,353.745z
	 M484.257,363.666c0.105-0.005,0.111,0.102,0.111,0.102c0.004,0.105-0.101,0.11-0.101,0.11c-0.106,0.006-0.11-0.102-0.11-0.102
	C484.151,363.673,484.257,363.666,484.257,363.666z M483.606,363.378c0.105-0.005,0.217,0.097,0.221,0.202
	c0.006,0.104-0.095,0.216-0.202,0.223c-0.105,0.005-0.217-0.097-0.223-0.203C483.29,363.501,483.498,363.383,483.606,363.378z
	 M483.642,364.123c0.211-0.012,0.326,0.196,0.331,0.302c0.01,0.213-0.197,0.329-0.302,0.333c-0.213,0.011-0.329-0.197-0.335-0.304
	C483.325,364.243,483.428,364.132,483.642,364.123z M484.276,368.559c0.005,0.106-0.09,0.324-0.198,0.329
	c-0.105,0.006-0.217-0.095-0.227-0.308c-0.006-0.106,0.091-0.323,0.197-0.329C484.154,368.247,484.271,368.455,484.276,368.559z
	 M483.37,369.667c0.107-0.005,0.219,0.098,0.223,0.204c0.005,0.105-0.094,0.218-0.202,0.222c-0.106,0.006-0.217-0.096-0.222-0.201
	C483.157,369.677,483.265,369.674,483.37,369.667z M482.307,396.748c0.106-0.005,0.218,0.096,0.223,0.201
	c0.005,0.107-0.095,0.22-0.203,0.225c-0.104,0.005-0.217-0.096-0.222-0.205C482.1,396.865,482.307,396.748,482.307,396.748z
	 M477.354,366.226c0.106-0.005,0.217,0.096,0.223,0.203c0.006,0.108-0.095,0.218-0.202,0.223c-0.107,0.007-0.218-0.095-0.224-0.202
	C477.147,366.343,477.249,366.233,477.354,366.226z M474.944,387.306c0.213-0.01,0.324,0.091,0.333,0.303
	c0.011,0.212-0.091,0.324-0.302,0.333c-0.214,0.011-0.324-0.09-0.334-0.304C474.632,387.427,474.838,387.31,474.944,387.306z
	 M473.5,392.801c0.106-0.005,0.219,0.098,0.225,0.203c0.005,0.106-0.097,0.217-0.205,0.222c-0.105,0.006-0.216-0.095-0.222-0.202
	C473.293,392.917,473.396,392.806,473.5,392.801z M492.981,392.945c-0.399,0.55-0.799,1.102-0.653,1.945
	c0.005,0.106,0.017,0.319-0.085,0.432c-0.592,0.984-0.647,2.053-1.239,3.037c-0.299,0.44-0.6,0.88-0.36,1.4
	c0.004,0.106,0.009,0.213,0.014,0.318c-0.38,0.976-0.542,2.047-0.92,3.024c-0.091,0.323-1.539,3.479-1.73,3.912
	c-5.222,11.101-8.506,15.938-10.64,18.062c-2.14,2.016-3.692,0.706-3.493-1.857c0.223-2.033,0.442-4.172,1.092-6.225
	c0.277-0.863,0.344-1.717,0.521-2.47c2.375-8.309,5.491-14.414,6.291-15.516c1.096-1.54,1.978-3.18,2.964-4.82
	c1.188-1.868,3.675-5.602,6.13-5.399c1.279,0.044,1.977,1.29,2.214,1.811C493.651,391.317,493.478,392.177,492.981,392.945z
	 M494.824,362.103c0.106-0.005,0.217,0.097,0.224,0.201c0.006,0.106-0.097,0.218-0.203,0.223s-0.218-0.096-0.224-0.202
	C494.616,362.22,494.718,362.109,494.824,362.103z M493.995,362.567c-0.211,0.01-0.321-0.091-0.332-0.303
	c-0.01-0.213,0.091-0.323,0.302-0.333c0.213-0.01,0.324,0.091,0.335,0.303C494.309,362.446,494.209,362.557,493.995,362.567z
	 M494.924,364.225c-0.316,0.016-0.54-0.187-0.555-0.505c-0.014-0.317,0.187-0.54,0.506-0.557c0.317-0.014,0.54,0.188,0.556,0.507
	S495.137,364.216,494.924,364.225z M495.272,358.038c-0.107,0.005-0.218-0.095-0.225-0.203c-0.005-0.104,0.096-0.216,0.204-0.222
	c0.105-0.005,0.217,0.096,0.223,0.202C495.479,357.923,495.378,358.033,495.272,358.038z M498.953,393.194
	c-0.105,0.006-0.217-0.095-0.22-0.203c-0.006-0.106,0.095-0.217,0.2-0.221c0.107-0.005,0.218,0.095,0.223,0.201
	C499.16,393.079,499.059,393.19,498.953,393.194z M500.447,404.511c-0.107,0.005-0.218-0.095-0.224-0.204
	c-0.005-0.105,0.095-0.216,0.202-0.221c0.106-0.005,0.218,0.096,0.224,0.201C500.76,404.39,500.659,404.502,500.447,404.511z
	 M500.18,369.618c-0.105,0.005-0.217-0.095-0.223-0.203c-0.005-0.105,0.095-0.216,0.203-0.222c0.105-0.005,0.216,0.097,0.222,0.202
	C500.387,369.504,500.288,369.614,500.18,369.618z M502.178,369.098c-0.101,0.111-0.202,0.223-0.409,0.338
	c-0.209,0.117-0.416,0.232-0.622,0.349c-0.214,0.011-0.536-0.08-0.339-0.41c0.303-0.332,0.606-0.666,1.243-0.696
	C502.372,368.665,502.274,368.882,502.178,369.098z M503.412,361.378c-0.214,0.011-0.435-0.192-0.445-0.404
	c-0.01-0.213,0.191-0.436,0.403-0.445c0.214-0.01,0.436,0.191,0.445,0.404C503.83,361.254,503.624,361.368,503.412,361.378z
	 M507.306,403.338c-0.211,0.01-0.323-0.091-0.332-0.304c-0.011-0.213,0.091-0.323,0.302-0.334c0.214-0.01,0.324,0.092,0.335,0.305
	C507.62,403.214,507.413,403.332,507.306,403.338z M511.594,372.38c-0.106,0.005-0.112-0.101-0.112-0.101l0.102-0.11
	c0.105-0.005,0.109,0.1,0.109,0.1L511.594,372.38z M513.519,392.933c-0.104,0.004-0.222-0.203-0.337-0.41
	c-0.015-0.318-0.024-0.53,0.082-0.536c0.104-0.005,0.222,0.202,0.337,0.41C513.718,392.605,513.628,392.927,513.519,392.933z
	 M517.391,384.767c-0.425,0.021-0.647-0.182-0.976-0.379c-0.223-0.202-0.458-0.724-0.146-0.846c0.207-0.114,0.314-0.12,0.526-0.13
	c0.317-0.014,0.439,0.299,0.551,0.399c0.12,0.314,0.337,0.409,0.555,0.506C518.217,384.198,518.135,384.733,517.391,384.767z
	 M519.57,361.042c-0.105,0.005-0.216-0.095-0.222-0.202c-0.006-0.106,0.096-0.219,0.201-0.225c0.106-0.005,0.219,0.097,0.224,0.204
	S519.677,361.038,519.57,361.042z M521.664,396.38c-0.106,0.005-0.217-0.095-0.223-0.204c-0.005-0.105,0.095-0.216,0.204-0.221
	c0.105-0.005,0.217,0.096,0.221,0.201C521.871,396.262,521.77,396.376,521.664,396.38z M523.123,391.203
	c-0.107,0.005-0.218-0.096-0.224-0.202c-0.005-0.104,0.096-0.217,0.204-0.224c0.105-0.004,0.216,0.097,0.221,0.204
	C523.33,391.086,523.227,391.199,523.123,391.203z M577.954,398.51c-0.105,0.005-0.216-0.096-0.223-0.201
	c-0.005-0.106,0.098-0.217,0.203-0.223s0.218,0.095,0.221,0.201C578.161,398.394,578.059,398.506,577.954,398.51z M577.8,392.985
	c-0.106,0.005-0.323-0.091-0.333-0.302c-0.01-0.215,0.091-0.325,0.302-0.335c0.106-0.005,0.323,0.091,0.334,0.305
	C578.114,392.865,577.905,392.979,577.8,392.985z M578.516,376.669c-0.104,0.005-0.216-0.095-0.22-0.204
	c-0.005-0.105,0.096-0.217,0.201-0.222c0.106-0.005,0.217,0.096,0.222,0.202C578.724,376.552,578.626,376.664,578.516,376.669z
	 M580.318,403.507c-0.213,0.011-0.216-0.096-0.223-0.202c-0.015-0.317-0.141-0.738,0.178-0.753c0.21-0.01,0.216,0.097,0.221,0.202
	c0.011,0.215-0.09,0.325-0.076,0.643L580.318,403.507z M580.854,403.589c-0.213,0.011-0.324-0.092-0.334-0.304
	c-0.012-0.212,0.091-0.321,0.304-0.332c0.212-0.011,0.321,0.091,0.332,0.302C581.165,403.468,581.065,403.579,580.854,403.589z
	 M582.236,374.259c-0.105,0.006-0.218-0.096-0.222-0.203c-0.006-0.105,0.095-0.217,0.202-0.222c0.105-0.005,0.217,0.095,0.222,0.202
	C582.444,374.141,582.448,374.249,582.236,374.259z M585.283,389.227c-0.106,0.005-0.217-0.096-0.224-0.204
	c-0.005-0.105,0.097-0.217,0.203-0.223c0.106-0.005,0.217,0.095,0.224,0.202C585.49,389.109,585.39,389.221,585.283,389.227z
	 M585.354,386.242c-0.212,0.011-0.435-0.191-0.444-0.404c-0.011-0.213,0.192-0.434,0.403-0.444c0.214-0.01,0.438,0.192,0.447,0.404
	C585.77,386.01,585.566,386.233,585.354,386.242z M585.782,379.518c-0.212,0.012-0.321-0.09-0.332-0.303
	c-0.009-0.213,0.091-0.323,0.303-0.333c0.213-0.011,0.324,0.09,0.334,0.303C586.096,379.396,585.995,379.509,585.782,379.518z
	 M587.452,342.724c-0.173,0.861-0.578,1.305-1.528,1.457c-0.317,0.015-0.651-0.288-0.561-0.612c0.187-0.539,0.375-1.082,0.779-1.524
	C586.967,341.473,587.527,342.083,587.452,342.724z M586.746,336.799c0.524-0.13,1.051-0.262,1.471-0.387
	c0.427-0.021,0.753,0.177,0.668,0.605c0.014,0.318-0.288,0.653-0.603,0.774c-0.525,0.131-1.056,0.155-1.718-0.347
	C586.34,337.245,586.432,336.92,586.746,336.799z M583.637,334.073c0.193-0.436,0.729-0.354,1.163-0.162
	c0.44,0.299,0.981,0.486,1.422,0.785l0.11,0.101c0.12,0.314-0.176,0.754-0.501,0.662c-0.318,0.015-0.642-0.076-0.959-0.061
	c-0.214,0.01-0.531,0.025-0.85,0.04c-0.319,0.015-0.653-0.288-0.668-0.606C583.45,334.615,583.436,334.296,583.637,334.073z
	 M582.467,325.084c0.107-0.006,0.325,0.09,0.334,0.305c0.012,0.21-0.09,0.321-0.304,0.33c-0.104,0.005-0.32-0.09-0.331-0.302
	S582.257,325.094,582.467,325.084z M581.016,325.895c0.105-0.004,0.217,0.097,0.223,0.203c0.004,0.106-0.097,0.217-0.203,0.222
	c-0.105,0.006-0.217-0.096-0.22-0.202C580.809,326.012,580.804,325.907,581.016,325.895z M580.894,336.862
	c0.111,0.101,0.224,0.202,0.233,0.415c0.116,0.208-0.09,0.323-0.096,0.218c-0.217-0.096-0.327-0.198-0.334-0.304
	C580.577,336.878,580.894,336.862,580.894,336.862z M579.089,339.181c-0.006-0.104,0.208-0.114,0.214-0.009
	c0.006,0.106,0.12,0.313,0.021,0.425c0.005,0.105-0.096,0.217-0.215,0.011C579.108,339.608,579.098,339.394,579.089,339.181z
	 M572.343,345.036c0.105-0.006,0.216,0.096,0.222,0.202c0.005,0.105-0.096,0.217-0.202,0.222c-0.107,0.005-0.218-0.096-0.222-0.201
	C572.24,345.147,572.235,345.04,572.343,345.036z M570.871,345.423c0.1-0.11,0.312-0.12,0.414-0.231
	c0.213-0.01,0.435,0.191,0.015,0.318c-0.099,0.111-0.312,0.121-0.42,0.125C570.78,345.747,570.664,345.541,570.871,345.423z
	 M569.218,346.459c0.104-0.005,0.217,0.095,0.223,0.203c0.004,0.105-0.097,0.217-0.203,0.223c-0.107,0.006-0.218-0.096-0.224-0.201
	C568.904,346.581,569.004,346.469,569.218,346.459z M554.829,393.324c0.202-0.223,0.617-0.454,0.647,0.183
	c0.02,0.426-0.076,0.642-0.26,1.288c-0.09,0.324-0.409,0.339-0.636,0.03C554.339,394.198,554.531,393.764,554.829,393.324z
	 M553.242,391.27c0.105-0.005,0.111,0.103,0.111,0.103l-0.101,0.11l-0.111-0.101C553.14,391.383,553.135,391.275,553.242,391.27z
	 M552.344,399.295c0.211-0.01,0.323,0.09,0.431,0.086c0.317-0.014,0.435,0.192,0.01,0.212c-0.214,0.011-0.421,0.126-0.534-0.08
	C552.243,399.405,552.344,399.295,552.344,399.295z M553.583,412.007c-0.293,0.545-0.693,1.095-1.437,1.129
	c-1.38,0.065-1.223-1.111-1.024-1.439c0.287-0.653,0.803-0.997,1.43-1.239c0.313-0.12,0.743-0.034,0.965,0.169
	C553.749,411.04,553.876,411.459,553.583,412.007z M563.426,451.448c-0.141-0.737,0.034-1.49-0.53-2.209
	c-0.116-0.207-0.327-0.197-0.535-0.08c-0.42,0.126-0.729,0.354-1.146,0.479c-0.421,0.128-0.542-0.187-0.238-0.519
	c1.432-1.239,1.675-2.847,0.952-4.621c-0.358-0.835-0.404-1.791-0.555-2.741c-0.131-0.527-0.051-1.062,0.243-1.607
	c0.201-0.225,0.288-0.652,0.167-0.967c-0.146-0.844-0.5-1.572-0.645-2.415c-0.142-0.738-0.065-1.38-0.105-2.231
	c-0.015-0.316,0.08-0.533,0.178-0.752c0.597-0.879,1.183-1.97,2.326-2.557c0.314-0.121,0.742-0.035,0.859,0.173
	c0.683,0.925,0.84,1.982,1.001,3.144c0.015,0.318,0.236,0.521,0.56,0.614c1.077,0.267,2.159,0.643,3.348,1.011
	c0.217,0.096,0.44,0.299,0.555,0.506c0.247,0.734,0.611,1.674,0.971,2.509c0.006,0.105,0.122,0.312,0.339,0.409
	c0.66,0.501,1.606,0.243,2.36,0.42c0.216,0.097,0.338,0.41,0.236,0.521c-0.202,0.223-0.505,0.555-0.712,0.671
	c-0.208,0.117-0.303,0.333-0.188,0.541c0.02,0.426,0.046,0.955,0.064,1.381c0.012,0.213-0.083,0.429-0.292,0.545
	c-0.628,0.244-1.036,0.579-0.784,1.42c0.01,0.213,0.229,0.31,0.437,0.194c0.421-0.127,0.733-0.249,1.152-0.376
	c0.633-0.134,1.076,0.27,1.106,0.907c-0.086,0.428-0.167,0.964-0.364,1.293c-0.202,0.223-0.629,0.243-1.048,0.369
	c-0.213,0.009-0.312,0.121-0.302,0.332c-0.43,2.148-0.627,2.479-1.893,2.75c-0.212,0.011-0.329-0.197-0.334-0.303
	c0.192-0.435,0.284-0.759,0.376-1.081c0.47-1.299,0.009-2.023-1.39-2.381c-0.43-0.087-0.864-0.28-1.294-0.365
	c-0.217-0.096-0.423,0.021-0.521,0.237c-0.096,0.218-0.194,0.436-0.184,0.647c-0.095,0.218-0.197,0.328-0.408,0.339
	c-0.846,0.146-1.097-0.693-1.753-1.088c-0.225-0.202-0.536-0.081-0.628,0.242c-0.288,0.653-0.364,1.294,0.51,1.785
	c0.327,0.196,0.673,0.712,0.793,1.026c0.475,1.04-0.001,2.232-1.148,2.712C564.325,452.469,563.56,452.08,563.426,451.448z
	 M566.478,403.416c0.213-0.011,0.326,0.09,0.335,0.303c0.011,0.211-0.092,0.323-0.305,0.333c-0.212,0.011-0.323-0.091-0.332-0.304
	C566.167,403.537,566.266,403.426,566.478,403.416z M565.986,399.714c-0.007-0.104,0.1-0.109,0.1-0.109
	c0.105-0.005,0.111,0.1,0.111,0.1c0.005,0.105-0.101,0.11-0.101,0.11S565.99,399.822,565.986,399.714z M570.94,389.689
	c-0.005-0.105,0.095-0.216,0.201-0.223c0.105-0.004,0.217,0.098,0.222,0.203c0.006,0.107-0.095,0.218-0.201,0.224
	S570.945,389.797,570.94,389.689z M565.618,457.302c-0.313,0.122-0.638,0.031-0.869-0.383c-0.234-0.415-0.148-0.845,0.06-0.961
	c0.312-0.119,0.638-0.03,0.87,0.385C565.904,456.652,565.82,457.082,565.618,457.302z M575.208,457.596
	c-0.404,0.445-0.803,0.994-1.329,1.126c-0.421,0.126-0.85,0.04-1.269,0.166c-0.102,0.111-0.512,0.449-1.157,0.268
	c-0.647-0.182-1.196-0.476-1.733-0.663c-0.764-0.391-0.783-0.815-0.183-1.588c0.102-0.109,0.096-0.217,0.092-0.323
	c0.096-0.218-0.132-0.525-0.338-0.409c-0.319,0.016-0.526,0.132-0.627,0.242c-0.725,0.461-1.493-0.035-2.154-0.537
	c-0.658-0.395-1.214-0.899-1.254-1.75c-0.02-0.424-0.049-1.062,0.587-1.092c0.318-0.015,0.647,0.182,0.873,0.49
	c0.111,0.103,0.23,0.31,0.345,0.517c0.117,0.206,0.333,0.303,0.546,0.292c0.317-0.015,0.633-0.136,0.956-0.046
	c1.07,0.163,1.915,0.017,2.835-0.772c0.613-0.562,1.249-0.591,2.018-0.096c0.438,0.3,0.983,0.594,1.532,0.886
	c0.321,0.092,0.444,0.404,0.352,0.729c-0.092,0.323-0.076,0.642-0.061,0.96c0.015,0.318,0.137,0.632,0.262,1.051
	C575.399,457.161,575.41,457.374,575.208,457.596z M572.323,391.966c-0.203,0.225-0.312,0.121-0.223-0.203
	c0.091-0.322,0.288-0.651,0.491-0.875c0.105-0.005,0.213-0.009,0.217,0.098C572.83,391.41,572.634,391.739,572.323,391.966z
	 M574.776,389.83c-0.21,0.01-0.321-0.091-0.331-0.305c-0.011-0.213,0.091-0.322,0.303-0.332s0.322,0.09,0.332,0.301
	C575.197,389.702,574.99,389.819,574.776,389.83z M574.63,379.938c-0.304,0.333-0.831,0.465-1.139,0.691
	c-0.621,0.35-0.914,0.896-0.668,1.629c0.5,1.572-0.082,2.771-0.978,4.09c-1.3,1.763-2.265,3.833-3.344,5.797
	c-0.526,0.131-1.056,0.157-1.582,0.288c-0.097,0.217-0.294,0.546-0.283,0.759c0.199,2.013-0.791,3.55-2.323,4.896
	c-1.016,1.006-1.923,2.115-2.611,3.316c-0.202,0.223-0.505,0.556-0.596,0.88c-0.648,2.052-2.515,3.099-3.825,4.65
	c-0.304,0.332-0.825,0.57-1.265,0.273c-0.439-0.299-0.166-1.271,0.356-1.507c0.515-0.345,1.263-0.273,1.664-0.824
	c0.101-0.111,0.074-0.641-0.773-0.601c-0.85,0.041-1.801,0.189-2.64,0.443c-0.524,0.13-0.712,0.672-0.9,1.213
	c-0.459,1.51-0.562,1.622-2.027,2.117c-0.208,0.116-0.431-0.085-0.444-0.405c0.091-0.322,0.079-0.535,0.176-0.752
	c0.293-0.546,0.376-1.082,0.234-1.821c-0.142-0.737-0.076-1.593-0.01-2.446c0.085-0.432,0.384-0.869,0.694-1.098
	c0.405-0.444,1.147-0.479,1.49,0.037c0.338,0.408,0.465,0.828,0.797,1.133c0.461,0.723,1.725,0.45,1.027-0.794
	c-0.713-1.562,0.374-3.316-0.232-4.884c-0.116-0.207,0.29-0.652,0.492-0.875c0.717-0.565,1.557-0.818,2.519-0.757
	c1.177,0.157,1.688-0.293,1.956-1.37c0.08-0.533,0.157-1.177,0.243-1.607c-0.005-0.104-0.01-0.213-0.115-0.207
	c-0.44-0.3-0.748-0.071-0.84,0.252c-0.374,1.081-1.098,1.541-2.271,1.49c-0.105,0.006-0.218-0.095-0.328-0.196
	c-0.342-0.517-0.692-1.139-1.041-1.761c-0.11-0.102-0.016-0.317,0.085-0.431c0.31-0.227,0.617-0.453,1.031-0.687
	c0.207-0.114,0.192-0.436-0.024-0.531c-0.647-0.182-1.081-0.373-1.624-0.561c-0.104,0.006-0.223-0.203-0.12-0.313
	c0.385-0.87,1.238-0.803,2.073-1.161c0.101-0.11,0.202-0.223,0.088-0.429c-0.117-0.208-0.234-0.415-0.351-0.622
	c-0.231-0.416-0.465-0.83-0.485-1.255c-0.019-0.425,0.062-0.962,0.26-1.288c0.799-1.101,0.077-2.876,1.417-3.792
	c1.236-0.803,1.498-2.094,1.331-3.362c-0.277-1.369,0.196-2.562,0.889-3.659c0.298-0.44,0.485-0.981,0.573-1.411
	c0.268-1.074,0.571-1.409,1.093-1.646c0.521-0.238,1.147-0.479,1.335-1.021c-0.006-0.105,0.091-0.324,0.409-0.339
	c0.213-0.01,0.425-0.02,0.642,0.076c0.224,0.2,0.349,0.621,0.576,0.929c0.237,0.522,0.368,1.047,0.708,1.456
	c0.668,0.607,1.602,0.139,2.124-0.101c0.622-0.348,1.237-0.801,1.638-1.353c0.196-0.328,0.071-0.749-0.252-0.841
	c-0.435-0.192-0.844,0.146-1.371,0.278c-1.045,0.369-1.91,0.091-2.369-0.632c-0.117-0.208-0.239-0.521-0.252-0.842
	c-0.012-0.211-0.233-0.414-0.44-0.296c-0.207,0.114-0.422,0.124-0.633,0.135c-1.072-0.163-1.423-0.783-0.936-1.764
	c0.492-0.876,0.98-1.751,1.578-2.629c0.096-0.219,0.303-0.334,0.512-0.45c0.208-0.117,0.531-0.025,0.54,0.187
	c0.151,0.951,0.298,1.794,0.443,2.64c0.016,0.317,0.44,0.298,0.536,0.081c0.191-0.435,0.168-0.967,0.371-1.188
	c0.302-0.335,0.717-0.566,1.127-0.905c0.099-0.11,0.201-0.223,0.197-0.328c0.062-0.962-1.313-0.79-1.354-1.638
	c-0.029-0.639,0.496-0.77,0.905-1.107c0.208-0.117,0.299-0.44,0.182-0.646c-0.011-0.214-0.132-0.526-0.034-0.743
	c0.081-0.535,0.162-1.07,0.355-1.509c0.394-0.656,0.899-1.212,1.4-1.874c0.201-0.221,0.409-0.339,0.728-0.354
	c0.212-0.01,0.536,0.081,0.749,0.072c0.211-0.011,0.425-0.021,0.626-0.243c0.819-0.677,0.881-1.637,0.947-2.491
	c0.075-0.642,0.475-1.193,0.995-1.431c0.521-0.237,1.158-0.268,1.795-0.297c0.212-0.011,0.419-0.127,0.514-0.344
	c0.299-0.44,0.593-0.986,0.997-1.431c0.303-0.334,0.606-0.668,0.37-1.187c-0.349-0.623-0.879-0.598-1.405-0.466
	c-0.733,0.247-1.381,0.064-2.039-0.33c-0.327-0.196-0.747-0.069-0.944,0.258c-0.486,0.981-0.977,1.857-1.356,2.83
	c-0.097,0.22-0.191,0.437-0.399,0.552c-0.308,0.229-1.471,0.388-1.006-1.016c0.284-0.758,0.78-1.527,1.063-2.285
	c0.191-0.435,0.496-0.769,0.689-1.203c0.385-0.869,0.889-1.425,1.841-1.575c1.06-0.052,1.661-0.823,2.381-1.39
	c0.201-0.223,0.612-0.561,0.597-0.88c-0.051-1.062,0.567-1.517,1.405-1.77c0.521-0.236,1.041-0.475,1.012-1.11
	c-0.034-0.744,0.476-1.194,0.986-1.643c0.309-0.229,0.834-0.359,1.156-0.269c0.217,0.097,0.431,0.086,0.542,0.188
	c0.758,0.283,0.58,1.036,0.378,1.256c-0.289,0.654-0.92,0.791-1.564,0.715c-0.746-0.07-0.935,0.469-1.137,0.69
	c-0.298,0.441-0.49,0.875-0.789,1.316c-0.203,0.22,0.029,0.636,0.349,0.621c0.318-0.016,0.525-0.13,0.834-0.359
	c0.304-0.331,0.49-0.873,0.906-1.105c0.307-0.228,0.849-0.039,0.868,0.385c0.011,0.213,0.047,0.955-0.779,1.526
	c-0.617,0.454-1.243,0.696-1.86,1.152c-0.415,0.231-0.824,0.57-1.234,0.909c-0.308,0.227-0.495,0.768-0.374,1.081
	c0.116,0.207,0.236,0.52,0.353,0.729c0.227,0.308,0.456,0.616,0.682,0.924c0.223,0.201,0.551,0.398,0.871,0.384
	c0.425-0.021,0.742-0.035,1.162-0.16c0.632-0.136,1.134-0.798,1.098-1.54c-0.03-0.639,0.046-1.279,0.016-1.916
	c-0.015-0.318,0.08-0.536,0.283-0.76c0.612-0.561,1.34-0.912,2.193-0.849c0.643,0.077,0.77,2.733-0.659,4.075
	c-0.511,0.451-0.804,0.996-0.663,1.735c0.01,0.211-0.191,0.434-0.394,0.657c-1.752,1.252-2.045,1.8-2.524,2.886
	c-0.485,0.981,0.312,2.114-0.926,2.916c-0.724,0.46-1.098,1.542-1.589,2.416c-0.096,0.219-0.081,0.535,0.03,0.638
	c0.227,0.309,0.449,0.511,0.678,0.819c0.332,0.304,0.353,0.729,0.161,1.163c-0.486,0.98-0.751,2.164-1.454,3.05
	c-0.196,0.327-0.07,0.747,0.354,0.728c0.425-0.019,0.632-0.136,0.945-0.258c1.248-0.59,2.38-1.388,3.398-2.395
	c0.611-0.561,0.961,0.061,0.561,0.612c-0.489,0.875-1.431,1.238-2.246,2.021c-1.219,1.227-2.543,2.462-2.561,4.378
	c0.011,0.213-0.182,0.649-0.495,0.77c-0.733,0.246-1.568,0.605-1.874,0.832c-0.31,0.228-0.178,0.754-0.512,0.451
	c-0.335-0.304-0.666-0.608-1.105-0.906c-0.111-0.1-0.323-0.091-0.421,0.126c-0.192,0.435-0.389,0.763-0.586,1.091
	c-0.305,0.334-0.613,0.56-1.026,0.793c-0.209,0.117-0.199,0.328,0.025,0.531c0.438,0.298,0.874,0.49,1.313,0.789
	c0.217,0.095,0.429,0.085,0.746,0.07c0.523-0.237,0.938-0.47,1.458-0.707c0.312-0.121,0.743-0.035,0.864,0.277
	c0.223,0.202,0.343,0.516,0.458,0.723c0.229,0.309,0.462,0.723,0.364,0.939C576.622,377.079,575.955,378.705,574.63,379.938z
	 M581.808,358.421c0.005,0.107-0.09,0.325-0.304,0.335c-0.106,0.006-0.322-0.092-0.333-0.304c-0.006-0.106,0.09-0.323,0.303-0.333
	S581.798,358.21,581.808,358.421z M579.597,358.954c0.007,0.105-0.1,0.109-0.1,0.109c-0.106,0.005-0.111-0.1-0.111-0.1
	c-0.005-0.105,0.101-0.111,0.101-0.111C579.594,358.844,579.597,358.954,579.597,358.954z M574.42,373.243
	c0.005,0.106-0.096,0.219-0.202,0.225c-0.106,0.005-0.218-0.096-0.223-0.204c-0.005-0.106,0.096-0.217,0.204-0.221
	C574.307,373.144,574.415,373.138,574.42,373.243z"/>
<path fill="#B39346" d="M595.997,426.815c-0.121-0.312-0.444-0.403-0.632,0.138c-0.188,0.54-0.269,1.076-0.455,1.618
	c-0.096,0.218,0.127,0.42,0.339,0.41C596.411,428.818,596.402,428.607,595.997,426.815z"/>
<circle fill="#B39346" cx="596.397" cy="424.032" r="0.212"/>
<path fill="#B39346" d="M597.098,418.573c-0.521,0.236-0.602,0.771-0.582,1.196c0.13,0.524,0.552,0.401,0.647,0.184
	c0.303-0.335,0.598-0.882,0.041-1.387C597.311,418.561,597.2,418.461,597.098,418.573z"/>
<circle fill="#B39346" cx="597.538" cy="416.635" r="0.319"/>
<circle fill="#B39346" cx="599.743" cy="406.953" r="0.106"/>
<circle fill="#B39346" cx="600.8" cy="402.327" r="0.424"/>
<circle fill="#B39346" cx="598.304" cy="412.555" r="0.425"/>
<path fill="#B39346" d="M429.335,442.35c-1.72,1.889-5.307,7.06-9.154,8.945c-1.042,0.474-2.238-0.107-2.502-1.159
	c-0.119-0.312-0.136-0.632-0.15-0.95c-0.021-2.659-0.039-5.318,0.045-8.09c-0.021-0.424,0.065-0.854,0.368-1.188
	c0.801-1.102,1.068-2.178,0.691-3.437c-0.122-0.314-0.024-0.53,0.065-0.854c0.577-1.303,0.411-2.573,0.132-3.943
	c-0.267-1.157-0.105-2.229,0.921-3.025c0.925-0.682,0.771-1.738,0.751-2.163c-0.029-0.638-0.166-1.269-0.304-1.902
	c-0.495-1.465-0.659-2.735,0.341-4.058c0.398-0.552,0.394-0.657,0.378-0.978c-0.034-0.741,0.037-1.488,0.213-2.244
	c0.273-0.97,0.978-1.854,0.933-2.811c0.04-1.386,0.414-2.467,0.886-3.767c0.192-0.435,0.258-1.287,0.238-1.712
	c-0.166-1.269-0.335-2.539-0.5-3.808c-0.025-0.531-0.271-1.264,0.521-2.471c1.297-1.872,1.371-2.512,1.039-5.051
	c-0.151-0.951-0.004-2.34,0.163-3.307c0.506-2.79,0.158-5.646,0.342-8.528c0.093-2.559-0.868-4.854-1.305-7.388
	c-0.31-2.007-1.121-3.46-2.876-4.547c-0.657-0.394-1.213-0.9-1.864-1.188c-1.639-0.88-3.275-1.761-4.914-2.641
	c-2.619-1.367-10.969-4.696-17.971-10.966c-1.779-1.617-3.74-2.59-6.106-3.115c-0.858-0.171-1.82-0.232-2.273-0.851
	c-0.9-1.021-1.951-0.759-3.02-0.814c-0.637,0.029-1.284-0.153-1.926-0.229c-1.926-0.227-3.326-0.587-5.237-0.496
	c-0.849,0.04-2.529,0.545-3.489,2.72c-0.865,1.955-0.052,3.407,0.861,4.746c0.799,1.135,1.593,2.16,2.071,3.308
	c0.471,0.936,0.516,1.891,1.598,2.267c0.218,0.096,0.455,0.616,0.471,0.935c-0.047,1.277,0.64,2.311,1.326,3.342
	c0.571,0.824,7.155,9.559-0.276,23.425c-1.953,3.71-4.54,7.557-7.443,11.42c-2.904,3.861-6.023,7.626-9.469,11.3
	c-1.721,1.893-3.444,3.677-5.383,5.471c-0.916,0.895-1.937,1.794-2.853,2.688l-2.859,2.582c-3.877,3.481-7.991,6.55-12.107,9.512
	c-2.064,1.373-4.128,2.749-6.302,4.022c-2.067,1.268-4.251,2.329-6.437,3.39c-0.729,0.353-1.455,0.707-2.188,0.954
	c-0.314,0.121-0.628,0.241-1.047,0.369c-9.001,3.191-16.053,2.565-18.318,1.928c-11.107-3.093-10.137-16.337-7.812-23.47
	c1.483-4.644,4.017-5.084,7.052-3.95c4.659,1.804,9.316,1.264,10.801,1.193c1.594-0.075,3.08-0.146,4.304-1.267
	c0.818-0.679,1.031-0.688,1.779-0.616c0.644,0.076,1.163-0.162,1.265-0.272c0.718-0.566,1.437-1.133,2.276-1.385
	c1.366-0.383,1.781-0.615,2.084-0.948c1.022-0.901,2.037-1.906,2.947-2.907c0.713-0.673,1.215-1.334,1.166-2.396
	c-0.041-0.849,0.465-1.404,0.976-1.854c1.228-1.016,2.018-2.33,2.804-3.751c0.495-0.769,1.116-1.115,1.324-1.232
	c1.134-0.8,1.821-2.002,2.947-2.905c1.538-1.244,3.178-2.6,3.719-4.646c0.272-0.971,1.148-2.715,1.553-3.16
	c1.321-1.338,1.492-2.198,1.578-2.629c0.188-0.54,0.273-0.971,0.466-1.406c0.486-0.98,1.3-1.764,2.003-2.648
	c0.905-1.105,1.271-2.399,1.312-3.784c0.04-1.386,0.192-2.671,0.663-3.972c0.381-0.976,0.639-2.264,0.588-3.326
	c-0.054-1.168-0.215-2.331,0.154-3.519c0.089-0.324,0.177-0.753-0.284-1.477c-0.343-0.515-0.272-1.263,0.134-1.71
	c0.707-0.776,0.678-1.414,0.222-2.032c-0.45-0.512,0.047-1.278,0.34-1.825c0.288-0.65,0.366-1.295-0.525-2.103
	c-1.006-1.017-0.616-1.781-0.525-2.103c0.187-0.542,0.479-1.088,0.669-1.631c0.182-0.646-0.065-1.38-1.061-2.183
	c-0.663-0.5-1.32-0.896-2.09-1.39c-1.206-0.795-2.415-1.59-3.328-2.93c-0.683-0.926-1.472-1.845-2.361-2.654
	c-0.893-0.916-1.89-1.721-2.58-2.858c-1.487-2.164-3.377-3.886-5.57-5.271c-1.646-1.092-3.285-1.973-4.73-3.289
	c-0.783-0.815-1.854-0.977-3.121-0.706c-2.106,0.42-3.984,1.253-6.211,1.358c-0.852,0.041-1.675,0.61-2.396,1.072
	c-0.825,0.571-0.901,1.213-1.104,1.437c-0.399,0.55-1.139,0.691-1.649,1.14c-0.707,0.778-1.628,1.567-2.337,2.346
	c-1.006,1.218-2.015,2.436-3.453,3.461c-2.453,2.139-6.943,6.181-11.097,10.634c-0.607,0.667-3.172,2.704-8.964,1.699
	c-3.109-0.492-6.205-0.665-9.185-0.63c-2.551,0.015-5.107,0.029-7.657,0.043c-3.935,0.079-7.439,0.245-10.614,0.606
	c-3.391,0.266-6.675,0.635-9.845,1.103c-0.951,0.152-1.745-0.874-1.359-1.743c0.754-2.058,1.948-3.816,2.923-5.672
	c2.044-4.036,4.18-8.394,6.108-12.634l0,0c0,0,0.101-0.11,0.191-0.434c0.774-1.633,1.543-3.373,2.318-5.005
	c3.856-8.484,11.3-24.373,15.242-33.284c1.054-2.496,2.776-8.856,8.934-11.382c0,0,13.031-5.724,9.694-15.569
	c-3.579-10.473-15.751-9.046-21.713-2.381c-1.918,2.221-3.606,4.745-4.984,7.153c-2.357,4.154-5.292,7.379-14.454,9.409
	c-2.422,0.539-4.854,0.867-7.388,1.305c-9.282,1.715-18.688,3.116-27.977,4.726c-9.288,1.608-18.366,3.208-27.219,5.009
	c-23.922,4.961-73.327,17.935-91.946,33.82c-3.379,2.819-5.649,6.544-5.469,10.367c0.176,3.715,2.19,8.092,9,12.557
	c0.111,0.101,0.327,0.197,0.439,0.299c4.041,2.149,8.067,4.089,12.67,4.616c0.536,0.08,1.182,0.263,1.724,0.451
	c0.863,0.278,1.722,0.451,2.476,0.627c0.317-0.014,26.513,2.579,46.158-2.817c1.891-0.517,3.277-2.711,0.159-3.411
	c-1.507-0.355-2.907-0.715-4.409-0.963c-1.395-0.253-2.891-0.396-4.276-0.437c-2.233-0.001-4.576,0.003-6.836-0.531
	c-1.182-0.261-2.462-0.31-3.741-0.354c-2.24-0.107-4.574,0.002-6.816-0.104c-2.882-0.183-5.769-0.473-8.66-0.868
	c-4.393-0.645-8.411-2.371-12.26-4.955c-2.526-1.688-3.572-3.557-3.445-5.371c-0.006-0.106-0.015-0.318-0.02-0.424
	c-0.005-0.105-0.01-0.213,0.09-0.324c-0.005-0.106-0.005-0.106,0.095-0.218c0.978-4.089,8.22-8.473,16.656-12.384
	c0.101-0.11,0.308-0.228,0.415-0.233c1.352-0.701,2.812-1.303,4.273-1.904c0.105-0.004,0.314-0.121,0.526-0.131
	c0.733-0.246,1.78-0.615,2.509-0.97c0.206-0.114,0.519-0.236,0.728-0.353c1.987-0.732,3.968-1.57,6.062-2.308
	c5.021-1.835,10.473-3.583,16.354-5.243c0.526-0.131,0.839-0.253,0.839-0.253l0,0c9.029-2.66,18.807-5.143,29.127-7.44
	c8.632-2.004,17.597-3.705,26.775-5.416c4.64-0.857,9.276-1.82,13.915-2.784c4.638-0.965,9.277-1.82,14.022-2.79
	c2.108-0.42,4.217-0.838,6.325-1.257c1.583-0.287,2.721,1.254,2.042,2.67c-1.665,3.061-3.618,6.771-3.816,7.099
	c-5.364,10.364-10.839,20.624-16.309,30.992c-1.173,2.184-2.241,4.361-3.197,6.642c-1.134,3.035-9.138,16.076-9.431,16.621
	c-0.587,1.093-2.61,3.316-6.812,4.472c-4.41,1.272-29.39,8.624-53.33,17.735l-1.263,0.273c-8.357,3.267-16.384,6.839-24.506,10.627
	c-2.396,1.071-4.789,2.249-7.08,3.314c-1.978,0.944-2.266,1.599-1.863,3.39l0.136,0.631c0.145,0.846,0.392,1.577,0.327,2.431
	c0.04,0.85,0.277,1.371,0.838,1.983c0.333,0.303,0.56,0.611,0.782,0.814s0.446,0.405,0.667,0.607c1.45,1.421,3.22,2.829,6.081,2.586
	c0.106-0.005,0.106-0.005,0.213-0.01c0.531-0.024,0.959,0.061,1.39,0.147c0.105-0.005,0.323,0.091,0.429,0.087
	c1.072,0.162,2.023,0.01,2.851-0.454c0.931-0.577,1.982-0.839,2.934-0.99l0.318-0.015c2.53-0.547,4.95-1.086,7.479-1.63
	c4-0.934,8.38-2.843,9.518-3.536l1.243-0.697c0.728-0.354,7.379-3.754,9.468-4.598c0.206-0.114,0.415-0.232,0.627-0.242
	c6.563-2.97,18.447-8.214,31.611-13.411c2.82-1.09,3.397-0.16,2.123,2.134l-16.95,26.447c-0.398,0.55-0.693,1.096-1.092,1.648
	c-0.298,0.44-4.214,5.414-4.659,7.244c-0.177,0.752-0.78,1.526-1.401,1.876c-1.349,0.702-2.033,2.01-2.944,3.012
	c-1.107,1.329-2.215,2.657-2.554,4.483c-0.258,1.287-1.053,2.497-2.407,3.093c-1.042,0.476-1.539,1.244-2.135,2.124
	c-2.008,2.541-4.011,5.191-6.242,7.531c-2.023,2.225-4.274,4.14-6.409,6.262c-2.033,2.011-3.845,4.225-5.987,6.138
	c-1.326,1.232-2.088,3.077-3.858,3.905c-1.457,0.709-2.458,2.031-3.141,3.34c-0.587,1.092-1.406,1.769-2.22,2.552
	c-0.816,0.784-1.852,1.364-2.554,2.248c-0.304,0.334-0.703,0.886-0.254,1.397c0.228,0.308,0.576,0.93-0.03,1.597
	c-0.405,0.445-0.915,0.895-0.996,1.431c0.014,0.317-0.047,1.278-0.967,2.067c-0.303,0.332-0.718,0.565-1.026,0.792
	c-0.516,0.344-2.089,0.844-2.179-1.068c-0.02-0.424,0.067-0.853,0.051-1.173c0.085-0.429,0.282-0.757,0.48-1.085
	c0.39-0.765-0.05-1.061-0.667-0.607c-1.644,1.247-3.278,2.709-4.917,4.063c-0.82,0.677-0.046,1.278,0.177,1.48
	c0.55,0.399,0.176,1.481-0.02,1.81c-0.776,1.634-1.386,2.194-2.544,2.461c-0.42,0.126-1.062,0.051-0.784-0.814
	c0.375-1.081,0.527-2.367-2.254-0.426c-2.063,1.375-4.021,2.743-6.084,4.119c-1.653,1.034-3.423,1.862-5.082,2.791
	c-1.037,0.581-2.18,1.168-3.216,1.75c-1.979,0.945-3.854,1.778-5.826,2.829c-1.663,0.823-3.565,1.126-4.891,2.359
	c-0.307,0.229-1.652,1.036-1.962,1.262c-1.147,0.481-1.952,1.478-2.988,2.059c-0.416,0.23-1.057,0.153-1.491-0.037
	c-0.435-0.191-1.106-0.904-1.942-0.546c-1.046,0.37-1.416,1.556-2.131,2.229c-1.824,1.894-3.782,3.265-6.684,2.657
	c-1.931-0.335-3.943-0.133-5.586,1.114c-1.028,0.794-2.185,1.061-3.454,1.227c-2.118,0.207-4.121,0.619-6.128,0.929
	c-0.318,0.013-0.732,0.246-1.046,0.367c-2.498,1.18-5.308,0.251-7.939,0.906c-0.313,0.121-0.94,0.363-1.806,0.086
	c-0.976-0.38-2.012,0.201-3.074,0.251c-1.055,0.155-2.001,0.413-3.069,0.355c-2.022-0.009-4.047-0.126-6.067-0.03
	c-3.291,0.155-6.482,0.199-9.798-0.178c-0.965-0.166-1.82-0.231-2.771-0.082c-1.375,0.172-2.063,1.375-0.224,2.033
	c5.734,1.963,11.658,3.495,17.735,3.738c1.6,0.03,3.02,0.815,4.617,0.846c2.458,0.204,5.011,0.19,7.468,0.394
	c2.346,0.102,4.652-0.645,6.901-0.325c0.212-0.01,1.273-0.059,1.589-0.181c1.056-0.156,2.143,0.326,3.088,0.066
	c1.051-0.263,2.199-0.74,3.268-0.686c1.495,0.143,1.845-1.469,3.107-1.743c0.846-0.146,1.574-0.498,2.307-0.746
	c0.945-0.259,2.229-0.106,2.949-0.672c1.03-0.687,2.233,0.001,3.266-0.687c0.825-0.57,1.785-0.509,2.659-0.019
	c1.204,0.688,2.158,0.643,3.075-0.252c0.612-0.561,1.138-0.691,2.002-0.412c1.512,0.46,2.553-0.015,3.545-1.551
	c0.293-0.545,1.021-0.9,1.177,0.156c0.026,0.532-0.162,1.071,0.49,1.361c0.869,0.385,1.891-0.515,2.195-0.85
	c2.645-2.57,3.843-1.989,5.976-1.878c2.028,0.117,4.045,0.022,5.816-0.807c2.811-1.303,4.514-1.277,5.251-1.419
	c1.051-0.261,2.113-0.312,3.06-0.568c1.779-0.616,3.444-1.439,5.103-2.369c1.973-1.052,3.175-0.363,4.222-0.732
	c0.419-0.124,0.829-0.464,1.137-0.691c0.515-0.342,1.026-0.793,1.644-1.248c1.02-0.901,2.088-0.843,2.73-0.769
	c2.134,0.113,2.079-1.055,1.963-1.263c-0.506-1.677-0.425-2.213,0.714-2.905c1.031-0.688,1.958-1.369,3.469-0.908
	c0.43,0.086,0.854,0.064,1.278,0.045c0.739-0.14,1.077,0.27,1.299,0.472c0.344,0.516,1.309,0.683,1.466-0.494
	c0.076-0.645-0.309-2.009,1.026-3.03c1.852-1.364,3.921-2.631,5.884-3.894c0.516-0.344,1.041-0.476,1.582-0.29
	c0.218,0.098,0.663,0.503,0.156,1.058c-0.201,0.223-0.288,0.651,0.248,0.733c0.748,0.07,1.37-0.277,1.877-0.832
	c0.202-0.223,0.404-0.444,0.601-0.773c1.083-1.861,2.727-3.107,4.375-4.25c1.339-0.915,2.553-2.249,4.248-2.435
	c1.801-0.191,3.762-1.456,4.476-2.126c1.117-1.118,2.013-2.438,3.251-3.24c1.238-0.803,2.013-2.438,3.71-2.518
	c0.106-0.004,0.309-0.227,0.406-0.444c0.278-0.864,1.011-1.109,1.734-1.571c1.037-0.58,2.174-1.273,2.766-2.259
	c0.693-1.095,1.62-1.777,2.535-2.673c0.718-0.564,1.214-1.333,1.822-2.001c0.302-0.333,0.596-0.88,1.01-1.112
	c1.973-1.05,3.272-2.813,4.798-4.269c1.731-1.679,3.025-3.548,3.659-5.919c0.187-0.54,0.578-1.304,2.449-2.245
	c1.662-0.821,2.311-2.876,3.53-4.105c0.511-0.448,0.794-1.205,0.971-1.96c0.628-2.477,2.018-4.564,3.081-6.849
	c0.289-0.653,0.688-1.204,1.195-1.76c2.033-2.011,3.621-4.427,4.228-7.329c0.273-0.972,0.871-1.851,1.356-2.831
	c0.492-0.875,0.978-1.855,1.362-2.724c0.582-1.2,1.047-2.604,1.846-3.705c0.796-1.21,1.376-2.407,1.849-3.705
	c1.195-3.996,2.833-7.584,5.231-10.888c0.698-0.991,1.285-2.085,1.654-3.273c1.018-3.237,3.137-5.68,4.812-8.525l5.965-13.37
	c2.263-3.938,3.278-4.943,7.714-5.685l1.057-0.155c4.641-0.857,7.806-1.434,9.395-1.616c4.439-0.634,8.984-1.274,9.833-1.313
	c1.058-0.156,2.119-0.206,3.075-0.252c1.589-0.18,8.357-1.033,10.053-1.219c2.014-0.201,7.716-1.108,4.013,3.854
	c-4.002,5.403-8.979,12.662-12.619,19.005c-0.292,0.547-0.588,1.092-0.879,1.639c-0.39,0.765-0.784,1.421-1.173,2.184
	c-0.187,0.541-0.375,1.081-0.562,1.625c-0.09,0.32-0.177,0.752-0.379,0.974c-0.82,0.678-0.985,1.644-1.371,2.513
	c-0.476,1.192-0.951,2.387-1.315,3.68c-0.644,2.159-1.498,4.328-2.137,6.592c-0.557,1.729-1.003,3.559-1.454,5.284
	c-0.617,2.688-0.7,5.459-0.999,8.134c-0.243,1.607-0.169,3.198,0.012,4.786c0.166,1.27,0.438,2.535,0.712,3.797
	c0.114,0.208,0.228,0.31,0.546,0.293c0.213-0.009,0.312-0.12,0.198-0.328c-0.117-0.208,0.095-0.217,0.095-0.217
	s0.106-0.004,0.222,0.203c0.112,0.1,0.224,0.201,0.334,0.304c0.218,0.096,0.323,0.091,0.431,0.086
	c0.317-0.015,0.324,0.091-0.097,0.217c-0.207,0.116-0.197,0.33-0.091,0.324c0.111,0.101,0.222,0.201,0.329,0.197
	c0.106-0.005,0.216,0.096,0.227,0.308c0,0,0.127,0.421,0.13,0.525c0.13,0.526,0.363,0.94,0.709,1.456
	c0.227,0.31,0.54,0.188,0.42-0.126c-0.01-0.212,0.095-0.219,0.095-0.219l0.106-0.004c0.106-0.006,0.212-0.009,0.217,0.096
	c0.006,0.106,0.117,0.208,0.228,0.311l0.005,0.104c-0.105,0.006-0.208,0.116-0.312,0.121c-0.102,0.111,0.02,0.425,0.02,0.425
	l0.12,0.312c0.117,0.209,0.228,0.31,0.324,0.092c0.101-0.111,0.203-0.224,0.298-0.438c-0.005-0.106,0.102-0.112,0.213-0.01
	c0.667,0.607,1.051-0.263,1.694-0.188c0.106-0.005,0.106-0.005,0.1-0.11c-0.005-0.104-0.115-0.207-0.014-0.317
	s0.101-0.11,0.212-0.01l0.248,0.733c0,0,0.009,0.214,0.217,0.097c0.106-0.006,0.106-0.006,0.211-0.011
	c0.214-0.01,0.334,0.303,0.334,0.303s0.01,0.213,0.217,0.095l0.106-0.004c0,0,0.105-0.006,0.222,0.202
	c0.155,1.057-0.713,0.671-1.461,0.6c-0.104,0.006-0.109-0.101-0.109-0.101c-0.004-0.104-0.01-0.213-0.01-0.213
	c-0.005-0.104-0.01-0.211-0.227-0.307c-0.219-0.098-0.329-0.199-0.541-0.188c-0.213,0.01-0.308,0.228-0.308,0.228l-0.096,0.217
	c-0.096,0.218-0.111-0.102-0.111-0.102s-0.011-0.211-0.217-0.095c-1.028,0.793-2.468-0.414-3.738-0.249
	c-0.317,0.015-0.197,0.329-0.091,0.323c0.46,0.724,1.599,0.03,1.957,0.866c0.005,0.105,0.005,0.105-0.102,0.11
	c-0.217-0.097-0.425,0.019-0.631,0.134c-0.208,0.116-0.197,0.329-0.086,0.432c0.111,0.1,0.43,0.085,0.643,0.074
	c0.106-0.005,0.218,0.097,0.011,0.212c-0.106,0.006-0.208,0.117-0.197,0.329s0.121,0.314,0.332,0.304
	c0.208-0.117,0.43,0.085,0.649,0.182c0.326,0.198,0.124,0.42-0.082,0.536c-0.106,0.005-0.212,0.01-0.313,0.119
	c-0.213,0.012-0.097,0.217-0.097,0.217s0.117,0.208-0.101,0.112c0,0-0.105,0.006-0.217-0.096c-0.106,0.004-0.208,0.115-0.085,0.43
	c0.005,0.106,0.232,0.415,0.237,0.521c0.586,1.143,1.293,2.599,1.52,2.908c0.455,0.617,0.91,1.232,1.369,1.956
	c0.004,0.105,0.223,0.203,0.317-0.016c-0.005-0.104,0.102-0.11,0.102-0.11c0.202-0.222,0.324,0.091,0.111,0.101
	c0,0-0.213,0.01-0.091,0.324c0.127,0.419,0.369,1.046,0.794,1.026c0.105-0.006,0,0,0,0s-0.102,0.112,0.009,0.211
	c0.111,0.102,0.223,0.205,0.337,0.411c0.112,0.101,0.112,0.101,0.112,0.101l0,0c0.005,0.105,0.12,0.312,0.227,0.308
	c0.45,0.512,0.789,0.922,1.235,1.326c0.11,0.101,0.217,0.095,0.211-0.011c0.106-0.006,0.101-0.11,0.208-0.115
	c0,0,0.111,0.102,0.116,0.208l-0.102,0.109c0,0-0.1,0.112,0.122,0.315c0.11,0.1,0.212-0.01,0.207-0.117
	c-0.005-0.105,0.105-0.005,0.105-0.005c0.005,0.106,0.014,0.317,0.126,0.418c0.217,0.097,0.657,0.396,0.763,0.392
	c0.216,0.096,0.213-0.01,0.102-0.11c-0.006-0.105,0.207-0.117,0.207-0.117c0.423-0.019,0.84-0.254,1.259-0.379
	c0.628-0.242,0.459,0.724,0.459,0.724s0.03,0.637,0.555,0.506c0.313-0.12,0.624-0.349,0.841-0.253
	c0.105-0.005,0.12,0.312-0.091,0.323c-0.425,0.019-0.965-0.168-1.036,0.58c0,0,0.014,0.319,0.647,0.182
	c0.212-0.01,0.324,0.092,0.222,0.204c-0.101,0.111-0.208,0.115-0.198,0.327c0.147,0.844,1.093,0.588,1.527,0.779
	c0.111,0.101,0.446,0.406,0.555,0.506l0,0c0,0,0.106-0.005,0.111,0.1l0.217,0.096c0.105-0.006,0.217,0.095,0.325,0.09
	c0.524-0.129,0.601-0.772,0.904-1.106c0.198-0.327,0.42-0.125,0.218,0.096c-0.202,0.225-0.198,0.329-0.293,0.548
	c0.009,0.212,0.034,0.741,1,0.908c0.43,0.087,0.861,0.174,1.077,0.269c0.434,0.193,0.423-0.019,0.626-0.243
	c0.303-0.332,0.647,0.183,0.647,0.183s0.663,0.502,1.304,0.577c4.935,0.831,9.626,1.036,13.864,0.622
	c0.425-0.019,0.85-0.039,1.168-0.055c4.667-0.326,9.405-1.399,14.011-3.002c4.602-1.706,9.188-3.731,13.648-6.178
	c2.489-1.395,4.968-3.001,7.444-4.607c0.102-0.113,0.304-0.332,0.405-0.446c0.197-0.327,0.525-0.129,0.834-0.357
	c1.444-0.919,2.888-1.944,4.325-3.077c2.158-1.592,4.21-3.177,6.372-4.77c2.048-1.693,4.208-3.285,6.146-5.08
	c2.048-1.691,4.091-3.49,6.031-5.179c1.939-1.793,3.981-3.593,5.918-5.389c3.876-3.587,7.532-7.272,10.861-11.154
	c3.332-3.774,6.445-7.753,9.023-11.707c3.972-6.04,6.977-12.248,8.703-16.268c0.766-1.845,3.06-5.039,10.559-1.775
	c1.628,0.668,3.055,1.56,4.387,2.774c1.888,1.613,2.295,3.51,2.078,5.646c-0.285,2.994-1,5.902-2.36,8.625
	c-0.394,0.658-0.572,1.411-0.643,2.159c-0.041,1.386-0.084,2.771-0.988,3.875c-0.801,1.103-0.577,1.306-0.755,2.061
	c-0.173,0.859-0.673,1.52-0.951,2.387c-0.288,0.651-0.683,1.309-0.86,2.062c-0.258,1.289-0.951,2.385-1.646,3.481
	c-1.284,2.084-2.245,4.258-3.101,6.425c-0.95,2.388-1.467,4.965-3.182,6.962c-0.303,0.333-0.495,0.768-0.689,1.203
	c-1.078,1.965-1.281,4.422-3.121,6.001c-0.207,0.115-0.187,0.54-0.284,0.758c-0.181,0.647-0.364,1.294-0.659,1.839
	c-0.776,1.527-1.881,2.964-1.896,4.878c0.015,0.319-0.396,0.657-0.593,0.985c-0.298,0.439-0.592,0.985-0.673,1.521
	c-0.562,1.623-1.023,3.136-1.478,4.752c-0.377,1.082-0.963,2.173-0.584,3.432c0.117,0.208-0.081,0.535-0.177,0.753
	c-0.398,0.552-0.473,1.196-0.443,1.832c0.034,0.742-0.145,1.496-0.22,2.139c-0.081,0.536-0.156,1.177-0.031,1.598
	c0.259,0.946,0.729,1.881,0.668,2.842c0.01,0.212,0.269,1.156,0.277,1.369c0.243,0.629,0.172,1.375,0.201,2.014
	c0.309,2.008,1.349,3.767,2.804,5.294c1.452,1.422,3.291,2.078,5.227,2.521c0.536,0.08,0.842-0.252,0.937-0.469
	c0.086-0.431,0.634-0.137,0.333,0.304c0,0-0.303,0.333,0.237,0.52c0.324,0.091,0.541,0.188,0.864,0.278s0.747,0.071,0.95-0.152
	c0.826-0.569,1.574-0.499,2.322-0.429c1.494,0.144,1.986-0.73,2.289-1.064c0.299-0.438,0.612-0.561,0.931-0.577
	c0.425-0.018,0.627-0.242,0.834-0.357c0.308-0.228,0.516-0.342,0.824-0.569c0.313-0.123,0.192-0.437,0.081-0.536l-0.11-0.101
	c0,0-0.116-0.209-0.005-0.108c0.105-0.004,0.105-0.004,0.11,0.102c0.104-0.006,0.104-0.006,0.212-0.011
	c0.081-0.534,1.066,0.057,0.921-0.787c-0.117-0.207-0.223-0.204-0.435-0.193s-0.011-0.212-0.011-0.212l0.612-0.562
	c0,0,0.201-0.223-0.021-0.426c-0.223-0.202-0.439-0.296-0.652-0.286c-0.106,0.005-0.111-0.102-0.117-0.209
	c-0.005-0.106-0.005-0.105-0.009-0.212c-0.015-0.317-0.131-0.526-0.439-0.298c-0.101,0.109-0.209,0.115-0.314,0.119
	c-0.005-0.104-0.01-0.211,0.092-0.322c0.202-0.222,0.091-0.323,0.091-0.323s-0.117-0.208-0.016-0.318
	c0.1-0.111,0.312-0.121,0.531-0.023c0,0,0.217,0.095,0.213-0.011c0.1-0.11,0.208-0.116,0.313-0.121
	c0.211-0.01,0.115,0.206,0.338,0.408c0.444,0.405,1.314,0.791,1.607,0.243c-0.005-0.105,0.097-0.216,0.308-0.227
	c0.105-0.005,0.213-0.009,0.322,0.091l0.016,0.318c0,0-0.097,0.218,0.121,0.312c0.218,0.096,0.53-0.024,0.733-0.247
	c0.409-0.339,0.505-0.556,0.607-0.668c0.103-0.11-0.006-0.105-0.006-0.105c-0.211,0.009-0.114-0.207-0.114-0.207
	c0.102-0.11,0.212-0.011,0.212-0.011s0.115,0.207,0.43,0.086c0.819-0.678,1.418-1.558,2.237-2.234
	c2.456-2.031,4.36-4.567,6.367-7.11c4.811-6.293,7.945-12.082,8.318-13.164C430.801,441.854,430.448,441.125,429.335,442.35z
	 M336.402,347.023c0.552,0.398,0.046,0.954-0.4,0.55C335.877,347.154,336.184,346.927,336.402,347.023z M335.285,345.903
	c0.537,0.081-0.067,0.856-0.512,0.45C334.552,346.152,335.068,345.808,335.285,345.903z M314.164,349.349
	c0.196-0.328,0.525-0.131,0.338,0.411C314.412,350.084,313.764,349.902,314.164,349.349z M312.383,354.435
	c0.424-0.021,0.545,0.293,0.56,0.612c0.02,0.425-0.824,0.57-0.961-0.061C311.866,354.778,312.063,354.451,312.383,354.435z
	 M307.645,400.632c0.313-2.357,0.848-4.615,1.48-6.986c0.644-2.158,1.983-5.31,2.566-6.506c0.965-2.067,2.267-3.832,3.018-5.996
	c0.657-1.841,1.862-3.388,2.846-5.03c0.492-0.875,1.089-1.754,1.691-2.526c1.4-1.877,2.807-3.646,4.546-5.111
	c2.46-2.031,4.361-2.334,5.229-1.948c0.869,0.384,1.697,2.152,1.115,5.588c-0.313,2.355-1.343,5.382-3.589,9.64
	c-0.688,1.203-1.852,3.599-2.743,5.025c-0.895,1.318-1.921,2.113-2.326,2.557c-0.399,0.55-0.475,1.193-0.764,1.844
	c-0.675,1.521-1.68,2.742-2.798,3.856c-0.404,0.446-1.026,0.794-1.219,1.229c-0.754,2.058-2.614,3.209-4.147,4.559
	c-0.411,0.339-1.006,1.217-1.938,1.793C308.943,403.337,307.246,403.417,307.645,400.632z M265.565,433.478
	c-0.105,0.007-0.109-0.102-0.109-0.102c-0.006-0.104,0.099-0.11,0.206-0.115c0.107-0.006,0.11,0.103,0.11,0.103
	C265.672,433.475,265.672,433.475,265.565,433.478z M271.634,433.51c0,0-0.105,0.006-0.111-0.099
	c-0.005-0.105-0.01-0.212-0.01-0.212s0.106-0.005,0.111,0.101C271.634,433.51,271.634,433.51,271.634,433.51z M272.148,435.402
	c-0.105,0.006-0.217-0.095-0.222-0.202c-0.004-0.105,0.095-0.217,0.202-0.224c0.106-0.004,0.218,0.096,0.222,0.204
	C272.253,435.399,272.148,435.402,272.148,435.402z M269.336,441.175c-0.005-0.104-0.01-0.212,0.089-0.322
	c0,0,0.101-0.112,0.106-0.005c0.005,0.106,0.005,0.106,0.011,0.213C269.547,441.167,269.44,441.172,269.336,441.175z
	 M269.814,444.558c-0.106,0.005-0.106,0.005-0.113-0.102c-0.005-0.105-0.005-0.105,0.097-0.217c0.104-0.004,0.104-0.004,0.109,0.101
	C269.809,444.451,269.814,444.558,269.814,444.558z M273.368,445.456c-0.106,0.005-0.106,0.005-0.111-0.102
	c-0.005-0.104-0.005-0.104,0.101-0.11c0.106-0.005,0.106-0.005,0.11,0.101C273.473,445.451,273.473,445.451,273.368,445.456z
	 M274.832,449.429c-0.005-0.105-0.005-0.105-0.01-0.213C275.029,449.1,275.049,449.527,274.832,449.429z M277.456,450.903
	c-0.106,0.006-0.111-0.1-0.111-0.1c-0.005-0.108,0.102-0.112,0.102-0.112c0.105-0.005,0.111,0.101,0.111,0.101
	S277.451,450.795,277.456,450.903z M276.666,427.422c-0.006-0.106,0.101-0.111,0.101-0.111c0.106-0.005,0.111,0.102,0.111,0.102
	l-0.101,0.11C276.782,427.628,276.67,427.527,276.666,427.422z M277.134,432.826c-0.105,0.006-0.105,0.006-0.11-0.101
	c-0.004-0.105-0.004-0.105,0.1-0.11c0.106-0.004,0.106-0.004,0.11,0.1C277.24,432.822,277.241,432.822,277.134,432.826z
	 M278.38,429.894c-0.105,0.006-0.111-0.101-0.111-0.101c-0.005-0.105,0.101-0.111,0.101-0.111l0.11,0.102L278.38,429.894z
	 M280.126,437.581c-0.02-0.426-0.236-0.521-0.455-0.617c-0.005-0.105-0.011-0.213-0.015-0.316c0.642,0.075,1.082,0.374,1.318,0.895
	C280.763,437.55,280.561,437.773,280.126,437.581z M282.898,444.473C282.793,444.478,282.793,444.478,282.898,444.473
	c-0.116-0.207-0.116-0.207-0.009-0.211C282.995,444.257,283.001,444.361,282.898,444.473
	C283.006,444.468,282.898,444.473,282.898,444.473z M283.09,432.758c-0.105,0.006-0.216-0.095-0.227-0.307
	c-0.009-0.213-0.015-0.319,0.091-0.323c0.106-0.005,0.217,0.095,0.227,0.307C283.193,432.649,283.198,432.753,283.09,432.758z
	 M286.971,451.838c-0.107,0.004-0.218-0.097-0.222-0.204c-0.006-0.106,0.095-0.217,0.201-0.221c0.106-0.007,0.217,0.095,0.224,0.2
	C287.179,451.719,287.077,451.831,286.971,451.838z M289.01,456.743c-0.333-0.305,0.415-0.234,0.399-0.552
	C289.628,456.288,289.219,456.626,289.01,456.743z M288.869,446.957c-0.1,0.111-0.202,0.222-0.416,0.232
	c-0.316,0.015-0.434-0.192-0.434-0.192c-0.005-0.104,0.101-0.108,0.208-0.114c0.214-0.01,0.416-0.234,0.629-0.245
	C288.955,446.527,289.177,446.73,288.869,446.957z M289.4,446.932c-0.106,0.005-0.106,0.005-0.11-0.098
	c-0.005-0.108-0.005-0.108,0.1-0.112c0.106-0.006,0.106-0.006,0.111,0.101C289.507,446.927,289.507,446.927,289.4,446.932z
	 M291.652,454.064c-0.107,0.004-0.11-0.103-0.11-0.103l0.101-0.108c0.105-0.005,0.11,0.1,0.11,0.1S291.759,454.058,291.652,454.064z
	 M292.17,451.485c-0.107,0.005-0.111-0.102-0.111-0.102c-0.005-0.105,0.101-0.109,0.101-0.109l0.11,0.1
	C292.377,451.368,292.275,451.479,292.17,451.485z M294.348,452.551c-0.106,0.006-0.111-0.1-0.111-0.1l0.103-0.111
	c0.104-0.005,0.109,0.101,0.109,0.101S294.453,452.548,294.348,452.551z M295.533,448.344c-0.212,0.012-0.323-0.09-0.333-0.305
	c-0.011-0.21,0.091-0.32,0.303-0.33c0.214-0.01,0.325,0.089,0.333,0.301C295.847,448.223,295.744,448.335,295.533,448.344z
	 M296.679,450.101c-0.106,0.005-0.106,0.005-0.11-0.101c-0.005-0.105-0.005-0.105,0.1-0.111c0.105-0.005,0.105-0.005,0.111,0.102
	C296.787,450.094,296.787,450.094,296.679,450.101z M297.535,456.977c-0.105,0.006-0.11-0.1-0.11-0.1l0.101-0.111l0.111,0.102
	C297.638,456.868,297.643,456.972,297.535,456.977z M298.317,450.98l-0.004-0.105c-0.006-0.105,0.098-0.111,0.105-0.005
	c0,0,0.006,0.105,0.01,0.213C298.434,451.189,298.333,451.3,298.317,450.98z M298.52,450.76c-0.004-0.105,0.096-0.218,0.203-0.222
	c0.106-0.007,0.217,0.095,0.224,0.2c0.005,0.106-0.095,0.218-0.203,0.224C298.636,450.966,298.526,450.865,298.52,450.76z
	 M298.867,451.382c-0.217-0.097-0.12-0.315,0.208-0.116C299.182,451.26,299.186,451.367,298.867,451.382z M298.941,448.397
	c-0.105,0.007-0.105,0.007-0.11-0.101c-0.006-0.106-0.006-0.106,0.099-0.11c0.105-0.005,0.105-0.005,0.111,0.1
	C299.046,448.393,298.941,448.397,298.941,448.397z M299.331,447.635L299.331,447.635c-0.111-0.101-0.011-0.213-0.011-0.213
	C299.43,447.525,299.43,447.525,299.331,447.635C299.437,447.629,299.437,447.629,299.331,447.635z M302.639,450.137
	c-0.106,0.005-0.109-0.101-0.109-0.101c-0.006-0.105,0.1-0.11,0.1-0.11l0.111,0.101
	C302.847,450.022,302.747,450.134,302.639,450.137z M303.064,452.353C302.959,452.359,302.959,452.359,303.064,452.353
	c-0.11-0.101-0.009-0.213-0.009-0.213S303.166,452.24,303.064,452.353C303.17,452.348,303.064,452.353,303.064,452.353z
	 M308.026,458.291c-0.105,0.006-0.105,0.006-0.11-0.101c-0.005-0.105-0.005-0.105,0.1-0.112c0.106-0.004,0.106-0.004,0.113,0.103
	C308.129,458.179,308.135,458.286,308.026,458.291z M313.666,453.768L313.666,453.768c-0.11-0.1-0.011-0.212-0.011-0.212
	S313.768,453.658,313.666,453.768C313.774,453.762,313.774,453.762,313.666,453.768z M316.599,452.779
	c-0.104,0.004-0.217-0.097-0.222-0.202c-0.005-0.107-0.01-0.214,0.097-0.218c0.105-0.005,0.216,0.096,0.222,0.203
	C316.701,452.669,316.706,452.773,316.599,452.779z M317.427,449.972c-0.107,0.005-0.111-0.102-0.111-0.102l0.101-0.109
	c0.105-0.004,0.11,0.1,0.11,0.1S317.531,449.969,317.427,449.972z M317.95,452.076c-0.105,0.006-0.218-0.096-0.228-0.308
	c-0.011-0.213-0.015-0.318,0.09-0.324c0.107-0.005,0.219,0.095,0.229,0.308C318.047,451.86,317.95,452.076,317.95,452.076z
	 M326.86,446.973c-0.105,0.006-0.11-0.1-0.11-0.1c-0.004-0.106,0.1-0.111,0.1-0.111l0.113,0.101
	C326.963,446.862,326.969,446.969,326.86,446.973z M328.206,446.167C328.206,446.167,328.094,446.063,328.206,446.167
	c-0.11-0.103-0.116-0.208-0.01-0.214C328.303,445.948,328.303,445.948,328.206,446.167
	C328.306,446.054,328.312,446.162,328.206,446.167z M329.082,446.655C328.974,446.661,328.974,446.661,329.082,446.655
	c-0.111-0.1-0.116-0.208-0.011-0.211C329.071,446.444,329.075,446.549,329.082,446.655L329.082,446.655z M334.341,445.343
	c-0.107,0.006-0.112-0.101-0.112-0.101l0.101-0.109l0.111,0.1C334.44,445.232,334.445,445.339,334.341,445.343z M334.984,440.95
	c-0.105,0.006-0.105,0.006-0.11-0.1c-0.006-0.106-0.006-0.106,0.1-0.112c0.106-0.004,0.106-0.004,0.112,0.103
	C335.09,440.945,335.09,440.945,334.984,440.95z M340.417,441.118c-0.105,0.006-0.108-0.1-0.108-0.1l0.1-0.111l0.11,0.103
	C340.519,441.008,340.525,441.113,340.417,441.118z M391.579,463.074C391.471,463.08,391.471,463.08,391.579,463.074
	c-0.102,0.11-0.207,0.115-0.318,0.015c-0.11-0.102-0.11-0.102-0.01-0.213c0.102-0.111,0.102-0.111,0.213-0.01l0.11,0.101
	l0.106-0.004l0.004,0.104C391.579,463.074,391.579,463.074,391.579,463.074z M394.586,463.677c-0.106,0.005-0.11-0.103-0.11-0.103
	l0.1-0.11l0.112,0.102L394.586,463.677z"/>
</svg>
