<?xml version="1.0" encoding="utf-8"?>
<!-- Generator: Adobe Illustrator 16.0.0, SVG Export Plug-In . SVG Version: 6.00 Build 0)  -->
<!DOCTYPE svg PUBLIC "-//W3C//DTD SVG 1.1//EN" "http://www.w3.org/Graphics/SVG/1.1/DTD/svg11.dtd">
<svg version="1.1" id="Layer_1" xmlns="http://www.w3.org/2000/svg" xmlns:xlink="http://www.w3.org/1999/xlink" x="0px" y="0px"
	 width="588.084px" height="362.781px" viewBox="137.365 128.514 588.084 362.781"
	 enable-background="new 137.365 128.514 588.084 362.781" xml:space="preserve">
<path opacity="0.3" fill="#B39346" enable-background="new    " d="M626.704,198.854c0.305-0.089,0.35-0.323,0.523-0.485
	c0.068-0.133,0.054-0.568-0.327-0.35c-0.173,0.162-0.245,0.294-0.287,0.528C626.543,198.68,626.499,198.914,626.704,198.854z"/>
<path opacity="0.3" fill="#B39346" enable-background="new    " d="M629.835,224.299c0.205-0.059,0.348-0.323,0.391-0.559
	c0.055-0.567,0.109-1.138-0.01-1.547c-0.148-0.51-0.456-0.42-0.863-0.3c-0.205,0.06-0.379,0.222-0.318,0.425
	c0.047,0.541,0.096,1.08,0.171,1.721C629.202,224.041,629.599,224.258,629.835,224.299z"/>
<path opacity="0.3" fill="#B39346" enable-background="new    " d="M628.381,207.223c0.816-0.239,0.96-0.503,0.925-1.377
	c0.041-0.233-0.25-0.481-0.526-0.29c-0.481,0.252-0.8,0.678-0.884,1.145C627.75,206.967,628.073,207.314,628.381,207.223z"/>
<path opacity="0.3" fill="#B39346" enable-background="new    " d="M627.575,211.67c0.379-0.223,0.595-0.619,0.794-1.451
	c0.271-0.967-0.736-1.003-1.114-0.781c-0.276,0.191-0.493,0.588-0.739,0.88c-0.174,0.161-0.289,0.526-0.33,0.761
	C626.424,211.896,627.168,211.789,627.575,211.67z"/>
<path opacity="0.3" fill="#B39346" enable-background="new    " d="M640.747,295.644c0.534-0.82,0.416-1.229-0.566-1.938
	c-0.13-0.072-0.334-0.012-0.275,0.191c0.149,0.51,0.196,1.049,0.405,1.764C640.339,295.763,640.676,295.775,640.747,295.644z"/>
<circle opacity="0.3" fill="#B39346" enable-background="new    " cx="637.438" cy="294.177" r="0.319"/>
<path opacity="0.3" fill="#B39346" enable-background="new    " d="M629.495,230.711c-0.857,0.473-1.482,0.987-2.139,1.4
	c-0.1,0.031-0.143,0.266-0.011,0.336c0.162,0.176,0.323,0.348,0.354,0.451c-0.093,1.575-0.214,3.051-0.905,4.473
	c-0.62,1.287-0.67,2.631-0.66,4.18c0.061,0.204,0.19,0.275,0.395,0.217c0.379-0.223,0.392-0.557,0.404-0.893
	c0.024-0.673-0.113-1.518,0.308-1.974c0.625-0.515,0.915-1.044,0.956-1.276c0.518-1.258,1.268-2.476,0.909-3.699
	c-0.227-1.152-0.099-1.854,0.671-2.631c0.101-0.031,0.04-0.234-0.02-0.439C629.759,230.855,629.699,230.651,629.495,230.711z"/>
<path opacity="0.3" fill="#B39346" enable-background="new    " d="M621.417,257.22c0.03,0.104,0.059,0.207,0.059,0.207
	c0.366,0.114,0.834,0.199,1.202,0.312c0,0,0.143-0.264,0.212-0.396c-0.364-0.113-0.628-0.257-0.963-0.27
	C621.823,257.102,621.619,257.162,621.417,257.22z"/>
<path opacity="0.3" fill="#B39346" enable-background="new    " d="M623.264,218.138c0.176-0.163,0.351-0.325,0.422-0.457
	c0.287-0.527,0.444-1.127,0.764-1.552c0.42-0.456,1.513-0.888,1.597-1.354c0.041-0.234-0.119-0.408-0.323-0.35
	c-0.539,0.049-1.019,0.299-1.499,0.551c-0.381,0.221-0.626,0.514-0.843,0.911c-0.359,0.659-0.648,1.187-0.805,1.786
	C622.461,218.039,622.743,218.621,623.264,218.138z"/>
<path opacity="0.3" fill="#B39346" enable-background="new    " d="M620.956,240.521c-0.029-0.102-0.333-0.012-0.538,0.047
	c-0.102,0.029-0.174,0.162-0.145,0.266c0.058,0.205,0.148,0.508,0.209,0.713c0.029,0.102,0.132,0.072,0.232,0.042
	C620.963,241.293,621.442,241.042,620.956,240.521z"/>
<path opacity="0.3" fill="#B39346" enable-background="new    " d="M620.387,240.467c0.174-0.162,0.318-0.426,0.493-0.588
	c0.144-0.264-0.252-0.48-0.366-0.115C620.311,239.825,620.298,240.16,620.387,240.467
	C620.285,240.498,620.285,240.498,620.387,240.467z"/>
<path opacity="0.3" fill="#B39346" enable-background="new    " d="M621.545,236.472c-0.335-0.013-0.54,0.047-0.816,0.238
	c-0.45,0.354-0.037,1.008,0.546,0.728c0.201-0.06,0.377-0.222,0.553-0.382C621.97,236.792,621.881,236.484,621.545,236.472z"/>
<path opacity="0.3" fill="#B39346" enable-background="new    " d="M663.975,281.535c-0.374,1-0.314,1.201,0.262,2.031
	c0.03,0.101,0.266,0.145,0.307-0.09c0.126-0.701,0.169-0.936-0.263-2.029C664.252,281.344,664.02,281.301,663.975,281.535z"/>
<path opacity="0.3" fill="#B39346" enable-background="new    " d="M617.945,241.958c-0.132-0.073-0.233-0.042-0.306,0.089
	c-0.156,0.598-0.314,1.197-0.615,2.062c-0.07,0.131,0.061,0.206,0.162,0.174c0.45-0.353,0.727-0.544,1.002-0.735
	c0.276-0.19,0.816-0.239,0.87-0.809c-0.029-0.102-0.061-0.204-0.161-0.175C618.704,242.286,618.34,242.174,617.945,241.958z"/>
<path opacity="0.3" fill="#B39346" enable-background="new    " d="M624.062,246.589c-0.03-0.102-0.131-0.071-0.203,0.06
	c-0.288,0.529-0.709,0.982-1.071,1.643l-0.07,0.131c0.089,0.307,0.149,0.51,0.281,0.582c0.264,0.145,0.588,0.493,0.892,0.402
	c0.439-0.017,0.656-0.412,0.434-0.791c-0.412-0.652,0.211-1.168,0.135-1.811C624.458,246.804,624.224,246.764,624.062,246.589z"/>
<path opacity="0.3" fill="#B39346" enable-background="new    " d="M620.131,230.131c-0.175,0.16-0.275,0.189-0.45,0.352
	c-0.102,0.031,0.029,0.102,0.06,0.205c0.305-0.089,0.408-0.121,0.449-0.353C620.263,230.203,620.203,229.998,620.131,230.131z"/>
<circle opacity="0.3" fill="#B39346" enable-background="new    " cx="635.07" cy="298.194" r="0.213"/>
<circle opacity="0.3" fill="#B39346" enable-background="new    " cx="638.839" cy="296.315" r="0.213"/>
<circle opacity="0.3" fill="#B39346" enable-background="new    " cx="634.439" cy="295.279" r="0.425"/>
<circle opacity="0.3" fill="#B39346" enable-background="new    " cx="633.382" cy="292.044" r="0.32"/>
<circle opacity="0.3" fill="#B39346" enable-background="new    " cx="620.175" cy="257.142" r="0.532"/>
<circle opacity="0.3" fill="#B39346" enable-background="new    " cx="621.251" cy="258.93" r="0.425"/>
<circle opacity="0.3" fill="#B39346" enable-background="new    " cx="617.869" cy="234.889" r="0.319"/>
<circle opacity="0.3" fill="#B39346" enable-background="new    " cx="623.55" cy="232.342" r="0.212"/>
<circle opacity="0.3" fill="#B39346" enable-background="new    " cx="626.499" cy="218.961" r="0.212"/>
<circle opacity="0.3" fill="#B39346" enable-background="new    " cx="628.704" cy="216.655" r="0.319"/>
<ellipse transform="matrix(0.2789 0.9603 -0.9603 0.2789 670.0264 -427.7547)" opacity="0.3" fill="#B39346" enable-background="new    " cx="619.857" cy="232.297" rx="0.214" ry="0.426"/>
<path opacity="0.3" fill="#B39346" enable-background="new    " d="M724.78,272.82c-0.421,0.455-0.843,0.912-1.159,1.337
	c-0.175,0.16-0.492,0.587-0.649,1.187c-0.129,0.701-1.075,0.867-1.699,1.382c-2.006,1.474-3.688,3.294-5.502,5.046
	c-4.148,3.981-8.271,8.068-13.199,11.285c-1.034,0.635-1.935,1.34-2.996,1.871c-1.992,1.137-3.927,2.479-5.756,3.789
	c-0.277,0.192-0.421,0.455-0.697,0.648c-0.275,0.189-0.564,0.719-1.543,0.783c-0.438,0.018-0.876,0.034-1.488,0.214
	c-1.192,0.46-2.094,1.167-2.802,2.149c-0.392,0.557-0.779,1.113-1.453,1.09c-1.476-0.123-2.742,0.471-3.937,0.931
	c-1.093,0.43-2.347,0.687-3.532,0.037c-1.683-0.836-3.398-1.774-4.968-2.976c-2.319-1.865-3.33-4.563-4.517-7.095
	c-0.87-1.85-1.367-3.92-2.036-5.829c-0.089-0.305-0.27-0.918-0.822-0.535c-0.755,0.444-0.827,0.576-0.679,1.086
	c0.479,1.633,0.577,3.485,1.872,4.879c0.352,0.449,0.663,1.133,0.741,1.775c0.363,1.998,1.555,3.423,2.398,5.169
	c0.25,0.481,0.604,0.929,0.766,1.106c0.678,0.797,0.741,1.774,0.705,2.781c0.018,0.438-0.296,1.637-1.639,1.586
	c-0.569-0.053-1.068-0.24-1.696-0.498c-0.996-0.373-2.123-0.818-3.118-1.192l0,0c-0.364-0.116-0.937-0.169-0.521,0.485
	c0.03,0.102,0.06,0.203,0.19,0.275c0.03,0.102,0.179,0.611-0.435,0.791c-0.102,0.031-0.201,0.061-0.305,0.09
	c-0.54,0.049-0.528-0.288-0.414-0.656c0.188-0.496,0.375-0.993,0.488-1.358c0.169-0.935-0.987-1.482-1.053-2.46
	c-0.018-0.439-0.178-0.611-0.352-0.451c-0.483,0.25-0.505,0.923-0.476,1.025c-0.013,0.336,0.047,0.541,0.034,0.876
	c0.078,0.642-0.164,1.708-0.896,1.481c-0.599-0.159-0.388-1.328-0.347-1.562c0.182-1.271-0.074-2.523-0.914-3.497
	c-0.353-0.449-0.34-0.786-0.269-0.919c0.084-0.467,0.241-1.066,0.399-1.666c0.041-0.234-0.019-0.439-0.28-0.582
	c-0.528-0.291-1.056-0.579-1.685-0.835c-0.13-0.073-0.162-0.175-0.089-0.306c0.547-1.156,0.309-1.973-0.47-2.741
	c-0.649-0.696-1.148-1.657-2.23-1.562c-0.103,0.03-0.539,0.048-0.463,0.688c0.017,0.438,0.004,0.774-0.211,1.17
	c-0.33,0.76-0.663,1.521-1.257,2.139c-0.564,0.719-1.691,0.273-1.858-0.676c-0.27-0.916-0.202-1.822,0.465-2.57
	s1.041-1.744,1.312-2.711c0.156-0.599,0.548-1.157,0.805-1.785c0.116-0.366,0.229-0.732,0.416-1.23
	c0.042-0.232-0.047-0.539-0.209-0.713c-0.557-0.391-1.012-0.811-1.539-1.099c-0.162-0.174-0.469-0.086-0.643,0.077
	c-0.349,0.324-0.594,0.617-0.941,0.939c-0.073,0.133-0.248,0.294-0.35,0.324c-0.481,0.25-2.645-0.333-3.305-0.693
	c-0.66-0.361-0.826-1.31,0.225-1.505c0.947-0.169,2.057-0.158,3.005-0.325c0.947-0.167,1.44-0.754,1.376-1.732
	c-0.138-0.844-0.304-1.793-0.572-2.711c-0.27-0.918-0.669-1.91-0.429-2.977c0.271-0.967,0.207-1.944-0.398-2.875
	c-0.22-0.377-0.166-0.947-0.052-1.312c0.519-1.26,0.28-2.076-0.835-2.856c-0.558-0.393-0.839-0.974-0.815-1.646
	c0.025-0.672,0.666-0.748,1.146-0.999c0.859-0.473,0.765-1.552-0.129-1.957c-0.396-0.216-0.76-0.33-1.127-0.445
	c-0.233-0.04-0.425-0.317-0.383-0.552c0.012-0.336,0.055-0.568,0.096-0.803c0.187-0.496,0.476-1.025,0.663-1.523
	c0.312-1.199-0.131-1.957-1.357-2.369c-0.63-0.26-0.911-0.84-0.887-1.512c0.24-1.068,0.824-1.35,1.716-0.947
	c0.396,0.217,0.72,0.564,1.359,0.486c0.206-0.061,0.38-0.221,0.32-0.424c0.055-0.57,0.036-1.008,0.091-1.578
	c0.072-0.131-0.089-0.305-0.149-0.51c-0.162-0.176-0.19-0.275-0.323-0.35c-0.893-0.403-1.366-1.26-1.532-2.209
	c-0.167-0.948,0.749-1.217,1.01-1.846c0,0,0.072-0.131,0.041-0.234c0.043-0.232-0.148-0.51-0.484-0.521
	c-0.234-0.043-0.599-0.157-0.833-0.199c-0.232-0.041-0.438,0.018-0.642,0.078c-0.757,0.442-0.854,1.246-1.478,1.762
	c-0.275,0.189-0.643,0.076-0.63-0.26c-0.136-0.845-0.243-1.588-0.218-2.26c-0.006-0.773,0.354-1.434,1.01-1.845
	c0.685-0.312,0.965,0.269,1.462,0.458c0.133,0.07,0.233,0.041,0.337,0.01c0.099-0.029,0.275-0.189,0.245-0.293
	c-0.017-0.438-0.064-0.977,0.181-1.273c0.218-0.393,0.668-0.746,1.016-1.07c0.071-0.129,0.144-0.264,0.084-0.467
	c-1.119-1.555-1.354-1.598-2.739-1.414c-0.977,0.063-1.837,0.538-2.534,1.186l0,0l0,0c-0.172,0.162-0.348,0.322-0.492,0.588
	c-0.317,0.426-0.637,0.85-1.099,1.54c-0.071,0.13-0.306,0.089-0.335-0.013c-0.149-0.511-0.239-0.816-0.065-0.978
	c0.464-0.688,1.189-1.235,1.418-1.966c0.561-1.492,1.827-2.085,3.051-2.443c0.306-0.088,0.539-0.048,0.804,0.096
	c0.132,0.072,0.294,0.246,0.322,0.35c0.295,0.248,0.516,0.625,0.854,0.637c0.366,0.115,0.802,0.098,1.079-0.094
	c0.175-0.16,0.259-0.629,0.271-0.965c-0.03-0.102-0.061-0.205,0.01-0.337c-0.029-0.103-0.089-0.306-0.222-0.378
	c-1.084-0.68-2.243-1.229-3.254-2.037c-0.264-0.143-0.545-0.727-0.37-0.888c0.115-0.366,0.666-0.75,0.974-0.837
	c0.437-0.021,0.832,0.197,1.331,0.385c0.264,0.143,0.54-0.049,0.553-0.385c0.054-0.568,0.139-1.038,0.223-1.505
	c0.043-0.233-0.048-0.54-0.28-0.583c-0.264-0.145-0.393-0.219-0.658-0.362c-0.264-0.144-0.354-0.45-0.311-0.685
	c0.314-1.198,0.626-2.398,1.013-3.729c0.04-0.234,0.054-0.569-0.106-0.745c-0.324-0.348-0.678-0.797-1.031-1.249
	c-0.19-0.274-0.179-0.612,0.097-0.803c0.93-0.604,0.56-1.492,0.321-2.307c-0.089-0.307-0.486-0.523-0.792-0.434
	c-0.918,0.268-0.761-0.332-0.689-0.463c0.475-1.025,0.482-2.136,1.222-3.014c0.739-0.883,1.023-2.186,1.479-3.646
	c0.188-0.498,0.14-1.039-0.082-1.416c-0.399-0.99-0.933-2.053-1.465-3.114c-0.222-0.378-0.635-1.034,0.147-2.148
	c0.924-1.379,1.544-2.666,1.24-4.462c-0.139-0.846,0.062-1.68-0.237-2.7c-0.342-0.786-0.304-1.794-0.236-2.698
	c0.085-0.469,0.301-0.863,0.52-1.26c0.245-0.294,0.229-0.732,0.005-1.109c-0.854-1.41-1.303-2.941-0.935-4.709
	c0.514-2.033,0.923-4.036,0.733-6.196c0.014-0.335,0.129-0.7,0.242-1.067c0.303-0.863,0.603-1.725,0.903-2.59
	c0.042-0.232,0.085-0.467-0.077-0.641c-0.222-0.379-0.443-0.756-0.532-1.063c-0.119-0.407,0.007-1.108,0.313-1.198
	c0.93-0.604,1.363-1.395,1.706-2.492c0.116-0.365,0.1-0.805-0.124-1.182c-0.443-0.759-0.813-1.646-0.002-2.658
	c0.247-0.293,0.14-1.037-0.012-1.547c-0.047-0.54-0.327-1.121-0.008-1.549c0.637-0.851,0.368-1.768,0.23-2.613
	c-0.107-0.745,0.021-1.447,0.249-2.178c0.229-0.734,0.69-1.42,0.764-1.553c0.598-2.5-2.051-3.607-1.263-5.832
	c0.318-0.426,0.727-0.545,1.104-0.766c0.307-0.09,0.45-0.354,0.464-0.689c0.079-1.241,0.393-2.439,0.238-3.722
	c-0.184-1.387,0.027-2.556,0.941-3.599c0.811-1.013,0.759-2.327,0.316-3.082c-1.179-1.761-0.634-2.917,0.719-3.977
	c0,0,0,0,0.102-0.029c0.145-0.263,0.055-0.569-0.108-0.744c-0.131-0.07-0.264-0.144-0.294-0.247
	c-0.264-0.146-0.322-0.349-0.31-0.685c-0.022-1.212,0.057-2.452,1-3.395c0.42-0.454,0.355-1.432,0.38-2.103
	c0.056-0.569-0.196-1.049-0.243-1.59c-0.018-0.438,0.039-1.008,0.021-1.445c0.042-0.234-0.12-0.408-0.353-0.451
	c-0.774,0.006-0.648-0.696-0.694-1.236c0.012-0.336-0.281-0.581-0.515-0.626c-0.936-0.169-1.872-0.338-2.778-0.405
	c-1.709-0.164-3.418-0.328-5.23-0.462c-1.139-0.109-2.279-0.219-3.517-0.299c-0.236-0.041-0.41,0.12-0.555,0.383
	c-0.115,0.366-0.127,0.703-0.535,0.821c-0.989,0.399-1.452,1.09-1.886,1.882c-1.052,2.078-2.133,4.056-3.186,6.137
	c-0.735,1.656-1.438,3.41-2.145,5.168c-0.704,1.756-1.612,3.575-2.052,5.472c-0.472,1.801-1.469,3.311-1.836,5.079
	c-0.567,2.603-1.967,5.004-2.665,7.537c-0.712,2.866-1.861,5.747-2.705,8.541c-0.229,0.732-0.529,1.596-0.759,2.329
	c-0.041,0.233,0.047,0.538,0.209,0.714c0.132,0.072,0.294,0.246,0.323,0.35c0.294,0.244,0.179,0.611-0.098,0.803
	c-0.275,0.191-0.55,0.385-0.856,0.473c-0.175,0.161-0.349,0.322-0.392,0.559c-0.539,1.93-1.215,3.788-1.656,5.688
	c-0.94,3.596-2.145,7.051-2.618,10.733c-0.152,1.374-0.435,2.677-0.924,4.036c-0.56,1.493-0.958,3.16-0.916,4.809
	c-0.007,1.109-0.176,2.048-0.417,3.114c-0.229,0.731-0.459,1.462-0.556,2.267c-0.224,1.504-0.286,3.184-0.612,4.719
	c-0.496,2.469-0.623,5.056-1.586,7.44c-0.187,0.497-0.243,1.067-0.297,1.636c-0.305,2.748-0.505,5.465-0.708,8.182
	c-0.066,0.906-0.571,1.83-0.201,2.717c0.061,0.204,0.048,0.541-0.095,0.805c-1.029,1.406-0.785,2.998-0.572,4.485
	c0.095,1.081-0.513,2.034-0.112,3.024c0.029,0.102,0.252,0.48,0.024,1.212c-0.157,0.599-0.283,1.301-0.34,1.87
	c0.062,2.861-0.109,5.682-0.413,8.429c0.018,0.437,0.136,0.845,0.256,1.253c0.06,0.203,0.18,0.611-0.008,1.109
	c-0.433,0.792,0.142,1.62-0.057,2.451c-0.254,1.404-0.202,2.719,0.084,4.074c0.389,1.326,0.032,2.76,0.289,4.014
	c0.06,0.203,0.017,0.438,0.077,0.642c0.03,0.103,0.131,0.072,0.162,0.174c0.029,0.103,0.029,0.103,0.089,0.306
	c0.678,0.799,0.376,1.661,0.074,2.527c-0.187,0.496-0.375,0.994-0.661,1.523c-0.188,0.496,0.095,1.076,0.591,1.264
	c0.234,0.042,0.365,0.115,0.599,0.154c0.235,0.042,0.852,0.639-0.019,1.447c-0.175,0.16-0.479,0.25-0.787,0.34
	c-0.101,0.031-0.275,0.191-0.215,0.396c0.818,2.418,0.833,4.738,0.849,7.061c-0.013,0.338-0.128,0.701-0.374,0.996
	c-0.565,0.719-1.233,1.467-1.532,2.331c-0.5,1.696-1.456,2.972-2.383,4.351c-0.708,0.984-0.918,2.153-1.496,3.209
	c-0.607,0.952-1.904,1.443-2.35,2.57c-0.963,2.387-3.453,5.217-4.559,5.984c-1.658,1.151-3.133,1.028-4.354-0.496
	c-0.545-0.727-0.813-1.645-0.849-2.521c-0.034-0.876,0.002-1.885-0.95-2.488c-0.264-0.144-0.515-0.625-0.399-0.99
	c0.211-1.17-0.087-2.189-0.62-3.252c-0.563-1.162-0.496-2.07-0.382-2.436c0.416-1.229-0.014-2.322-0.984-3.367
	c-0.454-0.419-0.473-0.857-0.652-1.469c-0.255-1.254-0.512-2.508-0.799-3.863c-0.167-0.949,0.032-1.783,0.291-2.412
	c0.217-0.395,0.169-0.936-0.111-1.518c-0.862-2.186-1.547-4.529-1.154-6.974c0.126-0.702,0.049-1.343-0.159-2.056
	c-0.46-1.193-0.362-1.998-0.248-2.365c0.459-1.462,0.405-2.775-0.116-4.175c-0.37-0.89-0.566-1.938-0.225-3.038
	c0.115-0.364-0.004-0.773-0.092-1.079c-0.49-1.296-1.082-2.561-0.901-3.831c0.127-0.703,0.001-1.887,0.045-2.119
	c-0.124-1.182,0.087-2.351,0.53-3.479c0.376-0.996,0.646-1.959,0.447-3.012c-0.381-2.434-0.556-4.932-0.295-7.443
	c0.086-0.467-0.034-0.878-0.081-1.415c-0.094-1.08-0.568-1.938-1.419-2.575c-0.981-0.709-1.965-1.418-2.917-2.027
	c-0.294-0.243-1.013-0.809-1.264-1.289c-0.662-1.135-2.05-0.951-3.29-1.029c-0.906-0.066-1.771-0.368-2.602-0.566
	c-0.601-0.158-1.524-0.662-2.629,0.104c-0.554,0.381-1.045,0.972-1.628,1.251c-1.41,0.854-2.981,1.537-4.012,2.945
	c-0.39,0.558-1.134,0.665-1.765,0.405c-0.627-0.259-1.155-0.546-1.61-0.966c-0.94-0.943-1.779-1.915-2.618-2.889
	c-0.676-0.799-1.466-1.23-2.533-1.473c-1.536-0.328-3.072-0.652-4.576-0.877c-0.601-0.155-1.302-0.281-1.756-0.701
	c-0.689-0.464-1.333-0.387-2.105-0.381c-1.108-0.008-2.16,0.188-3.312,0.414c-2.202,0.424-4.285,1.256-6.582,0.6
	c-0.364-0.115-0.977,0.062-1.253,0.256c-0.755,0.443-1.511,0.885-2.105,1.502c-0.246,0.293-0.157,0.601-0.127,0.702
	c0.029,0.103,0.12,0.407-0.319,0.425c-0.101,0.03-0.54,0.05-0.784,0.341c-0.146,0.265-0.218,0.397-0.361,0.661
	c-2.979,6.852-5.986,13.604-8.569,20.673c-1.42,3.851-2.445,7.915-3.733,11.84c-1,3.394-1.899,6.755-2.664,10.192
	c-0.905,4.475-2.25,8.966-3.156,13.441c-0.875,4.572-1.487,9.295-2.129,13.914c-0.21,1.168-0.188,2.381-0.4,3.551
	c-0.925,5.92-0.916,12.009-1.373,18.012c-0.012,0.335-0.063,1.68,0.266,2.801c0.298,1.02-0.045,2.117-0.052,3.229
	c-0.066,3.563,0.381,6.977,3.141,9.604c0.162,0.174,0.385,0.551,0.546,0.726c0.029,0.102,0.089,0.306,0.221,0.378
	c0.189,0.275,0.395,0.216,0.498,0.186c0.102-0.03,0.102-0.03,0.233,0.042c0.132,0.071,0.731,0.229,0.863,0.302
	c0.426,0.316,0.72,0.564,0.767,1.103c0.03,0.102,0.088,0.306,0.323,0.35c0.365,0.114,0.293,0.245,0.587,0.493
	c0.162,0.174,0.569,0.055,0.907,0.066c0.13,0.072,0.293,0.246,0.393,0.217c0.235,0.043,0.325,0.347,0.661,0.359
	c0.202-0.059,0.407-0.118,0.612-0.178c0.233,0.042,0.364,0.114,0.425,0.318c0.09,0.305,0.601,0.156,0.601,0.156
	c0.539-0.049,1.194-0.461,1.938-0.568c0.54-0.048,0.629,0.26,1.169,0.212c0.335,0.013,0.551-0.382,1.122-0.329
	c0.1-0.029,0.437-0.016,0.773-0.002c0.335,0.011,1.576,0.09,1.942,0.205c0.467,0.085,0.396,0.216,0.967,0.271
	c0.438-0.017,0.845-0.136,1.282-0.153c1.649-0.041,3.208-0.385,4.445-1.079c0.931-0.604,1.998-0.364,2.333-0.352
	c0.438-0.017,0.877-0.034,1.154-0.226c1.265-0.592,2.473-1.391,3.281-2.4c0.883-1.145,1.988-1.91,3.122-2.576
	c0.728-0.545,1.588-1.02,2.049-1.706c1.039-1.746,1.948-3.562,2.854-5.378c0.289-0.527,0.386-1.33,0.134-1.811
	c-0.37-0.889-0.142-1.619,0.321-2.309c0.435-0.791,0.837-1.684,1.403-2.404c0.565-0.719,0.689-1.418,0.554-2.266
	c-0.107-0.744,0.02-1.445,0.249-2.176c0.487-1.363,0.741-2.765,0.964-4.27c0.141-1.04,0.454-2.238,1.324-3.047
	c0.696-0.646,1.202-1.57,2.3-1.228c0.863,0.302,0.927,1.28,1.065,2.126c0.107,0.744,0.111,1.518,0.494,2.07s0.533,1.062,0.508,1.732
	c-0.135,1.812,0.705,5.442,1.518,7.086c0.224,0.379,0.517,0.625,0.84,0.975c0.616,0.596,0.622,1.369,0.844,1.745
	c0.443,0.757,1.234,1.188,2.053,1.725c0.69,0.462,1.654,0.733,1.852,1.782c0.138,0.846,0.575,0.828,0.808,0.871
	c1.078-0.094,1.455,1.567,2.565,1.576c0.335,0.012,0.894,0.402,1.013,0.811c0.341,0.787,0.898,1.177,1.63,1.406
	c0.964,0.271,1.887,0.776,2.928,0.914c3.346,0.461,6.554,0.076,9.699-1.287c1.878-0.771,3.654-1.514,5.557-1.073
	c0.805,0.096,1.049-0.196,1.223-0.358c0.352-0.324,0.714-0.209,0.948-0.168c0.6,0.156,1.212-0.022,1.312-0.053
	c1.429-0.418,2.755-0.805,4.064-1.631c0.624-0.516,1.44-0.754,2.225-1.094c0.685-0.312,1.338-0.725,1.537-1.559
	c0.241-1.068,0.938-1.715,1.767-2.289c1.454-1.091,2.877-2.28,4.401-3.502c1.18-0.898,1.1-1.541,1.113-1.875
	c0.168-0.938,0.572-1.828,1.473-2.536c0.449-0.354,0.606-0.952,0.925-1.377c0.65-1.188,1.299-2.373,2.051-3.591
	c0.68-1.085,1.92-1.005,2.584,0.13c0.03,0.102,0.06,0.204,0.089,0.306c0.663,1.135,1.227,2.299,1.891,3.434
	c1.993,3.404,4.329,5.709,4.875,6.436c0.678,0.801,1.384,1.7,2.163,2.471c1.263,1.289,2.251,2.772,3.862,3.738
	c2.596,1.68,5.015,3.519,7.869,4.565c1.858,0.675,3.05,2.097,3.914,2.396c0.864,0.304,1.253-0.257,1.001-0.736
	c-0.089-0.306-0.412-0.655-0.399-0.99c-0.12-0.409,0.433-0.792,1.775-0.741c0.673,0.025,1.444,0.02,2.004,0.408
	c0.264,0.146,0.911,0.842-0.11,1.141c-1.02,0.3-0.608,0.953-0.445,1.131c0.677,0.797,1.348,0.822,1.786,0.802
	c0.233,0.042,0.481-0.248,0.422-0.452c-0.018-0.439-0.271-0.92,0.343-1.097c0.613-0.181,1.254-0.259,1.595,0.528
	c0.15,0.51-0.434,0.791-0.52,1.26c-0.07,0.131-0.054,0.568,0.794,0.434c0.946-0.168,1.925-0.231,2.848,0.274
	c0.264,0.142,0.567,0.054,0.803,0.095c1.736-0.507,3.663,0.036,5.38-0.909c0.38-0.222,0.919-0.27,1.388-0.185
	c0.964,0.271,1.428-0.416,1.817-0.974c0.176-0.161,0.379-0.222,0.583-0.281c1.108,0.007,2.118,0.045,3.097-0.022
	c0.977-0.063,1.367-0.619,1.541-0.783c0.974-0.838,2.186-0.859,3.408-1.219c0.714-0.209,1.267-0.592,1.731-1.282
	c0.246-0.294,0.726-0.545,1.104-0.765c0.51-0.15,1.049-0.197,1.562-0.346c0.784-0.342,1.602-0.58,2.224-1.098
	c0.277-0.189,1.424-1.19,1.833-1.31c0.96-0.503,1.757-1.181,2.527-1.959c1.292-1.263,2.935-2.075,3.964-3.485
	c0.144-0.264,0.955-1.277,1.886-1.882c0.756-0.442,1.454-1.089,2.239-1.429c1.134-0.664,2.078-1.605,2.623-2.761
	c0.506-0.923,1.042-1.744,1.737-2.391c0.45-0.353,0.738-0.88,0.926-1.377c1.372-2.509,3.137-4.796,5.065-6.91
	c0.421-0.456,0.9-0.708,1.088-1.204c1.432-2.303,3.476-4.01,5.334-5.993c0.668-0.749,1.495-1.323,1.768-2.29
	c0.145-0.264,0.008-1.108,0.501-1.695c1.23-1.469,2.169-3.183,3.797-4.436c1.35-1.06,2.306-2.337,3.068-3.889
	c1.252-2.912,3.091-5.335,4.738-8.031C725.631,273.457,725.796,271.749,724.78,272.82z M644.425,245.392
	c0.115-0.365,0.492-0.589,0.608-0.953c-0.03-0.103,0.204-0.061,0.233,0.041c0.119,0.408-0.271,0.966-0.548,1.156
	C644.514,245.698,644.382,245.626,644.425,245.392z M588.824,234.422c0.101-0.031,0.233,0.041,0.264,0.145
	c0.028,0.102-0.043,0.232-0.146,0.263c-0.102,0.03-0.233-0.042-0.263-0.144C588.751,234.552,588.721,234.45,588.824,234.422z
	 M582.681,235.001c0.1-0.03,0.232,0.042,0.264,0.145c0.029,0.102-0.043,0.233-0.146,0.263c-0.103,0.03-0.234-0.041-0.264-0.143
	C582.506,235.161,582.578,235.031,582.681,235.001z M578.074,229.481c0.102-0.03,0.235,0.042,0.265,0.144
	c0.031,0.104-0.041,0.234-0.145,0.266c-0.102,0.029-0.233-0.043-0.264-0.145C577.9,229.642,577.971,229.512,578.074,229.481z
	 M587.271,265.444c0.102-0.03,0.233,0.042,0.263,0.144c0.029,0.104-0.04,0.235-0.143,0.266c-0.104,0.029-0.234-0.041-0.264-0.145
	C587.096,265.607,587.17,265.474,587.271,265.444z M527.136,287.035c-0.102,0.029-0.233-0.043-0.265-0.146
	c-0.029-0.102,0.042-0.233,0.146-0.262c0.103-0.031,0.233,0.041,0.263,0.145C527.312,286.873,527.237,287.005,527.136,287.035z
	 M524.301,275.459c-0.204,0.059-0.468-0.086-0.528-0.289c-0.061-0.204,0.085-0.469,0.289-0.527c0.203-0.061,0.469,0.084,0.528,0.289
	C524.649,275.135,524.607,275.369,524.301,275.459z M530.514,278.513c-0.204,0.059-0.337-0.014-0.396-0.217
	c-0.06-0.204,0.014-0.334,0.217-0.395c0.204-0.061,0.334,0.012,0.395,0.215S530.718,278.454,530.514,278.513z M531.644,270.651
	c-0.102,0.03-0.232-0.042-0.264-0.146c-0.03-0.1,0.042-0.232,0.144-0.264c0.103-0.029,0.234,0.043,0.265,0.145
	C531.716,270.517,531.749,270.623,531.644,270.651z M545.361,235.4c0.101-0.029,0.233,0.043,0.265,0.145
	c0.029,0.104-0.042,0.234-0.146,0.266c-0.102,0.031-0.233-0.041-0.262-0.146C545.185,235.563,545.26,235.431,545.361,235.4z
	 M545.89,242.888c0.203-0.06,0.468,0.088,0.527,0.291c0.061,0.205-0.084,0.469-0.288,0.527c-0.205,0.061-0.469-0.084-0.528-0.287
	C545.44,243.242,545.585,242.978,545.89,242.888z M543.015,240.629c0.102-0.027,0.233,0.043,0.264,0.146
	c0.029,0.103-0.042,0.234-0.144,0.264c-0.102,0.03-0.234-0.042-0.264-0.142C542.84,240.793,542.913,240.66,543.015,240.629z
	 M537.751,230.207c0.102-0.029,0.233,0.043,0.264,0.146s-0.041,0.234-0.143,0.264c-0.104,0.031-0.235-0.041-0.265-0.145
	C537.575,230.371,537.647,230.239,537.751,230.207z M539.608,239.965c0.102-0.029,0.133,0.072,0.133,0.072
	c0.029,0.102-0.072,0.131-0.072,0.131c-0.102,0.031-0.131-0.072-0.131-0.072C539.506,239.996,539.608,239.965,539.608,239.965z
	 M538.906,239.838c0.104-0.029,0.234,0.042,0.264,0.145c0.03,0.102-0.041,0.232-0.144,0.264c-0.102,0.029-0.233-0.041-0.264-0.145
	C538.63,240.032,538.805,239.868,538.906,239.838z M539.119,240.552c0.203-0.06,0.364,0.115,0.394,0.216
	c0.061,0.204-0.115,0.366-0.216,0.396c-0.204,0.06-0.367-0.114-0.396-0.216C538.841,240.744,538.913,240.612,539.119,240.552z
	 M540.78,244.716c0.028,0.103-0.012,0.339-0.116,0.367c-0.102,0.03-0.232-0.042-0.293-0.245c-0.03-0.104,0.014-0.336,0.115-0.367
	C540.588,244.441,540.749,244.616,540.78,244.716z M540.159,246.008c0.103-0.03,0.233,0.041,0.263,0.145
	c0.03,0.101-0.04,0.234-0.144,0.263c-0.102,0.03-0.233-0.042-0.264-0.144C539.954,246.066,540.059,246.037,540.159,246.008z
	 M545.499,272.576c0.102-0.029,0.234,0.041,0.264,0.145c0.031,0.104-0.04,0.234-0.144,0.264c-0.101,0.031-0.233-0.041-0.265-0.145
	C545.325,272.739,545.499,272.576,545.499,272.576z M533.502,244.078c0.103-0.029,0.234,0.043,0.265,0.146s-0.041,0.233-0.145,0.265
	c-0.101,0.03-0.233-0.042-0.265-0.146C533.329,244.24,533.401,244.109,533.502,244.078z M536.123,265.134
	c0.203-0.06,0.334,0.013,0.394,0.216c0.061,0.204-0.012,0.336-0.216,0.395c-0.204,0.061-0.335-0.012-0.395-0.217
	C535.846,265.324,536.018,265.162,536.123,265.134z M536.01,270.813c0.102-0.029,0.234,0.042,0.265,0.144
	c0.03,0.104-0.042,0.234-0.146,0.264c-0.102,0.031-0.233-0.041-0.264-0.144C535.838,270.974,535.911,270.844,536.01,270.813z
	 M554.978,266.368c-0.26,0.629-0.518,1.26-0.177,2.045c0.03,0.102,0.09,0.305,0.019,0.438c-0.345,1.096-0.146,2.148-0.491,3.242
	c-0.186,0.499-0.374,0.996-0.019,1.447c0.029,0.1,0.059,0.203,0.088,0.305c-0.139,1.037-0.045,2.115-0.182,3.154
	c-0.013,0.336-0.677,3.744-0.761,4.211c-2.463,12.02-4.516,17.494-6.09,20.059c-1.605,2.463-3.422,1.556-3.831-0.982
	c-0.264-2.029-0.553-4.159-0.405-6.307c0.067-0.904-0.069-1.751-0.074-2.523c0.353-8.633,1.945-15.301,2.463-16.561
	c0.703-1.756,1.174-3.557,1.746-5.383c0.715-2.096,2.253-6.31,4.687-6.691c1.253-0.256,2.225,0.788,2.579,1.24
	C555.246,264.629,555.28,265.506,554.978,266.368z M549.51,235.959c0.101-0.029,0.233,0.043,0.266,0.145
	c0.029,0.102-0.044,0.233-0.146,0.264c-0.102,0.029-0.233-0.043-0.265-0.145C549.336,236.123,549.409,235.989,549.51,235.959z
	 M548.814,236.605c-0.203,0.059-0.335-0.012-0.395-0.216c-0.061-0.204,0.013-0.337,0.215-0.395c0.205-0.061,0.337,0.011,0.397,0.216
	C549.091,236.414,549.018,236.545,548.814,236.605z M550.107,237.998c-0.306,0.09-0.569-0.053-0.658-0.359
	c-0.089-0.306,0.055-0.569,0.36-0.66c0.306-0.088,0.568,0.056,0.658,0.361C550.558,237.646,550.312,237.938,550.107,237.998z
	 M548.988,231.902c-0.102,0.03-0.233-0.04-0.265-0.144c-0.03-0.102,0.042-0.233,0.146-0.265c0.101-0.029,0.233,0.043,0.265,0.145
	C549.163,231.743,549.091,231.873,548.988,231.902z M560.841,265.205c-0.102,0.03-0.233-0.041-0.261-0.145
	c-0.03-0.102,0.041-0.232,0.144-0.263c0.102-0.028,0.233,0.042,0.264,0.144C561.015,265.045,560.943,265.176,560.841,265.205z
	 M564.957,275.851c-0.102,0.031-0.233-0.04-0.265-0.144c-0.03-0.102,0.042-0.233,0.146-0.263c0.101-0.03,0.232,0.042,0.265,0.143
	C565.233,275.66,565.16,275.792,564.957,275.851z M556.486,242.002c-0.103,0.03-0.234-0.041-0.265-0.145
	c-0.031-0.101,0.04-0.232,0.144-0.264c0.103-0.029,0.233,0.043,0.265,0.145C556.66,241.843,556.589,241.974,556.486,242.002z
	 M558.304,241.027c-0.071,0.131-0.145,0.264-0.317,0.425c-0.177,0.163-0.351,0.323-0.523,0.485c-0.204,0.061-0.54,0.049-0.426-0.318
	c0.216-0.395,0.433-0.791,1.045-0.971C558.39,240.559,558.346,240.794,558.304,241.027z M557.685,233.234
	c-0.204,0.061-0.467-0.086-0.526-0.289c-0.061-0.205,0.082-0.469,0.288-0.529c0.204-0.059,0.467,0.086,0.527,0.29
	C558.063,233.013,557.89,233.174,557.685,233.234z M571.347,273.097c-0.204,0.059-0.336-0.013-0.396-0.217
	c-0.06-0.203,0.013-0.336,0.216-0.396c0.204-0.061,0.337,0.014,0.396,0.218C571.623,272.903,571.45,273.066,571.347,273.097z
	 M568.228,242c-0.103,0.029-0.133-0.071-0.133-0.071l0.072-0.132c0.102-0.029,0.132,0.072,0.132,0.072L568.228,242z
	 M574.938,261.523c-0.103,0.028-0.265-0.145-0.426-0.318c-0.09-0.306-0.148-0.51-0.047-0.541c0.102-0.029,0.263,0.144,0.425,0.319
	C575.052,261.157,575.04,261.492,574.938,261.523z M576.777,252.676c-0.407,0.119-0.672-0.023-1.037-0.139
	c-0.264-0.145-0.615-0.596-0.34-0.788c0.174-0.16,0.276-0.19,0.481-0.25c0.304-0.089,0.496,0.187,0.628,0.259
	c0.191,0.277,0.426,0.318,0.659,0.361C577.446,251.927,577.493,252.469,576.777,252.676z M573.312,229.103
	c-0.102,0.031-0.233-0.041-0.265-0.145c-0.029-0.102,0.042-0.233,0.144-0.265c0.103-0.03,0.234,0.042,0.265,0.146
	C573.488,228.941,573.416,229.075,573.312,229.103z M583.664,262.955c-0.102,0.031-0.234-0.041-0.265-0.145
	c-0.03-0.102,0.042-0.232,0.146-0.264c0.101-0.029,0.232,0.043,0.263,0.145C583.837,262.795,583.765,262.927,583.664,262.955z
	 M583.863,257.582c-0.103,0.03-0.234-0.041-0.264-0.145c-0.03-0.101,0.04-0.232,0.144-0.266c0.102-0.029,0.233,0.043,0.264,0.146
	C584.037,257.419,583.964,257.552,583.863,257.582z M638.874,251.779c-0.101,0.03-0.233-0.042-0.264-0.144
	c-0.029-0.102,0.042-0.233,0.145-0.265c0.103-0.03,0.234,0.041,0.262,0.146C639.048,251.617,638.975,251.75,638.874,251.779z
	 M637.424,246.445c-0.103,0.029-0.335-0.012-0.395-0.215c-0.06-0.205,0.013-0.338,0.215-0.396c0.102-0.031,0.336,0.012,0.396,0.217
	C637.7,246.254,637.524,246.414,637.424,246.445z M634.281,230.418c-0.102,0.03-0.233-0.041-0.263-0.146
	c-0.029-0.102,0.041-0.233,0.143-0.263c0.104-0.03,0.234,0.041,0.264,0.144C634.457,230.257,634.385,230.388,634.281,230.418z
	 M642.347,256.08c-0.204,0.06-0.233-0.043-0.265-0.146c-0.089-0.305-0.311-0.684-0.004-0.773c0.203-0.059,0.233,0.043,0.263,0.146
	c0.061,0.205-0.012,0.335,0.077,0.643L642.347,256.08z M642.887,256.032c-0.204,0.06-0.337-0.013-0.396-0.216
	s0.013-0.336,0.217-0.396c0.205-0.06,0.335,0.013,0.395,0.216C643.162,255.841,643.091,255.972,642.887,256.032z M637.329,227.202
	c-0.103,0.028-0.233-0.042-0.264-0.146c-0.03-0.102,0.042-0.233,0.145-0.263c0.102-0.031,0.233,0.041,0.264,0.144
	C637.502,227.038,637.533,227.142,637.329,227.202z M643.812,241.032c-0.103,0.03-0.234-0.042-0.265-0.146
	c-0.031-0.102,0.041-0.234,0.145-0.266c0.101-0.029,0.233,0.042,0.264,0.146C643.985,240.869,643.916,241,643.812,241.032z
	 M643.178,238.113c-0.203,0.061-0.467-0.084-0.527-0.289c-0.059-0.203,0.086-0.467,0.288-0.527c0.206-0.059,0.471,0.086,0.528,0.289
	C643.528,237.79,643.384,238.054,643.178,238.113z M642.012,231.478c-0.203,0.061-0.335-0.012-0.394-0.217
	c-0.06-0.205,0.011-0.336,0.215-0.395c0.205-0.061,0.336,0.012,0.396,0.217C642.289,231.285,642.216,231.419,642.012,231.478z
	 M634.975,195.325c0.034,0.878-0.254,1.403-1.143,1.776c-0.305,0.088-0.701-0.129-0.688-0.464c0.053-0.568,0.108-1.14,0.397-1.666
	C634.209,194.222,634.898,194.683,634.975,195.325z M632.894,189.732c0.479-0.251,0.96-0.502,1.339-0.724
	c0.408-0.12,0.772-0.005,0.791,0.433c0.089,0.307-0.127,0.702-0.402,0.894c-0.48,0.251-0.99,0.398-1.752,0.068
	C632.605,190.261,632.619,189.924,632.894,189.732z M629.234,187.814c0.084-0.47,0.624-0.516,1.092-0.432
	c0.497,0.188,1.067,0.242,1.565,0.429l0.131,0.072c0.19,0.276,0.005,0.772-0.33,0.76c-0.307,0.09-0.643,0.078-0.948,0.167
	c-0.204,0.061-0.511,0.15-0.815,0.239c-0.307,0.09-0.703-0.126-0.793-0.433C629.177,188.385,629.09,188.077,629.234,187.814z
	 M625.979,179.352c0.102-0.03,0.336,0.012,0.395,0.218c0.062,0.201-0.012,0.334-0.216,0.393c-0.1,0.03-0.333-0.012-0.392-0.215
	C625.704,179.543,625.776,179.412,625.979,179.352z M624.76,180.483c0.101-0.03,0.233,0.042,0.264,0.146
	c0.029,0.102-0.043,0.233-0.146,0.264c-0.102,0.029-0.233-0.042-0.263-0.146C624.586,180.646,624.557,180.543,624.76,180.483z
	 M627.223,191.171c0.131,0.071,0.266,0.144,0.325,0.348c0.161,0.176-0.012,0.335-0.043,0.233c-0.232-0.041-0.365-0.114-0.396-0.216
	C626.918,191.26,627.223,191.171,627.223,191.171z M626.013,193.849c-0.03-0.102,0.175-0.162,0.206-0.059
	c0.029,0.102,0.19,0.276,0.119,0.408c0.03,0.102-0.043,0.232-0.205,0.06C626.134,194.259,626.073,194.054,626.013,193.849z
	 M620.835,201.127c0.102-0.029,0.233,0.042,0.264,0.145c0.029,0.102-0.043,0.233-0.145,0.264c-0.104,0.029-0.233-0.043-0.264-0.145
	C620.76,201.259,620.731,201.156,620.835,201.127z M619.495,201.849c0.072-0.132,0.276-0.19,0.349-0.322
	c0.204-0.061,0.468,0.084,0.09,0.306c-0.07,0.13-0.274,0.19-0.38,0.22C619.484,202.186,619.321,202.012,619.495,201.849z
	 M618.132,203.246c0.102-0.03,0.233,0.042,0.264,0.145c0.029,0.102-0.042,0.234-0.144,0.265c-0.103,0.029-0.234-0.042-0.264-0.145
	C617.855,203.439,617.927,203.306,618.132,203.246z M615.177,252.181c0.145-0.266,0.493-0.588,0.673,0.024
	c0.118,0.409,0.076,0.642,0.051,1.312c-0.012,0.336-0.318,0.426-0.612,0.18C614.908,253.145,614.991,252.678,615.177,252.181z
	 M613.152,250.558c0.101-0.03,0.132,0.073,0.132,0.073l-0.072,0.13l-0.132-0.07C613.079,250.691,613.049,250.588,613.152,250.558z
	 M614.168,258.569c0.203-0.06,0.336,0.011,0.439-0.017c0.304-0.09,0.468,0.083,0.059,0.203c-0.205,0.061-0.379,0.221-0.537,0.049
	C614.095,258.699,614.168,258.569,614.168,258.569z M618.362,270.631c-0.156,0.6-0.415,1.23-1.129,1.436
	c-1.325,0.389-1.451-0.791-1.334-1.157c0.126-0.702,0.546-1.157,1.098-1.54c0.277-0.191,0.714-0.209,0.978-0.064
	C618.298,269.653,618.519,270.031,618.362,270.631z M637.212,306.648c-0.31-0.684-0.316-1.456-1.034-2.021
	c-0.161-0.174-0.365-0.114-0.54,0.048c-0.378,0.222-0.624,0.517-1.001,0.735c-0.379,0.223-0.57-0.054-0.354-0.449
	c1.1-1.54,0.958-3.16-0.162-4.715c-0.544-0.727-0.813-1.645-1.185-2.533c-0.25-0.48-0.298-1.021-0.143-1.619
	c0.144-0.266,0.128-0.703-0.063-0.979c-0.342-0.786-0.856-1.411-1.195-2.196c-0.312-0.684-0.389-1.326-0.628-2.143
	c-0.088-0.305-0.048-0.535-0.005-0.773c0.373-0.994,0.688-2.193,1.66-3.031c0.275-0.191,0.713-0.209,0.876-0.035
	c0.879,0.738,1.282,1.729,1.712,2.819c0.089,0.306,0.353,0.45,0.689,0.464c1.109,0.008,2.249,0.117,3.489,0.195
	c0.235,0.043,0.5,0.188,0.659,0.361c0.414,0.654,0.989,1.482,1.534,2.21c0.03,0.102,0.193,0.274,0.425,0.317
	c0.761,0.332,1.619-0.141,2.394-0.146c0.232,0.042,0.425,0.318,0.353,0.449c-0.146,0.264-0.362,0.659-0.536,0.82
	c-0.173,0.164-0.216,0.395-0.053,0.57c0.118,0.408,0.268,0.917,0.388,1.326c0.061,0.203,0.02,0.438-0.155,0.598
	c-0.553,0.385-0.871,0.809-0.429,1.564c0.061,0.205,0.294,0.246,0.471,0.086c0.378-0.223,0.654-0.414,1.03-0.637
	c0.584-0.279,1.109,0.008,1.289,0.62c0.017,0.438,0.064,0.979-0.05,1.345c-0.144,0.264-0.553,0.384-0.931,0.604
	c-0.204,0.06-0.274,0.192-0.216,0.395c0.088,2.189-0.026,2.557-1.191,3.119c-0.204,0.061-0.365-0.113-0.396-0.217
	c0.085-0.467,0.098-0.803,0.11-1.139c0.153-1.371-0.466-1.969-1.909-1.986c-0.438,0.017-0.905-0.068-1.344-0.05
	c-0.233-0.042-0.406,0.119-0.45,0.353c-0.041,0.234-0.085,0.469-0.024,0.673c-0.042,0.233-0.115,0.365-0.318,0.425
	c-0.787,0.342-1.229-0.415-1.961-0.644c-0.264-0.144-0.54,0.046-0.552,0.383c-0.126,0.702-0.051,1.343,0.916,1.614
	c0.364,0.115,0.82,0.535,1.012,0.811c0.707,0.9,0.525,2.171-0.477,2.908C638.327,307.429,637.492,307.232,637.212,306.648z
	 M628.876,259.246c0.205-0.06,0.338,0.012,0.396,0.217c0.061,0.203-0.013,0.336-0.216,0.396c-0.205,0.059-0.337-0.014-0.396-0.217
	C628.601,259.437,628.673,259.306,628.876,259.246z M627.526,255.765c-0.03-0.102,0.071-0.131,0.071-0.131
	c0.102-0.028,0.132,0.07,0.132,0.07c0.029,0.104-0.072,0.133-0.072,0.133S627.553,255.87,627.526,255.765z M629.98,244.857
	c-0.029-0.102,0.043-0.234,0.145-0.266c0.102-0.027,0.233,0.043,0.264,0.146c0.03,0.102-0.042,0.234-0.145,0.264
	C630.143,245.033,630.011,244.959,629.98,244.857z M640.72,311.824c-0.276,0.191-0.611,0.18-0.936-0.168
	c-0.324-0.35-0.341-0.785-0.167-0.948c0.275-0.19,0.611-0.181,0.937,0.169C640.846,311.124,640.866,311.56,640.72,311.824z
	 M650.11,309.851c-0.287,0.528-0.546,1.156-1.026,1.406c-0.379,0.224-0.816,0.24-1.194,0.461c-0.072,0.132-0.391,0.557-1.061,0.532
	c-0.673-0.024-1.273-0.181-1.842-0.235c-0.833-0.2-0.953-0.609-0.551-1.501c0.073-0.132,0.043-0.233,0.013-0.335
	c0.043-0.234-0.251-0.48-0.424-0.32c-0.308,0.09-0.481,0.254-0.554,0.385c-0.594,0.617-1.458,0.316-2.219-0.016
	c-0.732-0.229-1.392-0.589-1.631-1.405c-0.119-0.407-0.299-1.021,0.313-1.2c0.305-0.088,0.671,0.024,0.965,0.271
	c0.132,0.073,0.295,0.246,0.455,0.42c0.162,0.174,0.396,0.217,0.6,0.156c0.306-0.089,0.583-0.281,0.919-0.27
	c1.078-0.094,1.864-0.435,2.573-1.417c0.464-0.69,1.075-0.868,1.939-0.567c0.496,0.188,1.095,0.346,1.694,0.5
	c0.335,0.014,0.527,0.289,0.514,0.625c-0.012,0.338,0.078,0.643,0.168,0.949c0.09,0.305,0.281,0.58,0.502,0.959
	C650.195,309.385,650.256,309.588,650.11,309.851z M631.86,246.744c-0.145,0.267-0.274,0.19-0.265-0.146
	c0.014-0.334,0.128-0.701,0.272-0.965c0.102-0.029,0.203-0.059,0.232,0.043C632.222,246.084,632.11,246.449,631.86,246.744z
	 M633.743,244.089c-0.202,0.06-0.334-0.013-0.394-0.218c-0.061-0.204,0.013-0.334,0.216-0.393c0.204-0.061,0.335,0.01,0.395,0.215
	C634.121,243.867,633.948,244.029,633.743,244.089z M631.272,234.51c-0.216,0.396-0.697,0.647-0.943,0.94
	c-0.521,0.484-0.678,1.084-0.267,1.738c0.857,1.41,0.573,2.713,0.014,4.206c-0.85,2.019-1.301,4.258-1.887,6.421
	c-0.48,0.25-0.989,0.399-1.469,0.652c-0.043,0.232-0.156,0.598-0.097,0.803c0.668,1.908,0.067,3.635-1.104,5.306
	c-0.751,1.217-1.371,2.508-1.758,3.838c-0.145,0.264-0.36,0.66-0.372,0.995c-0.148,2.148-1.713,3.603-2.624,5.42
	c-0.216,0.395-0.667,0.748-1.164,0.563c-0.498-0.187-0.461-1.196-0.009-1.548c0.419-0.455,1.164-0.562,1.424-1.192
	c0.071-0.132-0.078-0.641-0.894-0.401c-0.815,0.238-1.705,0.607-2.461,1.051c-0.479,0.251-0.533,0.82-0.59,1.393
	c-0.091,1.575-0.164,1.707-1.472,2.534c-0.176,0.161-0.439,0.018-0.527-0.29c0.013-0.335-0.05-0.539-0.006-0.773
	c0.156-0.6,0.11-1.141-0.201-1.824c-0.311-0.684-0.448-1.53-0.585-2.377c-0.019-0.438,0.168-0.935,0.416-1.229
	c0.289-0.528,1.001-0.735,1.456-0.315c0.427,0.317,0.647,0.696,1.043,0.913c0.614,0.594,1.779,0.033,0.81-1.012
	c-1.06-1.352-0.417-3.312-1.375-4.693c-0.162-0.174,0.128-0.701,0.271-0.965c0.565-0.719,1.322-1.162,2.271-1.328
	c1.182-0.125,1.571-0.684,1.578-1.792c-0.047-0.538-0.124-1.182-0.142-1.62c-0.03-0.102-0.059-0.204-0.161-0.174
	c-0.498-0.187-0.743,0.107-0.758,0.442c-0.108,1.14-0.704,1.756-1.855,1.981c-0.102,0.031-0.232-0.041-0.365-0.113
	c-0.454-0.422-0.939-0.943-1.426-1.467c-0.131-0.072-0.089-0.305-0.018-0.438c0.246-0.294,0.491-0.587,0.839-0.91
	c0.175-0.162,0.085-0.469-0.148-0.511c-0.672-0.024-1.139-0.108-1.709-0.163c-0.102,0.029-0.265-0.145-0.191-0.275
	c0.169-0.937,1.015-1.072,1.742-1.617c0.072-0.131,0.143-0.264-0.017-0.438c-0.162-0.175-0.325-0.349-0.486-0.521
	c-0.323-0.35-0.647-0.697-0.767-1.105c-0.118-0.408-0.166-0.949-0.052-1.312c0.518-1.26-0.603-2.812,0.485-4.02
	c1.013-1.07,0.963-2.387,0.501-3.578c-0.592-1.268-0.411-2.539,0.002-3.768c0.188-0.498,0.242-1.068,0.226-1.506
	c0.008-1.108,0.224-1.504,0.675-1.859c0.449-0.352,1.002-0.734,1.057-1.307c-0.03-0.102,0.013-0.335,0.318-0.425
	c0.204-0.06,0.408-0.118,0.642-0.077c0.265,0.144,0.485,0.521,0.778,0.768c0.353,0.451,0.604,0.93,1.03,1.248
	c0.793,0.434,1.589-0.242,2.042-0.597c0.521-0.484,1.014-1.071,1.272-1.7c0.114-0.365-0.106-0.744-0.442-0.759
	c-0.468-0.084-0.786,0.341-1.267,0.595c-0.929,0.604-1.837,0.537-2.452-0.059c-0.162-0.174-0.354-0.449-0.443-0.758
	c-0.061-0.203-0.323-0.348-0.497-0.184c-0.175,0.159-0.38,0.219-0.583,0.279c-1.079,0.095-1.565-0.427-1.323-1.494
	c0.271-0.967,0.54-1.931,0.915-2.926c0.042-0.234,0.215-0.396,0.391-0.559c0.175-0.16,0.51-0.148,0.569,0.056
	c0.37,0.888,0.712,1.673,1.052,2.46c0.09,0.306,0.498,0.186,0.541-0.047c0.083-0.467-0.064-0.979,0.08-1.24
	c0.215-0.397,0.564-0.721,0.882-1.145c0.071-0.131,0.145-0.265,0.115-0.366c-0.166-0.948-1.463-0.458-1.701-1.272
	c-0.18-0.615,0.301-0.864,0.618-1.289c0.175-0.162,0.187-0.498,0.025-0.671c-0.061-0.204-0.251-0.481-0.209-0.715
	c-0.048-0.539-0.095-1.078-0.009-1.548c0.229-0.73,0.589-1.391,0.92-2.15c0.144-0.264,0.318-0.426,0.624-0.516
	c0.203-0.059,0.54-0.047,0.744-0.105c0.204-0.061,0.408-0.119,0.553-0.383c0.637-0.854,0.469-1.801,0.333-2.645
	c-0.078-0.643,0.181-1.271,0.632-1.623c0.45-0.355,1.061-0.534,1.674-0.713c0.204-0.061,0.377-0.222,0.419-0.453
	c0.186-0.499,0.343-1.098,0.632-1.627c0.216-0.395,0.433-0.791,0.08-1.24c-0.485-0.522-0.995-0.373-1.475-0.122
	c-0.655,0.413-1.327,0.388-2.06,0.159c-0.364-0.115-0.742,0.109-0.858,0.473c-0.24,1.068-0.513,2.035-0.651,3.07
	c-0.042,0.234-0.083,0.469-0.259,0.631c-0.246,0.293-1.337,0.723-1.215-0.752c0.096-0.803,0.398-1.666,0.495-2.47
	c0.083-0.468,0.301-0.864,0.387-1.332c0.168-0.936,0.528-1.595,1.417-1.965c1.019-0.299,1.422-1.191,1.986-1.909
	c0.144-0.264,0.463-0.689,0.374-0.998c-0.299-1.02,0.192-1.607,0.948-2.049c0.45-0.352,0.901-0.707,0.722-1.318
	c-0.208-0.713,0.182-1.271,0.572-1.828c0.246-0.293,0.726-0.545,1.062-0.533c0.234,0.043,0.438-0.017,0.571,0.056
	c0.803,0.096,0.807,0.87,0.663,1.132c-0.128,0.705-0.71,0.984-1.352,1.062c-0.742,0.108-0.799,0.676-0.943,0.938
	c-0.186,0.499-0.27,0.966-0.458,1.466c-0.145,0.262,0.18,0.61,0.486,0.521c0.305-0.09,0.48-0.25,0.727-0.545
	c0.217-0.395,0.271-0.965,0.62-1.288c0.245-0.294,0.816-0.239,0.935,0.169c0.061,0.205,0.27,0.918-0.398,1.666
	c-0.491,0.588-1.045,0.972-1.537,1.559c-0.349,0.322-0.667,0.748-0.985,1.174c-0.247,0.293-0.3,0.863-0.109,1.14
	c0.161,0.174,0.353,0.449,0.515,0.625c0.293,0.247,0.588,0.491,0.879,0.737c0.265,0.145,0.631,0.26,0.937,0.17
	c0.409-0.119,0.715-0.209,1.094-0.43c0.582-0.281,0.913-1.043,0.704-1.756c-0.18-0.613-0.257-1.254-0.436-1.866
	c-0.089-0.304-0.049-0.54,0.096-0.804c0.463-0.689,1.087-1.203,1.933-1.341c0.643-0.077,1.391,2.476,0.317,4.114
	c-0.39,0.56-0.546,1.158-0.235,1.843c0.06,0.204-0.085,0.467-0.229,0.731c-1.407,1.63-1.563,2.23-1.773,3.4
	c-0.242,1.067,0.801,1.98-0.214,3.051c-0.595,0.617-0.704,1.756-0.975,2.723c-0.043,0.234,0.047,0.537,0.18,0.611
	c0.292,0.246,0.557,0.391,0.851,0.637c0.395,0.217,0.514,0.625,0.43,1.093c-0.242,1.067-0.22,2.28-0.694,3.306
	c-0.115,0.365,0.107,0.743,0.515,0.625c0.408-0.119,0.582-0.281,0.858-0.475c1.074-0.867,1.987-1.908,2.74-3.127
	c0.463-0.688,0.948-0.167,0.688,0.464c-0.271,0.964-1.099,1.538-1.707,2.493c-0.896,1.48-1.893,2.989-1.458,4.857
	c0.06,0.204-0.025,0.673-0.302,0.864c-0.653,0.411-1.381,0.958-1.625,1.249c-0.247,0.295,0.005,0.774-0.392,0.559
	s-0.79-0.434-1.287-0.619c-0.132-0.07-0.336-0.013-0.379,0.223c-0.085,0.467-0.199,0.83-0.313,1.197
	c-0.217,0.396-0.462,0.689-0.811,1.012c-0.176,0.162-0.116,0.366,0.148,0.51c0.498,0.186,0.966,0.271,1.462,0.459
	c0.234,0.041,0.439-0.019,0.743-0.108c0.452-0.353,0.801-0.677,1.251-1.029c0.275-0.192,0.714-0.21,0.906,0.065
	c0.263,0.145,0.454,0.421,0.614,0.596c0.294,0.246,0.619,0.594,0.574,0.828C632.536,231.261,632.27,233,631.272,234.51z
	 M633.186,211.908c0.029,0.104-0.013,0.337-0.217,0.396c-0.103,0.031-0.336-0.012-0.396-0.217c-0.03-0.102,0.012-0.334,0.216-0.395
	C632.995,211.634,633.126,211.705,633.186,211.908z M631.162,212.947c0.03,0.1-0.072,0.129-0.072,0.129
	c-0.101,0.029-0.131-0.069-0.131-0.069c-0.029-0.103,0.072-0.134,0.072-0.134C631.134,212.842,631.162,212.947,631.162,212.947z
	 M629.493,228.053c0.03,0.101-0.041,0.233-0.144,0.265c-0.103,0.029-0.234-0.043-0.264-0.145c-0.03-0.102,0.041-0.234,0.144-0.264
	C629.361,227.982,629.463,227.952,629.493,228.053z"/>
<path opacity="0.3" fill="#B39346" enable-background="new    " d="M663.072,275.043c-0.191-0.275-0.527-0.288-0.581,0.281
	c-0.055,0.568-0.008,1.109-0.062,1.682c-0.042,0.232,0.222,0.377,0.425,0.316C663.945,276.892,663.887,276.687,663.072,275.043z"/>
<circle opacity="0.3" fill="#B39346" enable-background="new    " cx="662.806" cy="272.243" r="0.212"/>
<path opacity="0.3" fill="#B39346" enable-background="new    " d="M662.203,266.77c-0.45,0.353-0.403,0.893-0.285,1.302
	c0.251,0.479,0.632,0.26,0.674,0.025c0.216-0.396,0.373-0.997-0.287-1.356C662.407,266.711,662.275,266.638,662.203,266.77z"/>
<circle opacity="0.3" fill="#B39346" enable-background="new    " cx="662.174" cy="264.785" r="0.32"/>
<circle opacity="0.3" fill="#B39346" enable-background="new    " cx="662.038" cy="254.855" r="0.106"/>
<circle opacity="0.3" fill="#B39346" enable-background="new    " cx="661.976" cy="250.112" r="0.424"/>
<circle opacity="0.3" fill="#B39346" enable-background="new    " cx="661.96" cy="260.639" r="0.425"/>
<path opacity="0.3" fill="#B39346" enable-background="new    " d="M504.747,329.364c-1.227,2.241-3.495,8.112-6.792,10.849
	c-0.9,0.707-2.2,0.424-2.705-0.537c-0.188-0.276-0.28-0.582-0.367-0.887c-0.648-2.581-1.291-5.161-1.861-7.875
	c-0.12-0.406-0.138-0.846,0.078-1.24c0.52-1.26,0.527-2.367-0.137-3.504c-0.192-0.275-0.149-0.51-0.136-0.844
	c0.254-1.403-0.207-2.598-0.8-3.865c-0.533-1.062-0.628-2.143,0.182-3.157c0.739-0.88,0.341-1.872,0.221-2.28
	c-0.178-0.611-0.459-1.192-0.741-1.775c-0.827-1.309-1.286-2.502-0.625-4.023c0.259-0.63,0.229-0.731,0.14-1.039
	c-0.21-0.713-0.316-1.456-0.321-2.23c0.038-1.008,0.513-2.032,0.244-2.952c-0.288-1.356-0.179-2.493-0.026-3.869
	c0.085-0.468-0.052-1.312-0.171-1.72c-0.46-1.193-0.924-2.389-1.382-3.583c-0.149-0.509-0.562-1.163-0.074-2.523
	c0.819-2.124,0.741-2.765-0.179-5.153c-0.371-0.889-0.556-2.273-0.621-3.252c-0.164-2.832-1.174-5.524-1.674-8.369
	c-0.512-2.508-1.986-4.514-3.006-6.872c-0.773-1.878-1.904-3.099-3.865-3.741c-0.731-0.228-1.391-0.592-2.092-0.718
	c-1.799-0.47-3.597-0.94-5.396-1.41c-2.867-0.712-11.767-1.983-20.047-6.427c-2.109-1.154-4.244-1.639-6.669-1.592
	c-0.874,0.035-1.823,0.201-2.41-0.293c-1.115-0.779-2.075-0.278-3.124-0.08c-0.613,0.179-1.285,0.154-1.926,0.23
	c-1.925,0.232-3.371,0.213-5.206,0.75c-0.817,0.24-2.33,1.127-2.752,3.466c-0.381,2.103,0.752,3.323,1.953,4.409
	c1.044,0.914,2.057,1.725,2.792,2.727c0.678,0.799,0.946,1.718,2.085,1.826c0.235,0.043,0.589,0.494,0.679,0.799
	c0.255,1.254,1.165,2.094,2.074,2.935c0.75,0.667,9.204,7.606,5.243,22.833c-1.024,4.065-2.632,8.412-4.546,12.85
	s-4.059,8.83-6.543,13.212c-1.228,2.243-2.48,4.384-3.945,6.582c-0.679,1.085-1.459,2.2-2.139,3.286l-2.171,3.182
	c-2.949,4.296-6.225,8.246-9.529,12.094c-1.682,1.822-3.364,3.645-5.179,5.393c-1.709,1.719-3.582,3.264-5.456,4.811
	c-0.625,0.513-1.249,1.029-1.903,1.441c-0.276,0.191-0.553,0.383-0.929,0.605c-7.997,5.221-14.998,6.271-17.352,6.184
	c-11.521-0.393-13.696-13.491-13.115-20.97c0.349-4.862,2.708-5.888,5.923-5.501c4.953,0.658,9.354-0.965,10.78-1.383
	c1.529-0.446,2.958-0.865,3.884-2.242c0.636-0.854,0.84-0.913,1.586-1.019c0.641-0.077,1.091-0.431,1.164-0.562
	c0.563-0.721,1.129-1.439,1.886-1.883c1.238-0.694,1.586-1.018,1.802-1.412c0.781-1.115,1.532-2.331,2.182-3.518
	c0.534-0.822,0.866-1.582,0.568-2.604c-0.24-0.816,0.121-1.476,0.513-2.032c0.954-1.276,1.412-2.738,1.841-4.306
	c0.302-0.863,0.824-1.347,0.999-1.51c0.912-1.043,1.298-2.373,2.181-3.517c1.202-1.57,2.477-3.274,2.521-5.391
	c0.035-1.007,0.478-2.908,0.766-3.437c0.967-1.611,0.932-2.485,0.915-2.927c0.055-0.568,0.038-1.008,0.122-1.476
	c0.242-1.067,0.848-2.02,1.323-3.045c0.619-1.287,0.669-2.631,0.383-3.986c-0.287-1.355-0.441-2.642-0.288-4.016
	c0.139-1.037,0.087-2.352-0.213-3.371c-0.328-1.122-0.758-2.215-0.678-3.456c0.011-0.337-0.006-0.774-0.624-1.368
	c-0.455-0.42-0.562-1.164-0.272-1.693c0.504-0.922,0.326-1.534-0.263-2.027c-0.558-0.391-0.257-1.254-0.1-1.854
	c0.127-0.701,0.051-1.344-1.006-1.921c-1.217-0.749-1.019-1.585-1.005-1.921c0.054-0.568,0.21-1.167,0.266-1.74
	c0.024-0.672-0.389-1.324-1.545-1.872c-0.761-0.331-1.493-0.56-2.356-0.859c-1.359-0.488-2.723-0.976-3.925-2.063
	c-0.881-0.738-1.863-1.447-2.918-2.023c-1.084-0.68-2.243-1.229-3.182-2.172c-1.954-1.752-4.194-2.98-6.654-3.811
	c-1.858-0.674-3.657-1.145-5.372-2.084c-0.953-0.606-2.031-0.512-3.198,0.051c-1.95,0.902-3.577,2.154-5.717,2.779
	c-0.817,0.24-1.482,0.988-2.078,1.606c-0.666,0.749-0.589,1.392-0.733,1.656c-0.258,0.629-0.942,0.939-1.334,1.495
	c-0.505,0.924-1.214,1.906-1.72,2.83c-0.69,1.42-1.384,2.842-2.542,4.178c-1.88,2.654-5.294,7.639-8.281,12.945
	c-0.435,0.793-2.447,3.375-8.313,3.762c-3.137,0.253-6.186,0.814-9.074,1.549c-2.478,0.615-4.956,1.23-7.432,1.844
	c-3.807,1.003-7.172,1.989-10.173,3.088c-3.232,1.056-6.338,2.188-9.308,3.387c-0.889,0.371-1.901-0.438-1.731-1.375
	c0.25-2.176,0.995-4.168,1.506-6.199c1.038-4.403,2.088-9.143,2.964-13.717l0,0c0,0,0.071-0.131,0.084-0.467
	c0.367-1.77,0.705-3.641,1.075-5.41c1.751-9.152,5.245-26.347,6.98-35.936c0.437-2.674,0.613-9.262,6.005-13.165
	c0,0,11.317-8.63,5.757-17.415c-5.942-9.335-17.438-5.084-21.664,2.797c-1.341,2.608-2.388,5.461-3.16,8.123
	c-1.312,4.594-3.405,8.419-11.833,12.549c-2.227,1.094-4.514,1.984-6.872,3.006c-8.618,3.853-17.43,7.428-26.079,11.178
	c-8.647,3.748-17.096,7.439-25.276,11.273c-22.083,10.451-67.045,34.689-81.403,54.51c-2.62,3.535-3.95,7.689-2.875,11.363
	c1.045,3.568,4.033,7.349,11.702,10.084c0.132,0.072,0.365,0.116,0.497,0.188c4.433,1.139,8.804,2.076,13.401,1.505
	c0.54-0.048,1.211-0.022,1.78,0.032c0.905,0.068,1.781,0.034,2.554,0.027c0.306-0.088,26.376-3.733,44.199-13.602
	c1.716-0.947,2.547-3.405-0.648-3.352c-1.549,0.009-2.993-0.012-4.512,0.102c-1.415,0.082-2.903,0.295-4.259,0.582
	c-2.171,0.523-4.446,1.08-6.769,1.094c-1.211,0.023-2.466,0.277-3.72,0.535c-2.202,0.424-4.445,1.08-6.649,1.504
	c-2.844,0.5-5.718,0.898-8.62,1.194c-4.422,0.407-8.733-0.325-13.082-1.929c-2.854-1.049-4.308-2.616-4.612-4.411
	c-0.03-0.102-0.089-0.306-0.119-0.407c-0.029-0.102-0.06-0.203,0.012-0.336c-0.03-0.102-0.03-0.102,0.042-0.234
	c-0.013-4.203,5.994-10.168,13.272-15.954c0.071-0.132,0.247-0.294,0.348-0.325c1.148-1,2.428-1.928,3.706-2.856
	c0.102-0.028,0.276-0.191,0.479-0.251c0.655-0.411,1.586-1.018,2.21-1.533c0.174-0.16,0.45-0.352,0.625-0.514
	c1.758-1.179,3.487-2.459,5.348-3.668c4.448-2.965,9.335-5.945,14.661-8.947c0.479-0.25,0.756-0.441,0.756-0.441l0,0
	c8.149-4.711,17.068-9.424,26.558-14.087c7.918-3.979,16.232-7.743,24.749-11.565c4.309-1.926,8.588-3.953,12.868-5.982
	c4.281-2.027,8.589-3.951,12.972-6.01c1.95-0.904,3.901-1.806,5.852-2.711c1.471-0.65,2.939,0.58,2.613,2.115
	c-0.898,3.366-1.923,7.432-2.038,7.797c-2.774,11.338-5.681,22.598-8.557,33.961c-0.627,2.398-1.15,4.767-1.545,7.208
	c-0.388,3.216-5.098,17.774-5.254,18.374c-0.313,1.199-1.756,3.837-5.569,5.949c-3.985,2.273-26.534,15.299-47.656,29.787
	l-1.163,0.562c-7.354,5.143-14.315,10.504-21.318,16.098c-2.077,1.605-4.124,3.312-6.101,4.888
	c-1.699,1.382-1.826,2.087-1.013,3.732l0.281,0.581c0.34,0.789,0.753,1.441,0.89,2.286c0.239,0.815,0.593,1.265,1.282,1.729
	c0.395,0.216,0.689,0.463,0.953,0.607s0.527,0.289,0.79,0.434c1.744,1.041,3.795,1.992,6.52,1.082
	c0.102-0.029,0.102-0.029,0.204-0.06c0.511-0.149,0.947-0.167,1.386-0.183c0.102-0.03,0.336,0.012,0.438-0.018
	c1.08-0.094,1.97-0.467,2.665-1.113c0.77-0.778,1.73-1.28,2.619-1.651l0.305-0.09c2.33-1.128,4.556-2.219,6.886-3.344
	c3.666-1.849,7.475-4.735,8.418-5.677l1.044-0.97c0.625-0.515,6.287-5.385,8.12-6.698c0.174-0.16,0.349-0.324,0.553-0.382
	c5.68-4.433,15.996-12.325,27.568-20.474c2.483-1.723,3.263-0.956,2.564,1.574l-10.25,29.693c-0.259,0.63-0.416,1.229-0.674,1.859
	c-0.187,0.498-2.821,6.254-2.823,8.137c0.007,0.772-0.398,1.667-0.919,2.151c-1.146,1.001-1.503,2.433-2.152,3.62
	c-0.765,1.553-1.527,3.105-1.428,4.959c0.053,1.312-0.436,2.674-1.612,3.574c-0.9,0.706-1.202,1.57-1.574,2.564
	c-1.354,2.943-2.677,5.99-4.294,8.789c-1.442,2.638-3.179,5.029-4.754,7.595c-1.503,2.433-2.742,5.011-4.375,7.374
	c-0.999,1.51-1.306,3.48-2.831,4.703c-1.249,1.032-1.911,2.553-2.266,3.985c-0.313,1.198-0.95,2.05-1.557,3.002
	c-0.608,0.952-1.479,1.762-1.952,2.786c-0.219,0.395-0.476,1.025,0.081,1.417c0.294,0.246,0.779,0.769,0.347,1.56
	c-0.289,0.527-0.68,1.084-0.633,1.625c0.09,0.305,0.257,1.253-0.452,2.234c-0.216,0.396-0.564,0.721-0.812,1.014
	c-0.42,0.455-1.832,1.311-2.369-0.525c-0.118-0.408-0.136-0.845-0.226-1.152c-0.018-0.438,0.096-0.803,0.211-1.168
	c0.199-0.834-0.298-1.021-0.79-0.434c-1.305,1.599-2.549,3.404-3.823,5.106c-0.639,0.851,0.256,1.253,0.52,1.397
	c0.629,0.259,0.521,1.398,0.406,1.764c-0.368,1.771-0.831,2.459-1.892,2.99c-0.379,0.223-1.021,0.299-0.953-0.607
	c0.108-1.139-0.045-2.425-2.292,0.117c-1.682,1.821-3.261,3.611-4.942,5.435c-1.363,1.396-2.889,2.616-4.282,3.909
	c-0.87,0.808-1.843,1.646-2.714,2.457c-1.699,1.385-3.328,2.635-4.997,4.12c-1.422,1.192-3.199,1.935-4.197,3.444
	c-0.246,0.294-1.363,1.396-1.61,1.689c-1.001,0.737-1.549,1.894-2.42,2.703c-0.349,0.322-0.989,0.398-1.456,0.314
	c-0.469-0.084-1.288-0.618-2.017-0.073c-0.93,0.604-1.01,1.847-1.546,2.667c-1.327,2.271-2.907,4.062-5.871,4.156
	c-1.955,0.129-3.863,0.799-5.167,2.396c-0.812,1.014-1.873,1.545-3.067,2.006c-2.009,0.698-3.859,1.57-5.737,2.344
	c-0.306,0.088-0.655,0.412-0.931,0.604c-2.149,1.734-5.1,1.492-7.503,2.749c-0.276,0.191-0.828,0.573-1.733,0.509
	c-1.037-0.141-1.908,0.668-2.929,0.967c-0.989,0.4-1.849,0.873-2.899,1.068c-1.968,0.467-3.963,0.83-5.903,1.398
	c-3.162,0.926-6.253,1.719-9.564,2.134c-0.978,0.065-1.824,0.202-2.713,0.571c-1.296,0.49-1.681,1.822,0.262,2.029
	c6.034,0.559,12.152,0.654,18.116-0.541c1.562-0.348,3.127,0.083,4.686-0.262c2.437-0.382,4.914-0.995,7.35-1.377
	c2.305-0.453,4.37-1.721,6.631-1.938c0.204-0.06,1.224-0.358,1.502-0.551c0.989-0.399,2.159-0.188,3.016-0.661
	c0.961-0.502,1.963-1.238,3.015-1.436c1.486-0.213,1.448-1.861,2.611-2.424c0.787-0.342,1.411-0.855,2.065-1.27
	c0.857-0.473,2.142-0.627,2.708-1.346c0.84-0.911,2.171-0.525,3.013-1.436c0.667-0.748,1.614-0.915,2.58-0.645
	c1.331,0.385,2.248,0.117,2.928-0.969c0.463-0.688,0.942-0.939,1.85-0.873c1.576,0.093,2.478-0.613,3.08-2.34
	c0.156-0.598,0.78-1.115,1.182-0.125c0.149,0.511,0.095,1.079,0.796,1.208c0.936,0.169,1.717-0.946,1.934-1.341
	c1.965-3.123,3.267-2.84,5.366-3.232c1.999-0.365,3.937-0.931,5.463-2.153c2.426-1.929,4.087-2.304,4.771-2.614
	c0.961-0.503,1.98-0.802,2.841-1.273c1.584-1.018,3.007-2.209,4.4-3.504c1.67-1.486,3-1.101,3.931-1.703
	c0.378-0.221,0.696-0.648,0.942-0.941c0.42-0.453,0.812-1.012,1.304-1.598c0.78-1.115,1.83-1.311,2.473-1.389
	c2.101-0.393,1.771-1.516,1.611-1.689c-0.887-1.514-0.935-2.053,0.009-2.994c0.841-0.908,1.581-1.791,3.158-1.698
	c0.438-0.018,0.846-0.138,1.254-0.257c0.685-0.311,1.108,0.008,1.373,0.152c0.455,0.422,1.433,0.355,1.309-0.826
	c-0.077-0.643-0.771-1.879,0.285-3.186c1.479-1.762,3.19-3.479,4.801-5.167c0.421-0.457,0.899-0.708,1.471-0.654
	c0.233,0.044,0.762,0.331,0.399,0.99c-0.144,0.264-0.127,0.701,0.413,0.653c0.743-0.107,1.266-0.59,1.628-1.249
	c0.144-0.265,0.288-0.528,0.403-0.894c0.614-2.062,1.918-3.66,3.25-5.158c1.088-1.205,1.953-2.787,3.555-3.366
	c1.707-0.61,3.315-2.3,3.851-3.12c0.824-1.348,1.383-2.844,2.397-3.913c1.014-1.071,1.384-2.843,3.015-3.319
	c0.101-0.031,0.245-0.294,0.289-0.529c0.067-0.905,0.722-1.316,1.315-1.934c0.871-0.809,1.813-1.75,2.156-2.848
	c0.415-1.227,1.155-2.108,1.834-3.191c0.564-0.719,0.866-1.582,1.3-2.375c0.215-0.395,0.372-0.996,0.72-1.318
	c1.671-1.484,2.519-3.505,3.659-5.279c1.287-2.039,2.105-4.16,2.162-6.611c0.056-0.57,0.255-1.402,1.852-2.759
	c1.424-1.191,1.569-3.339,2.466-4.819c0.391-0.559,0.487-1.361,0.481-2.135c0.027-2.557,0.888-4.912,1.384-7.381
	c0.127-0.703,0.385-1.333,0.746-1.992c1.503-2.434,2.477-5.154,2.385-8.119c0.037-1.008,0.411-2.002,0.651-3.07
	c0.271-0.967,0.513-2.033,0.682-2.968c0.284-1.302,0.406-2.776,0.923-4.034c0.488-1.363,0.771-2.664,0.925-4.035
	c0.221-4.165,0.969-8.037,2.521-11.814c0.444-1.127,0.759-2.328,0.839-3.57c0.227-3.386,1.712-6.258,2.67-9.418l2.651-14.398
	c1.271-4.36,2.022-5.576,6.158-7.34l0.99-0.398c4.31-1.927,7.25-3.23,8.751-3.782c4.166-1.661,8.433-3.354,9.248-3.591
	c0.99-0.4,2.01-0.699,2.929-0.969c1.502-0.55,7.879-2.969,9.484-3.551c1.909-0.67,7.239-2.894,4.807,2.803
	c-2.618,6.193-5.747,14.42-7.791,21.441c-0.155,0.6-0.314,1.199-0.47,1.799c-0.199,0.834-0.428,1.565-0.626,2.399
	c-0.055,0.569-0.11,1.14-0.164,1.71c-0.012,0.334,0.006,0.773-0.139,1.037c-0.638,0.852-0.571,1.828-0.742,2.764
	c-0.182,1.27-0.361,2.543-0.412,3.887c-0.117,2.25-0.437,4.56-0.524,6.91c-0.135,1.812-0.139,3.694-0.17,5.477
	c0.034,2.759,0.605,5.471,0.943,8.14c0.143,1.619,0.589,3.149,1.139,4.648c0.46,1.194,1.021,2.36,1.584,3.522
	c0.162,0.174,0.294,0.246,0.601,0.156c0.204-0.059,0.274-0.189,0.115-0.365c-0.163-0.174,0.04-0.233,0.04-0.233
	s0.103-0.03,0.264,0.146c0.132,0.07,0.266,0.144,0.396,0.216c0.234,0.042,0.336,0.013,0.438-0.018
	c0.305-0.089,0.337,0.012-0.043,0.233c-0.174,0.162-0.113,0.365-0.012,0.338c0.132,0.07,0.264,0.143,0.365,0.113
	s0.233,0.043,0.293,0.246c0,0,0.223,0.377,0.25,0.479c0.252,0.481,0.574,0.829,1.032,1.249c0.294,0.246,0.569,0.054,0.378-0.223
	c-0.06-0.203,0.042-0.233,0.042-0.233l0.103-0.03c0.101-0.029,0.203-0.059,0.232,0.043c0.031,0.102,0.162,0.174,0.295,0.245
	l0.029,0.103c-0.102,0.029-0.175,0.16-0.274,0.191c-0.073,0.131,0.118,0.408,0.118,0.408l0.19,0.274
	c0.162,0.175,0.294,0.246,0.336,0.013c0.072-0.131,0.145-0.264,0.188-0.497c-0.03-0.103,0.071-0.132,0.204-0.061
	c0.791,0.433,0.96-0.502,1.601-0.579c0.103-0.03,0.103-0.03,0.071-0.131c-0.029-0.102-0.16-0.175-0.089-0.305
	c0.072-0.132,0.072-0.132,0.203-0.06l0.413,0.655c0,0,0.06,0.203,0.233,0.041c0.103-0.029,0.103-0.029,0.203-0.059
	c0.206-0.061,0.396,0.215,0.396,0.215s0.061,0.204,0.232,0.043l0.104-0.031c0,0,0.1-0.029,0.262,0.145
	c0.399,0.99-0.535,0.821-1.278,0.928c-0.101,0.029-0.13-0.072-0.13-0.072c-0.03-0.102-0.06-0.205-0.06-0.205
	c-0.029-0.102-0.061-0.203-0.293-0.246c-0.235-0.041-0.366-0.113-0.569-0.054c-0.205,0.06-0.246,0.293-0.246,0.293l-0.043,0.233
	c-0.041,0.233-0.131-0.072-0.131-0.072s-0.061-0.203-0.234-0.042c-0.812,1.015-2.496,0.177-3.69,0.638
	c-0.306,0.088-0.113,0.365-0.013,0.335c0.616,0.594,1.561-0.347,2.105,0.38c0.029,0.103,0.029,0.103-0.073,0.131
	c-0.233-0.041-0.408,0.119-0.581,0.281c-0.174,0.162-0.115,0.365,0.018,0.438c0.131,0.07,0.437-0.019,0.641-0.077
	c0.103-0.031,0.234,0.041,0.06,0.203c-0.101,0.03-0.174,0.162-0.113,0.365c0.06,0.204,0.19,0.276,0.394,0.217
	c0.175-0.162,0.438-0.018,0.674,0.023c0.364,0.116,0.22,0.38,0.048,0.541c-0.103,0.03-0.204,0.061-0.276,0.189
	c-0.205,0.061-0.043,0.233-0.043,0.233s0.163,0.175-0.072,0.134c0,0-0.101,0.029-0.232-0.043c-0.102,0.031-0.175,0.163,0.017,0.439
	c0.03,0.101,0.323,0.349,0.354,0.449c0.839,0.973,1.869,2.221,2.161,2.468c0.587,0.493,1.174,0.985,1.79,1.579
	c0.03,0.102,0.265,0.143,0.306-0.088c-0.03-0.104,0.072-0.133,0.072-0.133c0.145-0.264,0.337,0.012,0.132,0.072
	c0,0-0.205,0.061-0.013,0.336c0.223,0.377,0.604,0.929,1.014,0.809c0.101-0.029,0,0,0,0s-0.073,0.134,0.059,0.204
	c0.132,0.073,0.265,0.146,0.425,0.319c0.132,0.072,0.132,0.072,0.132,0.072l0,0c0.029,0.1,0.19,0.276,0.293,0.246
	c0.557,0.391,0.984,0.709,1.513,0.996c0.131,0.072,0.233,0.043,0.203-0.06c0.103-0.029,0.072-0.132,0.175-0.161
	c0,0,0.133,0.074,0.162,0.176l-0.073,0.131c0,0-0.071,0.131,0.192,0.276c0.13,0.07,0.204-0.06,0.174-0.162
	c-0.029-0.102,0.102-0.03,0.102-0.03c0.029,0.103,0.089,0.307,0.223,0.379c0.233,0.041,0.732,0.23,0.832,0.199
	c0.233,0.041,0.205-0.061,0.073-0.132c-0.03-0.101,0.175-0.161,0.175-0.161c0.406-0.119,0.756-0.445,1.134-0.664
	c0.554-0.385,0.617,0.594,0.617,0.594s0.179,0.612,0.658,0.361c0.276-0.191,0.523-0.486,0.759-0.445
	c0.102-0.029,0.189,0.275-0.014,0.338c-0.408,0.117-0.978,0.062-0.871,0.807c0,0,0.09,0.307,0.672,0.025
	c0.203-0.061,0.336,0.012,0.264,0.144c-0.07,0.134-0.174,0.163-0.114,0.366c0.341,0.786,1.2,0.314,1.669,0.399
	c0.13,0.07,0.528,0.288,0.657,0.36l0,0c0,0,0.102-0.031,0.132,0.07l0.233,0.041c0.102-0.029,0.233,0.043,0.335,0.012
	c0.479-0.25,0.404-0.892,0.621-1.287c0.113-0.366,0.377-0.223,0.232,0.041c-0.144,0.266-0.114,0.365-0.156,0.602
	c0.059,0.203,0.21,0.714,1.187,0.648c0.438-0.018,0.878-0.036,1.11,0.007c0.467,0.086,0.406-0.118,0.552-0.383
	c0.216-0.396,0.671,0.024,0.671,0.024s0.762,0.332,1.404,0.254c4.991-0.354,9.6-1.258,13.62-2.658
	c0.409-0.119,0.817-0.238,1.121-0.328c4.46-1.415,8.813-3.574,12.912-6.215c4.07-2.742,8.051-5.789,11.811-9.215
	c2.091-1.941,4.122-4.088,6.15-6.23c0.072-0.135,0.218-0.396,0.289-0.529c0.115-0.367,0.48-0.25,0.728-0.545
	c1.188-1.234,2.348-2.569,3.477-4.008c1.725-2.055,3.347-4.079,5.071-6.137c1.593-2.127,3.317-4.184,4.777-6.383
	c1.592-2.125,3.153-4.354,4.643-6.451c1.463-2.199,3.024-4.43,4.485-6.632c2.921-4.398,5.608-8.839,7.929-13.396
	c2.353-4.452,4.44-9.052,6.017-13.502c2.438-6.806,3.898-13.545,4.63-17.858c0.31-1.975,1.788-5.619,9.844-4.211
	c1.739,0.266,3.336,0.796,4.917,1.663c2.213,1.123,3.056,2.871,3.348,4.999c0.428,2.977,0.417,5.971-0.265,8.938
	c-0.228,0.732-0.224,1.506-0.116,2.25c0.287,1.355,0.571,2.713-0.047,4c-0.519,1.258-0.254,1.403-0.251,2.178
	c0.036,0.875-0.295,1.636-0.361,2.543c-0.128,0.701-0.355,1.432-0.352,2.207c0.053,1.312-0.363,2.543-0.778,3.771
	c-0.759,2.326-1.181,4.665-1.502,6.973c-0.361,2.545-0.258,5.172-1.455,7.516c-0.215,0.393-0.299,0.861-0.386,1.331
	c-0.585,2.164-0.204,4.599-1.622,6.565c-0.174,0.161-0.055,0.568-0.097,0.805c-0.025,0.672-0.051,1.344-0.208,1.941
	c-0.397,1.668-1.132,3.323-0.695,5.187c0.088,0.308-0.229,0.732-0.346,1.098c-0.186,0.497-0.343,1.096-0.295,1.636
	c-0.165,1.71-0.257,3.287-0.318,4.967c-0.11,1.141-0.424,2.34,0.24,3.473c0.163,0.176,0.049,0.539,0.006,0.774
	c-0.258,0.629-0.18,1.272,0,1.885c0.208,0.713,0.213,1.487,0.29,2.13c0.048,0.539,0.124,1.182,0.347,1.56
	c0.473,0.858,1.151,1.657,1.318,2.604c0.057,0.203,0.531,1.062,0.591,1.266c0.383,0.553,0.49,1.297,0.67,1.91
	c0.771,1.877,2.195,3.342,3.97,4.484c1.743,1.041,3.687,1.246,5.673,1.219c0.541-0.047,0.759-0.443,0.799-0.676
	c-0.017-0.438,0.583-0.281,0.395,0.217c0,0-0.216,0.396,0.354,0.449c0.337,0.012,0.568,0.056,0.905,0.068
	c0.335,0.012,0.742-0.105,0.888-0.371c0.667-0.75,1.411-0.855,2.155-0.963c1.487-0.213,1.758-1.178,1.975-1.574
	c0.188-0.497,0.463-0.688,0.769-0.779c0.408-0.119,0.553-0.384,0.727-0.545c0.246-0.293,0.421-0.455,0.666-0.748
	c0.275-0.193,0.085-0.469-0.048-0.539l-0.131-0.072c0,0-0.162-0.176-0.029-0.104c0.101-0.029,0.101-0.029,0.13,0.072
	c0.103-0.029,0.103-0.029,0.205-0.061c-0.048-0.539,1.048-0.195,0.709-0.982c-0.162-0.174-0.265-0.146-0.468-0.086
	c-0.204,0.061-0.061-0.203-0.061-0.203l0.462-0.688c0,0,0.146-0.264-0.119-0.41c-0.264-0.145-0.497-0.186-0.702-0.125
	c-0.102,0.03-0.13-0.073-0.161-0.174c-0.03-0.104-0.03-0.104-0.06-0.205c-0.089-0.306-0.251-0.48-0.496-0.188
	c-0.072,0.131-0.176,0.162-0.277,0.191c-0.03-0.103-0.059-0.204,0.014-0.336c0.144-0.264,0.012-0.336,0.012-0.336
	s-0.163-0.174-0.09-0.305c0.071-0.132,0.275-0.191,0.511-0.149c0,0,0.232,0.042,0.204-0.06c0.071-0.132,0.174-0.162,0.275-0.191
	c0.203-0.061,0.161,0.174,0.425,0.317c0.528,0.29,1.464,0.46,1.62-0.142c-0.03-0.102,0.043-0.234,0.246-0.295
	c0.102-0.027,0.204-0.058,0.334,0.013l0.088,0.306c0,0-0.041,0.233,0.192,0.275c0.233,0.043,0.511-0.149,0.654-0.412
	c0.318-0.426,0.361-0.658,0.434-0.791c0.073-0.133-0.03-0.102-0.03-0.102c-0.203,0.06-0.16-0.176-0.16-0.176
	c0.072-0.13,0.204-0.059,0.204-0.059s0.16,0.175,0.437-0.018c0.639-0.852,1.012-1.848,1.648-2.697
	c1.91-2.553,3.163-5.467,4.517-8.41c3.191-7.248,4.877-13.611,4.985-14.752C506.055,328.537,505.541,327.912,504.747,329.364z
	 M391.99,258.588c0.628,0.258,0.269,0.917-0.259,0.629C391.51,258.838,391.755,258.545,391.99,258.588z M390.64,257.762
	c0.541-0.048,0.136,0.847-0.393,0.558C389.985,258.176,390.407,257.72,390.64,257.762z M370.924,266.083
	c0.115-0.365,0.479-0.252,0.426,0.319C371.338,266.737,370.664,266.714,370.924,266.083z M370.388,271.444
	c0.407-0.118,0.6,0.156,0.688,0.464c0.119,0.408-0.666,0.748-0.948,0.168C369.968,271.899,370.082,271.535,370.388,271.444z
	 M376.657,317.459c-0.25-2.365-0.262-4.686-0.205-7.141c0.116-2.246,0.678-5.625,0.963-6.925c0.452-2.235,1.301-4.258,1.521-6.537
	c0.206-1.946,1.014-3.731,1.583-5.56c0.272-0.966,0.646-1.961,1.051-2.854c0.92-2.152,1.87-4.205,3.215-6.037
	c1.912-2.555,3.688-3.295,4.623-3.125s2.157,1.693,2.399,5.169c0.249,2.362-0.039,5.546-1.22,10.211
	c-0.386,1.331-0.953,3.937-1.484,5.532c-0.559,1.491-1.369,2.507-1.657,3.032c-0.258,0.628-0.181,1.271-0.309,1.972
	c-0.297,1.637-0.987,3.06-1.811,4.407c-0.289,0.528-0.812,1.013-0.896,1.48c-0.249,2.177-1.787,3.734-2.958,5.408
	c-0.319,0.425-0.691,1.419-1.461,2.197C378.556,319.781,376.925,320.26,376.657,317.459z M343.489,359.287
	c-0.102,0.031-0.129-0.073-0.129-0.073c-0.03-0.102,0.069-0.132,0.173-0.161c0.103-0.03,0.131,0.072,0.131,0.072
	C343.594,359.258,343.594,359.258,343.489,359.287z M349.395,357.889c0,0-0.102,0.03-0.132-0.07
	c-0.029-0.101-0.059-0.204-0.059-0.204s0.102-0.029,0.132,0.072C349.395,357.889,349.395,357.889,349.395,357.889z M350.341,359.607
	c-0.102,0.029-0.232-0.043-0.263-0.145c-0.029-0.102,0.043-0.233,0.144-0.266c0.103-0.029,0.233,0.043,0.264,0.145
	C350.441,359.578,350.341,359.607,350.341,359.607z M348.966,365.879c-0.029-0.101-0.061-0.204,0.011-0.336
	c0,0,0.072-0.131,0.103-0.027c0.03,0.1,0.03,0.1,0.061,0.203C349.169,365.821,349.066,365.85,348.966,365.879z M350.226,369.054
	c-0.102,0.029-0.102,0.029-0.132-0.071c-0.031-0.103-0.031-0.103,0.041-0.233c0.1-0.029,0.1-0.029,0.131,0.07
	C350.197,368.952,350.226,369.054,350.226,369.054z M353.892,369.09c-0.101,0.031-0.101,0.031-0.132-0.072
	c-0.029-0.1-0.029-0.1,0.071-0.131c0.103-0.029,0.103-0.029,0.132,0.072C353.994,369.061,353.994,369.061,353.892,369.09z
	 M356.25,372.608c-0.029-0.102-0.029-0.102-0.061-0.205C356.364,372.242,356.484,372.65,356.25,372.608z M359.147,373.422
	c-0.102,0.031-0.131-0.07-0.131-0.07c-0.031-0.103,0.071-0.133,0.071-0.133c0.103-0.029,0.132,0.072,0.132,0.072
	S359.117,373.318,359.147,373.422z M352.852,350.787c-0.03-0.102,0.072-0.131,0.072-0.131c0.101-0.031,0.132,0.072,0.132,0.072
	l-0.071,0.131C353.014,350.961,352.883,350.888,352.852,350.787z M354.58,355.929c-0.102,0.03-0.102,0.03-0.13-0.072
	c-0.03-0.102-0.03-0.102,0.07-0.131c0.103-0.029,0.103-0.029,0.132,0.07C354.682,355.9,354.683,355.9,354.58,355.929z
	 M355.101,352.787c-0.102,0.031-0.133-0.072-0.133-0.072c-0.028-0.101,0.072-0.131,0.072-0.131l0.132,0.072L355.101,352.787z
	 M358.607,359.845c-0.12-0.408-0.353-0.449-0.588-0.492c-0.029-0.102-0.06-0.205-0.089-0.305c0.643-0.078,1.14,0.109,1.493,0.56
	C359.219,359.666,359.076,359.93,358.607,359.845z M362.924,365.892C362.822,365.922,362.822,365.922,362.924,365.892
	c-0.162-0.174-0.162-0.174-0.06-0.203C362.967,365.659,362.998,365.76,362.924,365.892
	C363.027,365.861,362.924,365.892,362.924,365.892z M360.352,354.462c-0.101,0.03-0.232-0.042-0.293-0.245
	c-0.059-0.205-0.09-0.307,0.014-0.336c0.102-0.029,0.232,0.042,0.293,0.246C360.427,354.33,360.457,354.431,360.352,354.462z
	 M368.615,372.09c-0.103,0.03-0.233-0.041-0.264-0.144c-0.03-0.104,0.042-0.233,0.144-0.264s0.233,0.042,0.265,0.144
	C368.789,371.927,368.717,372.06,368.615,372.09z M371.752,376.379c-0.396-0.217,0.349-0.324,0.258-0.631
	C372.244,375.791,371.927,376.217,371.752,376.379z M369.311,366.9c-0.071,0.133-0.145,0.264-0.35,0.324
	c-0.304,0.09-0.467-0.084-0.467-0.084c-0.029-0.102,0.073-0.131,0.175-0.16c0.206-0.061,0.35-0.326,0.554-0.385
	C369.294,366.465,369.557,366.609,369.311,366.9z M369.822,366.753c-0.103,0.029-0.103,0.029-0.131-0.07
	c-0.031-0.103-0.031-0.103,0.071-0.132c0.101-0.029,0.101-0.029,0.131,0.072C369.924,366.722,369.924,366.722,369.822,366.753z
	 M373.688,373.154c-0.103,0.029-0.131-0.073-0.131-0.073l0.072-0.13c0.102-0.029,0.13,0.07,0.13,0.07
	S373.791,373.123,373.688,373.154z M373.585,370.525c-0.102,0.03-0.132-0.071-0.132-0.071c-0.03-0.103,0.071-0.132,0.071-0.132
	l0.131,0.072C373.759,370.362,373.686,370.494,373.585,370.525z M375.953,371.049c-0.101,0.031-0.132-0.07-0.132-0.07l0.074-0.133
	c0.101-0.029,0.129,0.072,0.129,0.072S376.054,371.02,375.953,371.049z M376.115,366.682c-0.204,0.06-0.336-0.013-0.396-0.218
	c-0.06-0.202,0.013-0.334,0.217-0.394c0.206-0.061,0.338,0.011,0.395,0.214C376.391,366.49,376.318,366.623,376.115,366.682z
	 M377.642,368.119c-0.103,0.029-0.103,0.029-0.131-0.07c-0.029-0.104-0.029-0.104,0.071-0.132c0.101-0.03,0.101-0.03,0.131,0.071
	C377.745,368.088,377.745,368.088,377.642,368.119z M380.093,374.601c-0.102,0.029-0.131-0.071-0.131-0.071l0.072-0.132l0.131,0.072
	C380.167,374.469,380.196,374.57,380.093,374.601z M379.441,368.589l-0.029-0.103c-0.031-0.102,0.069-0.131,0.102-0.029
	c0,0,0.029,0.102,0.06,0.205C379.603,368.764,379.532,368.894,379.441,368.589z M379.586,368.325
	c-0.03-0.102,0.042-0.233,0.145-0.264c0.102-0.03,0.234,0.042,0.265,0.144s-0.041,0.233-0.145,0.266
	C379.748,368.499,379.616,368.427,379.586,368.325z M380.071,368.847c-0.235-0.041-0.191-0.277,0.174-0.16
	C380.346,368.656,380.376,368.759,380.071,368.847z M379.439,365.931c-0.103,0.031-0.103,0.031-0.132-0.072
	c-0.029-0.102-0.029-0.102,0.071-0.132c0.101-0.028,0.102-0.029,0.132,0.071C379.541,365.902,379.439,365.931,379.439,365.931z
	 M379.638,365.098L379.638,365.098c-0.132-0.071-0.06-0.204-0.06-0.204C379.71,364.968,379.71,364.968,379.638,365.098
	C379.74,365.067,379.74,365.067,379.638,365.098z M383.444,366.752c-0.103,0.03-0.132-0.072-0.132-0.072
	c-0.03-0.102,0.072-0.131,0.072-0.131l0.132,0.072C383.619,366.592,383.547,366.722,383.444,366.752z M384.379,368.804
	C384.276,368.836,384.276,368.836,384.379,368.804c-0.133-0.071-0.06-0.203-0.06-0.203S384.449,368.672,384.379,368.804
	C384.479,368.775,384.379,368.804,384.379,368.804z M390.597,373.408c-0.102,0.03-0.102,0.03-0.13-0.072
	c-0.03-0.1-0.03-0.1,0.07-0.131c0.102-0.029,0.102-0.029,0.133,0.071C390.671,373.275,390.701,373.379,390.597,373.408z
	 M395.014,367.685L395.014,367.685c-0.131-0.07-0.06-0.204-0.06-0.204S395.089,367.552,395.014,367.685
	C395.118,367.655,395.118,367.655,395.014,367.685z M397.633,366.033c-0.101,0.029-0.232-0.043-0.264-0.144
	c-0.029-0.104-0.059-0.206,0.043-0.233c0.102-0.03,0.233,0.041,0.264,0.144C397.705,365.902,397.734,366.002,397.633,366.033z
	 M397.776,363.111c-0.103,0.031-0.133-0.072-0.133-0.072l0.073-0.13c0.101-0.03,0.13,0.071,0.13,0.071
	S397.876,363.083,397.776,363.111z M398.78,365.033c-0.103,0.029-0.234-0.041-0.294-0.246c-0.061-0.205-0.089-0.307,0.011-0.336
	c0.103-0.031,0.236,0.041,0.295,0.245C398.823,364.8,398.78,365.033,398.78,365.033z M406.239,357.976
	c-0.101,0.03-0.131-0.071-0.131-0.071c-0.029-0.103,0.07-0.132,0.07-0.132l0.134,0.072
	C406.312,357.844,406.344,357.946,406.239,357.976z M407.358,356.875C407.358,356.875,407.224,356.802,407.358,356.875
	c-0.133-0.072-0.162-0.174-0.061-0.205C407.4,356.64,407.4,356.64,407.358,356.875C407.427,356.742,407.461,356.845,407.358,356.875
	z M408.324,357.145C408.219,357.176,408.219,357.176,408.324,357.145c-0.132-0.071-0.163-0.175-0.06-0.204
	C408.264,356.941,408.292,357.042,408.324,357.145L408.324,357.145z M413.125,354.633c-0.102,0.029-0.132-0.072-0.132-0.072
	l0.073-0.131l0.13,0.072C413.196,354.502,413.225,354.601,413.125,354.633z M412.717,350.209c-0.101,0.031-0.101,0.031-0.131-0.07
	c-0.028-0.1-0.029-0.102,0.071-0.131c0.102-0.03,0.102-0.03,0.133,0.071C412.819,350.18,412.819,350.18,412.717,350.209z
	 M418.037,349.095c-0.102,0.03-0.129-0.072-0.129-0.072l0.071-0.131l0.131,0.072C418.111,348.963,418.14,349.064,418.037,349.095z
	 M472.93,358.394C472.826,358.424,472.826,358.424,472.93,358.394c-0.073,0.131-0.176,0.16-0.308,0.088
	c-0.13-0.072-0.13-0.072-0.06-0.203c0.072-0.133,0.072-0.133,0.204-0.061l0.132,0.072l0.102-0.029l0.03,0.1
	C472.93,358.394,472.93,358.394,472.93,358.394z M475.994,358.271c-0.102,0.029-0.132-0.072-0.132-0.072l0.071-0.133l0.133,0.073
	L475.994,358.271z"/>
</svg>
