<?xml version="1.0" encoding="utf-8"?>
<!-- Generator: Adobe Illustrator 16.0.0, SVG Export Plug-In . SVG Version: 6.00 Build 0)  -->
<!DOCTYPE svg PUBLIC "-//W3C//DTD SVG 1.1//EN" "http://www.w3.org/Graphics/SVG/1.1/DTD/svg11.dtd">
<svg version="1.1" id="Layer_1" xmlns="http://www.w3.org/2000/svg" xmlns:xlink="http://www.w3.org/1999/xlink" x="0px" y="0px"
	 width="625.521px" height="237.772px" viewBox="94.601 175.041 625.521 237.772"
	 enable-background="new 94.601 175.041 625.521 237.772" xml:space="preserve">
<path d="M646.086,263.093c0.319,0,0.426-0.212,0.638-0.318c0.106-0.106,0.213-0.531-0.213-0.426
	c-0.212,0.106-0.318,0.213-0.425,0.426C645.98,262.881,645.873,263.093,646.086,263.093z"/>
<path d="M641.941,288.392c0.213,0,0.425-0.213,0.531-0.426c0.213-0.531,0.426-1.062,0.426-1.487c0-0.532-0.319-0.532-0.744-0.532
	c-0.213,0-0.426,0.106-0.426,0.319c-0.106,0.531-0.212,1.062-0.318,1.7C641.409,287.967,641.728,288.286,641.941,288.392z"/>
<path d="M645.342,271.596c0.851,0,1.063-0.212,1.275-1.062c0.106-0.213-0.105-0.531-0.425-0.425
	c-0.531,0.105-0.957,0.425-1.169,0.85C644.811,271.172,645.024,271.596,645.342,271.596z"/>
<path d="M643.323,275.636c0.425-0.106,0.744-0.426,1.169-1.17c0.532-0.85-0.425-1.169-0.85-1.062
	c-0.319,0.106-0.639,0.425-0.957,0.638c-0.213,0.106-0.426,0.425-0.531,0.638C642.154,275.53,642.898,275.636,643.323,275.636z"/>
<path d="M632.373,359.931c0.744-0.638,0.744-1.062,0-2.02c-0.105-0.106-0.318-0.106-0.318,0.106c0,0.531-0.106,1.063-0.106,1.807
	C631.948,359.931,632.268,360.038,632.373,359.931z"/>
<circle cx="629.61" cy="357.593" r="0.319"/>
<path d="M639.815,294.451c-0.957,0.213-1.701,0.532-2.445,0.744c-0.105,0-0.212,0.213-0.105,0.319
	c0.105,0.212,0.212,0.425,0.212,0.531c-0.531,1.488-1.062,2.87-2.126,4.039c-0.956,1.063-1.382,2.339-1.807,3.827
	c0,0.213,0.106,0.319,0.318,0.319c0.426-0.106,0.532-0.426,0.638-0.744c0.213-0.639,0.319-1.488,0.851-1.808
	c0.744-0.318,1.17-0.744,1.275-0.957c0.851-1.062,1.914-2.02,1.914-3.295c0.106-1.169,0.425-1.807,1.382-2.339
	c0.106,0,0.106-0.212,0.106-0.425C640.028,294.664,640.028,294.451,639.815,294.451z"/>
<path d="M624.614,317.625c0,0.106,0,0.213,0,0.213c0.319,0.212,0.744,0.425,1.063,0.638c0,0,0.212-0.213,0.318-0.319
	c-0.318-0.213-0.531-0.425-0.85-0.531C625.039,317.625,624.826,317.625,624.614,317.625z"/>
<path d="M637.369,280.633c0.213-0.106,0.426-0.213,0.532-0.319c0.425-0.425,0.744-0.956,1.169-1.275
	c0.531-0.319,1.701-0.425,1.913-0.851c0.106-0.213,0-0.425-0.212-0.425c-0.532-0.106-1.063,0-1.595,0.106
	c-0.426,0.105-0.744,0.318-1.063,0.638c-0.531,0.531-0.956,0.956-1.275,1.488C636.625,280.313,636.732,280.951,637.369,280.633z"/>
<path d="M628.865,301.467c0-0.105-0.318-0.105-0.531-0.105c-0.106,0-0.213,0.105-0.213,0.212c0,0.213,0,0.531,0,0.744
	c0,0.106,0.106,0.106,0.213,0.106C628.654,302.211,629.185,302.104,628.865,301.467z"/>
<path d="M628.334,301.255c0.213-0.106,0.426-0.319,0.638-0.426c0.213-0.212-0.106-0.531-0.318-0.212
	C628.441,300.617,628.334,300.935,628.334,301.255C628.228,301.255,628.228,301.255,628.334,301.255z"/>
<path d="M630.567,297.747c-0.319-0.106-0.531-0.106-0.851,0c-0.531,0.212-0.318,0.956,0.319,0.85c0.212,0,0.425-0.105,0.638-0.212
	C630.885,298.172,630.885,297.852,630.567,297.747z"/>
<path d="M658.629,352.916c-0.638,0.851-0.638,1.063-0.318,2.02c0,0.106,0.213,0.213,0.318,0c0.319-0.638,0.426-0.85,0.319-2.02
	C658.948,352.809,658.736,352.703,658.629,352.916z"/>
<path d="M625.571,301.999c-0.106-0.106-0.213-0.106-0.319,0c-0.318,0.531-0.638,1.062-1.169,1.807c-0.106,0.106,0,0.213,0.106,0.213
	c0.531-0.213,0.851-0.319,1.169-0.426c0.319-0.105,0.851,0,1.063-0.531c0-0.106,0-0.213-0.106-0.213
	C626.208,302.53,625.889,302.317,625.571,301.999z"/>
<path d="M630.141,308.164c0-0.106-0.105-0.106-0.212,0c-0.426,0.426-0.957,0.744-1.488,1.275l-0.106,0.106
	c0,0.319,0,0.532,0.106,0.638c0.213,0.213,0.425,0.638,0.744,0.638c0.425,0.106,0.744-0.212,0.638-0.638
	c-0.213-0.744,0.531-1.062,0.638-1.7C630.46,308.483,630.247,308.377,630.141,308.164z"/>
<path d="M630.991,291.262c-0.212,0.106-0.318,0.106-0.531,0.212c-0.106,0,0,0.106,0,0.213c0.319,0,0.425,0,0.531-0.213
	C631.098,291.369,631.098,291.156,630.991,291.262z"/>
<circle cx="626.208" cy="360.782" r="0.213"/>
<circle cx="630.354" cy="360.038" r="0.213"/>
<circle cx="626.421" cy="357.806" r="0.425"/>
<circle cx="626.315" cy="354.405" r="0.319"/>
<circle cx="623.445" cy="317.199" r="0.532"/>
<circle cx="623.976" cy="319.219" r="0.425"/>
<circle cx="627.484" cy="295.196" r="0.319"/>
<circle cx="633.65" cy="294.345" r="0.212"/>
<circle cx="640.24" cy="282.333" r="0.212"/>
<circle cx="643.003" cy="280.739" r="0.319"/>
<ellipse cx="630.141" cy="293.282" rx="0.426" ry="0.213"/>
<path d="M719.433,361.633c-0.531,0.318-1.063,0.638-1.488,0.957c-0.213,0.105-0.638,0.425-0.957,0.956
	c-0.318,0.638-1.275,0.531-2.02,0.851c-2.339,0.851-4.465,2.126-6.696,3.295c-5.103,2.658-10.205,5.422-15.839,7.122
	c-1.17,0.319-2.232,0.744-3.401,0.957c-2.232,0.531-4.465,1.275-6.591,2.02c-0.319,0.106-0.531,0.319-0.851,0.426
	c-0.318,0.105-0.744,0.531-1.701,0.318c-0.425-0.106-0.85-0.213-1.488-0.213c-1.275,0.106-2.338,0.532-3.295,1.276
	c-0.531,0.425-1.062,0.85-1.7,0.638c-1.382-0.532-2.765-0.319-4.04-0.213c-1.169,0.106-2.444,0-3.401-0.957
	c-1.382-1.275-2.764-2.657-3.933-4.252c-1.701-2.444-1.914-5.314-2.339-8.078c-0.319-2.02-0.213-4.146-0.319-6.166
	c0-0.318,0-0.956-0.638-0.744c-0.851,0.213-0.956,0.319-0.956,0.851c0,1.701-0.426,3.508,0.425,5.209
	c0.213,0.531,0.319,1.275,0.213,1.913c-0.213,2.02,0.531,3.721,0.851,5.634c0.105,0.532,0.318,1.063,0.425,1.276
	c0.425,0.956,0.213,1.913-0.106,2.869c-0.106,0.426-0.744,1.488-2.02,1.063c-0.531-0.213-0.957-0.531-1.488-0.957
	c-0.851-0.638-1.807-1.382-2.657-2.02l0,0c-0.319-0.213-0.851-0.425-0.638,0.319c0,0.106,0,0.212,0.105,0.318
	c0,0.106,0,0.638-0.638,0.638c-0.105,0-0.212,0-0.318,0c-0.531-0.105-0.426-0.425-0.213-0.744c0.319-0.425,0.638-0.85,0.851-1.169
	c0.425-0.851-0.531-1.701-0.319-2.657c0.106-0.426,0-0.638-0.212-0.531c-0.532,0.105-0.744,0.744-0.744,0.85
	c-0.106,0.319-0.106,0.532-0.213,0.851c-0.106,0.638-0.638,1.595-1.275,1.17c-0.531-0.319,0-1.383,0.106-1.595
	c0.531-1.17,0.638-2.445,0.105-3.614c-0.212-0.531-0.105-0.851,0-0.957c0.213-0.425,0.532-0.956,0.851-1.488
	c0.106-0.212,0.106-0.425-0.106-0.638c-0.425-0.425-0.85-0.851-1.382-1.275c-0.105-0.106-0.105-0.213,0-0.319
	c0.851-0.956,0.851-1.807,0.319-2.764c-0.426-0.85-0.638-1.913-1.701-2.126c-0.106,0-0.531-0.106-0.638,0.532
	c-0.106,0.425-0.213,0.744-0.531,1.062c-0.531,0.638-1.062,1.275-1.807,1.701c-0.744,0.531-1.701-0.213-1.595-1.17
	c0-0.956,0.318-1.807,1.169-2.338c0.851-0.532,1.488-1.382,2.02-2.232c0.319-0.531,0.851-0.957,1.275-1.488
	c0.213-0.319,0.426-0.638,0.744-1.063c0.106-0.212,0.106-0.531,0-0.744c-0.425-0.531-0.744-1.062-1.169-1.487
	c-0.106-0.213-0.425-0.213-0.638-0.106c-0.425,0.212-0.744,0.425-1.169,0.638c-0.106,0.106-0.319,0.212-0.426,0.212
	c-0.531,0.106-2.444-1.062-2.976-1.594c-0.532-0.532-0.426-1.488,0.638-1.382c0.956,0.106,2.02,0.425,2.976,0.531
	c0.957,0.106,1.595-0.319,1.808-1.275c0.106-0.851,0.213-1.808,0.213-2.764c0-0.957-0.106-2.021,0.425-2.977
	c0.531-0.851,0.744-1.808,0.425-2.87c-0.105-0.426,0.106-0.957,0.319-1.275c0.851-1.063,0.851-1.914,0-2.977
	c-0.426-0.531-0.531-1.17-0.319-1.808c0.213-0.638,0.851-0.531,1.382-0.638c0.957-0.212,1.17-1.275,0.426-1.913
	c-0.319-0.319-0.638-0.531-0.957-0.744c-0.213-0.106-0.318-0.425-0.213-0.638c0.106-0.319,0.213-0.531,0.319-0.744
	c0.319-0.425,0.744-0.851,1.063-1.275c0.638-1.063,0.425-1.914-0.639-2.658c-0.531-0.425-0.638-1.062-0.425-1.7
	c0.531-0.957,1.169-1.063,1.913-0.426c0.319,0.319,0.532,0.744,1.17,0.851c0.212,0,0.425-0.106,0.425-0.318
	c0.213-0.532,0.319-0.957,0.531-1.488c0.106-0.106,0-0.319,0-0.531c-0.106-0.213-0.106-0.319-0.212-0.426
	c-0.744-0.638-0.957-1.595-0.851-2.551c0.106-0.957,1.062-0.957,1.488-1.488c0,0,0.106-0.106,0.106-0.213
	c0.105-0.213,0-0.531-0.319-0.638c-0.213-0.106-0.531-0.319-0.744-0.425c-0.213-0.106-0.425-0.106-0.638-0.106
	c-0.851,0.212-1.169,0.956-1.913,1.275c-0.319,0.106-0.638-0.106-0.532-0.425c0.106-0.851,0.213-1.595,0.426-2.232
	c0.213-0.744,0.744-1.275,1.488-1.488c0.744-0.106,0.851,0.531,1.275,0.851c0.106,0.106,0.213,0.106,0.319,0.106
	c0.105,0,0.318-0.106,0.318-0.213c0.106-0.426,0.213-0.957,0.531-1.17c0.319-0.318,0.851-0.531,1.276-0.744
	c0.105-0.105,0.212-0.212,0.212-0.425c-0.638-1.807-0.851-1.913-2.232-2.126c-0.956-0.213-1.913,0-2.764,0.426l0,0l0,0
	c-0.212,0.105-0.425,0.212-0.638,0.425c-0.425,0.318-0.85,0.638-1.488,1.169c-0.105,0.106-0.318,0-0.318-0.106
	c0-0.531,0-0.85,0.213-0.956c0.638-0.531,1.488-0.851,1.913-1.488c0.956-1.275,2.339-1.488,3.614-1.488
	c0.318,0,0.531,0.106,0.744,0.318c0.106,0.106,0.212,0.319,0.212,0.426c0.213,0.318,0.319,0.744,0.639,0.851
	c0.318,0.212,0.743,0.318,1.062,0.212c0.213-0.105,0.425-0.531,0.531-0.85c0-0.106,0-0.213,0.106-0.319c0-0.106,0-0.319-0.106-0.425
	c-0.851-0.957-1.807-1.808-2.551-2.871c-0.213-0.212-0.319-0.85-0.106-0.956c0.213-0.319,0.851-0.531,1.169-0.531
	c0.426,0.105,0.744,0.425,1.17,0.744c0.212,0.212,0.531,0.105,0.638-0.213c0.213-0.531,0.425-0.957,0.638-1.382
	c0.106-0.213,0.106-0.531-0.106-0.638c-0.213-0.213-0.318-0.319-0.531-0.532c-0.213-0.212-0.213-0.531-0.106-0.744
	c0.638-1.062,1.275-2.126,2.02-3.295c0.106-0.213,0.213-0.531,0.106-0.744c-0.213-0.425-0.426-0.957-0.638-1.488
	c-0.106-0.318,0-0.638,0.318-0.744c1.063-0.318,0.957-1.275,0.957-2.126c0-0.318-0.318-0.638-0.638-0.638
	c-0.957,0-0.638-0.531-0.531-0.638c0.744-0.851,1.062-1.913,2.02-2.551s1.595-1.808,2.445-3.083
	c0.318-0.425,0.425-0.957,0.318-1.382c-0.106-1.063-0.318-2.232-0.531-3.401c-0.106-0.426-0.319-1.17,0.744-2.02
	c1.275-1.063,2.232-2.126,2.444-3.934c0.106-0.851,0.532-1.595,0.532-2.657c-0.106-0.851,0.212-1.808,0.531-2.657
	c0.213-0.426,0.531-0.744,0.851-1.063c0.318-0.213,0.425-0.638,0.318-1.062c-0.425-1.595-0.425-3.189,0.426-4.784
	c1.062-1.807,2.02-3.614,2.444-5.74c0.106-0.318,0.319-0.638,0.531-0.956c0.532-0.744,1.063-1.488,1.595-2.232
	c0.106-0.213,0.213-0.425,0.106-0.638c-0.106-0.426-0.213-0.851-0.213-1.17c0-0.425,0.319-1.062,0.638-1.062
	c1.063-0.319,1.701-0.957,2.339-1.913c0.213-0.319,0.319-0.744,0.213-1.17c-0.213-0.851-0.319-1.807,0.744-2.551
	c0.318-0.213,0.425-0.957,0.425-1.488c0.106-0.531,0-1.169,0.426-1.488c0.85-0.638,0.85-1.595,0.956-2.444
	c0.106-0.744,0.426-1.383,0.851-2.021s1.063-1.169,1.169-1.275c1.276-2.232-0.956-4.039,0.426-5.952
	c0.425-0.319,0.851-0.319,1.275-0.426c0.318,0,0.531-0.213,0.638-0.531c0.425-1.169,1.063-2.232,1.275-3.508
	c0.213-1.382,0.744-2.445,1.914-3.189c1.062-0.744,1.382-2.02,1.169-2.87c-0.638-2.02,0.213-2.976,1.807-3.614c0,0,0,0,0.106,0
	c0.213-0.212,0.213-0.531,0.106-0.744c-0.106-0.105-0.213-0.212-0.213-0.318c-0.212-0.213-0.212-0.425-0.105-0.744
	c0.318-1.169,0.743-2.339,1.913-2.977c0.531-0.318,0.744-1.275,0.956-1.913c0.213-0.531,0.106-1.063,0.213-1.595
	c0.106-0.425,0.319-0.957,0.426-1.382c0.105-0.213,0-0.425-0.213-0.531c-0.744-0.213-0.426-0.851-0.319-1.382
	c0.106-0.319-0.106-0.638-0.318-0.744c-0.851-0.426-1.701-0.851-2.552-1.17c-1.594-0.638-3.188-1.275-4.89-1.913
	c-1.062-0.425-2.126-0.851-3.295-1.275c-0.213-0.106-0.425,0-0.638,0.213c-0.213,0.318-0.319,0.638-0.744,0.638
	c-1.063,0.106-1.701,0.638-2.339,1.275c-1.595,1.701-3.188,3.295-4.783,4.996c-1.169,1.382-2.339,2.87-3.508,4.358
	s-2.552,2.977-3.508,4.677c-0.957,1.595-2.339,2.764-3.189,4.358c-1.275,2.339-3.295,4.252-4.677,6.484
	c-1.488,2.551-3.401,4.996-4.996,7.44c-0.426,0.639-0.957,1.382-1.382,2.021c-0.106,0.212-0.106,0.531,0,0.744
	c0.106,0.105,0.213,0.318,0.213,0.425c0.212,0.318,0,0.638-0.319,0.744c-0.318,0.106-0.638,0.213-0.957,0.213
	c-0.212,0.105-0.425,0.212-0.531,0.425c-1.062,1.701-2.232,3.295-3.188,4.996c-1.914,3.188-4.04,6.165-5.528,9.566
	c-0.531,1.276-1.169,2.445-2.02,3.614c-0.957,1.276-1.807,2.764-2.232,4.358c-0.318,1.063-0.744,1.914-1.275,2.87
	c-0.425,0.638-0.851,1.275-1.169,2.02c-0.638,1.382-1.17,2.977-1.913,4.358c-1.17,2.232-2.021,4.678-3.614,6.697
	c-0.319,0.425-0.532,0.956-0.744,1.488c-1.063,2.551-2.021,5.103-2.977,7.653c-0.319,0.851-1.063,1.595-0.957,2.551
	c0,0.213-0.106,0.532-0.318,0.744c-1.382,1.063-1.595,2.658-1.808,4.146c-0.213,1.063-1.062,1.808-0.957,2.87
	c0,0.106,0.106,0.532-0.318,1.17c-0.319,0.531-0.638,1.169-0.851,1.7c-0.744,2.764-1.7,5.422-2.764,7.973
	c-0.106,0.426-0.106,0.851-0.106,1.276c0,0.212,0,0.638-0.318,1.062c-0.638,0.638-0.319,1.595-0.744,2.339
	c-0.638,1.275-0.957,2.551-1.063,3.933c0,1.382-0.744,2.658-0.851,3.934c0,0.212-0.105,0.425-0.105,0.638
	c0,0.106,0.105,0.106,0.105,0.212c0,0.106,0,0.106,0,0.319c0.426,0.957-0.105,1.701-0.638,2.445
	c-0.318,0.425-0.638,0.85-1.062,1.275c-0.319,0.425-0.213,1.062,0.212,1.382c0.213,0.106,0.319,0.213,0.532,0.318
	c0.212,0.106,0.638,0.851-0.426,1.383c-0.212,0.105-0.531,0.105-0.85,0.105c-0.106,0-0.319,0.106-0.319,0.319
	c0.106,2.551-0.531,4.783-1.169,7.016c-0.106,0.319-0.319,0.638-0.638,0.851c-0.744,0.531-1.595,1.062-2.126,1.807
	c-0.957,1.488-2.232,2.445-3.508,3.508c-0.957,0.744-1.488,1.808-2.339,2.658c-0.851,0.744-2.232,0.85-2.977,1.807
	c-1.595,2.02-4.783,4.039-6.059,4.465c-1.914,0.638-3.296,0.106-4.04-1.701c-0.318-0.851-0.318-1.807-0.106-2.657
	c0.213-0.851,0.532-1.808-0.212-2.657c-0.213-0.213-0.319-0.744-0.106-1.063c0.531-1.062,0.531-2.126,0.318-3.295
	c-0.212-1.275,0.106-2.126,0.319-2.445c0.744-1.062,0.638-2.232,0-3.508c-0.319-0.531-0.213-0.956-0.213-1.595
	c0.106-1.275,0.213-2.551,0.319-3.933c0.106-0.957,0.531-1.701,0.956-2.232c0.319-0.318,0.426-0.851,0.319-1.488
	c-0.213-2.339-0.213-4.783,0.851-7.016c0.318-0.638,0.425-1.275,0.425-2.02c-0.106-1.275,0.213-2.02,0.426-2.339
	c0.85-1.275,1.169-2.551,1.062-4.039c-0.106-0.957,0-2.02,0.638-2.977c0.213-0.319,0.213-0.744,0.213-1.063
	c-0.106-1.382-0.319-2.764,0.213-3.933c0.318-0.638,0.531-1.808,0.638-2.02c0.212-1.17,0.744-2.232,1.488-3.189
	c0.638-0.851,1.169-1.7,1.275-2.764c0.318-2.444,0.851-4.89,1.807-7.229c0.213-0.425,0.213-0.851,0.319-1.382
	c0.213-1.062,0-2.02-0.638-2.87c-0.744-0.956-1.488-1.913-2.232-2.764c-0.213-0.318-0.744-1.062-0.851-1.595
	c-0.318-1.275-1.7-1.488-2.87-1.913c-0.851-0.318-1.595-0.851-2.338-1.275c-0.532-0.319-1.276-1.063-2.552-0.638
	c-0.638,0.212-1.275,0.638-1.913,0.744c-1.595,0.425-3.296,0.638-4.678,1.7c-0.531,0.426-1.275,0.319-1.807-0.106
	c-0.531-0.425-0.957-0.85-1.275-1.382c-0.638-1.169-1.17-2.338-1.701-3.508c-0.425-0.956-1.062-1.594-2.02-2.126
	c-1.382-0.744-2.764-1.488-4.146-2.126c-0.532-0.318-1.17-0.638-1.488-1.169c-0.532-0.638-1.17-0.744-1.914-0.957
	c-1.062-0.318-2.126-0.425-3.295-0.531c-2.232-0.213-4.465,0-6.484-1.275c-0.318-0.213-0.956-0.213-1.275-0.106
	c-0.851,0.213-1.7,0.425-2.444,0.851c-0.319,0.213-0.319,0.531-0.319,0.638s0,0.425-0.425,0.318c-0.106,0-0.532-0.105-0.851,0.106
	c-0.213,0.213-0.319,0.319-0.532,0.532c-4.783,5.74-9.566,11.374-14.031,17.433c-2.444,3.295-4.57,6.909-6.909,10.312
	c-1.913,2.976-3.721,5.952-5.421,9.035c-2.126,4.039-4.678,7.973-6.804,12.012c-2.126,4.146-4.039,8.504-5.952,12.756
	c-0.532,1.063-0.851,2.232-1.383,3.296c-2.551,5.421-4.252,11.268-6.377,16.901c-0.106,0.318-0.532,1.594-0.532,2.764
	c0,1.062-0.638,2.02-0.956,3.083c-1.063,3.401-1.595,6.803,0.318,10.098c0.106,0.213,0.213,0.638,0.319,0.851
	c0,0.106,0,0.319,0.106,0.426c0.105,0.318,0.318,0.318,0.425,0.318s0.106,0,0.213,0.106s0.638,0.425,0.744,0.531
	c0.318,0.426,0.531,0.744,0.425,1.275c0,0.106,0,0.319,0.213,0.426c0.318,0.212,0.212,0.318,0.425,0.638
	c0.106,0.213,0.531,0.213,0.851,0.318c0.106,0.106,0.213,0.319,0.318,0.319c0.213,0.106,0.213,0.425,0.532,0.531
	c0.212,0,0.425,0,0.638,0c0.213,0.106,0.318,0.213,0.318,0.426c0,0.318,0.532,0.318,0.532,0.318c0.531,0.106,1.275-0.106,2.02,0
	c0.531,0.106,0.531,0.426,1.062,0.531c0.319,0.106,0.638-0.212,1.17,0c0.105,0,0.425,0.106,0.744,0.213
	c0.318,0.106,1.487,0.531,1.807,0.744c0.425,0.213,0.319,0.319,0.851,0.531c0.425,0.106,0.851,0.106,1.275,0.213
	c1.595,0.425,3.189,0.531,4.571,0.213c1.062-0.319,2.02,0.212,2.338,0.318c0.426,0.106,0.851,0.213,1.17,0.106
	c1.382-0.213,2.764-0.638,3.826-1.382c1.17-0.851,2.445-1.275,3.721-1.595c0.851-0.318,1.808-0.531,2.445-1.062
	c1.487-1.382,2.87-2.87,4.252-4.358c0.425-0.425,0.744-1.169,0.638-1.701c-0.106-0.956,0.318-1.594,0.956-2.126
	c0.638-0.638,1.276-1.382,2.021-1.913s1.062-1.169,1.169-2.02c0.106-0.744,0.425-1.382,0.851-2.02
	c0.85-1.17,1.488-2.445,2.126-3.827c0.425-0.957,1.062-2.02,2.126-2.551c0.85-0.426,1.594-1.17,2.551-0.532
	c0.744,0.532,0.531,1.488,0.426,2.339c-0.106,0.744-0.319,1.488-0.106,2.126c0.212,0.638,0.212,1.17,0,1.808
	c-0.638,1.7-0.851,5.421-0.532,7.228c0.106,0.426,0.319,0.744,0.532,1.17c0.425,0.744,0.212,1.488,0.318,1.913
	c0.213,0.851,0.851,1.488,1.488,2.232c0.531,0.638,1.382,1.169,1.275,2.232c-0.105,0.851,0.319,0.956,0.532,1.062
	c1.062,0.213,0.956,1.914,2.02,2.232c0.318,0.106,0.744,0.638,0.744,1.063c0.106,0.851,0.531,1.382,1.169,1.807
	c0.851,0.531,1.595,1.275,2.552,1.701c3.082,1.382,6.271,1.913,9.673,1.488c2.02-0.213,3.933-0.426,5.634,0.531
	c0.744,0.318,1.062,0.106,1.275,0c0.426-0.213,0.744,0,0.957,0.106c0.531,0.318,1.169,0.318,1.275,0.318c1.488,0,2.87,0,4.358-0.425
	c0.744-0.319,1.595-0.319,2.444-0.425c0.744-0.106,1.488-0.319,1.914-1.063c0.531-0.957,1.382-1.382,2.338-1.701
	c1.701-0.638,3.402-1.382,5.209-2.126c1.382-0.531,1.488-1.169,1.595-1.487c0.425-0.851,1.062-1.595,2.126-2.021
	c0.531-0.212,0.851-0.744,1.275-1.062c0.957-0.957,1.913-1.913,2.977-2.87c0.957-0.851,2.126-0.425,2.445,0.851
	c0,0.106,0,0.212,0,0.318c0.318,1.275,0.531,2.552,0.85,3.827c0.957,3.827,2.552,6.696,2.87,7.547
	c0.426,0.957,0.851,2.02,1.382,2.977c0.851,1.595,1.382,3.295,2.658,4.677c2.02,2.339,3.826,4.784,6.271,6.591
	c1.594,1.17,2.338,2.87,3.082,3.401c0.744,0.532,1.276,0.106,1.17-0.425c0-0.319-0.213-0.744-0.106-1.062
	c0-0.426,0.638-0.639,1.913-0.213c0.638,0.213,1.382,0.425,1.808,0.956c0.212,0.213,0.638,1.063-0.426,1.063
	c-1.062,0-0.851,0.744-0.744,0.957c0.426,0.956,1.063,1.169,1.488,1.275c0.213,0.106,0.532-0.106,0.532-0.319
	c0.105-0.425,0-0.956,0.638-0.956s1.275,0.106,1.382,0.956c0,0.532-0.638,0.638-0.851,1.063c-0.106,0.106-0.213,0.531,0.638,0.638
	c0.957,0.106,1.913,0.318,2.657,1.062c0.213,0.213,0.531,0.213,0.744,0.319c1.808,0,3.508,1.062,5.421,0.638
	c0.426-0.106,0.957,0,1.383,0.213c0.85,0.531,1.487,0,2.02-0.426c0.212-0.105,0.425-0.105,0.638-0.105
	c1.062,0.318,2.02,0.638,2.977,0.85c0.956,0.213,1.487-0.212,1.7-0.318c1.17-0.531,2.339-0.213,3.614-0.213
	c0.744,0,1.382-0.213,2.02-0.744c0.319-0.213,0.851-0.318,1.276-0.425c0.531,0,1.062,0.106,1.594,0.106
	c0.851-0.106,1.701-0.106,2.445-0.426c0.318-0.106,1.7-0.744,2.126-0.744c1.062-0.212,2.02-0.638,2.977-1.169
	c1.594-0.851,3.401-1.169,4.783-2.232c0.213-0.213,1.275-0.957,2.339-1.275c0.85-0.213,1.7-0.638,2.551-0.744
	c1.275-0.319,2.445-0.957,3.295-1.913c0.744-0.744,1.488-1.383,2.339-1.808c0.531-0.213,0.957-0.638,1.275-1.062
	c2.021-2.021,4.358-3.721,6.804-5.209c0.531-0.319,1.062-0.425,1.382-0.851c2.02-1.807,4.464-2.87,6.803-4.252
	c0.851-0.531,1.808-0.851,2.339-1.701c0.213-0.212,0.318-1.062,0.957-1.487c1.594-1.063,2.976-2.445,4.89-3.189
	c1.595-0.638,2.87-1.595,4.039-2.87c2.02-2.444,4.465-4.252,6.804-6.378C720.071,362.483,720.708,360.888,719.433,361.633z
	 M650.02,312.735c0.212-0.319,0.638-0.426,0.85-0.744c0-0.106,0.213,0,0.213,0.106c0,0.425-0.531,0.85-0.851,0.956
	C650.02,313.053,649.913,312.947,650.02,312.735z M599.74,286.585c0.106,0,0.213,0.106,0.213,0.213s-0.106,0.213-0.213,0.213
	s-0.212-0.106-0.212-0.213C599.633,286.691,599.633,286.585,599.74,286.585z M593.681,285.416c0.106,0,0.213,0.106,0.213,0.213
	s-0.106,0.212-0.213,0.212s-0.213-0.105-0.213-0.212S593.574,285.416,593.681,285.416z M590.811,278.825
	c0.106,0,0.213,0.106,0.213,0.213s-0.106,0.213-0.213,0.213s-0.213-0.106-0.213-0.213S590.704,278.825,590.811,278.825z
	 M589.535,315.924c0.105,0,0.212,0.106,0.212,0.213s-0.105,0.213-0.212,0.213s-0.213-0.106-0.213-0.213
	S589.429,315.924,589.535,315.924z M525.756,319.751c-0.106,0-0.213-0.106-0.213-0.213s0.106-0.212,0.213-0.212
	c0.105,0,0.212,0.105,0.212,0.212S525.862,319.751,525.756,319.751z M526.287,307.845c-0.213,0-0.426-0.213-0.426-0.426
	c0-0.212,0.213-0.425,0.426-0.425c0.212,0,0.425,0.213,0.425,0.425C526.712,307.633,526.606,307.845,526.287,307.845z
	 M531.39,312.522c-0.213,0-0.319-0.106-0.319-0.319c0-0.212,0.106-0.318,0.319-0.318c0.212,0,0.318,0.106,0.318,0.318
	C531.708,312.416,531.602,312.522,531.39,312.522z M534.685,305.294c-0.106,0-0.213-0.106-0.213-0.213s0.106-0.212,0.213-0.212
	s0.213,0.105,0.213,0.212C534.791,305.187,534.791,305.294,534.685,305.294z M557.751,275.317c0.106,0,0.213,0.106,0.213,0.213
	s-0.106,0.213-0.213,0.213c-0.105,0-0.212-0.106-0.212-0.213S557.646,275.317,557.751,275.317z M556.157,282.652
	c0.212,0,0.425,0.213,0.425,0.425c0,0.213-0.213,0.426-0.425,0.426c-0.213,0-0.426-0.213-0.426-0.426
	C555.625,282.865,555.838,282.652,556.157,282.652z M554.031,279.676c0.105,0,0.212,0.106,0.212,0.213s-0.105,0.212-0.212,0.212
	s-0.213-0.105-0.213-0.212S553.925,279.676,554.031,279.676z M551.906,268.195c0.106,0,0.212,0.106,0.212,0.213
	s-0.105,0.213-0.212,0.213s-0.213-0.106-0.213-0.213S551.799,268.195,551.906,268.195z M550.948,278.081
	c0.106,0,0.106,0.106,0.106,0.106c0,0.106-0.106,0.106-0.106,0.106c-0.106,0-0.106-0.106-0.106-0.106
	C550.842,278.081,550.948,278.081,550.948,278.081z M550.311,277.762c0.106,0,0.213,0.106,0.213,0.212
	c0,0.106-0.106,0.213-0.213,0.213s-0.213-0.106-0.213-0.213C549.991,277.869,550.204,277.762,550.311,277.762z M550.311,278.507
	c0.213,0,0.318,0.212,0.318,0.318c0,0.213-0.212,0.319-0.318,0.319c-0.213,0-0.319-0.213-0.319-0.319
	C549.991,278.613,550.098,278.507,550.311,278.507z M550.736,282.97c0,0.106-0.106,0.319-0.212,0.319
	c-0.106,0-0.213-0.106-0.213-0.319c0-0.105,0.106-0.318,0.213-0.318C550.629,282.652,550.736,282.865,550.736,282.97z
	 M549.78,284.034c0.105,0,0.212,0.106,0.212,0.213c0,0.105-0.105,0.212-0.212,0.212s-0.213-0.106-0.213-0.212
	C549.567,284.034,549.673,284.034,549.78,284.034z M547.441,311.034c0.106,0,0.213,0.106,0.213,0.213s-0.106,0.213-0.213,0.213
	s-0.213-0.106-0.213-0.213S547.441,311.034,547.441,311.034z M543.933,280.313c0.106,0,0.213,0.106,0.213,0.213
	s-0.106,0.213-0.213,0.213s-0.213-0.106-0.213-0.213S543.826,280.313,543.933,280.313z M540.531,301.255
	c0.212,0,0.318,0.106,0.318,0.318c0,0.213-0.106,0.319-0.318,0.319c-0.213,0-0.319-0.106-0.319-0.319
	C540.212,301.361,540.425,301.255,540.531,301.255z M538.83,306.676c0.106,0,0.213,0.106,0.213,0.213s-0.106,0.213-0.213,0.213
	s-0.213-0.106-0.213-0.213S538.724,306.676,538.83,306.676z M558.283,307.739c-0.426,0.531-0.851,1.062-0.744,1.913
	c0,0.106,0,0.319-0.106,0.426c-0.638,0.956-0.744,2.02-1.382,2.976c-0.319,0.426-0.638,0.851-0.426,1.382c0,0.106,0,0.213,0,0.319
	c-0.425,0.957-0.638,2.02-1.062,2.977c-0.106,0.318-1.701,3.401-1.913,3.826c-5.74,10.843-9.248,15.521-11.48,17.54
	c-2.232,1.913-3.721,0.531-3.401-2.02c0.318-2.021,0.638-4.146,1.382-6.166c0.318-0.851,0.425-1.7,0.638-2.444
	c2.764-8.186,6.165-14.138,7.016-15.201c1.169-1.488,2.126-3.083,3.188-4.677c1.276-1.808,3.934-5.422,6.378-5.103
	c1.276,0.105,1.914,1.382,2.126,1.913C559.028,306.144,558.815,306.995,558.283,307.739z M561.578,277.018
	c0.106,0,0.213,0.106,0.213,0.213c0,0.105-0.106,0.212-0.213,0.212s-0.213-0.106-0.213-0.212
	C561.365,277.125,561.472,277.018,561.578,277.018z M560.728,277.443c-0.212,0-0.318-0.106-0.318-0.318
	c0-0.213,0.106-0.319,0.318-0.319c0.213,0,0.319,0.106,0.319,0.319C561.047,277.337,560.941,277.443,560.728,277.443z
	 M561.578,279.144c-0.318,0-0.531-0.213-0.531-0.531c0-0.319,0.213-0.532,0.531-0.532c0.319,0,0.531,0.213,0.531,0.532
	C562.11,278.931,561.791,279.144,561.578,279.144z M562.216,272.978c-0.106,0-0.213-0.105-0.213-0.212s0.106-0.213,0.213-0.213
	s0.213,0.106,0.213,0.213S562.323,272.978,562.216,272.978z M564.236,308.27c-0.106,0-0.212-0.106-0.212-0.213
	s0.105-0.212,0.212-0.212s0.213,0.105,0.213,0.212S564.342,308.27,564.236,308.27z M565.193,319.644
	c-0.106,0-0.213-0.106-0.213-0.213s0.106-0.212,0.213-0.212s0.213,0.106,0.213,0.212
	C565.512,319.538,565.406,319.644,565.193,319.644z M566.574,284.778c-0.106,0-0.213-0.106-0.213-0.213s0.106-0.213,0.213-0.213
	s0.213,0.106,0.213,0.213S566.681,284.778,566.574,284.778z M568.594,284.352c-0.106,0.106-0.213,0.213-0.425,0.319
	c-0.213,0.106-0.426,0.213-0.638,0.319c-0.213,0-0.532-0.106-0.319-0.426c0.319-0.318,0.638-0.638,1.275-0.638
	C568.807,283.927,568.7,284.14,568.594,284.352z M570.189,276.699c-0.213,0-0.425-0.212-0.425-0.425s0.212-0.426,0.425-0.426
	s0.425,0.213,0.425,0.426C570.614,276.593,570.402,276.699,570.189,276.699z M572.102,318.794c-0.212,0-0.318-0.106-0.318-0.318
	c0-0.213,0.106-0.319,0.318-0.319c0.213,0,0.319,0.106,0.319,0.319C572.421,318.687,572.208,318.794,572.102,318.794z
	 M577.842,288.073c-0.106,0-0.106-0.106-0.106-0.106l0.106-0.105c0.106,0,0.106,0.105,0.106,0.105L577.842,288.073z
	 M578.799,308.695c-0.106,0-0.213-0.212-0.319-0.425c0-0.319,0-0.531,0.106-0.531s0.213,0.212,0.319,0.425
	C579.011,308.377,578.906,308.695,578.799,308.695z M583.051,300.722c-0.426,0-0.638-0.212-0.957-0.425
	c-0.213-0.213-0.425-0.744-0.106-0.851c0.213-0.106,0.319-0.106,0.532-0.106c0.318,0,0.425,0.319,0.531,0.426
	c0.106,0.318,0.318,0.425,0.531,0.531C583.902,300.191,583.795,300.722,583.051,300.722z M586.346,277.125
	c-0.106,0-0.213-0.106-0.213-0.213s0.106-0.213,0.213-0.213s0.213,0.106,0.213,0.213S586.452,277.125,586.346,277.125z
	 M586.772,312.522c-0.106,0-0.213-0.106-0.213-0.213s0.106-0.212,0.213-0.212c0.105,0,0.212,0.105,0.212,0.212
	S586.877,312.522,586.772,312.522z M588.472,307.42c-0.106,0-0.213-0.106-0.213-0.212c0-0.106,0.106-0.213,0.213-0.213
	s0.213,0.106,0.213,0.213C588.685,307.313,588.578,307.42,588.472,307.42z M642.898,317.305c-0.106,0-0.213-0.106-0.213-0.212
	c0-0.106,0.106-0.213,0.213-0.213c0.105,0,0.212,0.106,0.212,0.213C643.11,317.199,643.003,317.305,642.898,317.305z
	 M643.003,311.778c-0.105,0-0.318-0.106-0.318-0.318c0-0.213,0.106-0.319,0.318-0.319c0.106,0,0.319,0.106,0.319,0.319
	C643.323,311.672,643.11,311.778,643.003,311.778z M644.491,295.514c-0.106,0-0.212-0.106-0.212-0.213s0.105-0.213,0.212-0.213
	s0.213,0.106,0.213,0.213S644.598,295.514,644.491,295.514z M645.024,322.408c-0.213,0-0.213-0.106-0.213-0.213
	c0-0.318-0.106-0.744,0.213-0.744c0.212,0,0.212,0.106,0.212,0.213c0,0.213-0.106,0.319-0.106,0.638L645.024,322.408z
	 M645.555,322.514c-0.213,0-0.319-0.106-0.319-0.319c0-0.212,0.106-0.318,0.319-0.318s0.318,0.106,0.318,0.318
	C645.873,322.408,645.768,322.514,645.555,322.514z M648.319,293.282c-0.106,0-0.213-0.106-0.213-0.213s0.106-0.212,0.213-0.212
	s0.213,0.105,0.213,0.212S648.531,293.282,648.319,293.282z M650.657,308.377c-0.106,0-0.213-0.106-0.213-0.213
	s0.106-0.213,0.213-0.213c0.105,0,0.212,0.106,0.212,0.213S650.764,308.377,650.657,308.377z M650.869,305.4
	c-0.212,0-0.425-0.213-0.425-0.426c0-0.212,0.213-0.425,0.425-0.425c0.213,0,0.426,0.213,0.426,0.425
	C651.295,305.187,651.082,305.4,650.869,305.4z M651.614,298.703c-0.212,0-0.318-0.106-0.318-0.318c0-0.213,0.106-0.319,0.318-0.319
	c0.213,0,0.319,0.106,0.319,0.319C651.933,298.596,651.826,298.703,651.614,298.703z M655.016,262.03
	c-0.213,0.851-0.639,1.275-1.595,1.382c-0.319,0-0.638-0.319-0.531-0.638c0.212-0.531,0.425-1.063,0.85-1.488
	C654.59,260.755,655.121,261.392,655.016,262.03z M654.59,256.077c0.531-0.106,1.063-0.212,1.488-0.318
	c0.426,0,0.744,0.212,0.638,0.638c0,0.318-0.318,0.638-0.638,0.744c-0.531,0.106-1.062,0.106-1.701-0.426
	C654.165,256.503,654.272,256.183,654.59,256.077z M651.614,253.207c0.213-0.425,0.744-0.318,1.17-0.106
	c0.425,0.319,0.956,0.532,1.382,0.851l0.106,0.106c0.105,0.319-0.213,0.744-0.532,0.638c-0.318,0-0.638-0.106-0.956-0.106
	c-0.213,0-0.532,0-0.851,0c-0.319,0-0.638-0.318-0.638-0.638C651.402,253.739,651.402,253.42,651.614,253.207z M650.869,244.172
	c0.106,0,0.319,0.106,0.319,0.319c0,0.212-0.106,0.318-0.319,0.318c-0.105,0-0.318-0.106-0.318-0.318
	C650.551,244.278,650.657,244.172,650.869,244.172z M649.381,244.916c0.106,0,0.213,0.106,0.213,0.213s-0.106,0.212-0.213,0.212
	c-0.105,0-0.212-0.105-0.212-0.212S649.169,244.916,649.381,244.916z M648.743,255.865c0.106,0.105,0.213,0.212,0.213,0.425
	c0.106,0.213-0.106,0.319-0.106,0.213c-0.213-0.106-0.318-0.213-0.318-0.319C648.425,255.865,648.743,255.865,648.743,255.865z
	 M646.83,258.096c0-0.105,0.213-0.105,0.213,0c0,0.106,0.106,0.319,0,0.426c0,0.106-0.106,0.213-0.213,0
	C646.83,258.522,646.83,258.309,646.83,258.096z M639.815,263.625c0.106,0,0.213,0.106,0.213,0.212c0,0.106-0.106,0.213-0.213,0.213
	s-0.213-0.106-0.213-0.213C639.708,263.731,639.708,263.625,639.815,263.625z M638.326,263.943c0.106-0.106,0.319-0.106,0.425-0.212
	c0.213,0,0.426,0.212,0,0.318c-0.105,0.106-0.318,0.106-0.425,0.106C638.22,264.262,638.114,264.05,638.326,263.943z M636.625,264.9
	c0.106,0,0.213,0.106,0.213,0.213c0,0.105-0.106,0.212-0.213,0.212c-0.105,0-0.212-0.106-0.212-0.212
	C636.307,265.007,636.413,264.9,636.625,264.9z M620.043,311.034c0.212-0.213,0.638-0.425,0.638,0.213
	c0,0.425-0.106,0.638-0.319,1.275c-0.106,0.319-0.425,0.319-0.638,0C619.512,311.885,619.724,311.46,620.043,311.034z
	 M618.555,308.908c0.106,0,0.106,0.106,0.106,0.106l-0.106,0.106l-0.106-0.106C618.448,309.014,618.448,308.908,618.555,308.908z
	 M617.28,316.881c0.212,0,0.318,0.106,0.425,0.106c0.319,0,0.425,0.212,0,0.212c-0.213,0-0.425,0.106-0.531-0.105
	C617.173,316.987,617.28,316.881,617.28,316.881z M617.917,329.636c-0.319,0.531-0.744,1.062-1.488,1.062
	c-1.382,0-1.169-1.169-0.957-1.487c0.319-0.639,0.851-0.957,1.488-1.17c0.319-0.106,0.744,0,0.957,0.213
	C618.129,328.679,618.236,329.105,617.917,329.636z M625.889,369.499c-0.105-0.744,0.106-1.488-0.425-2.232
	c-0.106-0.213-0.318-0.213-0.531-0.106c-0.426,0.106-0.744,0.319-1.169,0.426c-0.426,0.105-0.532-0.213-0.213-0.532
	c1.488-1.169,1.807-2.764,1.169-4.57c-0.318-0.851-0.318-1.808-0.425-2.764c-0.106-0.532,0-1.063,0.318-1.595
	c0.213-0.213,0.319-0.638,0.213-0.957c-0.106-0.851-0.426-1.595-0.531-2.444c-0.106-0.744,0-1.382,0-2.232
	c0-0.319,0.105-0.531,0.212-0.744c0.638-0.851,1.276-1.913,2.445-2.445c0.319-0.106,0.744,0,0.851,0.213
	c0.638,0.957,0.744,2.02,0.851,3.188c0,0.319,0.212,0.532,0.531,0.639c1.062,0.318,2.126,0.744,3.295,1.169
	c0.213,0.106,0.426,0.319,0.531,0.531c0.213,0.744,0.532,1.701,0.851,2.552c0,0.105,0.106,0.318,0.319,0.425
	c0.638,0.531,1.594,0.319,2.338,0.531c0.213,0.106,0.319,0.426,0.213,0.532c-0.213,0.212-0.531,0.531-0.744,0.638
	c-0.213,0.105-0.318,0.318-0.213,0.531c0,0.425,0,0.956,0,1.382c0,0.213-0.105,0.425-0.318,0.531
	c-0.638,0.213-1.063,0.531-0.851,1.382c0,0.213,0.213,0.319,0.426,0.213c0.425-0.106,0.744-0.213,1.169-0.319
	c0.638-0.105,1.062,0.319,1.062,0.957c-0.105,0.425-0.212,0.957-0.425,1.275c-0.213,0.213-0.638,0.213-1.063,0.319
	c-0.212,0-0.318,0.106-0.318,0.318c-0.531,2.126-0.744,2.445-2.02,2.658c-0.213,0-0.319-0.213-0.319-0.319
	c0.213-0.425,0.319-0.744,0.426-1.062c0.531-1.276,0.105-2.021-1.276-2.445c-0.425-0.106-0.85-0.319-1.275-0.425
	c-0.212-0.106-0.425,0-0.531,0.212c-0.106,0.213-0.213,0.426-0.213,0.638c-0.106,0.213-0.212,0.319-0.425,0.319
	c-0.851,0.106-1.063-0.744-1.701-1.169c-0.213-0.213-0.531-0.106-0.638,0.212c-0.318,0.638-0.425,1.275,0.426,1.808
	c0.318,0.212,0.638,0.744,0.744,1.062c0.425,1.063-0.106,2.232-1.276,2.657C626.74,370.561,625.995,370.136,625.889,369.499z
	 M631.204,321.664c0.213,0,0.319,0.106,0.319,0.319c0,0.212-0.106,0.318-0.319,0.318s-0.319-0.106-0.319-0.318
	C630.885,321.77,630.991,321.664,631.204,321.664z M630.885,317.943c0-0.105,0.106-0.105,0.106-0.105
	c0.106,0,0.106,0.105,0.106,0.105c0,0.106-0.106,0.106-0.106,0.106S630.885,318.05,630.885,317.943z M636.307,308.164
	c0-0.106,0.106-0.213,0.213-0.213c0.105,0,0.212,0.106,0.212,0.213s-0.106,0.213-0.212,0.213
	C636.413,308.377,636.307,308.27,636.307,308.164z M627.803,375.451c-0.319,0.106-0.638,0-0.851-0.425s-0.106-0.851,0.106-0.957
	c0.318-0.105,0.638,0,0.851,0.426C628.121,374.813,628.016,375.239,627.803,375.451z M637.369,376.195
	c-0.425,0.426-0.85,0.957-1.382,1.063c-0.425,0.106-0.851,0-1.275,0.106c-0.106,0.106-0.531,0.425-1.169,0.212
	c-0.638-0.212-1.17-0.531-1.701-0.743c-0.744-0.426-0.744-0.851-0.106-1.595c0.106-0.106,0.106-0.213,0.106-0.319
	c0.106-0.212-0.106-0.531-0.318-0.425c-0.319,0-0.532,0.106-0.638,0.213c-0.744,0.425-1.488-0.106-2.126-0.639
	c-0.639-0.425-1.17-0.956-1.17-1.807c0-0.425,0-1.063,0.638-1.063c0.319,0,0.638,0.213,0.851,0.532
	c0.106,0.106,0.213,0.318,0.319,0.531c0.105,0.213,0.318,0.319,0.531,0.319c0.318,0,0.638-0.106,0.957,0
	c1.062,0.212,1.913,0.105,2.87-0.639c0.638-0.531,1.275-0.531,2.02,0c0.425,0.319,0.956,0.639,1.488,0.957
	c0.318,0.106,0.425,0.425,0.318,0.744s-0.106,0.638-0.106,0.957c0,0.318,0.106,0.638,0.213,1.062
	C637.582,375.77,637.582,375.983,637.369,376.195z M637.582,310.503c-0.213,0.213-0.318,0.106-0.213-0.213
	c0.106-0.318,0.319-0.638,0.532-0.851c0.105,0,0.212,0,0.212,0.106C638.114,309.971,637.902,310.29,637.582,310.503z
	 M640.133,308.483c-0.212,0-0.318-0.106-0.318-0.319s0.106-0.318,0.318-0.318c0.213,0,0.319,0.105,0.319,0.318
	C640.559,308.377,640.346,308.483,640.133,308.483z M640.452,298.596c-0.319,0.319-0.851,0.426-1.169,0.639
	c-0.638,0.318-0.957,0.85-0.744,1.594c0.425,1.595-0.213,2.764-1.17,4.04c-1.382,1.7-2.444,3.721-3.613,5.634
	c-0.532,0.106-1.063,0.106-1.595,0.213c-0.106,0.212-0.319,0.531-0.319,0.744c0.106,2.02-0.957,3.508-2.551,4.783
	c-1.063,0.956-2.02,2.02-2.764,3.188c-0.213,0.213-0.532,0.532-0.638,0.851c-0.744,2.02-2.658,2.977-4.04,4.465
	c-0.318,0.318-0.85,0.531-1.275,0.213c-0.425-0.319-0.106-1.276,0.426-1.488c0.531-0.319,1.275-0.213,1.7-0.744
	c0.106-0.106,0.106-0.638-0.744-0.638s-1.807,0.105-2.657,0.318c-0.531,0.106-0.744,0.638-0.957,1.17
	c-0.531,1.487-0.638,1.594-2.126,2.02c-0.213,0.105-0.425-0.106-0.425-0.426c0.106-0.318,0.106-0.531,0.212-0.744
	c0.319-0.531,0.426-1.062,0.319-1.807s0-1.595,0.106-2.445c0.106-0.425,0.425-0.85,0.744-1.062c0.425-0.426,1.169-0.426,1.488,0.106
	c0.318,0.425,0.425,0.85,0.744,1.169c0.425,0.744,1.7,0.531,1.062-0.744c-0.638-1.595,0.531-3.295,0-4.89
	c-0.106-0.213,0.319-0.638,0.531-0.851c0.744-0.531,1.595-0.744,2.552-0.638c1.169,0.213,1.7-0.213,2.02-1.275
	c0.106-0.531,0.213-1.17,0.319-1.595c0-0.106,0-0.213-0.106-0.213c-0.426-0.318-0.744-0.105-0.851,0.213
	c-0.425,1.063-1.169,1.488-2.339,1.382c-0.106,0-0.212-0.106-0.318-0.213c-0.319-0.531-0.638-1.169-0.957-1.807
	c-0.106-0.106,0-0.319,0.106-0.425c0.318-0.213,0.638-0.426,1.062-0.639c0.213-0.105,0.213-0.425,0-0.531
	c-0.638-0.213-1.062-0.425-1.594-0.638c-0.106,0-0.213-0.213-0.106-0.318c0.425-0.851,1.275-0.745,2.126-1.063
	c0.106-0.106,0.212-0.213,0.106-0.426c-0.106-0.212-0.213-0.425-0.319-0.638c-0.213-0.425-0.425-0.85-0.425-1.275
	c0-0.425,0.105-0.957,0.318-1.275c0.851-1.063,0.213-2.87,1.595-3.721c1.275-0.744,1.595-2.02,1.488-3.295
	c-0.213-1.382,0.318-2.552,1.062-3.614c0.319-0.426,0.532-0.957,0.638-1.382c0.319-1.063,0.639-1.382,1.17-1.595
	s1.169-0.425,1.382-0.957c0-0.105,0.106-0.318,0.425-0.318c0.213,0,0.426,0,0.638,0.106c0.213,0.212,0.319,0.638,0.532,0.956
	c0.212,0.532,0.318,1.063,0.638,1.488c0.638,0.638,1.594,0.213,2.126,0c0.638-0.318,1.275-0.744,1.7-1.275
	c0.213-0.318,0.106-0.744-0.212-0.851c-0.426-0.212-0.851,0.106-1.383,0.213c-1.062,0.319-1.913,0-2.338-0.744
	c-0.106-0.213-0.213-0.531-0.213-0.851c0-0.212-0.213-0.425-0.425-0.318c-0.213,0.106-0.426,0.106-0.638,0.106
	c-1.063-0.213-1.383-0.851-0.851-1.808c0.531-0.851,1.062-1.701,1.7-2.551c0.106-0.213,0.319-0.319,0.532-0.426
	c0.212-0.106,0.531,0,0.531,0.213c0.106,0.957,0.213,1.807,0.318,2.657c0,0.319,0.426,0.319,0.532,0.106
	c0.212-0.425,0.212-0.957,0.425-1.169c0.319-0.319,0.744-0.532,1.169-0.851c0.106-0.106,0.213-0.213,0.213-0.319
	c0.106-0.956-1.275-0.85-1.275-1.7c0-0.638,0.531-0.744,0.957-1.063c0.212-0.106,0.318-0.425,0.212-0.638
	c0-0.213-0.106-0.531,0-0.744c0.106-0.531,0.213-1.062,0.426-1.488c0.425-0.638,0.956-1.169,1.488-1.807
	c0.212-0.213,0.425-0.319,0.744-0.319c0.212,0,0.531,0.106,0.744,0.106c0.212,0,0.425,0,0.638-0.213
	c0.85-0.638,0.956-1.594,1.062-2.444c0.106-0.638,0.531-1.169,1.063-1.382c0.531-0.213,1.169-0.213,1.807-0.213
	c0.213,0,0.426-0.106,0.531-0.318c0.319-0.426,0.638-0.957,1.063-1.383c0.318-0.318,0.638-0.638,0.425-1.169
	c-0.318-0.638-0.851-0.638-1.382-0.531c-0.744,0.213-1.382,0-2.02-0.426c-0.318-0.212-0.744-0.105-0.957,0.213
	c-0.531,0.957-1.062,1.808-1.488,2.764c-0.105,0.213-0.212,0.426-0.425,0.532c-0.319,0.212-1.488,0.318-0.957-1.063
	c0.319-0.744,0.851-1.488,1.17-2.232c0.212-0.425,0.531-0.744,0.744-1.169c0.425-0.851,0.956-1.382,1.913-1.488
	c1.062,0,1.701-0.744,2.445-1.275c0.212-0.213,0.638-0.532,0.638-0.851c0-1.063,0.638-1.488,1.487-1.701
	c0.532-0.212,1.063-0.425,1.063-1.062c0-0.744,0.531-1.17,1.063-1.595c0.318-0.213,0.85-0.319,1.169-0.213
	c0.213,0.106,0.425,0.106,0.531,0.213c0.744,0.319,0.531,1.063,0.319,1.275c-0.319,0.638-0.957,0.744-1.595,0.638
	c-0.744-0.105-0.957,0.426-1.169,0.638c-0.319,0.426-0.532,0.851-0.851,1.276c-0.213,0.212,0,0.638,0.318,0.638
	c0.319,0,0.532-0.106,0.851-0.319c0.319-0.318,0.531-0.851,0.957-1.062c0.318-0.213,0.851,0,0.851,0.425
	c0,0.213,0,0.957-0.851,1.488c-0.638,0.425-1.275,0.638-1.914,1.063c-0.425,0.212-0.85,0.531-1.275,0.85
	c-0.318,0.213-0.531,0.744-0.425,1.063c0.106,0.213,0.212,0.531,0.318,0.744c0.213,0.318,0.426,0.638,0.638,0.956
	c0.213,0.213,0.532,0.426,0.851,0.426c0.426,0,0.744,0,1.17-0.106c0.638-0.106,1.169-0.744,1.169-1.488
	c0-0.638,0.106-1.275,0.106-1.913c0-0.319,0.106-0.532,0.318-0.744c0.638-0.531,1.382-0.851,2.232-0.744
	c0.638,0.106,0.638,2.764-0.851,4.039c-0.531,0.426-0.85,0.957-0.744,1.701c0,0.212-0.212,0.425-0.425,0.638
	c-1.808,1.169-2.126,1.701-2.657,2.764c-0.532,0.957,0.212,2.126-1.063,2.87c-0.744,0.425-1.169,1.488-1.7,2.339
	c-0.106,0.212-0.106,0.531,0,0.638c0.212,0.318,0.425,0.531,0.638,0.851c0.318,0.318,0.318,0.744,0.105,1.169
	c-0.531,0.957-0.85,2.126-1.594,2.977c-0.213,0.318-0.106,0.744,0.318,0.744c0.426,0,0.638-0.106,0.957-0.213
	c1.275-0.531,2.444-1.275,3.508-2.232c0.638-0.531,0.957,0.106,0.531,0.638c-0.531,0.851-1.488,1.17-2.339,1.914
	c-1.275,1.169-2.657,2.338-2.764,4.252c0,0.212-0.212,0.638-0.531,0.744c-0.744,0.212-1.595,0.531-1.913,0.743
	c-0.319,0.213-0.213,0.744-0.531,0.426c-0.319-0.319-0.638-0.638-1.063-0.957c-0.106-0.106-0.318-0.106-0.425,0.106
	c-0.213,0.425-0.426,0.744-0.638,1.063c-0.319,0.318-0.639,0.531-1.063,0.744c-0.213,0.105-0.213,0.318,0,0.531
	c0.425,0.318,0.851,0.531,1.275,0.851c0.213,0.105,0.426,0.105,0.744,0.105c0.532-0.212,0.957-0.425,1.488-0.638
	c0.319-0.106,0.744,0,0.851,0.319c0.213,0.213,0.318,0.531,0.425,0.744c0.213,0.318,0.426,0.744,0.319,0.956
	C642.578,295.833,641.834,297.427,640.452,298.596z M648.637,277.443c0,0.106-0.105,0.319-0.318,0.319
	c-0.106,0-0.319-0.106-0.319-0.319c0-0.106,0.106-0.318,0.319-0.318S648.637,277.231,648.637,277.443z M646.406,277.869
	c0,0.105-0.106,0.105-0.106,0.105c-0.106,0-0.106-0.105-0.106-0.105c0-0.106,0.106-0.106,0.106-0.106
	C646.406,277.762,646.406,277.869,646.406,277.869z M640.559,291.9c0,0.106-0.106,0.213-0.213,0.213s-0.213-0.106-0.213-0.213
	s0.106-0.213,0.213-0.213C640.452,291.794,640.559,291.794,640.559,291.9z"/>
<path d="M659.586,346.431c-0.106-0.318-0.425-0.425-0.638,0.106s-0.319,1.063-0.531,1.595c-0.106,0.213,0.106,0.425,0.318,0.425
	C659.906,348.451,659.906,348.239,659.586,346.431z"/>
<circle cx="660.117" cy="343.668" r="0.212"/>
<path d="M661.074,338.247c-0.531,0.213-0.638,0.744-0.638,1.169c0.106,0.531,0.531,0.426,0.638,0.213
	c0.319-0.319,0.638-0.851,0.106-1.382C661.287,338.247,661.181,338.14,661.074,338.247z"/>
<circle cx="661.606" cy="336.333" r="0.319"/>
<circle cx="664.264" cy="326.766" r="0.106"/>
<circle cx="665.539" cy="322.196" r="0.425"/>
<circle cx="662.563" cy="332.294" r="0.425"/>
<path d="M492.377,354.086c-1.807,1.807-5.634,6.803-9.566,8.504c-1.063,0.425-2.232-0.213-2.445-1.276
	c-0.105-0.318-0.105-0.638-0.105-0.956c0.105-2.658,0.212-5.315,0.425-8.079c0-0.425,0.106-0.851,0.425-1.169
	c0.851-1.063,1.17-2.126,0.851-3.401c-0.106-0.319,0-0.532,0.106-0.851c0.638-1.275,0.531-2.552,0.318-3.934
	c-0.212-1.169,0-2.232,1.063-2.977c0.957-0.638,0.851-1.7,0.851-2.126c0-0.638-0.106-1.275-0.213-1.913
	c-0.425-1.488-0.531-2.764,0.531-4.039c0.426-0.531,0.426-0.638,0.426-0.957c0-0.744,0.106-1.488,0.318-2.232
	c0.319-0.956,1.063-1.807,1.063-2.764c0.106-1.382,0.531-2.444,1.062-3.721c0.213-0.425,0.319-1.275,0.319-1.7
	c-0.106-1.275-0.213-2.552-0.319-3.827c0-0.531-0.212-1.275,0.638-2.444c1.382-1.808,1.488-2.445,1.276-4.996
	c-0.106-0.957,0.106-2.339,0.318-3.296c0.638-2.764,0.425-5.634,0.744-8.504c0.213-2.551-0.638-4.89-0.956-7.44
	c-0.213-2.021-0.957-3.509-2.658-4.678c-0.638-0.425-1.169-0.957-1.807-1.275c-1.595-0.957-3.189-1.913-4.784-2.87
	c-2.551-1.488-10.735-5.209-17.433-11.799c-1.701-1.701-3.614-2.765-5.953-3.402c-0.85-0.212-1.807-0.318-2.232-0.956
	c-0.85-1.063-1.913-0.851-2.976-0.957c-0.638,0-1.276-0.213-1.914-0.319c-1.913-0.318-3.295-0.743-5.208-0.743
	c-0.851,0-2.552,0.425-3.614,2.551c-0.957,1.913-0.213,3.401,0.638,4.783c0.744,1.17,1.488,2.232,1.913,3.401
	c0.426,0.957,0.426,1.914,1.488,2.339c0.213,0.106,0.426,0.638,0.426,0.957c-0.106,1.275,0.531,2.338,1.169,3.401
	c0.531,0.851,6.696,9.886-1.382,23.386c-2.126,3.614-4.89,7.335-7.973,11.056s-6.378,7.334-9.992,10.842
	c-1.807,1.808-3.614,3.509-5.634,5.209c-0.957,0.851-2.02,1.701-2.977,2.552l-2.977,2.444c-4.039,3.295-8.291,6.165-12.543,8.93
	c-2.126,1.275-4.252,2.551-6.484,3.72c-2.125,1.17-4.357,2.126-6.59,3.083c-0.744,0.318-1.488,0.638-2.232,0.851
	c-0.319,0.106-0.638,0.212-1.063,0.318c-9.142,2.764-16.157,1.808-18.39,1.063c-10.948-3.614-9.354-16.796-6.696-23.812
	c1.7-4.57,4.252-4.89,7.229-3.614c4.57,2.021,9.248,1.701,10.735,1.701c1.595,0,3.083,0,4.358-1.062
	c0.851-0.639,1.063-0.639,1.808-0.532c0.638,0.106,1.169-0.106,1.275-0.212c0.744-0.532,1.488-1.063,2.339-1.276
	c1.382-0.318,1.807-0.531,2.126-0.85c1.062-0.851,2.126-1.808,3.082-2.765c0.744-0.638,1.276-1.275,1.276-2.338
	c0-0.851,0.531-1.382,1.062-1.808c1.275-0.956,2.126-2.232,2.977-3.614c0.531-0.744,1.169-1.062,1.382-1.169
	c1.169-0.744,1.913-1.913,3.082-2.764c1.595-1.169,3.296-2.445,3.934-4.465c0.318-0.957,1.275-2.657,1.701-3.083
	c1.382-1.275,1.594-2.126,1.7-2.551c0.213-0.531,0.319-0.957,0.531-1.382c0.532-0.957,1.382-1.701,2.126-2.552
	c0.957-1.062,1.382-2.338,1.488-3.72s0.319-2.658,0.851-3.934c0.425-0.956,0.744-2.232,0.744-3.295c0-1.17-0.106-2.339,0.319-3.508
	c0.105-0.319,0.212-0.744-0.213-1.488c-0.319-0.531-0.213-1.275,0.213-1.701c0.744-0.744,0.744-1.382,0.318-2.02
	c-0.425-0.531,0.106-1.275,0.426-1.807c0.318-0.638,0.425-1.276-0.426-2.126c-0.957-1.063-0.531-1.808-0.425-2.126
	c0.212-0.532,0.531-1.063,0.744-1.595c0.212-0.638,0-1.382-0.957-2.232c-0.638-0.531-1.275-0.957-2.02-1.488
	c-1.169-0.851-2.339-1.7-3.189-3.083c-0.638-0.956-1.382-1.913-2.231-2.764c-0.851-0.956-1.808-1.807-2.445-2.976
	c-1.382-2.232-3.189-4.04-5.315-5.528c-1.594-1.169-3.188-2.126-4.57-3.508c-0.744-0.851-1.807-1.062-3.083-0.851
	c-2.126,0.319-4.039,1.063-6.271,1.063c-0.851,0-1.7,0.531-2.444,0.957c-0.851,0.531-0.957,1.169-1.17,1.382
	c-0.425,0.531-1.169,0.638-1.7,1.062c-0.744,0.744-1.701,1.488-2.445,2.232c-1.062,1.169-2.126,2.339-3.614,3.295
	c-2.551,2.021-7.228,5.847-11.586,10.099c-0.638,0.638-3.296,2.552-9.036,1.275c-3.082-0.638-6.165-0.956-9.142-1.062
	c-2.551-0.106-5.103-0.213-7.653-0.319c-3.934-0.106-7.441-0.106-10.63,0.106c-3.401,0.106-6.697,0.319-9.886,0.638
	c-0.957,0.106-1.701-0.956-1.275-1.807c0.85-2.02,2.126-3.721,3.188-5.527c2.232-3.934,4.571-8.186,6.697-12.331l0,0
	c0,0,0.106-0.106,0.212-0.425c0.851-1.595,1.701-3.296,2.552-4.891c4.252-8.291,12.437-23.811,16.795-32.527
	c1.17-2.444,3.189-8.716,9.461-10.948c0,0,13.287-5.103,10.417-15.095c-3.082-10.63-15.307-9.779-21.578-3.401
	c-2.021,2.126-3.827,4.57-5.315,6.909c-2.551,4.039-5.634,7.122-14.882,8.717c-2.445,0.425-4.89,0.638-7.441,0.956
	c-9.354,1.276-18.814,2.232-28.169,3.402c-9.354,1.169-18.496,2.338-27.425,3.72c-24.13,3.827-74.091,14.457-93.438,29.445
	c-3.508,2.657-5.952,6.271-5.952,10.099c0,3.72,1.807,8.185,8.397,12.968c0.106,0.106,0.318,0.213,0.425,0.319
	c3.934,2.339,7.866,4.465,12.438,5.209c0.531,0.105,1.169,0.318,1.7,0.531c0.851,0.318,1.701,0.531,2.445,0.744
	c0.318,0,26.362,3.826,46.24-0.638c1.913-0.426,3.401-2.552,0.318-3.401c-1.488-0.426-2.87-0.851-4.358-1.17
	c-1.382-0.318-2.87-0.531-4.252-0.638c-2.231-0.106-4.57-0.213-6.803-0.851c-1.169-0.318-2.445-0.425-3.721-0.531
	c-2.232-0.213-4.57-0.213-6.803-0.425c-2.87-0.319-5.74-0.744-8.61-1.276c-4.358-0.85-8.291-2.764-12.012-5.527
	c-2.445-1.807-3.401-3.721-3.189-5.527c0-0.106,0-0.319,0-0.425c0-0.106,0-0.213,0.106-0.319c0-0.106,0-0.106,0.106-0.213
	c1.169-4.039,8.61-8.078,17.221-11.586c0.106-0.106,0.318-0.213,0.425-0.213c1.382-0.638,2.87-1.169,4.358-1.701
	c0.106,0,0.319-0.106,0.531-0.106c0.744-0.212,1.808-0.531,2.552-0.85c0.212-0.106,0.531-0.213,0.744-0.319
	c2.02-0.638,4.039-1.382,6.165-2.02c5.103-1.595,10.63-3.083,16.583-4.465c0.531-0.106,0.85-0.212,0.85-0.212l0,0
	c9.143-2.232,19.028-4.252,29.445-6.06c8.717-1.595,17.752-2.87,27-4.146c4.677-0.638,9.354-1.382,14.031-2.126
	c4.678-0.744,9.354-1.382,14.138-2.126c2.126-0.319,4.252-0.638,6.378-0.957c1.595-0.212,2.658,1.382,1.914,2.764
	c-1.808,2.977-3.934,6.591-4.146,6.91c-5.847,10.098-11.8,20.09-17.753,30.188c-1.275,2.126-2.444,4.252-3.508,6.484
	c-1.275,2.977-9.886,15.626-10.204,16.157c-0.638,1.063-2.764,3.189-7.016,4.146c-4.465,1.063-29.764,7.229-54.106,15.201
	l-1.275,0.213c-8.504,2.87-16.689,6.059-24.98,9.46c-2.445,0.957-4.89,2.021-7.229,2.977c-2.02,0.851-2.339,1.488-2.02,3.296
	l0.106,0.638c0.105,0.851,0.318,1.594,0.212,2.444c0,0.851,0.213,1.383,0.744,2.021c0.319,0.318,0.531,0.638,0.744,0.85
	c0.213,0.213,0.426,0.426,0.638,0.639c1.382,1.487,3.083,2.976,5.953,2.869c0.106,0,0.106,0,0.213,0
	c0.531,0,0.956,0.106,1.382,0.213c0.106,0,0.318,0.106,0.425,0.106c1.063,0.213,2.02,0.106,2.87-0.319
	c0.957-0.531,2.02-0.743,2.977-0.85h0.318c2.552-0.426,4.996-0.851,7.548-1.275c4.039-0.744,8.504-2.445,9.673-3.083l1.275-0.638
	c0.744-0.319,7.548-3.402,9.674-4.146c0.212-0.105,0.425-0.212,0.638-0.212c6.696-2.658,18.814-7.335,32.209-11.906
	c2.869-0.956,3.401,0,2.02,2.232l-18.178,25.618c-0.425,0.532-0.744,1.063-1.169,1.595c-0.319,0.426-4.465,5.209-4.996,7.016
	c-0.213,0.744-0.851,1.488-1.488,1.808c-1.382,0.638-2.126,1.913-3.083,2.87c-1.169,1.275-2.338,2.551-2.764,4.358
	c-0.318,1.275-1.169,2.444-2.551,2.976c-1.063,0.426-1.595,1.17-2.232,2.021c-2.126,2.444-4.252,4.996-6.591,7.228
	c-2.126,2.126-4.464,3.934-6.696,5.953c-2.126,1.913-4.04,4.039-6.271,5.847c-1.383,1.169-2.232,2.977-4.04,3.721
	c-1.488,0.638-2.551,1.913-3.295,3.188c-0.638,1.063-1.488,1.701-2.339,2.445s-1.913,1.275-2.657,2.126
	c-0.319,0.318-0.744,0.85-0.319,1.382c0.213,0.318,0.532,0.956-0.106,1.594c-0.425,0.426-0.956,0.851-1.062,1.383
	c0,0.318-0.106,1.275-1.063,2.02c-0.318,0.318-0.743,0.531-1.062,0.744c-0.531,0.318-2.126,0.744-2.126-1.17
	c0-0.425,0.106-0.851,0.106-1.169c0.106-0.425,0.318-0.744,0.531-1.063c0.425-0.744,0-1.062-0.638-0.638
	c-1.701,1.17-3.401,2.552-5.103,3.827c-0.851,0.638-0.106,1.275,0.106,1.488c0.531,0.425,0.106,1.488-0.106,1.807
	c-0.851,1.595-1.488,2.126-2.657,2.339c-0.426,0.106-1.063,0-0.744-0.851c0.425-1.062,0.638-2.339-2.232-0.531
	c-2.126,1.275-4.146,2.551-6.271,3.827c-1.701,0.956-3.508,1.7-5.209,2.551c-1.062,0.531-2.232,1.062-3.295,1.595
	c-2.02,0.851-3.934,1.594-5.953,2.551c-1.7,0.744-3.614,0.957-4.996,2.126c-0.318,0.213-1.7,0.957-2.02,1.169
	c-1.169,0.426-2.02,1.383-3.083,1.914c-0.425,0.212-1.062,0.106-1.487-0.106c-0.426-0.213-1.063-0.957-1.914-0.638
	c-1.062,0.318-1.488,1.488-2.232,2.126c-1.913,1.807-3.933,3.082-6.803,2.339c-1.913-0.426-3.933-0.319-5.634,0.85
	c-1.063,0.744-2.232,0.957-3.508,1.063c-2.126,0.106-4.146,0.425-6.165,0.638c-0.319,0-0.744,0.213-1.063,0.319
	c-2.551,1.062-5.315,0-7.973,0.531c-0.318,0.106-0.956,0.318-1.807,0c-0.957-0.426-2.02,0.106-3.083,0.106
	c-1.062,0.105-2.02,0.318-3.083,0.212c-2.02-0.106-4.039-0.318-6.059-0.318c-3.295,0-6.484-0.106-9.779-0.638
	c-0.957-0.213-1.808-0.319-2.764-0.213c-1.382,0.106-2.126,1.275-0.319,2.02c5.634,2.232,11.48,4.039,17.539,4.571
	c1.595,0.105,2.977,0.956,4.571,1.062c2.445,0.319,4.996,0.426,7.44,0.744c2.339,0.213,4.678-0.425,6.91,0
	c0.212,0,1.275,0,1.595-0.106c1.062-0.106,2.126,0.426,3.082,0.213c1.063-0.213,2.232-0.638,3.296-0.531
	c1.487,0.212,1.913-1.382,3.188-1.595c0.851-0.106,1.595-0.425,2.339-0.638c0.956-0.213,2.232,0,2.977-0.531
	c1.062-0.638,2.231,0.105,3.295-0.532c0.851-0.531,1.807-0.425,2.657,0.106c1.17,0.744,2.126,0.744,3.083-0.106
	c0.638-0.531,1.169-0.638,2.02-0.318c1.488,0.531,2.551,0.106,3.614-1.382c0.318-0.531,1.062-0.851,1.169,0.212
	c0,0.532-0.212,1.063,0.426,1.383c0.85,0.425,1.913-0.426,2.232-0.744c2.764-2.445,3.933-1.808,6.059-1.595
	c2.02,0.213,4.039,0.213,5.847-0.531c2.87-1.17,4.57-1.063,5.314-1.17c1.063-0.212,2.126-0.212,3.083-0.425
	c1.807-0.531,3.508-1.275,5.209-2.126c2.02-0.957,3.188-0.213,4.252-0.531c0.425-0.106,0.85-0.426,1.169-0.639
	c0.531-0.318,1.063-0.743,1.701-1.169c1.062-0.851,2.126-0.744,2.764-0.638c2.126,0.213,2.126-0.957,2.02-1.169
	c-0.426-1.701-0.319-2.232,0.851-2.87c1.062-0.638,2.02-1.276,3.508-0.744c0.425,0.106,0.851,0.106,1.275,0.106
	c0.744-0.106,1.062,0.318,1.275,0.531c0.319,0.531,1.275,0.744,1.488-0.426c0.106-0.638-0.213-2.02,1.169-2.976
	c1.914-1.276,4.04-2.445,6.06-3.614c0.531-0.319,1.062-0.426,1.595-0.213c0.212,0.106,0.638,0.531,0.105,1.062
	c-0.212,0.213-0.318,0.639,0.213,0.744c0.744,0.106,1.382-0.212,1.914-0.744c0.212-0.212,0.425-0.425,0.638-0.743
	c1.169-1.808,2.87-2.977,4.57-4.04c1.382-0.851,2.657-2.126,4.358-2.232c1.807-0.105,3.827-1.275,4.571-1.913
	c1.169-1.062,2.126-2.339,3.401-3.083s2.126-2.338,3.826-2.338c0.106,0,0.319-0.213,0.426-0.426c0.318-0.85,1.062-1.062,1.807-1.488
	c1.063-0.531,2.232-1.169,2.87-2.126c0.744-1.062,1.701-1.7,2.658-2.551c0.743-0.531,1.275-1.275,1.913-1.913
	c0.318-0.319,0.638-0.851,1.062-1.063c2.02-0.956,3.402-2.657,4.996-4.039c1.808-1.595,3.189-3.401,3.934-5.74
	c0.212-0.531,0.638-1.275,2.551-2.126c1.701-0.744,2.445-2.764,3.721-3.934c0.531-0.425,0.851-1.169,1.062-1.913
	c0.744-2.444,2.232-4.465,3.402-6.696c0.318-0.639,0.744-1.17,1.275-1.701c2.126-1.913,3.826-4.252,4.57-7.122
	c0.319-0.957,0.957-1.807,1.488-2.764c0.532-0.851,1.063-1.808,1.488-2.657c0.638-1.17,1.17-2.552,2.02-3.614
	c0.851-1.17,1.488-2.339,2.021-3.614c1.382-3.934,3.188-7.441,5.739-10.63c0.744-0.957,1.382-2.021,1.808-3.189
	c1.169-3.188,3.401-5.527,5.209-8.291l6.59-13.075c2.445-3.827,3.508-4.783,7.973-5.314l1.063-0.106
	c4.677-0.638,7.865-1.063,9.46-1.17c4.465-0.425,9.036-0.85,9.886-0.85c1.063-0.106,2.126-0.106,3.083-0.106
	c1.595-0.106,8.397-0.638,10.099-0.744c2.02-0.106,7.76-0.744,3.826,4.039c-4.252,5.209-9.566,12.225-13.5,18.39
	c-0.318,0.531-0.638,1.063-0.956,1.595c-0.426,0.744-0.851,1.382-1.275,2.126c-0.213,0.531-0.426,1.062-0.639,1.595
	c-0.105,0.318-0.212,0.744-0.425,0.956c-0.851,0.638-1.062,1.595-1.488,2.445c-0.531,1.169-1.062,2.339-1.488,3.614
	c-0.744,2.126-1.7,4.252-2.444,6.484c-0.638,1.701-1.17,3.508-1.701,5.209c-0.744,2.657-0.957,5.421-1.382,8.078
	c-0.319,1.595-0.319,3.189-0.213,4.783c0.106,1.276,0.319,2.552,0.532,3.827c0.105,0.213,0.212,0.319,0.531,0.319
	c0.213,0,0.318-0.106,0.213-0.319c-0.106-0.213,0.105-0.213,0.105-0.213s0.106,0,0.213,0.213c0.106,0.106,0.213,0.213,0.319,0.319
	c0.212,0.106,0.318,0.106,0.425,0.106c0.319,0,0.319,0.105-0.106,0.212c-0.213,0.106-0.213,0.319-0.106,0.319
	c0.106,0.106,0.213,0.212,0.319,0.212s0.213,0.106,0.213,0.319c0,0,0.105,0.425,0.105,0.531c0.106,0.532,0.319,0.957,0.639,1.488
	c0.212,0.319,0.531,0.213,0.425-0.106c0-0.212,0.106-0.212,0.106-0.212h0.106c0.105,0,0.212,0,0.212,0.106
	c0,0.105,0.106,0.212,0.213,0.318v0.106c-0.106,0-0.213,0.106-0.318,0.106c-0.106,0.106,0,0.425,0,0.425l0.105,0.319
	c0.106,0.212,0.213,0.318,0.319,0.106c0.106-0.106,0.213-0.213,0.318-0.426c0-0.106,0.106-0.106,0.213,0
	c0.638,0.638,1.063-0.212,1.701-0.106c0.106,0,0.106,0,0.106-0.106c0-0.105-0.106-0.212,0-0.318c0.105-0.106,0.105-0.106,0.212,0
	l0.213,0.744c0,0,0,0.213,0.213,0.106c0.106,0,0.106,0,0.212,0c0.213,0,0.319,0.318,0.319,0.318s0,0.213,0.213,0.106h0.106
	c0,0,0.105,0,0.212,0.213c0.106,1.062-0.744,0.638-1.488,0.531c-0.105,0-0.105-0.106-0.105-0.106c0-0.106,0-0.213,0-0.213
	c0-0.105,0-0.212-0.213-0.318s-0.319-0.213-0.531-0.213c-0.213,0-0.319,0.213-0.319,0.213l-0.106,0.213
	c-0.106,0.212-0.106-0.106-0.106-0.106s0-0.213-0.212-0.106c-1.063,0.744-2.445-0.531-3.721-0.425c-0.319,0-0.213,0.318-0.106,0.318
	c0.425,0.744,1.595,0.106,1.913,0.957c0,0.106,0,0.106-0.106,0.106c-0.212-0.106-0.425,0-0.638,0.105
	c-0.212,0.106-0.212,0.319-0.106,0.426c0.106,0.106,0.426,0.106,0.639,0.106c0.105,0,0.212,0.106,0,0.212
	c-0.106,0-0.213,0.106-0.213,0.319s0.106,0.319,0.318,0.319c0.213-0.106,0.426,0.105,0.639,0.212
	c0.318,0.213,0.105,0.426-0.106,0.532c-0.106,0-0.213,0-0.319,0.105c-0.213,0-0.106,0.213-0.106,0.213s0.106,0.213-0.106,0.106
	c0,0-0.105,0-0.212-0.106c-0.106,0-0.213,0.106-0.106,0.425c0,0.106,0.213,0.426,0.213,0.532c0.531,1.169,1.169,2.657,1.382,2.977
	c0.425,0.638,0.85,1.275,1.275,2.02c0,0.105,0.213,0.212,0.318,0c0-0.106,0.106-0.106,0.106-0.106
	c0.213-0.213,0.319,0.106,0.106,0.106c0,0-0.213,0-0.106,0.318c0.106,0.426,0.319,1.063,0.744,1.063c0.106,0,0,0,0,0
	s-0.106,0.106,0,0.212c0.106,0.106,0.213,0.213,0.319,0.426c0.106,0.106,0.106,0.106,0.106,0.106l0,0
	c0,0.106,0.105,0.318,0.212,0.318c0.426,0.531,0.744,0.957,1.17,1.382c0.106,0.106,0.212,0.106,0.212,0
	c0.106,0,0.106-0.106,0.213-0.106c0,0,0.106,0.106,0.106,0.213l-0.106,0.106c0,0-0.106,0.106,0.106,0.319
	c0.106,0.105,0.213,0,0.213-0.106s0.105,0,0.105,0c0,0.106,0,0.318,0.106,0.425c0.213,0.106,0.638,0.425,0.744,0.425
	c0.213,0.106,0.213,0,0.106-0.105c0-0.106,0.213-0.106,0.213-0.106c0.425,0,0.851-0.213,1.275-0.319
	c0.638-0.213,0.426,0.744,0.426,0.744s0,0.638,0.531,0.531c0.318-0.105,0.638-0.318,0.851-0.212c0.105,0,0.105,0.318-0.106,0.318
	c-0.426,0-0.957-0.212-1.063,0.531c0,0,0,0.319,0.638,0.213c0.213,0,0.319,0.106,0.213,0.213s-0.213,0.106-0.213,0.318
	c0.106,0.851,1.063,0.639,1.488,0.851c0.106,0.106,0.426,0.426,0.531,0.531l0,0c0,0,0.106,0,0.106,0.106l0.213,0.106
	c0.106,0,0.213,0.106,0.319,0.106c0.531-0.106,0.638-0.744,0.956-1.062c0.213-0.319,0.426-0.106,0.213,0.105
	c-0.213,0.213-0.213,0.319-0.319,0.532c0,0.212,0,0.744,0.957,0.956c0.425,0.106,0.851,0.213,1.063,0.319
	c0.425,0.213,0.425,0,0.638-0.213c0.318-0.318,0.638,0.213,0.638,0.213s0.638,0.531,1.275,0.638
	c4.89,1.062,9.566,1.488,13.819,1.275c0.425,0,0.85,0,1.169,0c4.677-0.106,9.461-0.956,14.138-2.339
	c4.677-1.487,9.354-3.295,13.925-5.527c2.552-1.275,5.103-2.764,7.653-4.252c0.106-0.106,0.319-0.318,0.426-0.425
	c0.212-0.319,0.531-0.106,0.851-0.319c1.487-0.85,2.976-1.807,4.464-2.87c2.232-1.488,4.358-2.976,6.591-4.464
	c2.126-1.595,4.358-3.083,6.378-4.784c2.126-1.594,4.252-3.295,6.271-4.89c2.02-1.7,4.146-3.401,6.166-5.103
	c4.039-3.401,7.865-6.909,11.374-10.63c3.508-3.614,6.803-7.44,9.566-11.268c4.252-5.847,7.547-11.905,9.461-15.839
	c0.851-1.807,3.295-4.89,10.63-1.275c1.595,0.744,2.977,1.701,4.252,2.977c1.807,1.701,2.126,3.614,1.807,5.74
	c-0.425,2.977-1.275,5.847-2.764,8.504c-0.425,0.638-0.638,1.382-0.744,2.126c-0.106,1.382-0.213,2.764-1.169,3.827
	c-0.851,1.062-0.638,1.275-0.851,2.02c-0.213,0.851-0.744,1.488-1.062,2.339c-0.319,0.638-0.744,1.275-0.957,2.02
	c-0.319,1.275-1.063,2.338-1.808,3.401c-1.382,2.02-2.444,4.146-3.401,6.271c-1.062,2.339-1.7,4.89-3.508,6.804
	c-0.318,0.318-0.531,0.743-0.744,1.169c-1.169,1.913-1.488,4.358-3.401,5.847c-0.213,0.105-0.213,0.531-0.319,0.744
	c-0.212,0.638-0.425,1.275-0.744,1.807c-0.85,1.488-2.02,2.87-2.126,4.783c0,0.319-0.425,0.638-0.638,0.957
	c-0.318,0.425-0.638,0.957-0.744,1.488c-0.638,1.595-1.169,3.083-1.7,4.677c-0.426,1.063-1.063,2.126-0.744,3.401
	c0.106,0.213-0.106,0.532-0.213,0.744c-0.425,0.532-0.531,1.17-0.531,1.808c0,0.744-0.213,1.488-0.319,2.126
	c-0.106,0.531-0.212,1.169-0.106,1.595c0.213,0.956,0.639,1.913,0.532,2.87c0,0.212,0.212,1.169,0.212,1.382
	c0.213,0.638,0.106,1.382,0.106,2.02c0.213,2.02,1.17,3.826,2.552,5.421c1.382,1.488,3.188,2.232,5.102,2.764
	c0.532,0.106,0.851-0.212,0.957-0.425c0.106-0.425,0.638-0.106,0.319,0.318c0,0-0.319,0.319,0.212,0.532
	c0.319,0.106,0.532,0.212,0.851,0.318c0.319,0.106,0.744,0.106,0.957-0.106c0.851-0.531,1.595-0.425,2.339-0.318
	c1.487,0.213,2.02-0.638,2.338-0.957c0.319-0.425,0.638-0.531,0.957-0.531c0.425,0,0.638-0.213,0.851-0.319
	c0.318-0.212,0.531-0.318,0.85-0.531c0.319-0.106,0.213-0.425,0.106-0.531l-0.106-0.106c0,0-0.105-0.213,0-0.106
	c0.106,0,0.106,0,0.106,0.106c0.106,0,0.106,0,0.213,0c0.106-0.531,1.063,0.106,0.957-0.744c-0.106-0.213-0.213-0.213-0.426-0.213
	c-0.212,0,0-0.212,0-0.212l0.638-0.532c0,0,0.213-0.212,0-0.425c-0.212-0.213-0.425-0.318-0.638-0.318
	c-0.106,0-0.106-0.106-0.106-0.213s0-0.106,0-0.213c0-0.318-0.105-0.531-0.425-0.318c-0.106,0.105-0.213,0.105-0.319,0.105
	c0-0.105,0-0.212,0.106-0.318c0.213-0.213,0.106-0.319,0.106-0.319s-0.106-0.212,0-0.318s0.319-0.106,0.531,0
	c0,0,0.213,0.106,0.213,0c0.106-0.106,0.213-0.106,0.319-0.106c0.212,0,0.106,0.213,0.318,0.425
	c0.426,0.426,1.275,0.851,1.595,0.319c0-0.106,0.106-0.213,0.319-0.213c0.105,0,0.212,0,0.318,0.106v0.319
	c0,0-0.106,0.212,0.106,0.318s0.531,0,0.744-0.213c0.425-0.318,0.531-0.531,0.638-0.638s0-0.106,0-0.106
	c-0.213,0-0.106-0.212-0.106-0.212c0.106-0.106,0.213,0,0.213,0s0.106,0.212,0.425,0.106c0.851-0.639,1.488-1.488,2.339-2.126
	c2.551-1.914,4.571-4.358,6.697-6.804c5.102-6.059,8.504-11.692,8.929-12.756C493.865,353.66,493.547,352.916,492.377,354.086z
	 M404.043,254.483c0.531,0.425,0,0.956-0.426,0.531C403.512,254.589,403.83,254.377,404.043,254.483z M402.98,253.313
	c0.532,0.106-0.106,0.851-0.531,0.426C402.236,253.526,402.768,253.207,402.98,253.313z M381.72,255.759
	c0.213-0.319,0.532-0.106,0.319,0.425C381.933,256.503,381.295,256.29,381.72,255.759z M379.7,260.755
	c0.426,0,0.532,0.318,0.532,0.638c0,0.425-0.851,0.531-0.957-0.106C379.169,261.073,379.382,260.755,379.7,260.755z
	 M372.791,306.676c0.425-2.339,1.063-4.571,1.807-6.909c0.744-2.126,2.232-5.209,2.87-6.378c1.063-2.02,2.445-3.721,3.296-5.847
	c0.744-1.807,2.02-3.295,3.082-4.89c0.532-0.851,1.17-1.701,1.808-2.445c1.488-1.807,2.977-3.508,4.783-4.89
	c2.552-1.913,4.465-2.126,5.315-1.7c0.85,0.425,1.594,2.231,0.85,5.634c-0.425,2.338-1.594,5.314-4.039,9.46
	c-0.744,1.17-2.02,3.508-2.977,4.89c-0.956,1.276-2.02,2.021-2.444,2.445c-0.426,0.531-0.531,1.169-0.851,1.807
	c-0.744,1.488-1.807,2.658-2.977,3.721c-0.425,0.426-1.062,0.744-1.275,1.17c-0.851,2.02-2.764,3.082-4.358,4.358
	c-0.425,0.318-1.062,1.169-2.02,1.7C373.96,309.439,372.26,309.439,372.791,306.676z M329.208,337.503
	c-0.105,0-0.105-0.106-0.105-0.106c0-0.106,0.105-0.106,0.212-0.106s0.106,0.106,0.106,0.106
	C329.315,337.503,329.315,337.503,329.208,337.503z M335.268,337.821c0,0-0.106,0-0.106-0.105c0-0.106,0-0.213,0-0.213
	s0.106,0,0.106,0.106C335.268,337.821,335.268,337.821,335.268,337.821z M335.693,339.735c-0.106,0-0.212-0.106-0.212-0.213
	s0.105-0.213,0.212-0.213s0.213,0.106,0.213,0.213C335.799,339.735,335.693,339.735,335.693,339.735z M332.611,345.369
	c0-0.106,0-0.213,0.105-0.319c0,0,0.106-0.106,0.106,0s0,0.106,0,0.213S332.716,345.369,332.611,345.369z M332.929,348.77
	c-0.106,0-0.106,0-0.106-0.106s0-0.106,0.106-0.213c0.106,0,0.106,0,0.106,0.106C332.929,348.664,332.929,348.77,332.929,348.77z
	 M336.437,349.834c-0.106,0-0.106,0-0.106-0.106s0-0.106,0.106-0.106s0.106,0,0.106,0.106S336.543,349.834,336.437,349.834z
	 M337.712,353.873c0-0.106,0-0.106,0-0.213C337.925,353.553,337.925,353.979,337.712,353.873z M340.264,355.468
	c-0.106,0-0.106-0.106-0.106-0.106c0-0.106,0.106-0.106,0.106-0.106c0.106,0,0.106,0.106,0.106,0.106
	S340.264,355.361,340.264,355.468z M340.582,331.975c0-0.106,0.106-0.106,0.106-0.106c0.106,0,0.106,0.106,0.106,0.106l-0.106,0.106
	C340.689,332.187,340.582,332.082,340.582,331.975z M340.795,337.396c-0.106,0-0.106,0-0.106-0.106s0-0.106,0.106-0.106
	s0.106,0,0.106,0.106S340.902,337.396,340.795,337.396z M342.177,334.526c-0.106,0-0.106-0.106-0.106-0.106
	c0-0.106,0.106-0.106,0.106-0.106l0.106,0.106L342.177,334.526z M343.559,342.286c0-0.425-0.213-0.531-0.425-0.638
	c0-0.106,0-0.213,0-0.318c0.638,0.105,1.062,0.425,1.275,0.956C344.197,342.286,343.985,342.499,343.559,342.286z M346.004,349.302
	C345.898,349.302,345.898,349.302,346.004,349.302c-0.106-0.212-0.106-0.212,0-0.212S346.111,349.195,346.004,349.302
	C346.111,349.302,346.004,349.302,346.004,349.302z M346.748,337.609c-0.106,0-0.213-0.106-0.213-0.319c0-0.212,0-0.318,0.106-0.318
	s0.213,0.106,0.213,0.318C346.855,337.503,346.855,337.609,346.748,337.609z M349.724,356.849c-0.105,0-0.212-0.106-0.212-0.213
	s0.106-0.213,0.212-0.213c0.106,0,0.213,0.106,0.213,0.213S349.83,356.849,349.724,356.849z M351.531,361.845
	c-0.319-0.319,0.425-0.213,0.425-0.532C352.169,361.42,351.744,361.739,351.531,361.845z M351.85,352.065
	c-0.105,0.106-0.212,0.213-0.425,0.213c-0.318,0-0.425-0.213-0.425-0.213c0-0.105,0.106-0.105,0.212-0.105
	c0.213,0,0.426-0.213,0.639-0.213C351.956,351.64,352.169,351.853,351.85,352.065z M352.382,352.065c-0.106,0-0.106,0-0.106-0.105
	c0-0.106,0-0.106,0.106-0.106s0.106,0,0.106,0.106C352.489,352.065,352.489,352.065,352.382,352.065z M354.295,359.294
	c-0.106,0-0.106-0.106-0.106-0.106l0.106-0.105c0.106,0,0.106,0.105,0.106,0.105S354.402,359.294,354.295,359.294z M354.933,356.743
	c-0.106,0-0.106-0.106-0.106-0.106c0-0.106,0.106-0.106,0.106-0.106l0.106,0.106C355.146,356.636,355.039,356.743,354.933,356.743z
	 M357.059,357.912c-0.106,0-0.106-0.106-0.106-0.106l0.106-0.106c0.106,0,0.106,0.106,0.106,0.106S357.165,357.912,357.059,357.912z
	 M358.441,353.766c-0.212,0-0.318-0.106-0.318-0.319c0-0.212,0.106-0.318,0.318-0.318c0.213,0,0.319,0.106,0.319,0.318
	C358.76,353.66,358.654,353.766,358.441,353.766z M359.504,355.573c-0.106,0-0.106,0-0.106-0.105c0-0.106,0-0.106,0.106-0.106
	s0.106,0,0.106,0.106C359.611,355.573,359.611,355.573,359.504,355.573z M360.035,362.483c-0.106,0-0.106-0.106-0.106-0.106
	l0.106-0.106l0.106,0.106C360.142,362.377,360.142,362.483,360.035,362.483z M361.098,356.53v-0.106c0-0.106,0.106-0.106,0.106,0
	c0,0,0,0.106,0,0.213S361.098,356.849,361.098,356.53z M361.311,356.317c0-0.105,0.106-0.212,0.213-0.212s0.213,0.106,0.213,0.212
	c0,0.106-0.106,0.213-0.213,0.213S361.311,356.424,361.311,356.317z M361.63,356.956c-0.213-0.106-0.106-0.319,0.212-0.106
	C361.948,356.849,361.948,356.956,361.63,356.956z M361.842,353.979c-0.105,0-0.105,0-0.105-0.106s0-0.106,0.105-0.106
	c0.106,0,0.106,0,0.106,0.106S361.842,353.979,361.842,353.979z M362.268,353.235L362.268,353.235c-0.106-0.106,0-0.213,0-0.213
	C362.374,353.129,362.374,353.129,362.268,353.235C362.374,353.235,362.374,353.235,362.268,353.235z M365.456,355.892
	c-0.106,0-0.106-0.106-0.106-0.106c0-0.106,0.106-0.106,0.106-0.106l0.106,0.106C365.669,355.786,365.563,355.892,365.456,355.892z
	 M365.776,358.125C365.669,358.125,365.669,358.125,365.776,358.125c-0.106-0.106,0-0.213,0-0.213S365.882,358.018,365.776,358.125
	C365.882,358.125,365.776,358.125,365.776,358.125z M370.452,364.29c-0.106,0-0.106,0-0.106-0.106s0-0.106,0.106-0.106
	s0.106,0,0.106,0.106C370.559,364.183,370.559,364.29,370.452,364.29z M376.299,360.038L376.299,360.038
	c-0.106-0.106,0-0.213,0-0.213S376.406,359.931,376.299,360.038C376.406,360.038,376.406,360.038,376.299,360.038z M379.276,359.187
	c-0.106,0-0.213-0.105-0.213-0.212s0-0.213,0.106-0.213s0.213,0.106,0.213,0.213S379.382,359.187,379.276,359.187z M380.233,356.424
	c-0.106,0-0.106-0.106-0.106-0.106l0.106-0.105c0.105,0,0.105,0.105,0.105,0.105S380.338,356.424,380.233,356.424z M380.657,358.55
	c-0.106,0-0.213-0.106-0.213-0.318c0-0.213,0-0.319,0.106-0.319s0.213,0.106,0.213,0.319
	C380.764,358.338,380.657,358.55,380.657,358.55z M389.799,353.873c-0.106,0-0.106-0.106-0.106-0.106
	c0-0.106,0.106-0.106,0.106-0.106l0.106,0.106C389.906,353.766,389.906,353.873,389.799,353.873z M391.181,353.129
	C391.181,353.129,391.074,353.022,391.181,353.129c-0.106-0.106-0.106-0.213,0-0.213S391.287,352.916,391.181,353.129
	C391.287,353.022,391.287,353.129,391.181,353.129z M392.031,353.66C391.925,353.66,391.925,353.66,392.031,353.66
	c-0.106-0.106-0.106-0.213,0-0.213C392.031,353.447,392.031,353.553,392.031,353.66L392.031,353.66z M397.346,352.597
	c-0.106,0-0.106-0.106-0.106-0.106l0.106-0.106l0.106,0.106C397.452,352.491,397.452,352.597,397.346,352.597z M398.197,348.239
	c-0.106,0-0.106,0-0.106-0.106s0-0.106,0.106-0.106s0.106,0,0.106,0.106S398.303,348.239,398.197,348.239z M403.617,348.664
	c-0.105,0-0.105-0.106-0.105-0.106l0.105-0.106l0.106,0.106C403.724,348.557,403.724,348.664,403.617,348.664z M453.685,373.007
	C453.578,373.007,453.578,373.007,453.685,373.007c-0.106,0.106-0.213,0.106-0.319,0c-0.105-0.106-0.105-0.106,0-0.213
	c0.106-0.106,0.106-0.106,0.213,0l0.106,0.106h0.106v0.106C453.685,373.007,453.685,373.007,453.685,373.007z M456.661,373.751
	c-0.106,0-0.106-0.106-0.106-0.106l0.106-0.106l0.106,0.106L456.661,373.751z"/>
</svg>
