<?xml version="1.0" encoding="utf-8"?>
<!-- Generator: Adobe Illustrator 16.0.0, SVG Export Plug-In . SVG Version: 6.00 Build 0)  -->
<!DOCTYPE svg PUBLIC "-//W3C//DTD SVG 1.1//EN" "http://www.w3.org/Graphics/SVG/1.1/DTD/svg11.dtd">
<svg version="1.1" id="Layer_1" xmlns="http://www.w3.org/2000/svg" xmlns:xlink="http://www.w3.org/1999/xlink" x="0px" y="0px"
	 width="604.822px" height="318.353px" viewBox="122.507 148.215 604.822 318.353"
	 enable-background="new 122.507 148.215 604.822 318.353" xml:space="preserve">
<path fill="#B39346" d="M635.396,216.852c0.312-0.062,0.376-0.291,0.563-0.437c0.082-0.125,0.104-0.562-0.293-0.376
	c-0.187,0.146-0.27,0.271-0.333,0.501C635.251,216.665,635.187,216.894,635.396,216.852z"/>
<path fill="#B39346" d="M636.296,242.473c0.209-0.042,0.375-0.292,0.438-0.522c0.104-0.562,0.209-1.125,0.125-1.542
	c-0.104-0.521-0.417-0.459-0.834-0.375c-0.209,0.041-0.396,0.188-0.354,0.396c0,0.542,0.001,1.083,0.021,1.729
	C635.69,242.16,636.066,242.411,636.296,242.473z"/>
<path fill="#B39346" d="M636.335,225.336c0.835-0.167,1.001-0.417,1.042-1.291c0.062-0.23-0.207-0.501-0.5-0.335
	c-0.501,0.208-0.855,0.605-0.979,1.063C635.731,225.025,636.023,225.399,636.335,225.336z"/>
<path fill="#B39346" d="M635.147,229.694c0.396-0.188,0.646-0.563,0.917-1.377c0.355-0.938-0.646-1.062-1.042-0.875
	c-0.292,0.167-0.542,0.543-0.812,0.814c-0.188,0.145-0.334,0.5-0.396,0.729C633.98,229.819,634.731,229.777,635.147,229.694z"/>
<path fill="#B39346" d="M640.95,314.498c0.604-0.771,0.521-1.188-0.396-1.981c-0.123-0.083-0.332-0.041-0.29,0.167
	c0.104,0.521,0.104,1.062,0.25,1.792C640.533,314.582,640.868,314.623,640.95,314.498z"/>
<circle fill="#B39346" cx="637.782" cy="312.747" r="0.319"/>
<path fill="#B39346" d="M635.4,248.831c-0.897,0.396-1.564,0.854-2.252,1.209c-0.103,0.021-0.166,0.251-0.04,0.333
	c0.144,0.188,0.291,0.375,0.312,0.479c-0.229,1.563-0.479,3.023-1.292,4.378c-0.729,1.229-0.896,2.564-1.021,4.107
	c0.042,0.209,0.166,0.291,0.374,0.25c0.396-0.188,0.438-0.522,0.48-0.855c0.083-0.668,0.02-1.521,0.479-1.939
	c0.668-0.458,1.002-0.959,1.063-1.188c0.626-1.208,1.479-2.355,1.229-3.606c-0.125-1.167,0.062-1.854,0.896-2.564
	c0.104-0.021,0.062-0.229,0.021-0.438C635.65,248.998,635.608,248.789,635.4,248.831z"/>
<path fill="#B39346" d="M625.041,274.536c0.021,0.104,0.042,0.21,0.042,0.21c0.354,0.146,0.813,0.271,1.168,0.417
	c0,0,0.166-0.251,0.248-0.376c-0.353-0.146-0.603-0.312-0.937-0.354C625.458,274.453,625.249,274.495,625.041,274.536z"/>
<path fill="#B39346" d="M630.29,235.762c0.188-0.146,0.377-0.293,0.459-0.418c0.333-0.5,0.542-1.083,0.896-1.479
	c0.458-0.418,1.584-0.752,1.709-1.211c0.062-0.229-0.084-0.416-0.291-0.375c-0.543,0.001-1.042,0.209-1.543,0.418
	c-0.397,0.186-0.668,0.457-0.918,0.834c-0.416,0.625-0.75,1.125-0.958,1.709C629.498,235.593,629.728,236.198,630.29,235.762z"/>
<path fill="#B39346" d="M626.039,257.86c-0.021-0.104-0.332-0.041-0.54,0c-0.104,0.021-0.189,0.146-0.168,0.251
	c0.041,0.209,0.104,0.52,0.146,0.729c0.021,0.104,0.125,0.084,0.23,0.062C625.978,258.63,626.478,258.421,626.039,257.86z"/>
<path fill="#B39346" d="M625.477,257.755c0.188-0.146,0.355-0.396,0.542-0.542c0.167-0.25-0.209-0.5-0.354-0.146
	C625.457,257.11,625.415,257.442,625.477,257.755C625.373,257.777,625.373,257.777,625.477,257.755z"/>
<path fill="#B39346" d="M626.978,253.878c-0.333-0.042-0.542,0-0.834,0.167c-0.479,0.312-0.125,1,0.479,0.771
	c0.208-0.042,0.396-0.187,0.585-0.333C627.374,254.232,627.311,253.918,626.978,253.878z"/>
<path fill="#B39346" d="M665.32,302.467c-0.46,0.961-0.418,1.168,0.084,2.044c0.021,0.104,0.251,0.167,0.312-0.062
	c0.187-0.688,0.25-0.917-0.085-2.044C665.611,302.3,665.383,302.238,665.32,302.467z"/>
<path fill="#B39346" d="M622.914,259.028c-0.125-0.084-0.229-0.062-0.312,0.062c-0.208,0.582-0.418,1.166-0.793,2.001
	c-0.082,0.125,0.042,0.209,0.146,0.188c0.479-0.312,0.771-0.479,1.062-0.646c0.292-0.166,0.835-0.167,0.938-0.729
	c-0.021-0.104-0.042-0.209-0.146-0.188C623.641,259.422,623.288,259.277,622.914,259.028z"/>
<path fill="#B39346" d="M628.604,264.175c-0.021-0.104-0.124-0.083-0.208,0.041c-0.333,0.503-0.792,0.918-1.209,1.543l-0.082,0.125
	c0.062,0.312,0.104,0.521,0.229,0.604c0.25,0.167,0.542,0.542,0.854,0.479c0.438,0.021,0.688-0.354,0.5-0.75
	c-0.354-0.688,0.312-1.146,0.293-1.793C628.98,264.425,628.75,264.364,628.604,264.175z"/>
<path fill="#B39346" d="M626.122,247.436c-0.188,0.146-0.291,0.166-0.479,0.312c-0.104,0.021,0.021,0.104,0.041,0.209
	c0.312-0.062,0.417-0.084,0.479-0.313C626.248,247.52,626.206,247.31,626.122,247.436z"/>
<circle fill="#B39346" cx="635.072" cy="316.542" r="0.213"/>
<circle fill="#B39346" cx="638.991" cy="314.999" r="0.213"/>
<circle fill="#B39346" cx="634.698" cy="313.583" r="0.425"/>
<circle fill="#B39346" cx="633.926" cy="310.269" r="0.319"/>
<circle fill="#B39346" cx="623.811" cy="274.349" r="0.532"/>
<circle fill="#B39346" cx="624.728" cy="276.225" r="0.425"/>
<circle fill="#B39346" cx="623.455" cy="251.981" r="0.319"/>
<circle fill="#B39346" cx="629.334" cy="249.937" r="0.212"/>
<circle fill="#B39346" cx="633.439" cy="236.865" r="0.212"/>
<circle fill="#B39346" cx="635.836" cy="234.76" r="0.319"/>
<ellipse transform="matrix(-0.1966 -0.9805 0.9805 -0.1966 503.9521 912.1185)" fill="#B39346" cx="625.684" cy="249.583" rx="0.214" ry="0.426"/>
<path fill="#B39346" d="M726.652,299.085c-0.459,0.416-0.918,0.834-1.271,1.23c-0.188,0.145-0.542,0.542-0.751,1.125
	c-0.187,0.688-1.146,0.771-1.813,1.23c-2.126,1.293-3.961,2.961-5.92,4.545c-4.481,3.607-8.942,7.319-14.133,10.092
	c-1.085,0.542-2.044,1.167-3.147,1.605c-2.084,0.959-4.128,2.127-6.066,3.273c-0.293,0.167-0.459,0.417-0.751,0.585
	c-0.291,0.165-0.625,0.666-1.605,0.646c-0.438-0.021-0.875-0.042-1.501,0.083c-1.229,0.354-2.188,0.98-2.98,1.898
	c-0.438,0.521-0.874,1.041-1.542,0.959c-1.46-0.251-2.773,0.229-4.004,0.584c-1.125,0.333-2.396,0.479-3.521-0.271
	c-1.605-0.979-3.232-2.063-4.691-3.397c-2.147-2.063-2.92-4.836-3.879-7.462c-0.708-1.918-1.021-4.023-1.521-5.984
	c-0.062-0.311-0.188-0.938-0.772-0.604c-0.792,0.376-0.875,0.501-0.771,1.023c0.334,1.668,0.271,3.522,1.439,5.023
	c0.313,0.479,0.562,1.188,0.584,1.834c0.188,2.022,1.25,3.545,1.939,5.357c0.208,0.502,0.521,0.979,0.667,1.169
	c0.605,0.853,0.584,1.833,0.46,2.833c-0.021,0.439-0.438,1.605-1.772,1.439c-0.562-0.105-1.043-0.334-1.646-0.647
	c-0.96-0.458-2.044-1-3.002-1.459l0,0c-0.355-0.146-0.919-0.25-0.562,0.438c0.021,0.104,0.041,0.208,0.165,0.292
	c0.021,0.104,0.125,0.625-0.501,0.75c-0.104,0.021-0.207,0.042-0.312,0.062c-0.542,0.001-0.501-0.333-0.355-0.688
	c0.23-0.479,0.459-0.958,0.605-1.313c0.25-0.917-0.854-1.563-0.834-2.543c0.021-0.438-0.125-0.625-0.312-0.479
	c-0.502,0.207-0.584,0.875-0.563,0.979c-0.042,0.334,0,0.543-0.042,0.876c0.021,0.646-0.312,1.689-1.021,1.398
	c-0.583-0.209-0.271-1.357-0.209-1.586c0.291-1.251,0.146-2.521-0.606-3.564c-0.312-0.479-0.27-0.813-0.188-0.938
	c0.125-0.459,0.334-1.042,0.543-1.626c0.062-0.229,0.02-0.438-0.229-0.604c-0.5-0.335-1-0.669-1.605-0.979
	c-0.124-0.084-0.145-0.188-0.062-0.313c0.646-1.104,0.479-1.938-0.229-2.772c-0.585-0.75-1.001-1.751-2.085-1.751
	c-0.104,0.021-0.542,0-0.521,0.647c-0.021,0.437-0.063,0.771-0.312,1.145c-0.396,0.729-0.792,1.459-1.439,2.022
	c-0.625,0.667-1.709,0.125-1.793-0.834c-0.188-0.938-0.042-1.834,0.688-2.521c0.729-0.688,1.188-1.647,1.543-2.586
	c0.208-0.583,0.646-1.105,0.958-1.709c0.146-0.354,0.292-0.709,0.521-1.188c0.062-0.229,0-0.542-0.146-0.73
	c-0.521-0.438-0.938-0.895-1.438-1.229c-0.146-0.188-0.459-0.126-0.646,0.021c-0.376,0.291-0.646,0.562-1.021,0.854
	c-0.084,0.125-0.272,0.271-0.377,0.292c-0.5,0.208-2.604-0.562-3.23-0.979c-0.627-0.417-0.71-1.376,0.354-1.479
	c0.958-0.085,2.064,0.02,3.023-0.063c0.959-0.084,1.501-0.626,1.521-1.605c-0.062-0.854-0.146-1.814-0.333-2.752
	s-0.5-1.961-0.168-3.003c0.354-0.938,0.375-1.918-0.146-2.897c-0.186-0.396-0.083-0.959,0.063-1.312
	c0.626-1.21,0.459-2.044-0.584-2.919c-0.521-0.437-0.751-1.043-0.668-1.71c0.084-0.668,0.73-0.688,1.23-0.896
	c0.896-0.396,0.896-1.48,0.042-1.96c-0.376-0.25-0.729-0.396-1.084-0.542c-0.229-0.062-0.396-0.354-0.334-0.583
	c0.041-0.334,0.104-0.562,0.166-0.792c0.229-0.479,0.562-0.981,0.793-1.46c0.416-1.167,0.04-1.96-1.148-2.48
	c-0.604-0.312-0.834-0.916-0.75-1.583c0.332-1.043,0.938-1.272,1.792-0.794c0.375,0.251,0.667,0.625,1.313,0.605
	c0.209-0.042,0.396-0.188,0.355-0.396c0.104-0.563,0.124-1.001,0.228-1.563c0.084-0.124-0.062-0.312-0.104-0.521
	c-0.146-0.188-0.166-0.292-0.292-0.377c-0.854-0.479-1.251-1.375-1.334-2.334c-0.084-0.959,0.853-1.146,1.167-1.75
	c0,0,0.083-0.125,0.062-0.23c0.062-0.229-0.104-0.521-0.438-0.562c-0.23-0.062-0.583-0.209-0.812-0.271s-0.438-0.021-0.647,0.021
	c-0.792,0.375-0.959,1.167-1.626,1.626c-0.291,0.166-0.646,0.021-0.604-0.312c-0.063-0.855-0.104-1.605-0.021-2.272
	c0.062-0.771,0.479-1.396,1.167-1.75c0.709-0.251,0.938,0.353,1.417,0.584c0.125,0.082,0.229,0.062,0.334,0.04
	c0.102-0.021,0.291-0.166,0.27-0.271c0.021-0.438,0.021-0.98,0.291-1.252c0.251-0.374,0.73-0.687,1.105-0.979
	c0.082-0.123,0.166-0.25,0.124-0.458c-0.979-1.646-1.209-1.709-2.605-1.647c-0.979-0.021-1.876,0.376-2.627,0.96l0,0l0,0
	c-0.187,0.146-0.375,0.291-0.542,0.543c-0.354,0.395-0.709,0.792-1.229,1.438c-0.082,0.124-0.312,0.062-0.333-0.042
	c-0.104-0.521-0.167-0.833,0.021-0.979c0.521-0.646,1.292-1.126,1.584-1.835c0.687-1.438,2.002-1.917,3.252-2.167
	c0.312-0.062,0.541-0.001,0.792,0.165c0.125,0.083,0.271,0.271,0.291,0.377c0.271,0.27,0.459,0.666,0.794,0.708
	c0.354,0.146,0.791,0.167,1.083,0c0.188-0.145,0.312-0.604,0.354-0.938c-0.021-0.104-0.042-0.209,0.04-0.334
	c-0.021-0.104-0.062-0.313-0.187-0.396c-1.022-0.771-2.127-1.419-3.065-2.314c-0.251-0.166-0.479-0.771-0.291-0.917
	c0.146-0.354,0.729-0.687,1.042-0.749c0.438,0.019,0.813,0.271,1.293,0.499c0.25,0.166,0.542-0.001,0.584-0.334
	c0.104-0.562,0.229-1.022,0.354-1.48c0.062-0.229-0.001-0.542-0.229-0.604c-0.25-0.167-0.373-0.251-0.625-0.418
	c-0.25-0.166-0.312-0.479-0.25-0.709c0.418-1.166,0.833-2.334,1.334-3.627c0.062-0.229,0.104-0.562-0.041-0.75
	c-0.292-0.375-0.605-0.855-0.918-1.335c-0.166-0.29-0.125-0.625,0.166-0.791c0.98-0.521,0.688-1.438,0.521-2.272
	c-0.062-0.312-0.438-0.563-0.751-0.501c-0.938,0.188-0.729-0.395-0.646-0.521c0.563-0.98,0.667-2.085,1.481-2.897
	c0.813-0.814,1.209-2.087,1.791-3.503c0.229-0.479,0.229-1.022,0.041-1.418c-0.312-1.021-0.75-2.126-1.188-3.23
	c-0.188-0.397-0.543-1.085,0.333-2.127c1.042-1.293,1.771-2.523,1.625-4.337c-0.063-0.855,0.208-1.668-0.001-2.71
	c-0.27-0.813-0.146-1.814,0-2.709c0.125-0.46,0.375-0.834,0.627-1.21c0.27-0.271,0.291-0.709,0.103-1.104
	c-0.729-1.481-1.042-3.044-0.521-4.774c0.688-1.98,1.272-3.94,1.271-6.108c0.042-0.333,0.188-0.688,0.334-1.042
	c0.376-0.834,0.75-1.667,1.125-2.502c0.062-0.229,0.126-0.458-0.021-0.646c-0.188-0.396-0.376-0.792-0.438-1.105
	c-0.083-0.417,0.104-1.104,0.417-1.166c0.979-0.521,1.48-1.272,1.918-2.335c0.146-0.354,0.168-0.792-0.021-1.188
	c-0.376-0.794-0.668-1.71,0.229-2.648c0.271-0.271,0.229-1.021,0.124-1.542c0-0.542-0.229-1.146,0.126-1.543
	c0.709-0.792,0.521-1.73,0.458-2.584c-0.042-0.751,0.146-1.439,0.438-2.148c0.291-0.71,0.812-1.354,0.896-1.48
	c0.813-2.438-1.729-3.772-0.75-5.92c0.354-0.396,0.771-0.479,1.167-0.667c0.312-0.062,0.479-0.313,0.521-0.646
	c0.188-1.229,0.604-2.396,0.562-3.689c-0.062-1.397,0.25-2.543,1.252-3.503c0.895-0.938,0.958-2.252,0.583-3.043
	c-1.022-1.856-0.376-2.961,1.062-3.898c0,0,0,0,0.105-0.021c0.167-0.249,0.104-0.562-0.043-0.75c-0.124-0.082-0.25-0.166-0.271-0.27
	c-0.25-0.168-0.291-0.376-0.249-0.709c0.083-1.209,0.27-2.439,1.292-3.295c0.458-0.416,0.479-1.396,0.562-2.063
	c0.104-0.562-0.104-1.062-0.104-1.605c0.021-0.438,0.126-1.001,0.147-1.438c0.062-0.229-0.083-0.417-0.312-0.479
	c-0.771-0.062-0.585-0.75-0.584-1.292c0.041-0.334-0.229-0.604-0.458-0.668c-0.918-0.25-1.835-0.5-2.732-0.646
	c-1.688-0.312-3.376-0.625-5.17-0.916c-1.125-0.208-2.252-0.417-3.48-0.604c-0.23-0.062-0.418,0.084-0.585,0.334
	c-0.146,0.354-0.187,0.688-0.604,0.771c-1.021,0.312-1.542,0.959-2.043,1.71c-1.23,1.979-2.479,3.856-3.709,5.836
	c-0.876,1.586-1.731,3.273-2.586,4.962c-0.854,1.689-1.918,3.421-2.521,5.274c-0.626,1.753-1.751,3.17-2.271,4.899
	c-0.792,2.544-2.396,4.815-3.314,7.276c-0.958,2.793-2.354,5.564-3.439,8.274c-0.292,0.71-0.666,1.543-0.958,2.254
	c-0.062,0.229,0,0.54,0.146,0.729c0.125,0.083,0.271,0.271,0.292,0.376c0.271,0.27,0.125,0.625-0.166,0.792
	c-0.291,0.166-0.583,0.334-0.896,0.396c-0.188,0.144-0.375,0.291-0.438,0.521c-0.707,1.877-1.542,3.669-2.146,5.524
	c-1.251,3.501-2.752,6.838-3.544,10.465c-0.271,1.355-0.666,2.627-1.272,3.94c-0.687,1.438-1.229,3.064-1.332,4.711
	c-0.104,1.104-0.354,2.023-0.688,3.064c-0.292,0.709-0.584,1.417-0.75,2.21c-0.354,1.48-0.563,3.148-1.021,4.649
	c-0.709,2.417-1.063,4.982-2.229,7.274c-0.23,0.479-0.335,1.042-0.438,1.605c-0.543,2.71-0.981,5.4-1.418,8.089
	c-0.146,0.896-0.729,1.772-0.438,2.689c0.042,0.208,0.001,0.542-0.165,0.792c-1.147,1.312-1.043,2.919-0.96,4.419
	c0,1.085-0.687,1.982-0.376,3.003c0.021,0.104,0.209,0.501-0.081,1.209c-0.209,0.584-0.397,1.271-0.502,1.834
	c-0.187,2.856-0.603,5.65-1.146,8.36c-0.021,0.438,0.062,0.855,0.146,1.272c0.041,0.208,0.125,0.625-0.104,1.104
	c-0.5,0.751,0,1.627-0.271,2.438c-0.375,1.376-0.438,2.69-0.271,4.066c0.271,1.354-0.208,2.752-0.062,4.023
	c0.041,0.208-0.021,0.438,0.021,0.647c0.021,0.104,0.125,0.083,0.146,0.188c0.021,0.103,0.021,0.103,0.062,0.312
	c0.605,0.855,0.23,1.688-0.146,2.523c-0.229,0.479-0.46,0.958-0.792,1.459c-0.229,0.479,0,1.082,0.479,1.313
	c0.229,0.062,0.354,0.146,0.584,0.206c0.229,0.063,0.792,0.71-0.146,1.44c-0.188,0.145-0.5,0.207-0.813,0.27
	c-0.104,0.021-0.291,0.167-0.249,0.376c0.604,2.48,0.417,4.793,0.23,7.108c-0.042,0.334-0.188,0.688-0.46,0.96
	c-0.625,0.666-1.355,1.354-1.729,2.189c-0.646,1.646-1.709,2.835-2.752,4.128c-0.792,0.917-1.104,2.064-1.771,3.065
	c-0.688,0.896-2.022,1.271-2.564,2.355c-1.168,2.294-3.897,4.898-5.065,5.566c-1.752,1.002-3.211,0.751-4.295-0.874
	c-0.479-0.772-0.666-1.71-0.625-2.585c0.042-0.877,0.166-1.878-0.729-2.564c-0.251-0.166-0.459-0.667-0.312-1.021
	c0.312-1.146,0.104-2.188-0.335-3.293c-0.458-1.208-0.313-2.105-0.167-2.46c0.521-1.188,0.188-2.314-0.688-3.439
	c-0.416-0.458-0.396-0.896-0.521-1.522c-0.146-1.271-0.292-2.543-0.459-3.919c-0.084-0.959,0.187-1.772,0.5-2.377
	c0.249-0.374,0.25-0.918,0.021-1.521c-0.668-2.253-1.147-4.648-0.542-7.048c0.186-0.688,0.166-1.333,0.021-2.063
	c-0.355-1.229-0.188-2.022-0.042-2.377c0.584-1.417,0.646-2.731,0.249-4.169c-0.292-0.918-0.396-1.981,0.041-3.045
	c0.146-0.354,0.063-0.771,0.001-1.083c-0.375-1.335-0.854-2.647-0.563-3.898c0.188-0.688,0.166-1.878,0.23-2.106
	c-0.021-1.188,0.291-2.334,0.832-3.418c0.46-0.961,0.813-1.896,0.709-2.962c-0.168-2.458-0.126-4.961,0.353-7.442
	c0.126-0.458,0.042-0.877,0.042-1.417c0.001-1.084-0.396-1.981-1.188-2.689c-0.917-0.792-1.834-1.584-2.731-2.273
	c-0.271-0.269-0.938-0.895-1.146-1.396c-0.562-1.188-1.959-1.126-3.189-1.312c-0.897-0.145-1.732-0.521-2.543-0.791
	c-0.584-0.209-1.46-0.792-2.628-0.125c-0.584,0.332-1.125,0.876-1.73,1.104c-1.48,0.729-3.106,1.272-4.253,2.585
	c-0.438,0.521-1.188,0.563-1.793,0.25c-0.604-0.312-1.104-0.646-1.521-1.104c-0.854-1.021-1.605-2.062-2.356-3.105
	c-0.604-0.854-1.354-1.354-2.397-1.688c-1.501-0.459-3.002-0.917-4.482-1.271c-0.584-0.208-1.272-0.396-1.688-0.854
	c-0.647-0.521-1.294-0.5-2.065-0.562c-1.104-0.104-2.168,0-3.335,0.125c-2.23,0.229-4.379,0.877-6.608,0.023
	c-0.354-0.147-0.979-0.022-1.271,0.146c-0.792,0.376-1.583,0.75-2.229,1.313c-0.271,0.272-0.209,0.584-0.188,0.688
	c0.021,0.104,0.084,0.417-0.354,0.395c-0.104,0.021-0.543,0.002-0.813,0.271c-0.168,0.251-0.251,0.376-0.417,0.627
	c-3.564,6.565-7.149,13.029-10.339,19.847c-1.75,3.71-3.126,7.671-4.751,11.468c-1.292,3.293-2.48,6.565-3.543,9.922
	c-1.292,4.378-3.022,8.736-4.314,13.114c-1.271,4.481-2.292,9.131-3.334,13.676c-0.313,1.146-0.396,2.355-0.709,3.503
	c-1.438,5.816-1.959,11.883-2.938,17.823c-0.041,0.333-0.209,1.668,0.021,2.815c0.208,1.041-0.23,2.105-0.333,3.211
	c-0.376,3.543-0.229,6.983,2.292,9.839c0.146,0.188,0.335,0.583,0.48,0.772c0.021,0.104,0.062,0.312,0.188,0.396
	c0.164,0.291,0.373,0.249,0.479,0.228c0.104-0.021,0.104-0.021,0.229,0.062s0.709,0.292,0.834,0.375
	c0.395,0.355,0.667,0.626,0.667,1.166c0.021,0.104,0.062,0.313,0.292,0.376c0.354,0.146,0.271,0.271,0.542,0.543
	c0.146,0.188,0.562,0.104,0.897,0.145c0.124,0.083,0.271,0.271,0.373,0.251c0.231,0.062,0.294,0.374,0.627,0.416
	c0.207-0.041,0.416-0.083,0.625-0.125c0.23,0.062,0.354,0.146,0.396,0.355c0.062,0.312,0.585,0.207,0.585,0.207
	c0.541-0.001,1.229-0.354,1.979-0.396c0.542-0.001,0.604,0.312,1.146,0.311c0.334,0.042,0.583-0.332,1.147-0.229
	c0.102-0.021,0.437,0.021,0.771,0.064c0.332,0.041,1.562,0.228,1.917,0.374c0.458,0.125,0.376,0.25,0.939,0.354
	c0.438,0.021,0.854-0.062,1.291-0.041c1.648,0.104,3.231-0.104,4.524-0.688c0.979-0.521,2.022-0.188,2.354-0.146
	c0.438,0.021,0.877,0.042,1.169-0.125c1.312-0.48,2.585-1.169,3.48-2.106c0.979-1.063,2.147-1.729,3.335-2.294
	c0.772-0.479,1.669-0.876,2.189-1.521c1.188-1.648,2.251-3.378,3.314-5.108c0.333-0.5,0.5-1.292,0.291-1.793
	c-0.291-0.917,0-1.625,0.521-2.272c0.501-0.75,0.98-1.605,1.607-2.272c0.626-0.667,0.811-1.354,0.749-2.21
	c-0.042-0.75,0.146-1.438,0.438-2.147c0.604-1.314,0.979-2.689,1.333-4.17c0.229-1.022,0.646-2.189,1.584-2.919
	c0.751-0.584,1.335-1.46,2.398-1.022c0.833,0.376,0.812,1.355,0.876,2.211c0.042,0.75-0.021,1.521,0.313,2.105
	c0.333,0.584,0.437,1.105,0.354,1.772c-0.292,1.793,0.229,5.482,0.896,7.191c0.188,0.397,0.459,0.667,0.751,1.044
	c0.562,0.646,0.5,1.417,0.688,1.813c0.376,0.792,1.126,1.292,1.897,1.896c0.646,0.521,1.584,0.875,1.688,1.938
	c0.064,0.854,0.501,0.875,0.73,0.937c1.082,0.001,1.312,1.689,2.418,1.793c0.333,0.041,0.855,0.479,0.938,0.896
	c0.271,0.814,0.792,1.251,1.501,1.543c0.938,0.354,1.814,0.937,2.837,1.167c3.293,0.751,6.523,0.646,9.776-0.438
	c1.938-0.605,3.772-1.189,5.629-0.585c0.792,0.165,1.062-0.104,1.25-0.25c0.376-0.293,0.729-0.146,0.959-0.085
	c0.583,0.208,1.209,0.083,1.312,0.062c1.459-0.292,2.814-0.563,4.19-1.271c0.667-0.459,1.501-0.626,2.312-0.896
	c0.709-0.25,1.396-0.604,1.668-1.418c0.333-1.043,1.084-1.626,1.959-2.127c1.543-0.959,3.064-2.022,4.69-3.106
	c1.252-0.792,1.23-1.438,1.273-1.771c0.249-0.919,0.728-1.773,1.688-2.399c0.479-0.312,0.688-0.896,1.041-1.291
	c0.751-1.126,1.501-2.251,2.357-3.398c0.771-1.023,2.001-0.834,2.563,0.354c0.021,0.104,0.041,0.208,0.062,0.312
	c0.562,1.188,1.021,2.398,1.585,3.586c1.688,3.564,3.815,6.064,4.295,6.837c0.605,0.855,1.23,1.813,1.939,2.648
	c1.146,1.396,2.001,2.959,3.523,4.063c2.439,1.898,4.689,3.941,7.442,5.233c1.792,0.835,2.855,2.355,3.689,2.729
	c0.834,0.376,1.272-0.146,1.063-0.646c-0.062-0.313-0.354-0.688-0.312-1.021c-0.084-0.418,0.5-0.752,1.833-0.585
	c0.668,0.085,1.439,0.146,1.961,0.583c0.25,0.168,0.834,0.917-0.209,1.126c-1.042,0.209-0.689,0.896-0.542,1.085
	c0.605,0.854,1.271,0.938,1.709,0.957c0.23,0.062,0.501-0.207,0.459-0.416c0.021-0.438-0.188-0.938,0.438-1.062
	c0.626-0.126,1.271-0.147,1.543,0.666c0.104,0.521-0.501,0.75-0.627,1.209c-0.082,0.125-0.104,0.562,0.752,0.501
	c0.958-0.084,1.938-0.064,2.812,0.52c0.251,0.167,0.562,0.104,0.793,0.167c1.773-0.354,3.647,0.353,5.44-0.438
	c0.397-0.187,0.938-0.188,1.397-0.062c0.938,0.354,1.459-0.292,1.897-0.813c0.188-0.146,0.396-0.188,0.604-0.229
	c1.104,0.104,2.107,0.229,3.087,0.249c0.979,0.021,1.416-0.499,1.604-0.646c1.043-0.75,2.252-0.667,3.502-0.918
	c0.729-0.146,1.313-0.479,1.835-1.126c0.271-0.271,0.771-0.478,1.167-0.666c0.521-0.104,1.062-0.104,1.585-0.209
	c0.812-0.271,1.647-0.438,2.312-0.898c0.292-0.165,1.521-1.062,1.939-1.146c1-0.417,1.855-1.022,2.69-1.731
	c1.396-1.146,3.104-1.813,4.252-3.127c0.167-0.25,1.062-1.188,2.043-1.709c0.791-0.376,1.542-0.959,2.355-1.23
	c1.188-0.562,2.21-1.418,2.855-2.521c0.584-0.875,1.188-1.648,1.938-2.232c0.479-0.312,0.813-0.812,1.042-1.291
	c1.585-2.379,3.543-4.504,5.649-6.442c0.459-0.417,0.959-0.626,1.188-1.106c1.627-2.168,3.813-3.69,5.837-5.504
	c0.729-0.688,1.605-1.188,1.96-2.127c0.167-0.25,0.103-1.104,0.646-1.646c1.354-1.355,2.438-2.981,4.169-4.087
	c1.438-0.938,2.501-2.127,3.397-3.606c1.501-2.792,3.544-5.046,5.42-7.589C727.444,299.793,727.756,298.105,726.652,299.085z
	 M648.994,264.757c0.146-0.354,0.542-0.543,0.687-0.896c-0.021-0.104,0.209-0.042,0.23,0.062c0.083,0.417-0.354,0.938-0.646,1.104
	C649.056,265.07,648.93,264.986,648.994,264.757z M594.56,248.982c0.104-0.021,0.229,0.062,0.25,0.167
	c0.021,0.104-0.062,0.229-0.167,0.25c-0.104,0.021-0.229-0.062-0.249-0.167C594.476,249.106,594.456,249.002,594.56,248.982z
	 M588.39,249.024c0.103-0.021,0.229,0.062,0.25,0.167c0.021,0.104-0.062,0.229-0.167,0.25c-0.105,0.021-0.229-0.062-0.25-0.166
	C588.202,249.169,588.285,249.045,588.39,249.024z M584.282,243.124c0.104-0.021,0.23,0.062,0.251,0.167
	c0.021,0.104-0.062,0.229-0.167,0.251c-0.105,0.021-0.229-0.063-0.25-0.167C584.094,243.27,584.177,243.146,584.282,243.124z
	 M590.31,279.752c0.104-0.021,0.229,0.062,0.249,0.167c0.021,0.104-0.061,0.229-0.166,0.251c-0.104,0.021-0.229-0.063-0.25-0.167
	C590.122,279.898,590.207,279.773,590.31,279.752z M528.522,296.019c-0.104,0.021-0.229-0.062-0.251-0.168
	c-0.021-0.104,0.062-0.229,0.168-0.249c0.103-0.021,0.229,0.062,0.249,0.166C528.71,295.873,528.626,295.998,528.522,296.019z
	 M526.706,284.24c-0.208,0.041-0.459-0.126-0.501-0.334c-0.042-0.209,0.126-0.46,0.334-0.501c0.208-0.042,0.46,0.125,0.501,0.334
	C527.082,283.948,527.019,284.177,526.706,284.24z M532.628,287.824c-0.208,0.042-0.334-0.042-0.375-0.25
	c-0.042-0.208,0.042-0.332,0.25-0.374s0.332,0.041,0.374,0.249S532.836,287.783,532.628,287.824z M534.441,280.091
	c-0.104,0.021-0.229-0.062-0.251-0.167c-0.021-0.105,0.062-0.229,0.167-0.25c0.104-0.021,0.229,0.062,0.251,0.166
	C534.524,279.965,534.546,280.071,534.441,280.091z M551.177,246.17c0.104-0.021,0.23,0.062,0.251,0.167
	c0.021,0.105-0.062,0.23-0.168,0.252c-0.103,0.021-0.229-0.062-0.249-0.168C550.989,246.317,551.074,246.191,551.177,246.17z
	 M551.052,253.676c0.208-0.042,0.459,0.126,0.5,0.334c0.042,0.209-0.125,0.459-0.333,0.501c-0.209,0.041-0.459-0.126-0.501-0.334
	C550.573,253.989,550.74,253.739,551.052,253.676z M548.384,251.175c0.104-0.021,0.229,0.062,0.25,0.167s-0.061,0.229-0.166,0.25
	c-0.104,0.021-0.229-0.062-0.25-0.166C548.196,251.322,548.28,251.196,548.384,251.175z M544.048,240.333
	c0.104-0.021,0.229,0.063,0.25,0.169c0.021,0.104-0.061,0.229-0.166,0.25c-0.104,0.021-0.23-0.062-0.251-0.167
	C543.86,240.48,543.943,240.355,544.048,240.333z M545.048,250.216c0.104-0.021,0.125,0.083,0.125,0.083
	c0.021,0.104-0.083,0.125-0.083,0.125c-0.104,0.021-0.124-0.084-0.124-0.084C544.944,250.237,545.048,250.216,545.048,250.216z
	 M544.361,250.028c0.104-0.021,0.229,0.063,0.25,0.166c0.021,0.104-0.062,0.229-0.167,0.251s-0.229-0.062-0.25-0.167
	C544.068,250.197,544.256,250.049,544.361,250.028z M544.508,250.759c0.208-0.042,0.354,0.145,0.374,0.249
	c0.042,0.209-0.146,0.354-0.249,0.375c-0.209,0.042-0.355-0.146-0.376-0.25C544.214,250.925,544.299,250.8,544.508,250.759z
	 M545.8,255.051c0.021,0.104-0.041,0.334-0.146,0.355c-0.104,0.021-0.229-0.062-0.271-0.271c-0.021-0.104,0.042-0.333,0.146-0.354
	C545.633,254.76,545.779,254.948,545.8,255.051z M545.071,256.282c0.104-0.021,0.229,0.062,0.249,0.168
	c0.021,0.102-0.061,0.228-0.166,0.249c-0.104,0.021-0.229-0.062-0.25-0.166C544.862,256.324,544.967,256.304,545.071,256.282z
	 M548.075,283.216c0.104-0.021,0.229,0.062,0.25,0.167c0.021,0.105-0.061,0.23-0.166,0.251c-0.104,0.021-0.23-0.062-0.251-0.168
	C547.887,283.363,548.075,283.216,548.075,283.216z M538.607,253.781c0.104-0.021,0.229,0.062,0.251,0.167
	c0.021,0.105-0.062,0.229-0.167,0.251c-0.105,0.021-0.229-0.062-0.251-0.167C538.42,253.927,538.503,253.802,538.607,253.781z
	 M539.381,274.984c0.208-0.042,0.333,0.041,0.374,0.249c0.042,0.209-0.041,0.334-0.249,0.375c-0.209,0.042-0.333-0.041-0.375-0.25
	C539.089,275.15,539.277,275.004,539.381,274.984z M538.776,280.633c0.104-0.021,0.23,0.062,0.251,0.167
	c0.021,0.104-0.062,0.229-0.168,0.25c-0.104,0.021-0.229-0.062-0.25-0.167C538.588,280.778,538.673,280.654,538.776,280.633z
	 M558.059,277.858c-0.313,0.604-0.625,1.209-0.354,2.022c0.021,0.104,0.063,0.312-0.02,0.438c-0.438,1.062-0.333,2.128-0.771,3.19
	c-0.23,0.479-0.46,0.959-0.147,1.438c0.021,0.104,0.041,0.209,0.062,0.313c-0.229,1.021-0.229,2.104-0.457,3.127
	c-0.042,0.333-1.001,3.669-1.125,4.127c-3.501,11.758-6.023,17.033-7.815,19.451c-1.813,2.314-3.545,1.251-3.731-1.313
	c-0.085-2.044-0.188-4.19,0.146-6.317c0.146-0.896,0.083-1.75,0.146-2.521c1.104-8.569,3.271-15.073,3.897-16.282
	c0.854-1.688,1.48-3.44,2.208-5.211c0.897-2.024,2.795-6.089,5.253-6.256c1.272-0.147,2.148,0.98,2.46,1.459
	C558.477,276.148,558.435,277.024,558.059,277.858z M555.262,247.088c0.104-0.021,0.23,0.062,0.252,0.166
	c0.021,0.104-0.063,0.229-0.168,0.25c-0.104,0.021-0.229-0.062-0.251-0.166C555.075,247.235,555.159,247.109,555.262,247.088z
	 M554.512,247.671c-0.207,0.041-0.332-0.041-0.374-0.249c-0.042-0.209,0.042-0.334,0.249-0.375c0.209-0.042,0.334,0.041,0.376,0.25
	C554.805,247.505,554.721,247.629,554.512,247.671z M555.679,249.172c-0.311,0.062-0.562-0.104-0.624-0.417
	c-0.062-0.312,0.104-0.562,0.416-0.625c0.312-0.062,0.562,0.104,0.625,0.417C556.16,248.86,555.889,249.13,555.679,249.172z
	 M555.096,243.001c-0.104,0.021-0.229-0.061-0.251-0.166c-0.021-0.104,0.062-0.229,0.167-0.251c0.104-0.021,0.23,0.062,0.251,0.167
	C555.284,242.857,555.201,242.98,555.096,243.001z M564.001,277.21c-0.104,0.021-0.229-0.062-0.249-0.167
	c-0.021-0.105,0.062-0.229,0.166-0.249c0.105-0.021,0.229,0.061,0.25,0.166C564.189,277.065,564.105,277.19,564.001,277.21z
	 M567.172,288.176c-0.104,0.021-0.229-0.062-0.251-0.167c-0.021-0.105,0.062-0.229,0.167-0.25c0.105-0.021,0.229,0.062,0.251,0.166
	C567.464,288.009,567.38,288.134,567.172,288.176z M561.684,253.716c-0.104,0.021-0.229-0.062-0.251-0.167
	c-0.021-0.104,0.062-0.229,0.167-0.25c0.105-0.021,0.229,0.062,0.251,0.167C561.872,253.572,561.79,253.696,561.684,253.716z
	 M563.582,252.903c-0.083,0.125-0.167,0.25-0.354,0.396c-0.189,0.146-0.377,0.292-0.564,0.438c-0.208,0.042-0.542,0.001-0.396-0.355
	c0.25-0.373,0.5-0.75,1.125-0.875C563.708,252.445,563.643,252.674,563.582,252.903z M563.644,245.086
	c-0.209,0.042-0.458-0.126-0.5-0.334c-0.042-0.209,0.124-0.46,0.333-0.501c0.209-0.042,0.458,0.125,0.5,0.334
	C564.04,244.899,563.853,245.044,563.644,245.086z M573.779,285.988c-0.207,0.041-0.333-0.042-0.374-0.25
	c-0.042-0.209,0.041-0.334,0.249-0.376c0.209-0.042,0.334,0.042,0.376,0.251C574.071,285.819,573.883,285.966,573.779,285.988z
	 M573.381,254.737c-0.104,0.021-0.126-0.083-0.126-0.083l0.084-0.124c0.104-0.021,0.124,0.083,0.124,0.083L573.381,254.737z
	 M578.365,274.77c-0.104,0.021-0.251-0.166-0.396-0.354c-0.062-0.313-0.104-0.521,0-0.542c0.104-0.021,0.25,0.166,0.396,0.354
	C578.51,274.417,578.469,274.749,578.365,274.77z M580.969,266.117c-0.417,0.084-0.668-0.082-1.021-0.229
	c-0.25-0.167-0.562-0.646-0.271-0.814c0.188-0.145,0.293-0.166,0.501-0.207c0.312-0.062,0.479,0.229,0.604,0.312
	c0.166,0.292,0.395,0.354,0.625,0.417C581.7,265.43,581.7,265.972,580.969,266.117z M579.571,242.333
	c-0.104,0.021-0.229-0.062-0.251-0.167c-0.021-0.105,0.062-0.23,0.167-0.252c0.104-0.021,0.229,0.063,0.251,0.168
	C579.759,242.187,579.675,242.313,579.571,242.333z M586.933,276.958c-0.104,0.021-0.229-0.062-0.251-0.167
	c-0.021-0.105,0.062-0.229,0.168-0.25c0.104-0.021,0.229,0.062,0.249,0.167C587.12,276.812,587.037,276.938,586.933,276.958z
	 M587.599,271.622c-0.104,0.021-0.229-0.062-0.25-0.166c-0.021-0.104,0.062-0.23,0.167-0.252c0.104-0.021,0.229,0.062,0.25,0.168
	C587.787,271.475,587.703,271.602,587.599,271.622z M642.907,270.636c-0.104,0.021-0.229-0.062-0.25-0.166
	c-0.021-0.104,0.062-0.229,0.167-0.251c0.103-0.021,0.229,0.062,0.249,0.167C643.094,270.49,643.01,270.615,642.907,270.636z
	 M641.926,265.196c-0.103,0.021-0.333-0.041-0.374-0.249c-0.042-0.21,0.042-0.334,0.249-0.376c0.104-0.021,0.333,0.041,0.375,0.251
	C642.219,265.03,642.03,265.174,641.926,265.196z M640.193,248.956c-0.104,0.021-0.229-0.062-0.249-0.168
	c-0.021-0.104,0.062-0.229,0.166-0.25c0.104-0.021,0.229,0.062,0.25,0.167S640.299,248.935,640.193,248.956z M645.993,275.222
	c-0.209,0.042-0.229-0.062-0.251-0.167c-0.062-0.312-0.25-0.709,0.063-0.771c0.207-0.041,0.229,0.063,0.249,0.167
	c0.042,0.21-0.041,0.334,0.022,0.647L645.993,275.222z M646.535,275.222c-0.209,0.042-0.334-0.041-0.376-0.25
	c-0.042-0.208,0.042-0.332,0.251-0.374c0.208-0.042,0.332,0.041,0.373,0.249C646.825,275.056,646.743,275.181,646.535,275.222z
	 M643.509,246.017c-0.103,0.021-0.229-0.062-0.25-0.168c-0.021-0.104,0.062-0.229,0.167-0.25c0.105-0.021,0.229,0.062,0.25,0.166
	C643.697,245.87,643.717,245.975,643.509,246.017z M648.763,260.36c-0.104,0.021-0.229-0.062-0.251-0.168
	c-0.021-0.104,0.062-0.229,0.167-0.251c0.104-0.021,0.229,0.062,0.25,0.167C648.95,260.213,648.869,260.338,648.763,260.36z
	 M648.386,257.398c-0.208,0.042-0.458-0.125-0.5-0.334c-0.041-0.208,0.126-0.458,0.333-0.5c0.21-0.042,0.461,0.125,0.502,0.333
	C648.763,257.106,648.595,257.357,648.386,257.398z M647.803,250.686c-0.208,0.042-0.332-0.042-0.374-0.25
	c-0.041-0.209,0.041-0.334,0.249-0.375c0.209-0.042,0.334,0.041,0.376,0.25C648.095,250.518,648.011,250.644,647.803,250.686z
	 M643.944,214.057c-0.042,0.877-0.376,1.376-1.293,1.669c-0.312,0.062-0.688-0.188-0.646-0.521c0.104-0.562,0.208-1.126,0.541-1.625
	C643.276,212.891,643.922,213.411,643.944,214.057z M642.358,208.304c0.5-0.208,1-0.417,1.396-0.604
	c0.418-0.084,0.771,0.062,0.751,0.5c0.062,0.312-0.187,0.688-0.479,0.854c-0.5,0.209-1.021,0.313-1.751-0.084
	C642.024,208.805,642.067,208.47,642.358,208.304z M638.877,206.074c0.125-0.46,0.667-0.459,1.126-0.334
	c0.48,0.229,1.042,0.334,1.523,0.563l0.124,0.083c0.166,0.292-0.062,0.771-0.396,0.729c-0.312,0.062-0.646,0.021-0.958,0.084
	c-0.209,0.042-0.521,0.104-0.834,0.167c-0.313,0.062-0.688-0.188-0.751-0.5C638.773,206.637,638.711,206.324,638.877,206.074z
	 M636.374,197.361c0.104-0.021,0.333,0.041,0.375,0.251c0.042,0.207-0.042,0.332-0.25,0.373c-0.103,0.021-0.332-0.041-0.374-0.249
	C636.083,197.527,636.166,197.403,636.374,197.361z M635.061,198.382c0.104-0.021,0.229,0.062,0.25,0.167
	c0.021,0.104-0.062,0.229-0.167,0.25c-0.104,0.021-0.229-0.062-0.249-0.167C634.874,198.528,634.853,198.424,635.061,198.382z
	 M636.583,209.243c0.125,0.082,0.251,0.166,0.292,0.375c0.146,0.188-0.041,0.333-0.062,0.229c-0.229-0.062-0.354-0.146-0.375-0.25
	C636.271,209.305,636.583,209.243,636.583,209.243z M635.145,211.806c-0.021-0.102,0.188-0.144,0.209-0.041
	c0.021,0.104,0.166,0.292,0.084,0.417c0.021,0.104-0.062,0.229-0.21,0.042C635.228,212.224,635.186,212.015,635.145,211.806z
	 M629.351,218.605c0.104-0.021,0.229,0.062,0.25,0.166c0.021,0.104-0.062,0.229-0.167,0.25c-0.105,0.021-0.229-0.062-0.25-0.167
	C629.266,218.729,629.246,218.625,629.351,218.605z M627.954,219.208c0.083-0.125,0.292-0.166,0.375-0.291
	c0.209-0.042,0.459,0.124,0.062,0.312c-0.081,0.124-0.29,0.166-0.396,0.187C627.913,219.542,627.766,219.355,627.954,219.208z
	 M626.474,220.48c0.103-0.021,0.229,0.062,0.25,0.167c0.021,0.104-0.062,0.229-0.167,0.251c-0.104,0.021-0.229-0.062-0.25-0.167
	C626.182,220.648,626.265,220.522,626.474,220.48z M619.266,268.971c0.166-0.251,0.542-0.542,0.667,0.083
	c0.083,0.418,0.021,0.647-0.063,1.313c-0.04,0.334-0.354,0.396-0.625,0.125C618.913,269.909,619.037,269.451,619.266,268.971z
	 M617.389,267.178c0.104-0.021,0.125,0.084,0.125,0.084l-0.083,0.124l-0.125-0.083C617.305,267.303,617.284,267.199,617.389,267.178
	z M617.704,275.247c0.207-0.042,0.333,0.04,0.438,0.02c0.312-0.062,0.459,0.124,0.041,0.208c-0.209,0.042-0.396,0.188-0.54,0.001
	C617.62,275.371,617.704,275.247,617.704,275.247z M620.831,287.629c-0.208,0.583-0.521,1.187-1.25,1.332
	c-1.355,0.271-1.376-0.916-1.23-1.27c0.188-0.689,0.646-1.105,1.229-1.439c0.292-0.166,0.729-0.146,0.979,0.021
	C620.851,286.649,621.04,287.045,620.831,287.629z M636.469,325.152c-0.249-0.708-0.188-1.479-0.854-2.104
	c-0.146-0.188-0.354-0.146-0.542,0c-0.396,0.188-0.666,0.459-1.062,0.647c-0.396,0.187-0.563-0.104-0.312-0.479
	c1.229-1.438,1.229-3.065,0.249-4.711c-0.479-0.771-0.667-1.71-0.959-2.627c-0.208-0.501-0.208-1.043-0.001-1.626
	c0.166-0.251,0.188-0.688,0.021-0.98c-0.271-0.813-0.73-1.48-0.999-2.292c-0.251-0.709-0.271-1.355-0.438-2.189
	c-0.062-0.312-0.001-0.54,0.062-0.771c0.459-0.959,0.876-2.125,1.918-2.876c0.292-0.167,0.729-0.146,0.876,0.042
	c0.813,0.812,1.126,1.834,1.46,2.958c0.062,0.313,0.312,0.48,0.646,0.523c1.104,0.103,2.23,0.312,3.46,0.499
	c0.229,0.062,0.48,0.229,0.625,0.417c0.354,0.688,0.855,1.562,1.335,2.335c0.021,0.103,0.167,0.291,0.396,0.354
	c0.729,0.396,1.625,0,2.396,0.062c0.229,0.062,0.396,0.354,0.313,0.479c-0.167,0.25-0.417,0.624-0.604,0.771
	c-0.188,0.145-0.249,0.373-0.104,0.562c0.083,0.417,0.188,0.938,0.271,1.355c0.042,0.208-0.019,0.437-0.208,0.582
	c-0.583,0.335-0.938,0.729-0.562,1.522c0.042,0.209,0.271,0.271,0.46,0.126c0.396-0.188,0.688-0.355,1.083-0.543
	c0.605-0.228,1.104,0.104,1.229,0.73c-0.02,0.437-0.02,0.979-0.166,1.334c-0.167,0.25-0.585,0.334-0.98,0.521
	c-0.208,0.041-0.29,0.167-0.249,0.374c-0.104,2.189-0.249,2.544-1.459,3.003c-0.209,0.042-0.355-0.146-0.376-0.25
	c0.125-0.458,0.167-0.792,0.21-1.125c0.27-1.355-0.294-2.002-1.731-2.147c-0.438-0.021-0.896-0.146-1.334-0.166
	c-0.229-0.062-0.416,0.083-0.479,0.312c-0.062,0.23-0.126,0.46-0.084,0.668c-0.062,0.229-0.146,0.354-0.354,0.396
	c-0.813,0.271-1.188-0.521-1.896-0.812c-0.251-0.167-0.542-0.001-0.584,0.333c-0.187,0.688-0.167,1.333,0.771,1.688
	c0.354,0.146,0.772,0.604,0.938,0.896c0.626,0.958,0.334,2.208-0.729,2.854C637.512,326.027,636.698,325.756,636.469,325.152z
	 M632.295,277.204c0.209-0.042,0.335,0.041,0.376,0.25c0.042,0.208-0.042,0.333-0.25,0.375c-0.209,0.042-0.334-0.042-0.375-0.25
	C632.004,277.371,632.087,277.245,632.295,277.204z M631.253,273.618c-0.021-0.103,0.083-0.123,0.083-0.123
	c0.104-0.021,0.125,0.081,0.125,0.081c0.021,0.104-0.083,0.125-0.083,0.125S631.274,273.724,631.253,273.618z M634.651,262.965
	c-0.021-0.104,0.061-0.229,0.166-0.25c0.104-0.021,0.229,0.062,0.25,0.167c0.021,0.105-0.062,0.23-0.166,0.251
	C634.796,263.155,634.672,263.07,634.651,262.965z M639.514,330.613c-0.292,0.167-0.626,0.126-0.918-0.249
	c-0.293-0.375-0.271-0.813-0.084-0.959c0.291-0.165,0.625-0.126,0.918,0.25C639.7,329.925,639.681,330.364,639.514,330.613z
	 M649.04,329.466c-0.333,0.501-0.646,1.104-1.146,1.313c-0.396,0.187-0.834,0.167-1.229,0.354c-0.084,0.125-0.438,0.521-1.104,0.438
	c-0.668-0.083-1.253-0.29-1.814-0.396c-0.813-0.271-0.896-0.688-0.417-1.543c0.084-0.124,0.062-0.229,0.042-0.333
	c0.062-0.229-0.209-0.5-0.396-0.354c-0.313,0.062-0.501,0.209-0.584,0.334c-0.646,0.563-1.48,0.188-2.21-0.209
	c-0.71-0.291-1.335-0.708-1.502-1.542c-0.083-0.417-0.208-1.043,0.417-1.168c0.313-0.063,0.667,0.083,0.938,0.354
	c0.125,0.084,0.272,0.271,0.417,0.458c0.146,0.188,0.375,0.25,0.584,0.208c0.311-0.062,0.604-0.229,0.938-0.188
	c1.082,0.001,1.896-0.271,2.688-1.189c0.521-0.646,1.146-0.771,1.98-0.396c0.479,0.23,1.062,0.439,1.647,0.646
	c0.332,0.042,0.5,0.333,0.457,0.668c-0.042,0.334,0.021,0.646,0.084,0.959c0.062,0.312,0.229,0.604,0.417,0.999
	C649.165,329.007,649.207,329.216,649.04,329.466z M636.359,265.009c-0.167,0.251-0.29,0.166-0.251-0.168
	c0.043-0.332,0.188-0.688,0.355-0.938c0.104-0.021,0.208-0.041,0.229,0.063C636.777,264.383,636.632,264.737,636.359,265.009z
	 M638.465,262.528c-0.207,0.042-0.332-0.041-0.374-0.251c-0.042-0.209,0.042-0.332,0.25-0.373c0.208-0.042,0.332,0.04,0.374,0.248
	C638.862,262.341,638.674,262.486,638.465,262.528z M636.838,252.771c-0.25,0.375-0.751,0.584-1.021,0.855
	c-0.562,0.438-0.771,1.021-0.417,1.71c0.73,1.479,0.334,2.751-0.354,4.19c-1.022,1.938-1.666,4.128-2.438,6.233
	c-0.501,0.208-1.021,0.312-1.522,0.521c-0.062,0.229-0.208,0.583-0.166,0.792c0.499,1.96-0.25,3.628-1.563,5.19
	c-0.854,1.146-1.584,2.378-2.085,3.669c-0.167,0.25-0.417,0.626-0.458,0.959c-0.334,2.127-2.022,3.441-3.086,5.171
	c-0.25,0.374-0.729,0.688-1.209,0.46c-0.479-0.229-0.354-1.231,0.127-1.543c0.457-0.417,1.208-0.459,1.521-1.063
	c0.083-0.125-0.021-0.646-0.854-0.479c-0.834,0.167-1.752,0.457-2.543,0.833c-0.5,0.208-0.604,0.772-0.709,1.335
	c-0.229,1.562-0.312,1.688-1.688,2.398c-0.188,0.144-0.438-0.021-0.5-0.335c0.041-0.332-0.001-0.541,0.062-0.771
	c0.208-0.584,0.209-1.126-0.042-1.835c-0.25-0.709-0.313-1.563-0.375-2.418c0.02-0.438,0.249-0.917,0.521-1.188
	c0.334-0.501,1.063-0.647,1.48-0.188c0.395,0.354,0.584,0.75,0.958,1.001c0.563,0.646,1.771,0.188,0.896-0.938
	c-0.938-1.438-0.126-3.335-0.96-4.794c-0.146-0.188,0.188-0.689,0.354-0.939c0.625-0.667,1.418-1.043,2.378-1.126
	c1.188-0.021,1.625-0.543,1.729-1.647c0-0.54-0.021-1.188,0-1.626c-0.021-0.104-0.041-0.209-0.146-0.188
	c-0.48-0.229-0.75,0.042-0.793,0.375c-0.208,1.125-0.854,1.689-2.021,1.814c-0.104,0.021-0.229-0.062-0.354-0.146
	c-0.416-0.459-0.854-1.021-1.293-1.584c-0.124-0.084-0.062-0.312,0.021-0.438c0.27-0.271,0.541-0.542,0.915-0.834
	c0.188-0.145,0.126-0.459-0.104-0.521c-0.667-0.083-1.124-0.208-1.688-0.312c-0.104,0.021-0.251-0.167-0.166-0.291
	c0.25-0.918,1.104-0.98,1.876-1.459c0.083-0.124,0.166-0.251,0.021-0.438s-0.293-0.375-0.438-0.562
	c-0.292-0.376-0.584-0.751-0.667-1.167c-0.083-0.417-0.084-0.96,0.062-1.313c0.625-1.209-0.354-2.855,0.833-3.961
	c1.104-0.98,1.168-2.294,0.813-3.523c-0.48-1.313-0.189-2.564,0.331-3.752c0.229-0.48,0.334-1.043,0.355-1.48
	c0.104-1.104,0.354-1.48,0.834-1.793c0.479-0.313,1.063-0.646,1.167-1.21c-0.021-0.104,0.041-0.333,0.354-0.396
	c0.209-0.042,0.417-0.083,0.646-0.021c0.251,0.166,0.438,0.562,0.709,0.833c0.312,0.48,0.521,0.979,0.917,1.333
	c0.752,0.501,1.605-0.103,2.086-0.417c0.563-0.437,1.104-0.979,1.416-1.583c0.146-0.354-0.041-0.751-0.375-0.794
	c-0.459-0.124-0.812,0.271-1.313,0.481c-0.979,0.521-1.876,0.375-2.438-0.271c-0.146-0.188-0.313-0.479-0.376-0.793
	c-0.042-0.208-0.292-0.375-0.479-0.228c-0.188,0.145-0.398,0.187-0.606,0.229c-1.083,0-1.522-0.562-1.188-1.605
	c0.354-0.939,0.707-1.877,1.167-2.835c0.062-0.23,0.249-0.376,0.438-0.522c0.188-0.146,0.521-0.104,0.562,0.104
	c0.292,0.917,0.563,1.73,0.833,2.543c0.063,0.313,0.48,0.229,0.543,0c0.124-0.458,0.021-0.98,0.188-1.229
	c0.249-0.376,0.625-0.668,0.979-1.064c0.082-0.124,0.166-0.251,0.146-0.354c-0.083-0.959-1.417-0.584-1.584-1.417
	c-0.125-0.627,0.375-0.834,0.729-1.231c0.188-0.145,0.229-0.479,0.083-0.666c-0.042-0.209-0.208-0.501-0.146-0.73
	c0-0.541,0-1.082,0.126-1.543c0.291-0.708,0.708-1.334,1.104-2.063c0.166-0.25,0.354-0.396,0.667-0.459
	c0.208-0.041,0.542,0,0.751-0.041c0.208-0.042,0.417-0.084,0.583-0.334c0.709-0.793,0.625-1.751,0.562-2.605
	c-0.021-0.646,0.292-1.251,0.771-1.563c0.479-0.313,1.104-0.438,1.73-0.563c0.208-0.042,0.396-0.188,0.457-0.416
	c0.229-0.48,0.438-1.063,0.771-1.564c0.25-0.375,0.5-0.751,0.188-1.229c-0.437-0.563-0.959-0.459-1.459-0.25
	c-0.688,0.354-1.355,0.271-2.065-0.021c-0.353-0.146-0.749,0.043-0.896,0.396c-0.333,1.043-0.687,1.982-0.917,3.002
	c-0.062,0.23-0.124,0.46-0.312,0.605c-0.271,0.271-1.396,0.604-1.146-0.854c0.166-0.792,0.542-1.626,0.709-2.418
	c0.124-0.458,0.374-0.834,0.501-1.293c0.249-0.917,0.666-1.542,1.583-1.834c1.041-0.209,1.521-1.062,2.147-1.729
	c0.166-0.25,0.521-0.647,0.459-0.96c-0.209-1.042,0.333-1.584,1.124-1.959c0.479-0.313,0.959-0.626,0.834-1.251
	c-0.146-0.729,0.291-1.251,0.729-1.771c0.271-0.271,0.771-0.48,1.104-0.438c0.229,0.062,0.438,0.02,0.563,0.104
	c0.792,0.166,0.729,0.938,0.562,1.187c-0.188,0.689-0.792,0.918-1.439,0.939c-0.749,0.043-0.854,0.605-1.021,0.854
	c-0.229,0.48-0.354,0.938-0.584,1.419c-0.167,0.249,0.125,0.625,0.438,0.562s0.5-0.208,0.771-0.479
	c0.251-0.374,0.354-0.938,0.73-1.229c0.27-0.271,0.834-0.167,0.917,0.249c0.042,0.209,0.188,0.938-0.542,1.626
	c-0.542,0.542-1.126,0.876-1.668,1.418c-0.375,0.291-0.729,0.688-1.084,1.084c-0.27,0.271-0.374,0.833-0.208,1.125
	c0.146,0.188,0.312,0.479,0.458,0.668c0.271,0.271,0.543,0.541,0.812,0.812c0.251,0.166,0.605,0.312,0.919,0.25
	c0.417-0.084,0.729-0.146,1.126-0.333c0.604-0.229,1.001-0.959,0.854-1.688c-0.125-0.626-0.146-1.271-0.271-1.896
	c-0.063-0.313-0.001-0.543,0.166-0.793c0.521-0.646,1.188-1.104,2.042-1.167c0.646-0.021,1.169,2.586-0.042,4.127
	c-0.438,0.522-0.646,1.105-0.396,1.814c0.041,0.208-0.125,0.458-0.291,0.709c-1.544,1.501-1.752,2.085-2.063,3.232
	c-0.334,1.042,0.625,2.043-0.479,3.022c-0.646,0.562-0.854,1.688-1.209,2.627c-0.062,0.229,0,0.541,0.126,0.625
	c0.27,0.271,0.521,0.438,0.792,0.709c0.374,0.25,0.458,0.667,0.333,1.126c-0.334,1.042-0.417,2.252-0.98,3.232
	c-0.146,0.354,0.043,0.75,0.459,0.667c0.417-0.083,0.604-0.229,0.896-0.396c1.146-0.771,2.146-1.73,3.002-2.877
	c0.521-0.646,0.959-0.084,0.646,0.521c-0.354,0.939-1.229,1.439-1.918,2.336c-1.021,1.396-2.146,2.814-1.876,4.712
	c0.042,0.208-0.083,0.668-0.375,0.834c-0.688,0.354-1.46,0.834-1.729,1.104c-0.271,0.271-0.062,0.771-0.438,0.522
	c-0.376-0.25-0.75-0.501-1.229-0.73c-0.125-0.082-0.333-0.041-0.396,0.188c-0.126,0.458-0.271,0.812-0.417,1.166
	c-0.251,0.375-0.522,0.646-0.896,0.938c-0.189,0.146-0.147,0.354,0.104,0.521c0.479,0.229,0.938,0.354,1.417,0.584
	c0.229,0.062,0.438,0.02,0.75-0.043c0.48-0.312,0.855-0.604,1.335-0.917c0.291-0.167,0.729-0.146,0.896,0.145
	c0.25,0.167,0.416,0.459,0.562,0.646c0.271,0.271,0.564,0.646,0.5,0.875C638.38,249.645,637.964,251.353,636.838,252.771z
	 M640.714,230.422c0.021,0.104-0.041,0.334-0.25,0.376c-0.104,0.021-0.333-0.042-0.375-0.251c-0.021-0.104,0.041-0.332,0.25-0.374
	C640.548,230.132,640.672,230.214,640.714,230.422z M638.609,231.279c0.021,0.103-0.083,0.123-0.083,0.123
	c-0.104,0.021-0.125-0.081-0.125-0.081c-0.021-0.104,0.084-0.126,0.084-0.126C638.588,231.173,638.609,231.279,638.609,231.279z
	 M635.629,246.183c0.021,0.104-0.062,0.23-0.167,0.251c-0.105,0.021-0.229-0.062-0.25-0.167c-0.021-0.104,0.062-0.229,0.167-0.25
	C635.503,246.101,635.608,246.08,635.629,246.183z"/>
<path fill="#B39346" d="M664.986,295.921c-0.167-0.291-0.501-0.333-0.605,0.229c-0.104,0.563-0.104,1.105-0.208,1.669
	c-0.062,0.229,0.188,0.396,0.396,0.354C665.695,297.839,665.654,297.631,664.986,295.921z"/>
<circle fill="#B39346" cx="664.964" cy="293.108" r="0.212"/>
<path fill="#B39346" d="M664.839,287.604c-0.479,0.313-0.479,0.854-0.396,1.271c0.208,0.5,0.605,0.314,0.668,0.085
	c0.25-0.376,0.459-0.961-0.167-1.377C665.048,287.562,664.923,287.479,664.839,287.604z"/>
<circle fill="#B39346" cx="664.985" cy="285.623" r="0.319"/>
<circle fill="#B39346" cx="665.714" cy="275.72" r="0.106"/>
<circle fill="#B39346" cx="666.067" cy="270.989" r="0.425"/>
<circle fill="#B39346" cx="665.131" cy="281.475" r="0.425"/>
<path fill="#B39346" d="M502.529,336.236c-1.418,2.126-4.19,7.776-7.712,10.216c-0.959,0.625-2.23,0.229-2.648-0.771
	c-0.164-0.292-0.228-0.605-0.29-0.917c-0.419-2.627-0.835-5.253-1.168-8.006c-0.084-0.416-0.063-0.854,0.187-1.229
	c0.627-1.209,0.73-2.314,0.168-3.502c-0.167-0.292-0.104-0.521-0.063-0.855c0.375-1.375,0.021-2.605-0.46-3.919
	c-0.437-1.104-0.438-2.189,0.458-3.128c0.813-0.813,0.501-1.835,0.418-2.252c-0.125-0.625-0.354-1.229-0.584-1.834
	c-0.71-1.375-1.063-2.606-0.272-4.064c0.313-0.604,0.292-0.709,0.229-1.022c-0.146-0.729-0.188-1.479-0.126-2.251
	c0.126-1,0.688-1.98,0.5-2.919c-0.167-1.376,0.041-2.5,0.312-3.856c0.125-0.459,0.062-1.312-0.021-1.73
	c-0.354-1.229-0.71-2.46-1.064-3.689c-0.104-0.521-0.458-1.208,0.146-2.521c1.001-2.045,0.979-2.689,0.271-5.149
	c-0.292-0.918-0.355-2.314-0.335-3.294c0.083-2.835-0.688-5.607-0.938-8.484c-0.292-2.543-1.586-4.67-2.397-7.108
	c-0.606-1.939-1.627-3.253-3.524-4.065c-0.709-0.291-1.334-0.709-2.023-0.896c-1.751-0.625-3.501-1.25-5.253-1.875
	c-2.794-0.959-11.549-3.002-19.41-8.15c-2.001-1.333-4.086-2.002-6.505-2.167c-0.874-0.041-1.834,0.042-2.375-0.5
	c-1.043-0.875-2.043-0.459-3.106-0.354c-0.626,0.125-1.293,0.041-1.939,0.062c-1.938,0.064-3.377-0.082-5.253,0.294
	c-0.834,0.167-2.419,0.918-3.042,3.211c-0.563,2.063,0.458,3.376,1.563,4.564c0.959,1.002,1.897,1.896,2.543,2.959
	c0.605,0.855,0.793,1.794,1.918,2.002c0.23,0.062,0.543,0.542,0.605,0.854c0.146,1.271,0.979,2.188,1.813,3.106
	c0.688,0.729,8.506,8.38,3.233,23.202c-1.375,3.961-3.355,8.151-5.648,12.405c-2.294,4.253-4.815,8.442-7.67,12.591
	c-1.418,2.129-2.855,4.151-4.504,6.214c-0.771,1.022-1.646,2.064-2.417,3.087l-2.44,2.98c-3.313,4.023-6.92,7.672-10.547,11.218
	c-1.835,1.667-3.669,3.336-5.628,4.92c-1.854,1.563-3.855,2.939-5.857,4.316c-0.667,0.457-1.333,0.917-2.021,1.271
	c-0.292,0.167-0.584,0.333-0.98,0.521c-8.421,4.504-15.487,4.942-17.823,4.65c-11.444-1.395-12.468-14.634-11.238-22.035
	c0.771-4.814,3.21-5.629,6.38-4.962c4.877,1.085,9.401-0.146,10.859-0.438c1.564-0.312,3.023-0.604,4.065-1.896
	c0.708-0.794,0.917-0.835,1.668-0.876c0.646-0.021,1.125-0.334,1.209-0.458c0.625-0.668,1.251-1.335,2.043-1.711
	c1.293-0.583,1.668-0.875,1.918-1.25c0.875-1.043,1.729-2.19,2.479-3.316c0.604-0.771,1.001-1.5,0.793-2.543
	c-0.167-0.834,0.25-1.459,0.687-1.98c1.062-1.188,1.647-2.606,2.21-4.128c0.375-0.834,0.938-1.271,1.126-1.418
	c1-0.959,1.5-2.251,2.479-3.314c1.334-1.46,2.752-3.045,2.981-5.15c0.124-1,0.729-2.855,1.062-3.356
	c1.105-1.521,1.146-2.397,1.167-2.836c0.104-0.562,0.125-1.001,0.25-1.459c0.334-1.043,1.021-1.939,1.584-2.919
	c0.729-1.229,0.896-2.563,0.729-3.939c-0.168-1.376-0.21-2.669,0.062-4.025c0.229-1.021,0.292-2.334,0.083-3.377
	c-0.229-1.147-0.562-2.272-0.375-3.502c0.04-0.334,0.062-0.771-0.502-1.418c-0.416-0.457-0.458-1.207-0.124-1.71
	c0.583-0.874,0.458-1.5-0.085-2.042c-0.521-0.438-0.146-1.271,0.063-1.855c0.187-0.688,0.167-1.335-0.835-2.001
	c-1.146-0.855-0.876-1.669-0.834-2.001c0.104-0.563,0.312-1.147,0.417-1.711c0.083-0.667-0.271-1.355-1.376-2
	c-0.729-0.396-1.438-0.688-2.273-1.063c-1.313-0.604-2.627-1.208-3.731-2.397c-0.812-0.812-1.73-1.604-2.73-2.271
	c-1.021-0.771-2.127-1.418-2.98-2.439c-1.794-1.917-3.92-3.336-6.297-4.377c-1.792-0.834-3.543-1.459-5.17-2.544
	c-0.896-0.688-1.979-0.687-3.19-0.229c-2.021,0.73-3.752,1.835-5.939,2.272c-0.835,0.167-1.563,0.854-2.209,1.418
	c-0.73,0.688-0.709,1.335-0.876,1.586c-0.312,0.604-1.021,0.854-1.459,1.374c-0.584,0.876-1.376,1.793-1.96,2.669
	c-0.812,1.354-1.626,2.711-2.896,3.939c-2.105,2.482-5.94,7.151-9.379,12.176c-0.501,0.751-2.732,3.149-8.61,3.023
	c-3.147-0.021-6.233,0.272-9.174,0.752c-2.521,0.397-5.045,0.793-7.565,1.189c-3.879,0.668-7.318,1.356-10.403,2.189
	c-3.313,0.771-6.504,1.627-9.569,2.565c-0.917,0.292-1.855-0.604-1.604-1.521c0.437-2.147,1.354-4.065,2.041-6.046
	c1.417-4.295,2.876-8.923,4.147-13.405l0,0c0,0,0.083-0.124,0.124-0.458c0.521-1.73,1.021-3.565,1.543-5.296
	c2.542-8.965,7.523-25.789,10.086-35.19c0.668-2.626,1.418-9.173,7.129-12.592c0,0,12.028-7.61,7.253-16.846
	c-5.107-9.818-16.928-6.586-21.825,0.899c-1.564,2.481-2.855,5.231-3.856,7.817c-1.709,4.461-4.127,8.089-12.882,11.468
	c-2.314,0.896-4.67,1.585-7.109,2.396c-8.921,3.087-18.01,5.881-26.954,8.863c-8.942,2.981-17.678,5.922-26.162,9.028
	c-22.91,8.487-69.814,28.714-85.845,47.207c-2.918,3.294-4.605,7.317-3.854,11.07c0.73,3.647,3.377,7.672,10.778,11.068
	c0.125,0.083,0.354,0.146,0.479,0.229c4.317,1.521,8.589,2.835,13.219,2.667c0.542-0.001,1.208,0.083,1.771,0.188
	c0.896,0.145,1.771,0.188,2.542,0.25c0.312-0.062,26.601-1.421,45.216-9.698c1.792-0.794,2.834-3.171-0.355-3.397
	c-1.543-0.126-2.981-0.271-4.503-0.292c-1.417-0.041-2.918,0.042-4.294,0.209c-2.208,0.333-4.523,0.688-6.837,0.499
	c-1.208-0.081-2.481,0.063-3.752,0.21c-2.231,0.229-4.523,0.688-6.755,0.918c-2.877,0.251-5.775,0.396-8.692,0.438
	c-4.44,0.021-8.672-1.084-12.864-3.062c-2.751-1.292-4.064-2.981-4.211-4.795c-0.021-0.104-0.062-0.312-0.083-0.416
	c-0.021-0.104-0.042-0.209,0.041-0.334c-0.021-0.104-0.021-0.104,0.062-0.229c0.354-4.19,6.858-9.61,14.613-14.739
	c0.083-0.125,0.27-0.271,0.375-0.293c1.231-0.896,2.585-1.709,3.94-2.522c0.104-0.021,0.292-0.167,0.5-0.208
	c0.688-0.354,1.668-0.876,2.335-1.335c0.187-0.145,0.479-0.312,0.667-0.458c1.855-1.022,3.689-2.147,5.648-3.19
	c4.69-2.565,9.818-5.109,15.385-7.632c0.5-0.208,0.792-0.375,0.792-0.375l0,0c8.528-3.983,17.824-7.902,27.684-11.719
	c8.234-3.275,16.844-6.298,25.662-9.364c4.46-1.543,8.9-3.19,13.341-4.838s8.9-3.189,13.446-4.858
	c2.022-0.73,4.044-1.459,6.066-2.189c1.522-0.521,2.878,0.833,2.419,2.334c-1.188,3.274-2.564,7.235-2.71,7.59
	c-3.752,11.05-7.629,22.015-11.485,33.085c-0.833,2.335-1.562,4.648-2.167,7.046c-0.666,3.169-6.627,17.262-6.835,17.845
	c-0.417,1.168-2.084,3.67-6.066,5.442c-4.169,1.918-27.767,12.928-50.072,25.521l-1.208,0.459
	c-7.775,4.482-15.176,9.216-22.639,14.178c-2.209,1.418-4.398,2.94-6.504,4.337c-1.814,1.23-2.001,1.919-1.334,3.629l0.229,0.604
	c0.27,0.814,0.624,1.501,0.687,2.354c0.167,0.834,0.48,1.314,1.126,1.836c0.375,0.249,0.646,0.521,0.896,0.688
	c0.25,0.167,0.501,0.334,0.75,0.501c1.647,1.188,3.607,2.314,6.4,1.646c0.104-0.021,0.104-0.021,0.209-0.042
	c0.521-0.104,0.958-0.084,1.396-0.062c0.104-0.021,0.333,0.042,0.438,0.021c1.084,0,2.002-0.293,2.751-0.876
	c0.834-0.709,1.835-1.125,2.753-1.418l0.312-0.062c2.419-0.92,4.732-1.815,7.151-2.732c3.814-1.521,7.86-4.066,8.881-4.921
	l1.125-0.875c0.667-0.459,6.733-4.817,8.672-5.964c0.187-0.145,0.375-0.292,0.584-0.333c6.044-3.92,17.009-10.884,29.247-17.994
	c2.625-1.5,3.334-0.667,2.418,1.792l-12.798,28.687c-0.312,0.604-0.521,1.188-0.833,1.793c-0.229,0.48-3.356,5.984-3.522,7.86
	c-0.062,0.771-0.543,1.626-1.104,2.065c-1.229,0.896-1.709,2.293-2.46,3.419c-0.896,1.479-1.792,2.96-1.854,4.815
	c-0.062,1.312-0.667,2.626-1.917,3.419c-0.959,0.626-1.335,1.46-1.792,2.419c-1.605,2.814-3.189,5.733-5.044,8.381
	c-1.667,2.502-3.605,4.733-5.398,7.151c-1.709,2.292-3.169,4.753-5.001,6.964c-1.127,1.418-1.605,3.356-3.231,4.44
	c-1.334,0.919-2.126,2.377-2.605,3.773c-0.417,1.167-1.125,1.959-1.813,2.855c-0.689,0.897-1.626,1.626-2.188,2.606
	c-0.251,0.375-0.563,0.979-0.042,1.419c0.271,0.269,0.709,0.833,0.209,1.583c-0.334,0.501-0.771,1.021-0.771,1.564
	c0.062,0.312,0.146,1.271-0.646,2.188c-0.25,0.375-0.625,0.667-0.896,0.938c-0.458,0.416-1.939,1.146-2.314-0.73
	c-0.083-0.416-0.062-0.854-0.125-1.167c0.02-0.438,0.166-0.792,0.312-1.146c0.271-0.813-0.208-1.042-0.75-0.501
	c-1.438,1.48-2.834,3.17-4.252,4.754c-0.71,0.792,0.146,1.271,0.396,1.438c0.604,0.312,0.396,1.438,0.251,1.792
	c-0.522,1.731-1.042,2.377-2.146,2.814c-0.397,0.188-1.043,0.209-0.897-0.688c0.208-1.125,0.167-2.419-2.293-0.083
	c-1.834,1.668-3.564,3.314-5.398,4.983c-1.48,1.271-3.106,2.355-4.607,3.522c-0.938,0.729-1.98,1.48-2.918,2.212
	c-1.814,1.23-3.545,2.335-5.337,3.669c-1.521,1.063-3.356,1.647-4.482,3.065c-0.27,0.271-1.479,1.271-1.751,1.542
	c-1.063,0.647-1.709,1.752-2.647,2.481c-0.376,0.292-1.021,0.312-1.479,0.188c-0.459-0.125-1.23-0.729-2.002-0.249
	c-0.979,0.521-1.167,1.751-1.772,2.522c-1.521,2.146-3.251,3.794-6.211,3.628c-1.959-0.042-3.919,0.459-5.357,1.939
	c-0.897,0.938-2.001,1.376-3.231,1.73c-2.063,0.521-3.982,1.229-5.92,1.835c-0.313,0.062-0.688,0.354-0.98,0.521
	c-2.293,1.541-5.211,1.043-7.714,2.085c-0.292,0.166-0.875,0.499-1.772,0.354c-1.022-0.229-1.959,0.5-3.002,0.709
	c-1.02,0.312-1.917,0.708-2.981,0.812c-2.001,0.293-4.021,0.481-6.003,0.878c-3.231,0.646-6.379,1.168-9.714,1.292
	c-0.98-0.021-1.835,0.043-2.752,0.334c-1.334,0.375-1.834,1.667,0.083,2.044c5.963,1.082,12.05,1.708,18.095,1.04
	c1.585-0.21,3.107,0.353,4.691,0.145c2.46-0.167,4.982-0.562,7.442-0.73c2.335-0.25,4.503-1.334,6.775-1.355
	c0.208-0.042,1.25-0.25,1.544-0.417c1.02-0.312,2.168,0.001,3.063-0.396c1-0.417,2.063-1.062,3.128-1.166
	c1.499-0.084,1.605-1.73,2.812-2.19c0.814-0.271,1.481-0.729,2.168-1.084c0.896-0.396,2.189-0.438,2.815-1.105
	c0.916-0.834,2.208-0.334,3.126-1.167c0.73-0.688,1.688-0.772,2.626-0.418c1.293,0.5,2.23,0.312,3.002-0.709
	c0.521-0.646,1.021-0.855,1.918-0.708c1.563,0.229,2.522-0.397,3.273-2.064c0.208-0.583,0.874-1.043,1.188-0.021
	c0.104,0.521,0,1.083,0.688,1.272c0.917,0.25,1.792-0.793,2.043-1.168c2.23-2.938,3.502-2.544,5.628-2.752
	c2.023-0.188,4.002-0.584,5.63-1.669c2.584-1.71,4.272-1.938,4.98-2.189c1.001-0.416,2.043-0.625,2.94-1.021
	c1.667-0.875,3.189-1.938,4.69-3.106c1.793-1.335,3.085-0.835,4.065-1.355c0.396-0.187,0.75-0.584,1.021-0.855
	c0.458-0.416,0.896-0.938,1.438-1.48c0.874-1.043,1.938-1.146,2.584-1.168c2.127-0.208,1.897-1.355,1.752-1.543
	c-0.751-1.583-0.751-2.125,0.271-2.981c0.917-0.833,1.731-1.646,3.294-1.417c0.438,0.021,0.855-0.063,1.271-0.146
	c0.709-0.249,1.104,0.104,1.355,0.271c0.417,0.459,1.396,0.479,1.375-0.709c-0.021-0.647-0.605-1.939,0.562-3.148
	c1.626-1.626,3.482-3.189,5.234-4.731c0.458-0.418,0.957-0.627,1.521-0.523c0.229,0.063,0.73,0.396,0.312,1.021
	c-0.166,0.25-0.187,0.688,0.355,0.688c0.75-0.042,1.313-0.479,1.731-1.104c0.166-0.25,0.333-0.5,0.479-0.854
	c0.792-2.002,2.23-3.481,3.688-4.858c1.188-1.104,2.188-2.605,3.835-3.043c1.752-0.458,3.502-2.001,4.107-2.772
	c0.938-1.271,1.625-2.712,2.73-3.69c1.104-0.979,1.626-2.711,3.292-3.044c0.104-0.021,0.271-0.271,0.335-0.501
	c0.145-0.896,0.833-1.249,1.479-1.813c0.938-0.729,1.959-1.585,2.397-2.648c0.521-1.187,1.335-2,2.106-3.022
	c0.625-0.666,1-1.5,1.501-2.252c0.249-0.374,0.458-0.959,0.832-1.25c1.794-1.334,2.815-3.272,4.106-4.94
	c1.46-1.919,2.46-3.961,2.731-6.4c0.104-0.562,0.376-1.375,2.085-2.586c1.521-1.062,1.854-3.189,2.876-4.587
	c0.438-0.521,0.605-1.312,0.666-2.084c0.25-2.543,1.313-4.816,2.022-7.233c0.187-0.689,0.5-1.294,0.917-1.919
	c1.709-2.293,2.917-4.92,3.083-7.88c0.125-1.001,0.584-1.959,0.917-3.002c0.355-0.938,0.688-1.981,0.938-2.897
	c0.396-1.272,0.646-2.731,1.271-3.939c0.605-1.315,1-2.586,1.273-3.94c0.583-4.13,1.666-7.923,3.542-11.55
	c0.541-1.084,0.958-2.253,1.146-3.482c0.521-3.354,2.251-6.086,3.481-9.151l3.896-14.113c1.647-4.232,2.501-5.378,6.775-6.775
	l1.021-0.312c4.461-1.543,7.504-2.586,9.047-3.004c4.295-1.292,8.693-2.606,9.526-2.772c1.022-0.313,2.064-0.521,3.003-0.71
	c1.544-0.416,8.108-2.272,9.757-2.71c1.96-0.501,7.463-2.252,4.544,3.21c-3.147,5.942-6.981,13.864-9.63,20.681
	c-0.207,0.584-0.417,1.167-0.624,1.752c-0.271,0.813-0.563,1.521-0.833,2.335c-0.104,0.562-0.209,1.125-0.313,1.689
	c-0.041,0.332-0.062,0.771-0.229,1.021c-0.709,0.793-0.728,1.772-0.979,2.689c-0.292,1.25-0.583,2.502-0.75,3.836
	c-0.313,2.23-0.833,4.503-1.125,6.837c-0.292,1.793-0.459,3.669-0.646,5.441c-0.207,2.752,0.125,5.503,0.23,8.192
	c0.001,1.626,0.313,3.189,0.729,4.731c0.354,1.231,0.813,2.44,1.272,3.648c0.145,0.188,0.271,0.271,0.584,0.208
	c0.209-0.041,0.29-0.165,0.146-0.354c-0.146-0.188,0.061-0.229,0.061-0.229s0.104-0.021,0.25,0.167
	c0.125,0.083,0.252,0.167,0.376,0.25c0.229,0.062,0.333,0.042,0.438,0.021c0.312-0.062,0.334,0.041-0.062,0.229
	c-0.188,0.146-0.146,0.355-0.042,0.334c0.125,0.083,0.25,0.166,0.354,0.146c0.104-0.021,0.229,0.062,0.271,0.271
	c0,0,0.187,0.396,0.207,0.499c0.208,0.501,0.5,0.876,0.919,1.334c0.271,0.271,0.562,0.104,0.396-0.188
	c-0.042-0.208,0.062-0.229,0.062-0.229l0.104-0.021c0.104-0.021,0.208-0.041,0.229,0.063c0.021,0.103,0.146,0.187,0.271,0.271
	l0.021,0.103c-0.104,0.021-0.188,0.146-0.29,0.167c-0.084,0.124,0.083,0.417,0.083,0.417l0.165,0.291
	c0.146,0.188,0.271,0.271,0.334,0.042c0.083-0.125,0.167-0.251,0.229-0.479c-0.021-0.104,0.083-0.126,0.209-0.042
	c0.75,0.5,1-0.417,1.647-0.438c0.104-0.021,0.104-0.021,0.082-0.124c-0.021-0.104-0.145-0.188-0.062-0.312
	c0.083-0.124,0.083-0.124,0.208-0.041l0.355,0.688c0,0,0.041,0.209,0.229,0.062c0.104-0.021,0.104-0.021,0.207-0.041
	c0.21-0.042,0.376,0.249,0.376,0.249s0.042,0.209,0.229,0.062l0.104-0.021c0,0,0.103-0.021,0.249,0.167
	c0.312,1.021-0.604,0.771-1.354,0.812c-0.103,0.021-0.123-0.083-0.123-0.083c-0.021-0.104-0.042-0.209-0.042-0.209
	c-0.021-0.104-0.042-0.208-0.271-0.271c-0.23-0.062-0.354-0.146-0.562-0.104c-0.209,0.042-0.271,0.271-0.271,0.271l-0.062,0.229
	c-0.062,0.229-0.125-0.083-0.125-0.083s-0.042-0.208-0.229-0.062c-0.897,0.938-2.502-0.041-3.732,0.313
	c-0.312,0.062-0.146,0.354-0.042,0.333c0.562,0.646,1.585-0.209,2.064,0.563c0.021,0.104,0.021,0.104-0.084,0.124
	c-0.229-0.062-0.417,0.083-0.604,0.229c-0.188,0.145-0.146,0.354-0.021,0.438c0.125,0.082,0.438,0.02,0.647-0.022
	c0.104-0.021,0.229,0.063,0.042,0.209c-0.104,0.021-0.188,0.146-0.146,0.354c0.042,0.208,0.166,0.292,0.374,0.25
	c0.188-0.146,0.438,0.02,0.669,0.083c0.353,0.146,0.186,0.396,0,0.542c-0.104,0.021-0.209,0.042-0.292,0.165
	c-0.209,0.042-0.062,0.229-0.062,0.229s0.146,0.188-0.083,0.126c0,0-0.104,0.021-0.229-0.063c-0.104,0.021-0.188,0.146-0.02,0.438
	c0.021,0.104,0.292,0.376,0.312,0.479c0.751,1.042,1.668,2.376,1.939,2.648c0.542,0.542,1.084,1.083,1.646,1.729
	c0.021,0.104,0.251,0.166,0.312-0.062c-0.021-0.104,0.084-0.125,0.084-0.125c0.167-0.25,0.334,0.041,0.125,0.083
	c0,0-0.21,0.042-0.042,0.333c0.188,0.396,0.521,0.979,0.938,0.896c0.104-0.021,0,0,0,0s-0.084,0.126,0.041,0.208
	c0.125,0.084,0.251,0.168,0.396,0.356c0.125,0.082,0.125,0.082,0.125,0.082l0,0c0.021,0.104,0.166,0.292,0.27,0.271
	c0.522,0.438,0.918,0.793,1.419,1.126c0.125,0.083,0.229,0.062,0.208-0.042c0.104-0.021,0.083-0.125,0.188-0.146
	c0,0,0.125,0.084,0.146,0.189l-0.084,0.124c0,0-0.082,0.125,0.167,0.292c0.124,0.082,0.209-0.041,0.188-0.146
	c-0.021-0.104,0.103-0.021,0.103-0.021c0.021,0.104,0.062,0.312,0.188,0.396c0.229,0.062,0.709,0.292,0.812,0.271
	c0.229,0.062,0.209-0.042,0.084-0.124c-0.021-0.104,0.188-0.146,0.188-0.146c0.416-0.083,0.792-0.377,1.187-0.563
	c0.585-0.334,0.563,0.646,0.563,0.646s0.125,0.625,0.625,0.417c0.292-0.166,0.564-0.438,0.794-0.376
	c0.103-0.021,0.165,0.291-0.042,0.333c-0.418,0.083-0.98-0.021-0.938,0.729c0,0,0.062,0.312,0.667,0.083
	c0.208-0.042,0.334,0.041,0.25,0.167c-0.082,0.126-0.188,0.146-0.146,0.354c0.271,0.813,1.168,0.417,1.627,0.542
	c0.124,0.083,0.501,0.334,0.624,0.417l0,0c0,0,0.104-0.021,0.125,0.082l0.229,0.062c0.104-0.021,0.229,0.062,0.334,0.041
	c0.499-0.207,0.479-0.854,0.729-1.229c0.146-0.354,0.396-0.188,0.229,0.061c-0.166,0.252-0.146,0.355-0.208,0.585
	c0.041,0.208,0.146,0.729,1.126,0.749c0.438,0.021,0.877,0.042,1.105,0.104c0.458,0.126,0.416-0.083,0.583-0.334
	c0.25-0.374,0.667,0.084,0.667,0.084s0.73,0.396,1.376,0.375c5.003,0.083,9.672-0.417,13.8-1.461
	c0.418-0.083,0.834-0.166,1.147-0.229c4.565-1.021,9.09-2.793,13.404-5.067c4.294-2.376,8.524-5.065,12.569-8.151
	c2.252-1.752,4.462-3.712,6.67-5.671c0.083-0.126,0.251-0.375,0.334-0.501c0.146-0.354,0.5-0.208,0.772-0.479
	c1.291-1.125,2.563-2.355,3.814-3.69c1.896-1.897,3.688-3.772,5.587-5.67c1.771-1.981,3.669-3.879,5.315-5.943
	c1.771-1.979,3.522-4.064,5.188-6.024c1.648-2.063,3.398-4.149,5.045-6.214c3.294-4.127,6.357-8.317,9.067-12.655
	c2.731-4.231,5.212-8.63,7.17-12.926c3.022-6.567,5.064-13.154,6.169-17.388c0.48-1.938,2.271-5.44,10.173-3.336
	c1.71,0.417,3.254,1.084,4.754,2.086c2.106,1.313,2.794,3.126,2.898,5.273c0.167,3.002-0.104,5.983-1.042,8.88
	c-0.291,0.71-0.354,1.481-0.312,2.231c0.168,1.376,0.333,2.752-0.396,3.981c-0.626,1.209-0.375,1.376-0.438,2.148
	c-0.042,0.876-0.438,1.604-0.583,2.502c-0.188,0.688-0.479,1.396-0.542,2.168c-0.062,1.312-0.583,2.501-1.105,3.689
	c-0.959,2.252-1.583,4.545-2.104,6.816c-0.582,2.503-0.707,5.129-2.104,7.36c-0.249,0.374-0.374,0.833-0.501,1.293
	c-0.771,2.104-0.604,4.564-2.187,6.399c-0.188,0.146-0.104,0.563-0.167,0.793c-0.083,0.667-0.167,1.334-0.376,1.917
	c-0.541,1.626-1.417,3.211-1.146,5.107c0.062,0.313-0.292,0.709-0.438,1.063c-0.229,0.479-0.438,1.063-0.438,1.605
	c-0.312,1.689-0.542,3.253-0.75,4.92c-0.209,1.126-0.625,2.293-0.062,3.481c0.146,0.188,0.001,0.541-0.062,0.771
	c-0.312,0.604-0.29,1.252-0.165,1.877c0.146,0.729,0.082,1.501,0.104,2.147c0,0.542,0.021,1.188,0.209,1.585
	c0.396,0.896,1.002,1.75,1.085,2.709c0.041,0.208,0.438,1.105,0.479,1.313c0.334,0.585,0.376,1.334,0.501,1.961
	c0.605,1.938,1.897,3.522,3.565,4.814c1.647,1.188,3.564,1.562,5.545,1.709c0.543,0,0.794-0.375,0.855-0.604
	c0.021-0.438,0.605-0.229,0.375,0.25c0,0-0.25,0.375,0.312,0.479c0.334,0.041,0.563,0.104,0.897,0.145
	c0.333,0.042,0.749-0.041,0.917-0.292c0.73-0.687,1.48-0.729,2.231-0.771c1.499-0.082,1.855-1.021,2.104-1.396
	c0.23-0.479,0.521-0.646,0.834-0.709c0.417-0.083,0.584-0.334,0.771-0.479c0.271-0.271,0.459-0.416,0.73-0.688
	c0.291-0.167,0.125-0.458-0.001-0.541l-0.124-0.084c0,0-0.146-0.188-0.021-0.104c0.104-0.021,0.104-0.021,0.124,0.083
	c0.104-0.021,0.104-0.021,0.209-0.042c0-0.541,1.063-0.104,0.792-0.917c-0.146-0.188-0.251-0.168-0.459-0.126
	s-0.042-0.208-0.042-0.208l0.521-0.646c0,0,0.167-0.25-0.084-0.418c-0.25-0.167-0.479-0.228-0.688-0.186
	c-0.104,0.021-0.124-0.084-0.146-0.188c-0.021-0.105-0.021-0.104-0.041-0.209c-0.062-0.312-0.208-0.5-0.48-0.229
	c-0.083,0.123-0.188,0.145-0.292,0.165c-0.021-0.103-0.041-0.208,0.042-0.332c0.167-0.25,0.041-0.334,0.041-0.334
	s-0.146-0.187-0.062-0.311c0.082-0.125,0.291-0.167,0.521-0.104c0,0,0.229,0.062,0.209-0.042c0.082-0.125,0.188-0.146,0.291-0.167
	c0.208-0.041,0.146,0.188,0.396,0.354c0.501,0.334,1.418,0.585,1.626,0c-0.021-0.104,0.063-0.229,0.271-0.271
	c0.103-0.021,0.208-0.041,0.332,0.041l0.062,0.313c0,0-0.062,0.229,0.167,0.291s0.521-0.104,0.688-0.355
	c0.354-0.395,0.417-0.624,0.501-0.75s-0.021-0.104-0.021-0.104c-0.208,0.041-0.145-0.188-0.145-0.188
	c0.083-0.124,0.208-0.042,0.208-0.042s0.146,0.188,0.438,0.021c0.709-0.793,1.168-1.752,1.877-2.544
	c2.125-2.377,3.627-5.17,5.231-7.985c3.813-6.942,6.045-13.134,6.253-14.26C503.904,335.526,503.446,334.858,502.529,336.236z
	 M396.369,255.901c0.604,0.313,0.188,0.938-0.314,0.604C395.869,256.109,396.138,255.839,396.369,255.901z M395.096,254.962
	c0.543,0,0.062,0.855-0.438,0.521C394.409,255.317,394.868,254.9,395.096,254.962z M374.73,261.532
	c0.146-0.355,0.5-0.209,0.396,0.354C375.085,262.22,374.417,262.137,374.73,261.532z M373.729,266.827
	c0.417-0.083,0.584,0.207,0.646,0.521c0.084,0.417-0.73,0.688-0.959,0.085C373.27,267.243,373.417,266.89,373.729,266.827z
	 M375.965,313.211c-0.043-2.377,0.146-4.69,0.417-7.129c0.312-2.23,1.166-5.546,1.562-6.817c0.646-2.188,1.668-4.128,2.086-6.38
	c0.374-1.918,1.334-3.627,2.062-5.4c0.354-0.938,0.813-1.896,1.293-2.751c1.104-2.064,2.229-4.025,3.73-5.734
	c2.127-2.377,3.961-2.961,4.878-2.71s2.001,1.875,1.939,5.358c0.042,2.376-0.521,5.523-2.104,10.068
	c-0.5,1.293-1.293,3.836-1.961,5.379c-0.687,1.439-1.583,2.379-1.916,2.877c-0.313,0.604-0.291,1.251-0.48,1.938
	c-0.438,1.605-1.25,2.962-2.188,4.232c-0.333,0.502-0.896,0.938-1.021,1.398c-0.438,2.147-2.105,3.564-3.418,5.128
	c-0.355,0.396-0.812,1.354-1.647,2.063C377.653,315.691,375.986,316.025,375.965,313.211z M339.277,351.99
	c-0.103,0.021-0.123-0.084-0.123-0.084c-0.021-0.104,0.081-0.124,0.187-0.146c0.104-0.021,0.124,0.084,0.124,0.084
	C339.383,351.97,339.383,351.97,339.277,351.99z M345.282,351.113c0,0-0.104,0.021-0.125-0.081
	c-0.021-0.104-0.041-0.209-0.041-0.209s0.104-0.021,0.125,0.083C345.282,351.113,345.282,351.113,345.282,351.113z M346.074,352.906
	c-0.104,0.021-0.229-0.062-0.249-0.167c-0.021-0.105,0.061-0.229,0.166-0.251c0.104-0.021,0.229,0.062,0.25,0.167
	C346.177,352.886,346.074,352.906,346.074,352.906z M344.158,359.035c-0.021-0.104-0.042-0.209,0.04-0.333
	c0,0,0.083-0.125,0.104-0.021c0.021,0.104,0.021,0.104,0.042,0.209C344.365,358.995,344.26,359.015,344.158,359.035z
	 M345.137,362.308c-0.104,0.021-0.104,0.021-0.126-0.083c-0.021-0.104-0.021-0.104,0.063-0.229c0.103-0.021,0.103-0.021,0.124,0.083
	C345.116,362.203,345.137,362.308,345.137,362.308z M348.786,362.663c-0.104,0.021-0.104,0.021-0.125-0.083
	c-0.021-0.104-0.021-0.104,0.083-0.125c0.104-0.021,0.104-0.021,0.124,0.083C348.889,362.643,348.889,362.643,348.786,362.663z
	 M350.828,366.373c-0.021-0.104-0.021-0.104-0.042-0.209C350.973,366.018,351.057,366.436,350.828,366.373z M353.643,367.437
	c-0.104,0.021-0.125-0.083-0.125-0.083c-0.021-0.104,0.084-0.125,0.084-0.125c0.104-0.021,0.124,0.083,0.124,0.083
	S353.623,367.331,353.643,367.437z M349.345,344.338c-0.021-0.104,0.083-0.125,0.083-0.125c0.104-0.021,0.125,0.083,0.125,0.083
	l-0.083,0.125C349.492,344.525,349.366,344.443,349.345,344.338z M350.618,349.612c-0.104,0.021-0.104,0.021-0.124-0.083
	c-0.021-0.104-0.021-0.104,0.082-0.124c0.104-0.021,0.104-0.021,0.125,0.082C350.722,349.591,350.723,349.591,350.618,349.612z
	 M351.411,346.527c-0.104,0.021-0.125-0.083-0.125-0.083c-0.021-0.104,0.083-0.125,0.083-0.125l0.124,0.084L351.411,346.527z
	 M354.288,353.865c-0.083-0.417-0.312-0.479-0.542-0.542c-0.021-0.104-0.042-0.209-0.062-0.312c0.646-0.021,1.125,0.209,1.438,0.688
	C354.914,353.739,354.748,353.99,354.288,353.865z M358.061,360.265C357.958,360.285,357.958,360.285,358.061,360.265
	c-0.145-0.188-0.145-0.188-0.041-0.208C358.125,360.036,358.146,360.138,358.061,360.265
	C358.167,360.243,358.061,360.265,358.061,360.265z M356.497,348.653c-0.104,0.021-0.229-0.062-0.271-0.271
	c-0.041-0.208-0.062-0.312,0.042-0.332c0.104-0.021,0.229,0.062,0.271,0.27C356.582,348.529,356.602,348.631,356.497,348.653z
	 M363.191,366.935c-0.104,0.021-0.229-0.062-0.25-0.167c-0.021-0.105,0.062-0.229,0.166-0.25c0.104-0.021,0.229,0.062,0.251,0.166
	C363.379,366.788,363.295,366.914,363.191,366.935z M365.942,371.48c-0.375-0.251,0.375-0.293,0.312-0.605
	C366.484,370.938,366.131,371.333,365.942,371.48z M364.337,361.826c-0.082,0.125-0.166,0.25-0.376,0.292
	c-0.311,0.062-0.458-0.125-0.458-0.125c-0.021-0.103,0.084-0.123,0.188-0.144c0.21-0.042,0.376-0.294,0.585-0.336
	C364.357,361.389,364.607,361.556,364.337,361.826z M364.858,361.722c-0.104,0.021-0.104,0.021-0.124-0.081
	c-0.021-0.104-0.021-0.104,0.082-0.125c0.104-0.021,0.104-0.021,0.125,0.083C364.963,361.701,364.963,361.701,364.858,361.722z
	 M368.152,368.436c-0.104,0.021-0.124-0.084-0.124-0.084l0.083-0.123c0.104-0.021,0.124,0.082,0.124,0.082
	S368.258,368.415,368.152,368.436z M368.278,365.809c-0.104,0.021-0.125-0.083-0.125-0.083c-0.021-0.104,0.083-0.125,0.083-0.125
	l0.124,0.083C368.466,365.662,368.382,365.787,368.278,365.809z M370.592,366.537c-0.104,0.021-0.125-0.082-0.125-0.082l0.084-0.126
	c0.103-0.021,0.124,0.084,0.124,0.084S370.695,366.517,370.592,366.537z M371.134,362.201c-0.208,0.042-0.333-0.042-0.375-0.251
	c-0.042-0.207,0.042-0.332,0.25-0.373c0.209-0.042,0.334,0.04,0.375,0.248C371.426,362.034,371.342,362.159,371.134,362.201z
	 M372.53,363.765c-0.104,0.021-0.104,0.021-0.124-0.082c-0.021-0.104-0.021-0.104,0.082-0.125c0.104-0.021,0.104-0.021,0.125,0.083
	C372.635,363.743,372.635,363.743,372.53,363.765z M374.406,370.436c-0.104,0.021-0.124-0.082-0.124-0.082l0.083-0.125l0.125,0.083
	C374.491,370.312,374.511,370.415,374.406,370.436z M374.281,364.39l-0.021-0.104c-0.021-0.104,0.082-0.125,0.104-0.021
	c0,0,0.021,0.104,0.042,0.209C374.427,364.579,374.344,364.703,374.281,364.39z M374.448,364.14
	c-0.021-0.103,0.062-0.229,0.167-0.25c0.104-0.021,0.229,0.062,0.251,0.166c0.021,0.104-0.062,0.229-0.167,0.251
	C374.594,364.327,374.469,364.244,374.448,364.14z M374.885,364.703c-0.229-0.062-0.166-0.292,0.188-0.146
	C375.177,364.536,375.198,364.641,374.885,364.703z M374.51,361.743c-0.103,0.021-0.103,0.021-0.124-0.084
	c-0.021-0.104-0.021-0.104,0.082-0.124c0.104-0.021,0.104-0.021,0.125,0.082C374.614,361.722,374.51,361.743,374.51,361.743z
	 M374.782,360.93L374.782,360.93c-0.125-0.083-0.042-0.209-0.042-0.209C374.864,360.806,374.864,360.806,374.782,360.93
	C374.885,360.908,374.885,360.908,374.782,360.93z M378.428,362.909c-0.104,0.021-0.124-0.083-0.124-0.083
	c-0.021-0.104,0.083-0.124,0.083-0.124l0.125,0.082C378.617,362.764,378.534,362.889,378.428,362.909z M379.18,365.036
	C379.076,365.057,379.076,365.057,379.18,365.036c-0.125-0.083-0.041-0.209-0.041-0.209S379.263,364.91,379.18,365.036
	C379.284,365.015,379.18,365.036,379.18,365.036z M384.975,370.163c-0.104,0.021-0.104,0.021-0.124-0.082
	c-0.021-0.104-0.021-0.104,0.082-0.125c0.104-0.021,0.104-0.021,0.126,0.083C385.059,370.038,385.081,370.143,384.975,370.163z
	 M389.874,364.847L389.874,364.847c-0.124-0.082-0.041-0.208-0.041-0.208S389.959,364.722,389.874,364.847
	C389.979,364.826,389.979,364.826,389.874,364.847z M392.627,363.429c-0.104,0.021-0.229-0.062-0.25-0.166
	c-0.021-0.105-0.042-0.209,0.062-0.229c0.104-0.021,0.229,0.062,0.25,0.167C392.71,363.305,392.73,363.408,392.627,363.429z
	 M393.023,360.532c-0.104,0.021-0.125-0.084-0.125-0.084l0.084-0.123c0.103-0.021,0.123,0.082,0.123,0.082
	S393.126,360.512,393.023,360.532z M393.856,362.533c-0.104,0.021-0.229-0.062-0.271-0.271s-0.062-0.312,0.041-0.334
	c0.104-0.021,0.23,0.062,0.272,0.271C393.92,362.305,393.856,362.533,393.856,362.533z M401.902,356.154
	c-0.104,0.021-0.124-0.083-0.124-0.083c-0.021-0.104,0.082-0.125,0.082-0.125l0.126,0.083
	C401.986,356.028,402.008,356.132,401.902,356.154z M403.112,355.154C403.112,355.154,402.986,355.069,403.112,355.154
	c-0.125-0.084-0.146-0.189-0.042-0.21C403.174,354.923,403.174,354.923,403.112,355.154
	C403.194,355.028,403.216,355.132,403.112,355.154z M404.05,355.506C403.945,355.528,403.945,355.528,404.05,355.506
	c-0.125-0.082-0.146-0.188-0.042-0.208C404.008,355.298,404.028,355.402,404.05,355.506L404.05,355.506z M409.053,353.421
	c-0.104,0.021-0.126-0.083-0.126-0.083l0.084-0.124l0.124,0.082C409.135,353.296,409.156,353.401,409.053,353.421z M409.032,348.981
	c-0.104,0.021-0.104,0.021-0.124-0.082c-0.021-0.104-0.021-0.104,0.082-0.125c0.104-0.021,0.104-0.021,0.126,0.083
	C409.136,348.96,409.136,348.96,409.032,348.981z M414.429,348.334c-0.103,0.021-0.123-0.083-0.123-0.083l0.082-0.125l0.125,0.084
	C414.514,348.208,414.535,348.313,414.429,348.334z M468.302,362.381C468.196,362.402,468.196,362.402,468.302,362.381
	c-0.084,0.124-0.188,0.145-0.313,0.062c-0.123-0.084-0.123-0.084-0.042-0.209c0.084-0.125,0.084-0.125,0.209-0.042l0.125,0.083
	l0.104-0.021l0.021,0.104C468.302,362.381,468.302,362.381,468.302,362.381z M471.365,362.527c-0.104,0.021-0.124-0.084-0.124-0.084
	l0.082-0.125l0.126,0.084L471.365,362.527z"/>
</svg>
