<?xml version="1.0" encoding="utf-8"?>
<!-- Generator: Adobe Illustrator 16.0.0, SVG Export Plug-In . SVG Version: 6.00 Build 0)  -->
<!DOCTYPE svg PUBLIC "-//W3C//DTD SVG 1.1//EN" "http://www.w3.org/Graphics/SVG/1.1/DTD/svg11.dtd">
<svg version="1.1" id="Layer_1" xmlns="http://www.w3.org/2000/svg" xmlns:xlink="http://www.w3.org/1999/xlink" x="0px" y="0px"
	 width="588.104px" height="362.789px" viewBox="137.344 128.506 588.104 362.789"
	 enable-background="new 137.344 128.506 588.104 362.789" xml:space="preserve">
<path fill="#B39346" d="M626.703,198.853c0.306-0.089,0.35-0.323,0.523-0.484c0.07-0.132,0.055-0.569-0.325-0.35
	c-0.173,0.163-0.245,0.294-0.288,0.528C626.542,198.679,626.499,198.914,626.703,198.853z"/>
<path fill="#B39346" d="M629.834,224.299c0.204-0.06,0.348-0.323,0.39-0.559c0.056-0.567,0.11-1.139-0.009-1.548
	c-0.149-0.509-0.456-0.42-0.864-0.3c-0.204,0.06-0.377,0.222-0.318,0.425c0.048,0.541,0.096,1.08,0.172,1.722
	C629.202,224.04,629.598,224.257,629.834,224.299z"/>
<path fill="#B39346" d="M628.379,207.223c0.817-0.239,0.961-0.503,0.926-1.377c0.041-0.234-0.25-0.481-0.527-0.291
	c-0.48,0.252-0.8,0.678-0.884,1.145C627.75,206.966,628.073,207.313,628.379,207.223z"/>
<path fill="#B39346" d="M627.574,211.669c0.379-0.223,0.596-0.619,0.794-1.451c0.271-0.967-0.735-1.003-1.114-0.781
	c-0.276,0.191-0.492,0.588-0.738,0.881c-0.174,0.161-0.289,0.527-0.33,0.762C626.423,211.895,627.168,211.788,627.574,211.669z"/>
<path fill="#B39346" d="M640.747,295.643c0.534-0.82,0.416-1.229-0.567-1.938c-0.129-0.071-0.334-0.011-0.274,0.192
	c0.148,0.51,0.196,1.049,0.405,1.764C640.338,295.762,640.676,295.775,640.747,295.643z"/>
<circle fill="#B39346" cx="637.438" cy="294.176" r="0.319"/>
<path fill="#B39346" d="M629.494,230.711c-0.857,0.473-1.482,0.987-2.138,1.4c-0.1,0.03-0.144,0.265-0.011,0.335
	c0.161,0.176,0.322,0.348,0.354,0.451c-0.093,1.576-0.215,3.052-0.906,4.474c-0.619,1.287-0.669,2.632-0.659,4.18
	c0.06,0.204,0.191,0.275,0.395,0.216c0.378-0.222,0.392-0.557,0.404-0.893c0.023-0.673-0.113-1.518,0.308-1.974
	c0.625-0.515,0.914-1.044,0.956-1.276c0.518-1.258,1.268-2.476,0.909-3.699c-0.226-1.152-0.1-1.853,0.67-2.633
	c0.101-0.03,0.041-0.233-0.019-0.438C629.758,230.854,629.698,230.65,629.494,230.711z"/>
<path fill="#B39346" d="M621.416,257.219c0.03,0.104,0.06,0.207,0.06,0.207c0.365,0.114,0.833,0.199,1.2,0.312
	c0,0,0.144-0.264,0.214-0.396c-0.364-0.113-0.628-0.257-0.964-0.27C621.823,257.101,621.619,257.162,621.416,257.219z"/>
<path fill="#B39346" d="M623.264,218.137c0.176-0.163,0.351-0.325,0.422-0.457c0.287-0.527,0.444-1.127,0.763-1.552
	c0.42-0.456,1.513-0.888,1.597-1.354c0.042-0.234-0.119-0.408-0.321-0.35c-0.541,0.049-1.02,0.299-1.501,0.551
	c-0.38,0.221-0.626,0.514-0.842,0.911c-0.36,0.659-0.649,1.187-0.806,1.786C622.461,218.038,622.744,218.62,623.264,218.137z"/>
<path fill="#B39346" d="M620.956,240.52c-0.029-0.102-0.334-0.011-0.538,0.047c-0.102,0.029-0.175,0.162-0.146,0.266
	c0.059,0.205,0.149,0.508,0.209,0.713c0.03,0.102,0.133,0.072,0.234,0.042C620.963,241.292,621.442,241.041,620.956,240.52z"/>
<path fill="#B39346" d="M620.387,240.466c0.174-0.162,0.318-0.426,0.492-0.588c0.145-0.264-0.251-0.48-0.366-0.113
	C620.31,239.824,620.298,240.159,620.387,240.466C620.285,240.497,620.285,240.497,620.387,240.466z"/>
<path fill="#B39346" d="M621.545,236.471c-0.335-0.013-0.54,0.048-0.816,0.239c-0.451,0.353-0.037,1.007,0.545,0.727
	c0.203-0.06,0.378-0.221,0.554-0.382C621.969,236.791,621.88,236.483,621.545,236.471z"/>
<path fill="#B39346" d="M663.975,281.534c-0.374,0.998-0.315,1.201,0.263,2.03c0.029,0.101,0.264,0.144,0.305-0.09
	c0.127-0.7,0.169-0.936-0.262-2.028C664.251,281.343,664.019,281.301,663.975,281.534z"/>
<path fill="#B39346" d="M617.944,241.957c-0.131-0.073-0.232-0.042-0.305,0.089c-0.156,0.598-0.314,1.197-0.616,2.062
	c-0.07,0.131,0.061,0.205,0.162,0.175c0.45-0.354,0.727-0.545,1.002-0.736c0.277-0.19,0.817-0.239,0.87-0.809
	c-0.029-0.102-0.06-0.204-0.16-0.175C618.703,242.285,618.34,242.173,617.944,241.957z"/>
<path fill="#B39346" d="M624.062,246.589c-0.031-0.103-0.132-0.072-0.204,0.059c-0.288,0.529-0.709,0.982-1.07,1.643l-0.07,0.131
	c0.089,0.307,0.149,0.511,0.281,0.582c0.264,0.145,0.587,0.493,0.893,0.402c0.438-0.016,0.654-0.412,0.433-0.79
	c-0.413-0.653,0.211-1.169,0.135-1.812C624.458,246.804,624.224,246.763,624.062,246.589z"/>
<path fill="#B39346" d="M620.131,230.13c-0.175,0.16-0.275,0.19-0.451,0.352c-0.102,0.031,0.03,0.103,0.06,0.205
	c0.306-0.089,0.409-0.121,0.449-0.354C620.262,230.202,620.203,229.997,620.131,230.13z"/>
<circle fill="#B39346" cx="635.069" cy="298.193" r="0.213"/>
<circle fill="#B39346" cx="638.839" cy="296.314" r="0.213"/>
<circle fill="#B39346" cx="634.438" cy="295.278" r="0.425"/>
<circle fill="#B39346" cx="633.381" cy="292.044" r="0.32"/>
<circle fill="#B39346" cx="620.174" cy="257.141" r="0.532"/>
<circle fill="#B39346" cx="621.251" cy="258.93" r="0.425"/>
<circle fill="#B39346" cx="617.869" cy="234.889" r="0.319"/>
<circle fill="#B39346" cx="623.549" cy="232.341" r="0.212"/>
<circle fill="#B39346" cx="626.498" cy="218.961" r="0.212"/>
<circle fill="#B39346" cx="628.703" cy="216.655" r="0.319"/>
<ellipse transform="matrix(-0.9595 0.2817 -0.2817 -0.9595 1280.0413 280.5856)" fill="#B39346" cx="619.854" cy="232.293" rx="0.426" ry="0.214"/>
<path fill="#B39346" d="M724.779,272.82c-0.421,0.454-0.842,0.911-1.158,1.336c-0.175,0.16-0.493,0.587-0.65,1.187
	c-0.127,0.701-1.075,0.867-1.699,1.383c-2.005,1.474-3.688,3.295-5.501,5.045c-4.149,3.982-8.271,8.07-13.199,11.285
	c-1.034,0.635-1.935,1.34-2.996,1.873c-1.993,1.137-3.927,2.478-5.757,3.789c-0.277,0.191-0.421,0.455-0.697,0.647
	c-0.275,0.19-0.564,0.719-1.543,0.784c-0.438,0.018-0.876,0.035-1.488,0.214c-1.192,0.459-2.094,1.167-2.803,2.149
	c-0.392,0.558-0.78,1.113-1.453,1.091c-1.476-0.124-2.742,0.47-3.938,0.93c-1.092,0.431-2.346,0.687-3.531,0.038
	c-1.684-0.836-3.399-1.774-4.969-2.976c-2.319-1.868-3.331-4.563-4.516-7.096c-0.871-1.849-1.367-3.919-2.036-5.829
	c-0.089-0.305-0.27-0.917-0.822-0.534c-0.755,0.444-0.827,0.575-0.679,1.085c0.479,1.635,0.577,3.486,1.873,4.88
	c0.352,0.45,0.662,1.135,0.74,1.776c0.364,1.998,1.555,3.422,2.398,5.168c0.251,0.482,0.605,0.93,0.767,1.105
	c0.678,0.797,0.741,1.775,0.704,2.783c0.019,0.438-0.295,1.637-1.639,1.586c-0.569-0.054-1.068-0.24-1.696-0.5
	c-0.997-0.372-2.123-0.817-3.118-1.191l0,0c-0.365-0.115-0.937-0.168-0.521,0.484c0.028,0.104,0.059,0.204,0.189,0.277
	c0.029,0.102,0.179,0.611-0.434,0.791c-0.103,0.03-0.202,0.06-0.306,0.09c-0.54,0.048-0.528-0.289-0.414-0.656
	c0.188-0.496,0.375-0.994,0.488-1.36c0.169-0.935-0.986-1.482-1.053-2.46c-0.017-0.439-0.179-0.611-0.352-0.451
	c-0.482,0.25-0.506,0.924-0.476,1.025c-0.013,0.336,0.047,0.541,0.034,0.877c0.078,0.641-0.163,1.708-0.895,1.48
	c-0.6-0.158-0.389-1.328-0.347-1.562c0.181-1.271-0.075-2.523-0.915-3.497c-0.354-0.45-0.34-0.787-0.269-0.919
	c0.084-0.468,0.241-1.067,0.399-1.667c0.041-0.232-0.019-0.438-0.281-0.581c-0.528-0.29-1.055-0.579-1.684-0.836
	c-0.132-0.073-0.162-0.174-0.09-0.306c0.548-1.157,0.309-1.973-0.469-2.742c-0.649-0.695-1.15-1.656-2.231-1.562
	c-0.102,0.031-0.539,0.047-0.462,0.69c0.018,0.437,0.004,0.772-0.211,1.167c-0.331,0.762-0.663,1.523-1.257,2.141
	c-0.565,0.719-1.691,0.273-1.859-0.675c-0.269-0.918-0.201-1.823,0.465-2.571c0.667-0.748,1.041-1.744,1.312-2.711
	c0.156-0.6,0.549-1.158,0.806-1.785c0.115-0.367,0.229-0.732,0.416-1.23c0.042-0.232-0.048-0.54-0.209-0.714
	c-0.557-0.392-1.012-0.81-1.539-1.099c-0.163-0.174-0.469-0.086-0.643,0.077c-0.349,0.323-0.594,0.616-0.942,0.938
	c-0.073,0.133-0.248,0.295-0.35,0.324c-0.479,0.252-2.644-0.332-3.304-0.693c-0.66-0.36-0.827-1.309,0.225-1.504
	c0.946-0.169,2.058-0.16,3.005-0.326c0.948-0.168,1.44-0.754,1.376-1.732c-0.137-0.844-0.304-1.794-0.572-2.713
	c-0.268-0.916-0.669-1.909-0.429-2.977c0.271-0.965,0.207-1.943-0.397-2.873c-0.221-0.378-0.167-0.948-0.052-1.312
	c0.519-1.26,0.279-2.076-0.836-2.856c-0.558-0.392-0.839-0.974-0.814-1.646c0.025-0.673,0.666-0.75,1.146-1
	c0.858-0.473,0.765-1.552-0.129-1.957c-0.396-0.216-0.761-0.33-1.127-0.444c-0.233-0.042-0.425-0.317-0.384-0.552
	c0.012-0.337,0.055-0.568,0.097-0.804c0.187-0.497,0.475-1.025,0.662-1.523c0.312-1.199-0.131-1.956-1.358-2.37
	c-0.63-0.26-0.911-0.84-0.886-1.512c0.24-1.068,0.823-1.35,1.716-0.947c0.396,0.218,0.72,0.564,1.36,0.488
	c0.205-0.061,0.379-0.222,0.32-0.425c0.054-0.571,0.035-1.009,0.09-1.577c0.073-0.132-0.089-0.306-0.148-0.51
	c-0.162-0.175-0.191-0.277-0.323-0.351c-0.894-0.403-1.366-1.261-1.532-2.209c-0.168-0.948,0.749-1.216,1.009-1.845
	c0,0,0.072-0.132,0.042-0.235c0.042-0.233-0.149-0.509-0.484-0.521c-0.235-0.042-0.6-0.157-0.834-0.199
	c-0.232-0.041-0.437,0.018-0.643,0.077c-0.755,0.443-0.853,1.247-1.477,1.762c-0.276,0.191-0.644,0.077-0.63-0.258
	c-0.138-0.847-0.243-1.59-0.219-2.262c-0.006-0.773,0.354-1.434,1.011-1.845c0.684-0.312,0.964,0.269,1.462,0.458
	c0.132,0.07,0.232,0.041,0.336,0.011c0.099-0.03,0.276-0.19,0.245-0.294c-0.017-0.438-0.063-0.978,0.181-1.272
	c0.218-0.394,0.668-0.747,1.016-1.071c0.071-0.129,0.145-0.264,0.084-0.467c-1.119-1.555-1.353-1.597-2.739-1.414
	c-0.977,0.064-1.836,0.538-2.533,1.186l0,0l0,0c-0.173,0.162-0.348,0.322-0.493,0.588c-0.316,0.425-0.637,0.851-1.098,1.54
	c-0.071,0.13-0.307,0.089-0.336-0.013c-0.149-0.511-0.238-0.815-0.064-0.978c0.463-0.688,1.188-1.234,1.418-1.966
	c0.56-1.492,1.827-2.085,3.051-2.443c0.306-0.088,0.538-0.048,0.803,0.097c0.132,0.071,0.294,0.247,0.323,0.35
	c0.294,0.245,0.516,0.624,0.853,0.637c0.366,0.114,0.803,0.097,1.079-0.095c0.175-0.16,0.259-0.629,0.271-0.965
	c-0.03-0.102-0.06-0.205,0.01-0.337c-0.029-0.102-0.088-0.306-0.221-0.378c-1.085-0.679-2.243-1.229-3.254-2.037
	c-0.265-0.145-0.545-0.728-0.37-0.889c0.114-0.366,0.665-0.749,0.973-0.837c0.438-0.021,0.833,0.198,1.331,0.385
	c0.264,0.144,0.54-0.048,0.554-0.384c0.053-0.57,0.138-1.039,0.224-1.506c0.041-0.232-0.049-0.539-0.281-0.582
	c-0.264-0.144-0.394-0.218-0.659-0.361c-0.263-0.145-0.353-0.45-0.311-0.686c0.314-1.197,0.627-2.396,1.013-3.729
	c0.041-0.234,0.054-0.568-0.106-0.744c-0.323-0.348-0.678-0.799-1.031-1.25c-0.19-0.274-0.179-0.611,0.098-0.803
	c0.93-0.604,0.559-1.492,0.32-2.308c-0.089-0.306-0.485-0.523-0.792-0.434c-0.918,0.269-0.761-0.331-0.688-0.464
	c0.475-1.025,0.483-2.135,1.222-3.014c0.739-0.883,1.023-2.186,1.479-3.646c0.188-0.498,0.14-1.038-0.082-1.416
	c-0.399-0.99-0.933-2.053-1.464-3.114c-0.223-0.379-0.636-1.034,0.146-2.148c0.924-1.379,1.544-2.667,1.24-4.462
	c-0.138-0.846,0.062-1.68-0.237-2.7c-0.341-0.786-0.304-1.794-0.236-2.698c0.085-0.469,0.302-0.863,0.52-1.26
	c0.245-0.294,0.229-0.732,0.006-1.109c-0.855-1.411-1.304-2.941-0.935-4.709c0.513-2.034,0.923-4.037,0.732-6.197
	c0.014-0.334,0.129-0.701,0.242-1.066c0.303-0.863,0.603-1.727,0.903-2.591c0.043-0.233,0.085-0.467-0.076-0.641
	c-0.223-0.38-0.444-0.757-0.533-1.063c-0.119-0.408,0.007-1.109,0.313-1.197c0.93-0.604,1.363-1.396,1.706-2.494
	c0.116-0.365,0.1-0.803-0.123-1.182c-0.443-0.758-0.814-1.645-0.003-2.657c0.247-0.293,0.14-1.036-0.012-1.547
	c-0.047-0.54-0.327-1.122-0.008-1.549c0.637-0.851,0.368-1.769,0.23-2.614c-0.107-0.744,0.021-1.446,0.249-2.178
	c0.229-0.732,0.691-1.419,0.764-1.552c0.599-2.501-2.051-3.608-1.263-5.833c0.318-0.426,0.727-0.544,1.104-0.766
	c0.307-0.09,0.45-0.354,0.464-0.689c0.079-1.24,0.393-2.439,0.238-3.723c-0.184-1.387,0.027-2.555,0.941-3.599
	c0.81-1.013,0.759-2.327,0.316-3.082c-1.18-1.76-0.634-2.917,0.718-3.976c0,0,0,0,0.103-0.03c0.145-0.263,0.055-0.569-0.108-0.743
	c-0.131-0.071-0.264-0.144-0.293-0.246c-0.264-0.146-0.323-0.349-0.311-0.685c-0.022-1.211,0.057-2.453,1-3.395
	c0.421-0.454,0.355-1.432,0.38-2.103c0.056-0.57-0.195-1.05-0.242-1.591c-0.019-0.438,0.037-1.008,0.021-1.445
	c0.042-0.234-0.12-0.408-0.353-0.451c-0.774,0.006-0.648-0.696-0.695-1.236c0.013-0.336-0.28-0.581-0.514-0.625
	c-0.936-0.169-1.872-0.338-2.778-0.405c-1.709-0.164-3.418-0.328-5.229-0.462c-1.14-0.109-2.28-0.219-3.52-0.299
	c-0.235-0.041-0.409,0.12-0.554,0.384c-0.115,0.366-0.126,0.702-0.535,0.821c-0.989,0.399-1.452,1.09-1.886,1.881
	c-1.053,2.079-2.133,4.057-3.186,6.137c-0.735,1.656-1.439,3.411-2.145,5.168c-0.703,1.756-1.612,3.575-2.051,5.473
	c-0.471,1.8-1.469,3.31-1.837,5.079c-0.567,2.603-1.966,5.005-2.666,7.538c-0.711,2.865-1.861,5.747-2.705,8.542
	c-0.229,0.732-0.529,1.595-0.759,2.328c-0.041,0.234,0.047,0.538,0.21,0.714c0.132,0.072,0.294,0.246,0.323,0.349
	c0.294,0.246,0.179,0.613-0.097,0.805c-0.276,0.189-0.551,0.383-0.857,0.473c-0.175,0.159-0.349,0.321-0.392,0.557
	c-0.54,1.932-1.215,3.789-1.656,5.689c-0.94,3.596-2.145,7.051-2.618,10.733c-0.152,1.374-0.435,2.677-0.924,4.037
	c-0.56,1.492-0.957,3.159-0.915,4.81c-0.009,1.108-0.178,2.046-0.419,3.112c-0.229,0.731-0.458,1.462-0.556,2.267
	c-0.224,1.504-0.286,3.186-0.611,4.72c-0.495,2.47-0.624,5.056-1.587,7.441c-0.187,0.497-0.243,1.066-0.296,1.636
	c-0.306,2.748-0.506,5.465-0.709,8.183c-0.066,0.905-0.57,1.829-0.201,2.717c0.061,0.203,0.049,0.54-0.095,0.804
	c-1.029,1.407-0.784,2.998-0.571,4.485c0.094,1.081-0.513,2.034-0.112,3.024c0.029,0.103,0.251,0.48,0.023,1.212
	c-0.156,0.599-0.283,1.302-0.34,1.87c0.062,2.861-0.108,5.682-0.413,8.429c0.018,0.438,0.137,0.847,0.257,1.254
	c0.059,0.204,0.179,0.611-0.009,1.11c-0.433,0.791,0.143,1.619-0.056,2.451c-0.254,1.403-0.203,2.719,0.084,4.074
	c0.389,1.324,0.031,2.76,0.289,4.014c0.059,0.203,0.017,0.438,0.077,0.643c0.03,0.102,0.131,0.071,0.161,0.174
	c0.03,0.102,0.03,0.102,0.089,0.306c0.678,0.8,0.377,1.662,0.075,2.526c-0.188,0.496-0.375,0.995-0.661,1.523
	c-0.188,0.496,0.094,1.076,0.591,1.265c0.233,0.042,0.365,0.115,0.599,0.155c0.235,0.042,0.852,0.638-0.019,1.447
	c-0.175,0.16-0.48,0.25-0.787,0.339c-0.101,0.03-0.275,0.191-0.216,0.397c0.819,2.418,0.834,4.737,0.85,7.061
	c-0.014,0.336-0.128,0.701-0.375,0.996c-0.563,0.718-1.232,1.467-1.531,2.332c-0.5,1.695-1.456,2.973-2.382,4.351
	c-0.709,0.983-0.92,2.153-1.497,3.209c-0.607,0.952-1.904,1.442-2.35,2.569c-0.963,2.387-3.454,5.219-4.56,5.986
	c-1.658,1.15-3.133,1.027-4.354-0.497c-0.545-0.727-0.813-1.646-0.849-2.521c-0.034-0.877,0.002-1.886-0.95-2.49
	c-0.265-0.143-0.515-0.624-0.399-0.99c0.211-1.168-0.087-2.188-0.62-3.252c-0.562-1.162-0.496-2.07-0.381-2.436
	c0.414-1.229-0.015-2.321-0.986-3.366c-0.453-0.42-0.471-0.858-0.65-1.47c-0.257-1.254-0.513-2.508-0.799-3.865
	c-0.168-0.947,0.031-1.781,0.291-2.411c0.215-0.394,0.169-0.937-0.112-1.518c-0.862-2.187-1.548-4.53-1.154-6.974
	c0.126-0.701,0.049-1.342-0.158-2.057c-0.462-1.193-0.364-1.998-0.249-2.364c0.458-1.462,0.404-2.776-0.115-4.175
	c-0.371-0.89-0.567-1.939-0.225-3.037c0.113-0.365-0.005-0.773-0.094-1.08c-0.49-1.297-1.082-2.561-0.901-3.832
	c0.128-0.703,0.002-1.887,0.046-2.119c-0.125-1.182,0.087-2.351,0.53-3.478c0.376-0.997,0.646-1.959,0.448-3.013
	c-0.381-2.434-0.557-4.932-0.296-7.443c0.085-0.469-0.034-0.878-0.081-1.416c-0.094-1.08-0.567-1.939-1.42-2.575
	c-0.98-0.709-1.965-1.418-2.917-2.025c-0.294-0.245-1.013-0.811-1.265-1.292c-0.662-1.135-2.049-0.951-3.29-1.028
	c-0.907-0.066-1.771-0.368-2.603-0.566c-0.6-0.157-1.523-0.662-2.629,0.104c-0.553,0.381-1.045,0.971-1.627,1.25
	c-1.411,0.855-2.983,1.538-4.013,2.945c-0.39,0.559-1.133,0.666-1.764,0.406c-0.628-0.258-1.155-0.547-1.611-0.967
	c-0.94-0.943-1.779-1.914-2.618-2.889c-0.675-0.798-1.466-1.23-2.534-1.473c-1.534-0.326-3.071-0.651-4.576-0.875
	c-0.601-0.156-1.302-0.283-1.756-0.703c-0.69-0.463-1.333-0.387-2.105-0.381c-1.11-0.007-2.16,0.189-3.312,0.415
	c-2.203,0.423-4.286,1.255-6.581,0.599c-0.365-0.115-0.978,0.063-1.254,0.257c-0.756,0.443-1.511,0.886-2.106,1.502
	c-0.246,0.294-0.157,0.601-0.127,0.702s0.121,0.407-0.318,0.424c-0.101,0.029-0.541,0.05-0.786,0.341
	c-0.146,0.265-0.218,0.397-0.36,0.661c-2.979,6.851-5.986,13.603-8.57,20.673c-1.42,3.849-2.444,7.915-3.732,11.839
	c-1,3.393-1.898,6.755-2.665,10.192c-0.905,4.474-2.25,8.967-3.155,13.44c-0.876,4.574-1.488,9.295-2.13,13.914
	c-0.211,1.168-0.188,2.382-0.4,3.552c-0.925,5.919-0.916,12.009-1.373,18.012c-0.012,0.335-0.063,1.68,0.267,2.802
	c0.297,1.02-0.047,2.117-0.053,3.229c-0.066,3.562,0.381,6.977,3.141,9.602c0.162,0.174,0.385,0.551,0.546,0.727
	c0.03,0.102,0.089,0.307,0.222,0.379c0.189,0.275,0.394,0.215,0.497,0.185c0.102-0.029,0.102-0.029,0.233,0.042
	c0.132,0.072,0.732,0.23,0.863,0.302c0.426,0.318,0.72,0.565,0.767,1.103c0.03,0.103,0.09,0.307,0.323,0.35
	c0.365,0.114,0.295,0.246,0.587,0.493c0.163,0.175,0.569,0.055,0.907,0.066c0.131,0.072,0.293,0.247,0.394,0.218
	c0.235,0.042,0.325,0.348,0.66,0.359c0.203-0.059,0.407-0.118,0.612-0.179c0.234,0.042,0.364,0.114,0.425,0.319
	c0.09,0.305,0.601,0.156,0.601,0.156c0.539-0.049,1.194-0.461,1.938-0.568c0.54-0.049,0.629,0.259,1.169,0.211
	c0.336,0.013,0.551-0.383,1.122-0.328c0.101-0.03,0.437-0.018,0.773-0.004c0.335,0.012,1.576,0.091,1.943,0.205
	c0.467,0.086,0.396,0.217,0.966,0.271c0.438-0.018,0.846-0.137,1.282-0.154c1.651-0.039,3.209-0.385,4.446-1.078
	c0.931-0.605,1.999-0.365,2.333-0.352c0.438-0.018,0.878-0.035,1.154-0.227c1.265-0.592,2.473-1.391,3.282-2.4
	c0.883-1.146,1.989-1.91,3.122-2.576c0.728-0.545,1.587-1.02,2.049-1.707c1.039-1.746,1.948-3.561,2.855-5.377
	c0.289-0.527,0.386-1.33,0.135-1.812c-0.37-0.889-0.143-1.619,0.321-2.31c0.434-0.791,0.836-1.684,1.402-2.403
	c0.565-0.719,0.689-1.419,0.554-2.267c-0.106-0.743,0.02-1.444,0.249-2.177c0.487-1.362,0.741-2.765,0.964-4.27
	c0.141-1.038,0.454-2.237,1.324-3.046c0.696-0.648,1.202-1.57,2.3-1.229c0.863,0.303,0.927,1.28,1.066,2.127
	c0.106,0.743,0.11,1.518,0.493,2.07c0.384,0.553,0.533,1.062,0.509,1.733c-0.135,1.812,0.705,5.442,1.518,7.086
	c0.224,0.379,0.517,0.625,0.84,0.975c0.616,0.595,0.622,1.368,0.844,1.745c0.443,0.757,1.234,1.189,2.055,1.725
	c0.689,0.463,1.654,0.733,1.851,1.783c0.139,0.846,0.576,0.828,0.809,0.869c1.078-0.093,1.455,1.568,2.565,1.576
	c0.335,0.012,0.894,0.402,1.013,0.811c0.341,0.788,0.898,1.178,1.63,1.406c0.964,0.271,1.888,0.775,2.928,0.915
	c3.346,0.461,6.555,0.075,9.7-1.288c1.878-0.771,3.654-1.514,5.557-1.073c0.804,0.096,1.049-0.196,1.223-0.358
	c0.351-0.323,0.714-0.209,0.948-0.167c0.6,0.156,1.212-0.023,1.312-0.054c1.429-0.418,2.755-0.805,4.064-1.631
	c0.624-0.516,1.44-0.754,2.225-1.094c0.685-0.312,1.338-0.724,1.537-1.559c0.241-1.068,0.938-1.714,1.767-2.289
	c1.454-1.091,2.877-2.281,4.402-3.503c1.179-0.897,1.1-1.54,1.113-1.876c0.168-0.938,0.571-1.828,1.473-2.536
	c0.449-0.354,0.606-0.952,0.925-1.377c0.649-1.188,1.299-2.373,2.052-3.591c0.679-1.086,1.92-1.005,2.584,0.13
	c0.03,0.102,0.06,0.203,0.089,0.306c0.663,1.134,1.227,2.299,1.891,3.434c1.993,3.403,4.329,5.709,4.875,6.436
	c0.678,0.801,1.384,1.7,2.163,2.471c1.263,1.289,2.251,2.772,3.863,3.739c2.596,1.679,5.015,3.519,7.869,4.565
	c1.858,0.675,3.051,2.097,3.914,2.396c0.863,0.302,1.254-0.256,1.002-0.736c-0.089-0.307-0.412-0.654-0.399-0.99
	c-0.12-0.409,0.433-0.793,1.775-0.742c0.672,0.025,1.445,0.02,2.004,0.409c0.264,0.146,0.911,0.841-0.11,1.141
	c-1.02,0.299-0.608,0.953-0.445,1.129c0.678,0.798,1.348,0.823,1.787,0.804c0.233,0.042,0.48-0.249,0.421-0.453
	c-0.019-0.439-0.271-0.92,0.343-1.098c0.613-0.18,1.254-0.258,1.595,0.529c0.15,0.51-0.434,0.791-0.52,1.26
	c-0.07,0.131-0.054,0.568,0.794,0.434c0.946-0.168,1.925-0.232,2.847,0.273c0.265,0.143,0.567,0.053,0.804,0.096
	c1.736-0.508,3.664,0.035,5.381-0.91c0.38-0.222,0.919-0.27,1.387-0.184c0.966,0.271,1.428-0.418,1.819-0.975
	c0.175-0.162,0.378-0.222,0.582-0.281c1.108,0.008,2.119,0.045,3.097-0.021c0.978-0.064,1.367-0.619,1.542-0.783
	c0.974-0.838,2.186-0.86,3.408-1.219c0.713-0.209,1.266-0.593,1.73-1.283c0.245-0.293,0.726-0.543,1.104-0.764
	c0.51-0.15,1.049-0.197,1.562-0.347c0.784-0.341,1.602-0.58,2.224-1.097c0.277-0.189,1.424-1.189,1.833-1.311
	c0.96-0.502,1.758-1.18,2.528-1.959c1.291-1.263,2.935-2.076,3.964-3.485c0.144-0.264,0.955-1.276,1.886-1.882
	c0.755-0.442,1.453-1.089,2.239-1.43c1.134-0.664,2.078-1.604,2.624-2.76c0.506-0.924,1.04-1.746,1.736-2.392
	c0.449-0.354,0.739-0.881,0.926-1.377c1.372-2.509,3.137-4.796,5.066-6.911c0.421-0.455,0.9-0.707,1.086-1.205
	c1.433-2.301,3.478-4.008,5.335-5.992c0.668-0.748,1.496-1.322,1.768-2.289c0.145-0.264,0.007-1.109,0.5-1.696
	c1.23-1.468,2.169-3.183,3.798-4.435c1.35-1.061,2.306-2.336,3.069-3.889c1.252-2.912,3.09-5.336,4.737-8.032
	C725.63,273.456,725.795,271.748,724.779,272.82z M644.424,245.391c0.116-0.365,0.493-0.589,0.608-0.953
	c-0.031-0.103,0.204-0.061,0.233,0.042c0.119,0.407-0.271,0.966-0.547,1.155C644.513,245.697,644.382,245.625,644.424,245.391z
	 M588.824,234.421c0.101-0.031,0.232,0.041,0.264,0.145c0.029,0.102-0.043,0.232-0.146,0.263c-0.102,0.03-0.234-0.041-0.263-0.144
	C588.751,234.552,588.72,234.449,588.824,234.421z M582.68,235.001c0.101-0.031,0.233,0.041,0.264,0.144
	c0.03,0.102-0.042,0.233-0.145,0.264s-0.234-0.042-0.264-0.144C582.505,235.16,582.577,235.03,582.68,235.001z M578.074,229.48
	c0.102-0.03,0.234,0.042,0.265,0.144c0.03,0.104-0.042,0.234-0.146,0.266c-0.102,0.03-0.232-0.043-0.264-0.145
	C577.899,229.641,577.971,229.512,578.074,229.48z M587.271,265.443c0.102-0.03,0.232,0.042,0.263,0.145
	c0.029,0.103-0.041,0.234-0.144,0.265s-0.234-0.042-0.264-0.145C587.096,265.606,587.171,265.473,587.271,265.443z M527.136,287.034
	c-0.103,0.029-0.233-0.042-0.265-0.146c-0.03-0.103,0.041-0.233,0.145-0.263c0.103-0.031,0.234,0.041,0.263,0.145
	C527.311,286.872,527.237,287.004,527.136,287.034z M524.3,275.458c-0.203,0.059-0.468-0.086-0.527-0.289
	c-0.061-0.204,0.085-0.469,0.289-0.527c0.203-0.061,0.469,0.084,0.528,0.289C524.648,275.135,524.607,275.368,524.3,275.458z
	 M530.512,278.512c-0.203,0.059-0.337-0.014-0.396-0.217c-0.06-0.204,0.013-0.334,0.217-0.395s0.333,0.012,0.395,0.215
	C530.788,278.32,530.717,278.454,530.512,278.512z M531.644,270.65c-0.102,0.03-0.232-0.042-0.265-0.146
	c-0.029-0.102,0.043-0.232,0.145-0.264c0.103-0.029,0.233,0.043,0.265,0.145C531.716,270.517,531.747,270.622,531.644,270.65z
	 M545.361,235.399c0.101-0.029,0.233,0.043,0.265,0.145c0.029,0.104-0.043,0.234-0.146,0.266c-0.101,0.031-0.233-0.041-0.263-0.146
	C545.185,235.562,545.26,235.43,545.361,235.399z M545.89,242.887c0.203-0.06,0.468,0.086,0.526,0.29
	c0.061,0.205-0.084,0.469-0.288,0.528c-0.204,0.059-0.468-0.086-0.528-0.289C545.439,243.243,545.584,242.977,545.89,242.887z
	 M543.013,240.629c0.102-0.028,0.234,0.042,0.265,0.146c0.029,0.102-0.041,0.233-0.144,0.263c-0.102,0.03-0.234-0.042-0.264-0.144
	C542.84,240.792,542.912,240.659,543.013,240.629z M537.75,230.206c0.102-0.029,0.232,0.043,0.264,0.146
	c0.029,0.104-0.041,0.234-0.144,0.264c-0.103,0.031-0.234-0.041-0.265-0.145C537.575,230.37,537.647,230.238,537.75,230.206z
	 M539.607,239.964c0.102-0.029,0.132,0.072,0.132,0.072c0.03,0.102-0.072,0.131-0.072,0.131c-0.102,0.031-0.13-0.071-0.13-0.071
	C539.506,239.995,539.607,239.964,539.607,239.964z M538.906,239.838c0.103-0.03,0.234,0.042,0.264,0.144
	c0.03,0.102-0.042,0.232-0.145,0.264s-0.232-0.041-0.264-0.145C538.629,240.031,538.804,239.867,538.906,239.838z M539.117,240.552
	c0.203-0.06,0.364,0.115,0.394,0.216c0.061,0.204-0.114,0.366-0.215,0.396c-0.204,0.06-0.367-0.114-0.396-0.216
	C538.839,240.743,538.912,240.612,539.117,240.552z M540.778,244.716c0.029,0.102-0.012,0.337-0.115,0.367
	c-0.101,0.029-0.233-0.042-0.293-0.246c-0.03-0.104,0.013-0.336,0.114-0.367C540.586,244.44,540.748,244.615,540.778,244.716z
	 M540.158,246.007c0.103-0.03,0.235,0.041,0.263,0.145c0.03,0.102-0.039,0.232-0.144,0.263c-0.102,0.03-0.232-0.042-0.263-0.144
	C539.954,246.065,540.057,246.036,540.158,246.007z M545.499,272.575c0.102-0.029,0.233,0.042,0.264,0.145
	c0.03,0.104-0.041,0.234-0.145,0.265c-0.101,0.03-0.233-0.042-0.265-0.146C545.324,272.738,545.499,272.575,545.499,272.575z
	 M533.502,244.077c0.102-0.029,0.234,0.043,0.265,0.146s-0.042,0.233-0.146,0.265c-0.102,0.03-0.232-0.042-0.265-0.146
	C533.328,244.24,533.4,244.108,533.502,244.077z M536.121,265.133c0.204-0.06,0.335,0.013,0.395,0.216
	c0.06,0.204-0.013,0.336-0.216,0.395c-0.204,0.061-0.336-0.012-0.395-0.217C535.844,265.323,536.018,265.161,536.121,265.133z
	 M536.01,270.812c0.104-0.029,0.235,0.042,0.265,0.145c0.031,0.103-0.041,0.233-0.145,0.264c-0.102,0.03-0.234-0.042-0.264-0.145
	C535.836,270.973,535.909,270.843,536.01,270.812z M554.978,266.367c-0.26,0.629-0.518,1.26-0.178,2.046
	c0.031,0.102,0.091,0.305,0.019,0.438c-0.344,1.097-0.146,2.15-0.49,3.244c-0.187,0.499-0.374,0.996-0.021,1.447
	c0.03,0.101,0.06,0.204,0.089,0.306c-0.14,1.038-0.045,2.116-0.184,3.155c-0.011,0.336-0.676,3.742-0.76,4.209
	c-2.463,12.02-4.516,17.494-6.09,20.059c-1.605,2.463-3.423,1.556-3.831-0.982c-0.264-2.029-0.553-4.158-0.405-6.307
	c0.067-0.904-0.069-1.751-0.074-2.523c0.353-8.633,1.944-15.301,2.463-16.56c0.703-1.757,1.175-3.557,1.745-5.384
	c0.717-2.095,2.254-6.309,4.688-6.69c1.254-0.257,2.226,0.788,2.578,1.239C555.245,264.628,555.279,265.505,554.978,266.367z
	 M549.51,235.958c0.101-0.029,0.233,0.043,0.265,0.145c0.03,0.102-0.043,0.233-0.146,0.264c-0.102,0.029-0.234-0.042-0.265-0.145
	C549.336,236.122,549.408,235.988,549.51,235.958z M548.814,236.604c-0.204,0.059-0.335-0.012-0.396-0.216
	c-0.06-0.204,0.014-0.337,0.216-0.395c0.204-0.06,0.337,0.011,0.396,0.216C549.091,236.413,549.018,236.544,548.814,236.604z
	 M550.107,237.997c-0.306,0.09-0.57-0.053-0.659-0.359c-0.088-0.306,0.055-0.569,0.361-0.66c0.305-0.088,0.568,0.056,0.658,0.361
	C550.558,237.645,550.312,237.937,550.107,237.997z M548.988,231.901c-0.102,0.03-0.234-0.04-0.265-0.144
	c-0.03-0.102,0.042-0.233,0.146-0.265c0.101-0.029,0.233,0.043,0.265,0.145C549.163,231.742,549.091,231.872,548.988,231.901z
	 M560.841,265.204c-0.102,0.03-0.233-0.041-0.262-0.145c-0.03-0.103,0.041-0.232,0.144-0.262c0.103-0.03,0.232,0.04,0.264,0.143
	C561.015,265.044,560.942,265.175,560.841,265.204z M564.956,275.851c-0.103,0.03-0.234-0.04-0.265-0.144
	c-0.031-0.104,0.041-0.233,0.145-0.264c0.103-0.03,0.233,0.042,0.265,0.143C565.232,275.66,565.159,275.792,564.956,275.851z
	 M556.485,242.002c-0.103,0.029-0.233-0.042-0.265-0.146c-0.03-0.101,0.041-0.232,0.145-0.264c0.103-0.029,0.232,0.043,0.265,0.146
	C556.659,241.842,556.588,241.973,556.485,242.002z M558.304,241.026c-0.071,0.132-0.145,0.264-0.317,0.425
	c-0.177,0.163-0.351,0.323-0.524,0.485c-0.203,0.061-0.54,0.049-0.426-0.318c0.217-0.395,0.433-0.791,1.045-0.971
	C558.39,240.559,558.345,240.793,558.304,241.026z M557.685,233.233c-0.204,0.061-0.467-0.086-0.527-0.289
	c-0.061-0.205,0.083-0.469,0.288-0.528s0.468,0.085,0.527,0.289C558.062,233.012,557.889,233.173,557.685,233.233z M571.346,273.096
	c-0.203,0.06-0.335-0.013-0.395-0.217c-0.061-0.203,0.012-0.336,0.216-0.396c0.204-0.06,0.336,0.014,0.396,0.218
	C571.622,272.902,571.448,273.065,571.346,273.096z M568.226,242c-0.103,0.029-0.132-0.072-0.132-0.072l0.072-0.132
	c0.102-0.029,0.131,0.072,0.131,0.072L568.226,242z M574.937,261.522c-0.102,0.028-0.265-0.145-0.425-0.318
	c-0.09-0.307-0.149-0.51-0.048-0.541c0.102-0.029,0.264,0.144,0.426,0.319C575.052,261.157,575.039,261.491,574.937,261.522z
	 M576.778,252.675c-0.409,0.12-0.673-0.023-1.038-0.139c-0.264-0.145-0.615-0.595-0.34-0.788c0.174-0.16,0.276-0.19,0.48-0.25
	c0.305-0.089,0.497,0.187,0.628,0.259c0.191,0.277,0.426,0.318,0.659,0.361C577.446,251.927,577.493,252.468,576.778,252.675z
	 M573.311,229.102c-0.102,0.031-0.232-0.041-0.265-0.144c-0.029-0.103,0.043-0.235,0.145-0.266c0.103-0.03,0.234,0.042,0.265,0.146
	C573.486,228.94,573.414,229.074,573.311,229.102z M583.663,262.954c-0.102,0.031-0.233-0.041-0.265-0.144
	c-0.03-0.103,0.042-0.233,0.146-0.264c0.101-0.03,0.233,0.042,0.263,0.144C583.837,262.794,583.765,262.926,583.663,262.954z
	 M583.862,257.581c-0.103,0.03-0.233-0.041-0.264-0.145c-0.03-0.101,0.041-0.234,0.145-0.266c0.102-0.028,0.233,0.043,0.264,0.146
	C584.036,257.418,583.963,257.552,583.862,257.581z M638.873,251.779c-0.101,0.029-0.232-0.043-0.264-0.145
	c-0.029-0.102,0.043-0.233,0.145-0.265c0.102-0.03,0.235,0.042,0.264,0.146C639.047,251.616,638.974,251.749,638.873,251.779z
	 M637.423,246.444c-0.102,0.029-0.336-0.012-0.396-0.215c-0.059-0.205,0.014-0.337,0.216-0.396c0.102-0.031,0.336,0.012,0.396,0.217
	C637.7,246.253,637.524,246.413,637.423,246.444z M634.28,230.417c-0.102,0.03-0.232-0.041-0.263-0.146
	c-0.029-0.102,0.042-0.233,0.144-0.263c0.103-0.03,0.234,0.041,0.264,0.144C634.455,230.256,634.385,230.387,634.28,230.417z
	 M642.347,256.079c-0.205,0.06-0.233-0.043-0.265-0.146c-0.089-0.306-0.312-0.685-0.004-0.774c0.202-0.059,0.232,0.044,0.263,0.146
	c0.06,0.205-0.012,0.335,0.078,0.643L642.347,256.079z M642.887,256.031c-0.205,0.06-0.337-0.012-0.397-0.216
	c-0.059-0.203,0.014-0.335,0.219-0.396c0.203-0.06,0.334,0.013,0.393,0.216C643.162,255.84,643.091,255.971,642.887,256.031z
	 M637.328,227.201c-0.102,0.028-0.234-0.042-0.264-0.146c-0.03-0.102,0.042-0.234,0.145-0.264c0.103-0.031,0.232,0.041,0.264,0.144
	C637.502,227.038,637.531,227.141,637.328,227.201z M643.811,241.031c-0.102,0.03-0.233-0.042-0.265-0.146
	c-0.03-0.102,0.042-0.234,0.146-0.266c0.101-0.029,0.232,0.042,0.264,0.146C643.985,240.868,643.915,241,643.811,241.031z
	 M643.178,238.113c-0.203,0.06-0.467-0.085-0.527-0.288c-0.06-0.205,0.085-0.469,0.287-0.529c0.207-0.059,0.472,0.086,0.53,0.289
	C643.528,237.789,643.383,238.053,643.178,238.113z M642.012,231.477c-0.204,0.061-0.335-0.012-0.395-0.217
	c-0.059-0.204,0.012-0.336,0.216-0.395c0.204-0.061,0.336,0.012,0.396,0.217C642.289,231.285,642.216,231.418,642.012,231.477z
	 M634.975,195.324c0.034,0.878-0.254,1.404-1.143,1.776c-0.306,0.088-0.701-0.129-0.688-0.464c0.054-0.568,0.109-1.14,0.397-1.666
	C634.209,194.221,634.897,194.682,634.975,195.324z M632.893,189.732c0.48-0.252,0.96-0.503,1.339-0.725
	c0.409-0.12,0.773-0.005,0.792,0.433c0.089,0.307-0.127,0.702-0.403,0.894c-0.479,0.251-0.989,0.399-1.751,0.068
	C632.605,190.26,632.618,189.923,632.893,189.732z M629.232,187.813c0.084-0.47,0.624-0.516,1.092-0.431
	c0.499,0.187,1.067,0.241,1.567,0.428l0.13,0.072c0.19,0.276,0.006,0.772-0.33,0.761c-0.306,0.089-0.643,0.077-0.947,0.167
	c-0.205,0.06-0.511,0.149-0.815,0.238c-0.308,0.09-0.703-0.126-0.792-0.433C629.177,188.384,629.09,188.076,629.232,187.813z
	 M625.979,179.351c0.102-0.03,0.335,0.012,0.395,0.218c0.062,0.201-0.012,0.334-0.217,0.394c-0.1,0.029-0.333-0.013-0.393-0.216
	C625.703,179.543,625.775,179.411,625.979,179.351z M624.76,180.482c0.101-0.029,0.232,0.042,0.264,0.146
	c0.029,0.102-0.043,0.234-0.146,0.264c-0.102,0.029-0.234-0.042-0.263-0.146C624.586,180.645,624.556,180.542,624.76,180.482z
	 M627.222,191.17c0.131,0.071,0.266,0.144,0.324,0.348c0.161,0.176-0.012,0.336-0.042,0.235c-0.233-0.043-0.365-0.116-0.396-0.218
	C626.918,191.26,627.222,191.17,627.222,191.17z M626.013,193.848c-0.03-0.1,0.175-0.16,0.205-0.059s0.19,0.276,0.119,0.408
	c0.031,0.102-0.041,0.233-0.205,0.06C626.133,194.258,626.072,194.053,626.013,193.848z M620.835,201.126
	c0.102-0.029,0.232,0.042,0.263,0.145c0.03,0.102-0.042,0.233-0.144,0.264c-0.104,0.029-0.234-0.043-0.264-0.145
	C620.76,201.258,620.73,201.155,620.835,201.126z M619.494,201.848c0.072-0.131,0.277-0.189,0.349-0.322
	c0.205-0.061,0.468,0.084,0.09,0.307c-0.07,0.129-0.274,0.189-0.379,0.219C619.483,202.185,619.321,202.011,619.494,201.848z
	 M618.132,203.245c0.101-0.03,0.232,0.042,0.264,0.145c0.029,0.102-0.043,0.234-0.145,0.265c-0.103,0.03-0.233-0.042-0.264-0.144
	C617.855,203.438,617.927,203.305,618.132,203.245z M615.177,252.18c0.144-0.265,0.492-0.588,0.672,0.024
	c0.118,0.409,0.077,0.642,0.051,1.313c-0.011,0.336-0.317,0.426-0.612,0.178C614.907,253.144,614.99,252.677,615.177,252.18z
	 M613.152,250.557c0.101-0.03,0.131,0.073,0.131,0.073l-0.072,0.13l-0.131-0.07C613.079,250.69,613.049,250.587,613.152,250.557z
	 M614.168,258.568c0.203-0.06,0.335,0.011,0.439-0.018c0.304-0.09,0.468,0.083,0.059,0.204c-0.205,0.06-0.379,0.221-0.538,0.047
	C614.095,258.698,614.168,258.568,614.168,258.568z M618.362,270.63c-0.156,0.6-0.415,1.229-1.129,1.436
	c-1.326,0.389-1.451-0.791-1.336-1.156c0.127-0.703,0.547-1.158,1.099-1.541c0.276-0.191,0.714-0.209,0.978-0.064
	C618.297,269.652,618.519,270.03,618.362,270.63z M637.212,306.647c-0.311-0.684-0.316-1.456-1.034-2.021
	c-0.162-0.174-0.365-0.114-0.54,0.048c-0.378,0.222-0.624,0.517-1.001,0.737c-0.38,0.221-0.571-0.055-0.354-0.449
	c1.1-1.541,0.957-3.161-0.162-4.715c-0.544-0.728-0.813-1.646-1.185-2.534c-0.251-0.481-0.298-1.021-0.143-1.619
	c0.144-0.265,0.127-0.703-0.064-0.979c-0.341-0.785-0.856-1.41-1.194-2.195c-0.312-0.686-0.389-1.326-0.629-2.143
	c-0.087-0.306-0.048-0.537-0.004-0.773c0.373-0.995,0.688-2.193,1.66-3.033c0.275-0.191,0.713-0.209,0.876-0.033
	c0.88,0.737,1.281,1.729,1.713,2.818c0.088,0.307,0.352,0.451,0.688,0.465c1.11,0.007,2.249,0.117,3.491,0.195
	c0.234,0.043,0.498,0.188,0.658,0.361c0.414,0.654,0.989,1.482,1.533,2.21c0.031,0.101,0.193,0.275,0.426,0.317
	c0.76,0.332,1.619-0.141,2.394-0.146c0.232,0.042,0.424,0.318,0.353,0.45c-0.145,0.263-0.361,0.658-0.534,0.819
	c-0.175,0.162-0.216,0.395-0.055,0.57c0.119,0.408,0.27,0.917,0.387,1.327c0.062,0.203,0.021,0.437-0.155,0.598
	c-0.552,0.384-0.871,0.808-0.428,1.565c0.061,0.203,0.294,0.246,0.47,0.084c0.379-0.221,0.655-0.412,1.031-0.635
	c0.584-0.279,1.109,0.008,1.289,0.62c0.018,0.438,0.064,0.978-0.05,1.344c-0.145,0.264-0.553,0.384-0.931,0.604
	c-0.204,0.059-0.274,0.191-0.216,0.395c0.088,2.189-0.026,2.556-1.191,3.118c-0.204,0.06-0.366-0.114-0.396-0.216
	c0.085-0.468,0.098-0.805,0.11-1.141c0.151-1.371-0.466-1.968-1.91-1.986c-0.438,0.017-0.905-0.068-1.344-0.05
	c-0.234-0.042-0.407,0.119-0.45,0.353c-0.041,0.234-0.085,0.469-0.025,0.674c-0.041,0.233-0.114,0.365-0.317,0.425
	c-0.787,0.341-1.229-0.416-1.961-0.645c-0.265-0.144-0.54,0.046-0.552,0.384c-0.127,0.701-0.051,1.342,0.916,1.613
	c0.364,0.115,0.82,0.535,1.012,0.812c0.707,0.899,0.525,2.17-0.478,2.907C638.327,307.428,637.492,307.23,637.212,306.647z
	 M628.875,259.246c0.205-0.061,0.337,0.012,0.396,0.216c0.06,0.203-0.014,0.336-0.217,0.396c-0.204,0.059-0.337-0.014-0.396-0.217
	C628.599,259.437,628.671,259.305,628.875,259.246z M627.524,255.764c-0.03-0.101,0.071-0.131,0.071-0.131
	c0.103-0.028,0.133,0.07,0.133,0.07c0.029,0.104-0.072,0.133-0.072,0.133S627.553,255.869,627.524,255.764z M629.98,244.856
	c-0.03-0.102,0.041-0.234,0.144-0.264c0.102-0.029,0.234,0.041,0.264,0.145c0.031,0.102-0.041,0.234-0.144,0.264
	C630.142,245.032,630.01,244.959,629.98,244.856z M640.72,311.823c-0.275,0.191-0.612,0.18-0.936-0.168
	c-0.325-0.35-0.342-0.786-0.168-0.948c0.275-0.19,0.612-0.181,0.938,0.169C640.846,311.122,640.866,311.559,640.72,311.823z
	 M650.11,309.85c-0.288,0.527-0.547,1.155-1.026,1.407c-0.379,0.222-0.816,0.239-1.193,0.46c-0.073,0.132-0.392,0.557-1.062,0.532
	c-0.673-0.024-1.272-0.18-1.842-0.235c-0.833-0.199-0.952-0.608-0.549-1.501c0.071-0.132,0.041-0.233,0.012-0.335
	c0.042-0.234-0.252-0.48-0.425-0.32c-0.307,0.09-0.48,0.254-0.553,0.385c-0.595,0.617-1.458,0.316-2.22-0.016
	c-0.732-0.229-1.392-0.589-1.63-1.405c-0.12-0.407-0.299-1.021,0.312-1.2c0.307-0.089,0.672,0.025,0.965,0.271
	c0.133,0.073,0.295,0.246,0.456,0.42c0.162,0.175,0.395,0.217,0.6,0.157c0.305-0.09,0.582-0.282,0.919-0.271
	c1.078-0.094,1.864-0.435,2.573-1.418c0.463-0.689,1.075-0.868,1.938-0.568c0.497,0.189,1.095,0.347,1.696,0.502
	c0.335,0.013,0.527,0.288,0.514,0.625c-0.013,0.336,0.077,0.642,0.167,0.948c0.09,0.304,0.281,0.581,0.502,0.959
	C650.195,309.382,650.255,309.587,650.11,309.85z M631.86,246.743c-0.146,0.266-0.274,0.19-0.265-0.146
	c0.013-0.333,0.128-0.7,0.271-0.964c0.102-0.03,0.204-0.06,0.233,0.042C632.221,246.083,632.109,246.449,631.86,246.743z
	 M633.742,244.088c-0.203,0.06-0.334-0.012-0.395-0.218c-0.06-0.203,0.014-0.334,0.217-0.393c0.203-0.061,0.334,0.012,0.395,0.215
	C634.121,243.867,633.947,244.028,633.742,244.088z M631.271,234.51c-0.217,0.396-0.697,0.646-0.943,0.939
	c-0.521,0.486-0.679,1.086-0.267,1.74c0.857,1.41,0.572,2.712,0.014,4.205c-0.85,2.02-1.301,4.258-1.887,6.422
	c-0.481,0.25-0.989,0.399-1.47,0.652c-0.043,0.232-0.156,0.598-0.097,0.803c0.668,1.909,0.067,3.636-1.105,5.307
	c-0.75,1.217-1.37,2.508-1.757,3.837c-0.145,0.264-0.36,0.661-0.373,0.995c-0.147,2.148-1.714,3.604-2.623,5.42
	c-0.217,0.396-0.667,0.748-1.164,0.564c-0.498-0.188-0.461-1.196-0.009-1.549c0.419-0.455,1.163-0.562,1.423-1.192
	c0.072-0.131-0.077-0.641-0.892-0.401c-0.816,0.239-1.707,0.608-2.462,1.051c-0.479,0.251-0.533,0.822-0.59,1.393
	c-0.092,1.575-0.164,1.707-1.472,2.535c-0.176,0.16-0.439,0.018-0.527-0.29c0.013-0.335-0.049-0.539-0.007-0.772
	c0.157-0.601,0.111-1.141-0.2-1.825s-0.448-1.53-0.585-2.376c-0.019-0.438,0.168-0.936,0.416-1.229
	c0.289-0.528,1.002-0.735,1.457-0.315c0.426,0.317,0.647,0.696,1.042,0.914c0.616,0.594,1.781,0.031,0.812-1.014
	c-1.061-1.35-0.417-3.311-1.375-4.691c-0.162-0.174,0.127-0.703,0.271-0.966c0.565-0.72,1.322-1.163,2.271-1.329
	c1.182-0.125,1.571-0.684,1.577-1.792c-0.047-0.538-0.123-1.182-0.142-1.62c-0.028-0.102-0.058-0.204-0.16-0.174
	c-0.498-0.187-0.744,0.107-0.758,0.442c-0.108,1.14-0.704,1.757-1.855,1.983c-0.102,0.029-0.233-0.042-0.365-0.114
	c-0.454-0.421-0.939-0.943-1.426-1.466c-0.131-0.072-0.089-0.306-0.019-0.438c0.246-0.293,0.492-0.588,0.84-0.911
	c0.175-0.161,0.085-0.468-0.148-0.51c-0.672-0.024-1.138-0.108-1.709-0.164c-0.102,0.03-0.265-0.145-0.191-0.276
	c0.169-0.936,1.015-1.071,1.742-1.616c0.071-0.131,0.143-0.265-0.018-0.438c-0.16-0.175-0.324-0.349-0.485-0.522
	c-0.323-0.35-0.647-0.697-0.767-1.104c-0.118-0.407-0.167-0.948-0.052-1.312c0.518-1.26-0.603-2.814,0.484-4.021
	c1.014-1.071,0.964-2.387,0.503-3.579c-0.593-1.268-0.412-2.539,0.002-3.768c0.187-0.498,0.242-1.068,0.226-1.506
	c0.008-1.108,0.224-1.504,0.675-1.858c0.449-0.354,1.002-0.735,1.057-1.308c-0.03-0.102,0.012-0.335,0.318-0.425
	c0.204-0.06,0.407-0.118,0.642-0.077c0.265,0.144,0.485,0.521,0.778,0.768c0.353,0.451,0.604,0.93,1.03,1.248
	c0.793,0.434,1.59-0.242,2.042-0.597c0.522-0.484,1.014-1.071,1.272-1.7c0.114-0.365-0.106-0.744-0.442-0.759
	c-0.468-0.084-0.786,0.342-1.267,0.595c-0.93,0.604-1.837,0.537-2.452-0.059c-0.162-0.174-0.354-0.449-0.443-0.758
	c-0.061-0.203-0.324-0.348-0.498-0.184c-0.175,0.159-0.38,0.22-0.583,0.279c-1.079,0.095-1.565-0.427-1.323-1.494
	c0.271-0.967,0.54-1.932,0.915-2.927c0.042-0.235,0.215-0.396,0.391-0.559c0.175-0.161,0.51-0.147,0.568,0.056
	c0.371,0.889,0.713,1.674,1.052,2.461c0.091,0.306,0.499,0.186,0.541-0.048c0.083-0.467-0.063-0.978,0.081-1.241
	c0.215-0.396,0.564-0.719,0.882-1.145c0.071-0.13,0.144-0.265,0.115-0.366c-0.167-0.948-1.463-0.458-1.701-1.272
	c-0.18-0.615,0.3-0.864,0.618-1.289c0.175-0.162,0.187-0.498,0.024-0.672c-0.06-0.205-0.25-0.48-0.209-0.715
	c-0.047-0.539-0.094-1.078-0.009-1.549c0.229-0.73,0.589-1.391,0.92-2.15c0.144-0.264,0.318-0.426,0.624-0.516
	c0.204-0.059,0.54-0.047,0.745-0.105c0.203-0.061,0.407-0.119,0.552-0.383c0.637-0.852,0.47-1.8,0.333-2.645
	c-0.077-0.643,0.182-1.271,0.632-1.625s1.062-0.533,1.675-0.712c0.203-0.06,0.377-0.222,0.419-0.454
	c0.186-0.499,0.343-1.098,0.631-1.625c0.216-0.396,0.433-0.792,0.08-1.241c-0.484-0.522-0.995-0.374-1.475-0.122
	c-0.655,0.412-1.327,0.388-2.06,0.16c-0.364-0.115-0.742,0.107-0.857,0.473c-0.241,1.067-0.513,2.033-0.652,3.069
	c-0.042,0.235-0.083,0.47-0.259,0.631c-0.246,0.293-1.337,0.724-1.215-0.752c0.096-0.804,0.398-1.666,0.495-2.47
	c0.084-0.468,0.301-0.863,0.387-1.332c0.168-0.936,0.528-1.594,1.417-1.965c1.02-0.299,1.422-1.191,1.988-1.91
	c0.144-0.264,0.462-0.689,0.373-0.996c-0.299-1.021,0.193-1.606,0.948-2.05c0.45-0.353,0.901-0.708,0.723-1.319
	c-0.208-0.713,0.181-1.271,0.572-1.826c0.245-0.295,0.726-0.546,1.062-0.534c0.233,0.042,0.438-0.018,0.57,0.056
	c0.804,0.096,0.808,0.87,0.663,1.133c-0.128,0.703-0.709,0.984-1.352,1.062c-0.743,0.108-0.798,0.677-0.943,0.938
	c-0.186,0.5-0.27,0.967-0.459,1.465c-0.144,0.264,0.18,0.611,0.487,0.522c0.306-0.091,0.479-0.251,0.726-0.544
	c0.217-0.396,0.271-0.966,0.62-1.289c0.245-0.294,0.816-0.238,0.935,0.168c0.061,0.205,0.27,0.919-0.397,1.668
	c-0.492,0.587-1.045,0.971-1.538,1.559c-0.349,0.321-0.667,0.748-0.985,1.174c-0.246,0.293-0.3,0.862-0.109,1.139
	c0.161,0.174,0.353,0.449,0.515,0.625c0.293,0.246,0.588,0.492,0.879,0.738c0.265,0.145,0.631,0.258,0.938,0.168
	c0.408-0.119,0.715-0.207,1.093-0.429c0.582-0.281,0.913-1.043,0.704-1.756c-0.18-0.612-0.257-1.254-0.436-1.866
	c-0.09-0.305-0.048-0.54,0.096-0.803c0.464-0.689,1.088-1.204,1.933-1.342c0.643-0.076,1.391,2.475,0.317,4.115
	c-0.39,0.559-0.546,1.158-0.235,1.842c0.06,0.203-0.085,0.467-0.228,0.731c-1.407,1.63-1.563,2.229-1.774,3.4
	c-0.242,1.067,0.801,1.981-0.213,3.052c-0.596,0.617-0.705,1.756-0.976,2.723c-0.042,0.234,0.048,0.538,0.18,0.611
	c0.292,0.246,0.557,0.391,0.851,0.637c0.396,0.217,0.515,0.625,0.431,1.093c-0.242,1.067-0.22,2.28-0.695,3.306
	c-0.114,0.365,0.107,0.743,0.516,0.625c0.407-0.119,0.581-0.281,0.857-0.474c1.075-0.868,1.987-1.909,2.741-3.127
	c0.462-0.688,0.947-0.168,0.688,0.463c-0.271,0.966-1.098,1.54-1.706,2.493c-0.896,1.48-1.893,2.99-1.459,4.858
	c0.061,0.203-0.024,0.672-0.301,0.864c-0.654,0.41-1.382,0.957-1.626,1.25c-0.247,0.293,0.005,0.773-0.391,0.557
	c-0.397-0.216-0.791-0.434-1.287-0.619c-0.133-0.07-0.336-0.013-0.38,0.223c-0.085,0.467-0.198,0.831-0.313,1.197
	c-0.217,0.396-0.463,0.689-0.811,1.012c-0.176,0.163-0.115,0.366,0.149,0.51c0.497,0.187,0.965,0.271,1.462,0.459
	c0.233,0.041,0.439-0.019,0.743-0.108c0.451-0.353,0.8-0.676,1.25-1.029c0.275-0.192,0.714-0.21,0.906,0.065
	c0.264,0.146,0.454,0.421,0.615,0.596c0.294,0.246,0.618,0.594,0.575,0.828C632.535,231.261,632.268,233,631.271,234.51z
	 M633.184,211.907c0.03,0.104-0.012,0.337-0.216,0.397c-0.103,0.03-0.336-0.013-0.396-0.218c-0.03-0.102,0.013-0.334,0.217-0.395
	C632.993,211.634,633.125,211.704,633.184,211.907z M631.162,212.946c0.03,0.1-0.072,0.13-0.072,0.13
	c-0.101,0.028-0.131-0.07-0.131-0.07c-0.03-0.103,0.071-0.134,0.071-0.134C631.132,212.841,631.162,212.946,631.162,212.946z
	 M629.493,228.053c0.028,0.102-0.043,0.233-0.146,0.264c-0.103,0.029-0.233-0.043-0.264-0.145s0.042-0.234,0.146-0.264
	C629.36,227.981,629.463,227.951,629.493,228.053z"/>
<path fill="#B39346" d="M663.072,275.042c-0.191-0.275-0.528-0.288-0.583,0.281c-0.054,0.57-0.007,1.109-0.062,1.682
	c-0.041,0.232,0.223,0.377,0.426,0.316C663.945,276.891,663.886,276.686,663.072,275.042z"/>
<circle fill="#B39346" cx="662.805" cy="272.242" r="0.212"/>
<path fill="#B39346" d="M662.202,266.77c-0.45,0.353-0.403,0.892-0.285,1.301c0.251,0.479,0.631,0.26,0.674,0.025
	c0.216-0.396,0.373-0.997-0.287-1.356C662.406,266.711,662.273,266.638,662.202,266.77z"/>
<circle fill="#B39346" cx="662.173" cy="264.784" r="0.32"/>
<circle fill="#B39346" cx="662.036" cy="254.854" r="0.106"/>
<circle fill="#B39346" cx="661.976" cy="250.112" r="0.425"/>
<path fill="#B39346" d="M661.922,260.216c0.233-0.021,0.439,0.152,0.46,0.387c0.021,0.232-0.153,0.439-0.386,0.461
	c-0.236,0.02-0.441-0.154-0.462-0.387C661.513,260.442,661.686,260.235,661.922,260.216z"/>
<path fill="#B39346" d="M504.747,329.363c-1.227,2.242-3.496,8.112-6.792,10.849c-0.901,0.707-2.201,0.424-2.705-0.536
	c-0.188-0.276-0.28-0.583-0.368-0.888c-0.647-2.581-1.291-5.161-1.862-7.874c-0.119-0.407-0.138-0.847,0.079-1.241
	c0.52-1.26,0.526-2.368-0.138-3.504c-0.192-0.275-0.148-0.51-0.137-0.845c0.254-1.403-0.207-2.598-0.8-3.864
	c-0.531-1.062-0.627-2.143,0.183-3.157c0.739-0.88,0.34-1.872,0.221-2.28c-0.179-0.611-0.46-1.191-0.742-1.775
	c-0.826-1.309-1.285-2.503-0.624-4.024c0.259-0.63,0.229-0.731,0.138-1.038c-0.209-0.713-0.315-1.457-0.32-2.231
	c0.037-1.007,0.513-2.032,0.243-2.952c-0.287-1.356-0.178-2.494-0.025-3.869c0.085-0.467-0.053-1.312-0.172-1.721
	c-0.459-1.193-0.922-2.389-1.382-3.582c-0.148-0.51-0.562-1.164-0.074-2.523c0.819-2.125,0.741-2.765-0.178-5.154
	c-0.371-0.889-0.557-2.273-0.621-3.252c-0.164-2.832-1.175-5.525-1.674-8.369c-0.513-2.508-1.987-4.515-3.008-6.873
	c-0.773-1.878-1.904-3.099-3.865-3.742c-0.731-0.227-1.391-0.591-2.093-0.717c-1.798-0.47-3.597-0.939-5.396-1.41
	c-2.866-0.711-11.767-1.983-20.046-6.427c-2.109-1.153-4.245-1.638-6.67-1.591c-0.873,0.035-1.823,0.2-2.409-0.292
	c-1.114-0.78-2.075-0.28-3.125-0.081c-0.613,0.178-1.284,0.153-1.926,0.23c-1.926,0.232-3.372,0.212-5.207,0.75
	c-0.816,0.239-2.33,1.125-2.751,3.465c-0.381,2.104,0.751,3.323,1.954,4.41c1.043,0.914,2.056,1.724,2.791,2.727
	c0.678,0.799,0.946,1.717,2.085,1.826c0.235,0.043,0.589,0.493,0.679,0.799c0.255,1.253,1.165,2.094,2.076,2.936
	c0.749,0.667,9.203,7.607,5.243,22.832c-1.025,4.066-2.633,8.412-4.546,12.851c-1.915,4.437-4.061,8.829-6.544,13.212
	c-1.227,2.243-2.481,4.383-3.945,6.582c-0.679,1.085-1.459,2.199-2.138,3.285l-2.172,3.183c-2.949,4.296-6.226,8.245-9.529,12.094
	c-1.683,1.821-3.364,3.644-5.178,5.392c-1.71,1.72-3.584,3.264-5.458,4.811c-0.624,0.514-1.248,1.029-1.903,1.441
	c-0.276,0.191-0.553,0.384-0.93,0.605c-7.997,5.221-14.998,6.272-17.351,6.186c-11.522-0.393-13.696-13.492-13.116-20.971
	c0.349-4.863,2.708-5.889,5.923-5.5c4.953,0.656,9.354-0.965,10.78-1.383c1.531-0.447,2.958-0.865,3.884-2.244
	c0.636-0.853,0.842-0.91,1.586-1.018c0.642-0.076,1.091-0.431,1.164-0.562c0.564-0.719,1.13-1.438,1.886-1.881
	c1.238-0.694,1.586-1.018,1.803-1.413c0.781-1.115,1.532-2.331,2.181-3.519c0.534-0.821,0.866-1.582,0.568-2.603
	c-0.239-0.816,0.122-1.475,0.512-2.032c0.954-1.276,1.414-2.739,1.842-4.305c0.301-0.864,0.824-1.348,0.998-1.512
	c0.913-1.042,1.298-2.373,2.181-3.517c1.201-1.57,2.477-3.274,2.521-5.392c0.036-1.006,0.477-2.908,0.765-3.436
	c0.969-1.611,0.934-2.486,0.915-2.927c0.056-0.569,0.038-1.009,0.122-1.476c0.242-1.068,0.849-2.02,1.324-3.046
	c0.619-1.287,0.669-2.631,0.383-3.986c-0.287-1.356-0.441-2.642-0.289-4.017c0.14-1.037,0.088-2.35-0.213-3.37
	c-0.327-1.124-0.756-2.216-0.678-3.456c0.011-0.337-0.005-0.774-0.624-1.369c-0.453-0.42-0.561-1.162-0.272-1.693
	c0.505-0.92,0.326-1.533-0.262-2.026c-0.558-0.392-0.257-1.254-0.1-1.853c0.127-0.702,0.051-1.346-1.006-1.922
	c-1.217-0.751-1.019-1.586-1.005-1.92c0.055-0.57,0.21-1.17,0.266-1.741c0.024-0.672-0.389-1.325-1.544-1.872
	c-0.762-0.331-1.494-0.561-2.357-0.86c-1.36-0.488-2.723-0.976-3.926-2.063c-0.881-0.738-1.863-1.447-2.918-2.023
	c-1.084-0.68-2.242-1.229-3.183-2.172c-1.954-1.752-4.194-2.98-6.653-3.811c-1.858-0.674-3.656-1.145-5.372-2.084
	c-0.952-0.607-2.031-0.512-3.199,0.049c-1.949,0.904-3.577,2.156-5.717,2.781c-0.817,0.24-1.483,0.987-2.077,1.605
	c-0.668,0.75-0.59,1.393-0.734,1.657c-0.259,0.629-0.943,0.939-1.334,1.495c-0.505,0.924-1.214,1.906-1.72,2.83
	c-0.691,1.42-1.384,2.842-2.542,4.178c-1.881,2.654-5.294,7.641-8.282,12.945c-0.434,0.793-2.447,3.375-8.313,3.762
	c-3.137,0.254-6.186,0.814-9.074,1.549c-2.476,0.615-4.956,1.23-7.432,1.845c-3.807,1.003-7.173,1.989-10.173,3.087
	c-3.233,1.057-6.338,2.188-9.309,3.389c-0.888,0.371-1.901-0.438-1.731-1.375c0.249-2.176,0.996-4.168,1.507-6.199
	c1.037-4.403,2.087-9.141,2.963-13.717l0,0c0,0,0.072-0.13,0.084-0.467c0.368-1.77,0.706-3.641,1.075-5.41
	c1.751-9.152,5.246-26.347,6.98-35.936c0.437-2.674,0.613-9.262,6.005-13.165c0,0,11.318-8.63,5.757-17.414
	c-5.943-9.336-17.438-5.085-21.664,2.798c-1.342,2.607-2.389,5.459-3.16,8.123c-1.313,4.593-3.406,8.418-11.833,12.547
	c-2.227,1.095-4.515,1.985-6.873,3.007c-8.617,3.853-17.429,7.428-26.079,11.179c-8.648,3.748-17.095,7.439-25.275,11.273
	c-22.083,10.452-67.047,34.689-81.404,54.51c-2.619,3.535-3.949,7.69-2.875,11.363c1.046,3.568,4.033,7.35,11.702,10.086
	c0.132,0.072,0.365,0.115,0.497,0.187c4.434,1.14,8.804,2.075,13.401,1.505c0.539-0.048,1.21-0.021,1.78,0.032
	c0.905,0.067,1.78,0.034,2.555,0.028c0.305-0.088,26.375-3.734,44.198-13.603c1.716-0.947,2.547-3.405-0.649-3.353
	c-1.548,0.01-2.993-0.012-4.512,0.102c-1.415,0.083-2.902,0.296-4.259,0.583c-2.171,0.523-4.446,1.079-6.769,1.093
	c-1.21,0.024-2.465,0.279-3.72,0.536c-2.201,0.422-4.444,1.079-6.648,1.503c-2.845,0.5-5.718,0.898-8.62,1.195
	c-4.422,0.406-8.733-0.326-13.082-1.93c-2.854-1.048-4.309-2.617-4.613-4.41c-0.03-0.103-0.09-0.306-0.118-0.408
	c-0.031-0.102-0.061-0.203,0.011-0.336c-0.03-0.102-0.03-0.102,0.042-0.234c-0.013-4.204,5.994-10.17,13.272-15.955
	c0.072-0.132,0.246-0.294,0.349-0.324c1.148-1.001,2.426-1.929,3.705-2.856c0.102-0.029,0.276-0.192,0.48-0.251
	c0.654-0.412,1.585-1.018,2.21-1.533c0.173-0.16,0.449-0.352,0.624-0.516c1.758-1.179,3.487-2.459,5.348-3.668
	c4.449-2.965,9.336-5.945,14.661-8.945c0.48-0.251,0.757-0.442,0.757-0.442l0,0c8.148-4.711,17.067-9.425,26.558-14.087
	c7.918-3.98,16.23-7.742,24.748-11.565c4.309-1.926,8.588-3.952,12.868-5.982c4.281-2.028,8.589-3.952,12.972-6.011
	c1.951-0.903,3.902-1.806,5.852-2.71c1.472-0.651,2.94,0.579,2.613,2.114c-0.897,3.366-1.923,7.432-2.038,7.798
	c-2.774,11.335-5.681,22.597-8.557,33.96c-0.627,2.398-1.151,4.767-1.545,7.207c-0.387,3.217-5.098,17.775-5.254,18.374
	c-0.313,1.2-1.756,3.838-5.568,5.95c-3.986,2.273-26.534,15.299-47.658,29.787l-1.163,0.562
	c-7.354,5.144-14.314,10.504-21.316,16.098c-2.077,1.605-4.125,3.312-6.102,4.887c-1.7,1.384-1.826,2.088-1.013,3.732l0.28,0.582
	c0.341,0.787,0.753,1.44,0.891,2.285c0.238,0.816,0.592,1.266,1.281,1.73c0.396,0.215,0.688,0.463,0.952,0.607
	s0.528,0.289,0.791,0.434c1.745,1.04,3.796,1.991,6.52,1.082c0.103-0.031,0.103-0.031,0.204-0.06
	c0.511-0.149,0.947-0.167,1.386-0.185c0.102-0.029,0.336,0.014,0.438-0.016c1.079-0.095,1.968-0.467,2.663-1.113
	c0.77-0.779,1.73-1.281,2.619-1.652l0.307-0.09c2.329-1.127,4.555-2.22,6.885-3.344c3.667-1.849,7.477-4.736,8.418-5.678
	l1.045-0.969c0.624-0.516,6.287-5.385,8.119-6.698c0.174-0.159,0.349-0.323,0.554-0.382c5.679-4.432,15.995-12.325,27.567-20.475
	c2.483-1.723,3.263-0.955,2.564,1.574l-10.25,29.693c-0.258,0.629-0.415,1.229-0.674,1.859c-0.186,0.498-2.821,6.254-2.822,8.137
	c0.005,0.773-0.399,1.668-0.921,2.152c-1.146,1.001-1.502,2.434-2.152,3.621c-0.764,1.552-1.527,3.104-1.427,4.959
	c0.052,1.312-0.436,2.674-1.611,3.572c-0.901,0.707-1.203,1.571-1.574,2.566c-1.354,2.943-2.678,5.989-4.295,8.789
	c-1.442,2.637-3.179,5.029-4.755,7.594c-1.503,2.433-2.742,5.012-4.375,7.374c-0.999,1.511-1.306,3.482-2.831,4.704
	c-1.248,1.031-1.91,2.553-2.267,3.986c-0.313,1.198-0.95,2.049-1.557,3.002c-0.608,0.953-1.479,1.762-1.953,2.787
	c-0.217,0.395-0.475,1.024,0.082,1.416c0.294,0.246,0.779,0.769,0.346,1.56c-0.289,0.528-0.679,1.085-0.631,1.626
	c0.089,0.305,0.256,1.252-0.454,2.234c-0.216,0.396-0.563,0.72-0.81,1.014c-0.42,0.454-1.832,1.311-2.369-0.526
	c-0.119-0.407-0.136-0.845-0.227-1.151c-0.018-0.438,0.097-0.804,0.212-1.169c0.198-0.833-0.298-1.019-0.791-0.434
	c-1.304,1.601-2.548,3.405-3.822,5.106c-0.639,0.852,0.257,1.254,0.521,1.397c0.628,0.259,0.519,1.399,0.405,1.764
	c-0.369,1.771-0.83,2.459-1.893,2.991c-0.379,0.222-1.021,0.299-0.953-0.607c0.109-1.14-0.045-2.426-2.291,0.116
	c-1.682,1.821-3.263,3.612-4.944,5.436c-1.363,1.395-2.888,2.616-4.281,3.909c-0.872,0.809-1.845,1.646-2.715,2.459
	c-1.7,1.383-3.327,2.633-4.996,4.119c-1.423,1.191-3.2,1.934-4.198,3.443c-0.245,0.295-1.362,1.396-1.61,1.689
	c-1.002,0.738-1.55,1.895-2.42,2.703c-0.35,0.324-0.99,0.398-1.457,0.315c-0.469-0.085-1.289-0.618-2.017-0.073
	c-0.93,0.604-1.01,1.846-1.546,2.667c-1.328,2.271-2.908,4.062-5.871,4.155c-1.955,0.129-3.864,0.799-5.167,2.398
	c-0.812,1.014-1.873,1.545-3.068,2.006c-2.01,0.698-3.859,1.57-5.738,2.343c-0.306,0.089-0.653,0.413-0.93,0.604
	c-2.15,1.734-5.101,1.492-7.503,2.749c-0.276,0.191-0.828,0.573-1.734,0.508c-1.038-0.14-1.908,0.669-2.93,0.968
	c-0.988,0.399-1.848,0.872-2.898,1.068c-1.969,0.467-3.964,0.83-5.904,1.398c-3.161,0.925-6.253,1.719-9.564,2.134
	c-0.977,0.065-1.824,0.202-2.712,0.571c-1.296,0.49-1.682,1.821,0.261,2.029c6.034,0.559,12.153,0.652,18.117-0.541
	c1.562-0.348,3.126,0.082,4.686-0.264c2.437-0.381,4.915-0.994,7.351-1.376c2.304-0.453,4.369-1.722,6.631-1.94
	c0.203-0.06,1.224-0.357,1.502-0.55c0.989-0.399,2.159-0.188,3.017-0.661c0.96-0.503,1.963-1.238,3.015-1.434
	c1.486-0.215,1.447-1.864,2.609-2.428c0.788-0.342,1.413-0.855,2.065-1.269c0.859-0.473,2.143-0.628,2.709-1.347
	c0.84-0.91,2.17-0.525,3.012-1.436c0.668-0.748,1.615-0.915,2.58-0.645c1.332,0.386,2.249,0.117,2.929-0.967
	c0.463-0.689,0.942-0.941,1.849-0.874c1.578,0.093,2.479-0.614,3.081-2.341c0.156-0.598,0.78-1.115,1.182-0.125
	c0.149,0.511,0.095,1.079,0.796,1.207c0.936,0.17,1.717-0.945,1.934-1.34c1.965-3.123,3.268-2.84,5.367-3.232
	c1.998-0.365,3.936-0.931,5.463-2.154c2.425-1.928,4.086-2.303,4.77-2.614c0.961-0.502,1.981-0.801,2.841-1.272
	c1.584-1.018,3.008-2.21,4.401-3.504c1.67-1.486,3-1.101,3.932-1.705c0.378-0.22,0.695-0.646,0.942-0.94
	c0.42-0.454,0.811-1.013,1.303-1.6c0.78-1.115,1.831-1.31,2.473-1.388c2.101-0.393,1.772-1.516,1.611-1.69
	c-0.887-1.512-0.934-2.052,0.011-2.993c0.84-0.909,1.58-1.791,3.157-1.698c0.438-0.019,0.846-0.138,1.253-0.257
	c0.685-0.311,1.109,0.008,1.374,0.152c0.455,0.421,1.433,0.355,1.309-0.826c-0.078-0.643-0.772-1.879,0.284-3.186
	c1.479-1.762,3.191-3.479,4.803-5.168c0.42-0.457,0.898-0.709,1.469-0.654c0.234,0.043,0.763,0.33,0.4,0.99
	c-0.144,0.264-0.127,0.701,0.413,0.653c0.743-0.107,1.267-0.591,1.629-1.249c0.144-0.264,0.288-0.527,0.401-0.894
	c0.615-2.063,1.919-3.662,3.252-5.16c1.086-1.204,1.951-2.786,3.555-3.366c1.705-0.61,3.314-2.3,3.851-3.12
	c0.823-1.349,1.382-2.843,2.397-3.913c1.015-1.071,1.384-2.844,3.014-3.32c0.103-0.029,0.247-0.293,0.29-0.527
	c0.067-0.906,0.722-1.317,1.316-1.936c0.87-0.808,1.813-1.749,2.156-2.848c0.416-1.227,1.156-2.107,1.835-3.193
	c0.564-0.718,0.866-1.58,1.299-2.373c0.216-0.395,0.373-0.996,0.72-1.318c1.671-1.484,2.519-3.506,3.659-5.279
	c1.288-2.039,2.105-4.16,2.164-6.613c0.054-0.569,0.255-1.402,1.852-2.759c1.422-1.19,1.568-3.338,2.465-4.819
	c0.391-0.557,0.488-1.359,0.482-2.135c0.027-2.555,0.888-4.911,1.383-7.381c0.127-0.703,0.386-1.333,0.746-1.992
	c1.503-2.434,2.478-5.154,2.385-8.119c0.037-1.008,0.411-2.002,0.652-3.07c0.271-0.966,0.513-2.033,0.683-2.968
	c0.283-1.302,0.404-2.776,0.922-4.036c0.488-1.361,0.771-2.662,0.925-4.034c0.221-4.165,0.97-8.038,2.522-11.814
	c0.444-1.128,0.758-2.327,0.837-3.569c0.228-3.387,1.713-6.259,2.671-9.42l2.651-14.398c1.271-4.359,2.022-5.576,6.158-7.34
	l0.991-0.4c4.309-1.926,7.25-3.229,8.751-3.781c4.165-1.661,8.432-3.354,9.247-3.591c0.991-0.401,2.012-0.7,2.93-0.969
	c1.502-0.549,7.879-2.97,9.483-3.551c1.909-0.67,7.239-2.894,4.807,2.802c-2.616,6.193-5.746,14.42-7.791,21.441
	c-0.155,0.6-0.314,1.199-0.47,1.801c-0.198,0.833-0.428,1.564-0.626,2.397c-0.054,0.569-0.11,1.14-0.163,1.711
	c-0.013,0.335,0.004,0.772-0.14,1.036c-0.639,0.853-0.571,1.83-0.741,2.765c-0.182,1.271-0.362,2.544-0.413,3.887
	c-0.117,2.25-0.437,4.559-0.524,6.909c-0.135,1.812-0.137,3.695-0.17,5.478c0.034,2.759,0.604,5.47,0.943,8.14
	c0.143,1.619,0.59,3.15,1.139,4.649c0.46,1.194,1.022,2.36,1.586,3.522c0.16,0.176,0.293,0.248,0.599,0.156
	c0.205-0.059,0.275-0.189,0.116-0.363c-0.163-0.176,0.039-0.234,0.039-0.234s0.103-0.029,0.264,0.145
	c0.133,0.072,0.267,0.145,0.397,0.216c0.233,0.043,0.335,0.013,0.438-0.017c0.306-0.09,0.337,0.012-0.041,0.232
	c-0.175,0.162-0.115,0.367-0.013,0.338c0.131,0.07,0.263,0.143,0.365,0.114c0.102-0.03,0.232,0.042,0.293,0.245
	c0,0,0.222,0.379,0.249,0.479c0.252,0.481,0.576,0.829,1.032,1.249c0.295,0.247,0.57,0.055,0.379-0.221
	c-0.06-0.205,0.041-0.234,0.041-0.234l0.103-0.029c0.101-0.03,0.204-0.059,0.233,0.041c0.03,0.102,0.162,0.176,0.294,0.248
	l0.029,0.1c-0.102,0.031-0.175,0.162-0.274,0.191c-0.073,0.132,0.118,0.409,0.118,0.409l0.19,0.274
	c0.162,0.176,0.295,0.247,0.337,0.014c0.071-0.132,0.145-0.266,0.187-0.497c-0.03-0.102,0.071-0.132,0.205-0.06
	c0.79,0.432,0.96-0.503,1.602-0.58c0.103-0.03,0.103-0.03,0.071-0.132c-0.03-0.101-0.16-0.174-0.089-0.304
	c0.072-0.132,0.072-0.132,0.204-0.06l0.412,0.653c0,0,0.06,0.205,0.234,0.043c0.102-0.031,0.102-0.031,0.202-0.059
	c0.207-0.061,0.397,0.215,0.397,0.215s0.06,0.204,0.232,0.041l0.103-0.029c0,0,0.1-0.03,0.263,0.145
	c0.399,0.989-0.535,0.82-1.279,0.927c-0.101,0.03-0.13-0.072-0.13-0.072c-0.028-0.101-0.06-0.204-0.06-0.204
	c-0.029-0.102-0.06-0.204-0.293-0.246c-0.234-0.042-0.366-0.115-0.569-0.055c-0.204,0.061-0.246,0.294-0.246,0.294l-0.042,0.233
	c-0.042,0.233-0.132-0.072-0.132-0.072s-0.06-0.203-0.232-0.042c-0.813,1.013-2.497,0.179-3.691,0.637
	c-0.306,0.09-0.114,0.366-0.014,0.336c0.617,0.595,1.562-0.347,2.106,0.382c0.029,0.101,0.029,0.101-0.072,0.13
	c-0.235-0.042-0.409,0.12-0.583,0.28c-0.174,0.162-0.114,0.366,0.018,0.439c0.132,0.07,0.438-0.019,0.642-0.078
	c0.103-0.03,0.235,0.042,0.061,0.203c-0.101,0.031-0.174,0.162-0.113,0.365c0.06,0.205,0.19,0.277,0.394,0.217
	c0.175-0.162,0.438-0.019,0.674,0.025c0.363,0.114,0.22,0.378,0.048,0.539c-0.104,0.03-0.205,0.061-0.277,0.189
	c-0.204,0.061-0.042,0.234-0.042,0.234s0.163,0.175-0.071,0.133c0,0-0.102,0.03-0.234-0.043c-0.102,0.029-0.175,0.162,0.018,0.438
	c0.031,0.102,0.324,0.349,0.354,0.45c0.839,0.973,1.869,2.221,2.162,2.468c0.588,0.493,1.174,0.984,1.791,1.58
	c0.029,0.101,0.265,0.144,0.305-0.09c-0.029-0.102,0.073-0.132,0.073-0.132c0.145-0.264,0.336,0.012,0.132,0.072
	c0,0-0.206,0.06-0.014,0.335c0.224,0.378,0.605,0.931,1.014,0.812c0.101-0.031,0,0,0,0s-0.072,0.133,0.06,0.203
	c0.131,0.072,0.265,0.146,0.425,0.32c0.132,0.07,0.132,0.07,0.132,0.07l0,0c0.03,0.102,0.19,0.277,0.293,0.247
	c0.557,0.39,0.983,0.71,1.512,0.997c0.132,0.072,0.232,0.042,0.203-0.06c0.102-0.029,0.072-0.132,0.174-0.162
	c0,0,0.132,0.074,0.163,0.176l-0.073,0.132c0,0-0.07,0.131,0.192,0.276c0.13,0.069,0.204-0.06,0.174-0.163
	c-0.029-0.101,0.101-0.029,0.101-0.029c0.029,0.103,0.089,0.305,0.222,0.378c0.234,0.042,0.731,0.23,0.833,0.2
	c0.233,0.041,0.205-0.061,0.072-0.132c-0.03-0.101,0.174-0.161,0.174-0.161c0.408-0.119,0.757-0.445,1.135-0.664
	c0.554-0.385,0.617,0.594,0.617,0.594s0.179,0.612,0.658,0.361c0.276-0.191,0.524-0.485,0.758-0.445
	c0.103-0.029,0.189,0.276-0.013,0.337c-0.408,0.118-0.978,0.063-0.87,0.808c0,0,0.089,0.307,0.672,0.025
	c0.204-0.061,0.336,0.012,0.263,0.144c-0.069,0.134-0.174,0.163-0.114,0.365c0.342,0.787,1.199,0.314,1.669,0.399
	c0.13,0.07,0.527,0.288,0.657,0.359l0,0c0,0,0.103-0.029,0.132,0.071l0.234,0.042c0.101-0.029,0.232,0.041,0.335,0.012
	c0.48-0.25,0.403-0.893,0.619-1.288c0.115-0.364,0.379-0.222,0.234,0.042c-0.145,0.265-0.115,0.365-0.156,0.601
	c0.059,0.203,0.208,0.713,1.187,0.647c0.438-0.018,0.878-0.034,1.109,0.007c0.467,0.086,0.407-0.118,0.552-0.383
	c0.217-0.396,0.672,0.024,0.672,0.024s0.762,0.332,1.403,0.254c4.992-0.354,9.6-1.259,13.621-2.657
	c0.409-0.12,0.816-0.239,1.122-0.329c4.459-1.415,8.812-3.574,12.911-6.216c4.07-2.741,8.051-5.788,11.812-9.214
	c2.091-1.941,4.122-4.088,6.15-6.231c0.071-0.134,0.217-0.396,0.289-0.529c0.114-0.364,0.48-0.249,0.727-0.544
	c1.188-1.233,2.349-2.57,3.479-4.009c1.724-2.054,3.345-4.078,5.071-6.136c1.592-2.127,3.317-4.184,4.778-6.383
	c1.591-2.126,3.153-4.355,4.642-6.453c1.463-2.198,3.024-4.43,4.484-6.63c2.922-4.398,5.608-8.839,7.93-13.397
	c2.352-4.452,4.44-9.051,6.016-13.502c2.438-6.806,3.898-13.545,4.631-17.858c0.309-1.974,1.788-5.618,9.844-4.211
	c1.739,0.267,3.336,0.797,4.917,1.664c2.213,1.124,3.056,2.87,3.347,5c0.428,2.976,0.418,5.97-0.264,8.937
	c-0.229,0.733-0.225,1.508-0.117,2.251c0.288,1.355,0.572,2.712-0.047,3.999c-0.519,1.259-0.254,1.404-0.25,2.18
	c0.035,0.875-0.296,1.635-0.362,2.543c-0.127,0.701-0.354,1.433-0.351,2.207c0.053,1.312-0.363,2.542-0.779,3.771
	c-0.759,2.326-1.181,4.665-1.502,6.973c-0.361,2.544-0.258,5.172-1.454,7.516c-0.216,0.395-0.3,0.863-0.387,1.332
	c-0.585,2.162-0.204,4.598-1.621,6.565c-0.174,0.161-0.055,0.569-0.097,0.805c-0.025,0.671-0.051,1.344-0.208,1.942
	c-0.397,1.667-1.132,3.322-0.696,5.186c0.088,0.308-0.229,0.733-0.345,1.099c-0.186,0.496-0.343,1.097-0.295,1.637
	c-0.165,1.71-0.257,3.287-0.318,4.967c-0.11,1.14-0.424,2.339,0.24,3.474c0.163,0.174,0.049,0.539,0.006,0.772
	c-0.258,0.63-0.179,1.272,0,1.884c0.208,0.715,0.213,1.488,0.29,2.131c0.048,0.541,0.125,1.182,0.347,1.561
	c0.473,0.857,1.15,1.656,1.317,2.604c0.058,0.203,0.532,1.062,0.592,1.266c0.383,0.554,0.49,1.296,0.67,1.909
	c0.771,1.879,2.195,3.344,3.97,4.485c1.744,1.041,3.688,1.246,5.673,1.22c0.541-0.047,0.759-0.443,0.8-0.676
	c-0.017-0.438,0.584-0.281,0.395,0.217c0,0-0.216,0.396,0.354,0.449c0.337,0.012,0.569,0.055,0.906,0.066
	c0.335,0.014,0.742-0.105,0.888-0.37c0.668-0.749,1.411-0.856,2.156-0.964c1.486-0.212,1.758-1.178,1.974-1.573
	c0.188-0.497,0.463-0.688,0.769-0.78c0.408-0.117,0.553-0.383,0.727-0.543c0.246-0.295,0.421-0.455,0.667-0.748
	c0.275-0.193,0.085-0.469-0.048-0.539l-0.131-0.074c0,0-0.161-0.174-0.029-0.102c0.101-0.029,0.101-0.029,0.131,0.072
	c0.102-0.031,0.102-0.031,0.204-0.061c-0.048-0.539,1.049-0.196,0.709-0.982c-0.162-0.174-0.265-0.145-0.468-0.086
	c-0.204,0.061-0.061-0.203-0.061-0.203l0.462-0.689c0,0,0.146-0.264-0.119-0.409c-0.264-0.145-0.496-0.185-0.702-0.125
	c-0.102,0.03-0.13-0.073-0.161-0.175c-0.03-0.103-0.03-0.102-0.06-0.204c-0.089-0.306-0.251-0.479-0.497-0.187
	c-0.072,0.13-0.175,0.16-0.277,0.19c-0.03-0.102-0.059-0.204,0.014-0.335c0.144-0.264,0.012-0.336,0.012-0.336
	s-0.163-0.174-0.09-0.305c0.071-0.133,0.275-0.192,0.511-0.148c0,0,0.232,0.041,0.204-0.061c0.071-0.131,0.174-0.162,0.275-0.191
	c0.204-0.06,0.161,0.174,0.425,0.316c0.529,0.29,1.464,0.46,1.62-0.141c-0.029-0.102,0.043-0.233,0.247-0.293
	c0.101-0.03,0.203-0.059,0.333,0.012l0.09,0.306c0,0-0.042,0.233,0.191,0.275c0.234,0.042,0.51-0.148,0.655-0.413
	c0.317-0.425,0.36-0.658,0.434-0.791c0.072-0.133-0.031-0.102-0.031-0.102c-0.203,0.059-0.159-0.175-0.159-0.175
	c0.071-0.13,0.203-0.06,0.203-0.06s0.162,0.174,0.438-0.018c0.638-0.852,1.011-1.848,1.648-2.699
	c1.909-2.552,3.162-5.465,4.516-8.408c3.192-7.248,4.877-13.611,4.985-14.752C506.054,328.536,505.541,327.911,504.747,329.363z
	 M391.989,258.587c0.629,0.259,0.27,0.917-0.26,0.629C391.51,258.837,391.755,258.544,391.989,258.587z M390.639,257.762
	c0.541-0.048,0.137,0.846-0.392,0.557C389.985,258.175,390.407,257.719,390.639,257.762z M370.924,266.082
	c0.114-0.366,0.479-0.251,0.425,0.319C371.337,266.737,370.664,266.713,370.924,266.082z M370.387,271.443
	c0.408-0.118,0.601,0.156,0.689,0.464c0.119,0.408-0.668,0.749-0.949,0.168C369.967,271.898,370.082,271.534,370.387,271.443z
	 M376.657,317.458c-0.249-2.365-0.263-4.686-0.205-7.139c0.116-2.25,0.678-5.627,0.962-6.928c0.452-2.236,1.302-4.258,1.521-6.537
	c0.206-1.945,1.013-3.73,1.583-5.56c0.271-0.966,0.646-1.96,1.049-2.853c0.92-2.153,1.87-4.205,3.217-6.039
	c1.912-2.553,3.687-3.294,4.623-3.124c0.935,0.171,2.156,1.692,2.398,5.169c0.249,2.363-0.038,5.547-1.218,10.212
	c-0.387,1.331-0.954,3.937-1.485,5.531c-0.559,1.493-1.37,2.507-1.658,3.032c-0.259,0.629-0.181,1.271-0.309,1.973
	c-0.297,1.638-0.987,3.059-1.812,4.406c-0.288,0.529-0.81,1.013-0.895,1.481c-0.25,2.177-1.787,3.734-2.958,5.407
	c-0.319,0.425-0.692,1.42-1.461,2.198C378.555,319.78,376.924,320.259,376.657,317.458z M343.489,359.286
	c-0.101,0.03-0.13-0.073-0.13-0.073c-0.03-0.102,0.069-0.131,0.173-0.161c0.103-0.03,0.132,0.072,0.132,0.072
	C343.593,359.257,343.593,359.257,343.489,359.286z M349.395,357.888c0,0-0.103,0.03-0.133-0.07
	c-0.029-0.101-0.058-0.204-0.058-0.204s0.102-0.029,0.131,0.072C349.395,357.888,349.395,357.888,349.395,357.888z M350.341,359.606
	c-0.102,0.029-0.233-0.042-0.263-0.145c-0.03-0.104,0.041-0.233,0.143-0.265c0.104-0.03,0.234,0.042,0.264,0.144
	C350.441,359.577,350.341,359.606,350.341,359.606z M348.966,365.878c-0.03-0.101-0.061-0.204,0.011-0.335
	c0,0,0.072-0.132,0.103-0.028c0.029,0.1,0.029,0.1,0.061,0.204C349.168,365.82,349.066,365.849,348.966,365.878z M350.226,369.053
	c-0.102,0.029-0.102,0.029-0.133-0.071c-0.03-0.103-0.03-0.103,0.043-0.233c0.1-0.029,0.1-0.029,0.13,0.07
	C350.196,368.951,350.226,369.053,350.226,369.053z M353.891,369.089c-0.101,0.031-0.101,0.031-0.131-0.072
	c-0.029-0.1-0.029-0.1,0.071-0.131c0.103-0.029,0.103-0.029,0.131,0.072C353.994,369.06,353.994,369.06,353.891,369.089z
	 M356.25,372.607c-0.03-0.102-0.03-0.102-0.061-0.205C356.364,372.241,356.483,372.649,356.25,372.607z M359.146,373.422
	c-0.102,0.03-0.131-0.071-0.131-0.071c-0.03-0.103,0.072-0.133,0.072-0.133c0.102-0.029,0.131,0.072,0.131,0.072
	S359.117,373.317,359.146,373.422z M352.852,350.786c-0.03-0.102,0.072-0.132,0.072-0.132c0.101-0.03,0.131,0.072,0.131,0.072
	l-0.071,0.132C353.014,350.96,352.882,350.887,352.852,350.786z M354.58,355.928c-0.101,0.03-0.101,0.03-0.131-0.072
	c-0.029-0.101-0.029-0.101,0.07-0.131c0.103-0.029,0.103-0.029,0.133,0.07C354.682,355.899,354.683,355.899,354.58,355.928z
	 M355.1,352.786c-0.102,0.031-0.131-0.072-0.131-0.072c-0.029-0.101,0.071-0.131,0.071-0.131l0.131,0.072L355.1,352.786z
	 M358.606,359.844c-0.119-0.407-0.353-0.449-0.587-0.492c-0.029-0.102-0.061-0.205-0.089-0.305c0.642-0.078,1.14,0.11,1.492,0.56
	C359.219,359.665,359.075,359.93,358.606,359.844z M362.923,365.891C362.822,365.921,362.822,365.921,362.923,365.891
	c-0.16-0.174-0.16-0.174-0.059-0.203C362.967,365.658,362.997,365.759,362.923,365.891
	C363.026,365.86,362.923,365.891,362.923,365.891z M360.352,354.461c-0.101,0.03-0.232-0.042-0.293-0.245
	c-0.06-0.205-0.09-0.307,0.013-0.336c0.102-0.029,0.233,0.042,0.293,0.246C360.427,354.329,360.456,354.43,360.352,354.461z
	 M368.615,372.09c-0.102,0.029-0.234-0.042-0.264-0.145c-0.031-0.104,0.041-0.233,0.143-0.264c0.103-0.03,0.234,0.042,0.265,0.144
	S368.717,372.059,368.615,372.09z M371.751,376.378c-0.395-0.217,0.349-0.324,0.258-0.631
	C372.244,375.791,371.927,376.216,371.751,376.378z M369.311,366.899c-0.071,0.133-0.145,0.264-0.35,0.324
	c-0.305,0.09-0.467-0.084-0.467-0.084c-0.03-0.101,0.073-0.131,0.175-0.16c0.205-0.061,0.35-0.326,0.554-0.385
	C369.294,366.464,369.557,366.608,369.311,366.899z M369.821,366.752c-0.103,0.03-0.103,0.03-0.131-0.07
	c-0.03-0.103-0.03-0.103,0.071-0.131c0.101-0.03,0.101-0.03,0.131,0.071C369.924,366.721,369.924,366.721,369.821,366.752z
	 M373.688,373.153c-0.103,0.029-0.132-0.073-0.132-0.073l0.072-0.13c0.102-0.029,0.131,0.07,0.131,0.07
	S373.791,373.122,373.688,373.153z M373.584,370.525c-0.102,0.029-0.131-0.072-0.131-0.072c-0.031-0.102,0.071-0.132,0.071-0.132
	l0.131,0.072C373.759,370.361,373.685,370.493,373.584,370.525z M375.952,371.048c-0.101,0.031-0.131-0.07-0.131-0.07l0.073-0.133
	c0.101-0.029,0.13,0.072,0.13,0.072S376.053,371.019,375.952,371.048z M376.114,366.681c-0.203,0.06-0.336-0.013-0.395-0.218
	c-0.061-0.202,0.012-0.334,0.216-0.394c0.206-0.06,0.337,0.011,0.396,0.214C376.39,366.489,376.317,366.622,376.114,366.681z
	 M377.642,368.118c-0.103,0.029-0.103,0.029-0.131-0.07c-0.03-0.104-0.03-0.104,0.07-0.132c0.101-0.03,0.101-0.03,0.132,0.071
	C377.745,368.087,377.745,368.087,377.642,368.118z M380.092,374.6c-0.101,0.029-0.13-0.071-0.13-0.071l0.072-0.132l0.131,0.072
	C380.166,374.469,380.195,374.569,380.092,374.6z M379.441,368.588l-0.03-0.102c-0.03-0.102,0.07-0.132,0.102-0.03
	c0,0,0.03,0.102,0.06,0.205C379.602,368.763,379.531,368.893,379.441,368.588z M379.585,368.324
	c-0.029-0.101,0.043-0.233,0.146-0.264c0.102-0.03,0.233,0.042,0.265,0.145c0.03,0.101-0.042,0.233-0.146,0.265
	C379.748,368.498,379.615,368.426,379.585,368.324z M380.07,368.846c-0.234-0.041-0.191-0.276,0.174-0.16
	C380.346,368.655,380.376,368.758,380.07,368.846z M379.438,365.93c-0.102,0.031-0.102,0.031-0.131-0.072
	c-0.029-0.102-0.029-0.102,0.071-0.131c0.102-0.029,0.102-0.029,0.132,0.07C379.54,365.901,379.438,365.93,379.438,365.93z
	 M379.638,365.098L379.638,365.098c-0.133-0.072-0.061-0.205-0.061-0.205C379.71,364.967,379.71,364.967,379.638,365.098
	C379.74,365.066,379.74,365.066,379.638,365.098z M383.443,366.751c-0.103,0.03-0.131-0.072-0.131-0.072
	c-0.03-0.101,0.072-0.131,0.072-0.131l0.131,0.072C383.618,366.591,383.547,366.721,383.443,366.751z M384.378,368.804
	C384.275,368.835,384.275,368.835,384.378,368.804c-0.132-0.072-0.06-0.204-0.06-0.204S384.449,368.671,384.378,368.804
	C384.478,368.774,384.378,368.804,384.378,368.804z M390.597,373.407c-0.102,0.03-0.102,0.03-0.131-0.072
	c-0.03-0.1-0.03-0.1,0.07-0.131c0.102-0.029,0.102-0.029,0.134,0.071C390.671,373.274,390.701,373.378,390.597,373.407z
	 M395.013,367.684L395.013,367.684c-0.13-0.07-0.059-0.204-0.059-0.204S395.088,367.552,395.013,367.684
	C395.117,367.654,395.117,367.654,395.013,367.684z M397.633,366.032c-0.101,0.029-0.233-0.043-0.264-0.144
	c-0.029-0.104-0.06-0.204,0.043-0.233c0.102-0.03,0.232,0.041,0.263,0.144S397.734,366.001,397.633,366.032z M397.775,363.11
	c-0.103,0.031-0.132-0.072-0.132-0.072l0.073-0.13c0.101-0.029,0.13,0.071,0.13,0.071S397.875,363.082,397.775,363.11z
	 M398.78,365.032c-0.103,0.029-0.234-0.041-0.294-0.246c-0.061-0.205-0.089-0.307,0.012-0.336c0.102-0.031,0.234,0.041,0.294,0.245
	C398.822,364.8,398.78,365.032,398.78,365.032z M406.238,357.975c-0.101,0.03-0.13-0.071-0.13-0.071
	c-0.029-0.102,0.07-0.132,0.07-0.132l0.133,0.072C406.311,357.843,406.344,357.944,406.238,357.975z M407.357,356.874
	C407.357,356.874,407.224,356.801,407.357,356.874c-0.132-0.072-0.162-0.175-0.061-0.205
	C407.399,356.639,407.399,356.639,407.357,356.874C407.427,356.741,407.459,356.843,407.357,356.874z M408.323,357.143
	C408.219,357.175,408.219,357.175,408.323,357.143c-0.133-0.07-0.163-0.175-0.061-0.203
	C408.262,356.94,408.291,357.041,408.323,357.143L408.323,357.143z M413.125,354.63c-0.102,0.03-0.133-0.071-0.133-0.071l0.073-0.13
	l0.13,0.07C413.195,354.499,413.225,354.6,413.125,354.63z M412.716,350.208c-0.101,0.031-0.101,0.031-0.13-0.07
	s-0.029-0.102,0.071-0.131c0.102-0.03,0.102-0.03,0.132,0.071C412.818,350.178,412.818,350.178,412.716,350.208z M418.037,349.094
	c-0.102,0.029-0.13-0.072-0.13-0.072l0.071-0.131l0.132,0.072C418.11,348.962,418.14,349.063,418.037,349.094z M472.929,358.392
	C472.825,358.423,472.825,358.423,472.929,358.392c-0.073,0.132-0.176,0.161-0.307,0.089c-0.131-0.073-0.131-0.073-0.061-0.205
	c0.073-0.132,0.073-0.132,0.204-0.06l0.133,0.072l0.102-0.03l0.029,0.102C472.929,358.392,472.929,358.392,472.929,358.392z
	 M475.993,358.27c-0.102,0.03-0.131-0.072-0.131-0.072l0.071-0.133l0.132,0.073L475.993,358.27z"/>
</svg>
