<?xml version="1.0" encoding="utf-8"?>
<!-- Generator: Adobe Illustrator 16.0.0, SVG Export Plug-In . SVG Version: 6.00 Build 0)  -->
<!DOCTYPE svg PUBLIC "-//W3C//DTD SVG 1.1//EN" "http://www.w3.org/Graphics/SVG/1.1/DTD/svg11.dtd">
<svg version="1.1" id="Layer_1" xmlns="http://www.w3.org/2000/svg" xmlns:xlink="http://www.w3.org/1999/xlink" x="0px" y="0px"
	 width="23.984px" height="13.979px" viewBox="0 0 23.984 13.979" enable-background="new 0 0 23.984 13.979" xml:space="preserve">
<path fill="#FFFFFF" d="M22.357,0.28L11.992,11.582L1.626,0.281c-0.372-0.372-0.975-0.372-1.347,0C0.093,0.467,0,0.71,0,0.953v0.002
	c0,0.243,0.093,0.486,0.279,0.672l10.794,11.768c0.046,0.113,0.114,0.22,0.205,0.312c0.195,0.194,0.454,0.281,0.71,0.271
	c0.258,0.014,0.52-0.072,0.718-0.271c0.093-0.095,0.163-0.202,0.209-0.317l10.79-11.764c0.372-0.372,0.372-0.976,0-1.348
	C23.52,0.094,23.276,0.001,23.034,0h-0.006C22.786,0.001,22.543,0.094,22.357,0.28z"/>
</svg>
