<?xml version="1.0" encoding="utf-8"?>
<!-- Generator: Adobe Illustrator 16.0.0, SVG Export Plug-In . SVG Version: 6.00 Build 0)  -->
<!DOCTYPE svg PUBLIC "-//W3C//DTD SVG 1.1//EN" "http://www.w3.org/Graphics/SVG/1.1/DTD/svg11.dtd">
<svg version="1.1" id="Layer_1" xmlns="http://www.w3.org/2000/svg" xmlns:xlink="http://www.w3.org/1999/xlink" x="0px" y="0px"
	 width="23.984px" height="13.979px" viewBox="0 0 23.984 13.979" enable-background="new 0 0 23.984 13.979" xml:space="preserve">
<path fill="#FFFFFF" d="M23.028,13.979h0.006c0.242-0.001,0.486-0.094,0.671-0.278c0.372-0.372,0.372-0.976,0-1.348L12.915,0.589
	c-0.046-0.115-0.116-0.223-0.209-0.317c-0.198-0.198-0.46-0.284-0.718-0.271c-0.256-0.011-0.515,0.076-0.71,0.271
	c-0.091,0.093-0.159,0.199-0.205,0.312L0.279,12.352C0.093,12.537,0,12.781,0,13.024v0.002c0,0.243,0.093,0.486,0.279,0.672
	c0.372,0.372,0.975,0.372,1.347,0L11.992,2.397l10.365,11.303C22.543,13.885,22.786,13.978,23.028,13.979z"/>
</svg>
