<?xml version="1.0" encoding="utf-8"?>
<!-- Generator: Adobe Illustrator 16.0.0, SVG Export Plug-In . SVG Version: 6.00 Build 0)  -->
<svg version="1.2" baseProfile="tiny" id="Layer_1" xmlns="http://www.w3.org/2000/svg" xmlns:xlink="http://www.w3.org/1999/xlink"
	 x="0px" y="0px" width="31.993px" height="31.993px" viewBox="0 0 31.993 31.993" xml:space="preserve">
<g>
	<path fill="none" d="M13,2C6.925,2,2,6.925,2,13c0,6.076,4.925,11,11,11s11-4.924,11-11C24,6.925,19.075,2,13,2z M19,14h-5v5
		c0,0.551-0.447,1-1,1c-0.552,0-1-0.449-1-1v-5H7c-0.552,0-1-0.448-1-1c0-0.553,0.448-1,1-1h5V7c0-0.553,0.448-1,1-1
		c0.553,0,1,0.447,1,1v5h5c0.553,0,1,0.447,1,1C20,13.552,19.553,14,19,14z"/>
	<path fill="#FFFFFF" d="M19,12h-5V7c0-0.553-0.447-1-1-1c-0.552,0-1,0.447-1,1v5H7c-0.552,0-1,0.447-1,1c0,0.552,0.448,1,1,1h5v5
		c0,0.551,0.448,1,1,1c0.553,0,1-0.449,1-1v-5h5c0.553,0,1-0.448,1-1C20,12.447,19.553,12,19,12z"/>
	<path fill="#FFFFFF" d="M22.833,21.486C24.802,19.209,26,16.247,26,13c0-7.18-5.82-13-13-13C5.82,0,0,5.82,0,13s5.82,13,13,13
		c3.248,0,6.21-1.199,8.488-3.167l8.88,8.881c0.372,0.372,0.975,0.372,1.347,0c0.371-0.372,0.371-0.975,0-1.346L22.833,21.486z
		 M13,24C6.925,24,2,19.076,2,13C2,6.925,6.925,2,13,2s11,4.925,11,11C24,19.076,19.075,24,13,24z"/>
</g>
</svg>
