<?xml version="1.0" encoding="utf-8"?>
<!-- Generator: Adobe Illustrator 16.0.0, SVG Export Plug-In . SVG Version: 6.00 Build 0)  -->
<svg version="1.2" baseProfile="tiny" id="Layer_1" xmlns="http://www.w3.org/2000/svg" xmlns:xlink="http://www.w3.org/1999/xlink"
	 x="0px" y="0px" width="32px" height="32px" viewBox="0 0 32 32" xml:space="preserve">
<path fill="#B39346" d="M15.909,23.643L21,19.781l7.947,10.22H3.054l7.689-9.891l4.231,3.415l0.47,0.47l0.058-0.044l0.054,0.044
	L15.909,23.643z M2,13.055l7.108,5.736L2,27.933V13.055z M22.675,18.512l7.324-5.555v14.976L22.675,18.512z M2.377,10.759L16,2
	l13.591,8.736L15.546,21.389l-3.56-2.875l0.006-0.009l-1.497-1.497l-0.144,0.186L2.377,10.759z M16,0L0,10v22h32V10L16,0z"/>
</svg>
