<?xml version="1.0" encoding="utf-8"?>
<!-- Generator: Adobe Illustrator 16.0.0, SVG Export Plug-In . SVG Version: 6.00 Build 0)  -->
<svg version="1.2" baseProfile="tiny" id="Layer_1" xmlns="http://www.w3.org/2000/svg" xmlns:xlink="http://www.w3.org/1999/xlink"
	 x="0px" y="0px" width="32px" height="32px" viewBox="0 0 32 32" xml:space="preserve">
<g>
	<path fill="none" d="M16,2C8.269,2,2,7.373,2,14c0,4.347,2.707,8.143,6.745,10.249L8,24v5l6-2.999l-0.678-0.226
		C14.189,25.919,15.083,26,16,26c7.732,0,14-5.373,14-12S23.732,2,16,2z M8,16c-1.104,0-2-0.895-2-2s0.896-2,2-2
		c1.105,0,2,0.895,2,2S9.105,16,8,16z M16,16c-1.104,0-2-0.895-2-2s0.896-2,2-2c1.105,0,2,0.895,2,2S17.105,16,16,16z M24,16
		c-1.104,0-2-0.895-2-2s0.896-2,2-2c1.105,0,2,0.895,2,2S25.105,16,24,16z"/>
	<circle fill="#B39346" cx="24" cy="14" r="2"/>
	<circle fill="#B39346" cx="8" cy="14" r="2"/>
	<path fill="#B39346" d="M16,0C7.164,0,0,6.268,0,14c0,4.419,2.346,8.354,6,10.919V32l8.191-4.095C14.786,27.963,15.388,28,16,28
		c8.837,0,16-6.268,16-14C32,6.268,24.837,0,16,0z M16,26c-0.917,0-1.811-0.081-2.678-0.225L14,26.001L8,29v-5l0.745,0.249
		C4.707,22.143,2,18.347,2,14C2,7.373,8.269,2,16,2c7.732,0,14,5.373,14,12S23.732,26,16,26z"/>
	<circle fill="#B39346" cx="16" cy="14" r="2"/>
</g>
</svg>
