<?xml version="1.0" encoding="utf-8"?>
<!-- Generator: Adobe Illustrator 16.0.0, SVG Export Plug-In . SVG Version: 6.00 Build 0)  -->
<svg version="1.2" baseProfile="tiny" id="Layer_1" xmlns="http://www.w3.org/2000/svg" xmlns:xlink="http://www.w3.org/1999/xlink"
	 x="0px" y="0px" width="31.997px" height="32.001px" viewBox="0 0 31.997 32.001" xml:space="preserve">
<g>
	<path fill="none" d="M22.795,24.999c-1.061-0.547-5.175-1.97-7.142-2.64l-0.299-1.468v-1.44c2.899-1.39,4.637-5.224,4.637-8.677
		c0-4.31-1.166-8.781-6.996-8.781s-6.996,4.471-6.996,8.781c0,3.833,2.143,8.136,5.638,9.042v1.076l-0.254,1.256
		c-1.527,0.509-6.659,2.234-7.855,2.852c-1.372,0.709-2.415,4.154-0.359,5c0.005,0,10.186-0.029,10.186-0.029l9.44,0.029
		C24.599,29.269,24.16,25.704,22.795,24.999z"/>
	<path fill="#B39346" d="M30.997,24h-2c-0.552,0-1,0.448-1,1.001s0.448,1,1,1h2c0.553,0,1-0.447,1-1S31.55,24,30.997,24z"/>
	<path fill="#B39346" d="M25.185,31.29c1.486-2.129,0.743-5.679-0.742-7.1c-0.902-0.861-7.915-2.838-7.915-2.838h-0.569
		c3.722-1.654,6.034-6.288,6.034-10.615C21.992,5.352,20.355,0,12.995,0C5.634,0,3.998,5.352,3.998,10.737
		c0,4.405,2.395,9.127,6.231,10.702c-1.567,0.387-7.837,1.97-8.661,2.751C0.632,25.078-0.013,26.797,0,28.481v0.003
		c0.008,1.01,0.253,2.008,0.814,2.806c0,0,0.297,0.711,12.183,0.711C24.884,32.001,25.185,31.29,25.185,31.29z M22.795,29.999
		l-9.44-0.029c0,0-10.181,0.029-10.186,0.029c-2.056-0.846-1.013-4.291,0.359-5c1.196-0.617,6.328-2.343,7.855-2.852l0.254-1.256
		v-1.076c-3.495-0.905-5.638-5.208-5.638-9.042c0-4.31,1.166-8.781,6.996-8.781s6.996,4.471,6.996,8.781
		c0,3.453-1.738,7.288-4.637,8.677v1.44l0.299,1.468c1.967,0.67,6.082,2.093,7.142,2.64C24.16,25.704,24.599,29.269,22.795,29.999z"
		/>
	<path fill="#B39346" d="M30.997,18.001h-4c-0.552,0-1,0.447-1,0.999c0,0.554,0.448,1.001,1,1.001h4c0.553,0,1-0.447,1-1.001
		C31.997,18.448,31.55,18.001,30.997,18.001z"/>
	<path fill="#B39346" d="M30.997,12.001h-6c-0.552,0-1,0.447-1,1c0,0.553,0.448,1,1,1h6c0.553,0,1-0.447,1-1
		C31.997,12.448,31.55,12.001,30.997,12.001z"/>
	<path fill="#B39346" d="M30.997,6.001h-6c-0.552,0-1,0.447-1,1c0,0.552,0.448,1,1,1h6c0.553,0,1-0.448,1-1
		C31.997,6.448,31.55,6.001,30.997,6.001z"/>
</g>
</svg>
