<svg width="32" height="32" viewBox="0 0 32 32" fill="none" xmlns="http://www.w3.org/2000/svg">
<g clip-path="url(#clip0_49_210)">
<path d="M24.018 23.011H7.99198C7.73598 23.001 7.66598 22.968 7.53698 22.902C6.98498 22.621 6.81698 21.768 7.28398 21.301C7.46898 21.116 7.72698 21.018 7.99198 21.008H24.018C24.044 21.009 24.07 21.01 24.096 21.011C24.351 21.041 24.418 21.08 24.541 21.156C25.052 21.469 25.162 22.282 24.726 22.718C24.541 22.903 24.283 23.001 24.018 23.011ZM24.018 17.002H7.99198C7.31198 16.975 6.76898 16.194 7.09998 15.545C7.24198 15.265 7.52398 15.06 7.83498 15.011C7.90498 15 7.92198 15.001 7.99198 14.998H24.018C24.044 14.999 24.07 15 24.096 15.001C24.351 15.032 24.418 15.071 24.541 15.146C25.051 15.458 25.168 16.267 24.726 16.708C24.541 16.894 24.283 16.991 24.018 17.002ZM24.018 10.992H7.99198C7.73598 10.982 7.66598 10.948 7.53698 10.883C6.98498 10.601 6.81698 9.74901 7.28398 9.28201C7.46898 9.09701 7.72698 8.99901 7.99198 8.98901H24.018C24.044 8.99001 24.07 8.99101 24.096 8.99201C24.351 9.02201 24.418 9.06101 24.541 9.13601C25.049 9.44801 25.17 10.254 24.726 10.699C24.541 10.884 24.283 10.982 24.018 10.992Z" fill="#B0B6AB"/>
</g>
<defs>
<clipPath id="clip0_49_210">
<rect width="32" height="32" fill="white"/>
</clipPath>
</defs>
</svg>
