<?xml version="1.0" standalone="no"?>
<!DOCTYPE svg PUBLIC "-//W3C//DTD SVG 1.1//EN" "http://www.w3.org/Graphics/SVG/1.1/DTD/svg11.dtd" >
<svg>
<metadata>
Created by FontForge 20110222 at Thu Feb 12 12:27:41 2015
 By deploy user
Copyright (c) 2014 Typotheque.com All rights reserved.
</metadata>
<defs>
<font id="NeutralStd-BoldItalic" horiz-adv-x="620" >
  <font-face 
    font-family="Neutral Std Bld"
    font-weight="700"
    font-style="italic"
    font-stretch="normal"
    units-per-em="1000"
    panose-1="0 0 0 0 0 0 0 0 0 0"
    ascent="778"
    descent="-222"
    x-height="545"
    cap-height="755"
    bbox="-283 -245 1170 1044"
    underline-thickness="70"
    underline-position="-117"
    slope="-9"
    unicode-range="U+0020-FB02"
  />
<missing-glyph horiz-adv-x="712" 
d="M80 0v27h27v-27h-27zM80 75v27h27v-27h-27zM80 150v27h27v-27h-27zM80 225v27h27v-27h-27zM80 300v27h27v-27h-27zM80 375v27h27v-27h-27zM80 450v27h27v-27h-27zM80 525v27h27v-27h-27zM80 600v27h27v-27h-27zM80 675v27h27v-27h-27zM155 0v27h27v-27h-27zM155 675v27
h27v-27h-27zM230 0v27h27v-27h-27zM230 525v27h27v-27h-27zM230 675v27h27v-27h-27zM305 0v27h27v-27h-27zM305 150v27h27v-27h-27zM305 300v27h27v-27h-27zM305 375v27h27v-27h-27zM305 525v27h27v-27h-27zM305 675v27h27v-27h-27zM380 0v27h27v-27h-27zM380 375v27h27v-27
h-27zM380 525v27h27v-27h-27zM380 675v27h27v-27h-27zM455 0v27h27v-27h-27zM455 375v27h27v-27h-27zM455 450v27h27v-27h-27zM455 525v27h27v-27h-27zM455 675v27h27v-27h-27zM530 0v27h27v-27h-27zM530 675v27h27v-27h-27zM605 0v27h27v-27h-27zM605 75v27h27v-27h-27z
M605 150v27h27v-27h-27zM605 225v27h27v-27h-27zM605 300v27h27v-27h-27zM605 375v27h27v-27h-27zM605 450v27h27v-27h-27zM605 525v27h27v-27h-27zM605 600v27h27v-27h-27zM605 675v27h27v-27h-27z" />
    <glyph glyph-name=".notdef" horiz-adv-x="712" 
d="M80 0v27h27v-27h-27zM80 75v27h27v-27h-27zM80 150v27h27v-27h-27zM80 225v27h27v-27h-27zM80 300v27h27v-27h-27zM80 375v27h27v-27h-27zM80 450v27h27v-27h-27zM80 525v27h27v-27h-27zM80 600v27h27v-27h-27zM80 675v27h27v-27h-27zM155 0v27h27v-27h-27zM155 675v27
h27v-27h-27zM230 0v27h27v-27h-27zM230 525v27h27v-27h-27zM230 675v27h27v-27h-27zM305 0v27h27v-27h-27zM305 150v27h27v-27h-27zM305 300v27h27v-27h-27zM305 375v27h27v-27h-27zM305 525v27h27v-27h-27zM305 675v27h27v-27h-27zM380 0v27h27v-27h-27zM380 375v27h27v-27
h-27zM380 525v27h27v-27h-27zM380 675v27h27v-27h-27zM455 0v27h27v-27h-27zM455 375v27h27v-27h-27zM455 450v27h27v-27h-27zM455 525v27h27v-27h-27zM455 675v27h27v-27h-27zM530 0v27h27v-27h-27zM530 675v27h27v-27h-27zM605 0v27h27v-27h-27zM605 75v27h27v-27h-27z
M605 150v27h27v-27h-27zM605 225v27h27v-27h-27zM605 300v27h27v-27h-27zM605 375v27h27v-27h-27zM605 450v27h27v-27h-27zM605 525v27h27v-27h-27zM605 600v27h27v-27h-27zM605 675v27h27v-27h-27z" />
    <glyph glyph-name=".null" horiz-adv-x="0" 
 />
    <glyph glyph-name="nonmarkingreturn" horiz-adv-x="333" 
 />
    <glyph glyph-name="space" unicode=" " horiz-adv-x="175" 
 />
    <glyph glyph-name="exclam" unicode="!" horiz-adv-x="343" 
d="M104 259l16 251l42 268h171l-43 -268l-64 -251h-122zM32 0l28 175h184l-28 -175h-184z" />
    <glyph glyph-name="quotedbl" unicode="&#x22;" horiz-adv-x="539" 
d="M118 407l4 348h184l-106 -348h-82zM364 407l4 348h184l-106 -348h-82z" />
    <glyph glyph-name="numbersign" unicode="#" horiz-adv-x="624" 
d="M355 276l46 144h-114l-46 -144h114zM267 0l57 177h-114l-57 -177h-104l57 177h-96l15 99h112l46 144h-95l16 99h111l50 156h104l-50 -156h114l50 156h104l-50 -156h91l-15 -99h-108l-46 -144h91l-16 -99h-106l-57 -177h-104z" />
    <glyph glyph-name="dollar" unicode="$" horiz-adv-x="679" 
d="M263 556q0 -32 16 -50.5t54 -29.5l25 158q-42 -2 -68.5 -24.5t-26.5 -53.5zM450 212q0 34 -18 52t-58 30l-27 -171q51 4 77 28.5t26 60.5zM305 -142h-70l20 129q-106 11 -167.5 67t-84.5 138l161 46q18 -45 44 -73t70 -38l29 186l-27 7q-95 26 -143.5 78t-48.5 140
q0 99 77.5 167t214.5 68l15 92h69l-15 -97q83 -15 143 -66t81 -118l-158 -49q-29 69 -89 90l-26 -168l35 -10q96 -27 145 -75.5t49 -130.5q0 -108 -78.5 -180t-225.5 -77z" />
    <glyph glyph-name="percent" unicode="%" horiz-adv-x="779" 
d="M14 -15l640 787h125l-639 -787h-126zM213 396q-72 0 -115 40.5t-43 113.5q0 100 49 161t129 61q72 0 115 -40.5t43 -113.5q0 -100 -49 -161t-129 -61zM212 480q34 0 50.5 45t16.5 101q0 62 -45 62q-34 0 -50.5 -45t-16.5 -101q0 -62 45 -62zM562 -15q-72 0 -115 40.5
t-43 113.5q0 100 49 161t129 61q72 0 115 -40.5t43 -113.5q0 -100 -49 -161t-129 -61zM561 69q34 0 50.5 45t16.5 101q0 62 -45 62q-34 0 -50.5 -45t-16.5 -101q0 -62 45 -62z" />
    <glyph glyph-name="ampersand" unicode="&#x26;" horiz-adv-x="769" 
d="M611 -17l-77 80q-92 -80 -232 -80q-119 0 -195.5 63.5t-76.5 160.5q0 79 41 127.5t120 86.5q-62 75 -62 149q0 97 69.5 154t177.5 57q100 0 161 -54t61 -130q0 -61 -38.5 -107t-127.5 -91l86 -89q18 46 34 106h160q-35 -140 -79 -223l97 -100zM296 586q0 -26 10.5 -46
t39.5 -51q51 25 73.5 50t22.5 57t-19 51t-49 19q-35 0 -56.5 -22.5t-21.5 -57.5zM316 127q67 0 115 42l-152 157q-42 -24 -56.5 -45.5t-14.5 -51.5q0 -47 32 -74.5t76 -27.5z" />
    <glyph glyph-name="quotesingle" unicode="'" horiz-adv-x="293" 
d="M118 407l4 348h184l-106 -348h-82z" />
    <glyph glyph-name="parenleft" unicode="(" horiz-adv-x="365" 
d="M282 -163h-103q-122 190 -122 400q0 51 7 99q18 117 70 218.5t86.5 139.5t93.5 93q7 8 11 11h111q-183 -208 -222 -459q-12 -79 -12 -148q0 -172 76 -345q3 -6 4 -9z" />
    <glyph glyph-name="parenright" unicode=")" horiz-adv-x="365" 
d="M76 798h103q122 -190 122 -400q0 -51 -7 -99q-18 -117 -70 -218.5t-86.5 -139.5t-93.5 -93q-7 -8 -11 -11h-111q183 208 222 459q12 80 12 148q0 172 -76 345q-3 6 -4 9z" />
    <glyph glyph-name="asterisk" unicode="*" horiz-adv-x="468" 
d="M323 778l-16 -166l2 -1l146 70l33 -102l-150 -43v-3l114 -124l-93 -64l-88 143h-4l-88 -140l-93 64l115 124l-1 2l-149 42l35 99l140 -68l4 2l-15 165h108z" />
    <glyph glyph-name="plus" unicode="+" horiz-adv-x="600" 
d="M73 259v136h163v169h144v-169h163v-136h-163v-175h-144v175h-163z" />
    <glyph glyph-name="comma" unicode="," horiz-adv-x="325" 
d="M-3 -188l-26 67q60 21 90 47t39 74h-79l28 175h184l-22 -138q-27 -174 -214 -225z" />
    <glyph glyph-name="hyphen" unicode="-" horiz-adv-x="433" 
d="M37 227l23 149h344l-24 -149h-343z" />
    <glyph glyph-name="hyphen" unicode="&#xad;" horiz-adv-x="433" 
d="M37 227l23 149h344l-24 -149h-343z" />
    <glyph glyph-name="period" unicode="." horiz-adv-x="325" 
d="M21 0l28 175h184l-27 -175h-185z" />
    <glyph glyph-name="slash" unicode="/" horiz-adv-x="413" 
d="M-122 -163l501 961h121l-501 -961h-121z" />
    <glyph glyph-name="zero" unicode="0" horiz-adv-x="734" 
d="M53 298q0 130 38.5 234t122.5 170t202 66q147 0 220 -85.5t73 -228.5q0 -76 -14 -145.5t-43.5 -129t-72 -103t-102.5 -68t-131 -24.5q-147 0 -220 86t-73 228zM517 472q0 154 -101 154q-54 0 -94 -49t-58.5 -126t-18.5 -171q0 -154 101 -154q54 0 94 49t58.5 126
t18.5 171z" />
    <glyph glyph-name="one" unicode="1" horiz-adv-x="483" 
d="M335 0h-180l87 546l-128 -75l-67 128l260 156h148z" />
    <glyph glyph-name="two" unicode="2" horiz-adv-x="656" 
d="M240 502l-165 33q27 113 102 174t192 61q115 0 186.5 -60t71.5 -157q0 -40 -9 -71t-27 -61t-62 -71t-95.5 -83t-145.5 -115v-3h299l-23 -149h-552l20 130q57 47 148 122q185 151 227.5 195.5t42.5 95.5q0 38 -24 61t-63 23q-93 0 -123 -125z" />
    <glyph glyph-name="three" unicode="3" horiz-adv-x="656" 
d="M323 126q52 0 82.5 27.5t30.5 73.5q0 44 -27 68t-73 24h-70l21 135h73q45 0 74.5 24.5t29.5 64.5q0 37 -23.5 60t-67.5 23q-89 0 -121 -106l-167 30q24 98 102 158.5t199 60.5q111 0 184 -54t73 -140q0 -133 -137 -182v-4q54 -19 83.5 -60t29.5 -97q0 -109 -81.5 -178
t-218.5 -69q-128 0 -206 65t-87 182l178 13q19 -119 119 -119z" />
    <glyph glyph-name="four" unicode="4" horiz-adv-x="700" 
d="M530 0h-174l24 147h-362l18 117l373 491h241l-73 -460h100l-23 -148h-101zM240 295h166l46 293h-5q-20 -42 -79 -121z" />
    <glyph glyph-name="five" unicode="5" horiz-adv-x="645" 
d="M288 -15q-113 0 -187.5 60t-84.5 165l176 14q16 -102 109 -102q60 0 91.5 36.5t31.5 92.5q0 46 -28 74t-74 28q-60 0 -105 -42l-141 65l109 379h452l-25 -157h-318l-43 -156h3q53 44 136 44q88 0 151 -55.5t63 -155.5q0 -58 -18 -109t-54.5 -92t-99 -65t-144.5 -24z" />
    <glyph glyph-name="six" unicode="6" horiz-adv-x="692" 
d="M680 581l-163 -36q-23 86 -103 86q-61 0 -101.5 -51t-61.5 -163h2q63 74 173 74q90 0 152.5 -59.5t62.5 -159.5q0 -111 -83.5 -199t-222.5 -88q-129 0 -205.5 77.5t-76.5 220.5q0 76 14 146.5t44 132.5t72.5 108t103.5 72.5t133 26.5q210 0 260 -188zM338 123
q55 0 87.5 40t32.5 102q0 46 -24 69.5t-64 23.5q-56 0 -88.5 -40.5t-32.5 -102.5q0 -43 23.5 -67.5t65.5 -24.5z" />
    <glyph glyph-name="seven" unicode="7" horiz-adv-x="612" 
d="M16 0l376 598h-326l25 157h537l-19 -123l-391 -632h-202z" />
    <glyph glyph-name="eight" unicode="8" horiz-adv-x="686" 
d="M395 771q121 0 195 -57t74 -143q0 -131 -132 -183v-5q45 -22 74.5 -64t29.5 -101q0 -104 -82.5 -169.5t-218.5 -65.5q-132 0 -212 59t-80 161q0 77 44.5 128t110.5 71v5q-82 56 -82 146q0 92 74.5 155t204.5 63zM395 640q-44 0 -74 -26t-30 -70q0 -42 26 -64t68 -22
q45 0 74.5 26.5t29.5 71.5q0 40 -27.5 62t-66.5 22zM337 117q50 0 82 30.5t32 82.5q0 48 -31 72t-75 24q-50 0 -82.5 -30.5t-32.5 -82.5q0 -47 31.5 -71.5t75.5 -24.5z" />
    <glyph glyph-name="nine" unicode="9" horiz-adv-x="691" 
d="M377 633q-56 0 -91 -38t-35 -92q0 -51 28.5 -78t73.5 -27q56 0 91 38.5t35 93.5q0 53 -29.5 78t-72.5 25zM30 170l167 36q22 -81 110 -81q57 0 98 51.5t56 149.5l-3 1q-34 -28 -68.5 -43t-88.5 -15q-34 0 -70.5 12t-72.5 36.5t-59 71.5t-23 108q0 111 81.5 192.5
t210.5 81.5q137 0 214.5 -79t77.5 -218q0 -212 -92 -350t-259 -138q-235 0 -279 184z" />
    <glyph glyph-name="colon" unicode=":" horiz-adv-x="325" 
d="M80 370l28 175h184l-28 -175h-184zM21 0l28 175h184l-27 -175h-185z" />
    <glyph glyph-name="semicolon" unicode=";" horiz-adv-x="325" 
d="M80 370l28 175h184l-28 -175h-184zM-3 -188l-26 67q60 21 90 47t39 74h-79l28 175h184l-21 -135q-14 -90 -66.5 -146t-148.5 -82z" />
    <glyph glyph-name="less" unicode="&#x3c;" horiz-adv-x="600" 
d="M540 58l-470 198v111l470 198v-129l-309 -123l309 -122v-133z" />
    <glyph glyph-name="equal" unicode="=" horiz-adv-x="600" 
d="M76 374v119h470v-119h-470zM76 160v119h470v-119h-470z" />
    <glyph glyph-name="greater" unicode="&#x3e;" horiz-adv-x="600" 
d="M73 566l470 -198v-111l-470 -198v129l309 123l-309 122v133z" />
    <glyph glyph-name="question" unicode="?" horiz-adv-x="616" 
d="M207 259l11 71q6 42 26 63.5t94 60.5q65 35 85 56t20 56q0 33 -25 53.5t-70 20.5q-49 0 -86 -29.5t-52 -78.5l-156 50q30 92 109 147.5t201 55.5q111 0 187 -59.5t76 -145.5q0 -77 -33 -125t-113 -89q-78 -40 -91 -50t-19 -35l-5 -22h-159zM156 0l28 175h184l-28 -175
h-184z" />
    <glyph glyph-name="at" unicode="@" horiz-adv-x="1052" 
d="M844 -98q-68 -50 -147.5 -76.5t-195.5 -26.5q-201 0 -326.5 124t-125.5 322q0 95 35 185.5t98.5 164.5t164.5 119.5t222 45.5q206 0 323 -115.5t117 -286.5q0 -151 -82 -241.5t-201 -90.5q-110 0 -143 85h-4q-54 -73 -144 -73q-73 0 -120.5 50t-47.5 147q0 123 66 212
t176 89q86 0 124 -64h4l12 49h157l-68 -323q-7 -37 3 -57t46 -20q60 0 98 69.5t38 160.5q0 153 -96 245.5t-268 92.5q-181 0 -299.5 -128t-118.5 -308t103 -280.5t270 -100.5q174 0 294 85zM432 230q0 -81 65 -81q38 0 65 36t37 77.5t10 78.5q0 81 -64 81q-39 0 -66 -36
t-37 -77.5t-10 -78.5z" />
    <glyph glyph-name="A" unicode="A" horiz-adv-x="775" 
d="M378 461l-72 -153h172l-24 153l-14 127h-9q-23 -62 -53 -127zM525 0l-25 160h-264l-75 -160h-194l378 755h229l138 -755h-187z" />
    <glyph glyph-name="B" unicode="B" horiz-adv-x="717" 
d="M20 0l120 755h322q110 0 172.5 -51t62.5 -130q0 -71 -40.5 -114t-108.5 -61v-3q123 -39 123 -167q0 -106 -72.5 -167.5t-200.5 -61.5h-378zM304 617l-26 -164h140q46 0 73 23t27 64q0 77 -94 77h-120zM228 138h150q109 0 109 98q0 38 -27.5 58.5t-70.5 20.5h-133z" />
    <glyph glyph-name="C" unicode="C" horiz-adv-x="773" 
d="M386 -16q-152 0 -244.5 87t-92.5 242q0 124 46 227t138.5 167t215.5 64q141 0 221.5 -66.5t97.5 -174.5l-193 -32q-8 53 -38.5 87t-90.5 34q-85 0 -141 -86t-56 -227q0 -83 39 -126.5t99 -43.5q111 0 159 121l186 -46q-13 -41 -37 -78t-64 -72t-103 -56t-142 -21z" />
    <glyph glyph-name="D" unicode="D" horiz-adv-x="768" 
d="M343 0h-323l120 755h236q69 0 130.5 -17.5t114.5 -54.5t84 -103t31 -154q0 -46 -9 -96t-35.5 -111t-68 -108t-114.5 -79t-166 -32zM232 152h93q51 0 91 20.5t62.5 50t37 69t19 71.5t4.5 63q0 88 -47 133t-134 45h-54z" />
    <glyph glyph-name="E" unicode="E" horiz-adv-x="641" 
d="M20 0l120 755h517l-25 -155h-329l-23 -150h281l-23 -145h-281l-24 -150h348l-24 -155h-537z" />
    <glyph glyph-name="F" unicode="F" horiz-adv-x="602" 
d="M20 0l120 755h497l-25 -156h-307l-27 -173h259l-24 -151h-259l-44 -275h-190z" />
    <glyph glyph-name="G" unicode="G" horiz-adv-x="813" 
d="M337 -16q-126 0 -207 83t-81 246q0 126 47 229t140.5 166t218.5 63q135 0 212 -64.5t96 -157.5l-186 -35q-26 107 -129 107q-88 0 -144 -87.5t-56 -228.5q0 -84 39.5 -128t110.5 -44q62 0 104 42t55 102l2 9h-146l21 133h334l-67 -419h-142l-4 75h-5q-71 -91 -213 -91z
" />
    <glyph glyph-name="H" unicode="H" horiz-adv-x="793" 
d="M484 0l48 308h-273l-49 -308h-190l120 755h190l-46 -291h273l46 291h190l-119 -755h-190z" />
    <glyph glyph-name="I" unicode="I" horiz-adv-x="330" 
d="M20 0l120 755h190l-120 -755h-190z" />
    <glyph glyph-name="J" unicode="J" horiz-adv-x="635" 
d="M258 -17q-119 0 -187.5 59t-75.5 158l185 18q11 -85 90 -85q44 0 69 23t34 77l83 522h190l-86 -541q-6 -35 -17 -65.5t-34 -62t-55.5 -53.5t-82.5 -36t-113 -14z" />
    <glyph glyph-name="K" unicode="K" horiz-adv-x="745" 
d="M236 199l-31 -199h-185l120 755h185l-49 -314l295 314h216l-308 -329l206 -426h-211l-138 302z" />
    <glyph glyph-name="L" unicode="L" horiz-adv-x="616" 
d="M20 0l120 755h190l-95 -598h321l-25 -157h-511z" />
    <glyph glyph-name="M" unicode="M" horiz-adv-x="988" 
d="M140 755h260l75 -397l10 -85h6q12 42 35 87l199 395h263l-119 -755h-183l83 530h-4q-20 -54 -60 -133l-202 -397h-118l-81 398q-7 35 -12 68t-6 48l-2 16h-5l-84 -530h-175z" />
    <glyph glyph-name="N" unicode="N" horiz-adv-x="787" 
d="M20 0l120 755h191l173 -387q8 -19 15.5 -41t10.5 -35l4 -12h5l75 475h173l-119 -755h-179l-180 397q-9 21 -17 43.5t-12 34.5l-3 12h-5l-77 -487h-175z" />
    <glyph glyph-name="O" unicode="O" horiz-adv-x="818" 
d="M388 -16q-152 0 -245.5 89.5t-93.5 248.5q0 123 44.5 223.5t137 163t219.5 62.5q152 0 245.5 -89.5t93.5 -247.5q0 -125 -44 -225.5t-136.5 -162.5t-220.5 -62zM250 304q0 -88 39.5 -130t106.5 -42q86 0 139 89t53 229q0 89 -39.5 131t-106.5 42q-86 0 -139 -88.5
t-53 -230.5z" />
    <glyph glyph-name="P" unicode="P" horiz-adv-x="699" 
d="M20 0l120 755h259q144 0 220 -65.5t76 -178.5q0 -136 -87.5 -208t-242.5 -72h-118l-37 -231h-190zM393 608h-86l-37 -230h108q131 0 131 127q0 103 -116 103z" />
    <glyph glyph-name="Q" unicode="Q" horiz-adv-x="818" 
d="M550 -78l-55 79q-51 -15 -110 -15q-153 0 -244.5 89.5t-91.5 247.5q0 123 44.5 223t137 162.5t219.5 62.5q151 0 245 -89.5t94 -247.5q0 -113 -43.5 -210.5t-122.5 -158.5l45 -64zM396 127h10l-54 78l118 80l58 -83q63 90 63 248q0 89 -40 132t-109 43q-86 0 -140 -90
t-54 -231q0 -177 148 -177z" />
    <glyph glyph-name="R" unicode="R" horiz-adv-x="718" 
d="M401 614h-93l-33 -207h114q57 0 90.5 29.5t33.5 84.5q0 45 -29 69t-83 24zM451 0l-96 261h-103l-42 -261h-190l120 755h308q111 0 184 -55.5t73 -161.5q0 -82 -46.5 -142.5t-125.5 -87.5v-2l120 -306h-202z" />
    <glyph glyph-name="S" unicode="S" horiz-adv-x="711" 
d="M337 -14q-139 0 -222.5 59t-104.5 147l177 48q15 -49 54.5 -79.5t101.5 -30.5t94 21.5t32 59.5q0 30 -19.5 49.5t-72.5 35.5l-79 23q-204 59 -204 216q0 105 79 170.5t219 65.5q120 0 198.5 -51.5t108.5 -135.5l-172 -47q-39 90 -147 90q-45 0 -70.5 -19.5t-25.5 -50.5
q0 -32 19 -51.5t67 -33.5l107 -31q185 -54 185 -198q0 -115 -79.5 -186t-245.5 -71z" />
    <glyph glyph-name="T" unicode="T" horiz-adv-x="663" 
d="M69 603l24 152h610l-24 -152h-210l-95 -603h-190l95 603h-210z" />
    <glyph glyph-name="U" unicode="U" horiz-adv-x="743" 
d="M342 -17q-168 0 -238 84.5t-45 237.5l71 450h190l-71 -456q-13 -82 12.5 -121t95.5 -39q64 0 92.5 36.5t41.5 117.5l73 462h189l-76 -484q-22 -141 -101.5 -214.5t-233.5 -73.5z" />
    <glyph glyph-name="V" unicode="V" horiz-adv-x="736" 
d="M272 755l64 -448q4 -30 6.5 -61.5t3.5 -47.5v-17h4q19 58 50 126l205 448h193l-369 -755h-217l-130 755h190z" />
    <glyph glyph-name="W" unicode="W" horiz-adv-x="1061" 
d="M599 0l-43 461l-188 -461h-228l-50 755h180l28 -542l224 542h161l53 -538l203 538h179l-289 -755h-230z" />
    <glyph glyph-name="X" unicode="X" horiz-adv-x="704" 
d="M165 0h-205l300 383l-168 372h199l96 -229l172 229h199l-295 -375l177 -380h-204l-99 233z" />
    <glyph glyph-name="Y" unicode="Y" horiz-adv-x="693" 
d="M208 0l51 321l-183 434h197l105 -274l182 274h199l-308 -425l-53 -330h-190z" />
    <glyph glyph-name="Z" unicode="Z" horiz-adv-x="676" 
d="M-14 0l20 128l429 477h-348l23 150h581l-20 -128l-428 -477h370l-23 -150h-604z" />
    <glyph glyph-name="bracketleft" unicode="[" horiz-adv-x="365" 
d="M14 -163l152 961h265l-15 -97h-123l-122 -767h123l-15 -97h-265z" />
    <glyph glyph-name="backslash" unicode="\" horiz-adv-x="413" 
d="M182 798l198 -961h-110l-197 961h109z" />
    <glyph glyph-name="bracketright" unicode="]" horiz-adv-x="365" 
d="M356 798l-152 -961h-265l15 97h123l122 767h-123l15 97h265z" />
    <glyph glyph-name="asciicircum" unicode="^" horiz-adv-x="454" 
d="M287 755l165 -353h-114l-96 203l-99 -203h-105l169 353h80z" />
    <glyph glyph-name="underscore" unicode="_" horiz-adv-x="525" 
d="M-56 -231l19 120h465l-19 -120h-465z" />
    <glyph glyph-name="grave" unicode="`" horiz-adv-x="495" 
d="M360 778l70 -167h-137l-113 167h180z" />
    <glyph glyph-name="a" unicode="a" horiz-adv-x="624" 
d="M206 165q0 -28 18.5 -44t49.5 -16q38 0 67 31t39 94q-25 2 -54 2q-65 0 -92.5 -17t-27.5 -50zM360 67q-65 -80 -164 -80q-80 0 -125 45t-45 109q0 190 301 190l68 -3l3 17q7 39 -12.5 63.5t-60.5 24.5q-67 0 -87 -63l-151 41q19 61 81 104.5t168 43.5q139 0 194 -71
t36 -193l-25 -160l-17 -135h-171z" />
    <glyph glyph-name="b" unicode="b" horiz-adv-x="667" 
d="M357 -12q-117 0 -155 83l-11 -71h-170l123 778h185l-47 -295q53 73 150 73q88 0 145.5 -58.5t57.5 -171.5q0 -146 -80 -242t-198 -96zM322 116q59 0 92 58.5t33 142.5q0 109 -86 109q-57 0 -89.5 -58t-32.5 -141q0 -55 22 -83t61 -28z" />
    <glyph glyph-name="c" unicode="c" horiz-adv-x="608" 
d="M285 -15q-119 0 -187 65t-68 184q0 136 85 230.5t223 94.5q113 0 176.5 -52.5t73.5 -124.5l-178 -30q-16 74 -76 74q-49 0 -85 -51.5t-36 -146.5q0 -51 22 -80t61 -29q33 0 60.5 23t40.5 56l171 -35q-28 -80 -102 -129t-181 -49z" />
    <glyph glyph-name="d" unicode="d" horiz-adv-x="665" 
d="M342 429q-59 0 -92 -58.5t-33 -142.5q0 -109 86 -109q54 0 88 58.5t34 140.5q0 55 -22 83t-61 28zM234 -11q-90 0 -147.5 61t-57.5 168q0 150 75.5 244.5t199.5 94.5q101 0 146 -69l46 290h183l-123 -778h-169l10 66q-58 -77 -163 -77z" />
    <glyph glyph-name="e" unicode="e" horiz-adv-x="619" 
d="M301 -15q-127 0 -199 68t-72 198q0 124 83.5 216t221.5 92q140 0 207 -91t42 -245h-380q-2 -46 24 -76.5t76 -30.5q72 0 109 62l153 -43q-26 -62 -95 -106t-170 -44zM326 435q-43 0 -72 -28t-38 -76h195q3 104 -85 104z" />
    <glyph glyph-name="f" unicode="f" horiz-adv-x="405" 
d="M43 422l19 123h77l5 33q15 101 77 155t170 54q20 0 40.5 -2.5t30.5 -4.5l11 -2l-33 -141q-20 5 -39 5q-32 0 -49.5 -17t-24.5 -56l-4 -24h105l-20 -123h-105l-67 -422h-184l67 422h-76z" />
    <glyph glyph-name="g" unicode="g" horiz-adv-x="661" 
d="M339 433q-60 0 -91 -60.5t-31 -139.5q0 -108 89 -108q54 0 86.5 57.5t32.5 140.5q0 54 -23.5 82t-62.5 28zM245 -232q-114 0 -180.5 42.5t-85.5 112.5l155 50q30 -71 115 -71q57 0 87.5 24t40.5 91l7 47q-46 -61 -132 -61q-109 0 -165 65.5t-56 164.5q0 140 72 232
t198 92q116 0 160 -83l12 71h169l-78 -492q-23 -147 -92 -216t-227 -69z" />
    <glyph glyph-name="h" unicode="h" horiz-adv-x="659" 
d="M329 778l-50 -316q58 94 168 94q93 0 134.5 -56t26.5 -155l-54 -345h-184l50 316q15 99 -59 99q-36 0 -68.5 -30.5t-43.5 -103.5l-44 -281h-184l124 778h184z" />
    <glyph glyph-name="i" unicode="i" horiz-adv-x="314" 
d="M119 622l25 156h184l-25 -156h-184zM22 0l85 545h184l-86 -545h-183z" />
    <glyph glyph-name="j" unicode="j" horiz-adv-x="313" 
d="M119 622l25 156h185l-25 -156h-185zM-22 -232q-27 0 -51.5 3t-34.5 5l-11 3l30 136q18 -3 42 -3q56 0 66 74l88 559h185l-87 -549q-18 -115 -76.5 -171.5t-150.5 -56.5z" />
    <glyph glyph-name="k" unicode="k" horiz-adv-x="632" 
d="M395 0l-107 221l-60 -60l-26 -161h-181l123 778h181l-66 -422l196 189h212l-239 -222l162 -323h-195z" />
    <glyph glyph-name="l" unicode="l" horiz-adv-x="314" 
d="M21 0l123 778h184l-123 -778h-184z" />
    <glyph glyph-name="m" unicode="m" horiz-adv-x="1008" 
d="M21 0l86 545h171l-15 -98q63 109 183 109q132 0 160 -110q64 110 191 110q91 0 133.5 -56.5t26.5 -155.5l-54 -344h-184l50 315q15 100 -59 100q-36 0 -68.5 -30.5t-43.5 -103.5l-44 -281h-184l50 315q15 100 -59 100q-36 0 -68.5 -30.5t-43.5 -103.5l-44 -281h-184z" />
    <glyph glyph-name="n" unicode="n" horiz-adv-x="659" 
d="M21 0l86 545h171l-15 -98q63 109 184 109q93 0 135 -56t26 -156l-54 -344h-184l50 315q15 100 -59 100q-36 0 -68.5 -30.5t-43.5 -103.5l-44 -281h-184z" />
    <glyph glyph-name="o" unicode="o" horiz-adv-x="638" 
d="M299 -15q-123 0 -196 65t-73 184q0 136 83.5 230.5t224.5 94.5q125 0 197.5 -65.5t72.5 -184.5q0 -135 -84 -229.5t-225 -94.5zM215 228q0 -110 84 -110q59 0 91.5 58.5t32.5 139.5q0 110 -85 110q-58 0 -90.5 -58t-32.5 -140z" />
    <glyph glyph-name="p" unicode="p" horiz-adv-x="667" 
d="M322 116q59 0 92 58.5t33 142.5q0 109 -86 109q-57 0 -89.5 -58t-32.5 -141q0 -55 22 -83t61 -28zM-14 -223l121 768h170l-13 -83q63 94 168 94q91 0 147 -60.5t56 -169.5q0 -147 -79.5 -242.5t-198.5 -95.5q-94 0 -144 62l-43 -273h-184z" />
    <glyph glyph-name="q" unicode="q" horiz-adv-x="666" 
d="M337 -222l43 274q-50 -63 -140 -63q-93 0 -152 61.5t-59 168.5q0 151 75 244.5t193 93.5q124 0 164 -82l12 70h170l-122 -767h-184zM342 429q-58 0 -91.5 -59t-33.5 -142q0 -109 86 -109q54 0 88 58.5t34 140.5q0 55 -22 83t-61 28z" />
    <glyph glyph-name="r" unicode="r" horiz-adv-x="448" 
d="M21 0l86 545h171l-17 -106h4q50 121 207 113l-39 -179q-29 3 -51 3q-64 0 -100 -43q-28 -33 -41 -105l-36 -228h-184z" />
    <glyph glyph-name="s" unicode="s" horiz-adv-x="575" 
d="M265 -17q-109 0 -179 45t-83 123l173 20q16 -65 97 -65t81 48q0 34 -46 43l-93 18q-67 13 -110.5 55t-43.5 108q0 80 65.5 130.5t174.5 50.5q110 0 174.5 -43t81.5 -120l-172 -19q-6 27 -28.5 43.5t-55.5 16.5q-67 0 -67 -40q0 -20 14 -30.5t50 -17.5l66 -13
q165 -32 165 -155q0 -89 -65.5 -143.5t-198.5 -54.5z" />
    <glyph glyph-name="t" unicode="t" horiz-adv-x="408" 
d="M33 422l19 123h81l32 146h168l-23 -146h108l-20 -123h-106l-35 -220q-7 -43 7 -59.5t53 -16.5q14 0 38 3l-10 -127q-66 -14 -117 -14q-88 0 -130.5 48t-28.5 134l41 252h-77z" />
    <glyph glyph-name="u" unicode="u" horiz-adv-x="649" 
d="M211 -13q-99 0 -138.5 60.5t-22.5 163.5l54 334h183l-51 -317q-16 -101 58 -101q38 0 64.5 30.5t36.5 90.5l47 297h184l-86 -545h-172l15 92q-62 -105 -172 -105z" />
    <glyph glyph-name="v" unicode="v" horiz-adv-x="586" 
d="M337 0h-196l-108 545h187l38 -258q4 -24 6 -52t2 -44l1 -16h6q16 58 40 111l116 259h188z" />
    <glyph glyph-name="w" unicode="w" horiz-adv-x="879" 
d="M464 0l-14 232l-1 125h-7q-20 -70 -41 -124l-89 -233h-218l-44 545h173l10 -244l1 -153h6q24 87 50 153l94 244h180l17 -244q2 -29 3 -71.5t1 -69.5v-28h6q27 104 51 169l90 244h172l-217 -545h-223z" />
    <glyph glyph-name="x" unicode="x" horiz-adv-x="613" 
d="M357 0l-70 141l-114 -141h-192l237 275l-146 270h194l68 -145l112 145h194l-237 -276l145 -269h-191z" />
    <glyph glyph-name="y" unicode="y" horiz-adv-x="595" 
d="M40 -223l113 215l-116 553h183l46 -251q4 -24 7 -53.5t4 -46.5l1 -17h6q19 63 43 117l113 251h185l-401 -768h-184z" />
    <glyph glyph-name="z" unicode="z" horiz-adv-x="558" 
d="M77 408l22 137h449l-18 -117l-284 -290h243l-22 -138h-462l18 118l286 290h-232z" />
    <glyph glyph-name="braceleft" unicode="{" horiz-adv-x="367" 
d="M29 259l18 114h31q73 0 81 92l15 169q15 176 227 166l40 -2l-15 -94l-22 1q-51 2 -70 -16.5t-25 -66.5l-22 -178q-12 -105 -116 -124v-5q97 -25 75 -138l-33 -164q-9 -41 7 -61.5t62 -20.5h22l-15 -94h-32q-221 0 -177 196l32 140q20 86 -53 86h-30z" />
    <glyph glyph-name="bar" unicode="|" horiz-adv-x="266" 
d="M90 -163v961h114v-961h-114z" />
    <glyph glyph-name="braceright" unicode="}" horiz-adv-x="367" 
d="M331 376l-18 -114h-31q-73 0 -81 -92l-15 -169q-15 -176 -227 -166l-40 2l15 94l22 -1q51 -2 70 16.5t25 66.5l22 178q12 105 116 124v5q-97 25 -75 138l33 164q9 41 -7 61.5t-62 20.5h-22l15 94h32q221 0 177 -196l-32 -140q-20 -86 53 -86h30z" />
    <glyph glyph-name="asciitilde" unicode="~" horiz-adv-x="555" 
d="M46 241q0 172 150 172q39 0 100 -20.5t78 -20.5q49 0 53 46h94q0 -84 -39 -128t-106 -44q-44 0 -105.5 21t-79.5 21q-44 0 -49 -47h-96z" />
    <glyph glyph-name="uni00A0" unicode="&#xa0;" horiz-adv-x="260" 
 />
    <glyph glyph-name="exclamdown" unicode="&#xa1;" horiz-adv-x="343" 
d="M251 352l-16 -251l-42 -268h-171l43 268l64 251h122zM323 611l-28 -175h-184l28 175h184z" />
    <glyph glyph-name="cent" unicode="&#xa2;" horiz-adv-x="601" 
d="M210 227q0 -78 44 -105l48 305q-40 -17 -66 -68.5t-26 -131.5zM568 163q-27 -77 -96.5 -125.5t-170.5 -52.5l-20 -127h-69l21 131q-96 14 -149.5 77.5t-53.5 167.5q0 132 80.5 225.5t212.5 99.5l20 127h69l-21 -131q88 -12 138 -61t59 -112l-175 -28q-10 55 -42 72
l-49 -310q51 17 78 80z" />
    <glyph glyph-name="sterling" unicode="&#xa3;" horiz-adv-x="654" 
d="M579 148l-23 -148h-553l18 116q175 16 156 178h-113l19 121h76l-10 68q-19 122 50 204.5t202 82.5q92 0 152 -46.5t87 -125.5l-143 -54q-20 50 -42.5 70.5t-54.5 20.5q-42 0 -63.5 -29t-15.5 -78l15 -113h147l-19 -121h-117q-3 -100 -87 -142v-4h319z" />
    <glyph glyph-name="currency" unicode="&#xa4;" horiz-adv-x="600" 
d="M235 334q0 -37 22 -59.5t56 -22.5q33 0 55.5 23t22.5 59q0 35 -22.5 57.5t-55.5 22.5t-55.5 -22t-22.5 -58zM132 334q0 43 16 76l-87 88l86 87l87 -89q34 18 78 18q42 0 77 -18l93 95l87 -87l-93 -96q16 -35 16 -74q0 -40 -17 -76l90 -88l-89 -88l-89 88q-37 -16 -75 -16
q-39 0 -76 16l-89 -90l-88 85l91 90q-18 36 -18 79z" />
    <glyph glyph-name="yen" unicode="&#xa5;" horiz-adv-x="729" 
d="M626 96h-200l-15 -96h-181l15 96h-209l16 102h209l14 83h-210l16 102h189l-157 372h191l94 -253l165 253h196l-271 -372h183l-16 -102h-199l-13 -83h199z" />
    <glyph glyph-name="brokenbar" unicode="&#xa6;" horiz-adv-x="266" 
d="M80 407v391h116v-391h-116zM80 -163v391h116v-391h-116z" />
    <glyph glyph-name="section" unicode="&#xa7;" horiz-adv-x="613" 
d="M370 330q7 -2 20.5 -4.5t18.5 -4.5q21 15 21 41q0 19 -13 30.5t-45 18.5l-100 24q-26 5 -40 11q-23 -16 -23 -40q0 -20 12 -32t44 -19zM498 255v-1q24 -33 24 -81q0 -86 -69 -138t-181 -52q-109 0 -170 45t-74 117l151 24q19 -72 99 -72q79 0 79 54q0 37 -50 48l-124 30
q-67 16 -100 54t-33 87q0 50 25.5 82.5t74.5 55.5v3q-28 37 -28 87q0 81 63 128t169 47q101 0 160 -43.5t77 -106.5l-147 -30q-19 67 -95 67q-32 0 -49 -12t-17 -33q0 -36 66 -52l107 -26q61 -15 97 -51.5t36 -89.5q0 -44 -20.5 -75.5t-70.5 -65.5z" />
    <glyph glyph-name="dieresis" unicode="&#xa8;" horiz-adv-x="495" 
d="M339 623l24 155h160l-25 -155h-159zM104 623l25 155h159l-24 -155h-160z" />
    <glyph glyph-name="copyright" unicode="&#xa9;" horiz-adv-x="875" 
d="M45 377q6 170 123.5 281.5t282.5 111.5q167 0 276 -111.5t103 -281.5t-124 -281t-283 -111q-167 0 -275.5 111t-102.5 281zM114 377q-5 -145 84.5 -237.5t226.5 -92.5q138 0 234.5 92.5t101.5 237.5t-85 238t-227 93q-138 0 -234 -93t-101 -238zM412 149q-87 0 -142 50
t-55 146q0 51 14.5 97.5t42.5 85.5t76 62.5t110 23.5q85 0 135.5 -44t61.5 -119l-143 -7q-8 63 -61 63q-44 0 -68.5 -50t-24.5 -114q0 -86 63 -86q51 0 72 56l133 -22q-52 -142 -214 -142z" />
    <glyph glyph-name="ordfeminine" unicode="&#xaa;" horiz-adv-x="469" 
d="M246 440q59 0 77 90q-17 2 -40 2q-82 0 -82 -49q0 -43 45 -43zM180 349q-56 0 -88 32.5t-32 79.5q0 142 218 142l52 -1l3 16q4 27 -9.5 42t-40.5 15q-48 0 -64 -47l-121 27q18 49 66.5 84t129.5 35q98 0 141.5 -50.5t27.5 -149.5l-18 -115l-14 -101h-129l4 47
q-49 -56 -126 -56z" />
    <glyph glyph-name="guillemotleft" unicode="&#xab;" horiz-adv-x="580" 
d="M405 470h156l-151 -213l94 -206h-153l-98 206zM172 470h156l-151 -213l94 -206h-153l-98 206z" />
    <glyph glyph-name="logicalnot" unicode="&#xac;" horiz-adv-x="600" 
d="M68 260v134h470v-310h-134v176h-336z" />
    <glyph glyph-name="registered" unicode="&#xae;" horiz-adv-x="463" 
d="M262 355q-89 0 -144 56t-55 144q0 79 59.5 145.5t152.5 66.5q89 0 144.5 -56t55.5 -144q0 -79 -59.5 -145.5t-153.5 -66.5zM261 387q80 0 129.5 55.5t49.5 124.5q0 73 -46 120.5t-119 47.5q-79 0 -128 -55.5t-49 -124.5q0 -73 45.5 -120.5t117.5 -47.5zM286 633h-30
l-9 -60h28q40 0 40 33q0 27 -29 27zM168 451l36 225h90q34 0 57 -18t23 -47q0 -50 -53 -66l35 -94h-61l-30 80h-25l-13 -80h-59z" />
    <glyph glyph-name="macron" unicode="&#xaf;" horiz-adv-x="495" 
d="M123 623l19 117h359l-19 -117h-359z" />
    <glyph glyph-name="degree" unicode="&#xb0;" horiz-adv-x="390" 
d="M93 619q0 66 44 110.5t111 44.5t111 -44.5t44 -110.5t-45 -110t-112 -44q-66 0 -109.5 44t-43.5 110zM166 619q0 -39 22 -63.5t59 -24.5t60 24.5t23 63.5t-23 64t-60 25q-36 0 -58.5 -25t-22.5 -64z" />
    <glyph glyph-name="plusminus" unicode="&#xb1;" horiz-adv-x="600" 
d="M69 305v124h168v145h134v-145h168v-124h-168v-151h-134v151h-168zM69 0v114h470v-114h-470z" />
    <glyph glyph-name="twosuperior" unicode="&#xb2;" horiz-adv-x="416" 
d="M217 672l-110 20q17 63 64 100.5t119 37.5q68 0 112 -35.5t44 -88.5q0 -48 -36 -89.5t-146 -115.5v-3h159l-17 -98h-334l13 78q92 66 135 98t71 57t33 36t5 27q0 20 -12.5 31.5t-33.5 11.5q-48 0 -66 -67z" />
    <glyph glyph-name="threesuperior" unicode="&#xb3;" horiz-adv-x="427" 
d="M271 482q27 0 43 14t16 36q0 42 -52 42h-45l15 80h42q26 0 41 12t15 33q0 17 -12 28t-34 11q-52 0 -68 -55l-113 20q14 56 64.5 91.5t124.5 35.5q66 0 110.5 -31t44.5 -82q0 -70 -74 -98v-2q62 -22 62 -89q0 -60 -50.5 -98.5t-135.5 -38.5q-73 0 -123 40t-56 106l119 9
q10 -64 66 -64z" />
    <glyph glyph-name="acute" unicode="&#xb4;" horiz-adv-x="495" 
d="M154 611l112 167h190l-164 -167h-138z" />
    <glyph glyph-name="paragraph" unicode="&#xb6;" horiz-adv-x="609" 
d="M290 -222l155 977h164l-155 -977h-164zM306 300q-106 7 -165.5 69t-59.5 158q0 101 67 164.5t184 63.5h46z" />
    <glyph glyph-name="periodcentered" unicode="&#xb7;" horiz-adv-x="303" 
d="M48 212l28 175h184l-28 -175h-184z" />
    <glyph glyph-name="cedilla" unicode="&#xb8;" horiz-adv-x="495" 
d="M261 26l-56 -75l2 -2q15 4 41 4q39 0 66 -21t27 -59q0 -46 -37.5 -75.5t-94.5 -29.5q-78 0 -125 47l53 46q32 -29 65 -29q18 0 30 8t12 23q0 13 -9.5 20.5t-24.5 7.5q-11 0 -37 -8l-54 30l77 113h65z" />
    <glyph glyph-name="onesuperior" unicode="&#xb9;" horiz-adv-x="327" 
d="M286 400h-122l48 290l-88 -47l-42 82l175 97h100z" />
    <glyph glyph-name="ordmasculine" unicode="&#xba;" horiz-adv-x="505" 
d="M279 348q-92 0 -147 47.5t-55 135.5q0 101 63 172t168 71q92 0 147 -49t55 -137q0 -100 -63.5 -170t-167.5 -70zM280 450q44 0 69 41.5t25 101.5q0 79 -67 79q-44 0 -69 -41.5t-25 -101.5q0 -79 67 -79z" />
    <glyph glyph-name="guillemotright" unicode="&#xbb;" horiz-adv-x="580" 
d="M393 51h-156l151 213l-94 206h153l98 -206zM160 51h-156l151 213l-94 206h153l98 -206z" />
    <glyph glyph-name="onequarter" unicode="&#xbc;" horiz-adv-x="949" 
d="M275 333h-122l48 290l-88 -47l-42 82l175 97h100zM109 -15l639 787h125l-638 -787h-126zM834 0h-115l13 78h-218l14 77l218 267h162l-46 -257h56l-15 -87h-56zM645 165h105l32 176h-6q-24 -44 -61 -90z" />
    <glyph glyph-name="onehalf" unicode="&#xbd;" horiz-adv-x="968" 
d="M275 333h-122l48 290l-88 -47l-42 82l175 97h100zM109 -15l639 787h125l-638 -787h-126zM705 272l-110 20q17 63 64 100.5t119 37.5q68 0 112 -35.5t44 -88.5q0 -48 -36 -89.5t-146 -115.5v-3h159l-17 -98h-334l13 78q92 66 135 98t71 57t33 36t5 27q0 20 -12.5 31.5
t-33.5 11.5q-48 0 -66 -67z" />
    <glyph glyph-name="threequarters" unicode="&#xbe;" horiz-adv-x="1029" 
d="M260 415q27 0 43 14t16 36q0 42 -52 42h-45l15 80h42q26 0 41 12t15 33q0 17 -12 28t-34 11q-52 0 -68 -55l-113 20q14 56 64.5 91.5t124.5 35.5q66 0 110.5 -31t44.5 -82q0 -70 -74 -98v-2q62 -22 62 -89q0 -60 -50.5 -98.5t-135.5 -38.5q-73 0 -123 40t-56 106l119 9
q10 -64 66 -64zM189 -15l639 787h125l-638 -787h-126zM914 0h-115l13 78h-218l14 77l218 267h162l-46 -257h56l-15 -87h-56zM725 165h105l32 176h-6q-24 -44 -61 -90z" />
    <glyph glyph-name="questiondown" unicode="&#xbf;" horiz-adv-x="616" 
d="M406 352l-11 -71q-6 -42 -26 -63.5t-94 -60.5q-65 -35 -85 -56t-20 -56q0 -33 25 -53.5t70 -20.5q49 0 86 29.5t52 78.5l156 -50q-30 -92 -109 -147.5t-201 -55.5q-111 0 -187 59.5t-76 145.5q0 77 33 125t113 89q78 40 91 50t19 35l5 22h159zM457 611l-28 -175h-184
l28 175h184z" />
    <glyph glyph-name="Agrave" unicode="&#xc0;" horiz-adv-x="775" 
d="M378 461l-72 -153h172l-24 153l-14 127h-9q-23 -62 -53 -127zM525 0l-25 160h-264l-75 -160h-194l378 755h229l138 -755h-187zM478 947l64 -142h-134l-116 142h186z" />
    <glyph glyph-name="Aacute" unicode="&#xc1;" horiz-adv-x="775" 
d="M378 461l-72 -153h172l-24 153l-14 127h-9q-23 -62 -53 -127zM525 0l-25 160h-264l-75 -160h-194l378 755h229l138 -755h-187zM385 805l101 142h187l-147 -142h-141z" />
    <glyph glyph-name="Acircumflex" unicode="&#xc2;" horiz-adv-x="775" 
d="M378 461l-72 -153h172l-24 153l-14 127h-9q-23 -62 -53 -127zM525 0l-25 160h-264l-75 -160h-194l378 755h229l138 -755h-187zM304 798l18 114l172 55l156 -55l-18 -116l-156 53z" />
    <glyph glyph-name="Atilde" unicode="&#xc3;" horiz-adv-x="775" 
d="M378 461l-72 -153h172l-24 153l-14 127h-9q-23 -62 -53 -127zM525 0l-25 160h-264l-75 -160h-194l378 755h229l138 -755h-187zM355 800h-94q10 76 48 117t96 41q31 0 80 -21t70 -21q37 0 42 41h98q-10 -78 -47 -118t-92 -40q-32 0 -85.5 22t-69.5 22q-39 0 -46 -43z" />
    <glyph glyph-name="Adieresis" unicode="&#xc4;" horiz-adv-x="775" 
d="M378 461l-72 -153h172l-24 153l-14 127h-9q-23 -62 -53 -127zM525 0l-25 160h-264l-75 -160h-194l378 755h229l138 -755h-187zM507 805l24 155h160l-25 -155h-159zM272 805l25 155h159l-25 -155h-159z" />
    <glyph glyph-name="Aring" unicode="&#xc5;" horiz-adv-x="775" 
d="M378 461l-72 -153h172l-24 153l-14 127h-9q-23 -62 -53 -127zM525 0l-25 160h-264l-75 -160h-194l378 755h229l138 -755h-187zM409 917q0 -26 16.5 -43.5t40.5 -17.5q23 0 40 18.5t17 44.5q0 25 -16 42t-39 17q-24 0 -41.5 -18t-17.5 -43zM334 917q0 52 40 89.5t95 37.5
q56 0 93.5 -35.5t37.5 -89.5q0 -52 -40 -89.5t-95 -37.5q-57 0 -94 35t-37 90z" />
    <glyph glyph-name="AE" unicode="&#xc6;" horiz-adv-x="998" 
d="M370 401l-50 -99h142l47 298h-43q-32 -73 -96 -199zM414 0l25 160h-190l-80 -160h-200l403 755h641l-24 -155h-294l-24 -150h246l-23 -145h-246l-24 -150h314l-25 -155h-499z" />
    <glyph glyph-name="Ccedilla" unicode="&#xc7;" horiz-adv-x="773" 
d="M342 -232q-78 0 -125 47l53 46q32 -29 65 -29q18 0 30 8t12 23q0 13 -9.5 20.5t-24.5 7.5q-11 0 -37 -8l-54 30l53 78q-119 22 -187.5 105.5t-68.5 216.5q0 124 46 227t138.5 167t215.5 64q141 0 221.5 -66.5t97.5 -174.5l-193 -32q-8 53 -38.5 87t-90.5 34
q-85 0 -141 -86t-56 -227q0 -83 39 -126.5t99 -43.5q111 0 159 121l186 -46q-13 -41 -37 -78t-64 -72t-103 -56t-142 -21q-16 0 -23 1l-25 -34l2 -2q15 4 41 4q39 0 66 -21t27 -59q0 -46 -37.5 -75.5t-94.5 -29.5z" />
    <glyph glyph-name="Egrave" unicode="&#xc8;" horiz-adv-x="641" 
d="M20 0l120 755h517l-25 -155h-329l-23 -150h281l-23 -145h-281l-24 -150h348l-24 -155h-537zM420 947l64 -142h-134l-116 142h186z" />
    <glyph glyph-name="Eacute" unicode="&#xc9;" horiz-adv-x="641" 
d="M20 0l120 755h517l-25 -155h-329l-23 -150h281l-23 -145h-281l-24 -150h348l-24 -155h-537zM328 805l101 142h187l-147 -142h-141z" />
    <glyph glyph-name="Ecircumflex" unicode="&#xca;" horiz-adv-x="641" 
d="M20 0l120 755h517l-25 -155h-329l-23 -150h281l-23 -145h-281l-24 -150h348l-24 -155h-537zM247 798l18 114l172 55l156 -55l-18 -116l-156 53z" />
    <glyph glyph-name="Edieresis" unicode="&#xcb;" horiz-adv-x="641" 
d="M20 0l120 755h517l-25 -155h-329l-23 -150h281l-23 -145h-281l-24 -150h348l-24 -155h-537zM445 805l24 155h160l-25 -155h-159zM210 805l25 155h159l-25 -155h-159z" />
    <glyph glyph-name="Igrave" unicode="&#xcc;" horiz-adv-x="330" 
d="M20 0l120 755h190l-120 -755h-190zM252 947l64 -142h-134l-116 142h186z" />
    <glyph glyph-name="Iacute" unicode="&#xcd;" horiz-adv-x="330" 
d="M20 0l120 755h190l-120 -755h-190zM159 805l101 142h187l-147 -142h-141z" />
    <glyph glyph-name="Icircumflex" unicode="&#xce;" horiz-adv-x="330" 
d="M95 798l18 114l155 52l137 -52l-18 -116l-138 50zM20 0l120 755h190l-120 -755h-190z" />
    <glyph glyph-name="Idieresis" unicode="&#xcf;" horiz-adv-x="330" 
d="M266 805l25 155h156l-25 -155h-156zM64 805l25 155h156l-25 -155h-156zM20 0l120 755h190l-120 -755h-190z" />
    <glyph glyph-name="Eth" unicode="&#xd0;" horiz-adv-x="768" 
d="M343 0h-323l52 327h-63l18 117h64l49 311h236q69 0 130.5 -17.5t114.5 -54.5t84 -103t31 -154q0 -46 -9 -96t-35.5 -111t-68 -108t-114.5 -79t-166 -32zM232 152h93q51 0 91 20.5t62.5 50t37 69t19 71.5t4.5 63q0 88 -47 133t-134 45h-54l-25 -160h130l-18 -117h-131z
" />
    <glyph glyph-name="Ntilde" unicode="&#xd1;" horiz-adv-x="787" 
d="M20 0l120 755h191l173 -387q8 -19 15.5 -41t10.5 -35l4 -12h5l75 475h173l-119 -755h-179l-180 397q-9 21 -17 43.5t-12 34.5l-3 12h-5l-77 -487h-175zM369 800h-94q10 76 48 117t96 41q31 0 80 -21t70 -21q37 0 42 41h98q-10 -78 -47 -118t-92 -40q-32 0 -85.5 22
t-69.5 22q-39 0 -46 -43z" />
    <glyph glyph-name="Ograve" unicode="&#xd2;" horiz-adv-x="818" 
d="M388 -16q-152 0 -245.5 89.5t-93.5 248.5q0 123 44.5 223.5t137 163t219.5 62.5q152 0 245.5 -89.5t93.5 -247.5q0 -125 -44 -225.5t-136.5 -162.5t-220.5 -62zM250 304q0 -88 39.5 -130t106.5 -42q86 0 139 89t53 229q0 89 -39.5 131t-106.5 42q-86 0 -139 -88.5
t-53 -230.5zM483 947l64 -142h-134l-116 142h186z" />
    <glyph glyph-name="Oacute" unicode="&#xd3;" horiz-adv-x="818" 
d="M388 -16q-152 0 -245.5 89.5t-93.5 248.5q0 123 44.5 223.5t137 163t219.5 62.5q152 0 245.5 -89.5t93.5 -247.5q0 -125 -44 -225.5t-136.5 -162.5t-220.5 -62zM250 304q0 -88 39.5 -130t106.5 -42q86 0 139 89t53 229q0 89 -39.5 131t-106.5 42q-86 0 -139 -88.5
t-53 -230.5zM390 805l101 142h187l-147 -142h-141z" />
    <glyph glyph-name="Ocircumflex" unicode="&#xd4;" horiz-adv-x="818" 
d="M388 -16q-152 0 -245.5 89.5t-93.5 248.5q0 123 44.5 223.5t137 163t219.5 62.5q152 0 245.5 -89.5t93.5 -247.5q0 -125 -44 -225.5t-136.5 -162.5t-220.5 -62zM250 304q0 -88 39.5 -130t106.5 -42q86 0 139 89t53 229q0 89 -39.5 131t-106.5 42q-86 0 -139 -88.5
t-53 -230.5zM309 798l18 114l172 55l156 -55l-18 -116l-156 53z" />
    <glyph glyph-name="Otilde" unicode="&#xd5;" horiz-adv-x="818" 
d="M388 -16q-152 0 -245.5 89.5t-93.5 248.5q0 123 44.5 223.5t137 163t219.5 62.5q152 0 245.5 -89.5t93.5 -247.5q0 -125 -44 -225.5t-136.5 -162.5t-220.5 -62zM250 304q0 -88 39.5 -130t106.5 -42q86 0 139 89t53 229q0 89 -39.5 131t-106.5 42q-86 0 -139 -88.5
t-53 -230.5zM361 800h-94q10 76 48 117t96 41q31 0 80 -21t70 -21q37 0 42 41h98q-10 -78 -47 -118t-92 -40q-32 0 -85.5 22t-69.5 22q-39 0 -46 -43z" />
    <glyph glyph-name="Odieresis" unicode="&#xd6;" horiz-adv-x="818" 
d="M388 -16q-152 0 -245.5 89.5t-93.5 248.5q0 123 44.5 223.5t137 163t219.5 62.5q152 0 245.5 -89.5t93.5 -247.5q0 -125 -44 -225.5t-136.5 -162.5t-220.5 -62zM250 304q0 -88 39.5 -130t106.5 -42q86 0 139 89t53 229q0 89 -39.5 131t-106.5 42q-86 0 -139 -88.5
t-53 -230.5zM508 805l24 155h160l-25 -155h-159zM273 805l25 155h159l-25 -155h-159z" />
    <glyph glyph-name="multiply" unicode="&#xd7;" horiz-adv-x="610" 
d="M170 83l-90 89l149 146l-149 148l88 91l148 -152l145 148l89 -90l-147 -144l147 -142l-89 -90l-145 145z" />
    <glyph glyph-name="Oslash" unicode="&#xd8;" horiz-adv-x="818" 
d="M248 303q0 -27 5 -55l301 329q-37 48 -112 48q-87 0 -140.5 -89.5t-53.5 -232.5zM396 130q87 0 140.5 89.5t53.5 231.5q0 21 -4 53l-301 -328q39 -46 111 -46zM388 -17q-124 0 -216 70l-103 -113l-54 49l105 115q-71 90 -71 217q0 123 44.5 223.5t137 163.5t219.5 63
q126 0 217 -71l100 109l55 -47l-103 -113q70 -87 70 -215q0 -125 -44 -225.5t-136.5 -163t-220.5 -62.5z" />
    <glyph glyph-name="Ugrave" unicode="&#xd9;" horiz-adv-x="743" 
d="M342 -17q-168 0 -238 84.5t-45 237.5l71 450h190l-71 -456q-13 -82 12.5 -121t95.5 -39q64 0 92.5 36.5t41.5 117.5l73 462h189l-76 -484q-22 -141 -101.5 -214.5t-233.5 -73.5zM457 947l64 -142h-134l-116 142h186z" />
    <glyph glyph-name="Uacute" unicode="&#xda;" horiz-adv-x="743" 
d="M342 -17q-168 0 -238 84.5t-45 237.5l71 450h190l-71 -456q-13 -82 12.5 -121t95.5 -39q64 0 92.5 36.5t41.5 117.5l73 462h189l-76 -484q-22 -141 -101.5 -214.5t-233.5 -73.5zM365 805l101 142h187l-147 -142h-141z" />
    <glyph glyph-name="Ucircumflex" unicode="&#xdb;" horiz-adv-x="743" 
d="M342 -17q-168 0 -238 84.5t-45 237.5l71 450h190l-71 -456q-13 -82 12.5 -121t95.5 -39q64 0 92.5 36.5t41.5 117.5l73 462h189l-76 -484q-22 -141 -101.5 -214.5t-233.5 -73.5zM283 798l18 114l172 55l156 -55l-18 -116l-156 53z" />
    <glyph glyph-name="Udieresis" unicode="&#xdc;" horiz-adv-x="743" 
d="M342 -17q-168 0 -238 84.5t-45 237.5l71 450h190l-71 -456q-13 -82 12.5 -121t95.5 -39q64 0 92.5 36.5t41.5 117.5l73 462h189l-76 -484q-22 -141 -101.5 -214.5t-233.5 -73.5zM487 805l24 155h160l-25 -155h-159zM252 805l25 155h159l-25 -155h-159z" />
    <glyph glyph-name="Yacute" unicode="&#xdd;" horiz-adv-x="693" 
d="M208 0l51 321l-183 434h197l105 -274l182 274h199l-308 -425l-53 -330h-190zM338 805l101 142h187l-147 -142h-141z" />
    <glyph glyph-name="Thorn" unicode="&#xde;" horiz-adv-x="721" 
d="M29 0l120 755h190l-20 -128h91q131 0 205 -61t74 -174q0 -127 -83 -198t-215 -71h-152l-20 -123h-190zM397 480h-102l-33 -210h124q119 0 119 115q0 44 -29 69.5t-79 25.5z" />
    <glyph glyph-name="germandbls" unicode="&#xdf;" horiz-adv-x="718" 
d="M19 0l89 567q34 218 271 218q107 0 171.5 -51.5t64.5 -115.5q0 -84 -78 -139q-27 -20 -37.5 -32t-10.5 -26q0 -17 14 -29.5t76 -54.5q55 -37 77.5 -72.5t22.5 -86.5q0 -78 -58.5 -134.5t-164.5 -56.5q-161 0 -199 120l128 47q25 -48 69 -48q25 0 39 13.5t14 33.5
q0 21 -16.5 38t-81.5 59q-48 32 -68.5 62t-20.5 66q0 31 12 51.5t47 58.5q39 42 47 60q8 19 8 43q0 29 -17 45.5t-45 16.5q-66 0 -80 -88l-89 -565h-184z" />
    <glyph glyph-name="agrave" unicode="&#xe0;" horiz-adv-x="624" 
d="M206 165q0 -28 18.5 -44t49.5 -16q38 0 67 31t39 94q-25 2 -54 2q-65 0 -92.5 -17t-27.5 -50zM360 67q-65 -80 -164 -80q-80 0 -125 45t-45 109q0 190 301 190l68 -3l3 17q7 39 -12.5 63.5t-60.5 24.5q-67 0 -87 -63l-151 41q19 61 81 104.5t168 43.5q139 0 194 -71
t36 -193l-25 -160l-17 -135h-171zM368 778l70 -167h-137l-113 167h180z" />
    <glyph glyph-name="aacute" unicode="&#xe1;" horiz-adv-x="624" 
d="M206 165q0 -28 18.5 -44t49.5 -16q38 0 67 31t39 94q-25 2 -54 2q-65 0 -92.5 -17t-27.5 -50zM360 67q-65 -80 -164 -80q-80 0 -125 45t-45 109q0 190 301 190l68 -3l3 17q7 39 -12.5 63.5t-60.5 24.5q-67 0 -87 -63l-151 41q19 61 81 104.5t168 43.5q139 0 194 -71
t36 -193l-25 -160l-17 -135h-171zM265 611l112 167h190l-164 -167h-138z" />
    <glyph glyph-name="acircumflex" unicode="&#xe2;" horiz-adv-x="624" 
d="M206 165q0 -28 18.5 -44t49.5 -16q38 0 67 31t39 94q-25 2 -54 2q-65 0 -92.5 -17t-27.5 -50zM360 67q-65 -80 -164 -80q-80 0 -125 45t-45 109q0 190 301 190l68 -3l3 17q7 39 -12.5 63.5t-60.5 24.5q-67 0 -87 -63l-151 41q19 61 81 104.5t168 43.5q139 0 194 -71
t36 -193l-25 -160l-17 -135h-171zM183 608l19 119l174 65l155 -65l-19 -121l-155 63z" />
    <glyph glyph-name="atilde" unicode="&#xe3;" horiz-adv-x="624" 
d="M206 165q0 -28 18.5 -44t49.5 -16q38 0 67 31t39 94q-25 2 -54 2q-65 0 -92.5 -17t-27.5 -50zM360 67q-65 -80 -164 -80q-80 0 -125 45t-45 109q0 190 301 190l68 -3l3 17q7 39 -12.5 63.5t-60.5 24.5q-67 0 -87 -63l-151 41q19 61 81 104.5t168 43.5q139 0 194 -71
t36 -193l-25 -160l-17 -135h-171zM243 615h-94q10 76 48 117t96 41q31 0 80 -21t70 -21q37 0 42 41h98q-10 -78 -47 -118t-92 -40q-32 0 -85.5 22t-69.5 22q-39 0 -46 -43z" />
    <glyph glyph-name="adieresis" unicode="&#xe4;" horiz-adv-x="624" 
d="M206 165q0 -28 18.5 -44t49.5 -16q38 0 67 31t39 94q-25 2 -54 2q-65 0 -92.5 -17t-27.5 -50zM360 67q-65 -80 -164 -80q-80 0 -125 45t-45 109q0 190 301 190l68 -3l3 17q7 39 -12.5 63.5t-60.5 24.5q-67 0 -87 -63l-151 41q19 61 81 104.5t168 43.5q139 0 194 -71
t36 -193l-25 -160l-17 -135h-171zM395 623l24 155h160l-25 -155h-159zM160 623l25 155h159l-24 -155h-160z" />
    <glyph glyph-name="aring" unicode="&#xe5;" horiz-adv-x="624" 
d="M206 165q0 -28 18.5 -44t49.5 -16q38 0 67 31t39 94q-25 2 -54 2q-65 0 -92.5 -17t-27.5 -50zM360 67q-65 -80 -164 -80q-80 0 -125 45t-45 109q0 190 301 190l68 -3l3 17q7 39 -12.5 63.5t-60.5 24.5q-67 0 -87 -63l-151 41q19 61 81 104.5t168 43.5q139 0 194 -71
t36 -193l-25 -160l-17 -135h-171zM234 726q0 52 40 89.5t95 37.5q56 0 93.5 -35.5t37.5 -89.5q0 -52 -40 -89.5t-95 -37.5q-57 0 -94 35t-37 90zM309 726q0 -26 16.5 -43.5t40.5 -17.5q23 0 40 18.5t17 44.5q0 25 -16 42t-39 17q-24 0 -41.5 -18t-17.5 -43z" />
    <glyph glyph-name="ae" unicode="&#xe6;" horiz-adv-x="997" 
d="M22 141q0 187 282 187h87l3 17q7 40 -12.5 64t-60.5 24q-67 0 -87 -63l-151 41q19 61 81.5 104.5t167.5 43.5q114 0 172 -67q77 67 180 67q137 0 203 -91t41 -245h-380q-2 -46 24 -76.5t76 -30.5q72 0 109 62l153 -43q-26 -62 -95.5 -106t-169.5 -44q-166 0 -228 112
q-67 -110 -212 -110q-88 0 -135.5 44t-47.5 110zM670 435q-43 0 -72 -28t-38 -76h195q3 104 -85 104zM270 105q38 0 67 31t39 94q-25 2 -54 2q-65 0 -92.5 -17t-27.5 -50q0 -28 18.5 -44t49.5 -16z" />
    <glyph glyph-name="ccedilla" unicode="&#xe7;" horiz-adv-x="608" 
d="M244 -232q-78 0 -125 47l53 46q32 -29 65 -29q18 0 30 8t12 23q0 13 -9.5 20.5t-24.5 7.5q-11 0 -37 -8l-54 30l54 80q-84 19 -131 81t-47 160q0 136 85 230.5t223 94.5q113 0 176.5 -52.5t73.5 -124.5l-178 -30q-16 74 -76 74q-49 0 -85 -51.5t-36 -146.5q0 -51 22 -80
t61 -29q33 0 60.5 23t40.5 56l171 -35q-28 -80 -102 -129t-181 -49h-19l-26 -34l2 -2q15 4 41 4q39 0 66 -21t27 -59q0 -46 -37.5 -75.5t-94.5 -29.5z" />
    <glyph glyph-name="egrave" unicode="&#xe8;" horiz-adv-x="619" 
d="M301 -15q-127 0 -199 68t-72 198q0 124 83.5 216t221.5 92q140 0 207 -91t42 -245h-380q-2 -46 24 -76.5t76 -30.5q72 0 109 62l153 -43q-26 -62 -95 -106t-170 -44zM326 435q-43 0 -72 -28t-38 -76h195q3 104 -85 104zM352 778l70 -167h-137l-113 167h180z" />
    <glyph glyph-name="eacute" unicode="&#xe9;" horiz-adv-x="619" 
d="M301 -15q-127 0 -199 68t-72 198q0 124 83.5 216t221.5 92q140 0 207 -91t42 -245h-380q-2 -46 24 -76.5t76 -30.5q72 0 109 62l153 -43q-26 -62 -95 -106t-170 -44zM326 435q-43 0 -72 -28t-38 -76h195q3 104 -85 104zM276 611l112 167h190l-164 -167h-138z" />
    <glyph glyph-name="ecircumflex" unicode="&#xea;" horiz-adv-x="619" 
d="M301 -15q-127 0 -199 68t-72 198q0 124 83.5 216t221.5 92q140 0 207 -91t42 -245h-380q-2 -46 24 -76.5t76 -30.5q72 0 109 62l153 -43q-26 -62 -95 -106t-170 -44zM326 435q-43 0 -72 -28t-38 -76h195q3 104 -85 104zM187 608l19 119l174 65l155 -65l-19 -121l-155 63z
" />
    <glyph glyph-name="edieresis" unicode="&#xeb;" horiz-adv-x="619" 
d="M301 -15q-127 0 -199 68t-72 198q0 124 83.5 216t221.5 92q140 0 207 -91t42 -245h-380q-2 -46 24 -76.5t76 -30.5q72 0 109 62l153 -43q-26 -62 -95 -106t-170 -44zM326 435q-43 0 -72 -28t-38 -76h195q3 104 -85 104zM392 623l24 155h160l-25 -155h-159zM157 623
l25 155h159l-24 -155h-160z" />
    <glyph glyph-name="igrave" unicode="&#xec;" horiz-adv-x="314" 
d="M22 0l85 545h184l-86 -545h-183zM210 778l70 -167h-137l-113 167h180z" />
    <glyph glyph-name="iacute" unicode="&#xed;" horiz-adv-x="314" 
d="M22 0l85 545h184l-86 -545h-183zM135 611l112 167h190l-164 -167h-138z" />
    <glyph glyph-name="icircumflex" unicode="&#xee;" horiz-adv-x="314" 
d="M64 608l19 119l153 62l133 -62l-19 -121l-134 60zM22 0l85 545h184l-86 -545h-183z" />
    <glyph glyph-name="idieresis" unicode="&#xef;" horiz-adv-x="314" 
d="M228 623l24 155h161l-24 -155h-161zM31 623l24 155h161l-24 -155h-161zM22 0l85 545h184l-86 -545h-183z" />
    <glyph glyph-name="eth" unicode="&#xf0;" horiz-adv-x="636" 
d="M298 -15q-123 0 -195.5 65t-72.5 184q0 134 72 221.5t179 87.5q67 0 105 -31l4 2q-40 59 -95 108l-113 -48l-27 66l77 32q-32 24 -63 42l97 89q67 -33 117 -67l116 48l27 -65l-78 -33q160 -140 160 -355q0 -155 -82.5 -250.5t-227.5 -95.5zM298 118q59 0 92 58.5
t33 139.5q0 110 -87 110q-57 0 -89 -58t-32 -139q0 -111 83 -111z" />
    <glyph glyph-name="ntilde" unicode="&#xf1;" horiz-adv-x="659" 
d="M21 0l86 545h171l-15 -98q63 109 184 109q93 0 135 -56t26 -156l-54 -344h-184l50 315q15 100 -59 100q-36 0 -68.5 -30.5t-43.5 -103.5l-44 -281h-184zM284 615h-94q10 76 48 117t96 41q30 0 79 -21t71 -21q37 0 42 41h98q-10 -78 -47 -118t-92 -40q-32 0 -85.5 22
t-69.5 22q-39 0 -46 -43z" />
    <glyph glyph-name="ograve" unicode="&#xf2;" horiz-adv-x="638" 
d="M299 -15q-123 0 -196 65t-73 184q0 136 83.5 230.5t224.5 94.5q125 0 197.5 -65.5t72.5 -184.5q0 -135 -84 -229.5t-225 -94.5zM215 228q0 -110 84 -110q59 0 91.5 58.5t32.5 139.5q0 110 -85 110q-58 0 -90.5 -58t-32.5 -140zM362 778l70 -167h-137l-113 167h180z" />
    <glyph glyph-name="oacute" unicode="&#xf3;" horiz-adv-x="638" 
d="M299 -15q-123 0 -196 65t-73 184q0 136 83.5 230.5t224.5 94.5q125 0 197.5 -65.5t72.5 -184.5q0 -135 -84 -229.5t-225 -94.5zM215 228q0 -110 84 -110q59 0 91.5 58.5t32.5 139.5q0 110 -85 110q-58 0 -90.5 -58t-32.5 -140zM286 611l112 167h190l-164 -167h-138z" />
    <glyph glyph-name="ocircumflex" unicode="&#xf4;" horiz-adv-x="638" 
d="M299 -15q-123 0 -196 65t-73 184q0 136 83.5 230.5t224.5 94.5q125 0 197.5 -65.5t72.5 -184.5q0 -135 -84 -229.5t-225 -94.5zM215 228q0 -110 84 -110q59 0 91.5 58.5t32.5 139.5q0 110 -85 110q-58 0 -90.5 -58t-32.5 -140zM196 608l19 119l174 65l155 -65l-19 -121
l-155 63z" />
    <glyph glyph-name="otilde" unicode="&#xf5;" horiz-adv-x="638" 
d="M299 -15q-123 0 -196 65t-73 184q0 136 83.5 230.5t224.5 94.5q125 0 197.5 -65.5t72.5 -184.5q0 -135 -84 -229.5t-225 -94.5zM215 228q0 -110 84 -110q59 0 91.5 58.5t32.5 139.5q0 110 -85 110q-58 0 -90.5 -58t-32.5 -140zM263 615h-94q10 76 48 117t96 41
q31 0 80 -21t70 -21q37 0 42 41h98q-10 -78 -47 -118t-92 -40q-32 0 -85.5 22t-69.5 22q-39 0 -46 -43z" />
    <glyph glyph-name="odieresis" unicode="&#xf6;" horiz-adv-x="638" 
d="M299 -15q-123 0 -196 65t-73 184q0 136 83.5 230.5t224.5 94.5q125 0 197.5 -65.5t72.5 -184.5q0 -135 -84 -229.5t-225 -94.5zM215 228q0 -110 84 -110q59 0 91.5 58.5t32.5 139.5q0 110 -85 110q-58 0 -90.5 -58t-32.5 -140zM402 623l24 155h160l-25 -155h-159z
M167 623l25 155h159l-24 -155h-160z" />
    <glyph glyph-name="divide" unicode="&#xf7;" horiz-adv-x="600" 
d="M233 441v138h150v-138h-150zM73 260v134h470v-134h-470zM233 75v138h150v-138h-150z" />
    <glyph glyph-name="oslash" unicode="&#xf8;" horiz-adv-x="638" 
d="M213 227q0 -11 2 -27l178 211q-21 18 -55 18q-59 0 -92 -59.5t-33 -142.5zM299 115q60 0 93 59.5t33 142.5q0 16 -1 23l-177 -209q20 -16 52 -16zM299 -15q-83 0 -145 35l-85 -101l-53 46l82 97q-68 66 -68 172q0 136 83.5 230.5t224.5 94.5q85 0 149 -36l79 93l54 -43
l-78 -92q66 -69 66 -172q0 -135 -84 -229.5t-225 -94.5z" />
    <glyph glyph-name="ugrave" unicode="&#xf9;" horiz-adv-x="649" 
d="M211 -13q-99 0 -138.5 60.5t-22.5 163.5l54 334h183l-51 -317q-16 -101 58 -101q38 0 64.5 30.5t36.5 90.5l47 297h184l-86 -545h-172l15 92q-62 -105 -172 -105zM377 778l70 -167h-137l-113 167h180z" />
    <glyph glyph-name="uacute" unicode="&#xfa;" horiz-adv-x="649" 
d="M211 -13q-99 0 -138.5 60.5t-22.5 163.5l54 334h183l-51 -317q-16 -101 58 -101q38 0 64.5 30.5t36.5 90.5l47 297h184l-86 -545h-172l15 92q-62 -105 -172 -105zM302 611l112 167h190l-164 -167h-138z" />
    <glyph glyph-name="ucircumflex" unicode="&#xfb;" horiz-adv-x="649" 
d="M211 -13q-99 0 -138.5 60.5t-22.5 163.5l54 334h183l-51 -317q-16 -101 58 -101q38 0 64.5 30.5t36.5 90.5l47 297h184l-86 -545h-172l15 92q-62 -105 -172 -105zM212 608l19 119l174 65l155 -65l-19 -121l-155 63z" />
    <glyph glyph-name="udieresis" unicode="&#xfc;" horiz-adv-x="649" 
d="M211 -13q-99 0 -138.5 60.5t-22.5 163.5l54 334h183l-51 -317q-16 -101 58 -101q38 0 64.5 30.5t36.5 90.5l47 297h184l-86 -545h-172l15 92q-62 -105 -172 -105zM418 623l24 155h160l-25 -155h-159zM183 623l25 155h159l-24 -155h-160z" />
    <glyph glyph-name="yacute" unicode="&#xfd;" horiz-adv-x="595" 
d="M40 -223l113 215l-116 553h183l46 -251q4 -24 7 -53.5t4 -46.5l1 -17h6q19 63 43 117l113 251h185l-401 -768h-184zM273 611l112 167h190l-164 -167h-138z" />
    <glyph glyph-name="thorn" unicode="&#xfe;" horiz-adv-x="667" 
d="M322 116q59 0 92 58.5t33 142.5q0 109 -86 109q-57 0 -89.5 -58t-32.5 -141q0 -55 22 -83t61 -28zM-14 -223l158 1001h184l-48 -294q58 72 155 72q89 0 144.5 -61t55.5 -169q0 -147 -79.5 -242.5t-198.5 -95.5q-94 0 -144 62l-43 -273h-184z" />
    <glyph glyph-name="ydieresis" unicode="&#xff;" horiz-adv-x="595" 
d="M40 -223l113 215l-116 553h183l46 -251q4 -24 7 -53.5t4 -46.5l1 -17h6q19 63 43 117l113 251h185l-401 -768h-184zM389 623l24 155h160l-25 -155h-159zM154 623l25 155h159l-24 -155h-160z" />
    <glyph glyph-name="Amacron" unicode="&#x100;" horiz-adv-x="775" 
d="M378 461l-72 -153h172l-24 153l-14 127h-9q-23 -62 -53 -127zM525 0l-25 160h-264l-75 -160h-194l378 755h229l138 -755h-187zM284 805l18 117h360l-19 -117h-359z" />
    <glyph glyph-name="amacron" unicode="&#x101;" horiz-adv-x="624" 
d="M206 165q0 -28 18.5 -44t49.5 -16q38 0 67 31t39 94q-25 2 -54 2q-65 0 -92.5 -17t-27.5 -50zM360 67q-65 -80 -164 -80q-80 0 -125 45t-45 109q0 190 301 190l68 -3l3 17q7 39 -12.5 63.5t-60.5 24.5q-67 0 -87 -63l-151 41q19 61 81 104.5t168 43.5q139 0 194 -71
t36 -193l-25 -160l-17 -135h-171zM170 623l19 117h359l-19 -117h-359z" />
    <glyph glyph-name="Abreve" unicode="&#x102;" horiz-adv-x="775" 
d="M378 461l-72 -153h172l-24 153l-14 127h-9q-23 -62 -53 -127zM525 0l-25 160h-264l-75 -160h-194l378 755h229l138 -755h-187zM480 796q-74 0 -121.5 37.5t-50.5 109.5h107q10 -47 69 -47q56 0 84 47h106q-21 -70 -72 -108.5t-122 -38.5z" />
    <glyph glyph-name="abreve" unicode="&#x103;" horiz-adv-x="624" 
d="M206 165q0 -28 18.5 -44t49.5 -16q38 0 67 31t39 94q-25 2 -54 2q-65 0 -92.5 -17t-27.5 -50zM360 67q-65 -80 -164 -80q-80 0 -125 45t-45 109q0 190 301 190l68 -3l3 17q7 39 -12.5 63.5t-60.5 24.5q-67 0 -87 -63l-151 41q19 61 81 104.5t168 43.5q139 0 194 -71
t36 -193l-25 -160l-17 -135h-171zM367 608q-77 0 -125 43t-44 127h102q0 -29 20 -46.5t54 -17.5q36 0 62 17.5t36 46.5h98q-18 -80 -73.5 -125t-129.5 -45z" />
    <glyph glyph-name="Aogonek" unicode="&#x104;" horiz-adv-x="775" 
d="M378 461l-72 -153h172l-24 153q-5 29 -8.5 60.5t-4.5 48.5l-1 18h-9q-23 -62 -53 -127zM611 0h-86l-25 160h-264l-75 -160h-194l378 755h229l138 -755q-93 -58 -93 -102q0 -41 44 -41l26 2l-14 -87q-25 -4 -56 -4q-66 0 -99 24t-33 66t27.5 75.5t96.5 66.5z" />
    <glyph glyph-name="aogonek" unicode="&#x105;" horiz-adv-x="624" 
d="M206 165q0 -28 18.5 -44t49.5 -16q38 0 67 31t39 94q-25 2 -54 2q-65 0 -92.5 -17t-27.5 -50zM423 0h-70l7 67q-65 -80 -164 -80q-80 0 -125 45t-45 109q0 190 301 190l68 -3l3 17q7 39 -12.5 63.5t-60.5 24.5q-67 0 -87 -63l-151 41q19 61 81 104.5t168 43.5
q139 0 194 -71t36 -193l-25 -160l-17 -135q-93 -58 -93 -102q0 -41 44 -41l26 2l-14 -87q-25 -4 -56 -4q-66 0 -99 24t-33 66t27.5 75.5t96.5 66.5z" />
    <glyph glyph-name="Cacute" unicode="&#x106;" horiz-adv-x="773" 
d="M386 -16q-152 0 -244.5 87t-92.5 242q0 124 46 227t138.5 167t215.5 64q141 0 221.5 -66.5t97.5 -174.5l-193 -32q-8 53 -38.5 87t-90.5 34q-85 0 -141 -86t-56 -227q0 -83 39 -126.5t99 -43.5q111 0 159 121l186 -46q-13 -41 -37 -78t-64 -72t-103 -56t-142 -21z
M383 805l101 142h187l-147 -142h-141z" />
    <glyph glyph-name="cacute" unicode="&#x107;" horiz-adv-x="608" 
d="M285 -15q-119 0 -187 65t-68 184q0 136 85 230.5t223 94.5q113 0 176.5 -52.5t73.5 -124.5l-178 -30q-16 74 -76 74q-49 0 -85 -51.5t-36 -146.5q0 -51 22 -80t61 -29q33 0 60.5 23t40.5 56l171 -35q-28 -80 -102 -129t-181 -49zM274 611l112 167h190l-164 -167h-138z
" />
    <glyph glyph-name="Ccircumflex" unicode="&#x108;" horiz-adv-x="773" 
d="M386 -16q-152 0 -244.5 87t-92.5 242q0 124 46 227t138.5 167t215.5 64q141 0 221.5 -66.5t97.5 -174.5l-193 -32q-8 53 -38.5 87t-90.5 34q-85 0 -141 -86t-56 -227q0 -83 39 -126.5t99 -43.5q111 0 159 121l186 -46q-13 -41 -37 -78t-64 -72t-103 -56t-142 -21z
M296 798l18 114l172 55l156 -55l-18 -116l-156 53z" />
    <glyph glyph-name="ccircumflex" unicode="&#x109;" horiz-adv-x="608" 
d="M285 -15q-119 0 -187 65t-68 184q0 136 85 230.5t223 94.5q113 0 176.5 -52.5t73.5 -124.5l-178 -30q-16 74 -76 74q-49 0 -85 -51.5t-36 -146.5q0 -51 22 -80t61 -29q33 0 60.5 23t40.5 56l171 -35q-28 -80 -102 -129t-181 -49zM187 608l19 119l174 65l155 -65l-19 -121
l-155 63z" />
    <glyph glyph-name="Cdotaccent" unicode="&#x10a;" horiz-adv-x="773" 
d="M386 -16q-152 0 -244.5 87t-92.5 242q0 124 46 227t138.5 167t215.5 64q141 0 221.5 -66.5t97.5 -174.5l-193 -32q-8 53 -38.5 87t-90.5 34q-85 0 -141 -86t-56 -227q0 -83 39 -126.5t99 -43.5q111 0 159 121l186 -46q-13 -41 -37 -78t-64 -72t-103 -56t-142 -21z
M380 805l24 155h160l-25 -155h-159z" />
    <glyph glyph-name="cdotaccent" unicode="&#x10b;" horiz-adv-x="608" 
d="M285 -15q-119 0 -187 65t-68 184q0 136 85 230.5t223 94.5q113 0 176.5 -52.5t73.5 -124.5l-178 -30q-16 74 -76 74q-49 0 -85 -51.5t-36 -146.5q0 -51 22 -80t61 -29q33 0 60.5 23t40.5 56l171 -35q-28 -80 -102 -129t-181 -49zM275 623l25 155h159l-25 -155h-159z" />
    <glyph glyph-name="Ccaron" unicode="&#x10c;" horiz-adv-x="773" 
d="M386 -16q-152 0 -244.5 87t-92.5 242q0 124 46 227t138.5 167t215.5 64q141 0 221.5 -66.5t97.5 -174.5l-193 -32q-8 53 -38.5 87t-90.5 34q-85 0 -141 -86t-56 -227q0 -83 39 -126.5t99 -43.5q111 0 159 121l186 -46q-13 -41 -37 -78t-64 -72t-103 -56t-142 -21z
M642 965l-18 -114l-168 -55l-160 55l18 116l160 -53z" />
    <glyph glyph-name="ccaron" unicode="&#x10d;" horiz-adv-x="608" 
d="M285 -15q-119 0 -187 65t-68 184q0 136 85 230.5t223 94.5q113 0 176.5 -52.5t73.5 -124.5l-178 -30q-16 74 -76 74q-49 0 -85 -51.5t-36 -146.5q0 -51 22 -80t61 -29q33 0 60.5 23t40.5 56l171 -35q-28 -80 -102 -129t-181 -49zM536 780l-19 -121l-166 -61l-162 65
l19 121l160 -63z" />
    <glyph glyph-name="Dcaron" unicode="&#x10e;" horiz-adv-x="768" 
d="M343 0h-323l120 755h236q69 0 130.5 -17.5t114.5 -54.5t84 -103t31 -154q0 -46 -9 -96t-35.5 -111t-68 -108t-114.5 -79t-166 -32zM232 152h93q51 0 91 20.5t62.5 50t37 69t19 71.5t4.5 63q0 88 -47 133t-134 45h-54zM604 965l-18 -114l-168 -55l-160 55l18 116l160 -53z
" />
    <glyph glyph-name="dcaron" unicode="&#x10f;" horiz-adv-x="665" 
d="M342 429q-59 0 -92 -58.5t-33 -142.5q0 -109 86 -109q54 0 88 58.5t34 140.5q0 55 -22 83t-61 28zM234 -11q-90 0 -147.5 61t-57.5 168q0 150 75.5 244.5t199.5 94.5q101 0 146 -69l46 290h183l-123 -778h-169l10 66q-58 -77 -163 -77zM682 570l56 208h155l-116 -208h-95
z" />
    <glyph glyph-name="Dcroat" unicode="&#x110;" horiz-adv-x="768" 
d="M343 0h-323l52 327h-63l18 117h64l49 311h236q69 0 130.5 -17.5t114.5 -54.5t84 -103t31 -154q0 -46 -9 -96t-35.5 -111t-68 -108t-114.5 -79t-166 -32zM232 152h93q51 0 91 20.5t62.5 50t37 69t19 71.5t4.5 63q0 88 -47 133t-134 45h-54l-25 -160h130l-18 -117h-131z
" />
    <glyph glyph-name="dcroat" unicode="&#x111;" horiz-adv-x="665" 
d="M342 429q-59 0 -92 -58.5t-33 -142.5q0 -109 86 -109q54 0 88 58.5t34 140.5q0 55 -22 83t-61 28zM397 66q-58 -77 -163 -77q-90 0 -147.5 61t-57.5 168q0 150 75.5 244.5t199.5 94.5q101 0 146 -69l19 120h-132l15 94h132l12 76h183l-12 -76h74l-15 -94h-74l-96 -608
h-169z" />
    <glyph glyph-name="Emacron" unicode="&#x112;" horiz-adv-x="641" 
d="M20 0l120 755h517l-25 -155h-329l-23 -150h281l-23 -145h-281l-24 -150h348l-24 -155h-537zM226 805l18 117h360l-19 -117h-359z" />
    <glyph glyph-name="emacron" unicode="&#x113;" horiz-adv-x="619" 
d="M301 -15q-127 0 -199 68t-72 198q0 124 83.5 216t221.5 92q140 0 207 -91t42 -245h-380q-2 -46 24 -76.5t76 -30.5q72 0 109 62l153 -43q-26 -62 -95 -106t-170 -44zM326 435q-43 0 -72 -28t-38 -76h195q3 104 -85 104zM174 623l19 117h359l-19 -117h-359z" />
    <glyph glyph-name="Ebreve" unicode="&#x114;" horiz-adv-x="641" 
d="M20 0l120 755h517l-25 -155h-329l-23 -150h281l-23 -145h-281l-24 -150h348l-24 -155h-537zM422 796q-74 0 -121.5 37.5t-50.5 109.5h107q10 -47 69 -47q56 0 84 47h106q-21 -70 -72 -108.5t-122 -38.5z" />
    <glyph glyph-name="ebreve" unicode="&#x115;" horiz-adv-x="619" 
d="M301 -15q-127 0 -199 68t-72 198q0 124 83.5 216t221.5 92q140 0 207 -91t42 -245h-380q-2 -46 24 -76.5t76 -30.5q72 0 109 62l153 -43q-26 -62 -95 -106t-170 -44zM326 435q-43 0 -72 -28t-38 -76h195q3 104 -85 104zM360 608q-77 0 -125 43t-44 127h102
q0 -29 20 -46.5t54 -17.5q35 0 61.5 17.5t36.5 46.5h98q-18 -80 -73.5 -125t-129.5 -45z" />
    <glyph glyph-name="Edotaccent" unicode="&#x116;" horiz-adv-x="641" 
d="M20 0l120 755h517l-25 -155h-329l-23 -150h281l-23 -145h-281l-24 -150h348l-24 -155h-537zM332 805l24 155h160l-25 -155h-159z" />
    <glyph glyph-name="edotaccent" unicode="&#x117;" horiz-adv-x="619" 
d="M301 -15q-127 0 -199 68t-72 198q0 124 83.5 216t221.5 92q140 0 207 -91t42 -245h-380q-2 -46 24 -76.5t76 -30.5q72 0 109 62l153 -43q-26 -62 -95 -106t-170 -44zM326 435q-43 0 -72 -28t-38 -76h195q3 104 -85 104zM274 623l25 155h159l-25 -155h-159z" />
    <glyph glyph-name="Eogonek" unicode="&#x118;" horiz-adv-x="650" 
d="M456 0h-436l120 755h517l-25 -155h-329l-23 -150h281l-23 -145h-281l-24 -150h348l-24 -155q-93 -58 -93 -102q0 -41 44 -41l26 2l-14 -87q-25 -4 -56 -4q-66 0 -99 24t-33 66t27.5 75.5t96.5 66.5z" />
    <glyph glyph-name="eogonek" unicode="&#x119;" horiz-adv-x="619" 
d="M435 6q-105 -60 -105 -106q0 -43 45 -43l26 2l-14 -87q-25 -4 -56 -4q-63 0 -97.5 24.5t-34.5 65.5q0 37 22 65.5t82 57.5v5h-2q-127 0 -199 67.5t-72 197.5q0 124 83.5 216t221.5 92q140 0 207 -91t42 -245h-380q-2 -46 24 -76.5t76 -30.5q72 0 109 62l153 -43
q-18 -40 -47 -68.5t-84 -60.5zM326 435q-43 0 -72 -28t-38 -76h195q3 104 -85 104z" />
    <glyph glyph-name="Ecaron" unicode="&#x11a;" horiz-adv-x="641" 
d="M20 0l120 755h517l-25 -155h-329l-23 -150h281l-23 -145h-281l-24 -150h348l-24 -155h-537zM597 965l-18 -114l-168 -55l-160 55l18 116l160 -53z" />
    <glyph glyph-name="ecaron" unicode="&#x11b;" horiz-adv-x="619" 
d="M301 -15q-127 0 -199 68t-72 198q0 124 83.5 216t221.5 92q140 0 207 -91t42 -245h-380q-2 -46 24 -76.5t76 -30.5q72 0 109 62l153 -43q-26 -62 -95 -106t-170 -44zM326 435q-43 0 -72 -28t-38 -76h195q3 104 -85 104zM542 780l-19 -121l-166 -61l-162 65l19 121
l160 -63z" />
    <glyph glyph-name="Gcircumflex" unicode="&#x11c;" horiz-adv-x="813" 
d="M337 -16q-126 0 -207 83t-81 246q0 126 47 229t140.5 166t218.5 63q135 0 212 -64.5t96 -157.5l-186 -35q-26 107 -129 107q-88 0 -144 -87.5t-56 -228.5q0 -84 39.5 -128t110.5 -44q62 0 104 42t55 102l2 9h-146l21 133h334l-67 -419h-142l-4 75h-5q-71 -91 -213 -91z
M299 798l18 114l172 55l156 -55l-18 -116l-156 53z" />
    <glyph glyph-name="gcircumflex" unicode="&#x11d;" horiz-adv-x="661" 
d="M339 433q-60 0 -91 -60.5t-31 -139.5q0 -108 89 -108q54 0 86.5 57.5t32.5 140.5q0 54 -23.5 82t-62.5 28zM245 -232q-114 0 -180.5 42.5t-85.5 112.5l155 50q30 -71 115 -71q57 0 87.5 24t40.5 91l7 47q-46 -61 -132 -61q-109 0 -165 65.5t-56 164.5q0 140 72 232
t198 92q116 0 160 -83l12 71h169l-78 -492q-23 -147 -92 -216t-227 -69zM198 608l19 119l174 65l155 -65l-19 -121l-155 63z" />
    <glyph glyph-name="Gbreve" unicode="&#x11e;" horiz-adv-x="813" 
d="M337 -16q-126 0 -207 83t-81 246q0 126 47 229t140.5 166t218.5 63q135 0 212 -64.5t96 -157.5l-186 -35q-26 107 -129 107q-88 0 -144 -87.5t-56 -228.5q0 -84 39.5 -128t110.5 -44q62 0 104 42t55 102l2 9h-146l21 133h334l-67 -419h-142l-4 75h-5q-71 -91 -213 -91z
M482 796q-74 0 -121.5 37.5t-50.5 109.5h107q10 -47 69 -47q56 0 84 47h106q-21 -70 -72 -108.5t-122 -38.5z" />
    <glyph glyph-name="gbreve" unicode="&#x11f;" horiz-adv-x="661" 
d="M339 433q-60 0 -91 -60.5t-31 -139.5q0 -108 89 -108q54 0 86.5 57.5t32.5 140.5q0 54 -23.5 82t-62.5 28zM245 -232q-114 0 -180.5 42.5t-85.5 112.5l155 50q30 -71 115 -71q57 0 87.5 24t40.5 91l7 47q-46 -61 -132 -61q-109 0 -165 65.5t-56 164.5q0 140 72 232
t198 92q116 0 160 -83l12 71h169l-78 -492q-23 -147 -92 -216t-227 -69zM372 608q-77 0 -125 43t-44 127h102q0 -29 20 -46.5t54 -17.5q35 0 61.5 17.5t36.5 46.5h98q-18 -80 -73.5 -125t-129.5 -45z" />
    <glyph glyph-name="Gdotaccent" unicode="&#x120;" horiz-adv-x="813" 
d="M337 -16q-126 0 -207 83t-81 246q0 126 47 229t140.5 166t218.5 63q135 0 212 -64.5t96 -157.5l-186 -35q-26 107 -129 107q-88 0 -144 -87.5t-56 -228.5q0 -84 39.5 -128t110.5 -44q62 0 104 42t55 102l2 9h-146l21 133h334l-67 -419h-142l-4 75h-5q-71 -91 -213 -91z
M386 805l24 155h160l-25 -155h-159z" />
    <glyph glyph-name="gdotaccent" unicode="&#x121;" horiz-adv-x="661" 
d="M339 433q-60 0 -91 -60.5t-31 -139.5q0 -108 89 -108q54 0 86.5 57.5t32.5 140.5q0 54 -23.5 82t-62.5 28zM245 -232q-114 0 -180.5 42.5t-85.5 112.5l155 50q30 -71 115 -71q57 0 87.5 24t40.5 91l7 47q-46 -61 -132 -61q-109 0 -165 65.5t-56 164.5q0 140 72 232
t198 92q116 0 160 -83l12 71h169l-78 -492q-23 -147 -92 -216t-227 -69zM286 623l25 155h159l-25 -155h-159z" />
    <glyph glyph-name="Gcommaaccent" unicode="&#x122;" horiz-adv-x="813" 
d="M337 -16q-126 0 -207 83t-81 246q0 126 47 229t140.5 166t218.5 63q135 0 212 -64.5t96 -157.5l-186 -35q-26 107 -129 107q-88 0 -144 -87.5t-56 -228.5q0 -84 39.5 -128t110.5 -44q62 0 104 42t55 102l2 9h-146l21 133h334l-67 -419h-142l-4 75h-5q-71 -91 -213 -91z
M256 -245l-1 55q70 6 89 41h-83l16 101h169l-11 -66q-20 -122 -179 -131z" />
    <glyph glyph-name="gcommaaccent" unicode="&#x123;" horiz-adv-x="661" 
d="M339 433q-60 0 -91 -60.5t-31 -139.5q0 -108 89 -108q54 0 86.5 57.5t32.5 140.5q0 54 -23.5 82t-62.5 28zM245 -232q-114 0 -180.5 42.5t-85.5 112.5l155 50q30 -71 115 -71q57 0 87.5 24t40.5 91l7 47q-46 -61 -132 -61q-109 0 -165 65.5t-56 164.5q0 140 72 232
t198 92q116 0 160 -83l12 71h169l-78 -492q-23 -147 -92 -216t-227 -69zM469 824l1 -55q-70 -6 -89 -41h83l-16 -101h-169l11 66q20 122 179 131z" />
    <glyph glyph-name="Hcircumflex" unicode="&#x124;" horiz-adv-x="793" 
d="M484 0l48 308h-273l-49 -308h-190l120 755h190l-46 -291h273l46 291h190l-119 -755h-190zM309 798l18 114l172 55l156 -55l-18 -116l-156 53z" />
    <glyph glyph-name="hcircumflex" unicode="&#x125;" horiz-adv-x="659" 
d="M329 778l-50 -316q58 94 168 94q93 0 134.5 -56t26.5 -155l-54 -345h-184l50 316q15 99 -59 99q-36 0 -68.5 -30.5t-43.5 -103.5l-44 -281h-184l124 778h184zM246 798l18 114l172 55l156 -55l-18 -116l-156 53z" />
    <glyph glyph-name="Hbar" unicode="&#x126;" horiz-adv-x="793" 
d="M286 464h273l15 93h-273zM261 308l-49 -308h-190l89 557h-60l14 83h59l18 115h190l-18 -115h273l18 115h190l-18 -115h59l-14 -83h-58l-88 -557h-190l48 308h-273z" />
    <glyph glyph-name="hbar" unicode="&#x127;" horiz-adv-x="659" 
d="M249 281l-44 -281h-184l95 598h-74l16 104h75l12 76h184l-12 -76h132l-16 -104h-132l-22 -136q58 94 168 94q93 0 134.5 -56t26.5 -155l-54 -345h-184l50 316q15 99 -59 99q-36 0 -68.5 -30.5t-43.5 -103.5z" />
    <glyph glyph-name="Itilde" unicode="&#x128;" horiz-adv-x="330" 
d="M139 800h-94q10 76 48 117t96 41q31 0 70 -21t60 -21q37 0 42 41h98q-10 -78 -47 -118t-92 -40q-32 0 -75.5 22t-59.5 22q-39 0 -46 -43zM20 0l120 755h190l-120 -755h-190z" />
    <glyph glyph-name="itilde" unicode="&#x129;" horiz-adv-x="314" 
d="M116 611h-86q9 81 44 122.5t89 41.5q29 0 76 -19.5t57 -19.5q15 0 24.5 11t10.5 31h88q-9 -81 -44 -121t-86 -40q-28 0 -75.5 20t-58.5 20q-16 0 -27 -12t-12 -34zM22 0l85 545h184l-86 -545h-183z" />
    <glyph glyph-name="Imacron" unicode="&#x12a;" horiz-adv-x="330" 
d="M73 805l18 117h340l-19 -117h-339zM20 0l120 755h190l-120 -755h-190z" />
    <glyph glyph-name="imacron" unicode="&#x12b;" horiz-adv-x="314" 
d="M351 623h-288l16 117h287zM22 0l85 545h184l-86 -545h-183z" />
    <glyph glyph-name="Ibreve" unicode="&#x12c;" horiz-adv-x="330" 
d="M255 796q-69 0 -114 37.5t-48 109.5h100q10 -47 65 -47q52 0 80 47h99q-20 -70 -68 -108.5t-114 -38.5zM20 0l120 755h190l-120 -755h-190z" />
    <glyph glyph-name="ibreve" unicode="&#x12d;" horiz-adv-x="314" 
d="M214 608q-152 0 -145 170h98q0 -28 17.5 -45.5t47.5 -17.5t53.5 17.5t32.5 45.5h91q-17 -81 -69 -125.5t-126 -44.5zM22 0l85 545h184l-86 -545h-183z" />
    <glyph glyph-name="Iogonek" unicode="&#x12e;" horiz-adv-x="330" 
d="M109 0h-89l120 755h190l-120 -755q-93 -58 -93 -102q0 -41 44 -41l26 2l-14 -87q-25 -4 -56 -4q-66 0 -99 24t-33 66t27.5 75.5t96.5 66.5z" />
    <glyph glyph-name="iogonek" unicode="&#x12f;" horiz-adv-x="313" 
d="M119 622l25 156h184l-25 -156h-184zM104 0h-82l85 545h184l-86 -545q-93 -58 -93 -102q0 -41 44 -41l26 2l-14 -87q-25 -4 -56 -4q-66 0 -99 24t-33 66t27.5 75.5t96.5 66.5z" />
    <glyph glyph-name="Idotaccent" unicode="&#x130;" horiz-adv-x="330" 
d="M20 0l120 755h190l-120 -755h-190zM163 805l24 155h160l-25 -155h-159z" />
    <glyph glyph-name="dotlessi" unicode="&#x131;" horiz-adv-x="314" 
d="M22 0l85 545h184l-86 -545h-183z" />
    <glyph glyph-name="IJ" unicode="&#x132;" horiz-adv-x="949" 
d="M20 0l120 755h190l-120 -755h-190zM576 -17q-119 0 -187.5 59t-75.5 158l185 18q11 -85 90 -85q44 0 69 23t34 77l83 522h190l-86 -541q-6 -35 -17 -65.5t-34 -62t-55.5 -53.5t-82.5 -36t-113 -14z" />
    <glyph glyph-name="ij" unicode="&#x133;" horiz-adv-x="627" 
d="M119 622l25 156h184l-25 -156h-184zM22 0l85 545h184l-86 -545h-183zM432 622l25 156h185l-25 -156h-185zM291 -232q-27 0 -51.5 3t-35.5 5l-10 3l30 136q18 -3 42 -3q56 0 66 74l88 559h185l-87 -549q-18 -115 -76.5 -171.5t-150.5 -56.5z" />
    <glyph glyph-name="Jcircumflex" unicode="&#x134;" horiz-adv-x="635" 
d="M259 -17q-119 0 -187.5 59t-75.5 158l185 18q11 -85 90 -85q44 0 69 23t34 77l83 522h190l-86 -541q-6 -35 -17 -65.5t-34 -62t-55.5 -53.5t-82.5 -36t-113 -14zM390 798l18 114l172 55l156 -55l-18 -116l-156 53z" />
    <glyph glyph-name="jcircumflex" unicode="&#x135;" horiz-adv-x="313" 
d="M64 608l19 119l153 62l133 -62l-19 -121l-134 60zM-22 -232q-27 0 -51.5 3t-34.5 5l-11 3l30 136q18 -3 42 -3q56 0 66 74l88 559h185l-87 -549q-18 -115 -76.5 -171.5t-150.5 -56.5z" />
    <glyph glyph-name="Kcommaaccent" unicode="&#x136;" horiz-adv-x="745" 
d="M236 199l-31 -199h-185l120 755h185l-49 -314l295 314h216l-308 -329l206 -426h-211l-138 302zM226 -245l-1 55q70 6 89 41h-83l16 101h169l-11 -66q-20 -122 -179 -131z" />
    <glyph glyph-name="kcommaaccent" unicode="&#x137;" horiz-adv-x="632" 
d="M395 0l-107 221l-60 -60l-26 -161h-181l123 778h181l-66 -422l196 189h212l-239 -222l162 -323h-195zM183 -245l-1 55q70 6 89 41h-83l16 101h169l-11 -66q-20 -122 -179 -131z" />
    <glyph glyph-name="Lacute" unicode="&#x139;" horiz-adv-x="616" 
d="M20 0l120 755h190l-95 -598h321l-25 -157h-511zM172 805l101 142h187l-147 -142h-141z" />
    <glyph glyph-name="lacute" unicode="&#x13a;" horiz-adv-x="314" 
d="M21 0l123 778h184l-123 -778h-184zM157 805l101 142h187l-147 -142h-141z" />
    <glyph glyph-name="Lcommaaccent" unicode="&#x13b;" horiz-adv-x="616" 
d="M20 0l120 755h190l-95 -598h321l-25 -157h-511zM173 -245l-1 55q70 6 89 41h-83l16 101h169l-11 -66q-20 -122 -179 -131z" />
    <glyph glyph-name="lcommaaccent" unicode="&#x13c;" horiz-adv-x="314" 
d="M21 0l123 778h184l-123 -778h-184zM0 -245l-1 55q70 6 89 41h-83l16 101h169l-11 -66q-20 -122 -179 -131z" />
    <glyph glyph-name="Lcaron" unicode="&#x13d;" horiz-adv-x="623" 
d="M20 0l120 755h190l-95 -598h321l-25 -157h-511zM399 547l56 208h155l-116 -208h-95z" />
    <glyph glyph-name="lcaron" unicode="&#x13e;" horiz-adv-x="313" 
d="M21 0l123 778h184l-123 -778h-184zM334 570l56 208h155l-116 -208h-95z" />
    <glyph glyph-name="Ldot" unicode="&#x13f;" horiz-adv-x="623" 
d="M20 0l120 755h190l-95 -598h321l-25 -157h-511zM385 308l28 175h184l-28 -175h-184z" />
    <glyph glyph-name="ldot" unicode="&#x140;" horiz-adv-x="498" 
d="M320 308l28 175h184l-28 -175h-184zM21 0l123 778h184l-123 -778h-184z" />
    <glyph glyph-name="Lslash" unicode="&#x141;" horiz-adv-x="616" 
d="M531 0h-511l44 279l-82 -32l20 127l83 32l55 349h190l-43 -269l180 70l-20 -126l-180 -71l-32 -202h321z" />
    <glyph glyph-name="lslash" unicode="&#x142;" horiz-adv-x="321" 
d="M209 0h-184l48 302l-83 -35l21 132l83 35l54 344h184l-41 -261l84 35l-21 -131l-84 -36z" />
    <glyph glyph-name="Nacute" unicode="&#x143;" horiz-adv-x="787" 
d="M20 0l120 755h191l173 -387q8 -19 15.5 -41t10.5 -35l4 -12h5l75 475h173l-119 -755h-179l-180 397q-9 21 -17 43.5t-12 34.5l-3 12h-5l-77 -487h-175zM399 805l101 142h187l-147 -142h-141z" />
    <glyph glyph-name="nacute" unicode="&#x144;" horiz-adv-x="659" 
d="M21 0l86 545h171l-15 -98q63 109 184 109q93 0 135 -56t26 -156l-54 -344h-184l50 315q15 100 -59 100q-36 0 -68.5 -30.5t-43.5 -103.5l-44 -281h-184zM307 611l112 167h190l-164 -167h-138z" />
    <glyph glyph-name="Ncommaaccent" unicode="&#x145;" horiz-adv-x="787" 
d="M20 0l120 755h191l173 -387q8 -19 15.5 -41t10.5 -35l4 -12h5l75 475h173l-119 -755h-179l-180 397q-9 21 -17 43.5t-12 34.5l-3 12h-5l-77 -487h-175zM243 -245l-1 55q70 6 89 41h-83l16 101h169l-11 -66q-20 -122 -179 -131z" />
    <glyph glyph-name="ncommaaccent" unicode="&#x146;" horiz-adv-x="659" 
d="M21 0l86 545h171l-15 -98q63 109 184 109q93 0 135 -56t26 -156l-54 -344h-184l50 315q15 100 -59 100q-36 0 -68.5 -30.5t-43.5 -103.5l-44 -281h-184zM173 -245l-1 55q70 6 89 41h-83l16 101h169l-11 -66q-20 -122 -179 -131z" />
    <glyph glyph-name="Ncaron" unicode="&#x147;" horiz-adv-x="787" 
d="M20 0l120 755h191l173 -387q8 -19 15.5 -41t10.5 -35l4 -12h5l75 475h173l-119 -755h-179l-180 397q-9 21 -17 43.5t-12 34.5l-3 12h-5l-77 -487h-175zM668 965l-18 -114l-168 -55l-160 55l18 116l160 -53z" />
    <glyph glyph-name="ncaron" unicode="&#x148;" horiz-adv-x="659" 
d="M21 0l86 545h171l-15 -98q63 109 184 109q93 0 135 -56t26 -156l-54 -344h-184l50 315q15 100 -59 100q-36 0 -68.5 -30.5t-43.5 -103.5l-44 -281h-184zM573 780l-19 -121l-166 -61l-162 65l19 121l160 -63z" />
    <glyph glyph-name="Eng" unicode="&#x14a;" horiz-adv-x="787" 
d="M405 -232q-16 0 -34.5 2t-28.5 4l-11 3l28 128q30 -5 57 -5q31 0 56.5 18.5t32.5 61.5l3 20h-19l-180 397q-9 21 -17 43.5t-12 34.5l-3 12h-5l-77 -487h-175l120 755h191l173 -387q8 -19 15.5 -41t10.5 -35l4 -12h5l75 475h173l-120 -759q-19 -121 -79.5 -174.5
t-182.5 -53.5z" />
    <glyph glyph-name="eng" unicode="&#x14b;" horiz-adv-x="659" 
d="M326 -232q-27 0 -51.5 3t-34.5 5l-11 3l30 136q18 -3 42 -3q56 0 67 74l52 329q15 100 -59 100q-36 0 -68.5 -30.5t-43.5 -103.5l-44 -281h-184l86 545h171l-15 -98q63 109 184 109q93 0 135 -56t26 -156l-55 -350q-36 -226 -227 -226z" />
    <glyph glyph-name="Omacron" unicode="&#x14c;" horiz-adv-x="818" 
d="M388 -16q-152 0 -245.5 89.5t-93.5 248.5q0 123 44.5 223.5t137 163t219.5 62.5q152 0 245.5 -89.5t93.5 -247.5q0 -125 -44 -225.5t-136.5 -162.5t-220.5 -62zM250 304q0 -88 39.5 -130t106.5 -42q86 0 139 89t53 229q0 89 -39.5 131t-106.5 42q-86 0 -139 -88.5
t-53 -230.5zM288 805l18 117h360l-19 -117h-359z" />
    <glyph glyph-name="omacron" unicode="&#x14d;" horiz-adv-x="638" 
d="M299 -15q-123 0 -196 65t-73 184q0 136 83.5 230.5t224.5 94.5q125 0 197.5 -65.5t72.5 -184.5q0 -135 -84 -229.5t-225 -94.5zM215 228q0 -110 84 -110q59 0 91.5 58.5t32.5 139.5q0 110 -85 110q-58 0 -90.5 -58t-32.5 -140zM184 623l19 117h359l-19 -117h-359z" />
    <glyph glyph-name="Obreve" unicode="&#x14e;" horiz-adv-x="818" 
d="M388 -16q-152 0 -245.5 89.5t-93.5 248.5q0 123 44.5 223.5t137 163t219.5 62.5q152 0 245.5 -89.5t93.5 -247.5q0 -125 -44 -225.5t-136.5 -162.5t-220.5 -62zM250 304q0 -88 39.5 -130t106.5 -42q86 0 139 89t53 229q0 89 -39.5 131t-106.5 42q-86 0 -139 -88.5
t-53 -230.5zM485 796q-74 0 -121.5 37.5t-50.5 109.5h107q10 -47 69 -47q56 0 84 47h106q-21 -70 -72 -108.5t-122 -38.5z" />
    <glyph glyph-name="obreve" unicode="&#x14f;" horiz-adv-x="638" 
d="M299 -15q-123 0 -196 65t-73 184q0 136 83.5 230.5t224.5 94.5q125 0 197.5 -65.5t72.5 -184.5q0 -135 -84 -229.5t-225 -94.5zM215 228q0 -110 84 -110q59 0 91.5 58.5t32.5 139.5q0 110 -85 110q-58 0 -90.5 -58t-32.5 -140zM370 608q-77 0 -125 43t-44 127h102
q0 -29 20 -46.5t54 -17.5q35 0 61.5 17.5t36.5 46.5h98q-18 -80 -73.5 -125t-129.5 -45z" />
    <glyph glyph-name="Ohungarumlaut" unicode="&#x150;" horiz-adv-x="818" 
d="M388 -16q-152 0 -245.5 89.5t-93.5 248.5q0 123 44.5 223.5t137 163t219.5 62.5q152 0 245.5 -89.5t93.5 -247.5q0 -125 -44 -225.5t-136.5 -162.5t-220.5 -62zM250 304q0 -88 39.5 -130t106.5 -42q86 0 139 89t53 229q0 89 -39.5 131t-106.5 42q-86 0 -139 -88.5
t-53 -230.5zM298 805l92 142h157l-115 -142h-134zM499 805l92 142h157l-115 -142h-134z" />
    <glyph glyph-name="ohungarumlaut" unicode="&#x151;" horiz-adv-x="638" 
d="M299 -15q-123 0 -196 65t-73 184q0 136 83.5 230.5t224.5 94.5q125 0 197.5 -65.5t72.5 -184.5q0 -135 -84 -229.5t-225 -94.5zM215 228q0 -110 84 -110q59 0 91.5 58.5t32.5 139.5q0 110 -85 110q-58 0 -90.5 -58t-32.5 -140zM193 611l112 167h153l-135 -167h-130z
M391 611l112 167h153l-135 -167h-130z" />
    <glyph glyph-name="OE" unicode="&#x152;" horiz-adv-x="1136" 
d="M391 132q89 0 143 89t54 233q0 86 -38.5 127.5t-104.5 41.5q-87 0 -141 -89t-54 -230q0 -172 141 -172zM525 0l10 62q-43 -42 -86.5 -57.5t-111.5 -15.5q-119 0 -203.5 87.5t-84.5 245.5q0 121 43.5 222t131 163.5t203.5 62.5q145 0 207 -81l11 66h507l-25 -155h-329
l-23 -150h281l-23 -145h-281l-24 -150h348l-24 -155h-527z" />
    <glyph glyph-name="oe" unicode="&#x153;" horiz-adv-x="999" 
d="M682 -15q-135 0 -197 81h-2q-76 -81 -184 -81q-124 0 -196.5 65t-72.5 184q0 136 83.5 230.5t224.5 94.5q127 0 187 -77h2q66 77 188 77q140 0 207.5 -91t42.5 -245h-380q-2 -46 24 -76.5t76 -30.5q72 0 109 62l153 -43q-26 -62 -95 -106t-170 -44zM597 331h195
q3 104 -85 104q-43 0 -72 -28t-38 -76zM299 118q59 0 91.5 58.5t32.5 139.5q0 110 -85 110q-58 0 -90.5 -58t-32.5 -140q0 -110 84 -110z" />
    <glyph glyph-name="Racute" unicode="&#x154;" horiz-adv-x="718" 
d="M401 614h-93l-33 -207h114q57 0 90.5 29.5t33.5 84.5q0 45 -29 69t-83 24zM451 0l-96 261h-103l-42 -261h-190l120 755h308q111 0 184 -55.5t73 -161.5q0 -82 -46.5 -142.5t-125.5 -87.5v-2l120 -306h-202zM333 805l101 142h187l-147 -142h-141z" />
    <glyph glyph-name="racute" unicode="&#x155;" horiz-adv-x="448" 
d="M21 0l86 545h171l-17 -106h4q50 121 207 113l-39 -179q-29 3 -51 3q-64 0 -100 -43q-28 -33 -41 -105l-36 -228h-184zM231 611l112 167h190l-164 -167h-138z" />
    <glyph glyph-name="Rcommaaccent" unicode="&#x156;" horiz-adv-x="718" 
d="M401 614h-93l-33 -207h114q57 0 90.5 29.5t33.5 84.5q0 45 -29 69t-83 24zM451 0l-96 261h-103l-42 -261h-190l120 755h308q111 0 184 -55.5t73 -161.5q0 -82 -46.5 -142.5t-125.5 -87.5v-2l120 -306h-202zM223 -245l-1 55q70 6 89 41h-83l16 101h169l-11 -66
q-20 -122 -179 -131z" />
    <glyph glyph-name="rcommaaccent" unicode="&#x157;" horiz-adv-x="448" 
d="M21 0l86 545h171l-17 -106h4q50 121 207 113l-39 -179q-29 3 -51 3q-64 0 -100 -43q-28 -33 -41 -105l-36 -228h-184zM2 -245l-1 55q70 6 89 41h-83l16 101h169l-11 -66q-20 -122 -179 -131z" />
    <glyph glyph-name="Rcaron" unicode="&#x158;" horiz-adv-x="718" 
d="M401 614h-93l-33 -207h114q57 0 90.5 29.5t33.5 84.5q0 45 -29 69t-83 24zM451 0l-96 261h-103l-42 -261h-190l120 755h308q111 0 184 -55.5t73 -161.5q0 -82 -46.5 -142.5t-125.5 -87.5v-2l120 -306h-202zM600 965l-18 -114l-168 -55l-160 55l18 116l160 -53z" />
    <glyph glyph-name="rcaron" unicode="&#x159;" horiz-adv-x="448" 
d="M21 0l86 545h171l-17 -106h4q50 121 207 113l-39 -179q-29 3 -51 3q-64 0 -100 -43q-28 -33 -41 -105l-36 -228h-184zM497 780l-19 -121l-166 -61l-162 65l19 121l160 -63z" />
    <glyph glyph-name="Sacute" unicode="&#x15a;" horiz-adv-x="711" 
d="M337 -14q-139 0 -222.5 59t-104.5 147l177 48q15 -49 54.5 -79.5t101.5 -30.5t94 21.5t32 59.5q0 30 -19.5 49.5t-72.5 35.5l-79 23q-204 59 -204 216q0 105 79 170.5t219 65.5q120 0 198.5 -51.5t108.5 -135.5l-172 -47q-39 90 -147 90q-45 0 -70.5 -19.5t-25.5 -50.5
q0 -32 19 -51.5t67 -33.5l107 -31q185 -54 185 -198q0 -115 -79.5 -186t-245.5 -71zM327 805l101 142h187l-147 -142h-141z" />
    <glyph glyph-name="sacute" unicode="&#x15b;" horiz-adv-x="575" 
d="M265 -17q-109 0 -179 45t-83 123l173 20q16 -65 97 -65t81 48q0 34 -46 43l-93 18q-67 13 -110.5 55t-43.5 108q0 80 65.5 130.5t174.5 50.5q110 0 174.5 -43t81.5 -120l-172 -19q-6 27 -28.5 43.5t-55.5 16.5q-67 0 -67 -40q0 -20 14 -30.5t50 -17.5l66 -13
q165 -32 165 -155q0 -89 -65.5 -143.5t-198.5 -54.5zM240 611l112 167h190l-164 -167h-138z" />
    <glyph glyph-name="Scircumflex" unicode="&#x15c;" horiz-adv-x="711" 
d="M337 -14q-139 0 -222.5 59t-104.5 147l177 48q15 -49 54.5 -79.5t101.5 -30.5t94 21.5t32 59.5q0 30 -19.5 49.5t-72.5 35.5l-79 23q-204 59 -204 216q0 105 79 170.5t219 65.5q120 0 198.5 -51.5t108.5 -135.5l-172 -47q-39 90 -147 90q-45 0 -70.5 -19.5t-25.5 -50.5
q0 -32 19 -51.5t67 -33.5l107 -31q185 -54 185 -198q0 -115 -79.5 -186t-245.5 -71zM243 798l18 114l172 55l156 -55l-18 -116l-156 53z" />
    <glyph glyph-name="scircumflex" unicode="&#x15d;" horiz-adv-x="575" 
d="M265 -17q-109 0 -179 45t-83 123l173 20q16 -65 97 -65t81 48q0 34 -46 43l-93 18q-67 13 -110.5 55t-43.5 108q0 80 65.5 130.5t174.5 50.5q110 0 174.5 -43t81.5 -120l-172 -19q-6 27 -28.5 43.5t-55.5 16.5q-67 0 -67 -40q0 -20 14 -30.5t50 -17.5l66 -13
q165 -32 165 -155q0 -89 -65.5 -143.5t-198.5 -54.5zM151 608l19 119l174 65l155 -65l-19 -121l-155 63z" />
    <glyph glyph-name="Scedilla" unicode="&#x15e;" horiz-adv-x="711" 
d="M308 -232q-78 0 -125 47l53 46q32 -29 65 -29q18 0 30 8t12 23q0 13 -9.5 20.5t-24.5 7.5q-11 0 -37 -8l-54 30l53 77q-110 14 -176 70t-85 132l177 48q15 -49 54.5 -79.5t101.5 -30.5t94 21.5t32 59.5q0 30 -19.5 49.5t-72.5 35.5l-79 23q-204 59 -204 216
q0 105 79 170.5t219 65.5q120 0 198.5 -51.5t108.5 -135.5l-172 -47q-39 90 -147 90q-45 0 -70.5 -19.5t-25.5 -50.5q0 -32 19 -51.5t67 -33.5l107 -31q185 -54 185 -198q0 -115 -79.5 -186t-245.5 -71h-7l-26 -35l2 -2q15 4 41 4q39 0 66 -21t27 -59q0 -46 -37.5 -75.5
t-94.5 -29.5z" />
    <glyph glyph-name="scedilla" unicode="&#x15f;" horiz-adv-x="575" 
d="M221 -232q-78 0 -125 47l53 46q32 -29 65 -29q18 0 30 8t12 23q0 13 -9.5 20.5t-24.5 7.5q-11 0 -37 -8l-54 30l53 77q-76 15 -123.5 57t-57.5 104l173 20q16 -65 97 -65t81 48q0 34 -46 43l-93 18q-67 13 -110.5 55t-43.5 108q0 80 65.5 130.5t174.5 50.5
q110 0 174.5 -43t81.5 -120l-172 -19q-6 27 -28.5 43.5t-55.5 16.5q-67 0 -67 -40q0 -20 14 -30.5t50 -17.5l66 -13q165 -32 165 -155q0 -89 -65.5 -143.5t-198.5 -54.5q-16 0 -24 1l-24 -33l2 -2q15 4 41 4q39 0 66 -21t27 -59q0 -46 -37.5 -75.5t-94.5 -29.5z" />
    <glyph glyph-name="Scaron" unicode="&#x160;" horiz-adv-x="711" 
d="M337 -14q-139 0 -222.5 59t-104.5 147l177 48q15 -49 54.5 -79.5t101.5 -30.5t94 21.5t32 59.5q0 30 -19.5 49.5t-72.5 35.5l-79 23q-204 59 -204 216q0 105 79 170.5t219 65.5q120 0 198.5 -51.5t108.5 -135.5l-172 -47q-39 90 -147 90q-45 0 -70.5 -19.5t-25.5 -50.5
q0 -32 19 -51.5t67 -33.5l107 -31q185 -54 185 -198q0 -115 -79.5 -186t-245.5 -71zM592 965l-18 -114l-168 -55l-160 55l18 116l160 -53z" />
    <glyph glyph-name="scaron" unicode="&#x161;" horiz-adv-x="575" 
d="M265 -17q-109 0 -179 45t-83 123l173 20q16 -65 97 -65t81 48q0 34 -46 43l-93 18q-67 13 -110.5 55t-43.5 108q0 80 65.5 130.5t174.5 50.5q110 0 174.5 -43t81.5 -120l-172 -19q-6 27 -28.5 43.5t-55.5 16.5q-67 0 -67 -40q0 -20 14 -30.5t50 -17.5l66 -13
q165 -32 165 -155q0 -89 -65.5 -143.5t-198.5 -54.5zM509 780l-19 -121l-166 -61l-162 65l19 121l160 -63z" />
    <glyph glyph-name="Tcommaaccent" unicode="&#x162;" horiz-adv-x="663" 
d="M69 603l24 152h610l-24 -152h-210l-95 -603h-190l95 603h-210zM169 -245l-1 55q70 6 89 41h-83l16 101h169l-11 -66q-20 -122 -179 -131z" />
    <glyph glyph-name="tcommaaccent" unicode="&#x163;" horiz-adv-x="408" 
d="M33 422l19 123h81l32 146h168l-23 -146h108l-20 -123h-106l-35 -220q-7 -43 7 -59.5t53 -16.5q14 0 38 3l-10 -127q-66 -14 -117 -14q-88 0 -130.5 48t-28.5 134l41 252h-77zM59 -245l-1 55q70 6 89 41h-83l16 101h169l-11 -66q-20 -122 -179 -131z" />
    <glyph glyph-name="Tcaron" unicode="&#x164;" horiz-adv-x="663" 
d="M69 603l24 152h610l-24 -152h-210l-95 -603h-190l95 603h-210zM592 965l-18 -114l-168 -55l-160 55l18 116l160 -53z" />
    <glyph glyph-name="tcaron" unicode="&#x165;" horiz-adv-x="408" 
d="M395 570l56 208h155l-116 -208h-95zM33 422l19 123h81l32 146h168l-23 -146h108l-20 -123h-106l-35 -220q-7 -43 7 -59.5t53 -16.5q14 0 38 3l-10 -127q-66 -14 -117 -14q-88 0 -130.5 48t-28.5 134l41 252h-77z" />
    <glyph glyph-name="Tbar" unicode="&#x166;" horiz-adv-x="663" 
d="M549 332h-123l-52 -332h-190l52 332h-119l17 113h120l25 158h-210l24 152h610l-24 -152h-210l-25 -158h122z" />
    <glyph glyph-name="tbar" unicode="&#x167;" horiz-adv-x="408" 
d="M345 2q-66 -14 -117 -14q-88 0 -130.5 48t-28.5 134l13 80h-74l17 108h75l10 64h-77l19 123h81l32 146h168l-23 -146h108l-20 -123h-106l-10 -64h110l-17 -108h-110l-8 -48q-7 -43 7 -59.5t53 -16.5q14 0 38 3z" />
    <glyph glyph-name="Utilde" unicode="&#x168;" horiz-adv-x="743" 
d="M342 -17q-168 0 -238 84.5t-45 237.5l71 450h190l-71 -456q-13 -82 12.5 -121t95.5 -39q64 0 92.5 36.5t41.5 117.5l73 462h189l-76 -484q-22 -141 -101.5 -214.5t-233.5 -73.5zM335 800h-94q10 76 48 117t96 41q31 0 80 -21t70 -21q37 0 42 41h98q-10 -78 -47 -118
t-92 -40q-32 0 -85.5 22t-69.5 22q-39 0 -46 -43z" />
    <glyph glyph-name="utilde" unicode="&#x169;" horiz-adv-x="649" 
d="M211 -13q-99 0 -138.5 60.5t-22.5 163.5l54 334h183l-51 -317q-16 -101 58 -101q38 0 64.5 30.5t36.5 90.5l47 297h184l-86 -545h-172l15 92q-62 -105 -172 -105zM278 615h-94q10 76 48 117t96 41q30 0 79 -21t71 -21q37 0 42 41h98q-10 -78 -47 -118t-92 -40
q-32 0 -85.5 22t-69.5 22q-39 0 -46 -43z" />
    <glyph glyph-name="Umacron" unicode="&#x16a;" horiz-adv-x="743" 
d="M342 -17q-168 0 -238 84.5t-45 237.5l71 450h190l-71 -456q-13 -82 12.5 -121t95.5 -39q64 0 92.5 36.5t41.5 117.5l73 462h189l-76 -484q-22 -141 -101.5 -214.5t-233.5 -73.5zM269 805l18 117h360l-19 -117h-359z" />
    <glyph glyph-name="umacron" unicode="&#x16b;" horiz-adv-x="649" 
d="M211 -13q-99 0 -138.5 60.5t-22.5 163.5l54 334h183l-51 -317q-16 -101 58 -101q38 0 64.5 30.5t36.5 90.5l47 297h184l-86 -545h-172l15 92q-62 -105 -172 -105zM200 623l19 117h359l-19 -117h-359z" />
    <glyph glyph-name="Ubreve" unicode="&#x16c;" horiz-adv-x="743" 
d="M342 -17q-168 0 -238 84.5t-45 237.5l71 450h190l-71 -456q-13 -82 12.5 -121t95.5 -39q64 0 92.5 36.5t41.5 117.5l73 462h189l-76 -484q-22 -141 -101.5 -214.5t-233.5 -73.5zM459 796q-74 0 -121.5 37.5t-50.5 109.5h107q10 -47 69 -47q56 0 84 47h106
q-21 -70 -72 -108.5t-122 -38.5z" />
    <glyph glyph-name="ubreve" unicode="&#x16d;" horiz-adv-x="649" 
d="M211 -13q-99 0 -138.5 60.5t-22.5 163.5l54 334h183l-51 -317q-16 -101 58 -101q38 0 64.5 30.5t36.5 90.5l47 297h184l-86 -545h-172l15 92q-62 -105 -172 -105zM385 608q-77 0 -125 43t-44 127h102q0 -29 20 -46.5t54 -17.5q36 0 62 17.5t36 46.5h98
q-18 -80 -73.5 -125t-129.5 -45z" />
    <glyph glyph-name="Uring" unicode="&#x16e;" horiz-adv-x="743" 
d="M342 -17q-168 0 -238 84.5t-45 237.5l71 450h190l-71 -456q-13 -82 12.5 -121t95.5 -39q64 0 92.5 36.5t41.5 117.5l73 462h189l-76 -484q-22 -141 -101.5 -214.5t-233.5 -73.5zM409 917q0 -26 16.5 -43.5t40.5 -17.5q23 0 40 18.5t17 44.5q0 25 -16 42t-39 17
q-24 0 -41.5 -18t-17.5 -43zM334 917q0 52 40 89.5t95 37.5q56 0 93.5 -35.5t37.5 -89.5q0 -52 -40 -89.5t-95 -37.5q-57 0 -94 35t-37 90z" />
    <glyph glyph-name="uring" unicode="&#x16f;" horiz-adv-x="649" 
d="M211 -13q-99 0 -138.5 60.5t-22.5 163.5l54 334h183l-51 -317q-16 -101 58 -101q38 0 64.5 30.5t36.5 90.5l47 297h184l-86 -545h-172l15 92q-62 -105 -172 -105zM263 726q0 52 40 89.5t95 37.5q56 0 93.5 -35.5t37.5 -89.5q0 -52 -40 -89.5t-95 -37.5q-57 0 -94 35
t-37 90zM338 726q0 -26 16.5 -43.5t40.5 -17.5q23 0 40 18.5t17 44.5q0 25 -16 42t-39 17q-24 0 -41.5 -18t-17.5 -43z" />
    <glyph glyph-name="Uhungarumlaut" unicode="&#x170;" horiz-adv-x="743" 
d="M342 -17q-168 0 -238 84.5t-45 237.5l71 450h190l-71 -456q-13 -82 12.5 -121t95.5 -39q64 0 92.5 36.5t41.5 117.5l73 462h189l-76 -484q-22 -141 -101.5 -214.5t-233.5 -73.5zM275 805l92 142h157l-115 -142h-134zM476 805l92 142h157l-115 -142h-134z" />
    <glyph glyph-name="uhungarumlaut" unicode="&#x171;" horiz-adv-x="649" 
d="M211 -13q-99 0 -138.5 60.5t-22.5 163.5l54 334h183l-51 -317q-16 -101 58 -101q38 0 64.5 30.5t36.5 90.5l47 297h184l-86 -545h-172l15 92q-62 -105 -172 -105zM209 611l112 167h153l-135 -167h-130zM407 611l112 167h153l-135 -167h-130z" />
    <glyph glyph-name="Uogonek" unicode="&#x172;" horiz-adv-x="743" 
d="M313 -232q-66 0 -99 24t-33 66q0 38 22 68.5t76 60.5q-134 15 -188 97.5t-32 220.5l71 450h190l-71 -456q-13 -82 12.5 -121t95.5 -39q64 0 92.5 36.5t41.5 117.5l73 462h189l-76 -484q-20 -131 -90.5 -204.5t-204.5 -82.5q-69 -47 -69 -86q0 -41 44 -41l26 2l-14 -87
q-25 -4 -56 -4z" />
    <glyph glyph-name="uogonek" unicode="&#x173;" horiz-adv-x="649" 
d="M439 0h-71l15 92q-62 -105 -172 -105q-99 0 -138.5 60.5t-22.5 163.5l54 334h183l-51 -317q-16 -101 58 -101q38 0 64.5 30.5t36.5 90.5l47 297h184l-86 -545q-93 -58 -93 -102q0 -41 44 -41l26 2l-14 -87q-25 -4 -56 -4q-66 0 -99 24t-33 66t27.5 75.5t96.5 66.5z" />
    <glyph glyph-name="Wcircumflex" unicode="&#x174;" horiz-adv-x="1061" 
d="M599 0l-43 461l-188 -461h-228l-50 755h180l28 -542l224 542h161l53 -538l203 538h179l-289 -755h-230zM446 798l18 114l172 55l156 -55l-18 -116l-156 53z" />
    <glyph glyph-name="wcircumflex" unicode="&#x175;" horiz-adv-x="879" 
d="M464 0l-14 232l-1 125h-7q-20 -70 -41 -124l-89 -233h-218l-44 545h173l10 -244l1 -153h6q24 87 50 153l94 244h180l17 -244q2 -29 3 -71.5t1 -69.5v-28h6q27 104 51 169l90 244h172l-217 -545h-223zM319 608l19 119l174 65l155 -65l-19 -121l-155 63z" />
    <glyph glyph-name="Ycircumflex" unicode="&#x176;" horiz-adv-x="693" 
d="M208 0l51 321l-183 434h197l105 -274l182 274h199l-308 -425l-53 -330h-190zM256 798l18 114l172 55l156 -55l-18 -116l-156 53z" />
    <glyph glyph-name="ycircumflex" unicode="&#x177;" horiz-adv-x="595" 
d="M40 -223l113 215l-116 553h183l46 -251q4 -24 7 -53.5t4 -46.5l1 -17h6q19 63 43 117l113 251h185l-401 -768h-184zM184 608l19 119l174 65l155 -65l-19 -121l-155 63z" />
    <glyph glyph-name="Ydieresis" unicode="&#x178;" horiz-adv-x="693" 
d="M208 0l51 321l-183 434h197l105 -274l182 274h199l-308 -425l-53 -330h-190zM459 805l24 155h160l-25 -155h-159zM224 805l25 155h159l-25 -155h-159z" />
    <glyph glyph-name="Zacute" unicode="&#x179;" horiz-adv-x="676" 
d="M-14 0l20 128l429 477h-348l23 150h581l-20 -128l-428 -477h370l-23 -150h-604zM332 805l101 142h187l-147 -142h-141z" />
    <glyph glyph-name="zacute" unicode="&#x17a;" horiz-adv-x="558" 
d="M77 408l22 137h449l-18 -117l-284 -290h243l-22 -138h-462l18 118l286 290h-232zM254 611l112 167h190l-164 -167h-138z" />
    <glyph glyph-name="Zdotaccent" unicode="&#x17b;" horiz-adv-x="676" 
d="M-14 0l20 128l429 477h-348l23 150h581l-20 -128l-428 -477h370l-23 -150h-604zM336 805l24 155h160l-25 -155h-159z" />
    <glyph glyph-name="zdotaccent" unicode="&#x17c;" horiz-adv-x="558" 
d="M77 408l22 137h449l-18 -117l-284 -290h243l-22 -138h-462l18 118l286 290h-232zM252 623l25 155h159l-25 -155h-159z" />
    <glyph glyph-name="Zcaron" unicode="&#x17d;" horiz-adv-x="676" 
d="M-14 0l20 128l429 477h-348l23 150h581l-20 -128l-428 -477h370l-23 -150h-604zM593 965l-18 -114l-168 -55l-160 55l18 116l160 -53z" />
    <glyph glyph-name="zcaron" unicode="&#x17e;" horiz-adv-x="558" 
d="M77 408l22 137h449l-18 -117l-284 -290h243l-22 -138h-462l18 118l286 290h-232zM520 780l-19 -121l-166 -61l-162 65l19 121l160 -63z" />
    <glyph glyph-name="florin" unicode="&#x192;" horiz-adv-x="470" 
d="M430 422h-120l-154 -585h-167l152 585h-84l20 123h96l16 60q48 182 235 182q19 0 40 -2.5t32 -4.5l11 -2l-31 -141q-20 5 -38 5q-71 0 -90 -74l-6 -23h107z" />
    <glyph glyph-name="AEacute" unicode="&#x1fc;" horiz-adv-x="998" 
d="M370 401l-50 -99h142l47 298h-43q-32 -73 -96 -199zM414 0l25 160h-190l-80 -160h-200l403 755h641l-24 -155h-294l-24 -150h246l-23 -145h-246l-24 -150h314l-25 -155h-499zM593 805l101 142h187l-147 -142h-141z" />
    <glyph glyph-name="aeacute" unicode="&#x1fd;" horiz-adv-x="963" 
d="M22 141q0 187 282 187h87l3 17q7 40 -12.5 64t-60.5 24q-67 0 -87 -63l-151 41q19 61 81.5 104.5t167.5 43.5q114 0 172 -67q77 67 180 67q137 0 203 -91t41 -245h-380q-2 -46 24 -76.5t76 -30.5q72 0 109 62l153 -43q-26 -62 -95.5 -106t-169.5 -44q-166 0 -228 112
q-67 -110 -212 -110q-88 0 -135.5 44t-47.5 110zM670 435q-43 0 -72 -28t-38 -76h195q3 104 -85 104zM270 105q38 0 67 31t39 94q-25 2 -54 2q-65 0 -92.5 -17t-27.5 -50q0 -28 18.5 -44t49.5 -16zM444 611l112 167h190l-164 -167h-138z" />
    <glyph glyph-name="Oslashacute" unicode="&#x1fe;" horiz-adv-x="818" 
d="M248 303q0 -27 5 -55l301 329q-37 48 -112 48q-87 0 -140.5 -89.5t-53.5 -232.5zM396 130q87 0 140.5 89.5t53.5 231.5q0 21 -4 53l-301 -328q39 -46 111 -46zM388 -17q-124 0 -216 70l-103 -113l-54 49l105 115q-71 90 -71 217q0 123 44.5 223.5t137 163.5t219.5 63
q126 0 217 -71l100 109l55 -47l-103 -113q70 -87 70 -215q0 -125 -44 -225.5t-136.5 -163t-220.5 -62.5zM402 805l101 142h187l-147 -142h-141z" />
    <glyph glyph-name="oslashacute" unicode="&#x1ff;" horiz-adv-x="638" 
d="M213 227q0 -11 2 -27l178 211q-21 18 -55 18q-59 0 -92 -59.5t-33 -142.5zM299 115q60 0 93 59.5t33 142.5q0 16 -1 23l-177 -209q20 -16 52 -16zM299 -15q-83 0 -145 35l-85 -101l-53 46l82 97q-68 66 -68 172q0 136 83.5 230.5t224.5 94.5q85 0 149 -36l79 93l54 -43
l-78 -92q66 -69 66 -172q0 -135 -84 -229.5t-225 -94.5zM295 611l112 167h190l-164 -167h-138z" />
    <glyph glyph-name="Scommaaccent" unicode="&#x218;" horiz-adv-x="711" 
d="M337 -14q-139 0 -222.5 59t-104.5 147l177 48q15 -49 54.5 -79.5t101.5 -30.5t94 21.5t32 59.5q0 30 -19.5 49.5t-72.5 35.5l-79 23q-204 59 -204 216q0 105 79 170.5t219 65.5q120 0 198.5 -51.5t108.5 -135.5l-172 -47q-39 90 -147 90q-45 0 -70.5 -19.5t-25.5 -50.5
q0 -32 19 -51.5t67 -33.5l107 -31q185 -54 185 -198q0 -115 -79.5 -186t-245.5 -71zM228 -245l-1 55q70 6 89 41h-83l16 101h169l-11 -66q-20 -122 -179 -131z" />
    <glyph glyph-name="scommaaccent" unicode="&#x219;" horiz-adv-x="575" 
d="M265 -17q-109 0 -179 45t-83 123l173 20q16 -65 97 -65t81 48q0 34 -46 43l-93 18q-67 13 -110.5 55t-43.5 108q0 80 65.5 130.5t174.5 50.5q110 0 174.5 -43t81.5 -120l-172 -19q-6 27 -28.5 43.5t-55.5 16.5q-67 0 -67 -40q0 -20 14 -30.5t50 -17.5l66 -13
q165 -32 165 -155q0 -89 -65.5 -143.5t-198.5 -54.5zM142 -245l-1 55q70 6 89 41h-83l16 101h169l-11 -66q-20 -122 -179 -131z" />
    <glyph glyph-name="uni021A" unicode="&#x21a;" horiz-adv-x="663" 
d="M69 603l24 152h610l-24 -152h-210l-95 -603h-190l95 603h-210zM169 -245l-1 55q70 6 89 41h-83l16 101h169l-11 -66q-20 -122 -179 -131z" />
    <glyph glyph-name="uni021B" unicode="&#x21b;" horiz-adv-x="408" 
d="M33 422l19 123h81l32 146h168l-23 -146h108l-20 -123h-106l-35 -220q-7 -43 7 -59.5t53 -16.5q14 0 38 3l-10 -127q-66 -14 -117 -14q-88 0 -130.5 48t-28.5 134l41 252h-77zM59 -245l-1 55q70 6 89 41h-83l16 101h169l-11 -66q-20 -122 -179 -131z" />
    <glyph glyph-name="uni0237" unicode="&#x237;" horiz-adv-x="313" 
d="M-22 -232q-27 0 -51.5 3t-34.5 5l-11 3l30 136q18 -3 42 -3q56 0 66 74l88 559h185l-87 -549q-18 -115 -76.5 -171.5t-150.5 -56.5z" />
    <glyph glyph-name="circumflex" unicode="&#x2c6;" horiz-adv-x="489" 
d="M131 608l19 119l174 65l155 -65l-19 -121l-155 63z" />
    <glyph glyph-name="caron" unicode="&#x2c7;" horiz-adv-x="489" 
d="M477 780l-19 -121l-166 -61l-162 65l19 121l160 -63z" />
    <glyph glyph-name="breve" unicode="&#x2d8;" horiz-adv-x="495" 
d="M306 608q-77 0 -125 43t-44 127h102q0 -29 20 -46.5t54 -17.5q35 0 61.5 17.5t36.5 46.5h98q-18 -80 -73.5 -125t-129.5 -45z" />
    <glyph glyph-name="dotaccent" unicode="&#x2d9;" horiz-adv-x="496" 
d="M222 623l25 155h159l-25 -155h-159z" />
    <glyph glyph-name="ring" unicode="&#x2da;" horiz-adv-x="495" 
d="M184 726q0 52 40 89.5t95 37.5q56 0 93.5 -35.5t37.5 -89.5q0 -52 -40 -89.5t-95 -37.5q-57 0 -94 35t-37 90zM259 726q0 -26 16.5 -43.5t40.5 -17.5q23 0 40 18.5t17 44.5q0 25 -16 42t-39 17q-24 0 -41.5 -18t-17.5 -43z" />
    <glyph glyph-name="ogonek" unicode="&#x2db;" horiz-adv-x="495" 
d="M244 -141l-14 -87q-25 -4 -56 -4q-66 0 -99 24t-33 66t27.5 75.5t96.5 66.5h101q-93 -58 -93 -102q0 -41 44 -41z" />
    <glyph glyph-name="tilde" unicode="&#x2dc;" horiz-adv-x="495" 
d="M195 615h-94q10 76 48 117t96 41q31 0 80 -21t70 -21q37 0 42 41h98q-10 -78 -47 -118t-92 -40q-32 0 -85.5 22t-69.5 22q-39 0 -46 -43z" />
    <glyph glyph-name="hungarumlaut" unicode="&#x2dd;" horiz-adv-x="495" 
d="M97 611l112 167h153l-135 -167h-130zM295 611l112 167h153l-135 -167h-130z" />
    <glyph glyph-name="Wgrave" unicode="&#x1e80;" horiz-adv-x="1061" 
d="M599 0l-43 461l-188 -461h-228l-50 755h180l28 -542l224 542h161l53 -538l203 538h179l-289 -755h-230zM619 947l64 -142h-134l-116 142h186z" />
    <glyph glyph-name="wgrave" unicode="&#x1e81;" horiz-adv-x="879" 
d="M464 0l-14 232l-1 125h-7q-20 -70 -41 -124l-89 -233h-218l-44 545h173l10 -244l1 -153h6q24 87 50 153l94 244h180l17 -244q2 -29 3 -71.5t1 -69.5v-28h6q27 104 51 169l90 244h172l-217 -545h-223zM484 778l70 -167h-137l-113 167h180z" />
    <glyph glyph-name="Wacute" unicode="&#x1e82;" horiz-adv-x="1061" 
d="M599 0l-43 461l-188 -461h-228l-50 755h180l28 -542l224 542h161l53 -538l203 538h179l-289 -755h-230zM527 805l101 142h187l-147 -142h-141z" />
    <glyph glyph-name="wacute" unicode="&#x1e83;" horiz-adv-x="879" 
d="M464 0l-14 232l-1 125h-7q-20 -70 -41 -124l-89 -233h-218l-44 545h173l10 -244l1 -153h6q24 87 50 153l94 244h180l17 -244q2 -29 3 -71.5t1 -69.5v-28h6q27 104 51 169l90 244h172l-217 -545h-223zM408 611l112 167h190l-164 -167h-138z" />
    <glyph glyph-name="Wdieresis" unicode="&#x1e84;" horiz-adv-x="1061" 
d="M599 0l-43 461l-188 -461h-228l-50 755h180l28 -542l224 542h161l53 -538l203 538h179l-289 -755h-230zM648 805l24 155h160l-25 -155h-159zM413 805l25 155h159l-25 -155h-159z" />
    <glyph glyph-name="wdieresis" unicode="&#x1e85;" horiz-adv-x="879" 
d="M464 0l-14 232l-1 125h-7q-20 -70 -41 -124l-89 -233h-218l-44 545h173l10 -244l1 -153h6q24 87 50 153l94 244h180l17 -244q2 -29 3 -71.5t1 -69.5v-28h6q27 104 51 169l90 244h172l-217 -545h-223zM524 623l24 155h160l-25 -155h-159zM289 623l25 155h159l-24 -155
h-160z" />
    <glyph glyph-name="Ygrave" unicode="&#x1ef2;" horiz-adv-x="693" 
d="M208 0l51 321l-183 434h197l105 -274l182 274h199l-308 -425l-53 -330h-190zM430 947l64 -142h-134l-116 142h186z" />
    <glyph glyph-name="ygrave" unicode="&#x1ef3;" horiz-adv-x="595" 
d="M40 -223l113 215l-116 553h183l46 -251q4 -24 7 -53.5t4 -46.5l1 -17h6q19 63 43 117l113 251h185l-401 -768h-184zM349 778l70 -167h-137l-113 167h180z" />
    <glyph glyph-name="uni2004" unicode="&#x2004;" horiz-adv-x="333" 
 />
    <glyph glyph-name="uni2007" unicode="&#x2007;" horiz-adv-x="400" 
 />
    <glyph glyph-name="uni2009" unicode="&#x2009;" horiz-adv-x="160" 
 />
    <glyph glyph-name="uni200A" unicode="&#x200a;" horiz-adv-x="80" 
 />
    <glyph glyph-name="uni200B" unicode="&#x200b;" horiz-adv-x="0" 
 />
    <glyph glyph-name="uni2012" unicode="&#x2012;" horiz-adv-x="608" 
d="M718 433v-150h-828v150h828z" />
    <glyph glyph-name="endash" unicode="&#x2013;" horiz-adv-x="525" 
d="M23 241l19 120h465l-19 -120h-465z" />
    <glyph glyph-name="emdash" unicode="&#x2014;" horiz-adv-x="921" 
d="M21 241l19 120h861l-19 -120h-861z" />
    <glyph glyph-name="quoteleft" unicode="&#x2018;" horiz-adv-x="263" 
d="M278 792l23 -60q-54 -22 -79 -46t-33 -63h84l-27 -175h-184l20 128q12 77 56 132t140 84z" />
    <glyph glyph-name="quoteright" unicode="&#x2019;" horiz-adv-x="263" 
d="M72 411l-23 60q54 22 79 46t33 63h-84l27 175h184l-20 -128q-12 -77 -56 -132t-140 -84z" />
    <glyph glyph-name="quotesinglbase" unicode="&#x201a;" horiz-adv-x="263" 
d="M-12 -169l-23 60q54 22 79 46t33 63h-84l27 175h184l-20 -128q-12 -77 -56 -132t-140 -84z" />
    <glyph glyph-name="quotedblleft" unicode="&#x201c;" horiz-adv-x="519" 
d="M278 792l23 -60q-54 -22 -79 -46t-33 -63h84l-27 -175h-184l20 128q12 77 56 132t140 84zM534 792l23 -60q-54 -22 -79 -46t-33 -63h84l-27 -175h-184l20 128q12 77 56 132t140 84z" />
    <glyph glyph-name="quotedblright" unicode="&#x201d;" horiz-adv-x="519" 
d="M72 411l-23 60q54 22 79 46t33 63h-84l27 175h184l-20 -128q-12 -77 -56 -132t-140 -84zM328 411l-23 60q54 22 79 46t33 63h-84l27 175h184l-20 -128q-12 -77 -56 -132t-140 -84z" />
    <glyph glyph-name="quotedblbase" unicode="&#x201e;" horiz-adv-x="519" 
d="M-12 -169l-23 60q54 22 79 46t33 63h-84l27 175h184l-20 -128q-12 -77 -56 -132t-140 -84zM244 -169l-23 60q54 22 79 46t33 63h-84l27 175h184l-20 -128q-12 -77 -56 -132t-140 -84z" />
    <glyph glyph-name="dagger" unicode="&#x2020;" horiz-adv-x="322" 
d="M54 561l12 76h104l18 118h85l-19 -118h104l-12 -76h-104l-38 -241h-85l39 241h-104z" />
    <glyph glyph-name="daggerdbl" unicode="&#x2021;" horiz-adv-x="322" 
d="M273 755l-17 -103h104l-12 -76h-104l-13 -82h104l-12 -76h-104l-15 -98h-85l16 98h-104l12 76h104l13 82h-104l12 76h104l16 103h85z" />
    <glyph glyph-name="bullet" unicode="&#x2022;" horiz-adv-x="390" 
d="M59 295q0 57 40.5 97t97.5 40t97 -40t40 -97t-40 -97.5t-97 -40.5t-97.5 40.5t-40.5 97.5z" />
    <glyph glyph-name="ellipsis" unicode="&#x2026;" horiz-adv-x="908" 
d="M627 0l28 175h184l-28 -175h-184zM324 0l28 175h184l-28 -175h-184zM21 0l28 175h184l-27 -175h-185z" />
    <glyph glyph-name="perthousand" unicode="&#x2030;" horiz-adv-x="1161" 
d="M21 -15l639 787h125l-638 -787h-126zM219 396q-72 0 -115 40.5t-43 113.5q0 100 49 161t129 61q72 0 115 -40.5t43 -113.5q0 -100 -49 -161t-129 -61zM218 480q34 0 50.5 45t16.5 101q0 62 -45 62q-34 0 -50.5 -45t-16.5 -101q0 -62 45 -62zM943 -15q-72 0 -115 40.5
t-43 113.5q0 100 49 161t129 61q72 0 115 -40.5t43 -113.5q0 -100 -49 -161t-129 -61zM568 -15q-72 0 -115 40.5t-43 113.5q0 100 49 161t129 61q72 0 115 -40.5t43 -113.5q0 -100 -49 -161t-129 -61zM942 69q34 0 50.5 45t16.5 101q0 62 -45 62q-34 0 -50.5 -45t-16.5 -101
q0 -62 45 -62zM567 69q34 0 50.5 45t16.5 101q0 62 -45 62q-34 0 -50.5 -45t-16.5 -101q0 -62 45 -62z" />
    <glyph glyph-name="uni2032" unicode="&#x2032;" horiz-adv-x="293" 
d="M71 417l93 338h170l-162 -338h-101z" />
    <glyph glyph-name="uni2033" unicode="&#x2033;" horiz-adv-x="507" 
d="M306 417l93 338h171l-163 -338h-101zM71 417l93 338h170l-162 -338h-101z" />
    <glyph glyph-name="guilsinglleft" unicode="&#x2039;" horiz-adv-x="347" 
d="M172 470h156l-151 -213l94 -206h-153l-98 206z" />
    <glyph glyph-name="guilsinglright" unicode="&#x203a;" horiz-adv-x="347" 
d="M160 51h-156l151 213l-94 206h153l98 -206z" />
    <glyph glyph-name="fraction" unicode="&#x2044;" horiz-adv-x="140" 
d="M-283 -15l639 787h125l-638 -787h-126z" />
    <glyph glyph-name="zero.sup" unicode="&#x2070;" horiz-adv-x="470" 
d="M99 564q0 114 55 190t159 76q88 0 134.5 -49.5t46.5 -124.5q0 -116 -54 -191t-162 -75q-85 0 -132 50.5t-47 123.5zM368 670q0 69 -54 69q-26 0 -45 -20.5t-27.5 -52t-12.5 -59.5t-4 -54q0 -72 52 -72q27 0 46 20t28 52t13 60.5t4 56.5z" />
    <glyph glyph-name="four.sup" unicode="&#x2074;" horiz-adv-x="442" 
d="M391 400h-115l13 78h-218l14 77l218 267h162l-46 -257h56l-15 -87h-56zM202 565h105l32 176h-6q-24 -44 -61 -90z" />
    <glyph glyph-name="five.sup" unicode="&#x2075;" horiz-adv-x="399" 
d="M246 392q-72 0 -117.5 36t-52.5 96l116 8q4 -27 20 -41.5t39 -14.5q58 0 58 60q0 25 -15 40t-39 15q-27 0 -49 -18l-100 38l66 211h278l-16 -100h-195l-22 -73h2q34 23 79 23q54 0 91.5 -34.5t37.5 -94.5q0 -65 -43 -108t-138 -43z" />
    <glyph glyph-name="six.sup" unicode="&#x2076;" horiz-adv-x="436" 
d="M477 720l-115 -19q-11 40 -49 40q-65 0 -85 -106h4q34 36 93 36q53 0 93 -32t40 -93t-48.5 -108t-138.5 -47q-82 0 -127 46t-45 133q0 66 23 124t73.5 97t119.5 39q61 0 105 -30.5t57 -79.5zM275 476q62 0 62 75q0 45 -46 45q-63 0 -63 -76q0 -44 47 -44z" />
    <glyph glyph-name="seven.sup" unicode="&#x2077;" horiz-adv-x="391" 
d="M96 400l205 322h-188l17 100h328l-14 -77l-217 -345h-131z" />
    <glyph glyph-name="eight.sup" unicode="&#x2078;" horiz-adv-x="435" 
d="M306 835q70 0 115.5 -35t45.5 -84q0 -77 -82 -101v-2q67 -22 67 -91q0 -61 -49.5 -97.5t-133.5 -36.5q-81 0 -130 36t-49 93q0 81 95 108v2q-53 29 -53 87q0 51 46.5 86t127.5 35zM303 750q-21 0 -38 -14t-17 -36t13.5 -34t34.5 -12q22 0 38.5 14.5t16.5 37.5
q0 21 -14 32.5t-34 11.5zM269 473q26 0 44 15.5t18 42.5t-16.5 39t-37.5 12q-26 0 -44 -15.5t-18 -42.5q0 -25 17 -38t37 -13z" />
    <glyph glyph-name="nine.sup" unicode="&#x2079;" horiz-adv-x="448" 
d="M284 627q28 0 45.5 19.5t17.5 48.5q0 26 -15 37.5t-35 11.5q-30 0 -46 -20t-16 -47q0 -50 49 -50zM93 498l114 20q15 -38 56 -38q31 0 53.5 25.5t30.5 77.5h-4q-39 -33 -93 -33q-19 0 -40 6t-43.5 20t-37.5 41.5t-15 65.5q0 63 49.5 105t131.5 42q80 0 132 -47.5
t52 -127.5q0 -115 -58.5 -189.5t-167.5 -74.5q-63 0 -105 30t-55 77z" />
    <glyph glyph-name="plus.sup" unicode="&#x207a;" horiz-adv-x="408" 
d="M113 548v94h94v95h108v-95h94v-94h-94v-99h-108v99h-94z" />
    <glyph glyph-name="minus.sup" unicode="&#x207b;" horiz-adv-x="408" 
d="M113 548v95h296v-95h-296z" />
    <glyph glyph-name="zero.sub" unicode="&#x2080;" horiz-adv-x="470" 
d="M22 84q0 114 55 190t159 76q88 0 134.5 -49.5t46.5 -124.5q0 -116 -54 -191t-162 -75q-85 0 -132 50.5t-47 123.5zM291 190q0 69 -54 69q-26 0 -45 -20.5t-27.5 -52t-12.5 -59.5t-4 -54q0 -72 52 -72q27 0 46 20t28 52t13 60.5t4 56.5z" />
    <glyph glyph-name="one.sub" unicode="&#x2081;" horiz-adv-x="327" 
d="M209 -80h-122l48 290l-88 -47l-42 82l175 97h100z" />
    <glyph glyph-name="two.sub" unicode="&#x2082;" horiz-adv-x="416" 
d="M140 192l-110 20q17 63 64 100.5t119 37.5q68 0 112 -35.5t44 -88.5q0 -48 -36 -89.5t-146 -115.5v-3h159l-17 -98h-334l13 78q92 66 135 98t71 57t33 36t5 27q0 20 -12.5 31.5t-33.5 11.5q-48 0 -66 -67z" />
    <glyph glyph-name="three.sub" unicode="&#x2083;" horiz-adv-x="427" 
d="M194 2q27 0 43 14t16 36q0 42 -52 42h-45l15 80h42q26 0 41 12t15 33q0 17 -12 28t-34 11q-52 0 -68 -55l-113 20q14 56 64.5 91.5t124.5 35.5q66 0 110.5 -31t44.5 -82q0 -70 -74 -98v-2q62 -22 62 -89q0 -60 -50.5 -98.5t-135.5 -38.5q-73 0 -123 40t-56 106l119 9
q10 -64 66 -64z" />
    <glyph glyph-name="four.sub" unicode="&#x2084;" horiz-adv-x="442" 
d="M314 -80h-115l13 78h-218l14 77l218 267h162l-46 -257h56l-15 -87h-56zM125 85h105l32 176h-6q-24 -44 -61 -90z" />
    <glyph glyph-name="five.sub" unicode="&#x2085;" horiz-adv-x="399" 
d="M169 -88q-72 0 -117.5 36t-52.5 96l116 8q4 -27 20 -41.5t39 -14.5q58 0 58 60q0 25 -15 40t-39 15q-27 0 -49 -18l-100 38l66 211h278l-16 -100h-195l-22 -73h2q34 23 79 23q54 0 91.5 -34.5t37.5 -94.5q0 -65 -43 -108t-138 -43z" />
    <glyph glyph-name="six.sub" unicode="&#x2086;" horiz-adv-x="436" 
d="M400 240l-115 -19q-11 40 -49 40q-65 0 -85 -106h4q34 36 93 36q53 0 93 -32t40 -93t-48.5 -108t-138.5 -47q-82 0 -127 46t-45 133q0 66 23 124t73.5 97t119.5 39q61 0 105 -30.5t57 -79.5zM198 -4q62 0 62 75q0 45 -46 45q-63 0 -63 -76q0 -44 47 -44z" />
    <glyph glyph-name="seven.sub" unicode="&#x2087;" horiz-adv-x="391" 
d="M19 -80l205 322h-188l17 100h328l-14 -77l-217 -345h-131z" />
    <glyph glyph-name="eight.sub" unicode="&#x2088;" horiz-adv-x="435" 
d="M229 355q70 0 115.5 -35t45.5 -84q0 -77 -82 -101v-2q67 -22 67 -91q0 -61 -49.5 -97.5t-133.5 -36.5q-81 0 -130 36t-49 93q0 81 95 108v2q-53 29 -53 87q0 51 46.5 86t127.5 35zM226 270q-21 0 -38 -14t-17 -36t13.5 -34t34.5 -12q22 0 38.5 14.5t16.5 37.5
q0 21 -14 32.5t-34 11.5zM192 -7q26 0 44 15.5t18 42.5t-16 39t-38 12q-26 0 -44 -15.5t-18 -42.5q0 -25 17 -38t37 -13z" />
    <glyph glyph-name="nine.sub" unicode="&#x2089;" horiz-adv-x="448" 
d="M207 147q28 0 45.5 19.5t17.5 48.5q0 26 -15 37.5t-35 11.5q-30 0 -46 -20t-16 -47q0 -50 49 -50zM16 18l114 20q15 -38 56 -38q31 0 53.5 25.5t30.5 77.5h-4q-38 -33 -93 -33q-19 0 -40 6t-43.5 20t-37.5 41.5t-15 65.5q0 63 49.5 105t131.5 42q80 0 132 -47.5
t52 -127.5q0 -115 -58.5 -189.5t-167.5 -74.5q-63 0 -105 30t-55 77z" />
    <glyph glyph-name="plus.sub" unicode="&#x208a;" horiz-adv-x="408" 
d="M41 69v94h94v95h108v-95h94v-94h-94v-99h-108v99h-94z" />
    <glyph glyph-name="minus.sub" unicode="&#x208b;" horiz-adv-x="408" 
d="M41 69v95h296v-95h-296z" />
    <glyph glyph-name="Euro" unicode="&#x20ac;" horiz-adv-x="731" 
d="M698 194q-88 -211 -309 -211q-121 0 -194.5 65.5t-86.5 188.5h-91l16 102h74q1 33 8 73h-70l16 102h80q41 116 123 185.5t197 69.5q125 0 192.5 -58.5t88.5 -150.5l-176 -34q-11 54 -35.5 79t-66.5 25q-85 0 -132 -116h176l-17 -102h-186q-6 -35 -9 -73h184l-16 -102
h-170q9 -115 105 -115q45 0 73 24t54 77z" />
    <glyph glyph-name="uni20B9" unicode="&#x20b9;" horiz-adv-x="651" 
d="M326 223l143 -223h-205l-115 187h-91l17 114h76q51 0 92.5 29.5t60.5 80.5h-211l18 114h206q-7 56 -40 86t-84 30h-63l18 114h512l-18 -114h-191v-2q46 -43 53 -114h119l-20 -114h-108q-32 -122 -169 -186v-2z" />
    <glyph glyph-name="uni20BA" unicode="&#x20ba;" horiz-adv-x="687" 
d="M285 0h-206l39 244l-91 -29l17 108l91 29l12 77l-91 -29l17 108l91 29l35 218h186l-25 -156l154 49l-17 -108l-154 -49l-12 -77l154 49l-17 -108l-154 -49l-25 -154h4q79 0 124.5 33.5t75.5 113.5l165 -29q-92 -270 -373 -270z" />
    <glyph glyph-name="trademark" unicode="&#x2122;" horiz-adv-x="632" 
d="M110 456l38 235h-79l10 64h230l-10 -64h-78l-37 -235h-74zM287 456l48 299h99l23 -127l8 -60h3q4 16 26 59l64 128h99l-48 -299h-69l33 211h-3q-7 -27 -28 -71l-67 -140h-55l-24 141l-7 70h-3l-33 -211h-66z" />
    <glyph glyph-name="onethird" unicode="&#x2153;" horiz-adv-x="984" 
d="M275 333h-122l48 290l-88 -47l-42 82l175 97h100zM109 -15l639 787h125l-638 -787h-126zM764 82q27 0 43 14t16 36q0 42 -52 42h-45l15 80h42q26 0 41 12t15 33q0 17 -12 28t-34 11q-52 0 -68 -55l-113 20q14 56 64.5 91.5t124.5 35.5q66 0 110.5 -31t44.5 -82
q0 -70 -74 -98v-2q62 -22 62 -89q0 -60 -50.5 -98.5t-135.5 -38.5q-73 0 -123 40t-56 106l119 9q10 -64 66 -64z" />
    <glyph glyph-name="twothirds" unicode="&#x2154;" horiz-adv-x="1093" 
d="M206 605l-110 20q17 63 64 100.5t119 37.5q68 0 112 -35.5t44 -88.5q0 -48 -36 -89.5t-146 -115.5v-3h159l-17 -98h-334l13 78q92 66 135 98t71 57t33 36t5 27q0 20 -12.5 31.5t-33.5 11.5q-48 0 -66 -67zM218 -15l639 787h125l-638 -787h-126zM873 82q27 0 43 14t16 36
q0 42 -52 42h-45l15 80h42q26 0 41 12t15 33q0 17 -12 28t-34 11q-52 0 -68 -55l-113 20q14 56 64.5 91.5t124.5 35.5q66 0 110.5 -31t44.5 -82q0 -70 -74 -98v-2q62 -22 62 -89q0 -60 -50.5 -98.5t-135.5 -38.5q-73 0 -123 40t-56 106l119 9q10 -64 66 -64z" />
    <glyph glyph-name="oneeighth" unicode="&#x215b;" horiz-adv-x="967" 
d="M275 333h-122l48 290l-88 -47l-42 82l175 97h100zM109 -15l639 787h125l-638 -787h-126zM774 435q70 0 115.5 -35t45.5 -84q0 -77 -82 -101v-2q67 -22 67 -91q0 -61 -49.5 -97.5t-133.5 -36.5q-81 0 -130 36t-49 93q0 81 95 108v2q-53 29 -53 87q0 51 46.5 86t127.5 35z
M771 350q-21 0 -38 -14t-17 -36t13.5 -34t34.5 -12q22 0 38.5 14.5t16.5 37.5q0 21 -14 32.5t-34 11.5zM737 73q26 0 44 15.5t18 42.5t-16.5 39t-37.5 12q-26 0 -44 -15.5t-18 -42.5q0 -25 17 -38t37 -13z" />
    <glyph glyph-name="threeeighths" unicode="&#x215c;" horiz-adv-x="1047" 
d="M260 415q27 0 43 14t16 36q0 42 -52 42h-45l15 80h42q26 0 41 12t15 33q0 17 -12 28t-34 11q-52 0 -68 -55l-113 20q14 56 64.5 91.5t124.5 35.5q66 0 110.5 -31t44.5 -82q0 -70 -74 -98v-2q62 -22 62 -89q0 -60 -50.5 -98.5t-135.5 -38.5q-73 0 -123 40t-56 106l119 9
q10 -64 66 -64zM189 -15l639 787h125l-638 -787h-126zM854 435q70 0 115.5 -35t45.5 -84q0 -77 -82 -101v-2q67 -22 67 -91q0 -61 -49.5 -97.5t-133.5 -36.5q-81 0 -130 36t-49 93q0 81 95 108v2q-53 29 -53 87q0 51 46.5 86t127.5 35zM851 350q-21 0 -38 -14t-17 -36
t13.5 -34t34.5 -12q22 0 38.5 14.5t16.5 37.5q0 21 -14 32.5t-34 11.5zM817 73q26 0 44 15.5t18 42.5t-16.5 39t-37.5 12q-26 0 -44 -15.5t-18 -42.5q0 -25 17 -38t37 -13z" />
    <glyph glyph-name="fiveeighths" unicode="&#x215d;" horiz-adv-x="1024" 
d="M235 325q-72 0 -117.5 36t-52.5 96l116 8q4 -27 20 -41.5t39 -14.5q58 0 58 60q0 25 -15 40t-39 15q-27 0 -49 -18l-100 38l66 211h278l-16 -100h-195l-22 -73h2q34 23 79 23q54 0 91.5 -34.5t37.5 -94.5q0 -65 -43 -108t-138 -43zM166 -15l639 787h125l-638 -787h-126z
M831 435q70 0 115.5 -35t45.5 -84q0 -77 -82 -101v-2q67 -22 67 -91q0 -61 -49.5 -97.5t-133.5 -36.5q-81 0 -130 36t-49 93q0 81 95 108v2q-53 29 -53 87q0 51 46.5 86t127.5 35zM828 350q-21 0 -38 -14t-17 -36t13.5 -34t34.5 -12q22 0 38.5 14.5t16.5 37.5q0 21 -14 32.5
t-34 11.5zM794 73q26 0 44 15.5t18 42.5t-16 39t-38 12q-26 0 -44 -15.5t-18 -42.5q0 -25 17 -38t37 -13z" />
    <glyph glyph-name="seveneighths" unicode="&#x215e;" horiz-adv-x="931" 
d="M85 333l205 322h-188l17 100h328l-14 -77l-217 -345h-131zM73 -15l639 787h125l-638 -787h-126zM738 435q70 0 115.5 -35t45.5 -84q0 -77 -82 -101v-2q67 -22 67 -91q0 -61 -49.5 -97.5t-133.5 -36.5q-81 0 -130 36t-49 93q0 81 95 108v2q-53 29 -53 87q0 51 46.5 86
t127.5 35zM735 350q-21 0 -38 -14t-17 -36t13.5 -34t34.5 -12q22 0 38.5 14.5t16.5 37.5q0 21 -14 32.5t-34 11.5zM701 73q26 0 44 15.5t18 42.5t-16.5 39t-37.5 12q-26 0 -44 -15.5t-18 -42.5q0 -25 17 -38t37 -13z" />
    <glyph glyph-name="uni2190" unicode="&#x2190;" horiz-adv-x="950" 
d="M405 21l-335 335v4l335 335l99 -99l-169 -163h530v-150h-530l169 -163z" />
    <glyph glyph-name="arrowup" unicode="&#x2191;" horiz-adv-x="950" 
d="M155 460l335 335h4l335 -335l-99 -99l-163 169v-530h-150v530l-163 -169z" />
    <glyph glyph-name="uni2192" unicode="&#x2192;" horiz-adv-x="950" 
d="M895 356l-335 -335l-99 99l169 163h-530v150h530l-169 163l99 99l335 -335v-4z" />
    <glyph glyph-name="arrowdown" unicode="&#x2193;" horiz-adv-x="950" 
d="M474 -17l-335 335l99 99l163 -169v530h150v-530l163 169l99 -99l-335 -335h-4z" />
    <glyph glyph-name="uni2196" unicode="&#x2196;" horiz-adv-x="950" 
d="M202 190v474l3 3h474v-140l-235 4l375 -374l-106 -107l-375 375l4 -235h-140z" />
    <glyph glyph-name="uni2197" unicode="&#x2197;" horiz-adv-x="950" 
d="M292 667h474l3 -3v-474h-140l4 235l-374 -375l-107 106l375 375l-235 -4v140z" />
    <glyph glyph-name="uni2198" unicode="&#x2198;" horiz-adv-x="950" 
d="M753 525v-474l-3 -3h-474v140l235 -4l-375 374l106 107l375 -375l-4 235h140z" />
    <glyph glyph-name="uni2199" unicode="&#x2199;" horiz-adv-x="950" 
d="M680 48h-474l-3 3v474h140l-4 -235l374 375l107 -106l-375 -375l235 4v-140z" />
    <glyph glyph-name="minus" unicode="&#x2212;" horiz-adv-x="600" 
d="M73 258v138h470v-138h-470z" />
    <glyph glyph-name="infinity" unicode="&#x221e;" horiz-adv-x="867" 
d="M266 213q36 0 61.5 23.5t51.5 73.5q-32 69 -55 95t-58 26q-38 0 -61.5 -30.5t-23.5 -81.5q0 -45 22.5 -75.5t62.5 -30.5zM609 220q40 0 62.5 31.5t22.5 79.5q0 46 -21 76.5t-63 30.5q-37 0 -63.5 -23.5t-50.5 -70.5q31 -70 55.5 -97t57.5 -27zM610 107q-71 0 -115.5 26.5
t-75.5 87.5h-2q-56 -114 -179 -114q-97 0 -145.5 57t-48.5 150q0 100 57 165t164 65q70 0 114.5 -27.5t76.5 -86.5h2q54 114 179 114q96 0 145 -58t49 -150q0 -96 -60.5 -162.5t-160.5 -66.5z" />
    <glyph glyph-name="approxequal" unicode="&#x2248;" horiz-adv-x="600" 
d="M72 347q0 78 38.5 120.5t111.5 42.5q41 0 98 -24.5t81 -24.5q52 0 58 51h88q0 -77 -39.5 -120t-105.5 -43q-42 0 -99.5 25t-86.5 25q-47 0 -54 -52h-90zM72 137q0 78 38.5 120.5t111.5 42.5q41 0 98.5 -24t80.5 -24q52 0 58 50h88q0 -77 -39.5 -120t-105.5 -43
q-42 0 -99.5 25t-86.5 25q-47 0 -54 -52h-90z" />
    <glyph glyph-name="notequal" unicode="&#x2260;" horiz-adv-x="600" 
d="M543 160h-276l-48 -91h-93l48 91h-101v119h164l50 95h-214v119h277l46 88h93l-46 -88h100v-119h-163l-50 -95h213v-119z" />
    <glyph glyph-name="lessequal" unicode="&#x2264;" horiz-adv-x="600" 
d="M544 143l-470 166v111l470 165v-133l-293 -86l293 -91v-132zM74 0v114h470v-114h-470z" />
    <glyph glyph-name="greaterequal" unicode="&#x2265;" horiz-adv-x="600" 
d="M76 585l470 -166v-111l-470 -165v133l293 86l-293 91v132zM76 0v114h470v-114h-470z" />
    <glyph glyph-name="uni24C5" unicode="&#x24c5;" horiz-adv-x="875" 
d="M45 377q6 170 123.5 281.5t282.5 111.5q167 0 276 -111.5t103 -281.5t-124 -281t-283 -111q-167 0 -275.5 111t-102.5 281zM114 377q-5 -145 84.5 -237.5t226.5 -92.5q138 0 234.5 92.5t101.5 237.5t-85 238t-227 93q-138 0 -234 -93t-101 -238zM248 156l72 454h156
q87 0 132.5 -39.5t45.5 -107.5q0 -81 -53 -124.5t-146 -43.5h-61l-22 -139h-124zM469 515h-41l-19 -125h52q70 0 70 69q0 56 -62 56z" />
    <glyph glyph-name="uni2713" unicode="&#x2713;" horiz-adv-x="1000" 
d="M382 -14l-322 310l123 123l204 -199l464 501l119 -115l-566 -620h-22z" />
    <glyph glyph-name="uni2717" unicode="&#x2717;" horiz-adv-x="1000" 
d="M752 -14l-244 246l-243 -245l-115 115l243 245l-246 249l119 119l246 -248l244 246l115 -115l-244 -246l245 -247z" />
    <glyph glyph-name="apple" unicode="&#xf8ff;" horiz-adv-x="1241" 
d="M390 318v11h10v18h-10v41h11v-40h19v40h11v-41h-10v-9h-10v-10h-10v-10h-11zM350 338v9h-10v30h-10v11h10v10h11v-10h20v-11h-20v-29h20v-10h-21zM590 338v9h-10v30h-10v11h10v10h11v-10h20v-11h-20v-29h20v-10h-21zM700 338v9h-10v31h10v10h21v-10h10v-21h-30v-9h30v-10
h-31zM880 338v9h-10v31h10v10h21v-10h10v-21h-30v-9h30v-10h-31zM110 347v10h-10v11h10v10h11v-10h10v-11h-10v-10h-11zM180 347v10h-10v11h10v10h11v-10h10v-11h-10v-10h-11zM270 347v10h-10v11h10v10h11v-10h10v-11h-10v-10h-11zM520 338v9h-10v31h10v10h21v-10h10v-31
h-10v-9h-21zM630 338v70h11v-20h20v-10h10v-40h-11v39h-19v-39h-11zM960 347v10h-10v11h10v10h11v-10h10v-11h-10v-10h-11zM1050 347v10h-10v11h10v10h11v-10h10v-11h-10v-10h-11zM1120 347v10h-10v11h10v10h11v-10h10v-11h-10v-10h-11zM450 318v70h31v-10h10v-31h-10v-9
h-20v-20h-11zM780 318v20h-20v9h-10v31h10v10h31v-70h-11zM820 338v9h-10v41h11v-40h19v40h11v-50h-31zM240 328v10h10v10h11v-10h-10v-10h-11zM250 377v10h-10v11h11v-10h10v-11h-11zM300 328v10h-10v10h11v-10h10v-10h-11zM290 377v11h10v10h11v-11h-10v-10h-11zM930 328
v10h10v10h11v-10h-10v-10h-11zM940 377v10h-10v11h11v-10h10v-11h-11zM990 328v10h-10v10h11v-10h10v-10h-11zM980 377v11h10v10h11v-11h-10v-10h-11zM160 338v10h11v-10h-11zM160 377v11h11v-11h-11zM200 338v10h11v-10h-11zM200 377v11h11v-11h-11zM461 348h19v29h-19v-29
zM521 348h19v29h-19v-29zM701 368h19v9h-19v-9zM761 348h19v29h-19v-29zM881 368h19v9h-19v-9zM1030 338v10h11v-10h-11zM1030 377v11h11v-11h-11zM1070 338v10h11v-10h-11zM1070 377v11h11v-11h-11z" />
    <glyph glyph-name="fi" unicode="&#xfb01;" horiz-adv-x="719" 
d="M43 422l19 123h77l5 33q15 101 77 155t170 54q20 0 40.5 -2.5t30.5 -4.5l11 -2l-33 -141q-20 5 -39 5q-32 0 -49.5 -17t-24.5 -56l-4 -24h105l-20 -123h-105l-67 -422h-184l67 422h-76zM524 622l25 156h184l-25 -156h-184zM427 0l85 545h184l-86 -545h-183z" />
    <glyph glyph-name="fl" unicode="&#xfb02;" horiz-adv-x="719" 
d="M43 422l19 123h77l5 33q15 101 77 155t170 54q20 0 40.5 -2.5t30.5 -4.5l11 -2l-33 -141q-20 5 -39 5q-32 0 -49.5 -17t-24.5 -56l-4 -24h105l-20 -123h-105l-67 -422h-184l67 422h-76zM426 0l123 778h184l-123 -778h-184z" />
    <glyph glyph-name="idotaccent" horiz-adv-x="313" 
d="M119 622l25 156h184l-25 -156h-184zM22 0l85 545h184l-86 -545h-183z" />
    <glyph glyph-name="germandbls.alt" horiz-adv-x="653" 
d="M259 4l32 126q20 -2 31 -2q61 0 91 35.5t30 87.5q0 45 -27.5 71.5t-70.5 26.5h-22l20 126h20q43 0 71 33t28 75q0 34 -20.5 54.5t-53.5 20.5q-37 0 -63 -26t-33 -75l-89 -557h-184l86 542q17 108 88 178t209 70q98 0 165.5 -52t67.5 -134q0 -141 -140 -188l-1 -3
q54 -18 88 -61.5t34 -112.5q0 -102 -73.5 -173.5t-185.5 -71.5q-55 0 -98 10z" />
    <glyph glyph-name="a.alt" horiz-adv-x="665" 
d="M303 119q54 0 88 58.5t34 140.5q0 55 -22 83t-61 28q-59 0 -92 -58.5t-33 -142.5q0 -109 86 -109zM234 -11q-90 0 -147.5 61t-57.5 168q0 150 75.5 244.5t199.5 94.5q101 0 146 -69l9 57h183l-86 -545h-169l10 66q-58 -77 -163 -77z" />
    <glyph glyph-name="t.alt" horiz-adv-x="419" 
d="M322 423l-67 -423h-182l67 423h-98l19 122h98l23 146h182l-23 -146h99l-19 -122h-99z" />
    <glyph glyph-name="l.alt" horiz-adv-x="376" 
d="M325 778l-91 -572q-7 -46 6 -63t52 -17l38 3l-10 -127q-66 -14 -117 -14q-188 0 -155 210l93 580h184z" />
    <glyph glyph-name="aacute.alt" horiz-adv-x="665" 
d="M303 119q54 0 88 58.5t34 140.5q0 55 -22 83t-61 28q-59 0 -92 -58.5t-33 -142.5q0 -109 86 -109zM234 -11q-90 0 -147.5 61t-57.5 168q0 150 75.5 244.5t199.5 94.5q101 0 146 -69l9 57h183l-86 -545h-169l10 66q-58 -77 -163 -77zM298 611l112 167h190l-164 -167h-138z
" />
    <glyph glyph-name="abreve.alt" horiz-adv-x="665" 
d="M303 119q54 0 88 58.5t34 140.5q0 55 -22 83t-61 28q-59 0 -92 -58.5t-33 -142.5q0 -109 86 -109zM234 -11q-90 0 -147.5 61t-57.5 168q0 150 75.5 244.5t199.5 94.5q101 0 146 -69l9 57h183l-86 -545h-169l10 66q-58 -77 -163 -77zM382 608q-77 0 -125 43t-44 127h102
q0 -29 20 -46.5t54 -17.5q35 0 61.5 17.5t36.5 46.5h98q-18 -80 -73.5 -125t-129.5 -45z" />
    <glyph glyph-name="acircumflex.alt" horiz-adv-x="665" 
d="M303 119q54 0 88 58.5t34 140.5q0 55 -22 83t-61 28q-59 0 -92 -58.5t-33 -142.5q0 -109 86 -109zM234 -11q-90 0 -147.5 61t-57.5 168q0 150 75.5 244.5t199.5 94.5q101 0 146 -69l9 57h183l-86 -545h-169l10 66q-58 -77 -163 -77zM208 608l19 119l174 65l155 -65
l-19 -121l-155 63z" />
    <glyph glyph-name="adieresis.alt" horiz-adv-x="665" 
d="M303 119q54 0 88 58.5t34 140.5q0 55 -22 83t-61 28q-59 0 -92 -58.5t-33 -142.5q0 -109 86 -109zM234 -11q-90 0 -147.5 61t-57.5 168q0 150 75.5 244.5t199.5 94.5q101 0 146 -69l9 57h183l-86 -545h-169l10 66q-58 -77 -163 -77zM415 623l24 155h160l-25 -155h-159z
M180 623l25 155h159l-24 -155h-160z" />
    <glyph glyph-name="agrave.alt" horiz-adv-x="665" 
d="M303 119q54 0 88 58.5t34 140.5q0 55 -22 83t-61 28q-59 0 -92 -58.5t-33 -142.5q0 -109 86 -109zM234 -11q-90 0 -147.5 61t-57.5 168q0 150 75.5 244.5t199.5 94.5q101 0 146 -69l9 57h183l-86 -545h-169l10 66q-58 -77 -163 -77zM374 778l70 -167h-137l-113 167h180z
" />
    <glyph glyph-name="amacron.alt" horiz-adv-x="665" 
d="M303 119q54 0 88 58.5t34 140.5q0 55 -22 83t-61 28q-59 0 -92 -58.5t-33 -142.5q0 -109 86 -109zM234 -11q-90 0 -147.5 61t-57.5 168q0 150 75.5 244.5t199.5 94.5q101 0 146 -69l9 57h183l-86 -545h-169l10 66q-58 -77 -163 -77zM197 623l19 117h359l-19 -117h-359z
" />
    <glyph glyph-name="aogonek.alt" horiz-adv-x="665" 
d="M303 119q54 0 88 58.5t34 140.5q0 55 -22 83t-61 28q-59 0 -92 -58.5t-33 -142.5q0 -109 86 -109zM455 0h-68l10 66q-58 -77 -163 -77q-90 0 -147.5 61t-57.5 168q0 150 75.5 244.5t199.5 94.5q101 0 146 -69l9 57h183l-86 -545q-93 -58 -93 -102q0 -41 44 -41l26 2
l-14 -87q-25 -4 -56 -4q-66 0 -99 24t-33 66t27.5 75.5t96.5 66.5z" />
    <glyph glyph-name="aring.alt" horiz-adv-x="665" 
d="M303 119q54 0 88 58.5t34 140.5q0 55 -22 83t-61 28q-59 0 -92 -58.5t-33 -142.5q0 -109 86 -109zM234 -11q-90 0 -147.5 61t-57.5 168q0 150 75.5 244.5t199.5 94.5q101 0 146 -69l9 57h183l-86 -545h-169l10 66q-58 -77 -163 -77zM260 726q0 52 40 89.5t95 37.5
q56 0 93.5 -35.5t37.5 -89.5q0 -52 -40 -89.5t-95 -37.5q-57 0 -94 35t-37 90zM335 726q0 -26 16.5 -43.5t40.5 -17.5q23 0 40 18.5t17 44.5q0 25 -16 42t-39 17q-24 0 -41.5 -18t-17.5 -43z" />
    <glyph glyph-name="atilde.alt" horiz-adv-x="665" 
d="M303 119q54 0 88 58.5t34 140.5q0 55 -22 83t-61 28q-59 0 -92 -58.5t-33 -142.5q0 -109 86 -109zM234 -11q-90 0 -147.5 61t-57.5 168q0 150 75.5 244.5t199.5 94.5q101 0 146 -69l9 57h183l-86 -545h-169l10 66q-58 -77 -163 -77zM275 615h-94q10 76 48 117t96 41
q31 0 80 -21t70 -21q37 0 42 41h98q-10 -78 -47 -118t-92 -40q-32 0 -85.5 22t-69.5 22q-39 0 -46 -43z" />
    <glyph glyph-name="lacute.alt" horiz-adv-x="375" 
d="M324 778l-91 -572q-7 -46 6 -63t52 -17l38 3l-10 -127q-66 -14 -117 -14q-188 0 -155 210l93 580h184zM157 805l101 142h187l-147 -142h-141z" />
    <glyph glyph-name="lcaron.alt" horiz-adv-x="376" 
d="M325 778l-91 -572q-7 -46 6 -63t52 -17l38 3l-10 -127q-66 -14 -117 -14q-188 0 -155 210l93 580h184zM334 570l56 208h155l-116 -208h-95z" />
    <glyph glyph-name="lcommaaccent.alt" horiz-adv-x="376" 
d="M325 778l-91 -572q-7 -46 6 -63t52 -17l38 3l-10 -127q-66 -14 -117 -14q-188 0 -155 210l93 580h184zM70 -245l-1 55q70 6 89 41h-83l16 101h169l-11 -66q-20 -122 -179 -131z" />
    <glyph glyph-name="tcaron.alt" horiz-adv-x="419" 
d="M422 570l56 208h155l-116 -208h-95zM322 423l-67 -423h-182l67 423h-98l19 122h98l23 146h182l-23 -146h99l-19 -122h-99z" />
    <glyph glyph-name="tcommaaccent.alt" horiz-adv-x="419" 
d="M322 423l-67 -423h-182l67 423h-98l19 122h98l23 146h182l-23 -146h99l-19 -122h-99zM50 -245l-1 55q70 6 89 41h-83l16 101h169l-11 -66q-20 -122 -179 -131z" />
    <glyph glyph-name="tbar.alt" horiz-adv-x="419" 
d="M398 250h-103l-40 -250h-182l40 250h-98l17 108h98l10 65h-98l19 122h98l23 146h182l-23 -146h99l-19 -122h-99l-10 -65h103z" />
    <glyph glyph-name="ldot.alt" horiz-adv-x="496" 
d="M319 308l28 175h184l-28 -175h-184zM325 778l-91 -572q-7 -46 6 -63t52 -17l38 3l-10 -127q-66 -14 -117 -14q-188 0 -155 210l93 580h184z" />
    <glyph glyph-name="ae.alt" horiz-adv-x="997" 
d="M679 -15q-116 0 -170 64l-8 -49h-124l8 52q-49 -63 -160 -63q-84 0 -140 61.5t-56 167.5q0 149 74.5 244t191.5 95q107 0 147 -51l7 39h138l-6 -37q61 51 140 51q134 0 200 -91.5t41 -244.5h-380q-2 -46 24 -76.5t76 -30.5q72 0 109 62l153 -43q-26 -62 -95 -106
t-170 -44zM704 435q-43 0 -72 -28t-38 -76h195q3 104 -85 104zM303 119q54 0 88 58.5t34 140.5q0 55 -22 83t-61 28q-59 0 -92 -58.5t-33 -142.5q0 -109 86 -109z" />
    <glyph glyph-name="aeacute.alt" horiz-adv-x="997" 
d="M679 -15q-116 0 -170 64l-8 -49h-124l8 52q-49 -63 -160 -63q-84 0 -140 61.5t-56 167.5q0 149 74.5 244t191.5 95q107 0 147 -51l7 39h138l-6 -37q61 51 140 51q134 0 200 -91.5t41 -244.5h-380q-2 -46 24 -76.5t76 -30.5q72 0 109 62l153 -43q-26 -62 -95 -106
t-170 -44zM704 435q-43 0 -72 -28t-38 -76h195q3 104 -85 104zM303 119q54 0 88 58.5t34 140.5q0 55 -22 83t-61 28q-59 0 -92 -58.5t-33 -142.5q0 -109 86 -109zM458 611l112 167h190l-164 -167h-138z" />
    <glyph glyph-name="f_l.alt" horiz-adv-x="781" 
d="M43 422l19 123h77l5 33q15 101 77 155t170 54q20 0 40.5 -2.5t30.5 -4.5l11 -2l-33 -141q-20 5 -39 5q-32 0 -49.5 -17t-24.5 -56l-4 -24h105l-20 -123h-105l-67 -422h-184l67 422h-76zM730 778l-91 -572q-7 -46 6 -63t52 -17l38 3l-10 -127q-66 -14 -117 -14
q-188 0 -155 210l93 580h184z" />
    <glyph glyph-name="lslash.alt" horiz-adv-x="376" 
d="M203 -12q-188 0 -155 210l17 103l-83 -34l21 132l83 34l55 345h184l-41 -263l89 37l-20 -131l-90 -37l-29 -178q-7 -46 6 -63t52 -17l38 3l-10 -127q-66 -14 -117 -14z" />
    <glyph glyph-name="comma.tab" horiz-adv-x="310" 
d="M9 -188l-26 67q60 21 90 47t39 74h-79l28 175h184l-22 -138q-27 -174 -214 -225z" />
    <glyph glyph-name="period.tab" horiz-adv-x="310" 
d="M33 0l28 175h184l-27 -175h-185z" />
    <glyph glyph-name="colon.tab" horiz-adv-x="310" 
d="M80 370l28 175h184l-28 -175h-184zM21 0l28 175h184l-27 -175h-185z" />
    <glyph glyph-name="semicolon.tab" horiz-adv-x="310" 
d="M77 370l28 175h184l-28 -175h-184zM-6 -188l-26 67q60 21 90 47t39 74h-79l28 175h184l-21 -135q-14 -90 -66.5 -146t-148.5 -82z" />
    <glyph glyph-name="questiondown.uc" horiz-adv-x="616" 
d="M425 496l-11 -71q-6 -42 -26 -63.5t-94 -60.5q-65 -35 -85 -56t-20 -56q0 -33 25 -53.5t70 -20.5q49 0 86 29.5t52 78.5l156 -50q-30 -92 -109 -147.5t-201 -55.5q-111 0 -187 59.5t-76 145.5q0 77 33 125t113 89q78 40 91 50t19 35l5 22h159zM476 755l-28 -175h-184
l28 175h184z" />
    <glyph glyph-name="exclamdown.uc" horiz-adv-x="343" 
d="M264 496l-16 -251l-42 -268h-171l43 268l64 251h122zM336 755l-28 -175h-184l28 175h184z" />
    <glyph glyph-name="hyphen.uc" horiz-adv-x="433" 
d="M40 272l23 149h344l-24 -149h-343z" />
    <glyph glyph-name="endash.uc" horiz-adv-x="525" 
d="M26 286l19 120h465l-19 -120h-465z" />
    <glyph glyph-name="emdash.uc" horiz-adv-x="921" 
d="M24 286l19 120h861l-19 -120h-861z" />
    <glyph glyph-name="at.uc" horiz-adv-x="1061" 
d="M852 -48q-68 -50 -147.5 -76.5t-195.5 -26.5q-201 0 -326.5 124t-125.5 322q0 95 35 185.5t98.5 164.5t164.5 119.5t222 45.5q206 0 323 -115.5t117 -286.5q0 -151 -82 -241.5t-201 -90.5q-110 0 -143 85h-4q-54 -73 -144 -73q-73 0 -120.5 50t-47.5 147q0 123 66 212
t176 89q86 0 124 -64h4l12 49h157l-68 -323q-7 -37 3 -57t46 -20q60 0 98 69.5t38 160.5q0 153 -96 245.5t-268 92.5q-181 0 -299.5 -128t-118.5 -308t103 -280.5t270 -100.5q174 0 294 85zM440 280q0 -81 65 -81q38 0 65 36t37 77.5t10 78.5q0 81 -64 81q-39 0 -66 -36
t-37 -77.5t-10 -78.5z" />
    <glyph glyph-name="slash.tab" horiz-adv-x="460" 
d="M-101 -163l502 961h121l-501 -961h-122z" />
    <glyph glyph-name="slash.tabuc" horiz-adv-x="417" 
d="M-103 -118l502 961h121l-501 -961h-122z" />
    <glyph glyph-name="slash.uc" horiz-adv-x="413" 
d="M-101 -118l501 961h121l-501 -961h-121z" />
    <glyph glyph-name="backslash.uc" horiz-adv-x="413" 
d="M171 843l198 -961h-110l-197 961h109z" />
    <glyph glyph-name="bar.uc" horiz-adv-x="263" 
d="M86 -118v961h114v-961h-114z" />
    <glyph glyph-name="parenleft.tab" horiz-adv-x="465" 
d="M355 -163h-103q-122 190 -122 400q0 51 7 99q18 117 70 218.5t86.5 139.5t93.5 93q7 8 11 11h111q-183 -208 -222 -459q-12 -79 -12 -148q0 -172 76 -345q3 -6 4 -9z" />
    <glyph glyph-name="parenleft.tabuc" horiz-adv-x="465" 
d="M355 -118h-103q-122 190 -122 400q0 51 7 99q18 117 70 218.5t86.5 139.5t93.5 93q7 8 11 11h111q-183 -208 -222 -459q-12 -80 -12 -148q0 -172 76 -345q3 -6 4 -9z" />
    <glyph glyph-name="parenleft.uc" horiz-adv-x="362" 
d="M299 -118h-103q-122 190 -122 400q0 51 7 99q18 117 70 218.5t86.5 139.5t93.5 93q7 8 11 11h111q-183 -208 -222 -459q-12 -80 -12 -148q0 -172 76 -345q3 -6 4 -9z" />
    <glyph glyph-name="parenright.tab" horiz-adv-x="465" 
d="M125 798h103q122 -190 122 -400q0 -51 -7 -99q-18 -117 -70 -218.5t-86.5 -139.5t-93.5 -93q-7 -8 -11 -11h-111q183 208 222 459q12 80 12 148q0 172 -76 345q-3 6 -4 9z" />
    <glyph glyph-name="parenright.tabuc" horiz-adv-x="465" 
d="M143 843h103q122 -190 122 -400q0 -51 -7 -99q-18 -117 -70 -218.5t-86.5 -139.5t-93.5 -93q-7 -8 -11 -11h-111q183 208 222 459q12 79 12 148q0 172 -76 345q-3 6 -4 9z" />
    <glyph glyph-name="parenright.uc" horiz-adv-x="362" 
d="M89 843h103q122 -190 122 -400q0 -51 -7 -99q-18 -117 -70 -218.5t-86.5 -139.5t-93.5 -93q-7 -8 -11 -11h-111q183 208 222 459q12 79 12 148q0 172 -76 345q-3 6 -4 9z" />
    <glyph glyph-name="bracketleft.tab" horiz-adv-x="465" 
d="M92 -163l152 961h265l-15 -97h-123l-122 -767h123l-15 -97h-265z" />
    <glyph glyph-name="bracketleft.tabuc" horiz-adv-x="465" 
d="M89 -118l152 961h265l-15 -97h-123l-122 -767h123l-15 -97h-265z" />
    <glyph glyph-name="bracketleft.uc" horiz-adv-x="365" 
d="M31 -118l152 961h265l-15 -97h-123l-122 -767h123l-15 -97h-265z" />
    <glyph glyph-name="bracketright.tab" horiz-adv-x="465" 
d="M412 798l-152 -961h-265l15 97h123l122 767h-123l15 97h265z" />
    <glyph glyph-name="bracketright.tabuc" horiz-adv-x="465" 
d="M401 843l-152 -961h-265l15 97h123l122 767h-123l15 97h265z" />
    <glyph glyph-name="bracketright.uc" horiz-adv-x="365" 
d="M369 843l-152 -961h-265l15 97h123l122 767h-123l15 97h265z" />
    <glyph glyph-name="braceleft.uc" horiz-adv-x="367" 
d="M46 304l18 114h31q73 0 81 92l15 169q15 176 227 166l40 -2l-15 -94l-22 1q-51 2 -70 -16.5t-25 -66.5l-22 -178q-12 -105 -116 -124v-5q97 -25 75 -138l-33 -164q-9 -41 7 -61.5t62 -20.5h22l-15 -94h-32q-221 0 -177 196l32 140q20 86 -53 86h-30z" />
    <glyph glyph-name="braceleft.tab" horiz-adv-x="465" 
d="M112 259l18 114h31q73 0 81 92l15 169q15 176 227 166l40 -2l-15 -94l-22 1q-51 2 -70 -16.5t-25 -66.5l-22 -178q-12 -105 -116 -124v-5q97 -25 75 -138l-33 -164q-9 -41 7 -61.5t62 -20.5h22l-15 -94h-32q-221 0 -177 196l32 140q20 86 -53 86h-30z" />
    <glyph glyph-name="braceleft.tabuc" horiz-adv-x="465" 
d="M89 304l18 114h31q73 0 81 92l15 169q15 176 227 166l40 -2l-15 -94l-22 1q-51 2 -70 -16.5t-25 -66.5l-22 -178q-12 -105 -116 -124v-5q97 -25 75 -138l-33 -164q-9 -41 7 -61.5t62 -20.5h22l-15 -94h-32q-221 0 -177 196l32 140q20 86 -53 86h-30z" />
    <glyph glyph-name="braceright.uc" horiz-adv-x="367" 
d="M338 421l-18 -114h-31q-73 0 -81 -92l-15 -169q-15 -176 -227 -166l-40 2l15 94l22 -1q51 -2 70 16.5t25 66.5l22 178q12 105 116 124v5q-97 25 -75 138l33 164q9 41 -7 61.5t-62 20.5h-22l15 94h32q221 0 177 -196l-32 -140q-20 -86 53 -86h30z" />
    <glyph glyph-name="braceright.tab" horiz-adv-x="465" 
d="M360 375l-18 -114h-31q-73 0 -81 -92l-15 -169q-15 -176 -227 -166l-40 2l15 94l22 -1q51 -2 70 16.5t25 66.5l22 178q12 105 116 124v5q-97 25 -75 138l33 164q9 41 -7 61.5t-62 20.5h-22l15 94h32q221 0 177 -196l-32 -140q-20 -86 53 -86h30z" />
    <glyph glyph-name="braceright.tabuc" horiz-adv-x="465" 
d="M391 421l-18 -114h-31q-73 0 -81 -92l-15 -169q-15 -176 -227 -166l-40 2l15 94l22 -1q51 -2 70 16.5t25 66.5l22 178q12 105 116 124v5q-97 25 -75 138l33 164q9 41 -7 61.5t-62 20.5h-22l15 94h32q221 0 177 -196l-32 -140q-20 -86 53 -86h30z" />
    <glyph glyph-name="degree.old" horiz-adv-x="390" 
d="M65 560q0 66 44 110.5t111 44.5t111 -44.5t44 -110.5t-45 -110t-112 -44q-66 0 -109.5 44t-43.5 110zM138 560q0 -39 22 -63.5t59 -24.5t60 24.5t23 63.5t-23 64t-60 25q-36 0 -58.5 -25t-22.5 -64z" />
    <glyph glyph-name="numbersign.tab" 
d="M353 276l46 144h-114l-46 -144h114zM265 0l57 177h-114l-57 -177h-104l57 177h-96l15 99h112l46 144h-95l16 99h111l50 156h104l-50 -156h114l50 156h104l-50 -156h91l-15 -99h-108l-46 -144h91l-16 -99h-106l-57 -177h-104z" />
    <glyph glyph-name="percent.old" horiz-adv-x="767" 
d="M205 358q-67 0 -106.5 38t-39.5 105q0 94 46 155.5t120 61.5q67 0 107 -38t40 -105q0 -94 -46.5 -155.5t-120.5 -61.5zM47 0l568 702h112l-568 -702h-112zM202 436q32 0 49 46.5t17 99.5q0 58 -40 58q-32 0 -49 -46t-17 -100q0 -58 40 -58zM550 -14q-67 0 -106.5 38
t-39.5 105q0 94 46 155.5t120 61.5q67 0 107 -38t40 -105q0 -94 -46.5 -155.5t-120.5 -61.5zM547 64q32 0 49 46.5t17 99.5q0 58 -40 58q-32 0 -49 -46t-17 -100q0 -58 40 -58z" />
    <glyph glyph-name="percent.tab" horiz-adv-x="775" 
d="M222 395q-67 0 -109.5 37.5t-42.5 114.5q0 92 48.5 158t129.5 66q64 0 105.5 -36t41.5 -112q0 -95 -46 -161.5t-127 -66.5zM148 0h-117l614 755h116zM221 479q28 0 44 47.5t16 104.5q0 56 -36 56q-29 0 -45.5 -47t-16.5 -102q0 -31 9 -45t29 -14zM555 -14
q-67 0 -109.5 37.5t-42.5 114.5q0 92 48.5 158t129.5 66q64 0 105.5 -36t41.5 -112q0 -95 -46 -161.5t-127 -66.5zM554 70q28 0 44 47.5t16 104.5q0 56 -36 56q-29 0 -45.5 -47t-16.5 -102q0 -31 9 -45t29 -14z" />
    <glyph glyph-name="percent.tabold" horiz-adv-x="775" 
d="M209 358q-61 0 -101 34.5t-40 107.5q0 34 8 68.5t26 70t53 57.5t83 22q61 0 101 -34.5t40 -107.5q0 -34 -8 -69t-26 -70t-53.5 -57t-82.5 -22zM56 0l568 702h112l-568 -702h-112zM211 436q28 0 45 48t17 103q0 53 -37 53q-29 0 -45.5 -48.5t-16.5 -102.5q0 -30 9 -41.5
t28 -11.5zM554 -14q-61 0 -101 34.5t-40 107.5q0 34 8 68.5t26 70t53 57.5t83 22q61 0 101 -34.5t40 -107.5q0 -34 -8 -69t-26 -70t-53.5 -57t-82.5 -22zM556 64q28 0 45 48t17 103q0 53 -37 53q-29 0 -45.5 -48.5t-16.5 -102.5q0 -30 9 -41.5t28 -11.5z" />
    <glyph glyph-name="perthousand.old" horiz-adv-x="1117" 
d="M205 358q-67 0 -106.5 38t-39.5 105q0 94 46 155.5t120 61.5q67 0 107 -38t40 -105q0 -94 -46.5 -155.5t-120.5 -61.5zM47 0l568 702h112l-568 -702h-112zM202 436q32 0 49 46.5t17 99.5q0 58 -40 58q-32 0 -49 -46t-17 -100q0 -58 40 -58zM910 -14q-67 0 -106.5 38
t-39.5 105q0 94 46 155.5t120 61.5q67 0 107 -38t40 -105q0 -94 -46.5 -155.5t-120.5 -61.5zM550 -14q-67 0 -106.5 38t-39.5 105q0 94 46 155.5t120 61.5q67 0 107 -38t40 -105q0 -94 -46.5 -155.5t-120.5 -61.5zM907 64q32 0 49 46.5t17 99.5q0 58 -40 58q-32 0 -49 -46
t-17 -100q0 -58 40 -58zM547 64q32 0 49 46.5t17 99.5q0 58 -40 58q-32 0 -49 -46t-17 -100q0 -58 40 -58z" />
    <glyph glyph-name="perthousand.tab" horiz-adv-x="1240" 
d="M242 395q-67 0 -109.5 37.5t-42.5 114.5q0 92 48.5 158t129.5 66q64 0 105.5 -36t41.5 -112q0 -95 -46 -161.5t-127 -66.5zM191 0h-117l614 755h116zM241 479q28 0 44 47.5t16 104.5q0 56 -36 56q-29 0 -45.5 -47t-16.5 -102q0 -31 9 -45t29 -14zM611 -14
q-67 0 -109.5 37.5t-42.5 114.5q0 92 48.5 158t129.5 66q64 0 105.5 -36t41.5 -112q0 -95 -46 -161.5t-127 -66.5zM997 -14q-67 0 -109.5 37.5t-42.5 114.5q0 92 48.5 158t129.5 66q64 0 105.5 -36t41.5 -112q0 -95 -46 -161.5t-127 -66.5zM610 70q28 0 44 47.5t16 104.5
q0 56 -36 56q-29 0 -45.5 -47t-16.5 -102q0 -31 9 -45t29 -14zM996 70q28 0 44 47.5t16 104.5q0 56 -36 56q-29 0 -45.5 -47t-16.5 -102q0 -31 9 -45t29 -14z" />
    <glyph glyph-name="perthousand.tabold" horiz-adv-x="1123" 
d="M209 358q-61 0 -101 34.5t-40 107.5q0 34 8 68.5t26 70t53 57.5t83 22q61 0 101 -34.5t40 -107.5q0 -34 -8 -69t-26 -70t-53.5 -57t-82.5 -22zM56 0l568 702h112l-568 -702h-112zM211 436q28 0 45 48t17 103q0 53 -37 53q-29 0 -45.5 -48.5t-16.5 -102.5q0 -30 9 -41.5
t28 -11.5zM908 -14q-61 0 -101 34.5t-40 107.5q0 34 8 68.5t26 70t53 57.5t83 22q61 0 101 -34.5t40 -107.5q0 -34 -8 -69t-26 -70t-53.5 -57t-82.5 -22zM554 -14q-61 0 -101 34.5t-40 107.5q0 34 8 68.5t26 70t53 57.5t83 22q61 0 101 -34.5t40 -107.5q0 -34 -8 -69
t-26 -70t-53.5 -57t-82.5 -22zM910 64q28 0 45 48t17 103q0 53 -37 53q-29 0 -45.5 -48.5t-16.5 -102.5q0 -30 9 -41.5t28 -11.5zM556 64q28 0 45 48t17 103q0 53 -37 53q-29 0 -45.5 -48.5t-16.5 -102.5q0 -30 9 -41.5t28 -11.5z" />
    <glyph glyph-name="ordfeminine.old" horiz-adv-x="469" 
d="M242 381q59 0 77 90q-17 2 -40 2q-82 0 -82 -49q0 -43 45 -43zM176 290q-56 0 -88 32.5t-32 79.5q0 142 218 142l52 -1l3 16q4 27 -9.5 42t-40.5 15q-48 0 -64 -47l-121 27q18 49 66.5 84t129.5 35q98 0 141.5 -50.5t27.5 -149.5l-18 -115l-14 -101h-129l4 47
q-49 -56 -126 -56z" />
    <glyph glyph-name="ordmasculine.old" horiz-adv-x="505" 
d="M274 289q-92 0 -147 47.5t-55 135.5q0 101 63 172t168 71q92 0 147 -49t55 -137q0 -100 -63.5 -170t-167.5 -70zM275 391q44 0 69 41.5t25 101.5q0 79 -67 79q-44 0 -69 -41.5t-25 -101.5q0 -79 67 -79z" />
    <glyph glyph-name="guilsinglright.uc" horiz-adv-x="347" 
d="M167 96h-156l151 213l-94 206h153l98 -206z" />
    <glyph glyph-name="guilsinglleft.uc" horiz-adv-x="347" 
d="M187 515h156l-151 -213l94 -206h-153l-98 206z" />
    <glyph glyph-name="guillemotleft.uc" horiz-adv-x="580" 
d="M420 515h156l-151 -213l94 -206h-153l-98 206zM187 515h156l-151 -213l94 -206h-153l-98 206z" />
    <glyph glyph-name="guillemotright.uc" horiz-adv-x="580" 
d="M400 96h-156l151 213l-94 206h153l98 -206zM167 96h-156l151 213l-94 206h153l98 -206z" />
    <glyph glyph-name="minus.tab" 
d="M82 258v138h470v-138h-470z" />
    <glyph glyph-name="plus.tab" 
d="M80 259v136h163v169h144v-169h163v-136h-163v-175h-144v175h-163z" />
    <glyph glyph-name="multiply.tab" 
d="M177 83l-90 89l149 146l-149 148l88 91l148 -152l145 148l89 -90l-147 -144l147 -142l-89 -90l-145 145z" />
    <glyph glyph-name="less.tab" 
d="M547 58l-470 198v111l470 198v-129l-309 -123l309 -122v-133z" />
    <glyph glyph-name="equal.tab" 
d="M82 374v119h470v-119h-470zM82 160v119h470v-119h-470z" />
    <glyph glyph-name="greater.tab" 
d="M84 566l470 -198v-111l-470 -198v129l309 123l-309 122v133z" />
    <glyph glyph-name="plusminus.tab" 
d="M81 305v124h168v145h134v-145h168v-124h-168v-151h-134v151h-168zM81 0v114h470v-114h-470z" />
    <glyph glyph-name="lessequal.tab" 
d="M547 143l-470 166v111l470 165v-133l-293 -86l293 -91v-132zM77 0v114h470v-114h-470z" />
    <glyph glyph-name="notequal.tab" 
d="M552 160h-276l-48 -91h-93l48 91h-101v119h164l50 95h-214v119h277l46 88h93l-46 -88h100v-119h-163l-50 -95h213v-119z" />
    <glyph glyph-name="greaterequal.tab" 
d="M80 585l470 -166v-111l-470 -165v133l293 86l-293 91v132zM80 0v114h470v-114h-470z" />
    <glyph glyph-name="divide.tab" 
d="M242 441v138h150v-138h-150zM82 260v134h470v-134h-470zM242 75v138h150v-138h-150z" />
    <glyph glyph-name="approxequal.tab" 
d="M81 347q0 78 38.5 120.5t111.5 42.5q41 0 98 -24.5t81 -24.5q52 0 58 51h88q0 -77 -39.5 -120t-105.5 -43q-42 0 -99.5 25t-86.5 25q-47 0 -54 -52h-90zM81 137q0 78 38.5 120.5t111.5 42.5q41 0 98.5 -24t80.5 -24q52 0 58 50h88q0 -77 -39.5 -120t-105.5 -43
q-42 0 -99.5 25t-86.5 25q-47 0 -54 -52h-90z" />
    <glyph glyph-name="acute.uc" horiz-adv-x="495" 
d="M191 805l101 142h187l-147 -142h-141z" />
    <glyph glyph-name="breve.uc" horiz-adv-x="495" 
d="M338 796q-74 0 -121.5 37.5t-50.5 109.5h107q10 -47 69 -47q56 0 84 47h106q-21 -70 -72 -108.5t-122 -38.5z" />
    <glyph glyph-name="caron.uc" horiz-adv-x="489" 
d="M504 965l-18 -114l-168 -55l-160 55l18 116l160 -53z" />
    <glyph glyph-name="circumflex.uc" horiz-adv-x="489" 
d="M162 798l18 114l172 55l156 -55l-18 -116l-156 53z" />
    <glyph glyph-name="dieresis.uc" horiz-adv-x="495" 
d="M368 805l24 155h160l-25 -155h-159zM133 805l25 155h159l-25 -155h-159z" />
    <glyph glyph-name="dotaccent.uc" horiz-adv-x="496" 
d="M251 805l24 155h160l-25 -155h-159z" />
    <glyph glyph-name="hungarumlaut.uc" horiz-adv-x="495" 
d="M118 805l92 142h157l-115 -142h-134zM319 805l92 142h157l-115 -142h-134z" />
    <glyph glyph-name="grave.uc" horiz-adv-x="495" 
d="M396 947l64 -142h-134l-116 142h186z" />
    <glyph glyph-name="macron.uc" horiz-adv-x="495" 
d="M152 805l18 117h360l-19 -117h-359z" />
    <glyph glyph-name="tilde.uc" horiz-adv-x="495" 
d="M224 800h-94q10 76 48 117t96 41q30 0 79 -21t71 -21q37 0 42 41h98q-10 -78 -47 -118t-92 -40q-32 0 -85.5 22t-69.5 22q-39 0 -46 -43z" />
    <glyph glyph-name="commaaccent" horiz-adv-x="495" 
d="M107 -245l-1 55q70 6 89 41h-83l16 101h169l-11 -66q-20 -122 -179 -131z" />
    <glyph glyph-name="ring.uc" horiz-adv-x="495" 
d="M290 917q0 -26 16.5 -43.5t40.5 -17.5q23 0 40 18.5t17 44.5q0 25 -16 42t-39 17q-24 0 -41.5 -18t-17.5 -43zM215 917q0 52 40 89.5t95 37.5q56 0 93.5 -35.5t37.5 -89.5q0 -52 -40 -89.5t-95 -37.5q-57 0 -94 35t-37 90z" />
    <glyph glyph-name="caron.alt" horiz-adv-x="495" 
d="M202 570l56 208h155l-116 -208h-95z" />
    <glyph glyph-name="zero.tabzero" 
d="M288 -15q-250 0 -250 274q0 96 20 185t58 162t100 117t139 44q250 0 250 -274q0 -96 -20 -185t-58 -162t-100 -117t-139 -44zM358 627q-32 0 -59 -26t-44.5 -70t-29 -89t-18.5 -95l233 220q-15 60 -82 60zM281 125q33 0 60.5 26t45.5 69.5t29.5 88t18.5 93.5l-232 -218
q15 -59 78 -59z" />
    <glyph glyph-name="zero.tab" 
d="M355 767q250 0 250 -274q0 -96 -20 -185t-58 -162t-100 -117t-139 -44q-250 0 -250 274q0 96 20 185t58 162t100 117t139 44zM428 510q0 63 -19 86t-53 23q-38 0 -68 -46.5t-44.5 -113.5t-21.5 -123.5t-7 -94.5q0 -62 19 -85t53 -23q40 0 70.5 50.5t44 121t20 124
t6.5 81.5z" />
    <glyph glyph-name="one.tab" 
d="M542 0h-491l23 144h177l65 407l-150 -86l-69 123l287 167h137l-97 -611h141z" />
    <glyph glyph-name="two.tab" 
d="M232 508l-157 33q23 102 94.5 165.5t194.5 63.5q105 0 170.5 -52.5t65.5 -143.5q0 -53 -9.5 -87.5t-50 -84t-100 -102.5t-181.5 -153v-3h293l-23 -144h-526l23 142q186 155 266.5 228t106 109.5t25.5 72.5q0 30 -19.5 49.5t-54.5 19.5q-85 0 -118 -113z" />
    <glyph glyph-name="three.tab" 
d="M284 125q50 0 79.5 29.5t29.5 74.5q0 43 -26 66.5t-74 23.5h-55l22 135h66q47 0 78 27.5t31 69.5q0 38 -25.5 59t-63.5 21q-93 0 -126 -109l-150 39q28 98 102.5 153t191.5 55q101 0 170 -52t69 -139q0 -74 -41 -122t-109 -67v-5q52 -16 82 -57t30 -104
q0 -43 -17.5 -84.5t-50.5 -76.5t-88 -56t-124 -21q-126 0 -194.5 59.5t-83.5 160.5l167 27q20 -107 110 -107z" />
    <glyph glyph-name="four.tab" 
d="M461 0h-161l25 151h-315l17 116l329 488h226l-73 -460h81l-22 -144h-82zM197 295h150l49 302h-7q-21 -38 -64 -105z" />
    <glyph glyph-name="five.tab" 
d="M291 -15q-123 0 -194 66t-78 163l169 15q8 -51 38 -77.5t70 -26.5q53 0 81 35t28 88q0 51 -27.5 78.5t-73.5 27.5q-52 0 -100 -45l-135 40l103 406h440l-23 -147h-303l-40 -159h2q50 39 122 39q83 0 146 -56.5t63 -164.5q0 -118 -75.5 -200t-212.5 -82z" />
    <glyph glyph-name="six.tab" 
d="M620 587l-161 -37q-18 79 -83 79q-102 0 -144 -201l3 -1q50 56 135 56q91 0 149 -59t58 -156q0 -111 -75.5 -197t-213.5 -86q-108 0 -177 67t-69 205q0 97 20.5 185.5t61 162.5t109 118.5t154.5 44.5q95 0 154 -50.5t79 -130.5zM404 264q0 43 -21 69t-56 26
q-57 0 -84 -42.5t-27 -99.5q0 -46 22 -70.5t58 -24.5q55 0 81.5 42.5t26.5 99.5z" />
    <glyph glyph-name="seven.tab" 
d="M34 0l376 598h-329l25 157h537l-19 -123l-391 -632h-199z" />
    <glyph glyph-name="eight.tab" 
d="M361 769q115 0 184.5 -54.5t69.5 -140.5q0 -70 -35.5 -119t-95.5 -73v-3q100 -49 100 -158q0 -96 -77 -166t-212 -70q-127 0 -200 59.5t-73 157.5q0 70 43 123t113 76v3q-75 56 -75 152q0 84 71.5 148.5t186.5 64.5zM365 640q-44 0 -71.5 -29.5t-27.5 -72.5t24.5 -63.5
t60.5 -20.5q44 0 72.5 28.5t28.5 73.5q0 43 -25 63.5t-62 20.5zM293 115q52 0 84.5 34.5t32.5 87.5q0 45 -27 68t-68 23q-50 0 -82.5 -34.5t-32.5 -87.5q0 -46 26.5 -68.5t66.5 -22.5z" />
    <glyph glyph-name="nine.tab" 
d="M343 632q-49 0 -78 -41t-29 -98q0 -47 22 -69t57 -22q51 0 80.5 42.5t29.5 96.5q0 91 -82 91zM20 169l150 35q14 -44 34.5 -62t58.5 -18q112 0 144 208h-3q-56 -54 -134 -54q-88 0 -147 58.5t-59 165.5q0 103 77.5 185t201.5 82q120 0 189 -70t69 -202q0 -139 -37.5 -253
t-114.5 -185.5t-182 -71.5q-212 0 -247 182z" />
    <glyph glyph-name="zero.oldzero" horiz-adv-x="684" 
d="M41 276q0 122 35.5 219t113 158.5t187.5 61.5q142 0 209 -78.5t67 -213.5q0 -122 -35.5 -219t-113.5 -158.5t-188 -61.5q-142 0 -208.5 78t-66.5 214zM373 580q-39 0 -69.5 -25.5t-48 -68.5t-27.5 -86.5t-14 -91.5l251 225q-26 47 -92 47zM321 119q38 0 68 24.5t47.5 66
t27.5 84t15 89.5l-247 -221q25 -43 89 -43z" />
    <glyph glyph-name="zero.old" horiz-adv-x="681" 
d="M41 276q0 122 35.5 219t113 158.5t187.5 61.5q142 0 209 -78.5t67 -213.5q0 -122 -35.5 -219t-113.5 -158.5t-188 -61.5q-142 0 -208.5 78t-66.5 214zM469 447q0 133 -96 133q-42 0 -73 -35t-46 -89.5t-22 -105.5t-7 -97q0 -134 96 -134q42 0 73 35t46 89.5t22 105.5
t7 98z" />
    <glyph glyph-name="one.old" horiz-adv-x="452" 
d="M322 0h-173l80 505l-124 -70l-60 116l253 151h136z" />
    <glyph glyph-name="two.old" horiz-adv-x="597" 
d="M208 462l-156 30q56 223 293 223q105 0 169.5 -55t64.5 -139q0 -86 -56.5 -151.5t-258.5 -222.5v-3h268l-23 -144h-515l19 121q46 38 124 101q183 149 226 193t43 89q0 33 -22.5 54t-58.5 21q-88 0 -117 -117z" />
    <glyph glyph-name="three.old" horiz-adv-x="616" 
d="M296 119q48 0 75.5 25t27.5 67q0 39 -24.5 61t-66.5 22h-64l20 128h67q41 0 67.5 23t26.5 60q0 33 -21 54t-61 21q-81 0 -111 -97l-160 28q23 92 96.5 148t193.5 56q98 0 165 -50.5t67 -130.5q0 -123 -128 -169v-4q51 -18 78.5 -56t27.5 -90q0 -102 -76 -166t-204 -64
q-117 0 -188.5 61t-83.5 169l167 12q19 -108 109 -108z" />
    <glyph glyph-name="four.old" horiz-adv-x="638" 
d="M467 0h-168l21 133h-315l17 112l342 457h215l-68 -427h88l-22 -142h-89zM195 275h156l47 292h-3q-35 -63 -88 -136z" />
    <glyph glyph-name="five.old" horiz-adv-x="608" 
d="M276 -14q-112 0 -182.5 56t-79.5 156l167 14q7 -46 33 -70t65 -24q55 0 83.5 33t28.5 85q0 42 -27 68t-69 26q-51 0 -92 -38l-138 55l101 355h422l-24 -151h-294l-39 -135h2q51 41 129 41q82 0 140.5 -53.5t58.5 -150.5q0 -115 -71 -191t-214 -76z" />
    <glyph glyph-name="six.old" horiz-adv-x="640" 
d="M631 540l-164 -35q-13 41 -35 58t-61 17q-105 0 -137 -190h2q57 66 153 66q88 0 148 -53.5t60 -150.5q0 -109 -76 -188t-211 -79q-122 0 -194.5 73.5t-72.5 211.5q0 85 21.5 163t63 142t109 102t151.5 38q103 0 164 -49t79 -126zM313 117q49 0 78.5 36.5t29.5 91.5
q0 42 -22 63t-57 21q-50 0 -80 -36.5t-30 -92.5q0 -39 21.5 -61t59.5 -22z" />
    <glyph glyph-name="seven.old" horiz-adv-x="570" 
d="M23 0l339 550h-302l24 152h501l-19 -116l-359 -586h-184z" />
    <glyph glyph-name="eight.old" horiz-adv-x="626" 
d="M355 715q112 0 181.5 -53.5t69.5 -135.5q0 -123 -128 -169v-3q46 -20 71.5 -59.5t25.5 -93.5q0 -97 -78.5 -157.5t-206.5 -60.5q-119 0 -193 55t-74 149q0 71 42 120.5t104 66.5v3q-74 47 -74 137q0 85 70.5 143t189.5 58zM355 591q-40 0 -68.5 -24.5t-28.5 -64.5
q0 -39 24.5 -59.5t63.5 -20.5q41 0 68.5 24.5t27.5 66.5q0 37 -25.5 57.5t-61.5 20.5zM297 112q45 0 75 28.5t30 76.5q0 45 -29 67t-69 22q-46 0 -76.5 -28t-30.5 -76q0 -45 30 -67.5t70 -22.5z" />
    <glyph glyph-name="nine.old" horiz-adv-x="644" 
d="M316 370q51 0 82 37t31 88q0 47 -25.5 68.5t-63.5 21.5q-52 0 -82 -35.5t-30 -87.5q0 -45 23.5 -68.5t64.5 -23.5zM22 156l164 34q19 -70 92 -70q55 0 93 45.5t52 135.5l-3 1q-63 -54 -146 -54q-33 0 -67.5 11t-68.5 34.5t-55.5 67.5t-21.5 102q0 106 77 179t199 73
q128 0 201 -73.5t73 -202.5q0 -96 -21 -177t-62 -143.5t-107.5 -98t-152.5 -35.5q-102 0 -164.5 45t-81.5 126z" />
    <glyph glyph-name="zero.taboldzero" 
d="M37 240q0 43 4.5 87t15.5 101t34.5 105t57 90t87.5 66.5t122 24.5q105 0 175 -63.5t70 -193.5q0 -37 -3 -74t-11.5 -85.5t-22.5 -91t-39 -85t-58 -72.5t-81.5 -48.5t-107.5 -18.5q-103 0 -173 64t-70 194zM358 591q-45 0 -78.5 -45t-49 -100.5t-24.5 -124.5l230 217
q-14 53 -78 53zM282 105q34 0 61.5 24.5t45 66.5t28.5 85.5t17 93.5l-231 -216q15 -54 79 -54z" />
    <glyph glyph-name="zero.tabold" 
d="M37 240q0 43 4.5 87t15.5 101t34.5 105t57 90t87.5 66.5t122 24.5q105 0 175 -63.5t70 -193.5q0 -37 -3 -74t-11.5 -85.5t-22.5 -91t-39 -85t-58 -72.5t-81.5 -48.5t-107.5 -18.5q-103 0 -173 64t-70 194zM423 488q0 54 -18.5 75.5t-52.5 21.5q-32 0 -57.5 -31.5
t-39.5 -76t-23 -100t-12 -96.5t-3 -73q0 -54 18.5 -75.5t52.5 -21.5q32 0 57.5 31.5t39.5 76t23 100t12 96.5t3 73z" />
    <glyph glyph-name="one.tabold" 
d="M547 0h-486l23 144h172l57 356l-145 -86l-63 120l275 168h136l-88 -558h142z" />
    <glyph glyph-name="two.tabold" 
d="M234 459l-156 33q22 97 96 160t192 63q102 0 169 -54t67 -141q0 -64 -39 -123t-86.5 -99.5t-174.5 -136.5q-12 -9 -18 -14v-3h271l-23 -144h-521l20 126q284 219 341 271t57 104q0 33 -21.5 50.5t-55.5 17.5q-45 0 -73 -26.5t-45 -83.5z" />
    <glyph glyph-name="three.tabold" 
d="M305 119q45 0 70 25t25 67q0 83 -77 83h-65l20 128h68q38 0 59 22.5t21 60.5q0 33 -19.5 54t-54.5 21q-76 0 -106 -97l-152 35q22 90 94.5 143.5t182.5 53.5q94 0 159 -50.5t65 -130.5q0 -124 -125 -169v-4q103 -36 103 -146q0 -102 -73.5 -166t-198.5 -64
q-109 0 -180.5 58t-83.5 164l164 20q19 -108 104 -108z" />
    <glyph glyph-name="four.tabold" 
d="M458 0h-164l21 133h-298l17 108l334 461h201l-67 -427h86l-23 -142h-86zM204 274h144l44 281h-3q-33 -60 -78 -126z" />
    <glyph glyph-name="five.tabold" 
d="M285 -14q-112 0 -182.5 56t-79.5 156l167 14q7 -46 33 -70t65 -24q55 0 83.5 33t28.5 85q0 42 -27 68t-69 26q-51 0 -92 -38l-138 55l101 355h432l-24 -151h-304l-39 -135h2q51 41 129 41q82 0 140.5 -53.5t58.5 -150.5q0 -115 -71 -191t-214 -76z" />
    <glyph glyph-name="six.tabold" 
d="M592 551l-154 -38q-17 74 -73 74q-97 0 -139 -195h5q53 59 147 59q78 0 133.5 -53.5t55.5 -144.5q0 -113 -76.5 -190.5t-211.5 -77.5q-109 0 -175 66.5t-66 190.5q0 26 2 55.5t9.5 77.5t20.5 91.5t38.5 90t58.5 80t85 55.5t115 22q94 0 152 -45.5t73 -117.5zM291 116
q50 0 81 38t31 93q0 38 -22 61t-60 23q-48 0 -77.5 -39.5t-29.5 -95.5q0 -35 21.5 -57.5t55.5 -22.5z" />
    <glyph glyph-name="seven.tabold" 
d="M47 0l369 559h-328l22 143h519l-18 -116l-374 -586h-190z" />
    <glyph glyph-name="eight.tabold" 
d="M352 715q112 0 179 -53.5t67 -135.5q0 -123 -128 -169v-3q46 -20 71.5 -59.5t25.5 -93.5q0 -97 -76.5 -157.5t-203.5 -60.5q-119 0 -190 55t-71 149q0 71 42 120.5t104 66.5v3q-74 47 -74 137q0 86 68 143.5t186 57.5zM352 592q-41 0 -69.5 -24.5t-28.5 -65.5
q0 -40 24.5 -60.5t64.5 -20.5q41 0 69 25t28 67q0 37 -26 58t-62 21zM294 111q46 0 76 29t30 77q0 45 -29 67.5t-70 22.5q-47 0 -77.5 -28.5t-30.5 -76.5q0 -45 30 -68t71 -23z" />
    <glyph glyph-name="nine.tabold" 
d="M318 368q55 0 82.5 38.5t27.5 91.5q0 39 -22 61.5t-64 22.5q-56 0 -83 -38.5t-27 -91.5q0 -39 22.5 -61.5t63.5 -22.5zM18 149l146 44q13 -40 37 -57.5t64 -17.5q53 0 88 41t52 141h-3q-55 -55 -128 -55q-89 0 -148 53.5t-59 151.5q0 115 80 190t201 75q113 0 181 -68
t68 -198q0 -71 -11 -135.5t-36 -125.5t-63.5 -105t-97 -71t-131.5 -27q-192 0 -240 164z" />
    <glyph glyph-name="zero.num" horiz-adv-x="470" 
d="M88 497q0 114 55 190t159 76q88 0 134.5 -49.5t46.5 -124.5q0 -116 -54 -191t-162 -75q-85 0 -132 50.5t-47 123.5zM357 603q0 69 -54 69q-26 0 -45 -20.5t-27.5 -52t-12.5 -59.5t-4 -54q0 -72 52 -72q27 0 46 20t28 52t13 60.5t4 56.5z" />
    <glyph glyph-name="one.num" horiz-adv-x="327" 
d="M275 333h-122l48 290l-88 -47l-42 82l175 97h100z" />
    <glyph glyph-name="two.num" horiz-adv-x="416" 
d="M206 605l-110 20q17 63 64 100.5t119 37.5q68 0 112 -35.5t44 -88.5q0 -48 -36 -89.5t-146 -115.5v-3h159l-17 -98h-334l13 78q92 66 135 98t71 57t33 36t5 27q0 20 -12.5 31.5t-33.5 11.5q-48 0 -66 -67z" />
    <glyph glyph-name="three.num" horiz-adv-x="427" 
d="M260 415q27 0 43 14t16 36q0 42 -52 42h-45l15 80h42q26 0 41 12t15 33q0 17 -12 28t-34 11q-52 0 -68 -55l-113 20q14 56 64.5 91.5t124.5 35.5q66 0 110.5 -31t44.5 -82q0 -70 -74 -98v-2q62 -22 62 -89q0 -60 -50.5 -98.5t-135.5 -38.5q-73 0 -123 40t-56 106l119 9
q10 -64 66 -64z" />
    <glyph glyph-name="four.num" horiz-adv-x="442" 
d="M380 333h-115l13 78h-218l14 77l218 267h162l-46 -257h56l-15 -87h-56zM191 498h105l32 176h-6q-24 -44 -61 -90z" />
    <glyph glyph-name="five.num" horiz-adv-x="399" 
d="M235 325q-72 0 -117.5 36t-52.5 96l116 8q4 -27 20 -41.5t39 -14.5q58 0 58 60q0 25 -15 40t-39 15q-27 0 -49 -18l-100 38l66 211h278l-16 -100h-195l-22 -73h2q34 23 79 23q54 0 91.5 -34.5t37.5 -94.5q0 -65 -43 -108t-138 -43z" />
    <glyph glyph-name="six.num" horiz-adv-x="436" 
d="M466 653l-115 -19q-11 40 -49 40q-65 0 -85 -106h4q34 36 93 36q53 0 93 -32t40 -93t-48.5 -108t-138.5 -47q-82 0 -127 46t-45 133q0 66 23 124t73.5 97t119.5 39q61 0 105 -30.5t57 -79.5zM264 409q62 0 62 75q0 45 -46 45q-63 0 -63 -76q0 -44 47 -44z" />
    <glyph glyph-name="seven.num" horiz-adv-x="391" 
d="M85 333l205 322h-188l17 100h328l-14 -77l-217 -345h-131z" />
    <glyph glyph-name="eight.num" horiz-adv-x="435" 
d="M295 768q70 0 115.5 -35t45.5 -84q0 -77 -82 -101v-2q67 -22 67 -91q0 -61 -49.5 -97.5t-133.5 -36.5q-81 0 -130 36t-49 93q0 81 95 108v2q-53 29 -53 87q0 51 46.5 86t127.5 35zM292 683q-21 0 -38 -14t-17 -36t13.5 -34t34.5 -12q22 0 38.5 14.5t16.5 37.5
q0 21 -14 32.5t-34 11.5zM258 406q26 0 44 15.5t18 42.5t-16 39t-38 12q-26 0 -44 -15.5t-18 -42.5q0 -25 17 -38t37 -13z" />
    <glyph glyph-name="nine.num" horiz-adv-x="448" 
d="M273 560q28 0 45.5 19.5t17.5 48.5q0 26 -15 37.5t-35 11.5q-30 0 -46 -20t-16 -47q0 -50 49 -50zM82 431l114 20q15 -38 56 -38q31 0 53.5 25.5t30.5 77.5h-4q-38 -33 -93 -33q-19 0 -40 6t-43.5 20t-37.5 41.5t-15 65.5q0 63 49.5 105t131.5 42q80 0 132 -47.5
t52 -127.5q0 -115 -58.5 -189.5t-167.5 -74.5q-63 0 -105 30t-55 77z" />
    <glyph glyph-name="Euro.tab" 
d="M585 184q-34 -92 -103.5 -145.5t-159.5 -53.5q-230 0 -237 257h-58l15 97h46q6 46 10 73h-44l15 97h52q37 117 108.5 187.5t174.5 70.5q188 0 232 -188l-151 -37q-10 43 -29.5 63t-55.5 20q-69 0 -109 -116h133l-15 -97h-142q-3 -16 -10 -73h140l-15 -97h-130
q1 -60 19.5 -86.5t58.5 -26.5q34 0 57 22.5t45 72.5z" />
    <glyph glyph-name="dollar.tab" 
d="M252 555q0 -50 55 -74l24 152q-39 -3 -59 -25t-20 -53zM411 213q0 48 -64 77l-27 -166q91 8 91 89zM278 -142h-70l21 129q-178 24 -231 205l156 47q18 -48 38 -74.5t59 -35.5l30 187l-32 12q-85 33 -126 83.5t-41 134.5q0 89 70 156.5t201 70.5l15 92h70l-16 -98
q77 -15 129 -65t73 -116l-150 -50q-15 35 -31 56t-43 31l-27 -167l37 -13q84 -31 129.5 -79t45.5 -133q0 -99 -74 -171t-213 -76z" />
    <glyph glyph-name="uni20B9.tab" 
d="M365 223l118 -223h-201l-94 187h-78l18 114h59q53 0 95 29t62 81h-198l18 114h192q-7 56 -40.5 86t-86.5 30h-47l18 114h479l-18 -114h-171v-2q46 -43 53 -114h98l-17 -114h-90q-32 -122 -169 -186v-2z" />
    <glyph glyph-name="uni20BA.tab" 
d="M270 0h-160l40 249l-84 -27l17 108l84 27l12 77l-84 -27l18 108l83 26l34 214h173l-25 -156l138 44l-17 -108l-138 -44l-12 -77l138 44l-18 -108l-137 -44l-25 -154h4q49 0 93 36.5t68 97.5q37 -8 70 -14.5t49 -9.5t33 -7q-44 -129 -138.5 -192t-215.5 -63z" />
    <glyph glyph-name="cent.tab" 
d="M215 227q0 -78 44 -105l48 305q-40 -17 -66 -68.5t-26 -131.5zM573 163q-27 -77 -96.5 -125.5t-170.5 -52.5l-20 -127h-69l21 131q-96 14 -149.5 77.5t-53.5 167.5q0 132 80.5 225.5t212.5 99.5l20 127h69l-21 -131q88 -12 138 -61t59 -112l-175 -28q-10 55 -42 72
l-49 -310q51 17 78 80z" />
    <glyph glyph-name="sterling.tab" 
d="M558 148l-23 -148h-539l18 116q175 16 156 178h-113l19 121h76l-10 68q-19 122 50 204.5t202 82.5q92 0 152 -46.5t87 -125.5l-143 -54q-20 50 -42.5 70.5t-54.5 20.5q-42 0 -63.5 -29t-15.5 -78l15 -113h147l-19 -121h-117q-3 -100 -87 -142v-4h305z" />
    <glyph glyph-name="yen.tab" 
d="M534 96h-161l-15 -96h-183l15 96h-172l17 102h171l13 83h-171l16 102h151l-131 372h174l83 -273l158 273h175l-241 -372h147l-16 -102h-162l-13 -83h162z" />
    <glyph glyph-name="florin.tab" 
d="M542 422h-152l-154 -585h-167l152 585h-116l20 123h128l16 60q48 182 241 182q15 0 37.5 -2.5t36.5 -4.5l15 -2l-31 -141q-28 5 -44 5q-77 0 -96 -74l-6 -23h139z" />
    <glyph glyph-name="Euro.old" horiz-adv-x="701" 
d="M644 180q-37 -91 -109 -144t-177 -53q-112 0 -178.5 61t-78.5 177h-91l15 95h75q4 44 8 67h-72l15 95h81q37 109 112.5 173.5t183.5 64.5q109 0 170.5 -54.5t81.5 -137.5l-162 -36q-10 50 -32 71.5t-62 21.5q-80 0 -120 -103h152l-15 -95h-160q-4 -23 -8 -67h158l-15 -95
h-144q9 -103 95 -103q42 0 68 21.5t49 69.5z" />
    <glyph glyph-name="dollar.old" horiz-adv-x="645" 
d="M253 515q0 -27 12 -42.5t42 -26.5l21 138q-34 -3 -54.5 -23t-20.5 -46zM415 196q0 30 -16 47t-52 29l-24 -154q45 3 68.5 24t23.5 54zM214 -142l21 131q-171 24 -220 191l150 43q27 -81 91 -100l26 167l-17 5q-173 48 -173 203q0 90 67.5 152.5t189.5 66.5l15 93h67
l-15 -98q75 -14 129.5 -61.5t73.5 -111.5l-145 -46q-27 65 -80 84l-23 -151l34 -10q86 -24 130 -69.5t44 -122.5q0 -101 -71.5 -168t-205.5 -71l-20 -127h-68z" />
    <glyph glyph-name="uni20B9.old" horiz-adv-x="630" 
d="M321 213l118 -213h-192l-99 178h-98l18 114h84q113 0 146 90h-216l18 114h206q-9 43 -39 66.5t-75 23.5h-78l18 114h502l-18 -114h-185v-2q36 -33 47 -88h124l-18 -114h-112q-29 -113 -151 -167v-2z" />
    <glyph glyph-name="uni20BA.old" horiz-adv-x="642" 
d="M259 0h-183l37 234l-92 -29l17 105l92 29l12 79l-91 -29l16 106l92 29l28 176h173l-19 -118l154 49l-16 -106l-155 -49l-12 -79l154 49l-17 -105l-154 -49l-22 -139h10q64 0 103 29.5t68 99.5l150 -36q-93 -246 -345 -246z" />
    <glyph glyph-name="sterling.old" horiz-adv-x="628" 
d="M546 141l-22 -141h-521l17 110q161 14 148 163h-112l18 113h78l-9 57q-18 116 47 194.5t190 78.5q96 0 148.5 -39.5t82.5 -120.5l-146 -53q-14 46 -33.5 64t-51.5 18q-41 0 -60.5 -27t-13.5 -72l12 -100h139l-18 -113h-111q-3 -54 -26 -82t-57 -46v-4h301z" />
    <glyph glyph-name="yen.old" horiz-adv-x="700" 
d="M592 93h-182l-15 -93h-179l15 93h-193l15 94h193l14 91h-193l15 94h163l-140 330h188l87 -233l152 233h187l-240 -330h158l-15 -94h-183l-14 -91h182z" />
    <glyph glyph-name="florin.old" horiz-adv-x="465" 
d="M418 372h-121l-141 -535h-163l140 535h-84l20 123h96l16 60q47 182 231 182q19 0 40 -2.5t32 -4.5l11 -2l-31 -141q-20 5 -38 5q-71 0 -90 -74l-6 -23h107z" />
    <glyph glyph-name="Euro.tabold" 
d="M590 182q-68 -198 -275 -198q-105 0 -163 59t-61 178h-67l15 95h55q2 19 8 67h-53l15 95h59q71 237 272 237q185 0 229 -178l-152 -38q-8 44 -26 65t-53 21q-64 0 -101 -107h124l-15 -95h-133q-6 -35 -9 -67h131l-15 -95h-122q-3 -103 79 -103q69 0 104 98z" />
    <glyph glyph-name="dollar.tabold" 
d="M251 515q0 -27 12.5 -42.5t42.5 -26.5l21 138q-34 -3 -55 -23t-21 -46zM414 196q0 30 -16 47t-52 29l-24 -154q45 3 68.5 24t23.5 54zM213 -142l21 131q-171 24 -220 191l150 43q27 -81 91 -100l26 167l-17 5q-86 24 -129.5 73.5t-43.5 132.5q0 88 67.5 150t189.5 66
l15 93h67l-15 -98q75 -14 129.5 -61.5t73.5 -111.5l-145 -46q-27 65 -80 84l-23 -151l34 -10q85 -25 129.5 -70.5t44.5 -121.5q0 -101 -71.5 -168t-205.5 -71l-20 -127h-68z" />
    <glyph glyph-name="uni20B9.tabold" 
d="M331 224l116 -224h-192l-91 178h-106l18 114h84q107 0 137 90h-207l18 114h196q-17 90 -118 90h-64l18 114h479l-18 -114h-162v-2q29 -34 37 -88h111l-18 -114h-98q-27 -106 -140 -156v-2z" />
    <glyph glyph-name="uni20BA.tabold" 
d="M224 0h-147l37 234l-86 -27l17 108l86 27l13 77l-87 -27l17 108l87 28l27 172h167l-18 -117l140 45l-17 -108l-140 -45l-13 -77l141 45l-17 -108l-141 -45l-22 -141h7q51 0 94.5 35t67.5 99l148 -31q-45 -129 -139 -190.5t-222 -61.5z" />
    <glyph glyph-name="sterling.tabold" 
d="M559 141l-22 -141h-521l17 110q161 14 148 163h-112l18 113h78l-9 57q-18 116 47 194.5t190 78.5q96 0 148.5 -39.5t82.5 -120.5l-146 -53q-14 46 -33.5 64t-51.5 18q-41 0 -60.5 -27t-13.5 -72l12 -100h139l-18 -113h-111q-3 -54 -26 -82t-57 -46v-4h301z" />
    <glyph glyph-name="yen.tabold" 
d="M537 93h-162l-15 -93h-179l15 93h-173l15 94h173l14 91h-173l15 94h143l-140 330h188l87 -233l152 233h187l-240 -330h138l-15 -94h-163l-14 -91h162z" />
    <glyph glyph-name="florin.tabold" 
d="M529 372h-152l-141 -535h-167l139 535h-116l20 123h128l16 60q48 182 241 182q15 0 37.5 -2.5t37.5 -4.5l14 -2l-31 -141q-28 5 -44 5q-77 0 -96 -74l-6 -23h139z" />
    <glyph glyph-name="zero.den" horiz-adv-x="470" 
d="M35 164q0 114 55 190t159 76q88 0 134.5 -49.5t46.5 -124.5q0 -116 -54 -191t-162 -75q-85 0 -132 50.5t-47 123.5zM304 270q0 69 -54 69q-26 0 -45 -20.5t-27.5 -52t-12.5 -59.5t-4 -54q0 -72 52 -72q27 0 46 20t28 52t13 60.5t4 56.5z" />
    <glyph glyph-name="one.den" horiz-adv-x="327" 
d="M222 0h-122l48 290l-88 -47l-42 82l175 97h100z" />
    <glyph glyph-name="two.den" horiz-adv-x="416" 
d="M153 272l-110 20q17 63 64 100.5t119 37.5q68 0 112 -35.5t44 -88.5q0 -48 -36 -89.5t-146 -115.5v-3h159l-17 -98h-334l13 78q92 66 135 98t71 57t33 36t5 27q0 20 -12.5 31.5t-33.5 11.5q-48 0 -66 -67z" />
    <glyph glyph-name="three.den" horiz-adv-x="427" 
d="M207 82q27 0 43 14t16 36q0 42 -52 42h-45l15 80h42q26 0 41 12t15 33q0 17 -12 28t-34 11q-52 0 -68 -55l-113 20q14 56 64.5 91.5t124.5 35.5q66 0 110.5 -31t44.5 -82q0 -70 -74 -98v-2q62 -22 62 -89q0 -60 -50.5 -98.5t-135.5 -38.5q-73 0 -123 40t-56 106l119 9
q10 -64 66 -64z" />
    <glyph glyph-name="four.den" horiz-adv-x="442" 
d="M327 0h-115l13 78h-218l14 77l218 267h162l-46 -257h56l-15 -87h-56zM138 165h105l32 176h-6q-24 -44 -61 -90z" />
    <glyph glyph-name="five.den" horiz-adv-x="399" 
d="M182 -8q-72 0 -117.5 36t-52.5 96l116 8q4 -27 20 -41.5t39 -14.5q58 0 58 60q0 25 -15 40t-39 15q-27 0 -49 -18l-100 38l66 211h278l-16 -100h-195l-22 -73h2q34 23 79 23q54 0 91.5 -34.5t37.5 -94.5q0 -65 -43 -108t-138 -43z" />
    <glyph glyph-name="six.den" horiz-adv-x="436" 
d="M413 320l-115 -19q-11 40 -49 40q-65 0 -85 -106h4q34 36 93 36q53 0 93 -32t40 -93t-48.5 -108t-138.5 -47q-82 0 -127 46t-45 133q0 66 23 124t73.5 97t119.5 39q61 0 105 -30.5t57 -79.5zM211 76q62 0 62 75q0 45 -46 45q-63 0 -63 -76q0 -44 47 -44z" />
    <glyph glyph-name="seven.den" horiz-adv-x="391" 
d="M32 0l205 322h-188l17 100h328l-14 -77l-217 -345h-131z" />
    <glyph glyph-name="eight.den" horiz-adv-x="435" 
d="M242 435q70 0 115.5 -35t45.5 -84q0 -77 -82 -101v-2q67 -22 67 -91q0 -61 -49.5 -97.5t-133.5 -36.5q-81 0 -130 36t-49 93q0 81 95 108v2q-53 29 -53 87q0 51 46.5 86t127.5 35zM239 350q-21 0 -38 -14t-17 -36t13.5 -34t34.5 -12q22 0 38.5 14.5t16.5 37.5
q0 21 -14 32.5t-34 11.5zM205 73q26 0 44 15.5t18 42.5t-16.5 39t-37.5 12q-26 0 -44 -15.5t-18 -42.5q0 -25 17 -38t37 -13z" />
    <glyph glyph-name="nine.den" horiz-adv-x="448" 
d="M220 227q28 0 45.5 19.5t17.5 48.5q0 26 -15 37.5t-35 11.5q-30 0 -46 -20t-16 -47q0 -50 49 -50zM29 98l114 20q15 -38 56 -38q31 0 53.5 25.5t30.5 77.5h-4q-39 -33 -93 -33q-19 0 -40 6t-43.5 20t-37.5 41.5t-15 65.5q0 63 49.5 105t131.5 42q80 0 132 -47.5
t52 -127.5q0 -115 -58.5 -189.5t-167.5 -74.5q-63 0 -105 30t-55 77z" />
    <glyph glyph-name="space_uni0326" horiz-adv-x="495" 
d="M107 -245l-1 55q70 6 89 41h-83l16 101h169l-11 -66q-20 -122 -179 -131z" />
    <glyph glyph-name="space.tab" horiz-adv-x="310" 
 />
    <glyph glyph-name="one.sup" horiz-adv-x="327" 
d="M286 400h-122l48 290l-88 -47l-42 82l175 97h100z" />
    <glyph glyph-name="two.sup" horiz-adv-x="416" 
d="M217 672l-110 20q17 63 64 100.5t119 37.5q68 0 112 -35.5t44 -88.5q0 -48 -36 -89.5t-146 -115.5v-3h159l-17 -98h-334l13 78q92 66 135 98t71 57t33 36t5 27q0 20 -12.5 31.5t-33.5 11.5q-48 0 -66 -67z" />
    <glyph glyph-name="three.sup" horiz-adv-x="427" 
d="M271 482q27 0 43 14t16 36q0 42 -52 42h-45l15 80h42q26 0 41 12t15 33q0 17 -12 28t-34 11q-52 0 -68 -55l-113 20q14 56 64.5 91.5t124.5 35.5q66 0 110.5 -31t44.5 -82q0 -70 -74 -98v-2q62 -22 62 -89q0 -60 -50.5 -98.5t-135.5 -38.5q-73 0 -123 40t-56 106l119 9
q10 -64 66 -64z" />
    <glyph glyph-name="space_uni0326.alt" horiz-adv-x="496" 
d="M408 824l1 -55q-70 -6 -89 -41h83l-16 -101h-169l11 66q20 122 179 131z" />
    <glyph glyph-name="zero.zero" horiz-adv-x="734" 
d="M346 -16q-147 0 -220 86t-73 228q0 130 38.5 234t122.5 170t202 66q147 0 220 -85.5t73 -228.5q0 -76 -14 -145.5t-43.5 -129t-72 -103t-102.5 -68t-131 -24.5zM416 631q-78 0 -124.5 -85t-54.5 -216l272 244q-27 57 -93 57zM346 121q77 0 123.5 83t55.5 211l-270 -241
q29 -53 91 -53z" />
    <glyph glyph-name="cent.old" horiz-adv-x="601" 
d="M210 227q0 -78 44 -105l48 305q-40 -17 -66 -68.5t-26 -131.5zM568 163q-27 -77 -96.5 -125.5t-170.5 -52.5l-20 -127h-69l21 131q-96 14 -149.5 77.5t-53.5 167.5q0 132 80.5 225.5t212.5 99.5l20 127h69l-21 -131q88 -12 138 -61t59 -112l-175 -28q-10 55 -42 72
l-49 -310q51 17 78 80z" />
    <glyph glyph-name="cent.tabold" 
d="M215 227q0 -78 44 -105l48 305q-40 -17 -66 -68.5t-26 -131.5zM573 163q-27 -77 -96.5 -125.5t-170.5 -52.5l-20 -127h-69l21 131q-96 14 -149.5 77.5t-53.5 167.5q0 132 80.5 225.5t212.5 99.5l20 127h69l-21 -131q88 -12 138 -61t59 -112l-175 -28q-10 55 -42 72
l-49 -310q51 17 78 80z" />
    </font>
</defs>
</svg>
