<?xml version="1.0" standalone="no"?>
<!DOCTYPE svg PUBLIC "-//W3C//DTD SVG 1.1//EN" "http://www.w3.org/Graphics/SVG/1.1/DTD/svg11.dtd" >
<svg>
<metadata>
Created by FontForge 20110222 at Thu Feb 12 12:27:25 2015
 By deploy user
Copyright (c) 2014 Typotheque.com All rights reserved.
</metadata>
<defs>
<font id="NeutralStd-Bold" horiz-adv-x="620" >
  <font-face 
    font-family="Neutral Std Bld"
    font-weight="700"
    font-stretch="normal"
    units-per-em="1000"
    panose-1="0 0 0 0 0 0 0 0 0 0"
    ascent="778"
    descent="-222"
    x-height="545"
    cap-height="755"
    bbox="-239 -245 1152 1044"
    underline-thickness="70"
    underline-position="-117"
    unicode-range="U+0020-FB02"
  />
<missing-glyph horiz-adv-x="712" 
d="M80 0v27h27v-27h-27zM80 75v27h27v-27h-27zM80 150v27h27v-27h-27zM80 225v27h27v-27h-27zM80 300v27h27v-27h-27zM80 375v27h27v-27h-27zM80 450v27h27v-27h-27zM80 525v27h27v-27h-27zM80 600v27h27v-27h-27zM80 675v27h27v-27h-27zM155 0v27h27v-27h-27zM155 675v27
h27v-27h-27zM230 0v27h27v-27h-27zM230 525v27h27v-27h-27zM230 675v27h27v-27h-27zM305 0v27h27v-27h-27zM305 150v27h27v-27h-27zM305 300v27h27v-27h-27zM305 375v27h27v-27h-27zM305 525v27h27v-27h-27zM305 675v27h27v-27h-27zM380 0v27h27v-27h-27zM380 375v27h27v-27
h-27zM380 525v27h27v-27h-27zM380 675v27h27v-27h-27zM455 0v27h27v-27h-27zM455 375v27h27v-27h-27zM455 450v27h27v-27h-27zM455 525v27h27v-27h-27zM455 675v27h27v-27h-27zM530 0v27h27v-27h-27zM530 675v27h27v-27h-27zM605 0v27h27v-27h-27zM605 75v27h27v-27h-27z
M605 150v27h27v-27h-27zM605 225v27h27v-27h-27zM605 300v27h27v-27h-27zM605 375v27h27v-27h-27zM605 450v27h27v-27h-27zM605 525v27h27v-27h-27zM605 600v27h27v-27h-27zM605 675v27h27v-27h-27z" />
    <glyph glyph-name=".notdef" horiz-adv-x="712" 
d="M80 0v27h27v-27h-27zM80 75v27h27v-27h-27zM80 150v27h27v-27h-27zM80 225v27h27v-27h-27zM80 300v27h27v-27h-27zM80 375v27h27v-27h-27zM80 450v27h27v-27h-27zM80 525v27h27v-27h-27zM80 600v27h27v-27h-27zM80 675v27h27v-27h-27zM155 0v27h27v-27h-27zM155 675v27
h27v-27h-27zM230 0v27h27v-27h-27zM230 525v27h27v-27h-27zM230 675v27h27v-27h-27zM305 0v27h27v-27h-27zM305 150v27h27v-27h-27zM305 300v27h27v-27h-27zM305 375v27h27v-27h-27zM305 525v27h27v-27h-27zM305 675v27h27v-27h-27zM380 0v27h27v-27h-27zM380 375v27h27v-27
h-27zM380 525v27h27v-27h-27zM380 675v27h27v-27h-27zM455 0v27h27v-27h-27zM455 375v27h27v-27h-27zM455 450v27h27v-27h-27zM455 525v27h27v-27h-27zM455 675v27h27v-27h-27zM530 0v27h27v-27h-27zM530 675v27h27v-27h-27zM605 0v27h27v-27h-27zM605 75v27h27v-27h-27z
M605 150v27h27v-27h-27zM605 225v27h27v-27h-27zM605 300v27h27v-27h-27zM605 375v27h27v-27h-27zM605 450v27h27v-27h-27zM605 525v27h27v-27h-27zM605 600v27h27v-27h-27zM605 675v27h27v-27h-27z" />
    <glyph glyph-name=".null" horiz-adv-x="0" 
 />
    <glyph glyph-name="nonmarkingreturn" horiz-adv-x="333" 
 />
    <glyph glyph-name="space" unicode=" " horiz-adv-x="175" 
 />
    <glyph glyph-name="exclam" unicode="!" horiz-adv-x="346" 
d="M111 259l-24 251v268h172v-268l-25 -251h-123zM80 0v175h186v-175h-186z" />
    <glyph glyph-name="quotedbl" unicode="&#x22;" horiz-adv-x="542" 
d="M107 407l-52 348h186l-52 -348h-82zM353 407l-52 348h186l-52 -348h-82z" />
    <glyph glyph-name="numbersign" unicode="#" horiz-adv-x="630" 
d="M363 276l23 144h-115l-23 -144h115zM318 0l29 177h-115l-29 -177h-105l29 177h-97v99h113l23 144h-96v99h113l25 156h105l-25 -156h115l25 156h105l-25 -156h92v-99h-109l-23 -144h92v-99h-108l-29 -177h-105z" />
    <glyph glyph-name="dollar" unicode="$" horiz-adv-x="686" 
d="M303 481l7 -1v163q-42 -5 -63 -26t-21 -52q0 -38 19 -57t58 -27zM395 290l-15 3v-168q94 13 94 86q0 33 -18.5 51.5t-60.5 27.5zM380 -142h-70v126q-247 14 -286 223l181 21q19 -92 105 -103v182l-60 12q-101 21 -149 74t-48 149t71.5 159.5t185.5 71.5v92h70v-93
q213 -16 261 -201l-173 -30q-25 81 -88 98v-173l58 -11q106 -22 161 -70t55 -147q0 -104 -70.5 -174.5t-203.5 -79.5v-126z" />
    <glyph glyph-name="percent" unicode="%" horiz-adv-x="799" 
d="M30 584q0 88 47.5 138t120.5 50q76 0 119 -48t43 -140q0 -90 -46 -139t-120 -49q-77 0 -120.5 49t-43.5 139zM82 -14l514 786h116l-513 -786h-117zM194 687q-46 0 -46 -103t47 -103q22 0 33.5 23t11.5 80q0 103 -46 103zM439 174q0 88 47.5 138t120.5 50q76 0 119 -48
t43 -140q0 -90 -46 -139t-120 -49q-77 0 -120.5 49t-43.5 139zM603 277q-46 0 -46 -103t47 -103q22 0 33.5 23t11.5 80q0 103 -46 103z" />
    <glyph glyph-name="ampersand" unicode="&#x26;" horiz-adv-x="736" 
d="M615 -18l-79 76q-91 -75 -222 -75q-132 0 -208 63t-76 161q0 75 35.5 122.5t101.5 85.5q-40 43 -57.5 81.5t-17.5 89.5q0 86 65 140.5t171 54.5q114 0 170 -51t56 -126q0 -62 -34.5 -108t-109.5 -90l105 -100q11 50 11 110h155q0 -124 -45 -225l95 -91zM255 595
q0 -22 8.5 -40t18 -28t35.5 -33q81 52 81 101q0 29 -19.5 49t-50.5 20q-34 0 -53.5 -19.5t-19.5 -49.5zM317 125q63 0 113 35l-169 162q-57 -43 -57 -97q0 -44 31 -72t82 -28z" />
    <glyph glyph-name="quotesingle" unicode="'" horiz-adv-x="296" 
d="M107 407l-52 348h186l-52 -348h-82z" />
    <glyph glyph-name="parenleft" unicode="(" horiz-adv-x="345" 
d="M340 -163h-104q-27 33 -40.5 50.5t-44.5 68.5t-47.5 96.5t-31.5 117t-15 147.5q0 90 17 168.5t49 139.5t53 92.5t52 70.5q6 7 8 10h104q-25 -41 -40 -70t-42 -93.5t-41 -145.5t-14 -172t14 -171.5t41 -145t42 -93t40 -70.5z" />
    <glyph glyph-name="parenright" unicode=")" horiz-adv-x="345" 
d="M5 798h104q27 -33 40.5 -50.5t44.5 -68.5t47.5 -96.5t31.5 -117t15 -147.5q0 -90 -17 -168.5t-49 -139.5t-53 -92.5t-52 -70.5q-6 -7 -8 -10h-104q25 41 40 70t42 93.5t41 145.5t14 172t-14 171.5t-41 145t-42 93t-40 70.5z" />
    <glyph glyph-name="asterisk" unicode="*" horiz-adv-x="468" 
d="M288 778l-16 -166l2 -1l146 70l33 -102l-150 -43v-3l114 -124l-93 -64l-88 143h-4l-88 -140l-93 64l115 124l-1 2l-149 42l35 99l140 -68l4 2l-15 165h108z" />
    <glyph glyph-name="plus" unicode="+" horiz-adv-x="600" 
d="M65 259v136h163v169h144v-169h163v-136h-163v-175h-144v175h-163z" />
    <glyph glyph-name="comma" unicode="," horiz-adv-x="306" 
d="M84 -197l-43 64q52 29 74 59t24 74h-79v175h186v-138q0 -81 -36.5 -138t-125.5 -96z" />
    <glyph glyph-name="hyphen" unicode="-" horiz-adv-x="437" 
d="M45 227v149h347v-149h-347z" />
    <glyph glyph-name="hyphen" unicode="&#xad;" horiz-adv-x="437" 
d="M45 227v149h347v-149h-347z" />
    <glyph glyph-name="period" unicode="." horiz-adv-x="306" 
d="M60 0v175h186v-175h-186z" />
    <glyph glyph-name="slash" unicode="/" horiz-adv-x="436" 
d="M-43 -163l353 961h122l-352 -961h-123z" />
    <glyph glyph-name="zero" unicode="0" horiz-adv-x="736" 
d="M53 376q0 193 83 293t233 100q314 0 314 -393q0 -196 -82 -294.5t-234 -98.5q-314 0 -314 393zM368 628q-61 0 -91 -57.5t-30 -194.5q0 -135 29.5 -193.5t91.5 -58.5q60 0 90.5 58t30.5 194q0 134 -30 193t-91 59z" />
    <glyph glyph-name="one" unicode="1" horiz-adv-x="491" 
d="M401 0h-182v543l-128 -80l-73 129l257 163h126v-755z" />
    <glyph glyph-name="two" unicode="2" horiz-adv-x="647" 
d="M218 492l-170 16v9q0 102 75.5 177t211.5 75q122 0 191.5 -59.5t69.5 -155.5q0 -23 -3.5 -45t-7 -39.5t-16 -39t-19 -34t-27.5 -36t-30.5 -34.5t-40 -38.5t-42.5 -38.5t-51.5 -45.5t-55.5 -48.5v-3h299v-152h-551v128q35 31 96 86q163 146 216.5 206t53.5 115
q0 44 -24.5 68t-66.5 24q-99 0 -107 -122z" />
    <glyph glyph-name="three" unicode="3" horiz-adv-x="653" 
d="M326 124q49 0 79 27.5t30 70.5q0 47 -30.5 72t-75.5 25h-79v135h71q43 0 70 21t27 66q0 41 -26 64t-66 23q-47 0 -76 -29t-35 -82l-172 20q13 104 88 168.5t205 64.5q120 0 190.5 -57.5t70.5 -144.5q0 -125 -125 -168v-3q68 -16 107 -65.5t39 -118.5q0 -99 -79.5 -164.5
t-211.5 -65.5q-140 0 -218 70.5t-84 178.5l180 13q18 -121 121 -121z" />
    <glyph glyph-name="four" unicode="4" horiz-adv-x="669" 
d="M544 0h-175v148h-347v100l295 507h227v-460h92v-147h-92v-148zM203 295h169v312h-5q-22 -61 -67 -141z" />
    <glyph glyph-name="five" unicode="5" horiz-adv-x="651" 
d="M321 -15q-138 0 -207.5 59.5t-83.5 160.5l173 18q9 -54 41 -77t72 -23q52 0 81.5 32.5t29.5 88.5q0 52 -30 81.5t-84 29.5q-58 0 -100 -45l-153 49l77 396h435v-157h-313l-29 -156h2q54 46 138 46q108 0 173 -63t65 -178q0 -118 -79.5 -190t-207.5 -72z" />
    <glyph glyph-name="six" unicode="6" horiz-adv-x="698" 
d="M642 581l-166 -39q-29 89 -104 89q-54 0 -91.5 -55t-44.5 -155h2q62 70 173 70q104 0 173 -61t69 -180q0 -112 -79.5 -188.5t-212.5 -76.5q-144 0 -226 88.5t-82 264.5q0 214 90.5 322.5t235.5 108.5q202 0 263 -188zM474 240q0 51 -31 83.5t-81 32.5t-81 -32.5
t-31 -83.5t30 -83t82 -32q50 0 81 32t31 83z" />
    <glyph glyph-name="seven" unicode="7" horiz-adv-x="587" 
d="M75 0l284 598h-329v157h532v-123l-293 -632h-194z" />
    <glyph glyph-name="eight" unicode="8" horiz-adv-x="688" 
d="M344 774q127 0 201 -58.5t74 -150.5q0 -121 -109 -169v-3q58 -20 95.5 -66.5t37.5 -112.5q0 -106 -79.5 -168.5t-218.5 -62.5t-219.5 61.5t-80.5 167.5q0 66 37.5 113.5t94.5 67.5v3q-108 47 -108 167q0 92 74.5 151.5t200.5 59.5zM241 551q0 -43 29.5 -67.5t73.5 -24.5
t73.5 24.5t29.5 67.5t-29.5 67.5t-73.5 24.5t-73.5 -24.5t-29.5 -67.5zM458 223q0 49 -32 77.5t-82 28.5t-82 -28.5t-32 -77.5q0 -48 32 -76.5t82 -28.5t82 28.5t32 76.5z" />
    <glyph glyph-name="nine" unicode="9" horiz-adv-x="701" 
d="M230 514q0 -52 30.5 -84t80.5 -32t80.5 32.5t30.5 83.5q0 52 -29.5 84t-81.5 32q-50 0 -80.5 -32t-30.5 -84zM48 170l167 36q25 -81 104 -81q63 0 99 48t37 163h-3q-30 -32 -65.5 -49.5t-92.5 -17.5q-107 0 -176.5 65t-69.5 176q0 112 78 186.5t215 74.5q143 0 225 -93.5
t82 -269.5q0 -213 -87.5 -318t-238.5 -105q-113 0 -182.5 48t-91.5 137z" />
    <glyph glyph-name="colon" unicode=":" horiz-adv-x="306" 
d="M60 370v175h186v-175h-186zM60 0v175h186v-175h-186z" />
    <glyph glyph-name="semicolon" unicode=";" horiz-adv-x="306" 
d="M60 370v175h186v-175h-186zM84 -211l-43 68q52 31 74 63.5t24 79.5h-79v175h186v-135q0 -88 -36.5 -148.5t-125.5 -102.5z" />
    <glyph glyph-name="less" unicode="&#x3c;" horiz-adv-x="600" 
d="M535 58l-470 198v111l470 198v-129l-309 -123l309 -122v-133z" />
    <glyph glyph-name="equal" unicode="=" horiz-adv-x="600" 
d="M65 374v119h470v-119h-470zM65 160v119h470v-119h-470z" />
    <glyph glyph-name="greater" unicode="&#x3e;" horiz-adv-x="600" 
d="M65 566l470 -198v-111l-470 -198v129l309 123l-309 122v133z" />
    <glyph glyph-name="question" unicode="?" horiz-adv-x="590" 
d="M204 259l-1 40q-1 53 19.5 81.5t76.5 68.5q52 37 69.5 57.5t17.5 54.5q0 35 -24.5 56.5t-67.5 21.5q-94 0 -113 -108l-173 26q12 94 84 161t204 67q130 0 202 -57.5t72 -157.5q0 -38 -8 -67t-26.5 -52.5t-36.5 -39t-51 -38.5q-6 -4 -17.5 -12t-15.5 -11l-12 -9t-11 -8.5
t-8.5 -7.5t-7 -8t-4.5 -7.5t-4 -9t-2 -10t-1 -11.5l-1 -20h-160zM191 0v175h186v-175h-186z" />
    <glyph glyph-name="at" unicode="@" horiz-adv-x="1072" 
d="M524 -201q-204 0 -334 127.5t-130 329.5q0 147 66.5 262.5t181.5 178.5t258 63q209 0 330 -119.5t121 -294.5q0 -147 -81 -233.5t-198 -86.5q-115 0 -146 85h-4q-31 -40 -65.5 -56.5t-83.5 -16.5q-73 0 -119.5 50.5t-46.5 143.5q0 135 68.5 219.5t172.5 84.5
q83 0 119 -64h4l11 49h157l-60 -323q-15 -77 51 -77q54 0 94.5 64t40.5 155q0 157 -99 253t-274 96q-181 0 -294 -122t-113 -303q0 -184 107 -288t277 -104q174 0 291 85l38 -55q-67 -50 -145.5 -76.5t-194.5 -26.5zM502 149q51 0 80.5 57t29.5 131q0 85 -65 85
q-46 0 -78 -55.5t-32 -134.5q0 -42 18 -62.5t47 -20.5z" />
    <glyph glyph-name="A" unicode="A" horiz-adv-x="783" 
d="M346 461l-48 -153h178l-48 153l-35 127h-12q-15 -62 -35 -127zM574 0l-51 160h-272l-50 -160h-186l261 755h231l261 -755h-194z" />
    <glyph glyph-name="B" unicode="B" horiz-adv-x="733" 
d="M75 0v755h353q117 0 180 -52t63 -137q0 -126 -133 -167v-3q70 -13 113.5 -57t43.5 -113q0 -104 -72.5 -165t-199.5 -61h-348zM263 618v-165h125q104 0 104 83q0 82 -104 82h-125zM263 137h134q113 0 113 91q0 44 -30 66t-83 22h-134v-179z" />
    <glyph glyph-name="C" unicode="C" horiz-adv-x="778" 
d="M412 -17q-180 0 -275 102.5t-95 285.5q0 179 101 289.5t269 110.5q139 0 227 -65.5t106 -170.5l-188 -28q-14 52 -51 82.5t-94 30.5q-76 0 -122 -59.5t-46 -180.5q0 -124 47 -185t121 -61q118 0 151 126l194 -32q-31 -114 -115.5 -179.5t-229.5 -65.5z" />
    <glyph glyph-name="D" unicode="D" horiz-adv-x="784" 
d="M334 0h-259v755h259q87 0 158.5 -20.5t129 -63t90 -117t32.5 -175.5q0 -186 -108.5 -282.5t-301.5 -96.5zM265 152h69q101 0 156 51.5t55 178.5q0 118 -54.5 170t-156.5 52h-69v-452z" />
    <glyph glyph-name="E" unicode="E" horiz-adv-x="657" 
d="M75 0v755h522v-155h-332v-147h284v-151h-284v-147h352v-155h-542z" />
    <glyph glyph-name="F" unicode="F" horiz-adv-x="609" 
d="M75 0v755h502v-155h-310v-174h262v-151h-262v-275h-192z" />
    <glyph glyph-name="G" unicode="G" horiz-adv-x="817" 
d="M374 -16q-150 0 -241 101.5t-91 282.5q0 187 103 295t270 108q133 0 215.5 -63t108.5 -164l-184 -30q-35 112 -140 112q-77 0 -126 -61t-49 -185q0 -125 49 -187t124 -62q74 0 114.5 43.5t40.5 103.5v8h-162v133h337v-419h-144l-16 82h-5q-34 -49 -81 -73.5t-123 -24.5z
" />
    <glyph glyph-name="H" unicode="H" horiz-adv-x="810" 
d="M543 0v308h-276v-308h-192v755h192v-291h276v291h192v-755h-192z" />
    <glyph glyph-name="I" unicode="I" horiz-adv-x="342" 
d="M75 0v755h192v-755h-192z" />
    <glyph glyph-name="J" unicode="J" horiz-adv-x="654" 
d="M309 -17q-128 0 -201 58.5t-83 158.5l184 18q16 -85 98 -85q42 0 63.5 23t21.5 77v522h192v-513q0 -117 -65 -188t-210 -71z" />
    <glyph glyph-name="K" unicode="K" horiz-adv-x="770" 
d="M264 196v-196h-189v755h189v-331l258 331h206l-252 -312l284 -443h-226l-187 298z" />
    <glyph glyph-name="L" unicode="L" horiz-adv-x="629" 
d="M75 0v755h192v-598h334v-157h-526z" />
    <glyph glyph-name="M" unicode="M" horiz-adv-x="1007" 
d="M75 755h257l151 -429q8 -23 13.5 -46.5t7.5 -35.5l2 -12h6q5 42 24 96l150 427h246v-755h-187v510h-6q-11 -66 -33 -130l-133 -380h-147l-133 381q-10 28 -18 60.5t-11 50.5l-4 18h-6v-510h-179v755z" />
    <glyph glyph-name="N" unicode="N" horiz-adv-x="814" 
d="M75 0v755h208l233 -387q12 -19 22.5 -40.5t15.5 -33.5l5 -12h5v473h175v-755h-196l-241 397q-13 21 -24 43t-16 34l-5 11h-5v-485h-177z" />
    <glyph glyph-name="O" unicode="O" horiz-adv-x="826" 
d="M412 -16q-173 0 -271.5 107t-98.5 287q0 179 99.5 286t272.5 107t271.5 -106.5t98.5 -286.5t-99.5 -287t-272.5 -107zM413 136q77 0 123 60t46 182t-46 181.5t-123 59.5t-123 -59.5t-46 -181.5t46 -182t123 -60z" />
    <glyph glyph-name="P" unicode="P" horiz-adv-x="715" 
d="M75 0v755h309q133 0 213.5 -69t80.5 -192q0 -121 -80 -192t-215 -71h-116v-231h-192zM357 608h-90v-230h89q133 0 133 113q0 59 -35.5 88t-96.5 29z" />
    <glyph glyph-name="Q" unicode="Q" horiz-adv-x="832" 
d="M608 -90l-72 92q-62 -19 -120 -19q-175 0 -273 106.5t-98 288.5t98 287.5t273 105.5t273 -105.5t98 -287.5q0 -195 -130 -307l61 -77zM416 125q15 0 22 1l-60 77l110 84l61 -78q29 63 29 169q0 127 -44 188.5t-118 61.5q-73 0 -117.5 -62t-44.5 -189t44.5 -189.5
t117.5 -62.5z" />
    <glyph glyph-name="R" unicode="R" horiz-adv-x="733" 
d="M364 614h-97v-204h97q123 0 123 101q0 59 -33 81t-90 22zM502 0l-134 258h-101v-258h-192v755h330q130 0 204.5 -60.5t74.5 -170.5q0 -147 -134 -214v-2l161 -308h-209z" />
    <glyph glyph-name="S" unicode="S" horiz-adv-x="721" 
d="M357 -17q-142 0 -232 64.5t-103 159.5l195 24q13 -48 51.5 -74.5t92.5 -26.5q59 0 89.5 22t30.5 60q0 60 -91 79l-123 26q-209 44 -209 224q0 101 80.5 166.5t220.5 65.5q130 0 211 -57t100 -151l-190 -24q-25 89 -122 89q-55 0 -81 -20t-26 -49q0 -30 20.5 -50t74.5 -31
l122 -26q112 -24 163 -80t51 -144q0 -107 -79 -177t-246 -70z" />
    <glyph glyph-name="T" unicode="T" horiz-adv-x="672" 
d="M28 603v152h616v-152h-212v-603h-192v603h-212z" />
    <glyph glyph-name="U" unicode="U" horiz-adv-x="769" 
d="M387 -17q-317 0 -317 304v468h193v-474q0 -139 123 -139q62 0 92 37.5t30 101.5v474h191v-468q0 -141 -74 -222.5t-238 -81.5z" />
    <glyph glyph-name="V" unicode="V" horiz-adv-x="743" 
d="M208 755l137 -451q9 -30 17 -61.5t11 -48.5l3 -16h4q10 58 31 126l136 451h186l-252 -755h-219l-252 755h198z" />
    <glyph glyph-name="W" unicode="W" horiz-adv-x="1072" 
d="M655 0l-120 471l-119 -471h-230l-171 755h191l115 -542l140 542h165l139 -538l115 538h177l-171 -755h-231z" />
    <glyph glyph-name="X" unicode="X" horiz-adv-x="725" 
d="M26 755h204l135 -231l135 231h196l-232 -373l239 -382h-209l-138 239l-137 -239h-204l239 383z" />
    <glyph glyph-name="Y" unicode="Y" horiz-adv-x="700" 
d="M260 0v313l-258 442h204l155 -284l147 284h190l-246 -433v-322h-192z" />
    <glyph glyph-name="Z" unicode="Z" horiz-adv-x="690" 
d="M40 0v116l361 487h-342v152h579v-120l-360 -483h372v-152h-610z" />
    <glyph glyph-name="bracketleft" unicode="[" horiz-adv-x="345" 
d="M80 -163v961h260v-97h-128v-767h128v-97h-260z" />
    <glyph glyph-name="backslash" unicode="\" horiz-adv-x="437" 
d="M123 798l353 -961h-123l-352 961h122z" />
    <glyph glyph-name="bracketright" unicode="]" horiz-adv-x="345" 
d="M265 798v-961h-260v97h127v767h-127v97h260z" />
    <glyph glyph-name="asciicircum" unicode="^" horiz-adv-x="454" 
d="M269 755l165 -353h-114l-96 203l-99 -203h-105l169 353h80z" />
    <glyph glyph-name="underscore" unicode="_" horiz-adv-x="530" 
d="M30 -231v120h470v-120h-470z" />
    <glyph glyph-name="grave" unicode="`" horiz-adv-x="500" 
d="M293 778l97 -167h-140l-139 167h182z" />
    <glyph glyph-name="a" unicode="a" horiz-adv-x="626" 
d="M282 106q44 0 74 30t30 86v8q-25 1 -59 1q-110 0 -110 -67q0 -26 18 -42t47 -16zM221 -13q-85 0 -135.5 46.5t-50.5 119.5q0 91 69.5 134t212.5 43l68 -2v23q0 76 -76 76q-70 0 -82 -59l-174 32q15 64 81 111.5t177 47.5q127 0 190 -54.5t63 -172.5v-197l5 -135h-173
l-4 66q-58 -79 -171 -79z" />
    <glyph glyph-name="b" unicode="b" horiz-adv-x="672" 
d="M399 -12q-46 0 -81.5 13.5t-50 26t-31.5 31.5v-59h-171v778h186v-311q51 89 158 89q110 0 167.5 -77t57.5 -196q0 -135 -66.5 -215t-168.5 -80zM346 113q44 0 72.5 40.5t28.5 119.5t-28 116t-71 37q-46 0 -74 -38.5t-28 -114.5q0 -84 27.5 -122t72.5 -38z" />
    <glyph glyph-name="c" unicode="c" horiz-adv-x="607" 
d="M316 -15q-140 0 -210.5 76t-70.5 210q0 126 75.5 207t213.5 81q111 0 180 -55t77 -132l-182 -21q-17 75 -82 75q-43 0 -69.5 -38.5t-26.5 -115.5q0 -79 26.5 -116.5t69.5 -37.5q35 0 57 22t28 58l182 -18q-16 -88 -83 -141.5t-185 -53.5z" />
    <glyph glyph-name="d" unicode="d" horiz-adv-x="672" 
d="M326 113q50 0 75 42.5t25 113.5q0 72 -24.5 114.5t-73.5 42.5q-51 0 -77 -42.5t-26 -114.5q0 -71 25.5 -113.5t75.5 -42.5zM263 -11q-103 0 -164 76t-61 204t65 207.5t182 79.5q85 0 136 -59v281h186v-778h-171v61q-62 -72 -173 -72z" />
    <glyph glyph-name="e" unicode="e" horiz-adv-x="621" 
d="M318 -15q-123 0 -203 78.5t-80 208.5q0 127 77.5 207t208.5 80q136 0 206.5 -87.5t67.5 -248.5h-382q5 -49 35.5 -78t74.5 -29q67 0 105 59l153 -39q-27 -69 -93.5 -110t-169.5 -41zM314 436q-42 0 -68.5 -28t-31.5 -76h197q-2 48 -28.5 76t-68.5 28z" />
    <glyph glyph-name="f" unicode="f" horiz-adv-x="413" 
d="M16 422v123h81v17q0 113 53.5 167.5t172.5 54.5l82 -6l-12 -140q-16 2 -39 2q-39 0 -55 -15.5t-16 -56.5v-23h108v-123h-108v-422h-186v422h-81z" />
    <glyph glyph-name="g" unicode="g" horiz-adv-x="672" 
d="M326 125q49 0 74.5 42t25.5 112t-26 112t-74 42q-49 0 -75 -42t-26 -112t26 -112t75 -42zM302 -232q-102 0 -167.5 40t-85.5 107l158 51q31 -70 105 -70q111 0 111 119v60q-57 -72 -158 -72q-59 0 -104 22.5t-71 61.5t-39 87t-13 104q0 127 68 202.5t179 75.5
q102 0 151 -72v61h171v-481q0 -146 -72.5 -221t-232.5 -75z" />
    <glyph glyph-name="h" unicode="h" horiz-adv-x="666" 
d="M251 778v-316q47 95 163 95q192 0 192 -212v-345h-186v316q0 56 -24 78t-55 22q-37 0 -63.5 -27t-26.5 -96v-293h-186v778h186z" />
    <glyph glyph-name="i" unicode="i" horiz-adv-x="316" 
d="M65 622v156h186v-156h-186zM65 0v545h186v-545h-186z" />
    <glyph glyph-name="j" unicode="j" horiz-adv-x="316" 
d="M65 622v156h186v-156h-186zM25 -232q-16 0 -35 2t-30 4l-11 3l13 140q27 -5 32 -5q71 0 71 74v559h186v-549q0 -109 -56.5 -168.5t-169.5 -59.5z" />
    <glyph glyph-name="k" unicode="k" horiz-adv-x="641" 
d="M430 0l-132 217l-48 -54v-163h-185v778h185v-429l167 196h205l-193 -212l207 -333h-206z" />
    <glyph glyph-name="l" unicode="l" horiz-adv-x="316" 
d="M65 0v778h186v-778h-186z" />
    <glyph glyph-name="m" unicode="m" horiz-adv-x="1021" 
d="M65 0v545h173v-92q53 103 176 103q135 0 176 -108q54 108 179 108q192 0 192 -212v-344h-186v316q0 56 -24 77.5t-55 21.5q-36 0 -63 -26.5t-27 -95.5v-293h-186v316q0 56 -24 77.5t-55 21.5q-37 0 -63.5 -26.5t-26.5 -95.5v-293h-186z" />
    <glyph glyph-name="n" unicode="n" horiz-adv-x="666" 
d="M65 0v545h173v-92q53 103 176 103q192 0 192 -212v-344h-186v315q0 56 -24 78t-55 22q-37 0 -63.5 -27t-26.5 -96v-292h-186z" />
    <glyph glyph-name="o" unicode="o" horiz-adv-x="644" 
d="M319 -15q-135 0 -209.5 79.5t-74.5 207.5q0 127 77 207t212 80t210 -80t75 -207t-77.5 -207t-212.5 -80zM322 118q50 0 75 41t25 113t-25 113t-75 41q-51 0 -76 -41t-25 -113t25.5 -113t75.5 -41z" />
    <glyph glyph-name="p" unicode="p" horiz-adv-x="672" 
d="M346 113q44 0 72.5 40.5t28.5 119.5t-27.5 116t-69.5 37q-46 0 -75 -38.5t-29 -114.5q0 -84 27.5 -122t72.5 -38zM65 -223v768h171v-83q32 45 73 69.5t105 24.5q107 0 163.5 -77t56.5 -196q0 -136 -69.5 -215.5t-179.5 -79.5q-75 0 -134 51v-262h-186z" />
    <glyph glyph-name="q" unicode="q" horiz-adv-x="672" 
d="M421 -222v279q-56 -68 -150 -68q-108 0 -170.5 75.5t-62.5 204.5q0 126 65 206.5t186 80.5q96 0 147 -68v57h171v-767h-186zM326 113q50 0 75 42.5t25 113.5q0 72 -25.5 114.5t-74.5 42.5q-51 0 -76 -42t-25 -115q0 -71 25.5 -113.5t75.5 -42.5z" />
    <glyph glyph-name="r" unicode="r" horiz-adv-x="453" 
d="M65 0v545h173v-102h4q21 49 52 75t62.5 32t74.5 2l-12 -177q-26 4 -50 4q-63 0 -91 -36q-27 -33 -27 -94v-249h-186z" />
    <glyph glyph-name="s" unicode="s" horiz-adv-x="595" 
d="M295 -17q-116 0 -183.5 44.5t-78.5 124.5l174 18q20 -64 92 -64q79 0 79 45q0 19 -11.5 29.5t-46.5 16.5l-88 14q-94 16 -138 55.5t-44 113.5q0 78 68.5 128.5t178.5 50.5q109 0 174.5 -44.5t77.5 -118.5l-172 -18q-11 59 -82 59q-32 0 -51 -10.5t-19 -29.5t14 -29
t48 -16l98 -16q90 -15 130.5 -54.5t40.5 -109.5q0 -87 -65 -138t-196 -51z" />
    <glyph glyph-name="t" unicode="t" horiz-adv-x="428" 
d="M15 422v123h87l8 146h166v-146h112v-123h-108v-223q0 -41 17.5 -58t53.5 -17q16 0 40 2l9 -124q-49 -14 -130 -14q-96 0 -136 47.5t-39 147.5l1 239h-81z" />
    <glyph glyph-name="u" unicode="u" horiz-adv-x="656" 
d="M252 -13q-102 0 -147 57.5t-45 154.5v346h186v-317q0 -56 22.5 -78.5t51.5 -22.5q39 0 62 31t23 90v297h186v-545h-173v99q-49 -112 -166 -112z" />
    <glyph glyph-name="v" unicode="v" horiz-adv-x="596" 
d="M396 0h-196l-196 545h196l77 -258q7 -24 13 -52t8 -44l3 -16h6q10 58 26 111l77 259h182z" />
    <glyph glyph-name="w" unicode="w" horiz-adv-x="878" 
d="M513 0l-51 232l-21 125h-7q-10 -70 -22 -124l-52 -233h-221l-131 545h181l47 -244l24 -153h6q14 87 29 153l56 244h182l56 -244l31 -169h6q13 103 25 169l46 244h173l-132 -545h-225z" />
    <glyph glyph-name="x" unicode="x" horiz-adv-x="609" 
d="M392 0l-101 150l-97 -150h-184l196 276l-189 269h210l88 -135l85 135h187l-186 -263l198 -282h-207z" />
    <glyph glyph-name="y" unicode="y" horiz-adv-x="602" 
d="M132 -222l80 214l-208 553h194l85 -251q8 -24 14 -51t7 -42l2 -15h6q8 54 25 108l80 251h181l-286 -767h-180z" />
    <glyph glyph-name="z" unicode="z" horiz-adv-x="561" 
d="M53 408v137h460v-111l-247 -296h252v-138h-473v112l249 296h-241z" />
    <glyph glyph-name="braceleft" unicode="{" horiz-adv-x="350" 
d="M28 259v114h31q75 0 68 85l-12 164q-7 98 47 137t165 39h28v-94h-22q-51 0 -67.5 -17.5t-14.5 -64.5l6 -157q2 -66 -20 -98.5t-76 -46.5v-5q52 -11 76 -44t21 -94l-7 -164q-2 -46 14.5 -64t67.5 -18h22v-94h-32q-110 0 -162.5 38.5t-45.5 136.5l12 169q3 39 -16 58.5
t-53 19.5h-30z" />
    <glyph glyph-name="bar" unicode="|" horiz-adv-x="266" 
d="M75 -163v961h116v-961h-116z" />
    <glyph glyph-name="braceright" unicode="}" horiz-adv-x="350" 
d="M322 376v-114h-31q-75 0 -68 -85l12 -164q7 -98 -47 -137t-165 -39h-28v94h22q51 0 67.5 17.5t14.5 64.5l-6 157q-2 66 20 98.5t76 46.5v5q-52 11 -76 44t-21 94l7 164q2 46 -14.5 64t-67.5 18h-22v94h32q110 0 162.5 -38.5t45.5 -136.5l-12 -169q-3 -39 16 -58.5
t53 -19.5h30z" />
    <glyph glyph-name="asciitilde" unicode="~" horiz-adv-x="555" 
d="M40 241q0 172 150 172q39 0 100 -20.5t78 -20.5q49 0 53 46h94q0 -84 -39 -128t-106 -44q-44 0 -105.5 21t-79.5 21q-44 0 -49 -47h-96z" />
    <glyph glyph-name="uni00A0" unicode="&#xa0;" horiz-adv-x="260" 
 />
    <glyph glyph-name="exclamdown" unicode="&#xa1;" horiz-adv-x="346" 
d="M235 352l24 -251v-268h-172v268l25 251h123zM266 611v-175h-186v175h186z" />
    <glyph glyph-name="cent" unicode="&#xa2;" horiz-adv-x="607" 
d="M584 176q-14 -77 -72.5 -129t-159.5 -61v-128h-70v128q-123 10 -185 84.5t-62 200.5q0 116 64 194.5t183 91.5v129h70v-128q98 -7 160 -60.5t69 -120.5l-174 -20q-16 59 -55 72v-313q40 14 59 77zM217 272q0 -134 65 -156v313q-65 -23 -65 -157z" />
    <glyph glyph-name="sterling" unicode="&#xa3;" horiz-adv-x="661" 
d="M607 148v-148h-559v116q65 8 94.5 52t12.5 126h-92v121h67l-12 58q-27 129 42 213t208 84q109 0 170.5 -55.5t72.5 -156.5l-163 -28q-10 52 -29 75t-58 23q-93 0 -70 -130l15 -83h161v-121h-141q10 -96 -70 -142v-4h351z" />
    <glyph glyph-name="currency" unicode="&#xa4;" horiz-adv-x="600" 
d="M221 334q0 -37 22 -59.5t56 -22.5q33 0 55.5 23t22.5 59q0 35 -22.5 57.5t-55.5 22.5t-55.5 -22t-22.5 -58zM118 334q0 43 16 76l-87 88l86 87l87 -89q34 18 78 18q42 0 77 -18l93 95l87 -87l-93 -96q16 -35 16 -74q0 -40 -17 -76l90 -88l-89 -88l-89 88q-37 -16 -75 -16
q-39 0 -76 16l-89 -90l-88 85l91 90q-18 36 -18 79z" />
    <glyph glyph-name="yen" unicode="&#xa5;" horiz-adv-x="736" 
d="M665 96h-201v-96h-183v96h-212v102h212v83h-212v102h191l-218 372h200l135 -259l126 259h191l-214 -372h185v-102h-201v-83h201v-102z" />
    <glyph glyph-name="brokenbar" unicode="&#xa6;" horiz-adv-x="266" 
d="M75 407v391h116v-391h-116zM75 -163v391h116v-391h-116z" />
    <glyph glyph-name="section" unicode="&#xa7;" horiz-adv-x="619" 
d="M376 331q12 -2 34 -8q10 15 10 33q0 46 -66 58l-105 20q-28 6 -38 9q-11 -14 -11 -33q0 -45 67 -58zM504 275v-3q51 -41 51 -110q0 -81 -65.5 -130t-185.5 -49q-111 0 -173 46t-72 123l156 17q19 -68 96 -68q76 0 76 47q0 36 -46 45l-144 26q-64 11 -106 49t-42 100
q0 84 77 125v2q-42 37 -42 109q0 75 63.5 122t166.5 47q213 0 241 -162l-155 -16q-6 26 -28.5 45.5t-57.5 19.5q-33 0 -51 -12t-18 -32t11.5 -30.5t44.5 -16.5l135 -26q62 -12 101 -48.5t39 -95.5q0 -84 -72 -124z" />
    <glyph glyph-name="dieresis" unicode="&#xa8;" horiz-adv-x="500" 
d="M288 623v155h161v-155h-161zM51 623v155h161v-155h-161z" />
    <glyph glyph-name="copyright" unicode="&#xa9;" horiz-adv-x="875" 
d="M45 377q0 170 113.5 281.5t278.5 111.5q167 0 280 -111.5t113 -281.5t-114 -281t-279 -111q-167 0 -279.5 111t-112.5 281zM114 377q0 -145 93 -237.5t230 -92.5t230.5 92.5t93.5 237.5t-93.5 238t-230.5 93t-230 -93t-93 -238zM437 149q-108 0 -162.5 61.5t-54.5 170.5
q0 102 58.5 168t164.5 66q85 0 138.5 -44.5t60.5 -103.5l-141 -17q-15 57 -63 57q-33 0 -53.5 -31t-20.5 -94q0 -64 20.5 -94.5t53.5 -30.5q26 0 42.5 17.5t22.5 44.5l141 -15q-13 -68 -64.5 -111.5t-142.5 -43.5z" />
    <glyph glyph-name="ordfeminine" unicode="&#xaa;" horiz-adv-x="474" 
d="M221 440q31 0 51 22t20 58v10q-18 2 -41 2q-75 0 -75 -47q0 -20 12.5 -32.5t32.5 -12.5zM171 349q-62 0 -99 34.5t-37 89.5q0 130 200 130l53 -1v16q0 57 -51 57q-46 0 -56 -47l-126 27q10 48 56 83.5t128 35.5q104 0 146 -41.5t42 -134.5v-139l2 -101h-131l-3 47
q-43 -56 -124 -56z" />
    <glyph glyph-name="guillemotleft" unicode="&#xab;" horiz-adv-x="582" 
d="M383 470h147l-106 -208l106 -211h-149l-113 210zM151 470h147l-106 -208l106 -211h-149l-113 210z" />
    <glyph glyph-name="logicalnot" unicode="&#xac;" horiz-adv-x="600" 
d="M65 260v134h470v-310h-134v176h-336z" />
    <glyph glyph-name="registered" unicode="&#xae;" horiz-adv-x="462" 
d="M231 355q-85 0 -145.5 60.5t-60.5 145.5t60.5 145.5t145.5 60.5t145.5 -60.5t60.5 -145.5t-60.5 -145.5t-145.5 -60.5zM231 735q-71 0 -121 -51t-50 -123t50 -123t121 -51t121 51t50 123t-50 123t-121 51zM205 573h25q37 0 37 30t-34 30h-28v-60zM146 451v225h93
q40 0 64.5 -18.5t24.5 -51.5q0 -43 -45 -61l50 -94h-65l-43 81h-20v-81h-59z" />
    <glyph glyph-name="macron" unicode="&#xaf;" horiz-adv-x="500" 
d="M70 623v117h363v-117h-363z" />
    <glyph glyph-name="degree" unicode="&#xb0;" horiz-adv-x="390" 
d="M40 619q0 66 44 110.5t111 44.5t111 -44.5t44 -110.5t-45 -110t-112 -44q-66 0 -109.5 44t-43.5 110zM113 619q0 -39 22 -63.5t59 -24.5t60 24.5t23 63.5t-23 64t-60 25q-36 0 -58.5 -25t-22.5 -64z" />
    <glyph glyph-name="plusminus" unicode="&#xb1;" horiz-adv-x="600" 
d="M65 305v124h168v145h134v-145h168v-124h-168v-151h-134v151h-168zM65 0v114h470v-114h-470z" />
    <glyph glyph-name="twosuperior" unicode="&#xb2;" horiz-adv-x="425" 
d="M156 668l-115 8q3 63 50 108t127 45q77 0 120 -35t43 -92q0 -51 -29 -85.5t-132 -115.5v-4h167v-98h-344v79q171 140 194 163q26 28 26 54q0 19 -12.5 31t-34.5 12q-57 0 -60 -70z" />
    <glyph glyph-name="threesuperior" unicode="&#xb3;" horiz-adv-x="423" 
d="M214 479q26 0 42 13t16 35q0 44 -55 44h-48v84h46q49 0 49 43t-49 43q-54 0 -64 -57l-111 11q7 56 54.5 95t123.5 39t119.5 -31.5t43.5 -80.5q0 -73 -74 -95v-1q41 -9 63 -35.5t22 -64.5q0 -55 -50.5 -93t-127.5 -38q-89 0 -136.5 41t-52.5 104l119 6q3 -30 23 -46
t47 -16z" />
    <glyph glyph-name="acute" unicode="&#xb4;" horiz-adv-x="500" 
d="M111 611l97 167h182l-139 -167h-140z" />
    <glyph glyph-name="paragraph" unicode="&#xb6;" horiz-adv-x="615" 
d="M307 300h-14q-117 0 -182.5 63t-65.5 164q0 102 65.5 165t182.5 63h14v-455zM374 -222v977h166v-977h-166z" />
    <glyph glyph-name="periodcentered" unicode="&#xb7;" horiz-adv-x="306" 
d="M60 212v175h186v-175h-186z" />
    <glyph glyph-name="cedilla" unicode="&#xb8;" horiz-adv-x="500" 
d="M309 26l-45 -75l3 -3q20 5 46 5q40 0 67 -24.5t27 -65.5q0 -45 -34 -70t-90 -25q-81 0 -129 47l54 45q34 -29 65 -29q39 0 39 30t-31 30q-19 0 -40 -8l-55 30l60 113h63z" />
    <glyph glyph-name="onesuperior" unicode="&#xb9;" horiz-adv-x="344" 
d="M280 399h-122v292l-97 -50l-41 83l172 97h88v-422z" />
    <glyph glyph-name="ordmasculine" unicode="&#xba;" horiz-adv-x="510" 
d="M253 350q-103 0 -160.5 59t-57.5 153t58.5 153t162.5 59t161.5 -59t57.5 -153q0 -93 -59.5 -152.5t-162.5 -59.5zM255 454q70 0 70 108t-70 108q-71 0 -71 -108t71 -108z" />
    <glyph glyph-name="guillemotright" unicode="&#xbb;" horiz-adv-x="582" 
d="M431 51h-147l106 208l-106 211h149l113 -210zM199 51h-147l106 208l-106 211h149l113 -210z" />
    <glyph glyph-name="onequarter" unicode="&#xbc;" horiz-adv-x="953" 
d="M280 333h-122v292l-97 -50l-41 83l172 97h88v-422zM154 -14l514 786h116l-513 -786h-117zM868 0h-118v72h-217v78l173 272h162v-254h54v-96h-54v-72zM645 168h108v173h-12q-19 -43 -46 -89z" />
    <glyph glyph-name="onehalf" unicode="&#xbd;" horiz-adv-x="979" 
d="M280 333h-122v292l-97 -50l-41 83l172 97h88v-422zM154 -14l514 786h116l-513 -786h-117zM709 269l-115 8q3 63 50 108t127 45q77 0 120 -35t43 -92q0 -51 -29 -85.5t-132 -115.5v-4h167v-98h-344v79q171 140 194 163q26 28 26 54q0 19 -12.5 31t-34.5 12q-57 0 -60 -70z
" />
    <glyph glyph-name="threequarters" unicode="&#xbe;" horiz-adv-x="1002" 
d="M214 413q26 0 42 13t16 35q0 44 -55 44h-48v84h46q49 0 49 43t-49 43q-54 0 -64 -57l-111 11q7 56 54.5 95t123.5 39t119.5 -31.5t43.5 -80.5q0 -73 -74 -95v-1q41 -9 63 -35.5t22 -64.5q0 -55 -50.5 -93t-127.5 -38q-89 0 -136.5 41t-52.5 104l119 6q3 -30 23 -46
t47 -16zM204 -14l514 786h116l-513 -786h-117zM918 0h-118v72h-217v78l173 272h162v-254h54v-96h-54v-72zM695 168h108v173h-12q-19 -43 -46 -89z" />
    <glyph glyph-name="questiondown" unicode="&#xbf;" horiz-adv-x="590" 
d="M374 352l1 -40q1 -53 -19.5 -81.5t-76.5 -68.5q-52 -37 -69.5 -57.5t-17.5 -54.5q0 -35 24.5 -56.5t67.5 -21.5q94 0 113 108l173 -26q-12 -94 -84 -161t-204 -67q-130 0 -202 57.5t-72 157.5q0 38 8 67t26.5 52.5t36.5 39t51 38.5q6 4 17.5 12t15.5 11l12 9t11 8.5
t8.5 7.5t7 8t4.5 7.5t4 9t2 10t1 11.5l1 20h160zM387 611v-175h-186v175h186z" />
    <glyph glyph-name="Agrave" unicode="&#xc0;" horiz-adv-x="783" 
d="M346 461l-48 -153h178l-48 153l-35 127h-12q-15 -62 -35 -127zM574 0l-51 160h-272l-50 -160h-186l261 755h231l261 -755h-194zM381 947l87 -142h-144l-131 142h188z" />
    <glyph glyph-name="Aacute" unicode="&#xc1;" horiz-adv-x="783" 
d="M346 461l-48 -153h178l-48 153l-35 127h-12q-15 -62 -35 -127zM574 0l-51 160h-272l-50 -160h-186l261 755h231l261 -755h-194zM314 805l87 142h188l-130 -142h-145z" />
    <glyph glyph-name="Acircumflex" unicode="&#xc2;" horiz-adv-x="783" 
d="M346 461l-48 -153h178l-48 153l-35 127h-12q-15 -62 -35 -127zM574 0l-51 160h-272l-50 -160h-186l261 755h231l261 -755h-194zM225 798v114l166 52l166 -52v-116l-166 50z" />
    <glyph glyph-name="Atilde" unicode="&#xc3;" horiz-adv-x="783" 
d="M346 461l-48 -153h178l-48 153l-35 127h-12q-15 -62 -35 -127zM574 0l-51 160h-272l-50 -160h-186l261 755h231l261 -755h-194zM284 800h-95q1 76 36 115t97 39q29 0 78 -17.5t68 -17.5t31 10t12 28h99q-1 -78 -35 -116.5t-93 -38.5q-30 0 -83.5 18.5t-69.5 18.5
q-42 0 -45 -39z" />
    <glyph glyph-name="Adieresis" unicode="&#xc4;" horiz-adv-x="783" 
d="M346 461l-48 -153h178l-48 153l-35 127h-12q-15 -62 -35 -127zM574 0l-51 160h-272l-50 -160h-186l261 755h231l261 -755h-194zM429 805v155h161v-155h-161zM192 805v155h161v-155h-161z" />
    <glyph glyph-name="Aring" unicode="&#xc5;" horiz-adv-x="783" 
d="M346 461l-48 -153h178l-48 153l-35 127h-12q-15 -62 -35 -127zM574 0l-51 160h-272l-50 -160h-186l261 755h231l261 -755h-194zM258 918q0 52 39 89t94 37t94 -37t39 -89t-39 -89t-94 -37t-94 37t-39 89zM333 918q0 -26 17 -44t41 -18q23 0 39.5 18t16.5 44
q0 25 -16.5 42.5t-39.5 17.5q-24 0 -41 -17.5t-17 -42.5z" />
    <glyph glyph-name="AE" unicode="&#xc6;" horiz-adv-x="1008" 
d="M349 401l-37 -99h152v298h-44q-24 -73 -71 -199zM464 0v160h-205l-59 -160h-190l305 755h633v-155h-297v-150h249v-145h-249v-150h317v-155h-504z" />
    <glyph glyph-name="Ccedilla" unicode="&#xc7;" horiz-adv-x="778" 
d="M406 -232q-81 0 -129 47l54 45q34 -29 65 -29q39 0 39 30t-31 30q-19 0 -40 -8l-55 30l39 74q-149 18 -227.5 118.5t-78.5 265.5q0 179 101 289.5t269 110.5q139 0 227 -65.5t106 -170.5l-188 -28q-14 52 -51 82.5t-94 30.5q-76 0 -122 -59.5t-46 -180.5q0 -124 47 -185
t121 -61q118 0 151 126l194 -32q-31 -114 -115.5 -179.5t-229.5 -65.5h-6l-19 -32l3 -3q20 5 46 5q40 0 67 -24.5t27 -65.5q0 -45 -34 -70t-90 -25z" />
    <glyph glyph-name="Egrave" unicode="&#xc8;" horiz-adv-x="657" 
d="M75 0v755h522v-155h-332v-147h284v-151h-284v-147h352v-155h-542zM344 947l87 -142h-144l-131 142h188z" />
    <glyph glyph-name="Eacute" unicode="&#xc9;" horiz-adv-x="657" 
d="M75 0v755h522v-155h-332v-147h284v-151h-284v-147h352v-155h-542zM269 805l87 142h188l-130 -142h-145z" />
    <glyph glyph-name="Ecircumflex" unicode="&#xca;" horiz-adv-x="657" 
d="M75 0v755h522v-155h-332v-147h284v-151h-284v-147h352v-155h-542zM180 798v114l166 52l166 -52v-116l-166 50z" />
    <glyph glyph-name="Edieresis" unicode="&#xcb;" horiz-adv-x="657" 
d="M75 0v755h522v-155h-332v-147h284v-151h-284v-147h352v-155h-542zM379 805v155h161v-155h-161zM142 805v155h161v-155h-161z" />
    <glyph glyph-name="Igrave" unicode="&#xcc;" horiz-adv-x="342" 
d="M75 0v755h192v-755h-192zM161 947l87 -142h-144l-131 142h188z" />
    <glyph glyph-name="Iacute" unicode="&#xcd;" horiz-adv-x="342" 
d="M75 0v755h192v-755h-192zM94 805l87 142h188l-130 -142h-145z" />
    <glyph glyph-name="Icircumflex" unicode="&#xce;" horiz-adv-x="342" 
d="M25 798v114l146 52l146 -52v-116l-146 50zM75 0v755h192v-755h-192z" />
    <glyph glyph-name="Idieresis" unicode="&#xcf;" horiz-adv-x="342" 
d="M194 805v155h156v-155h-156zM-8 805v155h156v-155h-156zM75 0v755h192v-755h-192z" />
    <glyph glyph-name="Eth" unicode="&#xd0;" horiz-adv-x="794" 
d="M344 0h-259v327h-65v117h65v311h259q87 0 158.5 -20.5t129 -63t90 -117t32.5 -175.5q0 -186 -108.5 -282.5t-301.5 -96.5zM273 152h71q101 0 156 51.5t55 178.5q0 118 -54.5 170t-156.5 52h-71v-160h133v-117h-133v-175z" />
    <glyph glyph-name="Ntilde" unicode="&#xd1;" horiz-adv-x="814" 
d="M75 0v755h208l233 -387q12 -19 22.5 -40.5t15.5 -33.5l5 -12h5v473h175v-755h-196l-241 397q-13 21 -24 43t-16 34l-5 11h-5v-485h-177zM321 800h-95q1 76 36 115t97 39q29 0 78 -17.5t68 -17.5t31 10t12 28h99q-1 -78 -35 -116.5t-93 -38.5q-30 0 -83.5 18.5t-69.5 18.5
q-42 0 -45 -39z" />
    <glyph glyph-name="Ograve" unicode="&#xd2;" horiz-adv-x="826" 
d="M412 -16q-173 0 -271.5 107t-98.5 287q0 179 99.5 286t272.5 107t271.5 -106.5t98.5 -286.5t-99.5 -287t-272.5 -107zM413 136q77 0 123 60t46 182t-46 181.5t-123 59.5t-123 -59.5t-46 -181.5t46 -182t123 -60zM403 947l87 -142h-144l-131 142h188z" />
    <glyph glyph-name="Oacute" unicode="&#xd3;" horiz-adv-x="826" 
d="M412 -16q-173 0 -271.5 107t-98.5 287q0 179 99.5 286t272.5 107t271.5 -106.5t98.5 -286.5t-99.5 -287t-272.5 -107zM413 136q77 0 123 60t46 182t-46 181.5t-123 59.5t-123 -59.5t-46 -181.5t46 -182t123 -60zM336 805l87 142h188l-130 -142h-145z" />
    <glyph glyph-name="Ocircumflex" unicode="&#xd4;" horiz-adv-x="826" 
d="M412 -16q-173 0 -271.5 107t-98.5 287q0 179 99.5 286t272.5 107t271.5 -106.5t98.5 -286.5t-99.5 -287t-272.5 -107zM413 136q77 0 123 60t46 182t-46 181.5t-123 59.5t-123 -59.5t-46 -181.5t46 -182t123 -60zM247 798v114l166 52l166 -52v-116l-166 50z" />
    <glyph glyph-name="Otilde" unicode="&#xd5;" horiz-adv-x="826" 
d="M412 -16q-173 0 -271.5 107t-98.5 287q0 179 99.5 286t272.5 107t271.5 -106.5t98.5 -286.5t-99.5 -287t-272.5 -107zM413 136q77 0 123 60t46 182t-46 181.5t-123 59.5t-123 -59.5t-46 -181.5t46 -182t123 -60zM306 800h-95q1 76 36 115t97 39q29 0 78 -17.5t68 -17.5
t31 10t12 28h99q-1 -78 -35 -116.5t-93 -38.5q-30 0 -83.5 18.5t-69.5 18.5q-42 0 -45 -39z" />
    <glyph glyph-name="Odieresis" unicode="&#xd6;" horiz-adv-x="826" 
d="M412 -16q-173 0 -271.5 107t-98.5 287q0 179 99.5 286t272.5 107t271.5 -106.5t98.5 -286.5t-99.5 -287t-272.5 -107zM413 136q77 0 123 60t46 182t-46 181.5t-123 59.5t-123 -59.5t-46 -181.5t46 -182t123 -60zM451 805v155h161v-155h-161zM214 805v155h161v-155h-161z
" />
    <glyph glyph-name="multiply" unicode="&#xd7;" horiz-adv-x="610" 
d="M160 83l-90 89l149 146l-149 148l88 91l148 -152l145 148l89 -90l-147 -144l147 -142l-89 -90l-145 145z" />
    <glyph glyph-name="Oslash" unicode="&#xd8;" horiz-adv-x="826" 
d="M244 377q0 -81 20 -135l259 337q-43 44 -110 44q-76 0 -122.5 -61.5t-46.5 -184.5zM413 133q76 0 122.5 61t46.5 184q0 77 -19 134l-259 -337q42 -42 109 -42zM413 -16q-121 0 -209 59l-78 -101l-58 45l79 103q-105 110 -105 288q0 179 99 286t272 107q123 0 212 -60
l73 96l58 -43l-76 -99q104 -109 104 -287q0 -180 -99 -287t-272 -107z" />
    <glyph glyph-name="Ugrave" unicode="&#xd9;" horiz-adv-x="769" 
d="M387 -17q-317 0 -317 304v468h193v-474q0 -139 123 -139q62 0 92 37.5t30 101.5v474h191v-468q0 -141 -74 -222.5t-238 -81.5zM374 947l87 -142h-144l-131 142h188z" />
    <glyph glyph-name="Uacute" unicode="&#xda;" horiz-adv-x="769" 
d="M387 -17q-317 0 -317 304v468h193v-474q0 -139 123 -139q62 0 92 37.5t30 101.5v474h191v-468q0 -141 -74 -222.5t-238 -81.5zM307 805l87 142h188l-130 -142h-145z" />
    <glyph glyph-name="Ucircumflex" unicode="&#xdb;" horiz-adv-x="769" 
d="M387 -17q-317 0 -317 304v468h193v-474q0 -139 123 -139q62 0 92 37.5t30 101.5v474h191v-468q0 -141 -74 -222.5t-238 -81.5zM218 798v114l166 52l166 -52v-116l-166 50z" />
    <glyph glyph-name="Udieresis" unicode="&#xdc;" horiz-adv-x="769" 
d="M387 -17q-317 0 -317 304v468h193v-474q0 -139 123 -139q62 0 92 37.5t30 101.5v474h191v-468q0 -141 -74 -222.5t-238 -81.5zM422 805v155h161v-155h-161zM185 805v155h161v-155h-161z" />
    <glyph glyph-name="Yacute" unicode="&#xdd;" horiz-adv-x="700" 
d="M260 0v313l-258 442h204l155 -284l147 284h190l-246 -433v-322h-192zM283 805l87 142h188l-130 -142h-145z" />
    <glyph glyph-name="Thorn" unicode="&#xde;" horiz-adv-x="728" 
d="M75 0v755h192v-128h130q139 0 217.5 -65.5t78.5 -185.5q0 -118 -78 -185.5t-219 -67.5h-129v-123h-192zM363 480h-96v-210h96q141 0 141 103q0 62 -39 84.5t-102 22.5z" />
    <glyph glyph-name="germandbls" unicode="&#xdf;" horiz-adv-x="725" 
d="M65 0v544q0 102 66 171.5t199 69.5q114 0 178.5 -49t64.5 -129q0 -25 -8.5 -48t-16.5 -35t-24 -31q-4 -5 -13 -15.5t-13 -15.5t-9 -12t-7 -13t-2 -11q0 -10 1.5 -15.5t12 -16t32.5 -23.5l71 -40q55 -31 84 -68.5t29 -92.5q0 -83 -60 -133t-165 -50q-163 0 -197 120
l128 48q15 -49 65 -49q26 0 37.5 11.5t11.5 26.5q0 19 -11 32t-49 34l-72 40q-50 28 -68 58.5t-18 72.5q0 12 2.5 23.5t5 20t8.5 20t9.5 17t11.5 18.5t11 17q13 20 18 29.5t9 24t4 32.5q0 30 -16.5 50t-50.5 20q-39 0 -56 -24t-17 -78v-551h-186z" />
    <glyph glyph-name="agrave" unicode="&#xe0;" horiz-adv-x="626" 
d="M282 106q44 0 74 30t30 86v8q-25 1 -59 1q-110 0 -110 -67q0 -26 18 -42t47 -16zM221 -13q-85 0 -135.5 46.5t-50.5 119.5q0 91 69.5 134t212.5 43l68 -2v23q0 76 -76 76q-70 0 -82 -59l-174 32q15 64 81 111.5t177 47.5q127 0 190 -54.5t63 -172.5v-197l5 -135h-173
l-4 66q-58 -79 -171 -79zM313 778l97 -167h-140l-139 167h182z" />
    <glyph glyph-name="aacute" unicode="&#xe1;" horiz-adv-x="626" 
d="M282 106q44 0 74 30t30 86v8q-25 1 -59 1q-110 0 -110 -67q0 -26 18 -42t47 -16zM221 -13q-85 0 -135.5 46.5t-50.5 119.5q0 91 69.5 134t212.5 43l68 -2v23q0 76 -76 76q-70 0 -82 -59l-174 32q15 64 81 111.5t177 47.5q127 0 190 -54.5t63 -172.5v-197l5 -135h-173
l-4 66q-58 -79 -171 -79zM231 611l97 167h182l-139 -167h-140z" />
    <glyph glyph-name="acircumflex" unicode="&#xe2;" horiz-adv-x="626" 
d="M282 106q44 0 74 30t30 86v8q-25 1 -59 1q-110 0 -110 -67q0 -26 18 -42t47 -16zM221 -13q-85 0 -135.5 46.5t-50.5 119.5q0 91 69.5 134t212.5 43l68 -2v23q0 76 -76 76q-70 0 -82 -59l-174 32q15 64 81 111.5t177 47.5q127 0 190 -54.5t63 -172.5v-197l5 -135h-173
l-4 66q-58 -79 -171 -79zM151 608v119l166 62l166 -62v-121l-166 60z" />
    <glyph glyph-name="atilde" unicode="&#xe3;" horiz-adv-x="626" 
d="M282 106q44 0 74 30t30 86v8q-25 1 -59 1q-110 0 -110 -67q0 -26 18 -42t47 -16zM221 -13q-85 0 -135.5 46.5t-50.5 119.5q0 91 69.5 134t212.5 43l68 -2v23q0 76 -76 76q-70 0 -82 -59l-174 32q15 64 81 111.5t177 47.5q127 0 190 -54.5t63 -172.5v-197l5 -135h-173
l-4 66q-58 -79 -171 -79zM212 615h-95q1 76 36 115t97 39q29 0 78 -17.5t68 -17.5q43 0 43 38h99q-1 -78 -35 -116.5t-93 -38.5q-30 0 -83.5 18.5t-69.5 18.5q-42 0 -45 -39z" />
    <glyph glyph-name="adieresis" unicode="&#xe4;" horiz-adv-x="626" 
d="M282 106q44 0 74 30t30 86v8q-25 1 -59 1q-110 0 -110 -67q0 -26 18 -42t47 -16zM221 -13q-85 0 -135.5 46.5t-50.5 119.5q0 91 69.5 134t212.5 43l68 -2v23q0 76 -76 76q-70 0 -82 -59l-174 32q15 64 81 111.5t177 47.5q127 0 190 -54.5t63 -172.5v-197l5 -135h-173
l-4 66q-58 -79 -171 -79zM355 623v155h161v-155h-161zM118 623v155h161v-155h-161z" />
    <glyph glyph-name="aring" unicode="&#xe5;" horiz-adv-x="626" 
d="M282 106q44 0 74 30t30 86v8q-25 1 -59 1q-110 0 -110 -67q0 -26 18 -42t47 -16zM221 -13q-85 0 -135.5 46.5t-50.5 119.5q0 91 69.5 134t212.5 43l68 -2v23q0 76 -76 76q-70 0 -82 -59l-174 32q15 64 81 111.5t177 47.5q127 0 190 -54.5t63 -172.5v-197l5 -135h-173
l-4 66q-58 -79 -171 -79zM184 727q0 52 39 89t94 37t94 -37t39 -89t-39 -89t-94 -37t-94 37t-39 89zM259 727q0 -26 17 -44t41 -18q23 0 39.5 18t16.5 44q0 25 -16.5 42.5t-39.5 17.5q-24 0 -41 -17.5t-17 -42.5z" />
    <glyph glyph-name="ae" unicode="&#xe6;" horiz-adv-x="964" 
d="M35 153q0 92 68 133.5t204 41.5h78v22q0 77 -76 77q-70 0 -82 -59l-174 32q16 65 81 112t177 47q117 0 174 -67q64 67 180 67q135 0 205.5 -87.5t67.5 -248.5h-380q0 -46 31.5 -76.5t76.5 -30.5q67 0 105 59l153 -39q-27 -68 -94 -109.5t-169 -41.5q-143 0 -219 102
q-71 -102 -209 -102q-85 0 -141.5 48.5t-56.5 119.5zM657 436q-42 0 -68.5 -28t-31.5 -76h197q-2 48 -28.5 76t-68.5 28zM282 104q43 0 74.5 31t31.5 87v7q-27 1 -61 1q-110 0 -110 -65q0 -27 18 -44t47 -17z" />
    <glyph glyph-name="ccedilla" unicode="&#xe7;" horiz-adv-x="607" 
d="M318 -232q-81 0 -129 47l54 45q34 -29 65 -29q39 0 39 30t-31 30q-19 0 -40 -8l-55 30l40 75q-112 15 -169 89t-57 194q0 126 75.5 207t213.5 81q111 0 180 -55t77 -132l-182 -21q-17 75 -82 75q-43 0 -69.5 -38.5t-26.5 -115.5q0 -79 26.5 -116.5t69.5 -37.5q35 0 57 22
t28 58l182 -18q-16 -88 -82.5 -141.5t-182.5 -53.5l-20 -34l3 -3q20 5 46 5q40 0 67 -24.5t27 -65.5q0 -45 -34 -70t-90 -25z" />
    <glyph glyph-name="egrave" unicode="&#xe8;" horiz-adv-x="621" 
d="M318 -15q-123 0 -203 78.5t-80 208.5q0 127 77.5 207t208.5 80q136 0 206.5 -87.5t67.5 -248.5h-382q5 -49 35.5 -78t74.5 -29q67 0 105 59l153 -39q-27 -69 -93.5 -110t-169.5 -41zM314 436q-42 0 -68.5 -28t-31.5 -76h197q-2 48 -28.5 76t-68.5 28zM310 778l97 -167
h-140l-139 167h182z" />
    <glyph glyph-name="eacute" unicode="&#xe9;" horiz-adv-x="621" 
d="M318 -15q-123 0 -203 78.5t-80 208.5q0 127 77.5 207t208.5 80q136 0 206.5 -87.5t67.5 -248.5h-382q5 -49 35.5 -78t74.5 -29q67 0 105 59l153 -39q-27 -69 -93.5 -110t-169.5 -41zM314 436q-42 0 -68.5 -28t-31.5 -76h197q-2 48 -28.5 76t-68.5 28zM241 611l97 167h182
l-139 -167h-140z" />
    <glyph glyph-name="ecircumflex" unicode="&#xea;" horiz-adv-x="621" 
d="M318 -15q-123 0 -203 78.5t-80 208.5q0 127 77.5 207t208.5 80q136 0 206.5 -87.5t67.5 -248.5h-382q5 -49 35.5 -78t74.5 -29q67 0 105 59l153 -39q-27 -69 -93.5 -110t-169.5 -41zM314 436q-42 0 -68.5 -28t-31.5 -76h197q-2 48 -28.5 76t-68.5 28zM157 608v119l166 62
l166 -62v-121l-166 60z" />
    <glyph glyph-name="edieresis" unicode="&#xeb;" horiz-adv-x="621" 
d="M318 -15q-123 0 -203 78.5t-80 208.5q0 127 77.5 207t208.5 80q136 0 206.5 -87.5t67.5 -248.5h-382q5 -49 35.5 -78t74.5 -29q67 0 105 59l153 -39q-27 -69 -93.5 -110t-169.5 -41zM314 436q-42 0 -68.5 -28t-31.5 -76h197q-2 48 -28.5 76t-68.5 28zM361 623v155h161
v-155h-161zM124 623v155h161v-155h-161z" />
    <glyph glyph-name="igrave" unicode="&#xec;" horiz-adv-x="316" 
d="M65 0v545h186v-545h-186zM142 778l97 -167h-140l-139 167h182z" />
    <glyph glyph-name="iacute" unicode="&#xed;" horiz-adv-x="316" 
d="M65 0v545h186v-545h-186zM73 611l97 167h182l-139 -167h-140z" />
    <glyph glyph-name="icircumflex" unicode="&#xee;" horiz-adv-x="316" 
d="M13 608v119l143 62l143 -62v-121l-143 60zM65 0v545h186v-545h-186z" />
    <glyph glyph-name="idieresis" unicode="&#xef;" horiz-adv-x="316" 
d="M174 623v155h161v-155h-161zM-23 623v155h161v-155h-161zM65 0v545h186v-545h-186z" />
    <glyph glyph-name="eth" unicode="&#xf0;" horiz-adv-x="652" 
d="M319 -15q-136 0 -210 80t-74 217q0 114 65.5 187.5t156.5 73.5q69 0 106 -37l3 2q-39 58 -99 112l-113 -58l-31 63l86 44q-39 28 -67 45l96 89q63 -29 113 -62l104 53l32 -62l-74 -38q96 -80 147.5 -180t51.5 -207q0 -322 -293 -322zM322 118q50 0 75 41t25 113t-25 113
t-75 41q-51 0 -76 -41t-25 -113t25.5 -113t75.5 -41z" />
    <glyph glyph-name="ntilde" unicode="&#xf1;" horiz-adv-x="666" 
d="M65 0v545h173v-92q53 103 176 103q192 0 192 -212v-344h-186v315q0 56 -24 78t-55 22q-37 0 -63.5 -27t-26.5 -96v-292h-186zM240 615h-95q1 76 36 115t97 39q29 0 78 -17.5t68 -17.5q43 0 43 38h99q-1 -78 -35 -116.5t-93 -38.5q-30 0 -83.5 18.5t-69.5 18.5
q-42 0 -45 -39z" />
    <glyph glyph-name="ograve" unicode="&#xf2;" horiz-adv-x="644" 
d="M319 -15q-135 0 -209.5 79.5t-74.5 207.5q0 127 77 207t212 80t210 -80t75 -207t-77.5 -207t-212.5 -80zM322 118q50 0 75 41t25 113t-25 113t-75 41q-51 0 -76 -41t-25 -113t25.5 -113t75.5 -41zM311 778l97 -167h-140l-139 167h182z" />
    <glyph glyph-name="oacute" unicode="&#xf3;" horiz-adv-x="644" 
d="M319 -15q-135 0 -209.5 79.5t-74.5 207.5q0 127 77 207t212 80t210 -80t75 -207t-77.5 -207t-212.5 -80zM322 118q50 0 75 41t25 113t-25 113t-75 41q-51 0 -76 -41t-25 -113t25.5 -113t75.5 -41zM243 611l97 167h182l-139 -167h-140z" />
    <glyph glyph-name="ocircumflex" unicode="&#xf4;" horiz-adv-x="644" 
d="M319 -15q-135 0 -209.5 79.5t-74.5 207.5q0 127 77 207t212 80t210 -80t75 -207t-77.5 -207t-212.5 -80zM322 118q50 0 75 41t25 113t-25 113t-75 41q-51 0 -76 -41t-25 -113t25.5 -113t75.5 -41zM156 608v119l166 62l166 -62v-121l-166 60z" />
    <glyph glyph-name="otilde" unicode="&#xf5;" horiz-adv-x="644" 
d="M319 -15q-135 0 -209.5 79.5t-74.5 207.5q0 127 77 207t212 80t210 -80t75 -207t-77.5 -207t-212.5 -80zM322 118q50 0 75 41t25 113t-25 113t-75 41q-51 0 -76 -41t-25 -113t25.5 -113t75.5 -41zM217 615h-95q1 76 36 115t97 39q29 0 78 -17.5t68 -17.5q43 0 43 38h99
q-1 -78 -35 -116.5t-93 -38.5q-30 0 -83.5 18.5t-69.5 18.5q-42 0 -45 -39z" />
    <glyph glyph-name="odieresis" unicode="&#xf6;" horiz-adv-x="644" 
d="M319 -15q-135 0 -209.5 79.5t-74.5 207.5q0 127 77 207t212 80t210 -80t75 -207t-77.5 -207t-212.5 -80zM322 118q50 0 75 41t25 113t-25 113t-75 41q-51 0 -76 -41t-25 -113t25.5 -113t75.5 -41zM360 623v155h161v-155h-161zM123 623v155h161v-155h-161z" />
    <glyph glyph-name="divide" unicode="&#xf7;" horiz-adv-x="600" 
d="M225 441v138h150v-138h-150zM65 260v134h470v-134h-470zM225 75v138h150v-138h-150z" />
    <glyph glyph-name="oslash" unicode="&#xf8;" horiz-adv-x="644" 
d="M218 272q0 -44 9 -78l152 220q-24 19 -57 19q-52 0 -78 -42.5t-26 -118.5zM322 111q52 0 77.5 43t25.5 118q0 43 -9 76l-150 -219q22 -18 56 -18zM319 -15q-75 0 -134 28l-62 -90l-57 39l62 89q-93 79 -93 221q0 127 77 207t212 80q75 0 135 -29l58 83l58 -36l-59 -85
q93 -80 93 -220q0 -127 -77.5 -207t-212.5 -80z" />
    <glyph glyph-name="ugrave" unicode="&#xf9;" horiz-adv-x="656" 
d="M252 -13q-102 0 -147 57.5t-45 154.5v346h186v-317q0 -56 22.5 -78.5t51.5 -22.5q39 0 62 31t23 90v297h186v-545h-173v99q-49 -112 -166 -112zM311 778l97 -167h-140l-139 167h182z" />
    <glyph glyph-name="uacute" unicode="&#xfa;" horiz-adv-x="656" 
d="M252 -13q-102 0 -147 57.5t-45 154.5v346h186v-317q0 -56 22.5 -78.5t51.5 -22.5q39 0 62 31t23 90v297h186v-545h-173v99q-49 -112 -166 -112zM256 611l97 167h182l-139 -167h-140z" />
    <glyph glyph-name="ucircumflex" unicode="&#xfb;" horiz-adv-x="656" 
d="M252 -13q-102 0 -147 57.5t-45 154.5v346h186v-317q0 -56 22.5 -78.5t51.5 -22.5q39 0 62 31t23 90v297h186v-545h-173v99q-49 -112 -166 -112zM164 608v119l166 62l166 -62v-121l-166 60z" />
    <glyph glyph-name="udieresis" unicode="&#xfc;" horiz-adv-x="656" 
d="M252 -13q-102 0 -147 57.5t-45 154.5v346h186v-317q0 -56 22.5 -78.5t51.5 -22.5q39 0 62 31t23 90v297h186v-545h-173v99q-49 -112 -166 -112zM373 623v155h161v-155h-161zM136 623v155h161v-155h-161z" />
    <glyph glyph-name="yacute" unicode="&#xfd;" horiz-adv-x="602" 
d="M132 -222l80 214l-208 553h194l85 -251q8 -24 14 -51t7 -42l2 -15h6q8 54 25 108l80 251h181l-286 -767h-180zM246 611l97 167h182l-139 -167h-140z" />
    <glyph glyph-name="thorn" unicode="&#xfe;" horiz-adv-x="674" 
d="M346 111q44 0 72.5 40.5t28.5 119.5t-27.5 116t-69.5 37q-46 0 -75 -39t-29 -118q0 -81 28 -118.5t72 -37.5zM65 -222v1000h186v-309q64 89 165 89q110 0 165 -77.5t55 -197.5q0 -135 -69.5 -216t-176.5 -81q-85 0 -139 52v-260h-186z" />
    <glyph glyph-name="ydieresis" unicode="&#xff;" horiz-adv-x="602" 
d="M132 -222l80 214l-208 553h194l85 -251q8 -24 14 -51t7 -42l2 -15h6q8 54 25 108l80 251h181l-286 -767h-180zM358 623v155h161v-155h-161zM121 623v155h161v-155h-161z" />
    <glyph glyph-name="Amacron" unicode="&#x100;" horiz-adv-x="783" 
d="M346 461l-48 -153h178l-48 153l-35 127h-12q-15 -62 -35 -127zM574 0l-51 160h-272l-50 -160h-186l261 755h231l261 -755h-194zM210 805v117h363v-117h-363z" />
    <glyph glyph-name="amacron" unicode="&#x101;" horiz-adv-x="626" 
d="M282 106q44 0 74 30t30 86v8q-25 1 -59 1q-110 0 -110 -67q0 -26 18 -42t47 -16zM221 -13q-85 0 -135.5 46.5t-50.5 119.5q0 91 69.5 134t212.5 43l68 -2v23q0 76 -76 76q-70 0 -82 -59l-174 32q15 64 81 111.5t177 47.5q127 0 190 -54.5t63 -172.5v-197l5 -135h-173
l-4 66q-58 -79 -171 -79zM136 623v117h363v-117h-363z" />
    <glyph glyph-name="Abreve" unicode="&#x102;" horiz-adv-x="783" 
d="M346 461l-48 -153h178l-48 153l-35 127h-12q-15 -62 -35 -127zM574 0l-51 160h-272l-50 -160h-186l261 755h231l261 -755h-194zM395 796q-75 0 -126 37t-61 110h111q19 -47 75 -47t77 47h107q-5 -68 -57 -107.5t-126 -39.5z" />
    <glyph glyph-name="abreve" unicode="&#x103;" horiz-adv-x="626" 
d="M282 106q44 0 74 30t30 86v8q-25 1 -59 1q-110 0 -110 -67q0 -26 18 -42t47 -16zM221 -13q-85 0 -135.5 46.5t-50.5 119.5q0 91 69.5 134t212.5 43l68 -2v23q0 76 -76 76q-70 0 -82 -59l-174 32q15 64 81 111.5t177 47.5q127 0 190 -54.5t63 -172.5v-197l5 -135h-173
l-4 66q-58 -79 -171 -79zM319 608q-79 0 -129.5 41.5t-60.5 128.5h103q5 -28 28 -45.5t58 -17.5t58.5 17.5t29.5 45.5h99q-5 -81 -56.5 -125.5t-129.5 -44.5z" />
    <glyph glyph-name="Aogonek" unicode="&#x104;" horiz-adv-x="783" 
d="M671 0h-97l-51 160h-272l-50 -160h-186l261 755h231l261 -755q-42 -27 -59 -46.5t-17 -40.5q0 -20 13.5 -33t37.5 -13l24 1v-98q-25 -2 -57 -2q-70 0 -108.5 28.5t-38.5 81.5q0 70 108 122zM346 461l-48 -153h178l-48 153l-35 127h-12q-15 -62 -35 -127z" />
    <glyph glyph-name="aogonek" unicode="&#x105;" horiz-adv-x="626" 
d="M282 106q44 0 74 30t30 86v8q-25 1 -59 1q-110 0 -110 -67q0 -26 18 -42t47 -16zM473 0h-77l-4 66q-58 -79 -171 -79q-85 0 -135.5 46.5t-50.5 119.5q0 91 69.5 134t212.5 43l68 -2v23q0 76 -76 76q-70 0 -82 -59l-174 32q15 64 81 111.5t177 47.5q127 0 190 -54.5
t63 -172.5v-197l5 -135q-42 -29 -58.5 -47.5t-16.5 -39.5q0 -20 13.5 -33t37.5 -13l24 1v-98q-25 -2 -57 -2q-70 0 -108.5 28.5t-38.5 81.5q0 70 108 122z" />
    <glyph glyph-name="Cacute" unicode="&#x106;" horiz-adv-x="778" 
d="M412 -17q-180 0 -275 102.5t-95 285.5q0 179 101 289.5t269 110.5q139 0 227 -65.5t106 -170.5l-188 -28q-14 52 -51 82.5t-94 30.5q-76 0 -122 -59.5t-46 -180.5q0 -124 47 -185t121 -61q118 0 151 126l194 -32q-31 -114 -115.5 -179.5t-229.5 -65.5zM334 805l87 142
h188l-130 -142h-145z" />
    <glyph glyph-name="cacute" unicode="&#x107;" horiz-adv-x="607" 
d="M316 -15q-140 0 -210.5 76t-70.5 210q0 126 75.5 207t213.5 81q111 0 180 -55t77 -132l-182 -21q-17 75 -82 75q-43 0 -69.5 -38.5t-26.5 -115.5q0 -79 26.5 -116.5t69.5 -37.5q35 0 57 22t28 58l182 -18q-16 -88 -83 -141.5t-185 -53.5zM241 611l97 167h182l-139 -167
h-140z" />
    <glyph glyph-name="Ccircumflex" unicode="&#x108;" horiz-adv-x="778" 
d="M412 -17q-180 0 -275 102.5t-95 285.5q0 179 101 289.5t269 110.5q139 0 227 -65.5t106 -170.5l-188 -28q-14 52 -51 82.5t-94 30.5q-76 0 -122 -59.5t-46 -180.5q0 -124 47 -185t121 -61q118 0 151 126l194 -32q-31 -114 -115.5 -179.5t-229.5 -65.5zM245 798v114
l166 52l166 -52v-116l-166 50z" />
    <glyph glyph-name="ccircumflex" unicode="&#x109;" horiz-adv-x="607" 
d="M316 -15q-140 0 -210.5 76t-70.5 210q0 126 75.5 207t213.5 81q111 0 180 -55t77 -132l-182 -21q-17 75 -82 75q-43 0 -69.5 -38.5t-26.5 -115.5q0 -79 26.5 -116.5t69.5 -37.5q35 0 57 22t28 58l182 -18q-16 -88 -83 -141.5t-185 -53.5zM157 608v119l166 62l166 -62
v-121l-166 60z" />
    <glyph glyph-name="Cdotaccent" unicode="&#x10a;" horiz-adv-x="778" 
d="M412 -17q-180 0 -275 102.5t-95 285.5q0 179 101 289.5t269 110.5q139 0 227 -65.5t106 -170.5l-188 -28q-14 52 -51 82.5t-94 30.5q-76 0 -122 -59.5t-46 -180.5q0 -124 47 -185t121 -61q118 0 151 126l194 -32q-31 -114 -115.5 -179.5t-229.5 -65.5zM334 805v155h161
v-155h-161z" />
    <glyph glyph-name="cdotaccent" unicode="&#x10b;" horiz-adv-x="607" 
d="M316 -15q-140 0 -210.5 76t-70.5 210q0 126 75.5 207t213.5 81q111 0 180 -55t77 -132l-182 -21q-17 75 -82 75q-43 0 -69.5 -38.5t-26.5 -115.5q0 -79 26.5 -116.5t69.5 -37.5q35 0 57 22t28 58l182 -18q-16 -88 -83 -141.5t-185 -53.5zM243 623v155h161v-155h-161z" />
    <glyph glyph-name="Ccaron" unicode="&#x10c;" horiz-adv-x="778" 
d="M412 -17q-180 0 -275 102.5t-95 285.5q0 179 101 289.5t269 110.5q139 0 227 -65.5t106 -170.5l-188 -28q-14 52 -51 82.5t-94 30.5q-76 0 -122 -59.5t-46 -180.5q0 -124 47 -185t121 -61q118 0 151 126l194 -32q-31 -114 -115.5 -179.5t-229.5 -65.5zM577 957v-110
l-166 -52l-166 52v112l166 -50z" />
    <glyph glyph-name="ccaron" unicode="&#x10d;" horiz-adv-x="607" 
d="M316 -15q-140 0 -210.5 76t-70.5 210q0 126 75.5 207t213.5 81q111 0 180 -55t77 -132l-182 -21q-17 75 -82 75q-43 0 -69.5 -38.5t-26.5 -115.5q0 -79 26.5 -116.5t69.5 -37.5q35 0 57 22t28 58l182 -18q-16 -88 -83 -141.5t-185 -53.5zM489 785v-118l-166 -62l-166 62
v120l166 -60z" />
    <glyph glyph-name="Dcaron" unicode="&#x10e;" horiz-adv-x="784" 
d="M334 0h-259v755h259q87 0 158.5 -20.5t129 -63t90 -117t32.5 -175.5q0 -186 -108.5 -282.5t-301.5 -96.5zM265 152h69q101 0 156 51.5t55 178.5q0 118 -54.5 170t-156.5 52h-69v-452zM529 957v-110l-166 -52l-166 52v112l166 -50z" />
    <glyph glyph-name="dcaron" unicode="&#x10f;" horiz-adv-x="672" 
d="M326 113q50 0 75 42.5t25 113.5q0 72 -24.5 114.5t-73.5 42.5q-51 0 -77 -42.5t-26 -114.5q0 -71 25.5 -113.5t75.5 -42.5zM263 -11q-103 0 -164 76t-61 204t65 207.5t182 79.5q85 0 136 -59v281h186v-778h-171v61q-62 -72 -173 -72zM647 570l25 208h150l-85 -208h-90z
" />
    <glyph glyph-name="Dcroat" unicode="&#x110;" horiz-adv-x="794" 
d="M344 0h-259v327h-65v117h65v311h259q87 0 158.5 -20.5t129 -63t90 -117t32.5 -175.5q0 -186 -108.5 -282.5t-301.5 -96.5zM273 152h71q101 0 156 51.5t55 178.5q0 118 -54.5 170t-156.5 52h-71v-160h133v-117h-133v-175z" />
    <glyph glyph-name="dcroat" unicode="&#x111;" horiz-adv-x="672" 
d="M326 113q50 0 75 42.5t25 113.5q0 72 -24.5 114.5t-73.5 42.5q-51 0 -77 -42.5t-26 -114.5q0 -71 25.5 -113.5t75.5 -42.5zM436 61q-62 -72 -173 -72q-103 0 -164 76t-61 204t65 207.5t182 79.5q85 0 136 -59v111h-137v94h137v76h186v-76h75v-94h-75v-608h-171v61z" />
    <glyph glyph-name="Emacron" unicode="&#x112;" horiz-adv-x="657" 
d="M75 0v755h522v-155h-332v-147h284v-151h-284v-147h352v-155h-542zM165 805v117h363v-117h-363z" />
    <glyph glyph-name="emacron" unicode="&#x113;" horiz-adv-x="621" 
d="M318 -15q-123 0 -203 78.5t-80 208.5q0 127 77.5 207t208.5 80q136 0 206.5 -87.5t67.5 -248.5h-382q5 -49 35.5 -78t74.5 -29q67 0 105 59l153 -39q-27 -69 -93.5 -110t-169.5 -41zM314 436q-42 0 -68.5 -28t-31.5 -76h197q-2 48 -28.5 76t-68.5 28zM142 623v117h363
v-117h-363z" />
    <glyph glyph-name="Ebreve" unicode="&#x114;" horiz-adv-x="657" 
d="M75 0v755h522v-155h-332v-147h284v-151h-284v-147h352v-155h-542zM346 796q-75 0 -126 37t-61 110h111q19 -47 75 -47t77 47h107q-5 -68 -57 -107.5t-126 -39.5z" />
    <glyph glyph-name="ebreve" unicode="&#x115;" horiz-adv-x="621" 
d="M318 -15q-123 0 -203 78.5t-80 208.5q0 127 77.5 207t208.5 80q136 0 206.5 -87.5t67.5 -248.5h-382q5 -49 35.5 -78t74.5 -29q67 0 105 59l153 -39q-27 -69 -93.5 -110t-169.5 -41zM314 436q-42 0 -68.5 -28t-31.5 -76h197q-2 48 -28.5 76t-68.5 28zM325 608
q-79 0 -129.5 41.5t-60.5 128.5h103q5 -28 28 -45.5t58 -17.5t58.5 17.5t29.5 45.5h99q-5 -81 -56.5 -125.5t-129.5 -44.5z" />
    <glyph glyph-name="Edotaccent" unicode="&#x116;" horiz-adv-x="657" 
d="M75 0v755h522v-155h-332v-147h284v-151h-284v-147h352v-155h-542zM266 805v155h161v-155h-161z" />
    <glyph glyph-name="edotaccent" unicode="&#x117;" horiz-adv-x="621" 
d="M318 -15q-123 0 -203 78.5t-80 208.5q0 127 77.5 207t208.5 80q136 0 206.5 -87.5t67.5 -248.5h-382q5 -49 35.5 -78t74.5 -29q67 0 105 59l153 -39q-27 -69 -93.5 -110t-169.5 -41zM314 436q-42 0 -68.5 -28t-31.5 -76h197q-2 48 -28.5 76t-68.5 28zM243 623v155h161
v-155h-161z" />
    <glyph glyph-name="Eogonek" unicode="&#x118;" horiz-adv-x="657" 
d="M521 0h-446v755h522v-155h-332v-147h284v-151h-284v-147h352v-155q-42 -29 -58.5 -47.5t-16.5 -39.5q0 -20 13.5 -33t37.5 -13l24 1v-98q-25 -2 -57 -2q-70 0 -108.5 28.5t-38.5 81.5q0 70 108 122z" />
    <glyph glyph-name="eogonek" unicode="&#x119;" horiz-adv-x="621" 
d="M488 21q-76 -61 -89 -78q-11 -15 -11 -31q0 -45 55 -45l20 1v-98q-27 -2 -57 -2q-69 0 -108 27.5t-39 78.5q0 36 19.5 60t60.5 48v5q-12 -2 -25 -2q-124 0 -201.5 78t-77.5 209q0 127 77.5 207t208.5 80q137 0 207 -87.5t67 -248.5h-382q5 -49 35.5 -78t75.5 -29
q67 0 104 59l153 -39q-23 -58 -93 -115zM314 436q-42 0 -68.5 -28t-31.5 -76h197q-2 48 -28.5 76t-68.5 28z" />
    <glyph glyph-name="Ecaron" unicode="&#x11a;" horiz-adv-x="657" 
d="M75 0v755h522v-155h-332v-147h284v-151h-284v-147h352v-155h-542zM512 957v-110l-166 -52l-166 52v112l166 -50z" />
    <glyph glyph-name="ecaron" unicode="&#x11b;" horiz-adv-x="621" 
d="M318 -15q-123 0 -203 78.5t-80 208.5q0 127 77.5 207t208.5 80q136 0 206.5 -87.5t67.5 -248.5h-382q5 -49 35.5 -78t74.5 -29q67 0 105 59l153 -39q-27 -69 -93.5 -110t-169.5 -41zM314 436q-42 0 -68.5 -28t-31.5 -76h197q-2 48 -28.5 76t-68.5 28zM489 785v-118
l-166 -62l-166 62v120l166 -60z" />
    <glyph glyph-name="Gcircumflex" unicode="&#x11c;" horiz-adv-x="817" 
d="M374 -16q-150 0 -241 101.5t-91 282.5q0 187 103 295t270 108q133 0 215.5 -63t108.5 -164l-184 -30q-35 112 -140 112q-77 0 -126 -61t-49 -185q0 -125 49 -187t124 -62q74 0 114.5 43.5t40.5 103.5v8h-162v133h337v-419h-144l-16 82h-5q-34 -49 -81 -73.5t-123 -24.5z
M249 798v114l166 52l166 -52v-116l-166 50z" />
    <glyph glyph-name="gcircumflex" unicode="&#x11d;" horiz-adv-x="672" 
d="M326 125q49 0 74.5 42t25.5 112t-26 112t-74 42q-49 0 -75 -42t-26 -112t26 -112t75 -42zM302 -232q-102 0 -167.5 40t-85.5 107l158 51q31 -70 105 -70q111 0 111 119v60q-57 -72 -158 -72q-59 0 -104 22.5t-71 61.5t-39 87t-13 104q0 127 68 202.5t179 75.5
q102 0 151 -72v61h171v-481q0 -146 -72.5 -221t-232.5 -75zM158 608v119l166 62l166 -62v-121l-166 60z" />
    <glyph glyph-name="Gbreve" unicode="&#x11e;" horiz-adv-x="817" 
d="M374 -16q-150 0 -241 101.5t-91 282.5q0 187 103 295t270 108q133 0 215.5 -63t108.5 -164l-184 -30q-35 112 -140 112q-77 0 -126 -61t-49 -185q0 -125 49 -187t124 -62q74 0 114.5 43.5t40.5 103.5v8h-162v133h337v-419h-144l-16 82h-5q-34 -49 -81 -73.5t-123 -24.5z
M423 796q-75 0 -126 37t-61 110h111q19 -47 75 -47t77 47h107q-5 -68 -57 -107.5t-126 -39.5z" />
    <glyph glyph-name="gbreve" unicode="&#x11f;" horiz-adv-x="672" 
d="M326 125q49 0 74.5 42t25.5 112t-26 112t-74 42q-49 0 -75 -42t-26 -112t26 -112t75 -42zM302 -232q-102 0 -167.5 40t-85.5 107l158 51q31 -70 105 -70q111 0 111 119v60q-57 -72 -158 -72q-59 0 -104 22.5t-71 61.5t-39 87t-13 104q0 127 68 202.5t179 75.5
q102 0 151 -72v61h171v-481q0 -146 -72.5 -221t-232.5 -75zM326 608q-79 0 -129.5 41.5t-60.5 128.5h103q5 -28 28 -45.5t58 -17.5t58.5 17.5t29.5 45.5h99q-5 -81 -56.5 -125.5t-129.5 -44.5z" />
    <glyph glyph-name="Gdotaccent" unicode="&#x120;" horiz-adv-x="817" 
d="M374 -16q-150 0 -241 101.5t-91 282.5q0 187 103 295t270 108q133 0 215.5 -63t108.5 -164l-184 -30q-35 112 -140 112q-77 0 -126 -61t-49 -185q0 -125 49 -187t124 -62q74 0 114.5 43.5t40.5 103.5v8h-162v133h337v-419h-144l-16 82h-5q-34 -49 -81 -73.5t-123 -24.5z
M339 805v155h161v-155h-161z" />
    <glyph glyph-name="gdotaccent" unicode="&#x121;" horiz-adv-x="672" 
d="M326 125q49 0 74.5 42t25.5 112t-26 112t-74 42q-49 0 -75 -42t-26 -112t26 -112t75 -42zM302 -232q-102 0 -167.5 40t-85.5 107l158 51q31 -70 105 -70q111 0 111 119v60q-57 -72 -158 -72q-59 0 -104 22.5t-71 61.5t-39 87t-13 104q0 127 68 202.5t179 75.5
q102 0 151 -72v61h171v-481q0 -146 -72.5 -221t-232.5 -75zM244 623v155h161v-155h-161z" />
    <glyph glyph-name="Gcommaaccent" unicode="&#x122;" horiz-adv-x="817" 
d="M374 -16q-150 0 -241 101.5t-91 282.5q0 187 103 295t270 108q133 0 215.5 -63t108.5 -164l-184 -30q-35 112 -140 112q-77 0 -126 -61t-49 -185q0 -125 49 -187t124 -62q74 0 114.5 43.5t40.5 103.5v8h-162v133h337v-419h-144l-16 82h-5q-34 -49 -81 -73.5t-123 -24.5z
M319 -245l-10 55q75 11 83 41h-84v101h171v-48q0 -70 -34 -103t-126 -46z" />
    <glyph glyph-name="gcommaaccent" unicode="&#x123;" horiz-adv-x="672" 
d="M326 125q49 0 74.5 42t25.5 112t-26 112t-74 42q-49 0 -75 -42t-26 -112t26 -112t75 -42zM302 -232q-102 0 -167.5 40t-85.5 107l158 51q31 -70 105 -70q111 0 111 119v60q-57 -72 -158 -72q-59 0 -104 22.5t-71 61.5t-39 87t-13 104q0 127 68 202.5t179 75.5
q102 0 151 -72v61h171v-481q0 -146 -72.5 -221t-232.5 -75zM399 824l10 -55q-75 -11 -83 -41h84v-101h-171v48q0 70 34 103t126 46z" />
    <glyph glyph-name="Hcircumflex" unicode="&#x124;" horiz-adv-x="810" 
d="M543 0v308h-276v-308h-192v755h192v-291h276v291h192v-755h-192zM239 798v114l166 52l166 -52v-116l-166 50z" />
    <glyph glyph-name="hcircumflex" unicode="&#x125;" horiz-adv-x="666" 
d="M251 778v-316q47 95 163 95q192 0 192 -212v-345h-186v316q0 56 -24 78t-55 22q-37 0 -63.5 -27t-26.5 -96v-293h-186v778h186zM-5 798v114l166 52l166 -52v-116l-166 50z" />
    <glyph glyph-name="Hbar" unicode="&#x126;" horiz-adv-x="810" 
d="M267 464h276v93h-276v-93zM267 308v-308h-192v557h-60v83h60v115h192v-115h276v115h192v-115h60v-83h-60v-557h-192v308h-276z" />
    <glyph glyph-name="hbar" unicode="&#x127;" horiz-adv-x="666" 
d="M251 293v-293h-186v598h-75v104h75v76h186v-76h137v-104h-137v-136q47 95 163 95q192 0 192 -212v-345h-186v316q0 56 -24 78t-55 22q-37 0 -63.5 -27t-26.5 -96z" />
    <glyph glyph-name="Itilde" unicode="&#x128;" horiz-adv-x="342" 
d="M102 802h-104q0 76 28 116t79 40q25 0 68.5 -18.5t54.5 -18.5q27 0 27 38h106q0 -77 -28 -115.5t-78 -38.5q-25 0 -68 19t-55 19q-30 0 -30 -41zM75 0v755h192v-755h-192z" />
    <glyph glyph-name="itilde" unicode="&#x129;" horiz-adv-x="316" 
d="M69 611h-86q0 164 107 164q29 0 79 -19.5t60 -19.5q29 0 29 42h88q0 -161 -105 -161q-28 0 -78.5 20t-61.5 20q-32 0 -32 -46zM65 0v545h186v-545h-186z" />
    <glyph glyph-name="Imacron" unicode="&#x12a;" horiz-adv-x="342" 
d="M75 0v755h192v-755h-192zM24 805v117h290v-117h-290z" />
    <glyph glyph-name="imacron" unicode="&#x12b;" horiz-adv-x="316" 
d="M65 0v545h186v-545h-186zM11 623v117h290v-117h-290z" />
    <glyph glyph-name="Ibreve" unicode="&#x12c;" horiz-adv-x="342" 
d="M174 796q-69 0 -116.5 37.5t-53.5 109.5h106q18 -44 65 -44q48 0 66 44h99q-1 -68 -49.5 -107.5t-116.5 -39.5zM75 0v755h192v-755h-192z" />
    <glyph glyph-name="ibreve" unicode="&#x12d;" horiz-adv-x="316" 
d="M158 608q-153 0 -172 170h98q5 -28 25 -45.5t50 -17.5t50.5 17.5t25.5 45.5h91q-4 -81 -49 -125.5t-119 -44.5zM65 0v545h186v-545h-186z" />
    <glyph glyph-name="Iogonek" unicode="&#x12e;" horiz-adv-x="342" 
d="M171 0h-96v755h192v-755q-42 -29 -58.5 -47.5t-16.5 -39.5q0 -20 13.5 -33t37.5 -13l24 1v-98q-25 -2 -57 -2q-70 0 -108.5 28.5t-38.5 81.5q0 70 108 122z" />
    <glyph glyph-name="iogonek" unicode="&#x12f;" horiz-adv-x="316" 
d="M65 622v156h186v-156h-186zM155 0h-90v545h186v-545q-42 -29 -58.5 -47.5t-16.5 -39.5q0 -20 13.5 -33t37.5 -13l24 1v-98q-25 -2 -57 -2q-70 0 -108.5 28.5t-38.5 81.5q0 70 108 122z" />
    <glyph glyph-name="Idotaccent" unicode="&#x130;" horiz-adv-x="342" 
d="M75 0v755h192v-755h-192zM91 805v155h161v-155h-161z" />
    <glyph glyph-name="dotlessi" unicode="&#x131;" horiz-adv-x="316" 
d="M65 0v545h186v-545h-186z" />
    <glyph glyph-name="IJ" unicode="&#x132;" horiz-adv-x="954" 
d="M75 0v755h192v-755h-192zM631 -17q-128 0 -201 58.5t-83 158.5l184 18q16 -85 98 -85q42 0 63.5 23t21.5 77v522h192v-513q0 -117 -65 -188t-210 -71z" />
    <glyph glyph-name="ij" unicode="&#x133;" horiz-adv-x="632" 
d="M65 622v156h186v-156h-186zM65 0v545h186v-545h-186zM381 622v156h186v-156h-186zM341 -232q-16 0 -35 2t-30 4l-11 3l13 140q28 -5 32 -5q71 0 71 74v559h186v-549q0 -109 -56.5 -168.5t-169.5 -59.5z" />
    <glyph glyph-name="Jcircumflex" unicode="&#x134;" horiz-adv-x="654" 
d="M309 -17q-128 0 -201 58.5t-83 158.5l184 18q16 -85 98 -85q42 0 63.5 23t21.5 77v522h192v-513q0 -117 -65 -188t-210 -71zM310 798v114l166 52l166 -52v-116l-166 50z" />
    <glyph glyph-name="jcircumflex" unicode="&#x135;" horiz-adv-x="316" 
d="M13 608v119l143 62l143 -62v-121l-143 60zM25 -232q-16 0 -35 2t-30 4l-11 3l13 140q27 -5 32 -5q71 0 71 74v559h186v-549q0 -109 -56.5 -168.5t-169.5 -59.5z" />
    <glyph glyph-name="Kcommaaccent" unicode="&#x136;" horiz-adv-x="770" 
d="M264 196v-196h-189v755h189v-331l258 331h206l-252 -312l284 -443h-226l-187 298zM321 -245l-10 55q75 11 83 41h-84v101h171v-48q0 -70 -34 -103t-126 -46z" />
    <glyph glyph-name="kcommaaccent" unicode="&#x137;" horiz-adv-x="655" 
d="M430 0l-132 217l-48 -54v-163h-185v778h185v-429l167 196h205l-193 -212l207 -333h-206zM269 -245l-10 55q75 11 83 41h-84v101h171v-48q0 -70 -34 -103t-126 -46z" />
    <glyph glyph-name="Lacute" unicode="&#x139;" horiz-adv-x="629" 
d="M75 0v755h192v-598h334v-157h-526zM98 805l87 142h188l-130 -142h-145z" />
    <glyph glyph-name="lacute" unicode="&#x13a;" horiz-adv-x="316" 
d="M65 0v778h186v-778h-186zM81 805l87 142h188l-130 -142h-145z" />
    <glyph glyph-name="Lcommaaccent" unicode="&#x13b;" horiz-adv-x="629" 
d="M75 0v755h192v-598h334v-157h-526zM258 -245l-10 55q75 11 83 41h-84v101h171v-48q0 -70 -34 -103t-126 -46z" />
    <glyph glyph-name="lcommaaccent" unicode="&#x13c;" horiz-adv-x="316" 
d="M65 0v778h186v-778h-186zM78 -245l-10 55q75 11 83 41h-84v101h171v-48q0 -70 -34 -103t-126 -46z" />
    <glyph glyph-name="Lcaron" unicode="&#x13d;" horiz-adv-x="629" 
d="M75 0v755h192v-598h334v-157h-526zM379 547l25 208h150l-85 -208h-90z" />
    <glyph glyph-name="lcaron" unicode="&#x13e;" horiz-adv-x="316" 
d="M65 0v778h186v-778h-186zM291 570l25 208h150l-85 -208h-90z" />
    <glyph glyph-name="Ldot" unicode="&#x13f;" horiz-adv-x="629" 
d="M75 0v755h192v-598h334v-157h-526zM399 308v175h186v-175h-186z" />
    <glyph glyph-name="ldot" unicode="&#x140;" horiz-adv-x="501" 
d="M315 308v175h186v-175h-186zM65 0v778h186v-778h-186z" />
    <glyph glyph-name="Lslash" unicode="&#x141;" horiz-adv-x="629" 
d="M601 0h-526v280l-80 -33v127l80 33v348h192v-270l173 71v-126l-173 -71v-202h334v-157z" />
    <glyph glyph-name="lslash" unicode="&#x142;" horiz-adv-x="316" 
d="M251 0h-186v303l-80 -36v132l80 35v344h186v-261l80 35v-131l-80 -36v-385z" />
    <glyph glyph-name="Nacute" unicode="&#x143;" horiz-adv-x="814" 
d="M75 0v755h208l233 -387q12 -19 22.5 -40.5t15.5 -33.5l5 -12h5v473h175v-755h-196l-241 397q-13 21 -24 43t-16 34l-5 11h-5v-485h-177zM345 805l87 142h188l-130 -142h-145z" />
    <glyph glyph-name="nacute" unicode="&#x144;" horiz-adv-x="666" 
d="M65 0v545h173v-92q53 103 176 103q192 0 192 -212v-344h-186v315q0 56 -24 78t-55 22q-37 0 -63.5 -27t-26.5 -96v-292h-186zM282 611l97 167h182l-139 -167h-140z" />
    <glyph glyph-name="Ncommaaccent" unicode="&#x145;" horiz-adv-x="814" 
d="M75 0v755h208l233 -387q12 -19 22.5 -40.5t15.5 -33.5l5 -12h5v473h175v-755h-196l-241 397q-13 21 -24 43t-16 34l-5 11h-5v-485h-177zM342 -245l-10 55q75 11 83 41h-84v101h171v-48q0 -70 -34 -103t-126 -46z" />
    <glyph glyph-name="ncommaaccent" unicode="&#x146;" horiz-adv-x="666" 
d="M65 0v545h173v-92q53 103 176 103q192 0 192 -212v-344h-186v315q0 56 -24 78t-55 22q-37 0 -63.5 -27t-26.5 -96v-292h-186zM261 -245l-10 55q75 11 83 41h-84v101h171v-48q0 -70 -34 -103t-126 -46z" />
    <glyph glyph-name="Ncaron" unicode="&#x147;" horiz-adv-x="814" 
d="M75 0v755h208l233 -387q12 -19 22.5 -40.5t15.5 -33.5l5 -12h5v473h175v-755h-196l-241 397q-13 21 -24 43t-16 34l-5 11h-5v-485h-177zM588 957v-110l-166 -52l-166 52v112l166 -50z" />
    <glyph glyph-name="ncaron" unicode="&#x148;" horiz-adv-x="666" 
d="M65 0v545h173v-92q53 103 176 103q192 0 192 -212v-344h-186v315q0 56 -24 78t-55 22q-37 0 -63.5 -27t-26.5 -96v-292h-186zM525 785v-118l-166 -62l-166 62v120l166 -60z" />
    <glyph glyph-name="Eng" unicode="&#x14a;" horiz-adv-x="814" 
d="M513 -232q-16 0 -35 2t-30 4l-11 3l13 140q28 -5 32 -5q71 0 71 74v14h-10l-241 397q-13 21 -24 43t-16 34l-5 11h-5v-485h-177v755h208l233 -387q12 -19 22.5 -40.5t15.5 -33.5l5 -12h5v473h175v-759q0 -109 -56.5 -168.5t-169.5 -59.5z" />
    <glyph glyph-name="eng" unicode="&#x14b;" horiz-adv-x="666" 
d="M420 315q0 56 -24 78t-55 22q-37 0 -63.5 -27t-26.5 -96v-292h-186v545h173v-92q53 103 176 103q192 0 192 -212v-348q0 -109 -56.5 -168.5t-169.5 -59.5q-16 0 -35 2t-30 4l-11 3l13 140q27 -5 32 -5q71 0 71 74v329z" />
    <glyph glyph-name="Omacron" unicode="&#x14c;" horiz-adv-x="826" 
d="M412 -16q-173 0 -271.5 107t-98.5 287q0 179 99.5 286t272.5 107t271.5 -106.5t98.5 -286.5t-99.5 -287t-272.5 -107zM413 136q77 0 123 60t46 182t-46 181.5t-123 59.5t-123 -59.5t-46 -181.5t46 -182t123 -60zM232 805v117h363v-117h-363z" />
    <glyph glyph-name="omacron" unicode="&#x14d;" horiz-adv-x="644" 
d="M319 -15q-135 0 -209.5 79.5t-74.5 207.5q0 127 77 207t212 80t210 -80t75 -207t-77.5 -207t-212.5 -80zM322 118q50 0 75 41t25 113t-25 113t-75 41q-51 0 -76 -41t-25 -113t25.5 -113t75.5 -41zM141 623v117h363v-117h-363z" />
    <glyph glyph-name="Obreve" unicode="&#x14e;" horiz-adv-x="826" 
d="M412 -16q-173 0 -271.5 107t-98.5 287q0 179 99.5 286t272.5 107t271.5 -106.5t98.5 -286.5t-99.5 -287t-272.5 -107zM413 136q77 0 123 60t46 182t-46 181.5t-123 59.5t-123 -59.5t-46 -181.5t46 -182t123 -60zM417 796q-75 0 -126 37t-61 110h111q19 -47 75 -47t77 47
h107q-5 -68 -57 -107.5t-126 -39.5z" />
    <glyph glyph-name="obreve" unicode="&#x14f;" horiz-adv-x="644" 
d="M319 -15q-135 0 -209.5 79.5t-74.5 207.5q0 127 77 207t212 80t210 -80t75 -207t-77.5 -207t-212.5 -80zM322 118q50 0 75 41t25 113t-25 113t-75 41q-51 0 -76 -41t-25 -113t25.5 -113t75.5 -41zM324 608q-79 0 -129.5 41.5t-60.5 128.5h103q5 -28 28 -45.5t58 -17.5
t58.5 17.5t29.5 45.5h99q-5 -81 -56.5 -125.5t-129.5 -44.5z" />
    <glyph glyph-name="Ohungarumlaut" unicode="&#x150;" horiz-adv-x="826" 
d="M412 -16q-173 0 -271.5 107t-98.5 287q0 179 99.5 286t272.5 107t271.5 -106.5t98.5 -286.5t-99.5 -287t-272.5 -107zM413 136q77 0 123 60t46 182t-46 181.5t-123 59.5t-123 -59.5t-46 -181.5t46 -182t123 -60zM241 805l70 142h153l-88 -142h-135zM441 805l70 142h153
l-88 -142h-135z" />
    <glyph glyph-name="ohungarumlaut" unicode="&#x151;" horiz-adv-x="644" 
d="M319 -15q-135 0 -209.5 79.5t-74.5 207.5q0 127 77 207t212 80t210 -80t75 -207t-77.5 -207t-212.5 -80zM322 118q50 0 75 41t25 113t-25 113t-75 41q-51 0 -76 -41t-25 -113t25.5 -113t75.5 -41zM152 611l85 167h153l-107 -167h-131zM352 611l85 167h153l-107 -167h-131
z" />
    <glyph glyph-name="OE" unicode="&#x152;" horiz-adv-x="1158" 
d="M413 133q77 0 124 60.5t47 184.5t-47 184.5t-124 60.5t-124 -61t-47 -185t47 -184t124 -60zM586 0v66q-69 -79 -198 -79q-156 0 -251 106.5t-95 284.5q0 179 96 284.5t265 105.5q115 0 183 -73v60h512v-155h-332v-150h284v-145h-284v-150h352v-155h-532z" />
    <glyph glyph-name="oe" unicode="&#x153;" horiz-adv-x="996" 
d="M689 -15q-131 0 -181 79h-2q-63 -79 -187 -79q-135 0 -209.5 79.5t-74.5 207.5t75.5 207.5t213.5 79.5q124 0 184 -91h2q67 91 185 91q141 0 210 -89t60 -246h-372q3 -49 29 -78.5t68 -29.5q39 0 61 13.5t37 43.5l165 -32q-54 -156 -264 -156zM690 436q-42 0 -68 -29.5
t-29 -78.5h194q-2 49 -27.5 78.5t-69.5 29.5zM322 118q50 0 75 41t25 113t-25 113t-75 41q-51 0 -76 -41t-25 -113t25.5 -113t75.5 -41z" />
    <glyph glyph-name="Racute" unicode="&#x154;" horiz-adv-x="733" 
d="M364 614h-97v-204h97q123 0 123 101q0 59 -33 81t-90 22zM502 0l-134 258h-101v-258h-192v755h330q130 0 204.5 -60.5t74.5 -170.5q0 -147 -134 -214v-2l161 -308h-209zM285 805l87 142h188l-130 -142h-145z" />
    <glyph glyph-name="racute" unicode="&#x155;" horiz-adv-x="453" 
d="M65 0v545h173v-102h4q21 49 52 75t62.5 32t74.5 2l-12 -177q-26 4 -50 4q-63 0 -91 -36q-27 -33 -27 -94v-249h-186zM182 611l97 167h182l-139 -167h-140z" />
    <glyph glyph-name="Rcommaaccent" unicode="&#x156;" horiz-adv-x="733" 
d="M364 614h-97v-204h97q123 0 123 101q0 59 -33 81t-90 22zM502 0l-134 258h-101v-258h-192v755h330q130 0 204.5 -60.5t74.5 -170.5q0 -147 -134 -214v-2l161 -308h-209zM310 -245l-10 55q75 11 83 41h-84v101h171v-48q0 -70 -34 -103t-126 -46z" />
    <glyph glyph-name="rcommaaccent" unicode="&#x157;" horiz-adv-x="453" 
d="M65 0v545h173v-102h4q21 49 52 75t62.5 32t74.5 2l-12 -177q-26 4 -50 4q-63 0 -91 -36q-27 -33 -27 -94v-249h-186zM84 -245l-10 55q75 11 83 41h-84v101h171v-48q0 -70 -34 -103t-126 -46z" />
    <glyph glyph-name="Rcaron" unicode="&#x158;" horiz-adv-x="733" 
d="M364 614h-97v-204h97q123 0 123 101q0 59 -33 81t-90 22zM502 0l-134 258h-101v-258h-192v755h330q130 0 204.5 -60.5t74.5 -170.5q0 -147 -134 -214v-2l161 -308h-209zM525 957v-110l-166 -52l-166 52v112l166 -50z" />
    <glyph glyph-name="rcaron" unicode="&#x159;" horiz-adv-x="453" 
d="M65 0v545h173v-102h4q21 49 52 75t62.5 32t74.5 2l-12 -177q-26 4 -50 4q-63 0 -91 -36q-27 -33 -27 -94v-249h-186zM422 785v-118l-166 -62l-166 62v120l166 -60z" />
    <glyph glyph-name="Sacute" unicode="&#x15a;" horiz-adv-x="721" 
d="M357 -17q-142 0 -232 64.5t-103 159.5l195 24q13 -48 51.5 -74.5t92.5 -26.5q59 0 89.5 22t30.5 60q0 60 -91 79l-123 26q-209 44 -209 224q0 101 80.5 166.5t220.5 65.5q130 0 211 -57t100 -151l-190 -24q-25 89 -122 89q-55 0 -81 -20t-26 -49q0 -30 20.5 -50t74.5 -31
l122 -26q112 -24 163 -80t51 -144q0 -107 -79 -177t-246 -70zM291 805l87 142h188l-130 -142h-145z" />
    <glyph glyph-name="sacute" unicode="&#x15b;" horiz-adv-x="595" 
d="M295 -17q-116 0 -183.5 44.5t-78.5 124.5l174 18q20 -64 92 -64q79 0 79 45q0 19 -11.5 29.5t-46.5 16.5l-88 14q-94 16 -138 55.5t-44 113.5q0 78 68.5 128.5t178.5 50.5q109 0 174.5 -44.5t77.5 -118.5l-172 -18q-11 59 -82 59q-32 0 -51 -10.5t-19 -29.5t14 -29
t48 -16l98 -16q90 -15 130.5 -54.5t40.5 -109.5q0 -87 -65 -138t-196 -51zM222 611l97 167h182l-139 -167h-140z" />
    <glyph glyph-name="Scircumflex" unicode="&#x15c;" horiz-adv-x="721" 
d="M357 -17q-142 0 -232 64.5t-103 159.5l195 24q13 -48 51.5 -74.5t92.5 -26.5q59 0 89.5 22t30.5 60q0 60 -91 79l-123 26q-209 44 -209 224q0 101 80.5 166.5t220.5 65.5q130 0 211 -57t100 -151l-190 -24q-25 89 -122 89q-55 0 -81 -20t-26 -49q0 -30 20.5 -50t74.5 -31
l122 -26q112 -24 163 -80t51 -144q0 -107 -79 -177t-246 -70zM202 798v114l166 52l166 -52v-116l-166 50z" />
    <glyph glyph-name="scircumflex" unicode="&#x15d;" horiz-adv-x="595" 
d="M295 -17q-116 0 -183.5 44.5t-78.5 124.5l174 18q20 -64 92 -64q79 0 79 45q0 19 -11.5 29.5t-46.5 16.5l-88 14q-94 16 -138 55.5t-44 113.5q0 78 68.5 128.5t178.5 50.5q109 0 174.5 -44.5t77.5 -118.5l-172 -18q-11 59 -82 59q-32 0 -51 -10.5t-19 -29.5t14 -29
t48 -16l98 -16q90 -15 130.5 -54.5t40.5 -109.5q0 -87 -65 -138t-196 -51zM142 608v119l166 62l166 -62v-121l-166 60z" />
    <glyph glyph-name="Scedilla" unicode="&#x15e;" horiz-adv-x="721" 
d="M363 -232q-81 0 -129 47l54 45q34 -29 65 -29q39 0 39 30t-31 30q-19 0 -40 -8l-55 30l39 73q-121 12 -196 73.5t-87 147.5l195 24q13 -48 51.5 -74.5t92.5 -26.5q59 0 89.5 22t30.5 60q0 61 -91 79l-123 26q-209 45 -209 224q0 101 80.5 166.5t220.5 65.5q130 0 211 -57
t100 -151l-190 -24q-25 89 -122 89q-55 0 -81 -20t-26 -49q0 -30 20.5 -50t74.5 -31l122 -26q112 -24 163 -80t51 -144q0 -106 -78 -176.5t-241 -70.5l-19 -32l3 -3q20 5 46 5q40 0 67 -24.5t27 -65.5q0 -45 -34 -70t-90 -25z" />
    <glyph glyph-name="scedilla" unicode="&#x15f;" horiz-adv-x="595" 
d="M303 -232q-81 0 -129 47l54 45q34 -29 65 -29q39 0 39 30t-31 30q-19 0 -40 -8l-55 30l38 72q-93 10 -147 53t-64 114l174 18q20 -64 92 -64q79 0 79 45q0 19 -11.5 29.5t-46.5 16.5l-88 14q-94 16 -138 55.5t-44 113.5q0 78 68.5 128.5t178.5 50.5q109 0 174.5 -44.5
t77.5 -118.5l-172 -18q-11 59 -82 59q-32 0 -51 -10.5t-19 -29.5t14 -29t48 -16l98 -16q90 -15 130.5 -54.5t40.5 -109.5q0 -85 -63 -136.5t-190 -52.5l-19 -32l3 -3q20 5 46 5q40 0 67 -24.5t27 -65.5q0 -45 -34 -70t-90 -25z" />
    <glyph glyph-name="Scaron" unicode="&#x160;" horiz-adv-x="721" 
d="M357 -17q-142 0 -232 64.5t-103 159.5l195 24q13 -48 51.5 -74.5t92.5 -26.5q59 0 89.5 22t30.5 60q0 60 -91 79l-123 26q-209 44 -209 224q0 101 80.5 166.5t220.5 65.5q130 0 211 -57t100 -151l-190 -24q-25 89 -122 89q-55 0 -81 -20t-26 -49q0 -30 20.5 -50t74.5 -31
l122 -26q112 -24 163 -80t51 -144q0 -107 -79 -177t-246 -70zM527 957v-110l-166 -52l-166 52v112l166 -50z" />
    <glyph glyph-name="scaron" unicode="&#x161;" horiz-adv-x="595" 
d="M295 -17q-116 0 -183.5 44.5t-78.5 124.5l174 18q20 -64 92 -64q79 0 79 45q0 19 -11.5 29.5t-46.5 16.5l-88 14q-94 16 -138 55.5t-44 113.5q0 78 68.5 128.5t178.5 50.5q109 0 174.5 -44.5t77.5 -118.5l-172 -18q-11 59 -82 59q-32 0 -51 -10.5t-19 -29.5t14 -29
t48 -16l98 -16q90 -15 130.5 -54.5t40.5 -109.5q0 -87 -65 -138t-196 -51zM474 785v-118l-166 -62l-166 62v120l166 -60z" />
    <glyph glyph-name="Tcommaaccent" unicode="&#x162;" horiz-adv-x="672" 
d="M28 603v152h616v-152h-212v-603h-192v603h-212zM260 -245l-10 55q75 11 83 41h-84v101h171v-48q0 -70 -34 -103t-126 -46z" />
    <glyph glyph-name="tcommaaccent" unicode="&#x163;" horiz-adv-x="428" 
d="M15 422v123h87l8 146h166v-146h112v-123h-108v-223q0 -41 17.5 -58t53.5 -17q16 0 40 2l9 -124q-49 -14 -130 -14q-96 0 -136 47.5t-39 147.5l1 239h-81zM161 -245l-10 55q75 11 83 41h-84v101h171v-48q0 -70 -34 -103t-126 -46z" />
    <glyph glyph-name="Tcaron" unicode="&#x164;" horiz-adv-x="672" 
d="M28 603v152h616v-152h-212v-603h-192v603h-212zM503 957v-110l-166 -52l-166 52v112l166 -50z" />
    <glyph glyph-name="tcaron" unicode="&#x165;" horiz-adv-x="428" 
d="M15 422v123h87l8 146h166v-146h112v-123h-108v-223q0 -41 17.5 -58t53.5 -17q16 0 40 2l9 -124q-49 -14 -130 -14q-96 0 -136 47.5t-39 147.5l1 239h-81zM357 570l25 208h150l-85 -208h-90z" />
    <glyph glyph-name="Tbar" unicode="&#x166;" horiz-adv-x="672" 
d="M552 332h-120v-332h-192v332h-120v113h120v158h-212v152h616v-152h-212v-158h120v-113z" />
    <glyph glyph-name="tbar" unicode="&#x167;" horiz-adv-x="430" 
d="M402 2q-49 -14 -130 -14q-96 0 -136 47.5t-39 147.5v67h-82v108h83v64h-81v123h87l8 146h166v-146h112v-123h-108v-64h100v-108h-100v-51q0 -41 17.5 -58t53.5 -17q16 0 40 2z" />
    <glyph glyph-name="Utilde" unicode="&#x168;" horiz-adv-x="769" 
d="M387 -17q-317 0 -317 304v468h193v-474q0 -139 123 -139q62 0 92 37.5t30 101.5v474h191v-468q0 -141 -74 -222.5t-238 -81.5zM277 800h-95q1 76 36 115t97 39q29 0 78 -17.5t68 -17.5t31 10t12 28h99q-1 -78 -35 -116.5t-93 -38.5q-30 0 -83.5 18.5t-69.5 18.5
q-42 0 -45 -39z" />
    <glyph glyph-name="utilde" unicode="&#x169;" horiz-adv-x="656" 
d="M252 -13q-102 0 -147 57.5t-45 154.5v346h186v-317q0 -56 22.5 -78.5t51.5 -22.5q39 0 62 31t23 90v297h186v-545h-173v99q-49 -112 -166 -112zM225 615h-95q1 76 36 115t97 39q29 0 78 -17.5t68 -17.5q43 0 43 38h99q-1 -78 -35 -116.5t-93 -38.5q-30 0 -83.5 18.5
t-69.5 18.5q-42 0 -45 -39z" />
    <glyph glyph-name="Umacron" unicode="&#x16a;" horiz-adv-x="769" 
d="M387 -17q-317 0 -317 304v468h193v-474q0 -139 123 -139q62 0 92 37.5t30 101.5v474h191v-468q0 -141 -74 -222.5t-238 -81.5zM205 805v117h363v-117h-363z" />
    <glyph glyph-name="umacron" unicode="&#x16b;" horiz-adv-x="656" 
d="M252 -13q-102 0 -147 57.5t-45 154.5v346h186v-317q0 -56 22.5 -78.5t51.5 -22.5q39 0 62 31t23 90v297h186v-545h-173v99q-49 -112 -166 -112zM149 623v117h363v-117h-363z" />
    <glyph glyph-name="Ubreve" unicode="&#x16c;" horiz-adv-x="769" 
d="M387 -17q-317 0 -317 304v468h193v-474q0 -139 123 -139q62 0 92 37.5t30 101.5v474h191v-468q0 -141 -74 -222.5t-238 -81.5zM388 796q-75 0 -126 37t-61 110h111q19 -47 75 -47t77 47h107q-5 -68 -57 -107.5t-126 -39.5z" />
    <glyph glyph-name="ubreve" unicode="&#x16d;" horiz-adv-x="656" 
d="M252 -13q-102 0 -147 57.5t-45 154.5v346h186v-317q0 -56 22.5 -78.5t51.5 -22.5q39 0 62 31t23 90v297h186v-545h-173v99q-49 -112 -166 -112zM332 608q-79 0 -129.5 41.5t-60.5 128.5h103q5 -28 28 -45.5t58 -17.5t58.5 17.5t29.5 45.5h99q-5 -81 -56.5 -125.5
t-129.5 -44.5z" />
    <glyph glyph-name="Uring" unicode="&#x16e;" horiz-adv-x="769" 
d="M387 -17q-317 0 -317 304v468h193v-474q0 -139 123 -139q62 0 92 37.5t30 101.5v474h191v-468q0 -141 -74 -222.5t-238 -81.5zM254 898q0 52 39 89t94 37t94 -37t39 -89t-39 -89t-94 -37t-94 37t-39 89zM329 898q0 -26 17 -44t41 -18q23 0 39.5 18t16.5 44
q0 25 -16.5 42.5t-39.5 17.5q-24 0 -41 -17.5t-17 -42.5z" />
    <glyph glyph-name="uring" unicode="&#x16f;" horiz-adv-x="656" 
d="M252 -13q-102 0 -147 57.5t-45 154.5v346h186v-317q0 -56 22.5 -78.5t51.5 -22.5q39 0 62 31t23 90v297h186v-545h-173v99q-49 -112 -166 -112zM199 714q0 52 39 89t94 37t94 -37t39 -89t-39 -89t-94 -37t-94 37t-39 89zM274 714q0 -26 17 -44t41 -18q23 0 39.5 18
t16.5 44q0 25 -16.5 42.5t-39.5 17.5q-24 0 -41 -17.5t-17 -42.5z" />
    <glyph glyph-name="Uhungarumlaut" unicode="&#x170;" horiz-adv-x="769" 
d="M387 -17q-317 0 -317 304v468h193v-474q0 -139 123 -139q62 0 92 37.5t30 101.5v474h191v-468q0 -141 -74 -222.5t-238 -81.5zM212 805l70 142h153l-88 -142h-135zM412 805l70 142h153l-88 -142h-135z" />
    <glyph glyph-name="uhungarumlaut" unicode="&#x171;" horiz-adv-x="656" 
d="M252 -13q-102 0 -147 57.5t-45 154.5v346h186v-317q0 -56 22.5 -78.5t51.5 -22.5q39 0 62 31t23 90v297h186v-545h-173v99q-49 -112 -166 -112zM160 611l85 167h153l-107 -167h-131zM360 611l85 167h153l-107 -167h-131z" />
    <glyph glyph-name="Uogonek" unicode="&#x172;" horiz-adv-x="769" 
d="M435 -232q-70 0 -108.5 28.5t-38.5 81.5q0 60 77 105q-295 11 -295 304v468h193v-474q0 -139 123 -139q62 0 92 37.5t30 101.5v474h191v-468q0 -254 -220 -296q-35 -24 -48.5 -41.5t-13.5 -36.5q0 -20 13.5 -33t37.5 -13l24 1v-98q-25 -2 -57 -2z" />
    <glyph glyph-name="uogonek" unicode="&#x173;" horiz-adv-x="656" 
d="M495 0h-77v99q-49 -112 -166 -112q-102 0 -147 57.5t-45 154.5v346h186v-317q0 -56 22.5 -78.5t51.5 -22.5q39 0 62 31t23 90v297h186v-545q-42 -29 -58.5 -47.5t-16.5 -39.5q0 -20 13.5 -33t37.5 -13l24 1v-98q-25 -2 -57 -2q-70 0 -108.5 28.5t-38.5 81.5q0 70 108 122
z" />
    <glyph glyph-name="Wcircumflex" unicode="&#x174;" horiz-adv-x="1072" 
d="M655 0l-120 471l-119 -471h-230l-171 755h191l115 -542l140 542h165l139 -538l115 538h177l-171 -755h-231zM376 798v114l166 52l166 -52v-116l-166 50z" />
    <glyph glyph-name="wcircumflex" unicode="&#x175;" horiz-adv-x="886" 
d="M513 0l-51 232l-21 125h-7q-10 -70 -22 -124l-52 -233h-221l-131 545h181l47 -244l24 -153h6q14 87 29 153l56 244h182l56 -244l31 -169h6q13 103 25 169l46 244h173l-132 -545h-225zM281 608v119l166 62l166 -62v-121l-166 60z" />
    <glyph glyph-name="Ycircumflex" unicode="&#x176;" horiz-adv-x="700" 
d="M260 0v313l-258 442h204l155 -284l147 284h190l-246 -433v-322h-192zM194 798v114l166 52l166 -52v-116l-166 50z" />
    <glyph glyph-name="ycircumflex" unicode="&#x177;" horiz-adv-x="602" 
d="M132 -222l80 214l-208 553h194l85 -251q8 -24 14 -51t7 -42l2 -15h6q8 54 25 108l80 251h181l-286 -767h-180zM154 608v119l166 62l166 -62v-121l-166 60z" />
    <glyph glyph-name="Ydieresis" unicode="&#x178;" horiz-adv-x="700" 
d="M260 0v313l-258 442h204l155 -284l147 284h190l-246 -433v-322h-192zM398 805v155h161v-155h-161zM161 805v155h161v-155h-161z" />
    <glyph glyph-name="Zacute" unicode="&#x179;" horiz-adv-x="690" 
d="M40 0v116l361 487h-342v152h579v-120l-360 -483h372v-152h-610zM268 805l87 142h188l-130 -142h-145z" />
    <glyph glyph-name="zacute" unicode="&#x17a;" horiz-adv-x="561" 
d="M53 408v137h460v-111l-247 -296h252v-138h-473v112l249 296h-241zM206 611l97 167h182l-139 -167h-140z" />
    <glyph glyph-name="Zdotaccent" unicode="&#x17b;" horiz-adv-x="690" 
d="M40 0v116l361 487h-342v152h579v-120l-360 -483h372v-152h-610zM265 805v155h161v-155h-161z" />
    <glyph glyph-name="zdotaccent" unicode="&#x17c;" horiz-adv-x="561" 
d="M53 408v137h460v-111l-247 -296h252v-138h-473v112l249 296h-241zM204 623v155h161v-155h-161z" />
    <glyph glyph-name="Zcaron" unicode="&#x17d;" horiz-adv-x="690" 
d="M40 0v116l361 487h-342v152h579v-120l-360 -483h372v-152h-610zM511 957v-110l-166 -52l-166 52v112l166 -50z" />
    <glyph glyph-name="zcaron" unicode="&#x17e;" horiz-adv-x="561" 
d="M53 408v137h460v-111l-247 -296h252v-138h-473v112l249 296h-241zM450 785v-118l-166 -62l-166 62v120l166 -60z" />
    <glyph glyph-name="florin" unicode="&#x192;" horiz-adv-x="475" 
d="M426 422h-122l-61 -585h-168l59 585h-84v123h97l2 20q12 111 68 166.5t167 55.5q12 0 28.5 -2.5t27.5 -4.5l10 -2l-12 -141q-20 5 -39 5q-72 0 -80 -77l-2 -20h109v-123z" />
    <glyph glyph-name="AEacute" unicode="&#x1fc;" horiz-adv-x="1008" 
d="M349 401l-37 -99h152v298h-44q-24 -73 -71 -199zM464 0v160h-205l-59 -160h-190l305 755h633v-155h-297v-150h249v-145h-249v-150h317v-155h-504zM488 805l87 142h188l-130 -142h-145z" />
    <glyph glyph-name="aeacute" unicode="&#x1fd;" horiz-adv-x="964" 
d="M35 153q0 92 68 133.5t204 41.5h78v22q0 77 -76 77q-70 0 -82 -59l-174 32q16 65 81 112t177 47q117 0 174 -67q64 67 180 67q135 0 205.5 -87.5t67.5 -248.5h-380q0 -46 31.5 -76.5t76.5 -30.5q67 0 105 59l153 -39q-27 -68 -94 -109.5t-169 -41.5q-143 0 -219 102
q-71 -102 -209 -102q-85 0 -141.5 48.5t-56.5 119.5zM657 436q-42 0 -68.5 -28t-31.5 -76h197q-2 48 -28.5 76t-68.5 28zM282 104q43 0 74.5 31t31.5 87v7q-27 1 -61 1q-110 0 -110 -65q0 -27 18 -44t47 -17zM414 611l97 167h182l-139 -167h-140z" />
    <glyph glyph-name="Oslashacute" unicode="&#x1fe;" horiz-adv-x="826" 
d="M244 377q0 -81 20 -135l259 337q-43 44 -110 44q-76 0 -122.5 -61.5t-46.5 -184.5zM413 133q76 0 122.5 61t46.5 184q0 77 -19 134l-259 -337q42 -42 109 -42zM413 -16q-121 0 -209 59l-78 -101l-58 45l79 103q-105 110 -105 288q0 179 99 286t272 107q123 0 212 -60
l73 96l58 -43l-76 -99q104 -109 104 -287q0 -180 -99 -287t-272 -107zM336 805l87 142h188l-130 -142h-145z" />
    <glyph glyph-name="oslashacute" unicode="&#x1ff;" horiz-adv-x="644" 
d="M218 272q0 -44 9 -78l152 220q-24 19 -57 19q-52 0 -78 -42.5t-26 -118.5zM322 111q52 0 77.5 43t25.5 118q0 43 -9 76l-150 -219q22 -18 56 -18zM319 -15q-75 0 -134 28l-62 -90l-57 39l62 89q-93 79 -93 221q0 127 77 207t212 80q75 0 135 -29l58 83l58 -36l-59 -85
q93 -80 93 -220q0 -127 -77.5 -207t-212.5 -80zM248 611l97 167h182l-139 -167h-140z" />
    <glyph glyph-name="Scommaaccent" unicode="&#x218;" horiz-adv-x="721" 
d="M357 -17q-142 0 -232 64.5t-103 159.5l195 24q13 -48 51.5 -74.5t92.5 -26.5q59 0 89.5 22t30.5 60q0 60 -91 79l-123 26q-209 44 -209 224q0 101 80.5 166.5t220.5 65.5q130 0 211 -57t100 -151l-190 -24q-25 89 -122 89q-55 0 -81 -20t-26 -49q0 -30 20.5 -50t74.5 -31
l122 -26q112 -24 163 -80t51 -144q0 -107 -79 -177t-246 -70zM288 -245l-10 55q75 11 83 41h-84v101h171v-48q0 -70 -34 -103t-126 -46z" />
    <glyph glyph-name="scommaaccent" unicode="&#x219;" horiz-adv-x="595" 
d="M295 -17q-116 0 -183.5 44.5t-78.5 124.5l174 18q20 -64 92 -64q79 0 79 45q0 19 -11.5 29.5t-46.5 16.5l-88 14q-94 16 -138 55.5t-44 113.5q0 78 68.5 128.5t178.5 50.5q109 0 174.5 -44.5t77.5 -118.5l-172 -18q-11 59 -82 59q-32 0 -51 -10.5t-19 -29.5t14 -29
t48 -16l98 -16q90 -15 130.5 -54.5t40.5 -109.5q0 -87 -65 -138t-196 -51zM228 -245l-10 55q75 11 83 41h-84v101h171v-48q0 -70 -34 -103t-126 -46z" />
    <glyph glyph-name="uni021A" unicode="&#x21a;" horiz-adv-x="672" 
d="M28 603v152h616v-152h-212v-603h-192v603h-212zM260 -245l-10 55q75 11 83 41h-84v101h171v-48q0 -70 -34 -103t-126 -46z" />
    <glyph glyph-name="uni021B" unicode="&#x21b;" horiz-adv-x="428" 
d="M15 422v123h87l8 146h166v-146h112v-123h-108v-223q0 -41 17.5 -58t53.5 -17q16 0 40 2l9 -124q-49 -14 -130 -14q-96 0 -136 47.5t-39 147.5l1 239h-81zM161 -245l-10 55q75 11 83 41h-84v101h171v-48q0 -70 -34 -103t-126 -46z" />
    <glyph glyph-name="uni0237" unicode="&#x237;" horiz-adv-x="316" 
d="M25 -232q-16 0 -35 2t-30 4l-11 3l13 140q27 -5 32 -5q71 0 71 74v559h186v-549q0 -109 -56.5 -168.5t-169.5 -59.5z" />
    <glyph glyph-name="circumflex" unicode="&#x2c6;" horiz-adv-x="494" 
d="M81 608v119l166 62l166 -62v-121l-166 60z" />
    <glyph glyph-name="caron" unicode="&#x2c7;" horiz-adv-x="494" 
d="M413 785v-118l-166 -62l-166 62v120l166 -60z" />
    <glyph glyph-name="breve" unicode="&#x2d8;" horiz-adv-x="500" 
d="M249 608q-79 0 -129.5 41.5t-60.5 128.5h103q5 -28 28 -45.5t58 -17.5t58.5 17.5t29.5 45.5h99q-5 -81 -56.5 -125.5t-129.5 -44.5z" />
    <glyph glyph-name="dotaccent" unicode="&#x2d9;" horiz-adv-x="501" 
d="M170 623v155h161v-155h-161z" />
    <glyph glyph-name="ring" unicode="&#x2da;" horiz-adv-x="500" 
d="M117 727q0 52 39 89t94 37t94 -37t39 -89t-39 -89t-94 -37t-94 37t-39 89zM192 727q0 -26 17 -44t41 -18q23 0 39.5 18t16.5 44q0 25 -16.5 42.5t-39.5 17.5q-24 0 -41 -17.5t-17 -42.5z" />
    <glyph glyph-name="ogonek" unicode="&#x2db;" horiz-adv-x="500" 
d="M317 -132v-98q-25 -2 -57 -2q-70 0 -108.5 28.5t-38.5 81.5q0 70 108 122h96q-42 -29 -58.5 -47.5t-16.5 -39.5q0 -20 13.5 -33t37.5 -13z" />
    <glyph glyph-name="tilde" unicode="&#x2dc;" horiz-adv-x="500" 
d="M140 615h-95q1 76 36 115t97 39q29 0 78 -17.5t68 -17.5q43 0 43 38h99q-1 -78 -35 -116.5t-93 -38.5q-30 0 -83.5 18.5t-69.5 18.5q-42 0 -45 -39z" />
    <glyph glyph-name="hungarumlaut" unicode="&#x2dd;" horiz-adv-x="500" 
d="M46 611l85 167h153l-107 -167h-131zM246 611l85 167h153l-107 -167h-131z" />
    <glyph glyph-name="Wgrave" unicode="&#x1e80;" horiz-adv-x="1072" 
d="M655 0l-120 471l-119 -471h-230l-171 755h191l115 -542l140 542h165l139 -538l115 538h177l-171 -755h-231zM532 947l87 -142h-144l-131 142h188z" />
    <glyph glyph-name="wgrave" unicode="&#x1e81;" horiz-adv-x="886" 
d="M513 0l-51 232l-21 125h-7q-10 -70 -22 -124l-52 -233h-221l-131 545h181l47 -244l24 -153h6q14 87 29 153l56 244h182l56 -244l31 -169h6q13 103 25 169l46 244h173l-132 -545h-225zM428 778l97 -167h-140l-139 167h182z" />
    <glyph glyph-name="Wacute" unicode="&#x1e82;" horiz-adv-x="1072" 
d="M655 0l-120 471l-119 -471h-230l-171 755h191l115 -542l140 542h165l139 -538l115 538h177l-171 -755h-231zM465 805l87 142h188l-130 -142h-145z" />
    <glyph glyph-name="wacute" unicode="&#x1e83;" horiz-adv-x="886" 
d="M513 0l-51 232l-21 125h-7q-10 -70 -22 -124l-52 -233h-221l-131 545h181l47 -244l24 -153h6q14 87 29 153l56 244h182l56 -244l31 -169h6q13 103 25 169l46 244h173l-132 -545h-225zM373 611l97 167h182l-139 -167h-140z" />
    <glyph glyph-name="Wdieresis" unicode="&#x1e84;" horiz-adv-x="1072" 
d="M655 0l-120 471l-119 -471h-230l-171 755h191l115 -542l140 542h165l139 -538l115 538h177l-171 -755h-231zM582 805v155h161v-155h-161zM345 805v155h161v-155h-161z" />
    <glyph glyph-name="wdieresis" unicode="&#x1e85;" horiz-adv-x="886" 
d="M513 0l-51 232l-21 125h-7q-10 -70 -22 -124l-52 -233h-221l-131 545h181l47 -244l24 -153h6q14 87 29 153l56 244h182l56 -244l31 -169h6q13 103 25 169l46 244h173l-132 -545h-225zM485 623v155h161v-155h-161zM248 623v155h161v-155h-161z" />
    <glyph glyph-name="Ygrave" unicode="&#x1ef2;" horiz-adv-x="700" 
d="M260 0v313l-258 442h204l155 -284l147 284h190l-246 -433v-322h-192zM350 947l87 -142h-144l-131 142h188z" />
    <glyph glyph-name="ygrave" unicode="&#x1ef3;" horiz-adv-x="602" 
d="M132 -222l80 214l-208 553h194l85 -251q8 -24 14 -51t7 -42l2 -15h6q8 54 25 108l80 251h181l-286 -767h-180zM301 778l97 -167h-140l-139 167h182z" />
    <glyph glyph-name="uni2004" unicode="&#x2004;" horiz-adv-x="333" 
 />
    <glyph glyph-name="uni2007" unicode="&#x2007;" horiz-adv-x="400" 
 />
    <glyph glyph-name="uni2009" unicode="&#x2009;" horiz-adv-x="160" 
 />
    <glyph glyph-name="uni200A" unicode="&#x200a;" horiz-adv-x="80" 
 />
    <glyph glyph-name="uni200B" unicode="&#x200b;" horiz-adv-x="0" 
 />
    <glyph glyph-name="uni2012" unicode="&#x2012;" horiz-adv-x="608" 
d="M718 433v-150h-828v150h828z" />
    <glyph glyph-name="endash" unicode="&#x2013;" horiz-adv-x="530" 
d="M30 241v120h470v-120h-470z" />
    <glyph glyph-name="emdash" unicode="&#x2014;" horiz-adv-x="930" 
d="M30 241v120h870v-120h-870z" />
    <glyph glyph-name="quoteleft" unicode="&#x2018;" horiz-adv-x="266" 
d="M204 792l24 -64q-87 -42 -87 -105h85v-175h-186v128q0 76 36 130t128 86z" />
    <glyph glyph-name="quoteright" unicode="&#x2019;" horiz-adv-x="266" 
d="M62 411l-24 64q87 42 87 105h-85v175h186v-128q0 -76 -36 -130t-128 -86z" />
    <glyph glyph-name="quotesinglbase" unicode="&#x201a;" horiz-adv-x="266" 
d="M62 -169l-24 64q87 42 87 105h-85v175h186v-128q0 -76 -36 -130t-128 -86z" />
    <glyph glyph-name="quotedblleft" unicode="&#x201c;" horiz-adv-x="522" 
d="M204 792l24 -64q-87 -42 -87 -105h85v-175h-186v128q0 76 36 130t128 86zM460 792l24 -64q-87 -42 -87 -105h85v-175h-186v128q0 76 36 130t128 86z" />
    <glyph glyph-name="quotedblright" unicode="&#x201d;" horiz-adv-x="522" 
d="M62 411l-24 64q87 42 87 105h-85v175h186v-128q0 -76 -36 -130t-128 -86zM318 411l-24 64q87 42 87 105h-85v175h186v-128q0 -76 -36 -130t-128 -86z" />
    <glyph glyph-name="quotedblbase" unicode="&#x201e;" horiz-adv-x="522" 
d="M62 -169l-24 64q87 42 87 105h-85v175h186v-128q0 -76 -36 -130t-128 -86zM318 -169l-24 64q87 42 87 105h-85v175h186v-128q0 -76 -36 -130t-128 -86z" />
    <glyph glyph-name="dagger" unicode="&#x2020;" horiz-adv-x="325" 
d="M15 561v76h105v118h85v-118h105v-76h-105v-241h-85v241h-105z" />
    <glyph glyph-name="daggerdbl" unicode="&#x2021;" horiz-adv-x="325" 
d="M205 755v-103h105v-76h-105v-82h105v-76h-105v-98h-85v98h-105v76h105v82h-105v76h105v103h85z" />
    <glyph glyph-name="bullet" unicode="&#x2022;" horiz-adv-x="390" 
d="M57 295q0 57 40.5 97t97.5 40t97 -40t40 -97t-40 -97.5t-97 -40.5t-97.5 40.5t-40.5 97.5z" />
    <glyph glyph-name="ellipsis" unicode="&#x2026;" horiz-adv-x="918" 
d="M672 0v175h186v-175h-186zM366 0v175h186v-175h-186zM60 0v175h186v-175h-186z" />
    <glyph glyph-name="perthousand" unicode="&#x2030;" horiz-adv-x="1173" 
d="M30 584q0 88 47.5 138t120.5 50q76 0 119 -48t43 -140q0 -90 -46 -139t-120 -49q-77 0 -120.5 49t-43.5 139zM82 -14l514 786h116l-513 -786h-117zM194 687q-46 0 -46 -103t47 -103q22 0 33.5 23t11.5 80q0 103 -46 103zM813 174q0 88 47.5 138t120.5 50q76 0 119 -48
t43 -140q0 -90 -46 -139t-120 -49q-77 0 -120.5 49t-43.5 139zM439 174q0 88 47.5 138t120.5 50q76 0 119 -48t43 -140q0 -90 -46 -139t-120 -49q-77 0 -120.5 49t-43.5 139zM977 277q-46 0 -46 -103t47 -103q22 0 33.5 23t11.5 80q0 103 -46 103zM603 277q-46 0 -46 -103
t47 -103q22 0 33.5 23t11.5 80q0 103 -46 103z" />
    <glyph glyph-name="uni2032" unicode="&#x2032;" horiz-adv-x="296" 
d="M45 417l40 338h156l-110 -338h-86z" />
    <glyph glyph-name="uni2033" unicode="&#x2033;" horiz-adv-x="512" 
d="M279 417l40 338h156l-110 -338h-86zM33 417l40 338h156l-110 -338h-86z" />
    <glyph glyph-name="guilsinglleft" unicode="&#x2039;" horiz-adv-x="350" 
d="M151 470h147l-106 -208l106 -211h-149l-113 210z" />
    <glyph glyph-name="guilsinglright" unicode="&#x203a;" horiz-adv-x="350" 
d="M199 51h-147l106 208l-106 211h149l113 -210z" />
    <glyph glyph-name="fraction" unicode="&#x2044;" horiz-adv-x="140" 
d="M-239 -14l514 786h116l-513 -786h-117z" />
    <glyph glyph-name="zero.sup" unicode="&#x2070;" horiz-adv-x="469" 
d="M40 609q0 108 51 164t144 56q94 0 144 -55.5t50 -164.5t-50.5 -164.5t-144.5 -55.5q-194 0 -194 220zM234 738q-33 0 -47.5 -28.5t-14.5 -100.5t14.5 -100.5t47.5 -28.5t48 28.5t15 100.5t-15 100.5t-48 28.5z" />
    <glyph glyph-name="four.sup" unicode="&#x2074;" horiz-adv-x="449" 
d="M365 399h-118v72h-217v78l173 272h162v-254h54v-96h-54v-72zM142 567h108v173h-12q-19 -43 -46 -89z" />
    <glyph glyph-name="five.sup" unicode="&#x2075;" horiz-adv-x="419" 
d="M212 391q-79 0 -126 34t-56 92l120 10q4 -25 20.5 -38.5t38.5 -13.5q27 0 42 16t15 42q0 27 -15.5 42t-41.5 15q-32 0 -49 -23l-114 26l30 228h284v-97h-200l-9 -76h3q38 25 90 25q60 0 100 -36.5t40 -99.5q0 -66 -48 -106t-124 -40z" />
    <glyph glyph-name="six.sup" unicode="&#x2076;" horiz-adv-x="439" 
d="M401 721l-116 -18q-10 37 -48 37q-62 0 -69 -106h2q35 38 96 38q59 0 99.5 -33.5t40.5 -99.5q0 -65 -47 -107t-130 -42q-91 0 -140.5 50t-49.5 149q0 116 52.5 178t145.5 62q61 0 106 -30t58 -78zM286 535q0 28 -15 44t-42 16t-41.5 -16t-14.5 -44q0 -59 56 -59
q27 0 42 16t15 43z" />
    <glyph glyph-name="seven.sup" unicode="&#x2077;" horiz-adv-x="389" 
d="M63 399l161 324h-194v98h329v-77l-164 -345h-132z" />
    <glyph glyph-name="eight.sup" unicode="&#x2078;" horiz-adv-x="443" 
d="M221 834q74 0 121 -33.5t47 -88.5q0 -38 -15.5 -58t-43.5 -34v-2q72 -22 72 -99q0 -61 -51 -97t-132 -36t-129.5 36.5t-48.5 95.5q0 79 72 100v2q-59 28 -59 92q0 54 46.5 88t120.5 34zM168 702q0 -22 14.5 -35.5t39.5 -13.5q24 0 38.5 13.5t14.5 35.5t-14.5 34.5
t-38.5 12.5q-54 0 -54 -47zM281 526q0 25 -15.5 40t-43.5 15q-29 0 -44.5 -15t-15.5 -40t15.5 -39.5t44.5 -14.5q27 0 43 15t16 39z" />
    <glyph glyph-name="nine.sup" unicode="&#x2079;" horiz-adv-x="448" 
d="M161 682q0 -59 56 -59q57 0 57 59q0 60 -57 60q-28 0 -42 -17t-14 -43zM37 501l110 21q18 -47 65 -47q66 0 67 100h-3q-33 -29 -88 -29q-59 0 -101.5 36t-42.5 100q0 62 47 104.5t126 42.5q92 0 142 -55.5t50 -152.5q0 -109 -52 -170t-145 -61q-67 0 -114.5 29t-60.5 82z
" />
    <glyph glyph-name="plus.sup" unicode="&#x207a;" horiz-adv-x="408" 
d="M56 548v94h94v95h108v-95h94v-94h-94v-99h-108v99h-94z" />
    <glyph glyph-name="minus.sup" unicode="&#x207b;" horiz-adv-x="408" 
d="M56 548v95h296v-95h-296z" />
    <glyph glyph-name="zero.sub" unicode="&#x2080;" horiz-adv-x="469" 
d="M40 130q0 108 51 164t144 56q94 0 144 -55.5t50 -164.5t-50.5 -164.5t-144.5 -55.5q-194 0 -194 220zM234 259q-33 0 -47.5 -28.5t-14.5 -100.5t14.5 -100.5t47.5 -28.5t48 28.5t15 100.5t-15 100.5t-48 28.5z" />
    <glyph glyph-name="one.sub" unicode="&#x2081;" horiz-adv-x="344" 
d="M280 -80h-122v292l-97 -50l-41 83l172 97h88v-422z" />
    <glyph glyph-name="two.sub" unicode="&#x2082;" horiz-adv-x="425" 
d="M156 189l-115 8q3 63 50 108t127 45q77 0 120 -35t43 -92q0 -51 -29 -85.5t-132 -115.5v-4h167v-98h-344v79q171 140 194 163q26 28 26 54q0 19 -12.5 31t-34.5 12q-57 0 -60 -70z" />
    <glyph glyph-name="three.sub" unicode="&#x2083;" horiz-adv-x="423" 
d="M214 0q26 0 42 13t16 35q0 44 -55 44h-48v84h46q49 0 49 43t-49 43q-54 0 -64 -57l-111 11q7 56 54.5 95t123.5 39t119.5 -31.5t43.5 -80.5q0 -73 -74 -95v-1q41 -9 63 -35.5t22 -64.5q0 -55 -50.5 -93t-127.5 -38q-89 0 -136.5 41t-52.5 104l119 6q3 -30 23 -46t47 -16z
" />
    <glyph glyph-name="four.sub" unicode="&#x2084;" horiz-adv-x="449" 
d="M365 -80h-118v72h-217v78l173 272h162v-254h54v-96h-54v-72zM142 88h108v173h-12q-19 -43 -46 -89z" />
    <glyph glyph-name="five.sub" unicode="&#x2085;" horiz-adv-x="419" 
d="M212 -88q-79 0 -126 34t-56 92l120 10q4 -25 20.5 -38.5t38.5 -13.5q27 0 42 16t15 42q0 27 -15.5 42t-41.5 15q-32 0 -49 -23l-114 26l30 228h284v-97h-200l-9 -76h3q38 25 90 25q60 0 100 -36.5t40 -99.5q0 -66 -48 -106t-124 -40z" />
    <glyph glyph-name="six.sub" unicode="&#x2086;" horiz-adv-x="439" 
d="M401 242l-116 -18q-10 37 -48 37q-62 0 -69 -106h2q35 38 96 38q59 0 99.5 -33.5t40.5 -99.5q0 -65 -47 -107t-130 -42q-91 0 -140.5 50t-49.5 149q0 116 52.5 178t145.5 62q61 0 106 -30t58 -78zM286 56q0 28 -15 44t-42 16t-41.5 -16t-14.5 -44q0 -59 56 -59
q27 0 42 16t15 43z" />
    <glyph glyph-name="seven.sub" unicode="&#x2087;" horiz-adv-x="389" 
d="M63 -80l161 324h-194v98h329v-77l-164 -345h-132z" />
    <glyph glyph-name="eight.sub" unicode="&#x2088;" horiz-adv-x="443" 
d="M221 355q74 0 121 -33.5t47 -88.5q0 -38 -15.5 -58t-43.5 -34v-2q72 -22 72 -99q0 -61 -51 -97t-132 -36t-129.5 36.5t-48.5 95.5q0 79 72 100v2q-59 28 -59 92q0 54 46.5 88t120.5 34zM168 223q0 -22 14.5 -35.5t39.5 -13.5q24 0 38.5 13.5t14.5 35.5t-14.5 34.5
t-38.5 12.5q-54 0 -54 -47zM281 47q0 25 -15.5 40t-43.5 15q-29 0 -44.5 -15t-15.5 -40t15.5 -39.5t44.5 -14.5q27 0 43 15t16 39z" />
    <glyph glyph-name="nine.sub" unicode="&#x2089;" horiz-adv-x="448" 
d="M161 203q0 -59 56 -59q57 0 57 59q0 60 -57 60q-28 0 -42 -17t-14 -43zM37 22l110 21q18 -47 65 -47q66 0 67 100h-3q-33 -29 -88 -29q-59 0 -101.5 36t-42.5 100q0 62 47 104.5t126 42.5q92 0 142 -55.5t50 -152.5q0 -109 -52 -170t-145 -61q-67 0 -114.5 29t-60.5 82z
" />
    <glyph glyph-name="plus.sub" unicode="&#x208a;" horiz-adv-x="408" 
d="M56 69v94h94v95h108v-95h94v-94h-94v-99h-108v99h-94z" />
    <glyph glyph-name="minus.sub" unicode="&#x208b;" horiz-adv-x="408" 
d="M56 69v95h296v-95h-296z" />
    <glyph glyph-name="Euro" unicode="&#x20ac;" horiz-adv-x="738" 
d="M710 197q-47 -214 -292 -214q-121 0 -197.5 66t-103.5 188h-92v102h80q-1 10 -1 31q0 28 1 42h-80v102h95q29 121 106.5 188t196.5 67q121 0 191.5 -55.5t90.5 -153.5l-170 -37q-26 105 -113 105q-48 0 -78 -26t-43 -88h175v-102h-186v-28q0 -31 1 -45h185v-102h-173
q15 -60 45 -86.5t78 -26.5q91 0 117 102z" />
    <glyph glyph-name="uni20B9" unicode="&#x20b9;" horiz-adv-x="651" 
d="M342 223l178 -223h-218l-146 187h-77v114h71q108 0 133 110h-204v114h205q-24 116 -136 116h-69v114h512v-114h-182v-2q48 -50 64 -114h118v-114h-115q-10 -63 -42.5 -107t-91.5 -79v-2z" />
    <glyph glyph-name="uni20BA" unicode="&#x20ba;" horiz-adv-x="687" 
d="M307 0h-184v243l-84 -28v108l84 28v77l-84 -28v108l84 28v219h190v-155l154 51v-108l-154 -51v-77l154 51v-108l-154 -51v-150h2q83 0 126.5 33t60.5 112l164 -33q-33 -130 -118 -199.5t-241 -69.5z" />
    <glyph glyph-name="trademark" unicode="&#x2122;" horiz-adv-x="638" 
d="M94 456v235h-79v64h232v-64h-79v-235h-74zM273 456v299h102l44 -127l17 -60h3q2 16 17 59l44 128h98v-299h-70v211h-3q-3 -27 -17 -71l-46 -140h-55l-47 141l-18 70h-3v-211h-66z" />
    <glyph glyph-name="onethird" unicode="&#x2153;" horiz-adv-x="977" 
d="M280 333h-122v292l-97 -50l-41 83l172 97h88v-422zM154 -14l514 786h116l-513 -786h-117zM767 80q26 0 42 13t16 35q0 44 -55 44h-48v84h46q49 0 49 43t-49 43q-54 0 -64 -57l-111 11q7 56 54.5 95t123.5 39t119.5 -31.5t43.5 -80.5q0 -73 -74 -95v-1q41 -9 63 -35.5
t22 -64.5q0 -55 -50.5 -93t-127.5 -38q-89 0 -136.5 41t-52.5 104l119 6q3 -30 23 -46t47 -16z" />
    <glyph glyph-name="twothirds" unicode="&#x2154;" horiz-adv-x="1089" 
d="M156 602l-115 8q3 63 50 108t127 45q77 0 120 -35t43 -92q0 -51 -29 -85.5t-132 -115.5v-4h167v-98h-344v79q171 140 194 163q26 28 26 54q0 19 -12.5 31t-34.5 12q-57 0 -60 -70zM266 -14l514 786h116l-513 -786h-117zM879 80q26 0 42 13t16 35q0 44 -55 44h-48v84h46
q49 0 49 43t-49 43q-54 0 -64 -57l-111 11q7 56 54.5 95t123.5 39t119.5 -31.5t43.5 -80.5q0 -73 -74 -95v-1q41 -9 63 -35.5t22 -64.5q0 -55 -50.5 -93t-127.5 -38q-89 0 -136.5 41t-52.5 104l119 6q3 -30 23 -46t47 -16z" />
    <glyph glyph-name="oneeighth" unicode="&#x215b;" horiz-adv-x="997" 
d="M280 333h-122v292l-97 -50l-41 83l172 97h88v-422zM154 -14l514 786h116l-513 -786h-117zM774 435q74 0 121 -33.5t47 -88.5q0 -38 -15.5 -58t-43.5 -34v-2q72 -22 72 -99q0 -61 -51 -97t-132 -36t-129.5 36.5t-48.5 95.5q0 79 72 100v2q-59 28 -59 92q0 54 46.5 88
t120.5 34zM721 303q0 -22 14.5 -35.5t39.5 -13.5q24 0 38.5 13.5t14.5 35.5t-14.5 34.5t-38.5 12.5q-54 0 -54 -47zM834 127q0 25 -15.5 40t-43.5 15q-29 0 -44.5 -15t-15.5 -40t15.5 -39.5t44.5 -14.5q27 0 43 15t16 39z" />
    <glyph glyph-name="threeeighths" unicode="&#x215c;" horiz-adv-x="1046" 
d="M214 413q26 0 42 13t16 35q0 44 -55 44h-48v84h46q49 0 49 43t-49 43q-54 0 -64 -57l-111 11q7 56 54.5 95t123.5 39t119.5 -31.5t43.5 -80.5q0 -73 -74 -95v-1q41 -9 63 -35.5t22 -64.5q0 -55 -50.5 -93t-127.5 -38q-89 0 -136.5 41t-52.5 104l119 6q3 -30 23 -46
t47 -16zM204 -14l514 786h116l-513 -786h-117zM824 435q74 0 121 -33.5t47 -88.5q0 -38 -15.5 -58t-43.5 -34v-2q72 -22 72 -99q0 -61 -51 -97t-132 -36t-129.5 36.5t-48.5 95.5q0 79 72 100v2q-59 28 -59 92q0 54 46.5 88t120.5 34zM771 303q0 -22 14.5 -35.5t39.5 -13.5
q24 0 38.5 13.5t14.5 35.5t-14.5 34.5t-38.5 12.5q-54 0 -54 -47zM884 127q0 25 -15.5 40t-43.5 15q-29 0 -44.5 -15t-15.5 -40t15.5 -39.5t44.5 -14.5q27 0 43 15t16 39z" />
    <glyph glyph-name="fiveeighths" unicode="&#x215d;" horiz-adv-x="1037" 
d="M212 325q-79 0 -126 34t-56 92l120 10q4 -25 20.5 -38.5t38.5 -13.5q27 0 42 16t15 42q0 27 -15.5 42t-41.5 15q-32 0 -49 -23l-114 26l30 228h284v-97h-200l-9 -76h3q38 25 90 25q60 0 100 -36.5t40 -99.5q0 -66 -48 -106t-124 -40zM194 -14l514 786h116l-513 -786h-117
zM814 435q74 0 121 -33.5t47 -88.5q0 -38 -15.5 -58t-43.5 -34v-2q72 -22 72 -99q0 -61 -51 -97t-132 -36t-129.5 36.5t-48.5 95.5q0 79 72 100v2q-59 28 -59 92q0 54 46.5 88t120.5 34zM761 303q0 -22 14.5 -35.5t39.5 -13.5q24 0 38.5 13.5t14.5 35.5t-14.5 34.5
t-38.5 12.5q-54 0 -54 -47zM874 127q0 25 -15.5 40t-43.5 15q-29 0 -44.5 -15t-15.5 -40t15.5 -39.5t44.5 -14.5q27 0 43 15t16 39z" />
    <glyph glyph-name="seveneighths" unicode="&#x215e;" horiz-adv-x="947" 
d="M63 333l161 324h-194v98h329v-77l-164 -345h-132zM105 -14l514 786h116l-513 -786h-117zM725 435q74 0 121 -33.5t47 -88.5q0 -38 -15.5 -58t-43.5 -34v-2q72 -22 72 -99q0 -61 -51 -97t-132 -36t-129.5 36.5t-48.5 95.5q0 79 72 100v2q-59 28 -59 92q0 54 46.5 88
t120.5 34zM672 303q0 -22 14.5 -35.5t39.5 -13.5q24 0 38.5 13.5t14.5 35.5t-14.5 34.5t-38.5 12.5q-54 0 -54 -47zM785 127q0 25 -15.5 40t-43.5 15q-29 0 -44.5 -15t-15.5 -40t15.5 -39.5t44.5 -14.5q27 0 43 15t16 39z" />
    <glyph glyph-name="uni2190" unicode="&#x2190;" horiz-adv-x="950" 
d="M385 21l-335 335v4l335 335l99 -99l-169 -163h530v-150h-530l169 -163z" />
    <glyph glyph-name="arrowup" unicode="&#x2191;" horiz-adv-x="950" 
d="M138 460l335 335h4l335 -335l-99 -99l-163 169v-530h-150v530l-163 -169z" />
    <glyph glyph-name="uni2192" unicode="&#x2192;" horiz-adv-x="950" 
d="M900 356l-335 -335l-99 99l169 163h-530v150h530l-169 163l99 99l335 -335v-4z" />
    <glyph glyph-name="arrowdown" unicode="&#x2193;" horiz-adv-x="950" 
d="M473 -17l-335 335l99 99l163 -169v530h150v-530l163 169l99 -99l-335 -335h-4z" />
    <glyph glyph-name="uni2196" unicode="&#x2196;" horiz-adv-x="950" 
d="M190 193v473l3 3h474v-140l-235 4l375 -374l-106 -106l-375 374l4 -234h-140z" />
    <glyph glyph-name="uni2197" unicode="&#x2197;" horiz-adv-x="950" 
d="M284 669h473l3 -3v-474h-140l4 235l-374 -375l-106 106l374 375l-234 -4v140z" />
    <glyph glyph-name="uni2198" unicode="&#x2198;" horiz-adv-x="950" 
d="M760 524v-473l-3 -3h-474v140l235 -4l-375 374l106 106l375 -374l-4 234h140z" />
    <glyph glyph-name="uni2199" unicode="&#x2199;" horiz-adv-x="950" 
d="M666 47h-473l-3 3v474h140l-4 -235l374 375l106 -106l-374 -375l234 4v-140z" />
    <glyph glyph-name="minus" unicode="&#x2212;" horiz-adv-x="600" 
d="M65 258v138h470v-138h-470z" />
    <glyph glyph-name="infinity" unicode="&#x221e;" horiz-adv-x="867" 
d="M614 107q-137 0 -195 114h-2q-50 -114 -175 -114q-98 0 -150 61t-52 157q0 97 56.5 158t156.5 61q140 0 195 -114h2q47 114 175 114q98 0 150 -60.5t52 -158.5q0 -96 -56 -157t-157 -61zM609 220q38 0 59.5 29t21.5 76q0 48 -22.5 80.5t-65.5 32.5q-65 0 -111 -89
q34 -73 59.5 -101t58.5 -28zM265 213q36 0 61 22.5t50 68.5q-34 72 -59.5 99.5t-58.5 27.5q-37 0 -59 -28.5t-22 -77.5q0 -47 24 -79.5t64 -32.5z" />
    <glyph glyph-name="approxequal" unicode="&#x2248;" horiz-adv-x="600" 
d="M62 347q0 78 38.5 120.5t111.5 42.5q41 0 98 -24.5t81 -24.5q52 0 58 51h88q0 -77 -39.5 -120t-105.5 -43q-42 0 -99.5 25t-86.5 25q-47 0 -54 -52h-90zM62 137q0 78 38.5 120.5t111.5 42.5q41 0 98.5 -24t80.5 -24q52 0 58 50h88q0 -77 -39.5 -120t-105.5 -43
q-42 0 -99.5 25t-86.5 25q-47 0 -54 -52h-90z" />
    <glyph glyph-name="notequal" unicode="&#x2260;" horiz-adv-x="600" 
d="M535 160h-276l-48 -91h-93l48 91h-101v119h164l50 95h-214v119h277l46 88h93l-46 -88h100v-119h-163l-50 -95h213v-119z" />
    <glyph glyph-name="lessequal" unicode="&#x2264;" horiz-adv-x="600" 
d="M535 143l-470 166v111l470 165v-133l-293 -86l293 -91v-132zM65 0v114h470v-114h-470z" />
    <glyph glyph-name="greaterequal" unicode="&#x2265;" horiz-adv-x="600" 
d="M65 585l470 -166v-111l-470 -165v133l293 86l-293 91v132zM65 0v114h470v-114h-470z" />
    <glyph glyph-name="uni24C5" unicode="&#x24c5;" horiz-adv-x="875" 
d="M45 377q0 170 113.5 281.5t278.5 111.5q167 0 280 -111.5t113 -281.5t-114 -281t-279 -111q-167 0 -279.5 111t-112.5 281zM114 377q0 -145 93 -237.5t230 -92.5t230.5 92.5t93.5 237.5t-93.5 238t-230.5 93t-230 -93t-93 -238zM283 156v454h192q83 0 127 -40.5
t44 -116.5q0 -74 -44 -116t-128 -42h-66v-139h-125zM449 515h-41v-125h41q72 0 72 61q0 64 -72 64z" />
    <glyph glyph-name="uni2713" unicode="&#x2713;" horiz-adv-x="1000" 
d="M376 -14l-322 310l123 123l204 -199l464 501l119 -115l-566 -620h-22z" />
    <glyph glyph-name="uni2717" unicode="&#x2717;" horiz-adv-x="1000" 
d="M742 -14l-244 246l-243 -245l-115 115l243 245l-246 249l119 119l246 -248l244 246l115 -115l-244 -246l245 -247z" />
    <glyph glyph-name="apple" unicode="&#xf8ff;" horiz-adv-x="1241" 
d="M390 318v11h10v18h-10v41h11v-40h19v40h11v-41h-10v-9h-10v-10h-10v-10h-11zM350 338v9h-10v30h-10v11h10v10h11v-10h20v-11h-20v-29h20v-10h-21zM590 338v9h-10v30h-10v11h10v10h11v-10h20v-11h-20v-29h20v-10h-21zM700 338v9h-10v31h10v10h21v-10h10v-21h-30v-9h30v-10
h-31zM880 338v9h-10v31h10v10h21v-10h10v-21h-30v-9h30v-10h-31zM110 347v10h-10v11h10v10h11v-10h10v-11h-10v-10h-11zM180 347v10h-10v11h10v10h11v-10h10v-11h-10v-10h-11zM270 347v10h-10v11h10v10h11v-10h10v-11h-10v-10h-11zM520 338v9h-10v31h10v10h21v-10h10v-31
h-10v-9h-21zM630 338v70h11v-20h20v-10h10v-40h-11v39h-19v-39h-11zM960 347v10h-10v11h10v10h11v-10h10v-11h-10v-10h-11zM1050 347v10h-10v11h10v10h11v-10h10v-11h-10v-10h-11zM1120 347v10h-10v11h10v10h11v-10h10v-11h-10v-10h-11zM450 318v70h31v-10h10v-31h-10v-9
h-20v-20h-11zM780 318v20h-20v9h-10v31h10v10h31v-70h-11zM820 338v9h-10v41h11v-40h19v40h11v-50h-31zM240 328v10h10v10h11v-10h-10v-10h-11zM250 377v10h-10v11h11v-10h10v-11h-11zM300 328v10h-10v10h11v-10h10v-10h-11zM290 377v11h10v10h11v-11h-10v-10h-11zM930 328
v10h10v10h11v-10h-10v-10h-11zM940 377v10h-10v11h11v-10h10v-11h-11zM990 328v10h-10v10h11v-10h10v-10h-11zM980 377v11h10v10h11v-11h-10v-10h-11zM160 338v10h11v-10h-11zM160 377v11h11v-11h-11zM200 338v10h11v-10h-11zM200 377v11h11v-11h-11zM461 348h19v29h-19v-29
zM521 348h19v29h-19v-29zM701 368h19v9h-19v-9zM761 348h19v29h-19v-29zM881 368h19v9h-19v-9zM1030 338v10h11v-10h-11zM1030 377v11h11v-11h-11zM1070 338v10h11v-10h-11zM1070 377v11h11v-11h-11z" />
    <glyph glyph-name="fi" unicode="&#xfb01;" horiz-adv-x="725" 
d="M16 422v123h81v17q0 113 53.5 167.5t172.5 54.5l82 -6l-12 -140q-16 2 -39 2q-39 0 -55 -15.5t-16 -56.5v-23h108v-123h-108v-422h-186v422h-81zM474 622v156h186v-156h-186zM474 0v545h186v-545h-186z" />
    <glyph glyph-name="fl" unicode="&#xfb02;" horiz-adv-x="725" 
d="M16 422v123h81v17q0 113 53.5 167.5t172.5 54.5l82 -6l-12 -140q-16 2 -39 2q-39 0 -55 -15.5t-16 -56.5v-23h108v-123h-108v-422h-186v422h-81zM474 0v778h186v-778h-186z" />
    <glyph glyph-name="zero.zero" horiz-adv-x="736" 
d="M53 376q0 193 83 293t233 100q314 0 314 -393q0 -196 -82 -294.5t-234 -98.5q-314 0 -314 393zM230 376q0 -37 1 -53l242 255q-30 56 -105 56q-70 0 -104 -58.5t-34 -199.5zM368 118q68 0 102.5 59t34.5 199q0 33 -1 47l-242 -253q30 -52 106 -52z" />
    <glyph glyph-name="idotaccent" horiz-adv-x="316" 
d="M65 622v156h186v-156h-186zM65 0v545h186v-545h-186z" />
    <glyph glyph-name="germandbls.alt" horiz-adv-x="660" 
d="M307 -3l10 136q57 -7 91.5 21.5t34.5 86.5q0 108 -117 108h-11v125h11q46 0 70 25t24 66q0 43 -22.5 68t-59.5 25q-87 0 -87 -101v-557h-186v542q0 110 65.5 179t204.5 69q118 0 188.5 -53.5t70.5 -145.5q0 -115 -118 -166v-3q149 -42 149 -187q0 -121 -85 -190t-233 -48
z" />
    <glyph glyph-name="a.alt" horiz-adv-x="672" 
d="M326 113q50 0 75 42.5t25 113.5q0 72 -24.5 114.5t-73.5 42.5q-51 0 -77 -42.5t-26 -114.5q0 -71 25.5 -113.5t75.5 -42.5zM269 -11q-109 0 -170 75.5t-61 204.5q0 128 65 207.5t182 79.5q95 0 144 -65v54h178v-545h-178v61q-31 -36 -66.5 -54t-93.5 -18z" />
    <glyph glyph-name="t.alt" horiz-adv-x="423" 
d="M303 423v-423h-184v423h-99v122h99v146h184v-146h100v-122h-100z" />
    <glyph glyph-name="l.alt" horiz-adv-x="381" 
d="M251 778v-579q0 -40 18 -57.5t53 -17.5q20 0 40 2l9 -124q-59 -14 -118 -14q-90 0 -139 51t-49 144v595h186z" />
    <glyph glyph-name="aacute.alt" horiz-adv-x="672" 
d="M326 113q50 0 75 42.5t25 113.5q0 72 -24.5 114.5t-73.5 42.5q-51 0 -77 -42.5t-26 -114.5q0 -71 25.5 -113.5t75.5 -42.5zM269 -11q-109 0 -170 75.5t-61 204.5q0 128 65 207.5t182 79.5q95 0 144 -65v54h178v-545h-178v61q-31 -36 -66.5 -54t-93.5 -18zM256 611l97 167
h182l-139 -167h-140z" />
    <glyph glyph-name="abreve.alt" horiz-adv-x="672" 
d="M326 113q50 0 75 42.5t25 113.5q0 72 -24.5 114.5t-73.5 42.5q-51 0 -77 -42.5t-26 -114.5q0 -71 25.5 -113.5t75.5 -42.5zM269 -11q-109 0 -170 75.5t-61 204.5q0 128 65 207.5t182 79.5q95 0 144 -65v54h178v-545h-178v61q-31 -36 -66.5 -54t-93.5 -18zM342 608
q-79 0 -129.5 41.5t-60.5 128.5h103q5 -28 28 -45.5t58 -17.5t58.5 17.5t29.5 45.5h99q-5 -81 -56.5 -125.5t-129.5 -44.5z" />
    <glyph glyph-name="acircumflex.alt" horiz-adv-x="672" 
d="M326 113q50 0 75 42.5t25 113.5q0 72 -24.5 114.5t-73.5 42.5q-51 0 -77 -42.5t-26 -114.5q0 -71 25.5 -113.5t75.5 -42.5zM269 -11q-109 0 -170 75.5t-61 204.5q0 128 65 207.5t182 79.5q95 0 144 -65v54h178v-545h-178v61q-31 -36 -66.5 -54t-93.5 -18zM170 608v119
l166 62l166 -62v-121l-166 60z" />
    <glyph glyph-name="adieresis.alt" horiz-adv-x="672" 
d="M326 113q50 0 75 42.5t25 113.5q0 72 -24.5 114.5t-73.5 42.5q-51 0 -77 -42.5t-26 -114.5q0 -71 25.5 -113.5t75.5 -42.5zM269 -11q-109 0 -170 75.5t-61 204.5q0 128 65 207.5t182 79.5q95 0 144 -65v54h178v-545h-178v61q-31 -36 -66.5 -54t-93.5 -18zM365 623v155
h161v-155h-161zM128 623v155h161v-155h-161z" />
    <glyph glyph-name="agrave.alt" horiz-adv-x="672" 
d="M326 113q50 0 75 42.5t25 113.5q0 72 -24.5 114.5t-73.5 42.5q-51 0 -77 -42.5t-26 -114.5q0 -71 25.5 -113.5t75.5 -42.5zM269 -11q-109 0 -170 75.5t-61 204.5q0 128 65 207.5t182 79.5q95 0 144 -65v54h178v-545h-178v61q-31 -36 -66.5 -54t-93.5 -18zM348 778
l97 -167h-140l-139 167h182z" />
    <glyph glyph-name="amacron.alt" horiz-adv-x="672" 
d="M326 113q50 0 75 42.5t25 113.5q0 72 -24.5 114.5t-73.5 42.5q-51 0 -77 -42.5t-26 -114.5q0 -71 25.5 -113.5t75.5 -42.5zM269 -11q-109 0 -170 75.5t-61 204.5q0 128 65 207.5t182 79.5q95 0 144 -65v54h178v-545h-178v61q-31 -36 -66.5 -54t-93.5 -18zM154 623v117
h363v-117h-363z" />
    <glyph glyph-name="aogonek.alt" horiz-adv-x="672" 
d="M326 113q50 0 75 42.5t25 113.5q0 72 -24.5 114.5t-73.5 42.5q-51 0 -77 -42.5t-26 -114.5q0 -71 25.5 -113.5t75.5 -42.5zM511 0h-82v61q-31 -36 -66.5 -54t-93.5 -18q-109 0 -170 75.5t-61 204.5q0 128 65 207.5t182 79.5q95 0 144 -65v54h178v-545
q-42 -29 -58.5 -47.5t-16.5 -39.5q0 -20 13.5 -33t37.5 -13l24 1v-98q-25 -2 -57 -2q-70 0 -108.5 28.5t-38.5 81.5q0 70 108 122z" />
    <glyph glyph-name="aring.alt" horiz-adv-x="672" 
d="M326 113q50 0 75 42.5t25 113.5q0 72 -24.5 114.5t-73.5 42.5q-51 0 -77 -42.5t-26 -114.5q0 -71 25.5 -113.5t75.5 -42.5zM269 -11q-109 0 -170 75.5t-61 204.5q0 128 65 207.5t182 79.5q95 0 144 -65v54h178v-545h-178v61q-31 -36 -66.5 -54t-93.5 -18zM194 727
q0 52 39 89t94 37t94 -37t39 -89t-39 -89t-94 -37t-94 37t-39 89zM269 727q0 -26 17 -44t41 -18q23 0 39.5 18t16.5 44q0 25 -16.5 42.5t-39.5 17.5q-24 0 -41 -17.5t-17 -42.5z" />
    <glyph glyph-name="atilde.alt" horiz-adv-x="672" 
d="M326 113q50 0 75 42.5t25 113.5q0 72 -24.5 114.5t-73.5 42.5q-51 0 -77 -42.5t-26 -114.5q0 -71 25.5 -113.5t75.5 -42.5zM269 -11q-109 0 -170 75.5t-61 204.5q0 128 65 207.5t182 79.5q95 0 144 -65v54h178v-545h-178v61q-31 -36 -66.5 -54t-93.5 -18zM220 615h-95
q1 76 36 115t97 39q29 0 78 -17.5t68 -17.5q43 0 43 38h99q-1 -78 -35 -116.5t-93 -38.5q-30 0 -83.5 18.5t-69.5 18.5q-42 0 -45 -39z" />
    <glyph glyph-name="lacute.alt" horiz-adv-x="381" 
d="M251 778v-579q0 -40 18 -57.5t53 -17.5q20 0 40 2l9 -124q-59 -14 -118 -14q-90 0 -139 51t-49 144v595h186zM81 805l87 142h188l-130 -142h-145z" />
    <glyph glyph-name="lcaron.alt" horiz-adv-x="381" 
d="M251 778v-579q0 -40 18 -57.5t53 -17.5q20 0 40 2l9 -124q-59 -14 -118 -14q-90 0 -139 51t-49 144v595h186zM291 570l25 208h150l-85 -208h-90z" />
    <glyph glyph-name="lcommaaccent.alt" horiz-adv-x="381" 
d="M251 778v-579q0 -40 18 -57.5t53 -17.5q20 0 40 2l9 -124q-59 -14 -118 -14q-90 0 -139 51t-49 144v595h186zM134 -245l-10 55q75 11 83 41h-84v101h171v-48q0 -70 -34 -103t-126 -46z" />
    <glyph glyph-name="tcaron.alt" horiz-adv-x="423" 
d="M303 423v-423h-184v423h-99v122h99v146h184v-146h100v-122h-100zM369 570l25 208h150l-85 -208h-90z" />
    <glyph glyph-name="tcommaaccent.alt" horiz-adv-x="423" 
d="M303 423v-423h-184v423h-99v122h99v146h184v-146h100v-122h-100zM135 -245l-10 55q75 11 83 41h-84v101h171v-48q0 -70 -34 -103t-126 -46z" />
    <glyph glyph-name="tbar.alt" horiz-adv-x="423" 
d="M403 250h-100v-250h-184v250h-99v108h99v65h-99v122h99v146h184v-146h100v-122h-100v-65h100v-108z" />
    <glyph glyph-name="ldot.alt" horiz-adv-x="491" 
d="M316 308v175h186v-175h-186zM251 778v-579q0 -40 18 -57.5t53 -17.5q20 0 40 2l9 -124q-59 -14 -118 -14q-90 0 -139 51t-49 144v595h186z" />
    <glyph glyph-name="ae.alt" horiz-adv-x="1007" 
d="M712 -15q-84 0 -141 61v-46h-157v46q-49 -57 -145 -57q-109 0 -170 75.5t-61 204.5q0 128 65 207.5t182 79.5q81 0 124 -51v40h162v-40q58 54 146 54q127 0 197 -88.5t67 -247.5h-382q5 -49 35 -78t75 -29q67 0 105 59l153 -39q-27 -68 -93 -109.5t-162 -41.5zM701 436
q-43 0 -69.5 -28t-31.5 -76h197q-2 48 -28.5 76t-67.5 28zM326 113q50 0 75 42.5t25 113.5q0 72 -24.5 114.5t-73.5 42.5q-51 0 -77 -42.5t-26 -114.5q0 -71 25.5 -113.5t75.5 -42.5z" />
    <glyph glyph-name="aeacute.alt" horiz-adv-x="1007" 
d="M712 -15q-84 0 -141 61v-46h-157v46q-49 -57 -145 -57q-109 0 -170 75.5t-61 204.5q0 128 65 207.5t182 79.5q81 0 124 -51v40h162v-40q58 54 146 54q127 0 197 -88.5t67 -247.5h-382q5 -49 35 -78t75 -29q67 0 105 59l153 -39q-27 -68 -93 -109.5t-162 -41.5zM701 436
q-43 0 -69.5 -28t-31.5 -76h197q-2 48 -28.5 76t-67.5 28zM326 113q50 0 75 42.5t25 113.5q0 72 -24.5 114.5t-73.5 42.5q-51 0 -77 -42.5t-26 -114.5q0 -71 25.5 -113.5t75.5 -42.5zM421 611l97 167h182l-139 -167h-140z" />
    <glyph glyph-name="f_l.alt" horiz-adv-x="790" 
d="M16 422v123h81v17q0 113 53.5 167.5t172.5 54.5l82 -6l-12 -140q-16 2 -39 2q-39 0 -55 -15.5t-16 -56.5v-23h108v-123h-108v-422h-186v422h-81zM660 778v-579q0 -40 18 -57.5t53 -17.5q20 0 40 2l9 -124q-59 -14 -118 -14q-90 0 -139 51t-49 144v595h186z" />
    <glyph glyph-name="lslash.alt" horiz-adv-x="381" 
d="M253 -12q-90 0 -139 51t-49 144v120l-80 -36v132l80 35v344h186v-261l80 35v-131l-80 -36v-186q0 -40 18 -57.5t53 -17.5q20 0 40 2l9 -124q-59 -14 -118 -14z" />
    <glyph glyph-name="comma.tab" horiz-adv-x="310" 
d="M86 -197l-43 64q52 29 74 59t24 74h-79v175h186v-138q0 -81 -36.5 -138t-125.5 -96z" />
    <glyph glyph-name="period.tab" horiz-adv-x="310" 
d="M62 0v175h186v-175h-186z" />
    <glyph glyph-name="colon.tab" horiz-adv-x="310" 
d="M62 370v175h186v-175h-186zM62 0v175h186v-175h-186z" />
    <glyph glyph-name="semicolon.tab" horiz-adv-x="310" 
d="M62 370v175h186v-175h-186zM86 -211l-43 68q52 31 74 63.5t24 79.5h-79v175h186v-135q0 -88 -36.5 -148.5t-125.5 -102.5z" />
    <glyph glyph-name="questiondown.uc" horiz-adv-x="590" 
d="M374 496l1 -40q1 -53 -19.5 -81.5t-76.5 -68.5q-52 -37 -69.5 -57.5t-17.5 -54.5q0 -35 24.5 -56.5t67.5 -21.5q94 0 113 108l173 -26q-12 -94 -84 -161t-204 -67q-130 0 -202 57.5t-72 157.5q0 38 8 67t26.5 52.5t36.5 39t51 38.5q6 4 17.5 12t15.5 11l12 9t11 8.5
t8.5 7.5t7 8t4.5 7.5t4 9t2 10t1 11.5l1 20h160zM387 755v-175h-186v175h186z" />
    <glyph glyph-name="exclamdown.uc" horiz-adv-x="346" 
d="M235 496l24 -251v-268h-172v268l25 251h123zM266 755v-175h-186v175h186z" />
    <glyph glyph-name="hyphen.uc" horiz-adv-x="437" 
d="M45 272v149h347v-149h-347z" />
    <glyph glyph-name="endash.uc" horiz-adv-x="530" 
d="M30 286v120h470v-120h-470z" />
    <glyph glyph-name="emdash.uc" horiz-adv-x="930" 
d="M30 286v120h870v-120h-870z" />
    <glyph glyph-name="at.uc" horiz-adv-x="1072" 
d="M524 -151q-204 0 -334 127.5t-130 329.5q0 147 66.5 262.5t181.5 178.5t258 63q209 0 330 -119.5t121 -294.5q0 -147 -81 -233.5t-198 -86.5q-115 0 -146 85h-4q-31 -40 -65.5 -56.5t-83.5 -16.5q-73 0 -119.5 50.5t-46.5 143.5q0 135 68.5 219.5t172.5 84.5
q83 0 119 -64h4l11 49h157l-60 -323q-15 -77 51 -77q54 0 94.5 64t40.5 155q0 157 -99 253t-274 96q-181 0 -294 -122t-113 -303q0 -184 107 -288t277 -104q174 0 291 85l38 -55q-67 -50 -145.5 -76.5t-194.5 -26.5zM502 199q51 0 80.5 57t29.5 131q0 85 -65 85
q-46 0 -78 -55.5t-32 -134.5q0 -42 18 -62.5t47 -20.5z" />
    <glyph glyph-name="slash.tab" horiz-adv-x="465" 
d="M-22 -163l353 961h122l-352 -961h-123z" />
    <glyph glyph-name="slash.tabuc" horiz-adv-x="417" 
d="M-27 -118l353 961h122l-352 -961h-123z" />
    <glyph glyph-name="slash.uc" horiz-adv-x="436" 
d="M-27 -118l353 961h122l-352 -961h-123z" />
    <glyph glyph-name="backslash.uc" horiz-adv-x="437" 
d="M107 843l353 -961h-123l-352 961h122z" />
    <glyph glyph-name="bar.uc" horiz-adv-x="266" 
d="M75 -118v961h116v-961h-116z" />
    <glyph glyph-name="parenleft.tab" horiz-adv-x="465" 
d="M422 -163h-104q-27 33 -40.5 50.5t-44.5 68.5t-47.5 96.5t-31.5 117t-15 147.5q0 90 17 168.5t49 139.5t53 92.5t52 70.5q6 7 8 10h104q-25 -41 -40 -70t-42 -93.5t-41 -145.5t-14 -172t14 -171.5t41 -145t42 -93t40 -70.5z" />
    <glyph glyph-name="parenleft.tabuc" horiz-adv-x="465" 
d="M413 -118h-104q-27 33 -40.5 50.5t-44.5 68.5t-47.5 96.5t-31.5 117t-15 147.5q0 90 17 168.5t49 139.5t53 92.5t52 70.5q6 7 8 10h104q-25 -41 -40 -70t-42 -93.5t-41 -145.5t-14 -172t14 -171.5t41 -145t42 -93t40 -70.5z" />
    <glyph glyph-name="parenleft.uc" horiz-adv-x="345" 
d="M340 -118h-104q-27 33 -40.5 50.5t-44.5 68.5t-47.5 96.5t-31.5 117t-15 147.5q0 90 17 168.5t49 139.5t53 92.5t52 70.5q6 7 8 10h104q-25 -41 -40 -70t-42 -93.5t-41 -145.5t-14 -172t14 -171.5t41 -145t42 -93t40 -70.5z" />
    <glyph glyph-name="parenright.tab" horiz-adv-x="465" 
d="M43 798h104q27 -33 40.5 -50.5t44.5 -68.5t47.5 -96.5t31.5 -117t15 -147.5q0 -90 -17 -168.5t-49 -139.5t-53 -92.5t-52 -70.5q-6 -7 -8 -10h-104q25 41 40 70t42 93.5t41 145.5t14 172t-14 171.5t-41 145t-42 93t-40 70.5z" />
    <glyph glyph-name="parenright.tabuc" horiz-adv-x="465" 
d="M52 843h104q27 -33 40.5 -50.5t44.5 -68.5t47.5 -96.5t31.5 -117t15 -147.5q0 -90 -17 -168.5t-49 -139.5t-53 -92.5t-52 -70.5q-6 -7 -8 -10h-104q25 41 40 70t42 93.5t41 145.5t14 172t-14 171.5t-41 145t-42 93t-40 70.5z" />
    <glyph glyph-name="parenright.uc" horiz-adv-x="345" 
d="M5 843h104q27 -33 40.5 -50.5t44.5 -68.5t47.5 -96.5t31.5 -117t15 -147.5q0 -90 -17 -168.5t-49 -139.5t-53 -92.5t-52 -70.5q-6 -7 -8 -10h-104q25 41 40 70t42 93.5t41 145.5t14 172t-14 171.5t-41 145t-42 93t-40 70.5z" />
    <glyph glyph-name="bracketleft.tab" horiz-adv-x="465" 
d="M158 -163v961h260v-97h-128v-767h128v-97h-260z" />
    <glyph glyph-name="bracketleft.tabuc" horiz-adv-x="465" 
d="M155 -118v961h260v-97h-128v-767h128v-97h-260z" />
    <glyph glyph-name="bracketleft.uc" horiz-adv-x="345" 
d="M80 -118v961h260v-97h-128v-767h128v-97h-260z" />
    <glyph glyph-name="bracketright.tab" horiz-adv-x="465" 
d="M307 798v-961h-260v97h127v767h-127v97h260z" />
    <glyph glyph-name="bracketright.tabuc" horiz-adv-x="465" 
d="M310 843v-961h-260v97h127v767h-127v97h260z" />
    <glyph glyph-name="bracketright.uc" horiz-adv-x="345" 
d="M265 843v-961h-260v97h127v767h-127v97h260z" />
    <glyph glyph-name="braceleft.uc" horiz-adv-x="350" 
d="M28 304v114h31q75 0 68 85l-12 164q-7 98 47 137t165 39h28v-94h-22q-51 0 -67.5 -17.5t-14.5 -64.5l6 -157q2 -66 -20 -98.5t-76 -46.5v-5q52 -11 76 -44t21 -94l-7 -164q-2 -46 14.5 -64t67.5 -18h22v-94h-32q-110 0 -162.5 38.5t-45.5 136.5l12 169q3 39 -16 58.5
t-53 19.5h-30z" />
    <glyph glyph-name="braceleft.tab" horiz-adv-x="465" 
d="M107 259v114h31q75 0 68 85l-12 164q-7 98 47 137t165 39h28v-94h-22q-51 0 -67.5 -17.5t-14.5 -64.5l6 -157q2 -66 -20 -98.5t-76 -46.5v-5q52 -11 76 -44t21 -94l-7 -164q-2 -46 14.5 -64t67.5 -18h22v-94h-32q-110 0 -162.5 38.5t-45.5 136.5l12 169q3 39 -16 58.5
t-53 19.5h-30z" />
    <glyph glyph-name="braceleft.tabuc" horiz-adv-x="465" 
d="M88 304v114h31q75 0 68 85l-12 164q-7 98 47 137t165 39h28v-94h-22q-51 0 -67.5 -17.5t-14.5 -64.5l6 -157q2 -66 -20 -98.5t-76 -46.5v-5q52 -11 76 -44t21 -94l-7 -164q-2 -46 14.5 -64t67.5 -18h22v-94h-32q-110 0 -162.5 38.5t-45.5 136.5l12 169q3 39 -16 58.5
t-53 19.5h-30z" />
    <glyph glyph-name="braceright.uc" horiz-adv-x="350" 
d="M322 421v-114h-31q-75 0 -68 -85l12 -164q7 -98 -47 -137t-165 -39h-28v94h22q51 0 67.5 17.5t14.5 64.5l-6 157q-2 66 20 98.5t76 46.5v5q-52 11 -76 44t-21 94l7 164q2 46 -14.5 64t-67.5 18h-22v94h32q110 0 162.5 -38.5t45.5 -136.5l-12 -169q-3 -39 16 -58.5
t53 -19.5h30z" />
    <glyph glyph-name="braceright.tab" horiz-adv-x="465" 
d="M358 376v-114h-31q-75 0 -68 -85l12 -164q7 -98 -47 -137t-165 -39h-28v94h22q51 0 67.5 17.5t14.5 64.5l-6 157q-2 66 20 98.5t76 46.5v5q-52 11 -76 44t-21 94l7 164q2 46 -14.5 64t-67.5 18h-22v94h32q110 0 162.5 -38.5t45.5 -136.5l-12 -169q-3 -39 16 -58.5
t53 -19.5h30z" />
    <glyph glyph-name="braceright.tabuc" horiz-adv-x="465" 
d="M382 421v-114h-31q-75 0 -68 -85l12 -164q7 -98 -47 -137t-165 -39h-28v94h22q51 0 67.5 17.5t14.5 64.5l-6 157q-2 66 20 98.5t76 46.5v5q-52 11 -76 44t-21 94l7 164q2 46 -14.5 64t-67.5 18h-22v94h32q110 0 162.5 -38.5t45.5 -136.5l-12 -169q-3 -39 16 -58.5
t53 -19.5h30z" />
    <glyph glyph-name="degree.old" horiz-adv-x="390" 
d="M40 560q0 66 44 110.5t111 44.5t111 -44.5t44 -110.5t-45 -110t-112 -44q-66 0 -109.5 44t-43.5 110zM113 560q0 -39 22 -63.5t59 -24.5t60 24.5t23 63.5t-23 64t-60 25q-36 0 -58.5 -25t-22.5 -64z" />
    <glyph glyph-name="numbersign.tab" 
d="M358 276l23 144h-115l-23 -144h115zM313 0l29 177h-115l-29 -177h-105l29 177h-97v99h113l23 144h-96v99h113l25 156h105l-25 -156h115l25 156h105l-25 -156h92v-99h-109l-23 -144h92v-99h-108l-29 -177h-105z" />
    <glyph glyph-name="percent.old" horiz-adv-x="794" 
d="M40 538q0 85 46 132.5t116 47.5q73 0 114.5 -45.5t41.5 -134.5q0 -86 -44.5 -133t-115.5 -47q-74 0 -116 46.5t-42 133.5zM79 0l525 702h107l-522 -702h-110zM198 641q-46 0 -46 -103t47 -103q22 0 33.5 23t11.5 80q0 103 -46 103zM436 167q0 85 46 132.5t116 47.5
q73 0 114.5 -45.5t41.5 -134.5q0 -86 -44.5 -133t-115.5 -47q-74 0 -116 46.5t-42 133.5zM594 270q-46 0 -46 -103t47 -103q22 0 33.5 23t11.5 80q0 103 -46 103z" />
    <glyph glyph-name="percent.tab" horiz-adv-x="775" 
d="M188 395q-74 0 -116 49t-42 139q0 88 45.5 138t116.5 50q73 0 114 -47.5t41 -140.5q0 -90 -44 -139t-115 -49zM188 0h-117l514 755h116zM189 480q22 0 32.5 23t10.5 80q0 103 -44 103q-45 0 -45 -103t46 -103zM584 -14q-74 0 -116 49t-42 139q0 88 45.5 138t116.5 50
q73 0 114 -47.5t41 -140.5q0 -90 -44 -139t-115 -49zM585 71q22 0 32.5 23t10.5 80q0 103 -44 103q-45 0 -45 -103t46 -103z" />
    <glyph glyph-name="percent.tabold" horiz-adv-x="775" 
d="M30 538q0 85 46 132.5t116 47.5q73 0 114.5 -45.5t41.5 -134.5q0 -86 -44.5 -133t-115.5 -47q-74 0 -116 46.5t-42 133.5zM69 0l525 702h107l-522 -702h-110zM188 641q-46 0 -46 -103t47 -103q22 0 33.5 23t11.5 80q0 103 -46 103zM426 167q0 85 46 132.5t116 47.5
q73 0 114.5 -45.5t41.5 -134.5q0 -86 -44.5 -133t-115.5 -47q-74 0 -116 46.5t-42 133.5zM584 270q-46 0 -46 -103t47 -103q22 0 33.5 23t11.5 80q0 103 -46 103z" />
    <glyph glyph-name="perthousand.old" horiz-adv-x="1150" 
d="M40 538q0 85 46 132.5t116 47.5q73 0 114.5 -45.5t41.5 -134.5q0 -86 -44.5 -133t-115.5 -47q-74 0 -116 46.5t-42 133.5zM79 0l525 702h107l-522 -702h-110zM198 641q-46 0 -46 -103t47 -103q22 0 33.5 23t11.5 80q0 103 -46 103zM792 167q0 85 46 132.5t116 47.5
q73 0 114.5 -45.5t41.5 -134.5q0 -86 -44.5 -133t-115.5 -47q-74 0 -116 46.5t-42 133.5zM436 167q0 85 46 132.5t116 47.5q73 0 114.5 -45.5t41.5 -134.5q0 -86 -44.5 -133t-115.5 -47q-74 0 -116 46.5t-42 133.5zM950 270q-46 0 -46 -103t47 -103q22 0 33.5 23t11.5 80
q0 103 -46 103zM594 270q-46 0 -46 -103t47 -103q22 0 33.5 23t11.5 80q0 103 -46 103z" />
    <glyph glyph-name="perthousand.tab" horiz-adv-x="1240" 
d="M216 395q-74 0 -116 49t-42 139q0 88 45.5 138t116.5 50q73 0 114 -47.5t41 -140.5q0 -90 -44 -139t-115 -49zM216 0h-117l514 755h116zM217 480q22 0 32.5 23t10.5 80q0 103 -44 103q-45 0 -45 -103t46 -103zM612 -14q-74 0 -116 49t-42 139q0 88 45.5 138t116.5 50
q73 0 114 -47.5t41 -140.5q0 -90 -44 -139t-115 -49zM993 -14q-74 0 -116 49t-42 139q0 88 45.5 138t116.5 50q73 0 114 -47.5t41 -140.5q0 -90 -44 -139t-115 -49zM613 71q22 0 32.5 23t10.5 80q0 103 -44 103q-45 0 -45 -103t46 -103zM994 71q22 0 32.5 23t10.5 80
q0 103 -44 103q-45 0 -45 -103t46 -103z" />
    <glyph glyph-name="perthousand.tabold" horiz-adv-x="1240" 
d="M58 538q0 85 46 132.5t116 47.5q73 0 114.5 -45.5t41.5 -134.5q0 -86 -44.5 -133t-115.5 -47q-74 0 -116 46.5t-42 133.5zM97 0l525 702h107l-522 -702h-110zM170 538q0 -103 47 -103q22 0 33.5 23t11.5 80q0 103 -46 103t-46 -103zM834 167q0 85 46 132.5t116 47.5
q73 0 114.5 -45.5t41.5 -134.5q0 -86 -44.5 -133t-115.5 -47q-74 0 -116 46.5t-42 133.5zM454 167q0 85 46 132.5t116 47.5q73 0 114.5 -45.5t41.5 -134.5q0 -86 -44.5 -133t-115.5 -47q-74 0 -116 46.5t-42 133.5zM992 270q-46 0 -46 -103t47 -103q22 0 33.5 23t11.5 80
q0 103 -46 103zM612 270q-46 0 -46 -103t47 -103q22 0 33.5 23t11.5 80q0 103 -46 103z" />
    <glyph glyph-name="ordfeminine.old" horiz-adv-x="474" 
d="M221 381q31 0 51 22t20 58v10q-18 2 -41 2q-75 0 -75 -47q0 -20 12.5 -32.5t32.5 -12.5zM171 290q-62 0 -99 34.5t-37 89.5q0 130 200 130l53 -1v16q0 57 -51 57q-46 0 -56 -47l-126 27q10 48 56 83.5t128 35.5q104 0 146 -41.5t42 -134.5v-139l2 -101h-131l-3 47
q-43 -56 -124 -56z" />
    <glyph glyph-name="ordmasculine.old" horiz-adv-x="510" 
d="M253 291q-103 0 -160.5 59t-57.5 153t58.5 153t162.5 59t161.5 -59t57.5 -153q0 -93 -59.5 -152.5t-162.5 -59.5zM255 395q70 0 70 108t-70 108q-71 0 -71 -108t71 -108z" />
    <glyph glyph-name="guilsinglright.uc" horiz-adv-x="350" 
d="M199 96h-147l106 208l-106 211h149l113 -210z" />
    <glyph glyph-name="guilsinglleft.uc" horiz-adv-x="350" 
d="M151 515h147l-106 -208l106 -211h-149l-113 210z" />
    <glyph glyph-name="guillemotleft.uc" horiz-adv-x="582" 
d="M383 515h147l-106 -208l106 -211h-149l-113 210zM151 515h147l-106 -208l106 -211h-149l-113 210z" />
    <glyph glyph-name="guillemotright.uc" horiz-adv-x="582" 
d="M431 96h-147l106 208l-106 211h149l113 -210zM199 96h-147l106 208l-106 211h149l113 -210z" />
    <glyph glyph-name="minus.tab" 
d="M75 258v138h470v-138h-470z" />
    <glyph glyph-name="plus.tab" 
d="M75 259v136h163v169h144v-169h163v-136h-163v-175h-144v175h-163z" />
    <glyph glyph-name="multiply.tab" 
d="M165 83l-90 89l149 146l-149 148l88 91l148 -152l145 148l89 -90l-147 -144l147 -142l-89 -90l-145 145z" />
    <glyph glyph-name="less.tab" 
d="M545 58l-470 198v111l470 198v-129l-309 -123l309 -122v-133z" />
    <glyph glyph-name="equal.tab" 
d="M75 374v119h470v-119h-470zM75 160v119h470v-119h-470z" />
    <glyph glyph-name="greater.tab" 
d="M75 566l470 -198v-111l-470 -198v129l309 123l-309 122v133z" />
    <glyph glyph-name="plusminus.tab" 
d="M75 305v124h168v145h134v-145h168v-124h-168v-151h-134v151h-168zM75 0v114h470v-114h-470z" />
    <glyph glyph-name="lessequal.tab" 
d="M545 143l-470 166v111l470 165v-133l-293 -86l293 -91v-132zM75 0v114h470v-114h-470z" />
    <glyph glyph-name="notequal.tab" 
d="M545 160h-276l-48 -91h-93l48 91h-101v119h164l50 95h-214v119h277l46 88h93l-46 -88h100v-119h-163l-50 -95h213v-119z" />
    <glyph glyph-name="greaterequal.tab" 
d="M75 585l470 -166v-111l-470 -165v133l293 86l-293 91v132zM75 0v114h470v-114h-470z" />
    <glyph glyph-name="divide.tab" 
d="M235 441v138h150v-138h-150zM75 260v134h470v-134h-470zM235 75v138h150v-138h-150z" />
    <glyph glyph-name="approxequal.tab" 
d="M72 347q0 78 38.5 120.5t111.5 42.5q41 0 98 -24.5t81 -24.5q52 0 58 51h88q0 -77 -39.5 -120t-105.5 -43q-42 0 -99.5 25t-86.5 25q-47 0 -54 -52h-90zM72 137q0 78 38.5 120.5t111.5 42.5q41 0 98.5 -24t80.5 -24q52 0 58 50h88q0 -77 -39.5 -120t-105.5 -43
q-42 0 -99.5 25t-86.5 25q-47 0 -54 -52h-90z" />
    <glyph glyph-name="acute.uc" horiz-adv-x="500" 
d="M115 805l87 142h188l-130 -142h-145z" />
    <glyph glyph-name="breve.uc" horiz-adv-x="500" 
d="M249 796q-75 0 -126 37t-61 110h111q19 -47 75 -47t77 47h107q-5 -68 -57 -107.5t-126 -39.5z" />
    <glyph glyph-name="caron.uc" horiz-adv-x="494" 
d="M413 957v-110l-166 -52l-166 52v112l166 -50z" />
    <glyph glyph-name="circumflex.uc" horiz-adv-x="494" 
d="M81 798v114l166 52l166 -52v-116l-166 50z" />
    <glyph glyph-name="dieresis.uc" horiz-adv-x="500" 
d="M288 805v155h161v-155h-161zM51 805v155h161v-155h-161z" />
    <glyph glyph-name="dotaccent.uc" horiz-adv-x="501" 
d="M170 805v155h161v-155h-161z" />
    <glyph glyph-name="hungarumlaut.uc" horiz-adv-x="500" 
d="M39 805l70 142h153l-88 -142h-135zM239 805l70 142h153l-88 -142h-135z" />
    <glyph glyph-name="grave.uc" horiz-adv-x="500" 
d="M300 947l87 -142h-144l-131 142h188z" />
    <glyph glyph-name="macron.uc" horiz-adv-x="500" 
d="M70 805v117h363v-117h-363z" />
    <glyph glyph-name="tilde.uc" horiz-adv-x="500" 
d="M140 800h-95q1 76 36 115t97 39q29 0 78 -17.5t68 -17.5t31 10t12 28h99q-1 -78 -35 -116.5t-93 -38.5q-30 0 -83.5 18.5t-69.5 18.5q-42 0 -45 -39z" />
    <glyph glyph-name="commaaccent" horiz-adv-x="500" 
d="M193 -245l-10 55q75 11 83 41h-84v101h171v-48q0 -70 -34 -103t-126 -46z" />
    <glyph glyph-name="ring.uc" horiz-adv-x="500" 
d="M117 918q0 52 39 89t94 37t94 -37t39 -89t-39 -89t-94 -37t-94 37t-39 89zM192 918q0 -26 17 -44t41 -18q23 0 39.5 18t16.5 44q0 25 -16.5 42.5t-39.5 17.5q-24 0 -41 -17.5t-17 -42.5z" />
    <glyph glyph-name="caron.alt" horiz-adv-x="500" 
d="M157 570l25 208h150l-85 -208h-90z" />
    <glyph glyph-name="zero.tabzero" 
d="M38 376q0 200 68 296.5t204 96.5q272 0 272 -393q0 -391 -273 -391q-136 0 -203.5 96t-67.5 295zM201 376v-28l198 219q-22 59 -88 59q-59 0 -84.5 -55t-25.5 -195zM307 128q61 0 86.5 53t25.5 195v25l-197 -217q22 -56 85 -56z" />
    <glyph glyph-name="zero.tab" 
d="M38 375q0 201 68 297t204 96q272 0 272 -393q0 -391 -273 -391q-136 0 -203.5 96t-67.5 295zM402 375q0 138 -21 191.5t-71 53.5q-49 0 -70.5 -53.5t-21.5 -191.5t21 -190.5t71 -52.5t71 52.5t21 190.5z" />
    <glyph glyph-name="one.tab" 
d="M577 0h-491v144h177v409l-130 -78l-69 120l255 160h117v-611h141v-144z" />
    <glyph glyph-name="two.tab" 
d="M214 493l-159 14v9q0 104 67.5 179t200.5 75q124 0 187.5 -61.5t63.5 -162.5q0 -21 -3 -40t-6.5 -35t-14.5 -35.5t-18.5 -32.5t-26.5 -35t-30.5 -34.5t-39.5 -39.5t-44 -42t-53.5 -50t-59.5 -55v-3h306v-144h-526v142q235 221 256 241q75 76 87 120q4 15 4 32
q0 45 -23 70t-65 25q-94 0 -102 -122z" />
    <glyph glyph-name="three.tab" 
d="M311 125q44 0 72.5 27.5t28.5 70.5q0 48 -27 71t-73 23h-75v139h74q40 0 65.5 23t25.5 66q0 39 -24.5 61.5t-63.5 22.5q-48 0 -72 -28.5t-32 -83.5l-160 19q7 99 76.5 166t195.5 67q118 0 181 -56t63 -147q0 -62 -32 -104t-84 -62v-3q64 -17 98 -63.5t34 -112.5
q0 -103 -72 -169.5t-196 -66.5q-140 0 -206.5 67t-72.5 180l164 13q8 -61 34.5 -90.5t77.5 -29.5z" />
    <glyph glyph-name="four.tab" 
d="M504 0h-161v148h-315v119l275 488h202v-460h81v-147h-82v-148zM193 295h154v287h-5q-8 -25 -53 -108z" />
    <glyph glyph-name="five.tab" 
d="M308 -15q-133 0 -201 63t-79 162l166 13q19 -99 110 -99q98 0 98 119q0 53 -26.5 82.5t-75.5 29.5q-61 0 -103 -45l-141 39l46 406h438v-147h-304l-15 -159h2q50 41 122 41q103 0 167 -63.5t64 -178.5q0 -120 -72 -191.5t-196 -71.5z" />
    <glyph glyph-name="six.tab" 
d="M580 582l-163 -37q-27 84 -91 84q-50 0 -78.5 -47.5t-32.5 -161.5h2q48 69 147 69q102 0 161 -61.5t59 -178.5q0 -113 -71 -188.5t-194 -75.5q-141 0 -210.5 89.5t-69.5 280.5q0 205 79 309t210 104q104 0 165.5 -51t86.5 -135zM411 240q0 119 -93 119t-93 -119t93 -119
t93 119z" />
    <glyph glyph-name="seven.tab" 
d="M94 0l278 598h-330v157h529v-123l-287 -632h-190z" />
    <glyph glyph-name="eight.tab" 
d="M310 774q117 0 185.5 -59t68.5 -153q0 -111 -100 -168v-3q56 -22 89.5 -67t33.5 -109q0 -108 -73 -170t-205 -62q-131 0 -203.5 61.5t-72.5 168.5q0 65 33.5 110.5t89.5 67.5v3q-100 56 -100 168q0 93 69 152.5t185 59.5zM219 550q0 -46 24.5 -70t66.5 -24t66.5 24
t24.5 70q0 45 -25 69.5t-66 24.5q-42 0 -66.5 -23.5t-24.5 -70.5zM413 220q0 51 -28 79.5t-75 28.5t-75 -28.5t-28 -79.5t28 -79t75 -28q48 0 75.5 28t27.5 79z" />
    <glyph glyph-name="nine.tab" 
d="M209 515q0 -55 24.5 -85t66.5 -30q43 0 68 30t25 85t-24 85t-69 30q-42 0 -66.5 -30.5t-24.5 -84.5zM31 178l154 34q26 -87 103 -87q57 0 87 47t30 163h-3q-53 -61 -137 -61q-100 0 -164 62t-64 177q0 109 71 182.5t197 73.5q128 0 201.5 -92.5t73.5 -270.5
q0 -220 -73 -320.5t-221 -100.5q-210 0 -255 193z" />
    <glyph glyph-name="zero.oldzero" horiz-adv-x="684" 
d="M46 350q0 177 78 270.5t219 93.5q140 0 217.5 -90.5t77.5 -273.5q0 -179 -79 -272t-218 -93q-141 0 -218 91.5t-77 273.5zM216 350q0 -31 1 -45l217 228q-32 49 -92 49q-64 0 -95 -53t-31 -179zM342 117q64 0 95 53t31 180q0 27 -1 39l-215 -226q30 -46 90 -46z" />
    <glyph glyph-name="zero.old" horiz-adv-x="684" 
d="M46 350q0 180 77 272t220 92q295 0 295 -364q0 -182 -77.5 -273.5t-219.5 -91.5q-295 0 -295 365zM342 580q-55 0 -81.5 -52t-26.5 -178q0 -124 27 -177.5t81 -53.5q55 0 81.5 52t26.5 179q0 123 -27 176.5t-81 53.5z" />
    <glyph glyph-name="one.old" horiz-adv-x="465" 
d="M380 0h-175v495l-121 -71l-69 127l245 151h120v-702z" />
    <glyph glyph-name="two.old" horiz-adv-x="611" 
d="M210 460l-168 10q0 102 70 173.5t198 71.5q120 0 185.5 -55t65.5 -144q0 -27 -5 -51.5t-11 -43.5t-23.5 -43.5l-27.5 -38.5t-40 -43t-44.5 -42.5t-57 -51t-62.5 -55.5v-3h281v-144h-526v121q46 42 121 109q147 131 184 174t37 92q0 37 -22 60t-57 23q-95 0 -98 -119z" />
    <glyph glyph-name="three.old" horiz-adv-x="616" 
d="M309 121q43 0 69 24t26 63q0 86 -97 86h-73v128h71q37 0 60.5 20.5t23.5 59.5q0 37 -23 57.5t-57 20.5q-43 0 -69 -26.5t-32 -73.5l-161 18q12 97 80.5 157t184.5 60q119 0 185 -52t66 -135q0 -117 -118 -156v-3q64 -14 101 -59.5t37 -111.5q0 -92 -74.5 -152.5
t-196.5 -60.5q-134 0 -205.5 63t-80.5 167l175 12q15 -106 108 -106z" />
    <glyph glyph-name="four.old" horiz-adv-x="638" 
d="M520 0h-172v133h-321v102l277 467h216v-427h90v-142h-90v-133zM194 274h161v289h-3q-26 -60 -68 -133z" />
    <glyph glyph-name="five.old" horiz-adv-x="613" 
d="M305 -14q-246 0 -275 206l170 17q16 -89 103 -89q46 0 72.5 29t26.5 78q0 45 -27.5 72.5t-73.5 27.5q-54 0 -93 -42l-147 44l52 373h428v-151h-306l-16 -131h2q58 38 135 38q98 0 159.5 -59.5t61.5 -166.5q0 -111 -75.5 -178.5t-196.5 -67.5z" />
    <glyph glyph-name="six.old" horiz-adv-x="640" 
d="M593 532l-159 -26q-27 79 -96 79q-54 0 -83 -45.5t-34 -147.5h2q54 65 163 65q90 0 154 -57.5t64 -167.5q0 -105 -73 -176t-198 -71q-137 0 -213 83t-76 252q0 188 80 291.5t222 103.5q203 0 247 -183zM432 223q0 48 -28.5 78t-73.5 30t-71.5 -30t-26.5 -78
q0 -49 25.5 -78t72.5 -29q46 0 74 30t28 77z" />
    <glyph glyph-name="seven.old" horiz-adv-x="557" 
d="M70 0l265 550h-310v152h505v-116l-274 -586h-186z" />
    <glyph glyph-name="eight.old" horiz-adv-x="637" 
d="M319 721q110 0 182 -55t72 -144q0 -101 -87 -155v-3q48 -20 78.5 -63t30.5 -103q0 -98 -76.5 -157.5t-202.5 -59.5q-127 0 -200.5 58.5t-73.5 156.5q0 60 31 104t78 64v3q-87 55 -87 153q0 89 73 145t182 56zM224 508q0 -39 26.5 -62.5t68.5 -23.5t68 23.5t26 62.5
t-26 63t-68 24q-43 0 -69 -23t-26 -64zM424 209q0 44 -28.5 71t-76.5 27t-77 -27t-29 -71t29 -71t77 -27t76.5 27t28.5 71z" />
    <glyph glyph-name="nine.old" horiz-adv-x="644" 
d="M213 470q0 -48 27.5 -78t74.5 -30t75 30t28 78t-27 78t-76 30q-47 0 -74.5 -30t-27.5 -78zM41 166l155 35q11 -41 39.5 -62t62.5 -21q61 0 91 40t31 142h-4q-49 -58 -139 -58q-102 0 -168.5 61t-66.5 170q0 104 74.5 173t203.5 69q131 0 206.5 -89.5t75.5 -252.5
q0 -190 -76 -289t-223 -99q-107 0 -175.5 47t-86.5 134z" />
    <glyph glyph-name="zero.taboldzero" 
d="M38 350q0 364 272 364t272 -364q0 -366 -273 -366q-271 0 -271 366zM201 350v-29l195 216q-22 51 -86 51q-60 0 -84.5 -51t-24.5 -187zM310 110q60 0 84.5 52t24.5 188v24l-194 -214q22 -50 85 -50z" />
    <glyph glyph-name="zero.tabold" 
d="M38 350q0 364 272 364t272 -364q0 -366 -273 -366q-271 0 -271 366zM401 350q0 134 -20.5 184.5t-70.5 50.5t-70.5 -50.5t-20.5 -184.5q0 -135 20.5 -186t70.5 -51t70.5 51t20.5 186z" />
    <glyph glyph-name="one.tabold" 
d="M573 0h-491v144h178v352l-123 -71l-70 126l246 151h120v-558h140v-144z" />
    <glyph glyph-name="two.tabold" 
d="M218 460l-168 10q0 102 70 173.5t198 71.5q120 0 185.5 -55t65.5 -144q0 -27 -5 -51.5t-11 -43.5t-23.5 -43.5l-27.5 -38.5t-40 -43t-44.5 -42.5t-57 -51t-62.5 -55.5v-3h281v-144h-526v121q46 42 121 109q147 131 184 174t37 92q0 37 -22 60t-57 23q-95 0 -98 -119z" />
    <glyph glyph-name="three.tabold" 
d="M313 121q43 0 68 24t25 63q0 42 -26.5 63.5t-73.5 21.5h-64v128h62q38 0 62.5 21t24.5 60q0 37 -22 57.5t-56 20.5q-83 0 -95 -96l-163 14q13 102 79 159.5t182 57.5q120 0 183.5 -50.5t63.5 -136.5q0 -117 -116 -156v-3q65 -14 100.5 -58.5t35.5 -112.5
q0 -92 -73.5 -152t-193.5 -60q-135 0 -203.5 62.5t-74.5 167.5l172 9q15 -104 103 -104z" />
    <glyph glyph-name="four.tabold" 
d="M505 133v-133h-166v133h-311v108l274 461h203v-427h87v-142h-87zM346 274v274q-20 -46 -61 -118l-90 -156h151z" />
    <glyph glyph-name="five.tabold" 
d="M300 -14q-119 0 -184.5 52.5t-81.5 141.5l159 32q8 -44 36 -68t72 -24q48 0 74.5 29t26.5 78q0 45 -27 72.5t-73 27.5q-59 0 -98 -42l-141 45l43 372h436v-144h-310l-15 -138h2q54 40 132 40q98 0 162 -60.5t64 -167.5q0 -111 -76 -178.5t-201 -67.5z" />
    <glyph glyph-name="six.tabold" 
d="M577 532l-157 -26q-26 82 -91 82q-53 0 -80.5 -46.5t-32.5 -149.5h2q50 65 149 65q91 0 154 -57.5t63 -167.5q0 -105 -70.5 -176t-192.5 -71q-133 0 -206.5 83t-73.5 252q0 191 75.5 292.5t214.5 101.5q107 0 168.5 -51.5t77.5 -130.5zM414 223q0 48 -26 78t-70 30
q-43 0 -67 -29.5t-24 -78.5t23 -78t68 -29q44 0 70 29.5t26 77.5z" />
    <glyph glyph-name="seven.tabold" 
d="M97 0l287 559h-336v143h525v-116l-289 -586h-187z" />
    <glyph glyph-name="eight.tabold" 
d="M307 -19q-128 0 -201 57t-73 158q0 127 108 168l8 3q-94 51 -94 153q0 90 70 145.5t185 55.5q114 0 184 -54.5t70 -144.5q0 -96 -95 -155v-3q117 -44 117 -166q0 -101 -75.5 -159t-203.5 -58zM215 508q0 -39 26.5 -62t68.5 -23t68 23t26 62t-26 62t-68 23
q-43 0 -69 -22.5t-26 -62.5zM415 210q0 44 -28.5 70.5t-76.5 26.5t-77 -26.5t-29 -70.5q0 -43 29 -69.5t77 -26.5t76.5 26.5t28.5 69.5z" />
    <glyph glyph-name="nine.tabold" 
d="M203 472q0 -48 26.5 -77t72.5 -29t72.5 29.5t26.5 76.5t-26 76.5t-73 29.5q-46 0 -72.5 -29.5t-26.5 -76.5zM32 166l153 33q22 -81 103 -81q57 0 85.5 40.5t29.5 141.5h-4q-42 -53 -141 -53q-95 0 -158 58.5t-63 166.5q0 104 72 173.5t194 69.5q130 0 203.5 -88.5
t73.5 -253.5q0 -192 -75.5 -290t-216.5 -98q-104 0 -171.5 48t-84.5 133z" />
    <glyph glyph-name="zero.num" horiz-adv-x="469" 
d="M40 543q0 108 51 164t144 56q94 0 144 -55.5t50 -164.5t-50.5 -164.5t-144.5 -55.5q-194 0 -194 220zM234 672q-33 0 -47.5 -28.5t-14.5 -100.5t14.5 -100.5t47.5 -28.5t48 28.5t15 100.5t-15 100.5t-48 28.5z" />
    <glyph glyph-name="one.num" horiz-adv-x="344" 
d="M280 333h-122v292l-97 -50l-41 83l172 97h88v-422z" />
    <glyph glyph-name="two.num" horiz-adv-x="425" 
d="M156 602l-115 8q3 63 50 108t127 45q77 0 120 -35t43 -92q0 -51 -29 -85.5t-132 -115.5v-4h167v-98h-344v79q171 140 194 163q26 28 26 54q0 19 -12.5 31t-34.5 12q-57 0 -60 -70z" />
    <glyph glyph-name="three.num" horiz-adv-x="423" 
d="M214 413q26 0 42 13t16 35q0 44 -55 44h-48v84h46q49 0 49 43t-49 43q-54 0 -64 -57l-111 11q7 56 54.5 95t123.5 39t119.5 -31.5t43.5 -80.5q0 -73 -74 -95v-1q41 -9 63 -35.5t22 -64.5q0 -55 -50.5 -93t-127.5 -38q-89 0 -136.5 41t-52.5 104l119 6q3 -30 23 -46
t47 -16z" />
    <glyph glyph-name="four.num" horiz-adv-x="449" 
d="M365 333h-118v72h-217v78l173 272h162v-254h54v-96h-54v-72zM142 501h108v173h-12q-19 -43 -46 -89z" />
    <glyph glyph-name="five.num" horiz-adv-x="419" 
d="M212 325q-79 0 -126 34t-56 92l120 10q4 -25 20.5 -38.5t38.5 -13.5q27 0 42 16t15 42q0 27 -15.5 42t-41.5 15q-32 0 -49 -23l-114 26l30 228h284v-97h-200l-9 -76h3q38 25 90 25q60 0 100 -36.5t40 -99.5q0 -66 -48 -106t-124 -40z" />
    <glyph glyph-name="six.num" horiz-adv-x="439" 
d="M401 655l-116 -18q-10 37 -48 37q-62 0 -69 -106h2q35 38 96 38q59 0 99.5 -33.5t40.5 -99.5q0 -65 -47 -107t-130 -42q-91 0 -140.5 50t-49.5 149q0 116 52.5 178t145.5 62q61 0 106 -30t58 -78zM286 469q0 28 -15 44t-42 16t-41.5 -16t-14.5 -44q0 -59 56 -59
q27 0 42 16t15 43z" />
    <glyph glyph-name="seven.num" horiz-adv-x="389" 
d="M63 333l161 324h-194v98h329v-77l-164 -345h-132z" />
    <glyph glyph-name="eight.num" horiz-adv-x="443" 
d="M221 768q74 0 121 -33.5t47 -88.5q0 -38 -15.5 -58t-43.5 -34v-2q72 -22 72 -99q0 -61 -51 -97t-132 -36t-129.5 36.5t-48.5 95.5q0 79 72 100v2q-59 28 -59 92q0 54 46.5 88t120.5 34zM168 636q0 -22 14.5 -35.5t39.5 -13.5q24 0 38.5 13.5t14.5 35.5t-14.5 34.5
t-38.5 12.5q-54 0 -54 -47zM281 460q0 25 -15.5 40t-43.5 15q-29 0 -44.5 -15t-15.5 -40t15.5 -39.5t44.5 -14.5q27 0 43 15t16 39z" />
    <glyph glyph-name="nine.num" horiz-adv-x="448" 
d="M161 616q0 -59 56 -59q57 0 57 59q0 60 -57 60q-28 0 -42 -17t-14 -43zM37 435l110 21q18 -47 65 -47q66 0 67 100h-3q-33 -29 -88 -29q-59 0 -101.5 36t-42.5 100q0 62 47 104.5t126 42.5q92 0 142 -55.5t50 -152.5q0 -109 -52 -170t-145 -61q-67 0 -114.5 29t-60.5 82z
" />
    <glyph glyph-name="Euro.tab" 
d="M594 185q-45 -202 -254 -202q-212 0 -251 259h-58v97h49v31q0 28 1 42h-50v97h58q40 260 260 260q100 0 161 -52.5t80 -144.5l-145 -37q-13 46 -34 68.5t-60 22.5q-40 0 -62 -25.5t-31 -91.5h128v-97h-135v-28q0 -31 1 -45h134v-97h-127q9 -64 30.5 -91t60.5 -27t60 21
t33 71z" />
    <glyph glyph-name="dollar.tab" 
d="M209 563q0 -36 16 -56t51 -29v159q-32 -5 -49.5 -25t-17.5 -49zM417 212q0 32 -16 51.5t-55 30.5v-165q71 14 71 83zM346 -142h-70v127q-109 8 -173 65t-78 154l162 21q16 -84 89 -96v182l-32 8q-197 48 -197 225q0 93 65 156.5t164 72.5v92h70v-93q95 -10 153.5 -60
t76.5 -131l-157 -33q-20 68 -73 85v-172l24 -5q215 -49 215 -222q0 -103 -61 -172t-178 -78v-126z" />
    <glyph glyph-name="uni20B9.tab" 
d="M559 411h-104q-9 -66 -39.5 -107.5t-89.5 -75.5l157 -228h-201l-124 181h-78v114h57q109 0 130 116h-187v114h187q-21 116 -132 116h-55v114h479v-114h-172v-2q52 -47 65 -114h107v-114z" />
    <glyph glyph-name="uni20BA.tab" 
d="M247 0h-137v248l-79 -26v108l79 26v77l-79 -26v108l79 26v214h173v-156l131 44v-108l-131 -44v-77l131 44v-108l-131 -44v-154h4q119 0 148 134l159 -31q-28 -127 -118.5 -191t-228.5 -64z" />
    <glyph glyph-name="cent.tab" 
d="M591 176q-14 -77 -72.5 -129t-159.5 -61v-128h-70v128q-123 10 -185 84.5t-62 200.5q0 116 64 194.5t183 91.5v129h70v-128q98 -7 160 -60.5t69 -120.5l-174 -20q-16 59 -55 72v-313q40 14 59 77zM224 272q0 -134 65 -156v313q-65 -23 -65 -157z" />
    <glyph glyph-name="sterling.tab" 
d="M573 148v-148h-539v116q65 8 94.5 52t12.5 126h-92v121h66l-12 58q-27 129 40 213t203 84q106 0 166 -55.5t70 -156.5l-156 -28q-10 52 -28 75t-55 23q-89 0 -67 -130l15 -83h162v-121h-141q10 -96 -70 -142v-4h331z" />
    <glyph glyph-name="yen.tab" 
d="M567 96h-161v-96h-183v96h-172v102h172v83h-172v102h154l-186 372h185l115 -279l105 279h176l-180 -372h147v-102h-161v-83h161v-102z" />
    <glyph glyph-name="florin.tab" 
d="M529 422h-152l-61 -585h-168l59 585h-114v123h127l2 20q11 110 66.5 166t166.5 56q18 0 40 -2.5t35 -4.5l13 -2l-12 -141q-34 5 -59 5q-72 0 -80 -77l-2 -20h139v-123z" />
    <glyph glyph-name="Euro.old" horiz-adv-x="701" 
d="M668 191q-44 -207 -277 -207t-279 237h-88v95h77v26q0 28 1 41h-78v95h91q26 113 96 175t185 62q222 0 269 -199l-169 -27q-22 93 -98 93q-83 0 -108 -104h152v-95h-163q-1 -11 -1 -35v-32h164v-95h-153q24 -103 109 -103q37 0 63.5 24.5t37.5 70.5z" />
    <glyph glyph-name="dollar.old" horiz-adv-x="645" 
d="M279 448l7 -1v149q-75 -9 -75 -73q0 -65 68 -75zM365 271l-9 2v-158q80 13 80 78q0 64 -71 78zM356 -142h-70v127q-111 6 -177.5 60.5t-83.5 147.5l169 19q17 -84 92 -97v170l-34 6q-204 36 -204 212q0 92 66.5 149.5t171.5 65.5v92h70v-93q191 -16 231 -192l-157 -22
q-17 72 -74 89v-157l62 -10q81 -13 132.5 -62.5t51.5 -141.5q0 -93 -61 -159t-185 -76v-128z" />
    <glyph glyph-name="uni20B9.old" horiz-adv-x="630" 
d="M335 217l154 -217h-208l-128 178h-81v114h71q108 0 133 90h-204v114h204q-23 90 -135 90h-69v114h502v-114h-167v-2q42 -34 58 -88h109v-114h-106q-22 -106 -133 -163v-2z" />
    <glyph glyph-name="uni20BA.old" horiz-adv-x="642" 
d="M305 0h-183v234l-87 -29v105l87 29v79l-87 -29v106l87 29v176h175v-117l154 51v-106l-154 -51v-79l154 51v-105l-154 -51v-140h10q69 0 107 29t56 99l151 -35q-31 -121 -113 -183.5t-203 -62.5z" />
    <glyph glyph-name="sterling.old" horiz-adv-x="628" 
d="M578 142v-142h-531v118q130 15 97 155h-87v113h61l-12 54q-28 122 42 199t205 77q103 0 161.5 -51.5t68.5 -145.5l-154 -26q-10 48 -27.5 68t-55.5 20q-92 0 -69 -118l15 -77h156v-113h-135q6 -85 -69 -128v-3h334z" />
    <glyph glyph-name="yen.old" horiz-adv-x="700" 
d="M632 93h-186v-93h-183v93h-197v94h197v91h-197v94h167l-194 330h200l120 -233l111 233h191l-190 -330h161v-94h-186v-91h186v-94z" />
    <glyph glyph-name="florin.old" horiz-adv-x="465" 
d="M423 372h-122l-55 -535h-166l54 535h-87v123h100l2 20q12 114 66.5 168t154.5 54q17 0 36 -2.5t30 -4.5l11 -2l-12 -139q-20 5 -39 5q-72 0 -80 -79l-2 -20h109v-123z" />
    <glyph glyph-name="Euro.tabold" 
d="M597 191q-40 -207 -256 -207t-258 237h-52v95h43v26q0 28 1 41h-44v95h55q24 119 90 178t167 59q110 0 171.5 -49.5t83.5 -149.5l-152 -27q-18 93 -96 93q-38 0 -61 -22t-34 -82h131v-95h-140v-67h140v-95h-132q10 -56 32.5 -79.5t62.5 -23.5q76 0 96 95z" />
    <glyph glyph-name="dollar.tabold" 
d="M204 521q0 -32 16 -50.5t56 -26.5v150q-33 -6 -52.5 -26t-19.5 -47zM352 273l-6 1v-156q77 13 77 77t-71 78zM346 -142h-70v127q-229 10 -257 208l169 21q9 -44 29 -67.5t59 -29.5v170l-35 6q-198 36 -198 210q0 90 64 148.5t169 66.5v92h70v-93q186 -14 232 -179
l-158 -31q-17 66 -74 83v-159l46 -8q197 -36 197 -202q0 -92 -60 -158t-183 -77v-128z" />
    <glyph glyph-name="uni20B9.tabold" 
d="M322 217l144 -217h-199l-118 179h-69v114h60q102 0 126 90h-186v114h185q-24 89 -127 89h-58v114h479v-114h-147v-2q30 -38 40 -87h107v-114h-105q-18 -105 -132 -164v-2z" />
    <glyph glyph-name="uni20BA.tabold" 
d="M258 0h-134v234l-82 -27v108l82 27v77l-82 -27v108l82 27v173h167v-117l134 45v-108l-134 -45v-77l134 45v-108l-134 -45v-141h7q122 0 151 134l156 -28q-28 -127 -118.5 -191t-228.5 -64z" />
    <glyph glyph-name="sterling.tabold" 
d="M574 142v-142h-540v118q71 7 97.5 42.5t8.5 112.5h-87v113h61l-12 54q-28 122 42 199t205 77q100 0 161 -52.5t71 -144.5l-156 -26q-16 88 -80 88q-45 0 -63.5 -32t-6.5 -96l13 -67h156v-113h-135q6 -86 -66 -128v-3h331z" />
    <glyph glyph-name="yen.tabold" 
d="M567 93h-161v-93h-183v93h-172v94h172v91h-172v94h144l-176 330h191l109 -250l99 250h183l-172 -330h138v-94h-161v-91h161v-94z" />
    <glyph glyph-name="florin.tabold" 
d="M533 372h-154l-55 -535h-166l54 535h-115v123h128l2 20q11 114 67 168t163 54q18 0 40.5 -2.5t36.5 -4.5l13 -2l-12 -139q-37 5 -58 5q-75 0 -83 -79l-2 -20h141v-123z" />
    <glyph glyph-name="zero.den" horiz-adv-x="469" 
d="M40 210q0 108 51 164t144 56q94 0 144 -55.5t50 -164.5t-50.5 -164.5t-144.5 -55.5q-194 0 -194 220zM234 339q-33 0 -47.5 -28.5t-14.5 -100.5t14.5 -100.5t47.5 -28.5t48 28.5t15 100.5t-15 100.5t-48 28.5z" />
    <glyph glyph-name="one.den" horiz-adv-x="340" 
d="M280 0h-122v292l-97 -50l-41 83l172 97h88v-422z" />
    <glyph glyph-name="two.den" horiz-adv-x="425" 
d="M156 269l-115 8q3 63 50 108t127 45q77 0 120 -35t43 -92q0 -51 -29 -85.5t-132 -115.5v-4h167v-98h-344v79q171 140 194 163q26 28 26 54q0 19 -12.5 31t-34.5 12q-57 0 -60 -70z" />
    <glyph glyph-name="three.den" horiz-adv-x="423" 
d="M214 80q26 0 42 13t16 35q0 44 -55 44h-48v84h46q49 0 49 43t-49 43q-54 0 -64 -57l-111 11q7 56 54.5 95t123.5 39t119.5 -31.5t43.5 -80.5q0 -73 -74 -95v-1q41 -9 63 -35.5t22 -64.5q0 -55 -50.5 -93t-127.5 -38q-89 0 -136.5 41t-52.5 104l119 6q3 -30 23 -46t47 -16
z" />
    <glyph glyph-name="four.den" horiz-adv-x="449" 
d="M365 0h-118v72h-217v78l173 272h162v-254h54v-96h-54v-72zM142 168h108v173h-12q-19 -43 -46 -89z" />
    <glyph glyph-name="five.den" horiz-adv-x="419" 
d="M212 -8q-79 0 -126 34t-56 92l120 10q4 -25 20.5 -38.5t38.5 -13.5q27 0 42 16t15 42q0 27 -15.5 42t-41.5 15q-32 0 -49 -23l-114 26l30 228h284v-97h-200l-9 -76h3q38 25 90 25q60 0 100 -36.5t40 -99.5q0 -66 -48 -106t-124 -40z" />
    <glyph glyph-name="six.den" horiz-adv-x="441" 
d="M401 322l-116 -18q-10 37 -48 37q-62 0 -69 -106h2q35 38 96 38q59 0 99.5 -33.5t40.5 -99.5q0 -65 -47 -107t-130 -42q-91 0 -140.5 50t-49.5 149q0 116 52.5 178t145.5 62q61 0 106 -30t58 -78zM286 136q0 28 -15 44t-42 16t-41.5 -16t-14.5 -44q0 -59 56 -59
q27 0 42 16t15 43z" />
    <glyph glyph-name="seven.den" horiz-adv-x="389" 
d="M63 0l161 324h-194v98h329v-77l-164 -345h-132z" />
    <glyph glyph-name="eight.den" horiz-adv-x="443" 
d="M221 435q74 0 121 -33.5t47 -88.5q0 -38 -15.5 -58t-43.5 -34v-2q72 -22 72 -99q0 -61 -51 -97t-132 -36t-129.5 36.5t-48.5 95.5q0 79 72 100v2q-59 28 -59 92q0 54 46.5 88t120.5 34zM168 303q0 -22 14.5 -35.5t39.5 -13.5q24 0 38.5 13.5t14.5 35.5t-14.5 34.5
t-38.5 12.5q-54 0 -54 -47zM281 127q0 25 -15.5 40t-43.5 15q-29 0 -44.5 -15t-15.5 -40t15.5 -39.5t44.5 -14.5q27 0 43 15t16 39z" />
    <glyph glyph-name="nine.den" horiz-adv-x="448" 
d="M161 283q0 -59 56 -59q57 0 57 59q0 60 -57 60q-28 0 -42 -17t-14 -43zM37 102l110 21q18 -47 65 -47q66 0 67 100h-3q-33 -29 -88 -29q-59 0 -101.5 36t-42.5 100q0 62 47 104.5t126 42.5q92 0 142 -55.5t50 -152.5q0 -109 -52 -170t-145 -61q-67 0 -114.5 29t-60.5 82z
" />
    <glyph glyph-name="space_uni0326" horiz-adv-x="500" 
d="M193 -245l-10 55q75 11 83 41h-84v101h171v-48q0 -70 -34 -103t-126 -46z" />
    <glyph glyph-name="space.tab" horiz-adv-x="310" 
 />
    <glyph glyph-name="one.sup" horiz-adv-x="344" 
d="M280 399h-122v292l-97 -50l-41 83l172 97h88v-422z" />
    <glyph glyph-name="two.sup" horiz-adv-x="425" 
d="M156 668l-115 8q3 63 50 108t127 45q77 0 120 -35t43 -92q0 -51 -29 -85.5t-132 -115.5v-4h167v-98h-344v79q171 140 194 163q26 28 26 54q0 19 -12.5 31t-34.5 12q-57 0 -60 -70z" />
    <glyph glyph-name="three.sup" horiz-adv-x="423" 
d="M214 479q26 0 42 13t16 35q0 44 -55 44h-48v84h46q49 0 49 43t-49 43q-54 0 -64 -57l-111 11q7 56 54.5 95t123.5 39t119.5 -31.5t43.5 -80.5q0 -73 -74 -95v-1q41 -9 63 -35.5t22 -64.5q0 -55 -50.5 -93t-127.5 -38q-89 0 -136.5 41t-52.5 104l119 6q3 -30 23 -46
t47 -16z" />
    <glyph glyph-name="space_uni0326.alt" horiz-adv-x="501" 
d="M325 824l10 -55q-75 -11 -83 -41h84v-101h-171v48q0 70 34 103t126 46z" />
    <glyph glyph-name="cent.tabold" 
d="M591 176q-14 -77 -72.5 -129t-159.5 -61v-128h-70v128q-123 10 -185 84.5t-62 200.5q0 116 64 194.5t183 91.5v129h70v-128q98 -7 160 -60.5t69 -120.5l-174 -20q-16 59 -55 72v-313q40 14 59 77zM224 272q0 -134 65 -156v313q-65 -23 -65 -157z" />
    <glyph glyph-name="cent.old" horiz-adv-x="607" 
d="M584 176q-14 -77 -72.5 -129t-159.5 -61v-128h-70v128q-123 10 -185 84.5t-62 200.5q0 116 64 194.5t183 91.5v129h70v-128q98 -7 160 -60.5t69 -120.5l-174 -20q-16 59 -55 72v-313q40 14 59 77zM217 272q0 -134 65 -156v313q-65 -23 -65 -157z" />
    </font>
</defs>
</svg>
