<?xml version="1.0" standalone="no"?>
<!DOCTYPE svg PUBLIC "-//W3C//DTD SVG 1.1//EN" "http://www.w3.org/Graphics/SVG/1.1/DTD/svg11.dtd" >
<svg>
<metadata>
Created by FontForge 20110222 at Thu Feb 12 12:26:33 2015
 By deploy user
Copyright (c) 2014 Typotheque.com All rights reserved.
</metadata>
<defs>
<font id="NeutralStd-Medium" horiz-adv-x="620" >
  <font-face 
    font-family="Neutral Std Med"
    font-weight="500"
    font-stretch="normal"
    units-per-em="1000"
    panose-1="0 0 0 0 0 0 0 0 0 0"
    ascent="778"
    descent="-222"
    x-height="542"
    cap-height="755"
    bbox="-231 -235 1163 1039"
    underline-thickness="70"
    underline-position="-117"
    unicode-range="U+0020-FB02"
  />
<missing-glyph horiz-adv-x="712" 
d="M80 0v27h27v-27h-27zM80 75v27h27v-27h-27zM80 150v27h27v-27h-27zM80 225v27h27v-27h-27zM80 300v27h27v-27h-27zM80 375v27h27v-27h-27zM80 450v27h27v-27h-27zM80 525v27h27v-27h-27zM80 600v27h27v-27h-27zM80 675v27h27v-27h-27zM155 0v27h27v-27h-27zM155 675v27
h27v-27h-27zM230 0v27h27v-27h-27zM230 525v27h27v-27h-27zM230 675v27h27v-27h-27zM305 0v27h27v-27h-27zM305 150v27h27v-27h-27zM305 300v27h27v-27h-27zM305 375v27h27v-27h-27zM305 525v27h27v-27h-27zM305 675v27h27v-27h-27zM380 0v27h27v-27h-27zM380 375v27h27v-27
h-27zM380 525v27h27v-27h-27zM380 675v27h27v-27h-27zM455 0v27h27v-27h-27zM455 375v27h27v-27h-27zM455 450v27h27v-27h-27zM455 525v27h27v-27h-27zM455 675v27h27v-27h-27zM530 0v27h27v-27h-27zM530 675v27h27v-27h-27zM605 0v27h27v-27h-27zM605 75v27h27v-27h-27z
M605 150v27h27v-27h-27zM605 225v27h27v-27h-27zM605 300v27h27v-27h-27zM605 375v27h27v-27h-27zM605 450v27h27v-27h-27zM605 525v27h27v-27h-27zM605 600v27h27v-27h-27zM605 675v27h27v-27h-27z" />
    <glyph glyph-name=".notdef" horiz-adv-x="712" 
d="M80 0v27h27v-27h-27zM80 75v27h27v-27h-27zM80 150v27h27v-27h-27zM80 225v27h27v-27h-27zM80 300v27h27v-27h-27zM80 375v27h27v-27h-27zM80 450v27h27v-27h-27zM80 525v27h27v-27h-27zM80 600v27h27v-27h-27zM80 675v27h27v-27h-27zM155 0v27h27v-27h-27zM155 675v27
h27v-27h-27zM230 0v27h27v-27h-27zM230 525v27h27v-27h-27zM230 675v27h27v-27h-27zM305 0v27h27v-27h-27zM305 150v27h27v-27h-27zM305 300v27h27v-27h-27zM305 375v27h27v-27h-27zM305 525v27h27v-27h-27zM305 675v27h27v-27h-27zM380 0v27h27v-27h-27zM380 375v27h27v-27
h-27zM380 525v27h27v-27h-27zM380 675v27h27v-27h-27zM455 0v27h27v-27h-27zM455 375v27h27v-27h-27zM455 450v27h27v-27h-27zM455 525v27h27v-27h-27zM455 675v27h27v-27h-27zM530 0v27h27v-27h-27zM530 675v27h27v-27h-27zM605 0v27h27v-27h-27zM605 75v27h27v-27h-27z
M605 150v27h27v-27h-27zM605 225v27h27v-27h-27zM605 300v27h27v-27h-27zM605 375v27h27v-27h-27zM605 450v27h27v-27h-27zM605 525v27h27v-27h-27zM605 600v27h27v-27h-27zM605 675v27h27v-27h-27z" />
    <glyph glyph-name=".null" horiz-adv-x="0" 
 />
    <glyph glyph-name="nonmarkingreturn" horiz-adv-x="333" 
 />
    <glyph glyph-name="space" unicode=" " horiz-adv-x="204" 
 />
    <glyph glyph-name="exclam" unicode="!" horiz-adv-x="326" 
d="M111 244l-21 259v275h146v-275l-22 -259h-103zM79 0v163h167v-163h-167z" />
    <glyph glyph-name="quotedbl" unicode="&#x22;" horiz-adv-x="504" 
d="M105 425l-50 330h167l-50 -330h-67zM332 425l-50 330h167l-50 -330h-67z" />
    <glyph glyph-name="numbersign" unicode="#" horiz-adv-x="630" 
d="M369 272l25 152h-129l-25 -152h129zM325 0l29 181h-129l-29 -181h-91l29 181h-104v91h119l25 152h-104v91h119l26 160h91l-26 -160h129l26 160h91l-26 -160h100v-91h-115l-25 -152h100v-91h-115l-29 -181h-91z" />
    <glyph glyph-name="dollar" unicode="$" horiz-adv-x="671" 
d="M302 471h2v186q-49 -6 -73 -30t-24 -60q0 -43 23 -64.5t72 -31.5zM380 303l-10 2v-196q108 13 108 101q0 37 -23 60t-75 33zM370 -142h-66v127q-233 14 -271 220l148 21q13 -55 42 -83t81 -34v210l-48 10q-194 41 -194 217q0 94 66.5 155.5t175.5 69.5v94h66v-94
q197 -15 246 -193l-142 -28q-32 88 -104 104v-197l47 -10q106 -22 158.5 -70.5t52.5 -144.5q0 -101 -68 -169.5t-190 -77.5v-127z" />
    <glyph glyph-name="percent" unicode="%" horiz-adv-x="811" 
d="M35 582q0 88 47 138t120 50q76 0 118.5 -47.5t42.5 -140.5q0 -90 -45.5 -139t-119.5 -49q-77 0 -120 48.5t-43 139.5zM98 -14l510 784h102l-509 -784h-103zM198 693q-59 0 -59 -111q0 -110 60 -110q58 0 58 110q0 111 -59 111zM448 174q0 88 47 138t120 50
q76 0 118.5 -47.5t42.5 -140.5q0 -90 -45.5 -139t-119.5 -49q-77 0 -120 48.5t-43 139.5zM611 285q-59 0 -59 -111t60 -111q58 0 58 111t-59 111z" />
    <glyph glyph-name="ampersand" unicode="&#x26;" horiz-adv-x="720" 
d="M608 -17l-81 83q-90 -82 -219 -82q-128 0 -199 61t-71 157q0 76 37 123t112 90q-41 46 -59.5 84.5t-18.5 89.5q0 82 60.5 135t158.5 53q105 0 158.5 -50t53.5 -121q0 -61 -36 -108t-112 -93l124 -126q16 58 16 126h129q0 -124 -48 -225l94 -96zM246 597q0 -32 14 -53.5
t54 -60.5q92 58 92 116q0 32 -21 53t-57 21q-38 0 -60 -22t-22 -54zM311 108q75 0 130 46l-176 181q-80 -52 -80 -117q0 -49 33.5 -79.5t92.5 -30.5z" />
    <glyph glyph-name="quotesingle" unicode="'" horiz-adv-x="277" 
d="M105 425l-50 330h167l-50 -330h-67z" />
    <glyph glyph-name="parenleft" unicode="(" horiz-adv-x="336" 
d="M329 -163h-94q-25 32 -38 50t-41.5 68.5t-44.5 96.5t-30 117.5t-14 147.5q0 90 16.5 169.5t46 139.5t50 92.5t48.5 70.5q5 6 7 9h94q-25 -41 -40 -70t-41.5 -93.5t-40.5 -145.5t-14 -172t14 -171.5t40.5 -145t41.5 -93.5t40 -70z" />
    <glyph glyph-name="parenright" unicode=")" horiz-adv-x="336" 
d="M7 798h94q25 -33 38 -50.5t42 -68.5t45 -96.5t30 -117t14 -147.5t-14.5 -149t-29 -115.5t-47 -98t-40.5 -67t-38 -51.5h-94q25 41 40 70t41.5 93.5t40.5 145.5t14 172t-14 171.5t-40.5 145t-41.5 93.5t-40 70z" />
    <glyph glyph-name="asterisk" unicode="*" horiz-adv-x="468" 
d="M284 778l-15 -168l3 -2l149 69l30 -95l-153 -44v-4l113 -126l-84 -60l-91 144h-4l-92 -141l-84 60l115 126l-1 2l-152 43l32 93l144 -67l4 3l-14 167h100z" />
    <glyph glyph-name="plus" unicode="+" horiz-adv-x="600" 
d="M65 268v118h175v178h120v-178h175v-118h-175v-184h-120v184h-175z" />
    <glyph glyph-name="comma" unicode="," horiz-adv-x="293" 
d="M75 -185l-33 59q49 25 71 53t23 73h-73v163h167v-131q0 -77 -36 -130.5t-119 -86.5z" />
    <glyph glyph-name="hyphen" unicode="-" horiz-adv-x="441" 
d="M52 234v132h338v-132h-338z" />
    <glyph glyph-name="hyphen" unicode="&#xad;" horiz-adv-x="441" 
d="M52 234v132h338v-132h-338z" />
    <glyph glyph-name="period" unicode="." horiz-adv-x="293" 
d="M63 0v163h167v-163h-167z" />
    <glyph glyph-name="slash" unicode="/" horiz-adv-x="429" 
d="M-37 -163l353 961h104l-352 -961h-105z" />
    <glyph glyph-name="zero" unicode="0" horiz-adv-x="718" 
d="M59 376q0 192 79.5 292t221.5 100q299 0 299 -392q0 -195 -79 -293.5t-221 -98.5q-300 0 -300 392zM359 644q-69 0 -103.5 -63t-34.5 -205q0 -140 34.5 -204t104.5 -64q67 0 102 62.5t35 205.5q0 268 -138 268z" />
    <glyph glyph-name="one" unicode="1" horiz-adv-x="477" 
d="M377 0h-152v569l-134 -87l-65 112l241 161h110v-755z" />
    <glyph glyph-name="two" unicode="2" horiz-adv-x="640" 
d="M203 500l-143 14v11q2 99 73 171t197 72q120 0 185 -59t65 -151q0 -103 -56 -174t-239 -232q-12 -10 -18 -16v-3h321v-133h-530v117q231 213 253 235q94 92 111 147q7 21 7 44q0 48 -28 74t-77 26q-110 0 -120 -128z" />
    <glyph glyph-name="three" unicode="3" horiz-adv-x="649" 
d="M324 108q54 0 89 30.5t35 78.5q0 53 -34.5 82t-93.5 29h-71v120h67q51 0 82 25.5t31 73.5q0 45 -29 71t-77 26q-53 0 -84.5 -31.5t-38.5 -89.5l-144 17q10 101 82 165t193 64q117 0 183 -57t66 -144q0 -126 -127 -168v-4q69 -15 108.5 -64t39.5 -120q0 -99 -76 -163.5
t-203 -64.5q-129 0 -201.5 66t-82.5 171l150 13q22 -126 136 -126z" />
    <glyph glyph-name="four" unicode="4" horiz-adv-x="656" 
d="M520 0h-147v160h-342v93l307 502h182v-466h98v-129h-98v-160zM182 289h193v323h-5q-17 -50 -59 -123z" />
    <glyph glyph-name="five" unicode="5" horiz-adv-x="645" 
d="M314 -15q-131 0 -197 59.5t-79 156.5l145 16q11 -59 47 -85t84 -26q56 0 91.5 36.5t35.5 100.5q0 61 -34.5 95t-96.5 34q-73 0 -117 -54l-126 44l71 393h420v-137h-316l-32 -178h2q54 51 147 51q102 0 168 -64t66 -179q0 -119 -76 -191t-203 -72z" />
    <glyph glyph-name="six" unicode="6" horiz-adv-x="683" 
d="M620 583l-141 -31q-28 95 -114 95q-68 0 -108 -62.5t-45 -176.5h2q61 82 179 82q103 0 171 -61.5t68 -180.5q0 -110 -76.5 -186.5t-202.5 -76.5q-137 0 -215.5 87t-78.5 268q0 211 84.5 319.5t226.5 108.5q196 0 250 -185zM482 239q0 59 -35 95t-94 36q-57 0 -92 -36
t-35 -95q0 -60 35.5 -95.5t93.5 -35.5q55 0 91 36t36 95z" />
    <glyph glyph-name="seven" unicode="7" horiz-adv-x="576" 
d="M85 0l297 618h-349v137h515v-111l-301 -644h-162z" />
    <glyph glyph-name="eight" unicode="8" horiz-adv-x="671" 
d="M336 772q121 0 191 -58t70 -148q0 -61 -30 -104.5t-80 -65.5v-3q59 -20 96.5 -66.5t37.5 -116.5q0 -103 -76 -164.5t-209 -61.5t-209 61t-76 164q0 69 37.5 116.5t94.5 67.5v3q-108 47 -108 168q0 91 70 149.5t191 58.5zM221 553q0 -49 32.5 -75.5t82.5 -26.5t82.5 27
t32.5 75t-33 75.5t-82 27.5q-51 0 -83 -27t-32 -76zM466 219q0 54 -36 86t-94 32q-57 0 -93.5 -32t-36.5 -86t36 -85.5t94 -31.5t94 31.5t36 85.5z" />
    <glyph glyph-name="nine" unicode="9" horiz-adv-x="684" 
d="M205 515q0 -59 34.5 -94.5t92.5 -35.5q55 0 91 36t36 94q0 59 -35 95t-92 36q-56 0 -91.5 -35.5t-35.5 -95.5zM56 169l140 28q27 -90 117 -90q74 0 112.5 57t39.5 185h-3q-60 -80 -168 -80q-105 0 -173.5 65t-68.5 178q0 109 75.5 183.5t207.5 74.5t211 -91t79 -269
q0 -213 -81 -319t-231 -106q-108 0 -173.5 48t-83.5 136z" />
    <glyph glyph-name="colon" unicode=":" horiz-adv-x="293" 
d="M63 366v163h167v-163h-167zM63 0v163h167v-163h-167z" />
    <glyph glyph-name="semicolon" unicode=";" horiz-adv-x="293" 
d="M63 366v163h167v-163h-167zM82 -201l-38 61q48 29 69 60.5t22 79.5h-72v163h167v-129q0 -82 -33.5 -139t-114.5 -96z" />
    <glyph glyph-name="less" unicode="&#x3c;" horiz-adv-x="600" 
d="M535 55l-470 206v96l470 205v-115l-330 -137l330 -136v-119z" />
    <glyph glyph-name="equal" unicode="=" horiz-adv-x="600" 
d="M65 375v105h470v-105h-470zM65 173v105h470v-105h-470z" />
    <glyph glyph-name="greater" unicode="&#x3e;" horiz-adv-x="600" 
d="M65 563l470 -205v-96l-470 -206v115l330 137l-330 136v119z" />
    <glyph glyph-name="question" unicode="?" horiz-adv-x="568" 
d="M204 244l-1 46q-1 55 18 83.5t75 70.5q54 39 74 63.5t20 62.5q0 39 -28.5 63t-78.5 24q-108 0 -130 -118l-143 23q11 94 82 158.5t194 64.5q122 0 190 -56t68 -153q0 -69 -29.5 -111t-95.5 -89q-49 -36 -63.5 -53.5t-15.5 -48.5v-30h-136zM188 0v163h167v-163h-167z" />
    <glyph glyph-name="at" unicode="@" horiz-adv-x="1072" 
d="M521 -197q-202 0 -331 127t-129 329q0 222 143.5 362t360.5 140q140 0 243.5 -57.5t154.5 -150t51 -205.5q0 -146 -77 -231.5t-187 -85.5q-115 0 -143 86h-4q-54 -76 -150 -76q-74 0 -120.5 51.5t-46.5 145.5q0 129 65 213.5t170 84.5q88 0 124 -67h3l12 54h128l-54 -318
q-15 -87 58 -87q56 0 98.5 65t42.5 160q0 156 -101 252.5t-275 96.5q-182 0 -296 -121.5t-114 -303.5q0 -184 109.5 -289t277.5 -105q172 0 291 86l37 -53q-65 -50 -144.5 -76.5t-196.5 -26.5zM500 140q57 0 90 61t33 137q0 97 -77 97q-56 0 -89.5 -58t-33.5 -139
q0 -98 77 -98z" />
    <glyph glyph-name="A" unicode="A" horiz-adv-x="763" 
d="M342 495l-64 -190h200l-64 190l-32 115h-9q-13 -56 -31 -115zM581 0l-59 175h-288l-59 -175h-155l265 755h192l266 -755h-162z" />
    <glyph glyph-name="B" unicode="B" horiz-adv-x="723" 
d="M82 0v755h332q113 0 175.5 -51.5t62.5 -134.5q0 -126 -128 -169v-3q67 -13 111 -57t44 -115q0 -104 -72 -164.5t-199 -60.5h-326zM239 634v-187h145q117 0 117 94q0 47 -28.5 70t-91.5 23h-142zM239 122h156q129 0 129 104q0 50 -34 75.5t-91 25.5h-160v-205z" />
    <glyph glyph-name="C" unicode="C" horiz-adv-x="766" 
d="M406 -16q-169 0 -263 102t-94 286q0 178 98.5 288t259.5 110q131 0 213.5 -62t104.5 -160l-153 -31q-46 120 -166 120q-87 0 -138.5 -66.5t-51.5 -191.5q0 -129 52.5 -196t137.5 -67q72 0 113.5 38t57.5 96l158 -31q-26 -101 -106.5 -168t-222.5 -67z" />
    <glyph glyph-name="D" unicode="D" horiz-adv-x="772" 
d="M327 0h-245v755h245q86 0 155 -20t125 -63t86.5 -117.5t30.5 -175.5q0 -187 -104 -283.5t-293 -95.5zM240 132h87q115 0 173.5 56t58.5 193q0 127 -58 184t-174 57h-87v-490z" />
    <glyph glyph-name="E" unicode="E" horiz-adv-x="650" 
d="M82 0v755h504v-136h-346v-174h301v-133h-301v-176h362v-136h-520z" />
    <glyph glyph-name="F" unicode="F" horiz-adv-x="601" 
d="M82 0v755h485v-136h-326v-196h276v-133h-276v-290h-159z" />
    <glyph glyph-name="G" unicode="G" horiz-adv-x="802" 
d="M378 -16q-149 0 -239 101t-90 285q0 185 100.5 292.5t262.5 107.5q126 0 203.5 -59.5t104.5 -153.5l-151 -33q-46 118 -160 118q-88 0 -142 -68t-54 -195t53 -196t140 -69t130 49t43 118v11h-175v119h320v-411h-123l-11 86h-5q-34 -49 -82 -75.5t-125 -26.5z" />
    <glyph glyph-name="H" unicode="H" horiz-adv-x="793" 
d="M552 0v318h-311v-318h-159v755h159v-301h311v301h160v-755h-160z" />
    <glyph glyph-name="I" unicode="I" horiz-adv-x="323" 
d="M82 0v755h159v-755h-159z" />
    <glyph glyph-name="J" unicode="J" horiz-adv-x="641" 
d="M297 -16q-123 0 -191 58.5t-78 159.5l152 17q16 -105 116 -105q56 0 82.5 28t26.5 88v525h159v-514q0 -54 -13 -97.5t-42.5 -81t-83 -58t-128.5 -20.5z" />
    <glyph glyph-name="K" unicode="K" horiz-adv-x="747" 
d="M239 214v-214h-157v755h157v-344l286 344h175l-263 -314l290 -441h-189l-211 319z" />
    <glyph glyph-name="L" unicode="L" horiz-adv-x="616" 
d="M82 0v755h159v-617h344v-138h-503z" />
    <glyph glyph-name="M" unicode="M" horiz-adv-x="985" 
d="M82 755h221l169 -468q7 -21 13 -43t8 -34l2 -12h5q7 42 24 90l169 467h210v-755h-154v547h-5q-9 -55 -28 -111l-160 -436h-132l-160 437q-8 24 -15 51.5t-10 43.5l-3 15h-5v-547h-149v755z" />
    <glyph glyph-name="N" unicode="N" horiz-adv-x="795" 
d="M82 0v755h176l266 -435q10 -17 19.5 -36.5t14.5 -31.5l4 -11h4v514h147v-755h-168l-272 442q-11 18 -20.5 38t-14.5 31l-4 11h-4v-522h-148z" />
    <glyph glyph-name="O" unicode="O" horiz-adv-x="815" 
d="M406 -16q-167 0 -262 105.5t-95 287.5q0 180 97 286.5t262 106.5q167 0 262.5 -105.5t95.5 -287.5q0 -180 -97 -286.5t-263 -106.5zM407 117q88 0 140 65.5t52 194.5q0 130 -52 195t-140 65t-139.5 -65.5t-51.5 -194.5t51.5 -194.5t139.5 -65.5z" />
    <glyph glyph-name="P" unicode="P" horiz-adv-x="688" 
d="M82 0v755h288q128 0 205 -65.5t77 -186.5q0 -118 -78 -185.5t-208 -67.5h-125v-250h-159zM350 626h-109v-247h107q147 0 147 122q0 64 -38.5 94.5t-106.5 30.5z" />
    <glyph glyph-name="Q" unicode="Q" horiz-adv-x="819" 
d="M619 -89l-78 97q-63 -24 -132 -24q-167 0 -262.5 105t-95.5 288q0 182 96.5 287.5t262.5 105.5q167 0 262.5 -105t95.5 -288q0 -196 -124 -305l69 -85zM409 109q22 0 47 5l-67 83l93 76l71 -88q43 66 43 192q0 132 -50.5 199.5t-136.5 67.5t-136 -67.5t-50 -199.5
t50.5 -200t135.5 -68z" />
    <glyph glyph-name="R" unicode="R" horiz-adv-x="717" 
d="M355 631h-114v-225h118q63 0 99.5 24t36.5 87t-36.5 88.5t-103.5 25.5zM512 0l-150 273h-121v-273h-159v755h304q128 0 200 -59.5t72 -168.5q0 -74 -37.5 -128t-104.5 -83v-2l171 -314h-175z" />
    <glyph glyph-name="S" unicode="S" horiz-adv-x="708" 
d="M351 -16q-132 0 -217 62.5t-102 153.5l159 25q17 -54 60 -83t104 -29q68 0 104.5 26t36.5 71q0 34 -25 57t-87 36l-110 24q-204 45 -205 217q0 98 76.5 162.5t207.5 64.5q125 0 199.5 -53t97.5 -143l-154 -27q-37 97 -144 97q-62 0 -92.5 -24t-30.5 -59q0 -36 26 -58.5
t87 -35.5l113 -24q207 -46 207 -217q0 -106 -78 -174.5t-233 -68.5z" />
    <glyph glyph-name="T" unicode="T" horiz-adv-x="657" 
d="M29 621v134h599v-134h-220v-621h-159v621h-220z" />
    <glyph glyph-name="U" unicode="U" horiz-adv-x="764" 
d="M384 -16q-307 0 -307 295v476h160v-477q0 -156 147 -156q146 0 146 156v477h157v-476q0 -137 -73 -216t-230 -79z" />
    <glyph glyph-name="V" unicode="V" horiz-adv-x="733" 
d="M182 755l160 -484l28 -113h4q10 53 29 113l159 484h154l-259 -755h-181l-259 755h165z" />
    <glyph glyph-name="W" unicode="W" horiz-adv-x="1062" 
d="M665 0l-133 520l-132 -520h-197l-179 755h160l131 -577l148 577h149l147 -570l131 570h148l-178 -755h-195z" />
    <glyph glyph-name="X" unicode="X" horiz-adv-x="706" 
d="M33 755h173l150 -247l151 247h165l-233 -371l243 -384h-176l-158 258l-158 -258h-170l244 385z" />
    <glyph glyph-name="Y" unicode="Y" horiz-adv-x="687" 
d="M268 0v312l-256 443h170l170 -304l165 304h158l-247 -435v-320h-160z" />
    <glyph glyph-name="Z" unicode="Z" horiz-adv-x="680" 
d="M45 0v104l386 518h-366v133h562v-107l-386 -515h391v-133h-587z" />
    <glyph glyph-name="bracketleft" unicode="[" horiz-adv-x="336" 
d="M87 -163v961h238v-86h-122v-789h122v-86h-238z" />
    <glyph glyph-name="backslash" unicode="\" horiz-adv-x="430" 
d="M111 798l353 -961h-106l-352 961h105z" />
    <glyph glyph-name="bracketright" unicode="]" horiz-adv-x="336" 
d="M250 798v-961h-238v86h120v789h-120v86h238z" />
    <glyph glyph-name="asciicircum" unicode="^" horiz-adv-x="444" 
d="M263 755l161 -337h-103l-101 206l-105 -206h-95l165 337h78z" />
    <glyph glyph-name="underscore" unicode="_" horiz-adv-x="530" 
d="M30 -229v107h470v-107h-470z" />
    <glyph glyph-name="grave" unicode="`" horiz-adv-x="500" 
d="M287 778l91 -167h-118l-135 167h162z" />
    <glyph glyph-name="a" unicode="a" horiz-adv-x="611" 
d="M271 94q59 0 91.5 37t32.5 94v10q-31 1 -69 1q-132 0 -132 -76q0 -30 21.5 -48t55.5 -18zM224 -13q-82 0 -132 45.5t-50 118.5q0 177 275 177l77 -2v20q0 93 -93 93q-80 0 -96 -67l-143 30q14 62 75.5 108.5t167.5 46.5q117 0 177 -53.5t60 -169.5v-197l5 -137h-144
l-4 70q-58 -83 -175 -83z" />
    <glyph glyph-name="b" unicode="b" horiz-adv-x="662" 
d="M376 -13q-104 0 -160 75v-62h-142v778h155v-315q51 91 162 91q113 0 170 -78t57 -196q0 -133 -66 -213t-176 -80zM340 100q56 0 88.5 44.5t32.5 127.5q0 84 -31.5 125t-85.5 41q-58 0 -90 -43t-32 -124q0 -86 31.5 -128.5t86.5 -42.5z" />
    <glyph glyph-name="c" unicode="c" horiz-adv-x="594" 
d="M313 -15q-135 0 -203 75.5t-68 206.5q0 126 73 207.5t206 81.5q103 0 165.5 -50.5t74.5 -120.5l-149 -25q-24 78 -98 78q-54 0 -85.5 -43.5t-31.5 -123.5q0 -83 31 -125.5t87 -42.5q80 0 105 84l146 -23q-22 -82 -84 -130.5t-169 -48.5z" />
    <glyph glyph-name="d" unicode="d" horiz-adv-x="662" 
d="M319 100q60 0 90.5 46t30.5 123t-30 123t-87 46q-61 0 -92 -46t-31 -123q0 -78 30 -123.5t89 -45.5zM273 -12q-104 0 -166.5 75t-62.5 204q0 126 65 206.5t185 80.5q94 0 140 -66v290h154v-778h-143v67q-60 -79 -172 -79z" />
    <glyph glyph-name="e" unicode="e" horiz-adv-x="609" 
d="M314 -15q-121 0 -196.5 78t-75.5 207q0 126 73.5 206t200.5 80q131 0 197 -86t64 -240h-385q4 -57 38.5 -92.5t88.5 -35.5q73 0 116 64l126 -40q-28 -64 -90.5 -102.5t-156.5 -38.5zM310 446q-51 0 -81.5 -32t-35.5 -85h228q-3 54 -32 85.5t-79 31.5z" />
    <glyph glyph-name="f" unicode="f" horiz-adv-x="396" 
d="M21 433v109h84v41q0 201 199 201q19 0 38.5 -2t29.5 -4l11 -1l-10 -124q-24 4 -44 4q-40 0 -55 -17.5t-15 -58.5v-39h112v-109h-112v-433h-154v433h-84z" />
    <glyph glyph-name="g" unicode="g" horiz-adv-x="662" 
d="M320 112q58 0 89 45t31 121q0 74 -31 119.5t-87 45.5q-59 0 -90.5 -45.5t-31.5 -120.5t30.5 -120t89.5 -45zM301 -232q-101 0 -162.5 39.5t-82.5 105.5l134 45q31 -76 117 -76q128 0 128 129v70q-55 -80 -163 -80q-112 0 -170 78t-58 196q0 126 66.5 202.5t178.5 76.5
q108 0 156 -78v66h143v-488q0 -141 -67.5 -213.5t-219.5 -72.5z" />
    <glyph glyph-name="h" unicode="h" horiz-adv-x="651" 
d="M228 778v-317q48 94 164 94q96 0 143 -56.5t47 -152.5v-346h-154v317q0 113 -94 113q-46 0 -76 -30.5t-30 -102.5v-297h-154v778h154z" />
    <glyph glyph-name="i" unicode="i" horiz-adv-x="301" 
d="M72 629v143h158v-143h-158zM74 0v542h154v-542h-154z" />
    <glyph glyph-name="j" unicode="j" horiz-adv-x="301" 
d="M72 629v143h158v-143h-158zM31 -229q-39 0 -75 9l10 121q32 -5 40 -5q68 0 68 76v570h154v-565q0 -98 -50.5 -152t-146.5 -54z" />
    <glyph glyph-name="k" unicode="k" horiz-adv-x="615" 
d="M430 0l-147 225l-56 -62v-163h-153v778h153v-448l184 212h173l-193 -214l214 -328h-175z" />
    <glyph glyph-name="l" unicode="l" horiz-adv-x="301" 
d="M74 0v778h154v-778h-154z" />
    <glyph glyph-name="m" unicode="m" horiz-adv-x="1005" 
d="M74 0v542h144v-88q57 100 174 100q133 0 174 -108q59 108 180 108q96 0 143 -56.5t47 -152.5v-345h-154v317q0 62 -27 87t-66 25q-46 0 -76.5 -30t-30.5 -102v-297h-154v317q0 112 -94 112q-46 0 -76 -30.5t-30 -101.5v-297h-154z" />
    <glyph glyph-name="n" unicode="n" horiz-adv-x="651" 
d="M74 0v542h144v-88q57 100 174 100q96 0 143 -56.5t47 -152.5v-345h-154v316q0 113 -94 113q-46 0 -76 -30.5t-30 -102.5v-296h-154z" />
    <glyph glyph-name="o" unicode="o" horiz-adv-x="636" 
d="M315 -15q-130 0 -201.5 79t-71.5 207q0 126 74 205.5t205 79.5q130 0 202 -79t72 -206q0 -126 -74.5 -206t-205.5 -80zM319 103q60 0 90 45t30 123t-30.5 123t-90.5 45q-61 0 -91 -45t-30 -123t30.5 -123t91.5 -45z" />
    <glyph glyph-name="p" unicode="p" horiz-adv-x="662" 
d="M340 100q56 0 88.5 44.5t32.5 127.5q0 84 -31 125t-84 41q-59 0 -91.5 -43t-32.5 -124q0 -86 31.5 -128.5t86.5 -42.5zM74 -222v764h142v-84q64 96 178 96q111 0 167.5 -78t56.5 -196q0 -133 -69 -213t-182 -80q-88 0 -139 59v-268h-154z" />
    <glyph glyph-name="q" unicode="q" horiz-adv-x="662" 
d="M433 -222v286q-55 -76 -157 -76q-109 0 -170.5 76t-61.5 203q0 126 64.5 206.5t183.5 80.5q107 0 153 -75v63h143v-764h-155zM319 100q60 0 90.5 46.5t30.5 123.5t-30 122.5t-88 45.5q-61 0 -91.5 -45.5t-30.5 -123.5q0 -77 30 -123t89 -46z" />
    <glyph glyph-name="r" unicode="r" horiz-adv-x="432" 
d="M74 0v542h144v-100h4q28 68 74 90.5t112 17.5l-7 -150q-18 3 -49 3q-76 0 -103 -51q-21 -34 -21 -108v-244h-154z" />
    <glyph glyph-name="s" unicode="s" horiz-adv-x="569" 
d="M282 -16q-106 0 -167.5 41.5t-76.5 117.5l141 22q26 -71 106 -71q92 0 92 54q0 22 -14 34.5t-54 20.5l-83 16q-86 16 -127.5 55t-41.5 110q0 74 62.5 123t164.5 49q100 0 159 -41t75 -109l-140 -23q-19 64 -95 64q-39 0 -59.5 -13.5t-20.5 -35.5q0 -23 16.5 -34.5
t54.5 -19.5l94 -18q82 -16 119.5 -54t37.5 -104q0 -84 -62 -134t-181 -50z" />
    <glyph glyph-name="t" unicode="t" horiz-adv-x="415" 
d="M20 433v109h89l7 146h138v-146h115v-109h-112v-252q0 -40 17.5 -56.5t54.5 -16.5q11 0 26 1t17 1l7 -109q-2 0 -14.5 -2.5t-24.5 -4.5t-33 -4t-42 -2q-88 0 -125 44t-36 137l1 264h-85z" />
    <glyph glyph-name="u" unicode="u" horiz-adv-x="641" 
d="M257 -13q-96 0 -142 57.5t-46 153.5v344h154v-317q0 -114 88 -114q51 0 76.5 34.5t25.5 96.5v300h154v-542h-145v93q-47 -106 -165 -106z" />
    <glyph glyph-name="v" unicode="v" horiz-adv-x="573" 
d="M370 0h-167l-193 542h162l93 -288q7 -23 13 -49t8 -40l3 -14h5q10 51 25 102l93 289h151z" />
    <glyph glyph-name="w" unicode="w" horiz-adv-x="861" 
d="M519 0l-68 259q-6 23 -10.5 50t-6.5 43l-2 16h-6q-7 -58 -20 -109l-69 -259h-181l-142 542h152l67 -277q6 -26 11.5 -58.5t7.5 -52.5l2 -20h5q9 73 25 131l75 277h148l75 -277q7 -26 14 -62.5t10 -59.5l3 -23h5q8 87 22 145l66 277h146l-144 -542h-185z" />
    <glyph glyph-name="x" unicode="x" horiz-adv-x="580" 
d="M392 0l-112 165l-110 -165h-155l192 275l-184 267h175l99 -149l99 149h157l-182 -261l194 -281h-173z" />
    <glyph glyph-name="y" unicode="y" horiz-adv-x="572" 
d="M134 -222l78 216l-202 548h161l99 -281q8 -23 13 -47t7 -37l1 -13h5q5 46 23 99l94 279h150l-280 -764h-149z" />
    <glyph glyph-name="z" unicode="z" horiz-adv-x="542" 
d="M54 421v121h439v-102l-267 -318h273v-122h-453v103l268 318h-260z" />
    <glyph glyph-name="braceleft" unicode="{" horiz-adv-x="345" 
d="M32 265v103h31q74 0 67 86l-13 175q-7 92 41.5 130.5t143.5 38.5h36v-85h-25q-47 0 -63 -18t-14 -66l8 -175q3 -58 -17 -89t-70 -45v-4q48 -11 68.5 -42.5t18.5 -87.5l-8 -180q-2 -47 14 -65.5t63 -18.5h25v-85h-38q-95 0 -142 38t-41 131l13 178q6 81 -68 81h-30z" />
    <glyph glyph-name="bar" unicode="|" horiz-adv-x="284" 
d="M92 -163v961h99v-961h-99z" />
    <glyph glyph-name="braceright" unicode="}" horiz-adv-x="345" 
d="M309 370v-103h-31q-74 0 -67 -86l13 -175q7 -92 -41.5 -130.5t-143.5 -38.5h-36v85h25q47 0 63 18t14 66l-8 175q-3 58 17 89t70 45v4q-48 11 -68.5 42.5t-18.5 87.5l8 180q2 47 -14 65.5t-63 18.5h-25v85h38q95 0 142 -38t41 -131l-13 -178q-6 -81 68 -81h30z" />
    <glyph glyph-name="asciitilde" unicode="~" horiz-adv-x="570" 
d="M49 248q0 78 37 120.5t107 42.5q42 0 104.5 -25.5t82.5 -25.5q50 0 58 53h83q0 -76 -38 -119.5t-101 -43.5q-46 0 -109.5 26t-84.5 26q-49 0 -55 -54h-84z" />
    <glyph glyph-name="uni00A0" unicode="&#xa0;" horiz-adv-x="260" 
 />
    <glyph glyph-name="exclamdown" unicode="&#xa1;" horiz-adv-x="326" 
d="M215 367l21 -259v-275h-146v275l22 259h103zM247 611v-163h-167v163h167z" />
    <glyph glyph-name="cent" unicode="&#xa2;" horiz-adv-x="596" 
d="M566 161q-20 -73 -74.5 -120t-146.5 -55v-128h-66v128q-118 10 -177.5 84.5t-59.5 196.5q0 115 61.5 194t175.5 93v132h66v-131q92 -6 148.5 -55t67.5 -111l-143 -25q-23 67 -73 78v-342q56 11 81 83zM194 271q0 -148 85 -170v339q-85 -22 -85 -169z" />
    <glyph glyph-name="sterling" unicode="&#xa3;" horiz-adv-x="660" 
d="M601 131v-131h-547v105q143 13 110 188l-2 12h-91v106h71l-14 71q-24 124 42 205.5t199 81.5q102 0 162.5 -53t72.5 -151l-137 -25q-12 55 -35 80t-69 25q-114 0 -88 -149l15 -85h178v-106h-160q21 -115 -65 -170v-4h358z" />
    <glyph glyph-name="currency" unicode="&#xa4;" horiz-adv-x="611" 
d="M216 337q0 -40 25 -65.5t63 -25.5t63.5 25.5t25.5 65.5t-25.5 65.5t-63.5 25.5t-63 -25.5t-25 -65.5zM124 337q0 44 19 82l-84 85l76 79l84 -86q38 20 85 20t84 -20l90 92l76 -79l-90 -92q20 -40 20 -81q0 -42 -21 -81l87 -86l-78 -80l-86 86q-41 -18 -82 -18
q-43 0 -84 18l-86 -87l-77 77l88 87q-21 37 -21 84z" />
    <glyph glyph-name="yen" unicode="&#xa5;" horiz-adv-x="706" 
d="M639 108h-205v-108h-152v108h-216v92h216v88h-216v92h197l-217 375h166l150 -278l141 278h158l-213 -375h191v-92h-205v-88h205v-92z" />
    <glyph glyph-name="brokenbar" unicode="&#xa6;" horiz-adv-x="284" 
d="M92 412v386h99v-386h-99zM92 -163v386h99v-386h-99z" />
    <glyph glyph-name="section" unicode="&#xa7;" horiz-adv-x="594" 
d="M477 270v-3q48 -39 48 -108q0 -79 -61 -127t-174 -48q-108 0 -165 44t-68 116l132 18q22 -72 105 -72q90 0 90 56q0 42 -55 54l-133 27q-65 13 -104 50.5t-39 96.5q0 43 17.5 71.5t56.5 51.5v2q-43 38 -43 108q0 72 59 118.5t158 46.5q197 0 225 -153l-130 -18
q-7 28 -31 49t-66 21q-38 0 -58.5 -14.5t-20.5 -37.5q0 -24 14 -36t48 -20l128 -27q137 -31 137 -143q0 -80 -70 -123zM356 324l41 -10q18 16 18 42q0 50 -73 64l-97 21q-34 8 -45 12q-18 -20 -18 -43q0 -28 18.5 -42.5t55.5 -21.5z" />
    <glyph glyph-name="dieresis" unicode="&#xa8;" horiz-adv-x="500" 
d="M294 631v141h139v-141h-139zM67 631v141h139v-141h-139z" />
    <glyph glyph-name="copyright" unicode="&#xa9;" horiz-adv-x="892" 
d="M54 377q0 168 114 280.5t278 112.5q165 0 279 -112.5t114 -280.5t-114.5 -280t-278.5 -112q-165 0 -278.5 112t-113.5 280zM118 377q0 -145 94.5 -239.5t233.5 -94.5q138 0 233 94.5t95 239.5t-95 240t-233 95q-139 0 -233.5 -95t-94.5 -240zM447 149q-106 0 -160 62
t-54 168q0 103 57.5 169.5t162.5 66.5q79 0 129 -41t61 -96l-117 -20q-21 61 -78 61q-44 0 -69 -35t-25 -101q0 -69 25 -103.5t70 -34.5q61 0 83 66l114 -18q-17 -65 -66 -104.5t-133 -39.5z" />
    <glyph glyph-name="ordfeminine" unicode="&#xaa;" horiz-adv-x="467" 
d="M212 432q40 0 63 26.5t23 64.5v10q-22 2 -48 2q-89 0 -89 -54q0 -22 14 -35.5t37 -13.5zM177 348q-63 0 -100 34t-37 90q0 130 198 130l57 -2v15q0 69 -64 69q-51 0 -67 -53l-106 26q13 50 56.5 83t120.5 33q94 0 135.5 -40.5t41.5 -132.5v-140l3 -102h-112l-3 51
q-44 -61 -123 -61z" />
    <glyph glyph-name="guillemotleft" unicode="&#xab;" horiz-adv-x="550" 
d="M372 468h125l-109 -206l109 -209h-127l-117 208zM158 468h125l-110 -206l110 -209h-127l-117 208z" />
    <glyph glyph-name="logicalnot" unicode="&#xac;" horiz-adv-x="600" 
d="M65 269v116h470v-301h-113v185h-357z" />
    <glyph glyph-name="registered" unicode="&#xae;" horiz-adv-x="465" 
d="M233 355q-86 0 -146.5 60t-60.5 146t60.5 146t146.5 60q85 0 145.5 -60.5t60.5 -145.5t-60.5 -145.5t-145.5 -60.5zM233 735q-71 0 -121.5 -51.5t-50.5 -122.5t50.5 -122.5t121.5 -51.5t121 51t50 123t-50 123t-121 51zM199 574h30q40 0 40 30q0 32 -38 32h-32v-62z
M147 451v225h88q40 0 64 -17.5t24 -51.5q0 -44 -45 -61l51 -95h-57l-44 83h-29v-83h-52z" />
    <glyph glyph-name="macron" unicode="&#xaf;" horiz-adv-x="500" 
d="M73 631v106h353v-106h-353z" />
    <glyph glyph-name="degree" unicode="&#xb0;" horiz-adv-x="393" 
d="M43 619q0 65 44 109.5t110 44.5t109.5 -44t43.5 -110q0 -65 -44 -108.5t-111 -43.5q-66 0 -109 43.5t-43 108.5zM112 619q0 -40 23 -65t61 -25t62 25t24 65q0 41 -24 66.5t-62 25.5t-61 -25.5t-23 -66.5z" />
    <glyph glyph-name="plusminus" unicode="&#xb1;" horiz-adv-x="600" 
d="M65 314v109h179v154h112v-154h179v-109h-179v-160h-112v160h-179zM65 0v102h470v-102h-470z" />
    <glyph glyph-name="twosuperior" unicode="&#xb2;" horiz-adv-x="419" 
d="M146 672l-99 7q2 61 46.5 105t120.5 44q74 0 114.5 -34t40.5 -90q0 -52 -31 -88t-143 -125v-4h179v-88h-329v73q169 142 191 164q30 32 30 60q0 23 -14.5 36.5t-39.5 13.5q-63 0 -66 -74z" />
    <glyph glyph-name="threesuperior" unicode="&#xb3;" horiz-adv-x="422" 
d="M211 470q31 0 49 15t18 40q0 50 -65 50h-47v77h45q26 0 42 12t16 36t-16 36.5t-41 12.5q-59 0 -70 -62l-95 10q7 56 51.5 93.5t116.5 37.5q73 0 114 -31.5t41 -79.5q0 -73 -74 -95v-1q41 -9 63.5 -35.5t22.5 -65.5q0 -55 -48.5 -92.5t-122.5 -37.5q-82 0 -126.5 39
t-50.5 100l102 7q4 -32 25 -49t50 -17z" />
    <glyph glyph-name="acute" unicode="&#xb4;" horiz-adv-x="500" 
d="M122 611l97 167h161l-140 -167h-118z" />
    <glyph glyph-name="paragraph" unicode="&#xb6;" horiz-adv-x="603" 
d="M306 318h-26q-109 0 -171 60.5t-62 157.5t62 158t171 61h26v-437zM380 -222v977h141v-977h-141z" />
    <glyph glyph-name="periodcentered" unicode="&#xb7;" horiz-adv-x="304" 
d="M69 217v163h166v-163h-166z" />
    <glyph glyph-name="cedilla" unicode="&#xb8;" horiz-adv-x="500" 
d="M310 21l-41 -73l3 -2q20 5 44 5q39 0 65 -23.5t26 -63.5q0 -45 -33 -70.5t-88 -25.5q-72 0 -119 43l45 44q34 -26 67 -26q40 0 40 31q0 32 -34 32q-17 0 -37 -10l-52 29l55 110h59z" />
    <glyph glyph-name="onesuperior" unicode="&#xb9;" horiz-adv-x="331" 
d="M259 399h-105v304l-93 -51l-37 74l159 95h76v-422z" />
    <glyph glyph-name="ordmasculine" unicode="&#xba;" horiz-adv-x="502" 
d="M248 349q-99 0 -152.5 58t-53.5 154q0 95 55.5 153.5t154.5 58.5t153.5 -58t54.5 -154q0 -94 -56.5 -153t-155.5 -59zM251 442q41 0 62 32t21 87q0 56 -21 87.5t-63 31.5q-83 0 -83 -119q0 -55 21 -87t63 -32z" />
    <glyph glyph-name="guillemotright" unicode="&#xbb;" horiz-adv-x="550" 
d="M393 53h-126l110 206l-110 209h128l116 -208zM179 53h-126l110 206l-110 209h128l116 -208z" />
    <glyph glyph-name="onequarter" unicode="&#xbc;" horiz-adv-x="929" 
d="M259 334h-105v304l-93 -51l-37 74l159 95h76v-422zM147 -14l509 784h101l-509 -784h-101zM839 0h-100v79h-212v70l176 272h136v-256h57v-86h-57v-79zM626 165h115v182h-10q-18 -44 -52 -96z" />
    <glyph glyph-name="onehalf" unicode="&#xbd;" horiz-adv-x="957" 
d="M147 -14l509 784h101l-509 -784h-101zM259 334h-105v304l-93 -51l-37 74l159 95h76v-422zM684 273l-99 7q2 61 46.5 105t120.5 44q74 0 114.5 -34t40.5 -90q0 -52 -31 -88t-143 -125v-4h179v-88h-329v73q169 142 191 164q30 32 30 60q0 23 -14.5 36.5t-39.5 13.5
q-63 0 -66 -74z" />
    <glyph glyph-name="threequarters" unicode="&#xbe;" horiz-adv-x="993" 
d="M211 405q31 0 49 15t18 40q0 50 -65 50h-47v77h45q26 0 42 12t16 36t-16 36.5t-41 12.5q-59 0 -70 -62l-95 10q7 56 51.5 93.5t116.5 37.5q73 0 114 -31.5t41 -79.5q0 -73 -74 -95v-1q41 -9 63.5 -35.5t22.5 -65.5q0 -55 -48.5 -92.5t-122.5 -37.5q-82 0 -126.5 39
t-50.5 100l102 7q4 -32 25 -49t50 -17zM211 -14l509 784h101l-509 -784h-101zM903 0h-100v79h-212v70l176 272h136v-256h57v-86h-57v-79zM690 165h115v182h-10q-18 -44 -52 -96z" />
    <glyph glyph-name="questiondown" unicode="&#xbf;" horiz-adv-x="568" 
d="M356 367l1 -46q1 -55 -18 -83.5t-75 -70.5q-54 -39 -74 -63.5t-20 -62.5q0 -39 28.5 -63t78.5 -24q108 0 130 118l143 -23q-11 -94 -82 -158.5t-194 -64.5q-122 0 -190 56t-68 153q0 69 29.5 111t95.5 89q49 36 63.5 53.5t15.5 48.5v30h136zM372 611v-163h-167v163h167z
" />
    <glyph glyph-name="Agrave" unicode="&#xc0;" horiz-adv-x="763" 
d="M342 495l-64 -190h200l-64 190l-32 115h-9q-13 -56 -31 -115zM581 0l-59 175h-288l-59 -175h-155l265 755h192l266 -755h-162zM358 947l89 -142h-122l-134 142h167z" />
    <glyph glyph-name="Aacute" unicode="&#xc1;" horiz-adv-x="763" 
d="M342 495l-64 -190h200l-64 190l-32 115h-9q-13 -56 -31 -115zM581 0l-59 175h-288l-59 -175h-155l265 755h192l266 -755h-162zM317 805l89 142h167l-134 -142h-122z" />
    <glyph glyph-name="Acircumflex" unicode="&#xc2;" horiz-adv-x="763" 
d="M342 495l-64 -190h200l-64 190l-32 115h-9q-13 -56 -31 -115zM581 0l-59 175h-288l-59 -175h-155l265 755h192l266 -755h-162zM221 797v105l160 60l160 -60v-107l-161 57z" />
    <glyph glyph-name="Atilde" unicode="&#xc3;" horiz-adv-x="763" 
d="M342 495l-64 -190h200l-64 190l-32 115h-9q-13 -56 -31 -115zM581 0l-59 175h-288l-59 -175h-155l265 755h192l266 -755h-162zM271 805h-86q1 71 33.5 109.5t89.5 38.5q33 0 82.5 -20.5t67.5 -20.5q20 0 32 11.5t12 32.5h88q-2 -70 -32 -109.5t-89 -39.5q-33 0 -85 21.5
t-68 21.5q-44 0 -45 -45z" />
    <glyph glyph-name="Adieresis" unicode="&#xc4;" horiz-adv-x="763" 
d="M342 495l-64 -190h200l-64 190l-32 115h-9q-13 -56 -31 -115zM581 0l-59 175h-288l-59 -175h-155l265 755h192l266 -755h-162zM426 811v140h140v-140h-140zM196 811v140h140v-140h-140z" />
    <glyph glyph-name="Aring" unicode="&#xc5;" horiz-adv-x="763" 
d="M342 495l-64 -190h200l-64 190l-32 115h-9q-13 -56 -31 -115zM581 0l-59 175h-288l-59 -175h-155l265 755h192l266 -755h-162zM252 915q0 52 38 88t91 36t91 -36t38 -88t-38 -88.5t-91 -36.5t-91 36.5t-38 88.5zM318 915q0 -28 18.5 -47t44.5 -19q25 0 43 19t18 47
q0 27 -18 45t-43 18q-26 0 -44.5 -18t-18.5 -45z" />
    <glyph glyph-name="AE" unicode="&#xc6;" horiz-adv-x="989" 
d="M357 452l-61 -151h164v318h-46q-16 -66 -57 -167zM460 0v175h-216l-71 -175h-158l314 755h596v-136h-309v-176h264v-128h-264v-179h325v-136h-481z" />
    <glyph glyph-name="Ccedilla" unicode="&#xc7;" horiz-adv-x="766" 
d="M402 -232q-72 0 -119 43l45 44q34 -26 67 -26q40 0 40 31q0 32 -34 32q-17 0 -37 -10l-52 29l38 76q-144 17 -222.5 117t-78.5 268q0 178 98.5 288t259.5 110q131 0 213.5 -62t104.5 -160l-153 -31q-46 120 -166 120q-87 0 -138.5 -66.5t-51.5 -191.5q0 -129 52.5 -196
t137.5 -67q72 0 113.5 38t57.5 96l158 -31q-26 -101 -106.5 -168t-222.5 -67h-2l-19 -36l3 -2q20 5 44 5q39 0 65 -23.5t26 -63.5q0 -45 -33 -70.5t-88 -25.5z" />
    <glyph glyph-name="Egrave" unicode="&#xc8;" horiz-adv-x="650" 
d="M326 947l89 -142h-122l-134 142h167zM82 0v755h504v-136h-346v-174h301v-133h-301v-176h362v-136h-520z" />
    <glyph glyph-name="Eacute" unicode="&#xc9;" horiz-adv-x="650" 
d="M277 805l89 142h167l-134 -142h-122zM82 0v755h504v-136h-346v-174h301v-133h-301v-176h362v-136h-520z" />
    <glyph glyph-name="Ecircumflex" unicode="&#xca;" horiz-adv-x="650" 
d="M184 797v105l160 60l160 -60v-107l-161 57zM82 0v755h504v-136h-346v-174h301v-133h-301v-176h362v-136h-520z" />
    <glyph glyph-name="Edieresis" unicode="&#xcb;" horiz-adv-x="650" 
d="M82 0v755h504v-136h-346v-174h301v-133h-301v-176h362v-136h-520zM386 811v140h140v-140h-140zM156 811v140h140v-140h-140z" />
    <glyph glyph-name="Igrave" unicode="&#xcc;" horiz-adv-x="323" 
d="M82 0v755h159v-755h-159zM138 947l89 -142h-122l-134 142h167z" />
    <glyph glyph-name="Iacute" unicode="&#xcd;" horiz-adv-x="323" 
d="M82 0v755h159v-755h-159zM97 805l89 142h167l-134 -142h-122z" />
    <glyph glyph-name="Icircumflex" unicode="&#xce;" horiz-adv-x="323" 
d="M21 797v105l141 60l140 -60v-107l-142 56zM82 0v755h159v-755h-159z" />
    <glyph glyph-name="Idieresis" unicode="&#xcf;" horiz-adv-x="323" 
d="M188 811v140h136v-140h-136zM-1 811v140h136v-140h-136zM82 0v755h159v-755h-159z" />
    <glyph glyph-name="Eth" unicode="&#xd0;" horiz-adv-x="779" 
d="M333 0h-245v333h-72v103h72v319h245q86 0 155.5 -20t125 -63t86 -117.5t30.5 -175.5q0 -188 -104 -284t-293 -95zM245 132h88q115 0 174 56t59 193q0 127 -58 184t-175 57h-88v-186h159v-103h-159v-201z" />
    <glyph glyph-name="Ntilde" unicode="&#xd1;" horiz-adv-x="795" 
d="M306 805h-86q1 71 33.5 109.5t89.5 38.5q33 0 82.5 -20.5t67.5 -20.5q20 0 32 11.5t12 32.5h88q-2 -70 -32 -109.5t-89 -39.5q-33 0 -85 21.5t-68 21.5q-44 0 -45 -45zM82 0v755h176l266 -435q10 -17 19.5 -36.5t14.5 -31.5l4 -11h4v514h147v-755h-168l-272 442
q-11 18 -20.5 38t-14.5 31l-4 11h-4v-522h-148z" />
    <glyph glyph-name="Ograve" unicode="&#xd2;" horiz-adv-x="815" 
d="M383 947l89 -142h-122l-134 142h167zM406 -16q-167 0 -262 105.5t-95 287.5q0 180 97 286.5t262 106.5q167 0 262.5 -105.5t95.5 -287.5q0 -180 -97 -286.5t-263 -106.5zM407 117q88 0 140 65.5t52 194.5q0 130 -52 195t-140 65t-139.5 -65.5t-51.5 -194.5t51.5 -194.5
t139.5 -65.5z" />
    <glyph glyph-name="Oacute" unicode="&#xd3;" horiz-adv-x="815" 
d="M343 805l89 142h167l-134 -142h-122zM406 -16q-167 0 -262 105.5t-95 287.5q0 180 97 286.5t262 106.5q167 0 262.5 -105.5t95.5 -287.5q0 -180 -97 -286.5t-263 -106.5zM407 117q88 0 140 65.5t52 194.5q0 130 -52 195t-140 65t-139.5 -65.5t-51.5 -194.5t51.5 -194.5
t139.5 -65.5z" />
    <glyph glyph-name="Ocircumflex" unicode="&#xd4;" horiz-adv-x="815" 
d="M247 797v105l160 60l160 -60v-107l-161 57zM406 -16q-167 0 -262 105.5t-95 287.5q0 180 97 286.5t262 106.5q167 0 262.5 -105.5t95.5 -287.5q0 -180 -97 -286.5t-263 -106.5zM407 117q88 0 140 65.5t52 194.5q0 130 -52 195t-140 65t-139.5 -65.5t-51.5 -194.5
t51.5 -194.5t139.5 -65.5z" />
    <glyph glyph-name="Otilde" unicode="&#xd5;" horiz-adv-x="815" 
d="M299 805h-86q1 71 33.5 109.5t89.5 38.5q33 0 82.5 -20.5t67.5 -20.5q20 0 32 11.5t12 32.5h88q-2 -70 -32 -109.5t-89 -39.5q-33 0 -85 21.5t-68 21.5q-44 0 -45 -45zM406 -16q-167 0 -262 105.5t-95 287.5q0 180 97 286.5t262 106.5q167 0 262.5 -105.5t95.5 -287.5
q0 -180 -97 -286.5t-263 -106.5zM407 117q88 0 140 65.5t52 194.5q0 130 -52 195t-140 65t-139.5 -65.5t-51.5 -194.5t51.5 -194.5t139.5 -65.5z" />
    <glyph glyph-name="Odieresis" unicode="&#xd6;" horiz-adv-x="815" 
d="M452 811v140h140v-140h-140zM222 811v140h140v-140h-140zM406 -16q-167 0 -262 105.5t-95 287.5q0 180 97 286.5t262 106.5q167 0 262.5 -105.5t95.5 -287.5q0 -180 -97 -286.5t-263 -106.5zM407 117q88 0 140 65.5t52 194.5q0 130 -52 195t-140 65t-139.5 -65.5
t-51.5 -194.5t51.5 -194.5t139.5 -65.5z" />
    <glyph glyph-name="multiply" unicode="&#xd7;" horiz-adv-x="607" 
d="M144 84l-76 79l161 156l-161 159l75 80l161 -161l158 158l77 -80l-161 -155l161 -153l-77 -80l-158 156z" />
    <glyph glyph-name="Oslash" unicode="&#xd8;" horiz-adv-x="815" 
d="M216 377q0 -97 29 -160l283 380q-47 43 -121 43q-87 0 -139 -68t-52 -195zM407 115q88 0 140 67t52 195q0 99 -29 160l-282 -380q46 -42 119 -42zM407 -16q-118 0 -204 60l-75 -101l-55 43l77 103q-101 109 -101 288q0 180 97 286t262 107q118 0 205 -59l73 98l56 -41
l-77 -103q101 -107 101 -288q0 -180 -97 -286.5t-262 -106.5z" />
    <glyph glyph-name="Ugrave" unicode="&#xd9;" horiz-adv-x="764" 
d="M358 947l89 -142h-122l-134 142h167zM384 -16q-307 0 -307 295v476h160v-477q0 -156 147 -156q146 0 146 156v477h157v-476q0 -137 -73 -216t-230 -79z" />
    <glyph glyph-name="Uacute" unicode="&#xda;" horiz-adv-x="764" 
d="M317 805l89 142h167l-134 -142h-122zM384 -16q-307 0 -307 295v476h160v-477q0 -156 147 -156q146 0 146 156v477h157v-476q0 -137 -73 -216t-230 -79z" />
    <glyph glyph-name="Ucircumflex" unicode="&#xdb;" horiz-adv-x="764" 
d="M222 797v105l160 60l160 -60v-107l-161 57zM384 -16q-307 0 -307 295v476h160v-477q0 -156 147 -156q146 0 146 156v477h157v-476q0 -137 -73 -216t-230 -79z" />
    <glyph glyph-name="Udieresis" unicode="&#xdc;" horiz-adv-x="764" 
d="M384 -16q-307 0 -307 295v476h160v-477q0 -156 147 -156q146 0 146 156v477h157v-476q0 -137 -73 -216t-230 -79zM427 811v140h140v-140h-140zM197 811v140h140v-140h-140z" />
    <glyph glyph-name="Yacute" unicode="&#xdd;" horiz-adv-x="687" 
d="M268 0v312l-256 443h170l170 -304l165 304h158l-247 -435v-320h-160zM287 805l89 142h167l-134 -142h-122z" />
    <glyph glyph-name="Thorn" unicode="&#xde;" horiz-adv-x="693" 
d="M80 0v755h159v-140h141q131 0 205.5 -61t74.5 -177q0 -115 -75 -178t-209 -63h-137v-136h-159zM357 487h-118v-222h117q148 0 148 109q0 63 -39 88t-108 25z" />
    <glyph glyph-name="germandbls" unicode="&#xdf;" horiz-adv-x="700" 
d="M74 0v545q0 105 63 172t187 67q104 0 165.5 -48t61.5 -124q0 -28 -11 -54t-20.5 -38t-29.5 -34q-3 -4 -10 -11.5t-9.5 -11t-7.5 -9.5t-7.5 -9.5t-5 -8.5t-3.5 -9.5t-1 -8.5q0 -17 9.5 -28.5t40.5 -28.5l64 -35q118 -63 118 -159q0 -81 -56.5 -130.5t-157.5 -49.5
q-160 0 -192 123l110 42q20 -59 82 -59q31 0 47.5 14.5t16.5 34.5q0 22 -15 38.5t-54 36.5l-61 34q-50 26 -71.5 56.5t-21.5 73.5q0 11 1.5 20.5t5 19.5t6 16t9.5 17t9.5 14t11.5 15.5t11 14.5q16 22 22 31t12 26t6 35q0 34 -20.5 56t-60.5 22q-49 0 -69.5 -28.5
t-20.5 -85.5v-554h-154z" />
    <glyph glyph-name="agrave" unicode="&#xe0;" horiz-adv-x="611" 
d="M271 94q59 0 91.5 37t32.5 94v10q-31 1 -69 1q-132 0 -132 -76q0 -30 21.5 -48t55.5 -18zM224 -13q-82 0 -132 45.5t-50 118.5q0 177 275 177l77 -2v20q0 93 -93 93q-80 0 -96 -67l-143 30q14 62 75.5 108.5t167.5 46.5q117 0 177 -53.5t60 -169.5v-197l5 -137h-144
l-4 70q-58 -83 -175 -83zM294 778l91 -167h-118l-135 167h162z" />
    <glyph glyph-name="aacute" unicode="&#xe1;" horiz-adv-x="611" 
d="M271 94q59 0 91.5 37t32.5 94v10q-31 1 -69 1q-132 0 -132 -76q0 -30 21.5 -48t55.5 -18zM224 -13q-82 0 -132 45.5t-50 118.5q0 177 275 177l77 -2v20q0 93 -93 93q-80 0 -96 -67l-143 30q14 62 75.5 108.5t167.5 46.5q117 0 177 -53.5t60 -169.5v-197l5 -137h-144
l-4 70q-58 -83 -175 -83zM234 611l97 167h161l-140 -167h-118z" />
    <glyph glyph-name="acircumflex" unicode="&#xe2;" horiz-adv-x="611" 
d="M271 94q59 0 91.5 37t32.5 94v10q-31 1 -69 1q-132 0 -132 -76q0 -30 21.5 -48t55.5 -18zM224 -13q-82 0 -132 45.5t-50 118.5q0 177 275 177l77 -2v20q0 93 -93 93q-80 0 -96 -67l-143 30q14 62 75.5 108.5t167.5 46.5q117 0 177 -53.5t60 -169.5v-197l5 -137h-144
l-4 70q-58 -83 -175 -83zM150 602v109l160 73l160 -73v-110l-160 69z" />
    <glyph glyph-name="atilde" unicode="&#xe3;" horiz-adv-x="611" 
d="M271 94q59 0 91.5 37t32.5 94v10q-31 1 -69 1q-132 0 -132 -76q0 -30 21.5 -48t55.5 -18zM224 -13q-82 0 -132 45.5t-50 118.5q0 177 275 177l77 -2v20q0 93 -93 93q-80 0 -96 -67l-143 30q14 62 75.5 108.5t167.5 46.5q117 0 177 -53.5t60 -169.5v-197l5 -137h-144
l-4 70q-58 -83 -175 -83zM200 616h-86q1 71 33.5 109.5t89.5 38.5q33 0 82.5 -20.5t67.5 -20.5q44 0 44 44h88q-2 -70 -32 -109.5t-89 -39.5q-33 0 -85 21.5t-68 21.5q-44 0 -45 -45z" />
    <glyph glyph-name="adieresis" unicode="&#xe4;" horiz-adv-x="611" 
d="M271 94q59 0 91.5 37t32.5 94v10q-31 1 -69 1q-132 0 -132 -76q0 -30 21.5 -48t55.5 -18zM224 -13q-82 0 -132 45.5t-50 118.5q0 177 275 177l77 -2v20q0 93 -93 93q-80 0 -96 -67l-143 30q14 62 75.5 108.5t167.5 46.5q117 0 177 -53.5t60 -169.5v-197l5 -137h-144
l-4 70q-58 -83 -175 -83zM354 631v141h139v-141h-139zM127 631v141h139v-141h-139z" />
    <glyph glyph-name="aring" unicode="&#xe5;" horiz-adv-x="611" 
d="M271 94q59 0 91.5 37t32.5 94v10q-31 1 -69 1q-132 0 -132 -76q0 -30 21.5 -48t55.5 -18zM224 -13q-82 0 -132 45.5t-50 118.5q0 177 275 177l77 -2v20q0 93 -93 93q-80 0 -96 -67l-143 30q14 62 75.5 108.5t167.5 46.5q117 0 177 -53.5t60 -169.5v-197l5 -137h-144
l-4 70q-58 -83 -175 -83zM181 724q0 52 38 88t91 36t91 -36t38 -88t-38 -88t-91 -36t-91 36t-38 88zM247 724q0 -28 18.5 -46.5t44.5 -18.5q25 0 43 19t18 46t-18 45.5t-43 18.5q-26 0 -44.5 -18.5t-18.5 -45.5z" />
    <glyph glyph-name="ae" unicode="&#xe6;" horiz-adv-x="952" 
d="M42 151q0 174 270 174h82v23q0 45 -21.5 68t-71.5 23q-80 0 -96 -67l-143 30q14 62 75 108.5t168 46.5q120 0 176 -73q65 72 180 72q129 0 194.5 -86.5t63.5 -240.5h-383q1 -56 36 -91.5t90 -35.5q73 0 116 64l125 -40q-28 -64 -90.5 -102.5t-154.5 -38.5
q-148 0 -215 105q-69 -105 -211 -105q-81 0 -135.5 47t-54.5 119zM652 446q-50 0 -80.5 -32.5t-35.5 -84.5h228q-3 54 -32.5 85.5t-79.5 31.5zM270 92q57 0 91.5 38t34.5 95v7q-34 1 -57 1q-144 0 -144 -72q0 -31 21 -50t54 -19z" />
    <glyph glyph-name="ccedilla" unicode="&#xe7;" horiz-adv-x="594" 
d="M314 -232q-72 0 -119 43l45 44q34 -26 67 -26q40 0 40 31q0 32 -34 32q-17 0 -37 -10l-52 29l39 77q-110 14 -165.5 87.5t-55.5 191.5q0 126 73 207.5t206 81.5q103 0 165.5 -50.5t74.5 -120.5l-149 -25q-24 78 -98 78q-54 0 -85.5 -43.5t-31.5 -123.5q0 -83 31 -125.5
t87 -42.5q80 0 105 84l146 -23q-22 -82 -83 -130.5t-165 -48.5l-21 -37l3 -2q20 5 44 5q39 0 65 -23.5t26 -63.5q0 -45 -33 -70.5t-88 -25.5z" />
    <glyph glyph-name="egrave" unicode="&#xe8;" horiz-adv-x="609" 
d="M314 -15q-121 0 -196.5 78t-75.5 207q0 126 73.5 206t200.5 80q131 0 197 -86t64 -240h-385q4 -57 38.5 -92.5t88.5 -35.5q73 0 116 64l126 -40q-28 -64 -90.5 -102.5t-156.5 -38.5zM310 446q-51 0 -81.5 -32t-35.5 -85h228q-3 54 -32 85.5t-79 31.5zM298 778l91 -167
h-118l-135 167h162z" />
    <glyph glyph-name="eacute" unicode="&#xe9;" horiz-adv-x="609" 
d="M248 611l97 167h161l-140 -167h-118zM314 -15q-121 0 -196.5 78t-75.5 207q0 126 73.5 206t200.5 80q131 0 197 -86t64 -240h-385q4 -57 38.5 -92.5t88.5 -35.5q73 0 116 64l126 -40q-28 -64 -90.5 -102.5t-156.5 -38.5zM310 446q-51 0 -81.5 -32t-35.5 -85h228
q-3 54 -32 85.5t-79 31.5z" />
    <glyph glyph-name="ecircumflex" unicode="&#xea;" horiz-adv-x="609" 
d="M157 602v109l160 73l160 -73v-110l-160 69zM314 -15q-121 0 -196.5 78t-75.5 207q0 126 73.5 206t200.5 80q131 0 197 -86t64 -240h-385q4 -57 38.5 -92.5t88.5 -35.5q73 0 116 64l126 -40q-28 -64 -90.5 -102.5t-156.5 -38.5zM310 446q-51 0 -81.5 -32t-35.5 -85h228
q-3 54 -32 85.5t-79 31.5z" />
    <glyph glyph-name="edieresis" unicode="&#xeb;" horiz-adv-x="609" 
d="M361 631v141h139v-141h-139zM134 631v141h139v-141h-139zM314 -15q-121 0 -196.5 78t-75.5 207q0 126 73.5 206t200.5 80q131 0 197 -86t64 -240h-385q4 -57 38.5 -92.5t88.5 -35.5q73 0 116 64l126 -40q-28 -64 -90.5 -102.5t-156.5 -38.5zM310 446q-51 0 -81.5 -32
t-35.5 -85h228q-3 54 -32 85.5t-79 31.5z" />
    <glyph glyph-name="igrave" unicode="&#xec;" horiz-adv-x="301" 
d="M74 0v542h154v-542h-154zM128 778l91 -167h-118l-135 167h162z" />
    <glyph glyph-name="iacute" unicode="&#xed;" horiz-adv-x="301" 
d="M79 611l97 167h161l-140 -167h-118zM74 0v542h154v-542h-154z" />
    <glyph glyph-name="icircumflex" unicode="&#xee;" horiz-adv-x="301" 
d="M12 603v108l137 73l138 -73v-110l-138 68zM74 0v542h154v-542h-154z" />
    <glyph glyph-name="idieresis" unicode="&#xef;" horiz-adv-x="301" 
d="M171 631v141h139v-141h-139zM-12 631v141h140v-141h-140zM74 0v542h154v-542h-154z" />
    <glyph glyph-name="eth" unicode="&#xf0;" horiz-adv-x="642" 
d="M315 -15q-131 0 -202 79.5t-71 213.5q0 116 66 191t165 75q70 0 110 -40l4 3q-46 69 -104 123l-121 -64l-30 60l95 50q-22 17 -70 47l81 78q52 -24 108 -63l102 54l31 -60l-75 -39q92 -80 142.5 -180.5t50.5 -209.5q0 -318 -282 -318zM319 103q119 0 119 170
q0 165 -120 165q-60 0 -90 -44.5t-30 -122.5t30.5 -123t90.5 -45z" />
    <glyph glyph-name="ntilde" unicode="&#xf1;" horiz-adv-x="651" 
d="M74 0v542h144v-88q57 100 174 100q96 0 143 -56.5t47 -152.5v-345h-154v316q0 113 -94 113q-46 0 -76 -30.5t-30 -102.5v-296h-154zM228 616h-86q1 71 33.5 109.5t89.5 38.5q33 0 82.5 -20.5t67.5 -20.5q44 0 44 44h88q-2 -70 -32 -109.5t-89 -39.5q-33 0 -85 21.5
t-68 21.5q-44 0 -45 -45z" />
    <glyph glyph-name="ograve" unicode="&#xf2;" horiz-adv-x="636" 
d="M315 -15q-130 0 -201.5 79t-71.5 207q0 126 74 205.5t205 79.5q130 0 202 -79t72 -206q0 -126 -74.5 -206t-205.5 -80zM319 103q60 0 90 45t30 123t-30.5 123t-90.5 45q-61 0 -91 -45t-30 -123t30.5 -123t91.5 -45zM298 778l91 -167h-118l-135 167h162z" />
    <glyph glyph-name="oacute" unicode="&#xf3;" horiz-adv-x="636" 
d="M252 611l97 167h161l-140 -167h-118zM315 -15q-130 0 -201.5 79t-71.5 207q0 126 74 205.5t205 79.5q130 0 202 -79t72 -206q0 -126 -74.5 -206t-205.5 -80zM319 103q60 0 90 45t30 123t-30.5 123t-90.5 45q-61 0 -91 -45t-30 -123t30.5 -123t91.5 -45z" />
    <glyph glyph-name="ocircumflex" unicode="&#xf4;" horiz-adv-x="636" 
d="M159 602v109l160 73l160 -73v-110l-160 69zM315 -15q-130 0 -201.5 79t-71.5 207q0 126 74 205.5t205 79.5q130 0 202 -79t72 -206q0 -126 -74.5 -206t-205.5 -80zM319 103q60 0 90 45t30 123t-30.5 123t-90.5 45q-61 0 -91 -45t-30 -123t30.5 -123t91.5 -45z" />
    <glyph glyph-name="otilde" unicode="&#xf5;" horiz-adv-x="636" 
d="M315 -15q-130 0 -201.5 79t-71.5 207q0 126 74 205.5t205 79.5q130 0 202 -79t72 -206q0 -126 -74.5 -206t-205.5 -80zM319 103q60 0 90 45t30 123t-30.5 123t-90.5 45q-61 0 -91 -45t-30 -123t30.5 -123t91.5 -45zM211 616h-86q1 71 33.5 109.5t89.5 38.5
q33 0 82.5 -20.5t67.5 -20.5q44 0 44 44h88q-2 -70 -32 -109.5t-89 -39.5q-33 0 -85 21.5t-68 21.5q-44 0 -45 -45z" />
    <glyph glyph-name="odieresis" unicode="&#xf6;" horiz-adv-x="636" 
d="M362 631v141h139v-141h-139zM135 631v141h139v-141h-139zM315 -15q-130 0 -201.5 79t-71.5 207q0 126 74 205.5t205 79.5q130 0 202 -79t72 -206q0 -126 -74.5 -206t-205.5 -80zM319 103q60 0 90 45t30 123t-30.5 123t-90.5 45q-61 0 -91 -45t-30 -123t30.5 -123
t91.5 -45z" />
    <glyph glyph-name="divide" unicode="&#xf7;" horiz-adv-x="600" 
d="M234 444v127h132v-127h-132zM65 269v116h470v-116h-470zM234 82v127h132v-127h-132z" />
    <glyph glyph-name="oslash" unicode="&#xf8;" horiz-adv-x="636" 
d="M195 270q0 -58 17 -100l171 255q-29 19 -65 19q-61 0 -92 -46.5t-31 -127.5zM318 97q61 0 91.5 47t30.5 127q0 58 -16 97l-169 -253q25 -18 63 -18zM315 -15q-72 0 -128 28l-59 -88l-55 37l59 87q-90 79 -90 222q0 126 74 205.5t205 79.5q74 0 130 -29l54 81l57 -34
l-56 -84q89 -80 89 -219q0 -126 -74.5 -206t-205.5 -80z" />
    <glyph glyph-name="ugrave" unicode="&#xf9;" horiz-adv-x="641" 
d="M257 -13q-96 0 -142 57.5t-46 153.5v344h154v-317q0 -114 88 -114q51 0 76.5 34.5t25.5 96.5v300h154v-542h-145v93q-47 -106 -165 -106zM297 778l91 -167h-118l-135 167h162z" />
    <glyph glyph-name="uacute" unicode="&#xfa;" horiz-adv-x="641" 
d="M259 611l97 167h161l-140 -167h-118zM257 -13q-96 0 -142 57.5t-46 153.5v344h154v-317q0 -114 88 -114q51 0 76.5 34.5t25.5 96.5v300h154v-542h-145v93q-47 -106 -165 -106z" />
    <glyph glyph-name="ucircumflex" unicode="&#xfb;" horiz-adv-x="641" 
d="M162 602v109l160 73l160 -73v-110l-160 69zM257 -13q-96 0 -142 57.5t-46 153.5v344h154v-317q0 -114 88 -114q51 0 76.5 34.5t25.5 96.5v300h154v-542h-145v93q-47 -106 -165 -106z" />
    <glyph glyph-name="udieresis" unicode="&#xfc;" horiz-adv-x="641" 
d="M369 631v141h139v-141h-139zM142 631v141h139v-141h-139zM257 -13q-96 0 -142 57.5t-46 153.5v344h154v-317q0 -114 88 -114q51 0 76.5 34.5t25.5 96.5v300h154v-542h-145v93q-47 -106 -165 -106z" />
    <glyph glyph-name="yacute" unicode="&#xfd;" horiz-adv-x="572" 
d="M134 -222l78 216l-202 548h161l99 -281q8 -23 13 -47t7 -37l1 -13h5q5 46 23 99l94 279h150l-280 -764h-149zM240 611l97 167h161l-140 -167h-118z" />
    <glyph glyph-name="thorn" unicode="&#xfe;" horiz-adv-x="663" 
d="M340 98q56 0 88.5 44.5t32.5 127.5q0 84 -31 125t-84 41q-59 0 -91.5 -43.5t-32.5 -126.5q0 -84 31.5 -126t86.5 -42zM74 -222v1000h155v-314q58 92 166 92q113 0 168.5 -78.5t55.5 -197.5q0 -133 -69 -213.5t-180 -80.5q-94 0 -142 59v-267h-154z" />
    <glyph glyph-name="ydieresis" unicode="&#xff;" horiz-adv-x="572" 
d="M134 -222l78 216l-202 548h161l99 -281q8 -23 13 -47t7 -37l1 -13h5q5 46 23 99l94 279h150l-280 -764h-149zM347 631v141h139v-141h-139zM120 631v141h139v-141h-139z" />
    <glyph glyph-name="Amacron" unicode="&#x100;" horiz-adv-x="763" 
d="M342 495l-64 -190h200l-64 190l-32 115h-9q-13 -56 -31 -115zM581 0l-59 175h-288l-59 -175h-155l265 755h192l266 -755h-162zM205 811v105h353v-105h-353z" />
    <glyph glyph-name="amacron" unicode="&#x101;" horiz-adv-x="611" 
d="M271 94q59 0 91.5 37t32.5 94v10q-31 1 -69 1q-132 0 -132 -76q0 -30 21.5 -48t55.5 -18zM224 -13q-82 0 -132 45.5t-50 118.5q0 177 275 177l77 -2v20q0 93 -93 93q-80 0 -96 -67l-143 30q14 62 75.5 108.5t167.5 46.5q117 0 177 -53.5t60 -169.5v-197l5 -137h-144
l-4 70q-58 -83 -175 -83zM133 631v106h353v-106h-353z" />
    <glyph glyph-name="Abreve" unicode="&#x102;" horiz-adv-x="763" 
d="M342 495l-64 -190h200l-64 190l-32 115h-9q-13 -56 -31 -115zM581 0l-59 175h-288l-59 -175h-155l265 755h192l266 -755h-162zM385 800q-70 0 -118.5 37t-58.5 108h93q19 -52 84 -52q62 0 85 52h88q-6 -67 -55 -106t-118 -39z" />
    <glyph glyph-name="abreve" unicode="&#x103;" horiz-adv-x="611" 
d="M271 94q59 0 91.5 37t32.5 94v10q-31 1 -69 1q-132 0 -132 -76q0 -30 21.5 -48t55.5 -18zM224 -13q-82 0 -132 45.5t-50 118.5q0 177 275 177l77 -2v20q0 93 -93 93q-80 0 -96 -67l-143 30q14 62 75.5 108.5t167.5 46.5q117 0 177 -53.5t60 -169.5v-197l5 -137h-144
l-4 70q-58 -83 -175 -83zM311 606q-74 0 -122 41t-57 122h89q15 -66 91 -66q37 0 60.5 17.5t31.5 48.5h84q-6 -77 -55 -120t-122 -43z" />
    <glyph glyph-name="Aogonek" unicode="&#x104;" horiz-adv-x="763" 
d="M342 495l-64 -190h200l-64 190l-32 115h-9q-11 -57 -31 -115zM656 0h-75l-59 175h-288l-59 -175h-155l265 755h192l266 -755h-1q-44 -30 -61 -51t-17 -43t14 -34.5t39 -12.5q21 0 25 1v-90q-21 -2 -55 -2q-65 0 -100.5 27.5t-35.5 79.5q0 70 105 125z" />
    <glyph glyph-name="aogonek" unicode="&#x105;" horiz-adv-x="611" 
d="M271 94q59 0 91.5 37t32.5 94v10q-31 1 -69 1q-132 0 -132 -76q0 -30 21.5 -48t55.5 -18zM461 0h-58l-4 70q-58 -83 -175 -83q-82 0 -132 45.5t-50 118.5q0 177 275 177l77 -2v20q0 93 -93 93q-80 0 -96 -67l-143 30q14 62 75.5 108.5t167.5 46.5q117 0 177 -53.5
t60 -169.5v-197l5 -137q-44 -30 -61 -51t-17 -43t14 -34.5t39 -12.5q21 0 25 1v-90q-21 -2 -55 -2q-65 0 -100.5 27.5t-35.5 79.5q0 70 105 125z" />
    <glyph glyph-name="Cacute" unicode="&#x106;" horiz-adv-x="766" 
d="M406 -16q-169 0 -263 102t-94 286q0 178 98.5 288t259.5 110q131 0 213.5 -62t104.5 -160l-153 -31q-46 120 -166 120q-87 0 -138.5 -66.5t-51.5 -191.5q0 -129 52.5 -196t137.5 -67q72 0 113.5 38t57.5 96l158 -31q-26 -101 -106.5 -168t-222.5 -67zM341 805l89 142h167
l-134 -142h-122z" />
    <glyph glyph-name="cacute" unicode="&#x107;" horiz-adv-x="594" 
d="M250 611l97 167h161l-140 -167h-118zM313 -15q-135 0 -203 75.5t-68 206.5q0 126 73 207.5t206 81.5q103 0 165.5 -50.5t74.5 -120.5l-149 -25q-24 78 -98 78q-54 0 -85.5 -43.5t-31.5 -123.5q0 -83 31 -125.5t87 -42.5q80 0 105 84l146 -23q-22 -82 -84 -130.5
t-169 -48.5z" />
    <glyph glyph-name="Ccircumflex" unicode="&#x108;" horiz-adv-x="766" 
d="M245 797v105l160 60l160 -60v-107l-161 57zM406 -16q-169 0 -263 102t-94 286q0 178 98.5 288t259.5 110q131 0 213.5 -62t104.5 -160l-153 -31q-46 120 -166 120q-87 0 -138.5 -66.5t-51.5 -191.5q0 -129 52.5 -196t137.5 -67q72 0 113.5 38t57.5 96l158 -31
q-26 -101 -106.5 -168t-222.5 -67z" />
    <glyph glyph-name="ccircumflex" unicode="&#x109;" horiz-adv-x="594" 
d="M158 602v109l160 73l160 -73v-110l-160 69zM313 -15q-135 0 -203 75.5t-68 206.5q0 126 73 207.5t206 81.5q103 0 165.5 -50.5t74.5 -120.5l-149 -25q-24 78 -98 78q-54 0 -85.5 -43.5t-31.5 -123.5q0 -83 31 -125.5t87 -42.5q80 0 105 84l146 -23q-22 -82 -84 -130.5
t-169 -48.5z" />
    <glyph glyph-name="Cdotaccent" unicode="&#x10a;" horiz-adv-x="766" 
d="M406 -16q-169 0 -263 102t-94 286q0 178 98.5 288t259.5 110q131 0 213.5 -62t104.5 -160l-153 -31q-46 120 -166 120q-87 0 -138.5 -66.5t-51.5 -191.5q0 -129 52.5 -196t137.5 -67q72 0 113.5 38t57.5 96l158 -31q-26 -101 -106.5 -168t-222.5 -67zM338 813v140h139
v-140h-139z" />
    <glyph glyph-name="cdotaccent" unicode="&#x10b;" horiz-adv-x="594" 
d="M313 -15q-135 0 -203 75.5t-68 206.5q0 126 73 207.5t206 81.5q103 0 165.5 -50.5t74.5 -120.5l-149 -25q-24 78 -98 78q-54 0 -85.5 -43.5t-31.5 -123.5q0 -83 31 -125.5t87 -42.5q80 0 105 84l146 -23q-22 -82 -84 -130.5t-169 -48.5zM249 631v141h139v-141h-139z" />
    <glyph glyph-name="Ccaron" unicode="&#x10c;" horiz-adv-x="766" 
d="M567 954v-102l-160 -60l-160 60v104l161 -57zM406 -16q-169 0 -263 102t-94 286q0 178 98.5 288t259.5 110q131 0 213.5 -62t104.5 -160l-153 -31q-46 120 -166 120q-87 0 -138.5 -66.5t-51.5 -191.5q0 -129 52.5 -196t137.5 -67q72 0 113.5 38t57.5 96l158 -31
q-26 -101 -106.5 -168t-222.5 -67z" />
    <glyph glyph-name="ccaron" unicode="&#x10d;" horiz-adv-x="594" 
d="M478 782v-108l-160 -73l-160 72v110l160 -69zM313 -15q-135 0 -203 75.5t-68 206.5q0 126 73 207.5t206 81.5q103 0 165.5 -50.5t74.5 -120.5l-149 -25q-24 78 -98 78q-54 0 -85.5 -43.5t-31.5 -123.5q0 -83 31 -125.5t87 -42.5q80 0 105 84l146 -23q-22 -82 -84 -130.5
t-169 -48.5z" />
    <glyph glyph-name="Dcaron" unicode="&#x10e;" horiz-adv-x="774" 
d="M519 954v-102l-160 -60l-160 60v104l161 -57zM327 0h-245v755h245q86 0 155 -20t125 -63t86.5 -117.5t30.5 -175.5q0 -187 -104 -283.5t-293 -95.5zM240 132h87q115 0 173.5 56t58.5 193q0 127 -58 184t-174 57h-87v-490z" />
    <glyph glyph-name="dcaron" unicode="&#x10f;" horiz-adv-x="662" 
d="M631 572l25 206h136l-84 -206h-77zM319 100q60 0 90.5 46t30.5 123t-30 123t-87 46q-61 0 -92 -46t-31 -123q0 -78 30 -123.5t89 -45.5zM273 -12q-104 0 -166.5 75t-62.5 204q0 126 65 206.5t185 80.5q94 0 140 -66v290h154v-778h-143v67q-60 -79 -172 -79z" />
    <glyph glyph-name="Dcroat" unicode="&#x110;" horiz-adv-x="779" 
d="M333 0h-245v333h-72v103h72v319h245q86 0 155.5 -20t125 -63t86 -117.5t30.5 -175.5q0 -188 -104 -284t-293 -95zM245 132h88q115 0 174 56t59 193q0 127 -58 184t-175 57h-88v-186h159v-103h-159v-201z" />
    <glyph glyph-name="dcroat" unicode="&#x111;" horiz-adv-x="662" 
d="M319 100q60 0 90.5 46t30.5 123t-30 123t-87 46q-61 0 -92 -46t-31 -123q0 -78 30 -123.5t89 -45.5zM445 67q-60 -79 -172 -79q-104 0 -166.5 75t-62.5 204q0 126 65 206.5t185 80.5q94 0 140 -66v123h-144v84h144v83h154v-83h73v-84h-73v-611h-143v67z" />
    <glyph glyph-name="Emacron" unicode="&#x112;" horiz-adv-x="650" 
d="M82 0v755h504v-136h-346v-174h301v-133h-301v-176h362v-136h-520zM168 811v105h353v-105h-353z" />
    <glyph glyph-name="emacron" unicode="&#x113;" horiz-adv-x="609" 
d="M314 -15q-121 0 -196.5 78t-75.5 207q0 126 73.5 206t200.5 80q131 0 197 -86t64 -240h-385q4 -57 38.5 -92.5t88.5 -35.5q73 0 116 64l126 -40q-28 -64 -90.5 -102.5t-156.5 -38.5zM310 446q-51 0 -81.5 -32t-35.5 -85h228q-3 54 -32 85.5t-79 31.5zM139 631v106h353
v-106h-353z" />
    <glyph glyph-name="Ebreve" unicode="&#x114;" horiz-adv-x="650" 
d="M82 0v755h504v-136h-346v-174h301v-133h-301v-176h362v-136h-520zM345 800q-70 0 -118.5 37t-58.5 108h93q19 -52 84 -52q62 0 85 52h88q-6 -67 -55 -106t-118 -39z" />
    <glyph glyph-name="ebreve" unicode="&#x115;" horiz-adv-x="609" 
d="M314 -15q-121 0 -196.5 78t-75.5 207q0 126 73.5 206t200.5 80q131 0 197 -86t64 -240h-385q4 -57 38.5 -92.5t88.5 -35.5q73 0 116 64l126 -40q-28 -64 -90.5 -102.5t-156.5 -38.5zM310 446q-51 0 -81.5 -32t-35.5 -85h228q-3 54 -32 85.5t-79 31.5zM319 606
q-74 0 -122 41t-57 122h89q15 -66 91 -66q37 0 60.5 17.5t31.5 48.5h84q-6 -77 -55 -120t-122 -43z" />
    <glyph glyph-name="Edotaccent" unicode="&#x116;" horiz-adv-x="650" 
d="M275 813v140h139v-140h-139zM82 0v755h504v-136h-346v-174h301v-133h-301v-176h362v-136h-520z" />
    <glyph glyph-name="edotaccent" unicode="&#x117;" horiz-adv-x="609" 
d="M314 -15q-121 0 -196.5 78t-75.5 207q0 126 73.5 206t200.5 80q131 0 197 -86t64 -240h-385q4 -57 38.5 -92.5t88.5 -35.5q73 0 116 64l126 -40q-28 -64 -90.5 -102.5t-156.5 -38.5zM310 446q-51 0 -81.5 -32t-35.5 -85h228q-3 54 -32 85.5t-79 31.5zM248 631v141h139
v-141h-139z" />
    <glyph glyph-name="Eogonek" unicode="&#x118;" horiz-adv-x="650" 
d="M515 0h-433v755h504v-136h-346v-174h301v-133h-301v-176h362v-136h-1q-44 -30 -61 -51t-17 -43t14 -34.5t39 -12.5q21 0 25 1v-90q-21 -2 -55 -2q-65 0 -100.5 27.5t-35.5 79.5q0 70 105 125z" />
    <glyph glyph-name="eogonek" unicode="&#x119;" horiz-adv-x="609" 
d="M466 14q-54 -45 -72.5 -65.5t-18.5 -42.5q0 -47 54 -47q20 0 24 1v-90q-23 -2 -55 -2q-65 0 -101 27t-36 76q0 36 19.5 60.5t59.5 50.5v5l-10 -1q-11 -1 -19 -1q-122 0 -195.5 77.5t-73.5 207.5q0 126 74 206t201 80q131 0 196.5 -86t63.5 -240h-385q4 -58 38.5 -93
t89.5 -35q73 0 115 64l126 -40q-24 -51 -95 -112zM310 446q-51 0 -81.5 -32t-35.5 -85h228q-3 54 -32 85.5t-79 31.5z" />
    <glyph glyph-name="Ecaron" unicode="&#x11a;" horiz-adv-x="650" 
d="M504 954v-102l-160 -60l-160 60v104l161 -57zM82 0v755h504v-136h-346v-174h301v-133h-301v-176h362v-136h-520z" />
    <glyph glyph-name="ecaron" unicode="&#x11b;" horiz-adv-x="609" 
d="M477 782v-108l-160 -73l-160 72v110l160 -69zM314 -15q-121 0 -196.5 78t-75.5 207q0 126 73.5 206t200.5 80q131 0 197 -86t64 -240h-385q4 -57 38.5 -92.5t88.5 -35.5q73 0 116 64l126 -40q-28 -64 -90.5 -102.5t-156.5 -38.5zM310 446q-51 0 -81.5 -32t-35.5 -85h228
q-3 54 -32 85.5t-79 31.5z" />
    <glyph glyph-name="Gcircumflex" unicode="&#x11c;" horiz-adv-x="802" 
d="M249 797v105l160 60l160 -60v-107l-161 57zM378 -16q-149 0 -239 101t-90 285q0 185 100.5 292.5t262.5 107.5q126 0 203.5 -59.5t104.5 -153.5l-151 -33q-46 118 -160 118q-88 0 -142 -68t-54 -195t53 -196t140 -69t130 49t43 118v11h-175v119h320v-411h-123l-11 86h-5
q-34 -49 -82 -75.5t-125 -26.5z" />
    <glyph glyph-name="gcircumflex" unicode="&#x11d;" horiz-adv-x="662" 
d="M159 602v109l160 73l160 -73v-110l-160 69zM320 112q58 0 89 45t31 121q0 74 -31 119.5t-87 45.5q-59 0 -90.5 -45.5t-31.5 -120.5t30.5 -120t89.5 -45zM301 -232q-101 0 -162.5 39.5t-82.5 105.5l134 45q31 -76 117 -76q128 0 128 129v70q-55 -80 -163 -80
q-112 0 -170 78t-58 196q0 126 66.5 202.5t178.5 76.5q108 0 156 -78v66h143v-488q0 -141 -67.5 -213.5t-219.5 -72.5z" />
    <glyph glyph-name="Gbreve" unicode="&#x11e;" horiz-adv-x="802" 
d="M415 800q-70 0 -118.5 37t-58.5 108h93q19 -52 84 -52q62 0 85 52h88q-6 -67 -55 -106t-118 -39zM378 -16q-149 0 -239 101t-90 285q0 185 100.5 292.5t262.5 107.5q126 0 203.5 -59.5t104.5 -153.5l-151 -33q-46 118 -160 118q-88 0 -142 -68t-54 -195t53 -196t140 -69
t130 49t43 118v11h-175v119h320v-411h-123l-11 86h-5q-34 -49 -82 -75.5t-125 -26.5z" />
    <glyph glyph-name="gbreve" unicode="&#x11f;" horiz-adv-x="662" 
d="M320 112q58 0 89 45t31 121q0 74 -31 119.5t-87 45.5q-59 0 -90.5 -45.5t-31.5 -120.5t30.5 -120t89.5 -45zM301 -232q-101 0 -162.5 39.5t-82.5 105.5l134 45q31 -76 117 -76q128 0 128 129v70q-55 -80 -163 -80q-112 0 -170 78t-58 196q0 126 66.5 202.5t178.5 76.5
q108 0 156 -78v66h143v-488q0 -141 -67.5 -213.5t-219.5 -72.5zM322 606q-74 0 -122 41t-57 122h89q15 -66 91 -66q75 0 92 66h84q-6 -77 -55 -120t-122 -43z" />
    <glyph glyph-name="Gdotaccent" unicode="&#x120;" horiz-adv-x="802" 
d="M343 813v140h139v-140h-139zM378 -16q-149 0 -239 101t-90 285q0 185 100.5 292.5t262.5 107.5q126 0 203.5 -59.5t104.5 -153.5l-151 -33q-46 118 -160 118q-88 0 -142 -68t-54 -195t53 -196t140 -69t130 49t43 118v11h-175v119h320v-411h-123l-11 86h-5
q-34 -49 -82 -75.5t-125 -26.5z" />
    <glyph glyph-name="gdotaccent" unicode="&#x121;" horiz-adv-x="662" 
d="M320 112q58 0 89 45t31 121q0 74 -31 119.5t-87 45.5q-59 0 -90.5 -45.5t-31.5 -120.5t30.5 -120t89.5 -45zM301 -232q-101 0 -162.5 39.5t-82.5 105.5l134 45q31 -76 117 -76q128 0 128 129v70q-55 -80 -163 -80q-112 0 -170 78t-58 196q0 126 66.5 202.5t178.5 76.5
q108 0 156 -78v66h143v-488q0 -141 -67.5 -213.5t-219.5 -72.5zM252 631v141h139v-141h-139z" />
    <glyph glyph-name="Gcommaaccent" unicode="&#x122;" horiz-adv-x="802" 
d="M328 -235l-12 50q68 13 77 45h-73v100h149v-48q0 -67 -29.5 -99t-111.5 -48zM378 -16q-149 0 -239 101t-90 285q0 185 100.5 292.5t262.5 107.5q126 0 203.5 -59.5t104.5 -153.5l-151 -33q-46 118 -160 118q-88 0 -142 -68t-54 -195t53 -196t140 -69t130 49t43 118v11
h-175v119h320v-411h-123l-11 86h-5q-34 -49 -82 -75.5t-125 -26.5z" />
    <glyph glyph-name="gcommaaccent" unicode="&#x123;" horiz-adv-x="662" 
d="M384 832q13 -47 14 -49q-64 -17 -73 -49h69v-100h-147v48q0 67 29 100t108 50zM320 112q58 0 89 45t31 121q0 74 -31 119.5t-87 45.5q-59 0 -90.5 -45.5t-31.5 -120.5t30.5 -120t89.5 -45zM301 -232q-101 0 -162.5 39.5t-82.5 105.5l134 45q31 -76 117 -76q128 0 128 129
v70q-55 -80 -163 -80q-112 0 -170 78t-58 196q0 126 66.5 202.5t178.5 76.5q108 0 156 -78v66h143v-488q0 -141 -67.5 -213.5t-219.5 -72.5z" />
    <glyph glyph-name="Hcircumflex" unicode="&#x124;" horiz-adv-x="793" 
d="M552 0v318h-311v-318h-159v755h159v-301h311v301h160v-755h-160zM237 797v105l160 60l160 -60v-107l-161 57z" />
    <glyph glyph-name="hcircumflex" unicode="&#x125;" horiz-adv-x="651" 
d="M228 778v-317q48 94 164 94q96 0 143 -56.5t47 -152.5v-346h-154v317q0 113 -94 113q-46 0 -76 -30.5t-30 -102.5v-297h-154v778h154zM-11 797v105l160 60l160 -60v-107l-161 57z" />
    <glyph glyph-name="Hbar" unicode="&#x126;" horiz-adv-x="793" 
d="M241 454h311v99h-311v-99zM241 318v-318h-159v553h-70v78h70v124h159v-124h311v124h160v-124h70v-78h-70v-553h-160v318h-311z" />
    <glyph glyph-name="hbar" unicode="&#x127;" horiz-adv-x="651" 
d="M228 297v-297h-154v604h-73v91h73v83h154v-83h144v-91h-144v-143q48 94 164 94q96 0 143 -56.5t47 -152.5v-346h-154v317q0 113 -94 113q-46 0 -76 -30.5t-30 -102.5z" />
    <glyph glyph-name="Itilde" unicode="&#x128;" horiz-adv-x="323" 
d="M81 806h-90q0 73 27 111.5t77 38.5q28 0 70 -21t54 -21q29 0 29 44h91q0 -148 -101 -148q-29 0 -71 21t-54 21q-32 0 -32 -46zM82 0v755h159v-755h-159z" />
    <glyph glyph-name="itilde" unicode="&#x129;" horiz-adv-x="301" 
d="M60 613h-76q0 156 101 156q27 0 73.5 -21.5t59.5 -21.5q32 0 32 46h77q0 -154 -101 -154q-29 0 -74.5 21.5t-58.5 21.5q-33 0 -33 -48zM74 0v542h154v-542h-154z" />
    <glyph glyph-name="Imacron" unicode="&#x12a;" horiz-adv-x="323" 
d="M82 0v755h159v-755h-159zM22 811v105h276v-105h-276z" />
    <glyph glyph-name="imacron" unicode="&#x12b;" horiz-adv-x="301" 
d="M74 0v542h154v-542h-154zM11 631v106h276v-106h-276z" />
    <glyph glyph-name="Ibreve" unicode="&#x12c;" horiz-adv-x="323" 
d="M164 800q-65 0 -110.5 36.5t-49.5 108.5h88q17 -50 73 -50q55 0 74 50h82q0 -68 -46.5 -106.5t-110.5 -38.5zM82 0v755h159v-755h-159z" />
    <glyph glyph-name="ibreve" unicode="&#x12d;" horiz-adv-x="301" 
d="M151 606q-67 0 -108.5 41t-49.5 122h84q12 -66 76 -66q30 0 50 17.5t26 48.5h78q-5 -77 -47 -120t-109 -43zM74 0v542h154v-542h-154z" />
    <glyph glyph-name="Iogonek" unicode="&#x12e;" horiz-adv-x="323" 
d="M155 0h-73v755h159v-755q-44 -30 -61 -51t-17 -43t14 -34.5t39 -12.5q21 0 25 1v-90q-21 -2 -55 -2q-65 0 -100.5 27.5t-35.5 79.5q0 70 105 125z" />
    <glyph glyph-name="iogonek" unicode="&#x12f;" horiz-adv-x="301" 
d="M72 629v143h158v-143h-158zM141 0h-67v542h154v-542h-1q-44 -30 -61 -51t-17 -43t14 -34.5t39 -12.5q21 0 25 1v-90q-21 -2 -55 -2q-65 0 -100.5 27.5t-35.5 79.5q0 70 105 125z" />
    <glyph glyph-name="Idotaccent" unicode="&#x130;" horiz-adv-x="323" 
d="M82 0v755h159v-755h-159zM92 813v140h139v-140h-139z" />
    <glyph glyph-name="dotlessi" unicode="&#x131;" horiz-adv-x="301" 
d="M74 0v542h154v-542h-154z" />
    <glyph glyph-name="IJ" unicode="&#x132;" horiz-adv-x="930" 
d="M82 0v755h159v-755h-159zM600 -16q-123 0 -191 58.5t-78 159.5l152 17q16 -105 116 -105q56 0 82.5 28t26.5 88v525h159v-514q0 -54 -13 -97.5t-42.5 -81t-83 -58t-128.5 -20.5z" />
    <glyph glyph-name="ij" unicode="&#x133;" horiz-adv-x="602" 
d="M72 629v143h158v-143h-158zM74 0v542h154v-542h-154zM373 629v143h158v-143h-158zM332 -229q-39 0 -75 9l10 121q33 -5 40 -5q68 0 68 76v570h154v-565q0 -98 -50.5 -152t-146.5 -54z" />
    <glyph glyph-name="Jcircumflex" unicode="&#x134;" horiz-adv-x="641" 
d="M318 797v105l160 60l160 -60v-107l-161 57zM297 -16q-123 0 -191 58.5t-78 159.5l152 17q16 -105 116 -105q56 0 82.5 28t26.5 88v525h159v-514q0 -54 -13 -97.5t-42.5 -81t-83 -58t-128.5 -20.5z" />
    <glyph glyph-name="jcircumflex" unicode="&#x135;" horiz-adv-x="301" 
d="M12 609v108l137 72l138 -72v-110l-138 69zM31 -229q-39 0 -75 9l10 121q32 -5 40 -5q68 0 68 76v570h154v-565q0 -98 -50.5 -152t-146.5 -54z" />
    <glyph glyph-name="Kcommaaccent" unicode="&#x136;" horiz-adv-x="747" 
d="M313 -235l-12 50q68 13 77 45h-73v100h149v-48q0 -67 -29.5 -99t-111.5 -48zM239 214v-214h-157v755h157v-344l286 344h175l-263 -314l290 -441h-189l-211 319z" />
    <glyph glyph-name="kcommaaccent" unicode="&#x137;" horiz-adv-x="624" 
d="M258 -235l-12 50q68 13 77 45h-73v100h149v-48q0 -67 -29.5 -99t-111.5 -48zM430 0l-147 225l-56 -62v-163h-153v778h153v-448l184 212h173l-193 -214l214 -328h-175z" />
    <glyph glyph-name="Lacute" unicode="&#x139;" horiz-adv-x="616" 
d="M101 805l89 142h167l-134 -142h-122zM82 0v755h159v-617h344v-138h-503z" />
    <glyph glyph-name="lacute" unicode="&#x13a;" horiz-adv-x="301" 
d="M87 808l89 142h167l-134 -142h-122zM74 0v778h154v-778h-154z" />
    <glyph glyph-name="Lcommaaccent" unicode="&#x13b;" horiz-adv-x="616" 
d="M267 -235l-12 50q68 13 77 45h-73v100h149v-48q0 -67 -29.5 -99t-111.5 -48zM82 0v755h159v-617h344v-138h-503z" />
    <glyph glyph-name="lcommaaccent" unicode="&#x13c;" horiz-adv-x="301" 
d="M79 -235l-12 50q68 13 77 45h-73v100h149v-48q0 -67 -29.5 -99t-111.5 -48zM74 0v778h154v-778h-154z" />
    <glyph glyph-name="Lcaron" unicode="&#x13d;" horiz-adv-x="616" 
d="M354 549l25 206h136l-84 -206h-77zM82 0v755h159v-617h344v-138h-503z" />
    <glyph glyph-name="lcaron" unicode="&#x13e;" horiz-adv-x="301" 
d="M271 572l25 206h136l-84 -206h-77zM74 0v778h154v-778h-154z" />
    <glyph glyph-name="Ldot" unicode="&#x13f;" horiz-adv-x="616" 
d="M82 0v755h159v-617h344v-138h-503zM391 312v163h166v-163h-166z" />
    <glyph glyph-name="ldot" unicode="&#x140;" horiz-adv-x="454" 
d="M295 312v163h166v-163h-166zM74 0v778h154v-778h-154z" />
    <glyph glyph-name="Lslash" unicode="&#x141;" horiz-adv-x="616" 
d="M585 0h-503v271l-82 -37v115l82 37v369h159v-296l199 90v-114l-199 -91v-206h344v-138z" />
    <glyph glyph-name="lslash" unicode="&#x142;" horiz-adv-x="301" 
d="M228 0h-154v309l-81 -41v119l81 41v350h154v-272l82 41v-118l-82 -42v-387z" />
    <glyph glyph-name="Nacute" unicode="&#x143;" horiz-adv-x="795" 
d="M345 805l89 142h167l-134 -142h-122zM82 0v755h176l266 -435q10 -17 19.5 -36.5t14.5 -31.5l4 -11h4v514h147v-755h-168l-272 442q-11 18 -20.5 38t-14.5 31l-4 11h-4v-522h-148z" />
    <glyph glyph-name="nacute" unicode="&#x144;" horiz-adv-x="651" 
d="M280 611l97 167h161l-140 -167h-118zM74 0v542h144v-88q57 100 174 100q96 0 143 -56.5t47 -152.5v-345h-154v316q0 113 -94 113q-46 0 -76 -30.5t-30 -102.5v-296h-154z" />
    <glyph glyph-name="Ncommaaccent" unicode="&#x145;" horiz-adv-x="795" 
d="M339 -235l-12 50q68 13 77 45h-73v100h149v-48q0 -67 -29.5 -99t-111.5 -48zM82 0v755h176l266 -435q10 -17 19.5 -36.5t14.5 -31.5l4 -11h4v514h147v-755h-168l-272 442q-11 18 -20.5 38t-14.5 31l-4 11h-4v-522h-148z" />
    <glyph glyph-name="ncommaaccent" unicode="&#x146;" horiz-adv-x="651" 
d="M262 -235l-12 50q68 13 77 45h-73v100h149v-48q0 -67 -29.5 -99t-111.5 -48zM74 0v542h144v-88q57 100 174 100q96 0 143 -56.5t47 -152.5v-345h-154v316q0 113 -94 113q-46 0 -76 -30.5t-30 -102.5v-296h-154z" />
    <glyph glyph-name="Ncaron" unicode="&#x147;" horiz-adv-x="795" 
d="M570 954v-102l-160 -60l-160 60v104l161 -57zM82 0v755h176l266 -435q10 -17 19.5 -36.5t14.5 -31.5l4 -11h4v514h147v-755h-168l-272 442q-11 18 -20.5 38t-14.5 31l-4 11h-4v-522h-148z" />
    <glyph glyph-name="ncaron" unicode="&#x148;" horiz-adv-x="651" 
d="M505 782v-108l-160 -73l-160 72v110l160 -69zM74 0v542h144v-88q57 100 174 100q96 0 143 -56.5t47 -152.5v-345h-154v316q0 113 -94 113q-46 0 -76 -30.5t-30 -102.5v-296h-154z" />
    <glyph glyph-name="Eng" unicode="&#x14a;" horiz-adv-x="795" 
d="M516 -229q-31 0 -76 9l11 120q33 -5 40 -5q70 0 70 76v29h-16l-272 442q-11 18 -21 38t-14 31l-4 11h-4v-522h-148v755h176l266 -435q10 -16 19.5 -36t14.5 -32l4 -11h4v514h147v-773q0 -101 -51.5 -156t-145.5 -55z" />
    <glyph glyph-name="eng" unicode="&#x14b;" horiz-adv-x="652" 
d="M428 316q0 113 -94 113q-46 0 -76 -30.5t-30 -102.5v-296h-154v542h144v-88q57 100 174 100q96 0 143 -56.5t47 -152.5v-368q0 -99 -50 -152.5t-146 -53.5q-31 0 -76 9l11 121q33 -5 40 -5q67 0 67 76v344z" />
    <glyph glyph-name="Omacron" unicode="&#x14c;" horiz-adv-x="815" 
d="M231 811v105h353v-105h-353zM406 -16q-167 0 -262 105.5t-95 287.5q0 180 97 286.5t262 106.5q167 0 262.5 -105.5t95.5 -287.5q0 -180 -97 -286.5t-263 -106.5zM407 117q88 0 140 65.5t52 194.5q0 130 -52 195t-140 65t-139.5 -65.5t-51.5 -194.5t51.5 -194.5
t139.5 -65.5z" />
    <glyph glyph-name="omacron" unicode="&#x14d;" horiz-adv-x="636" 
d="M142 631v106h353v-106h-353zM315 -15q-130 0 -201.5 79t-71.5 207q0 126 74 205.5t205 79.5q130 0 202 -79t72 -206q0 -126 -74.5 -206t-205.5 -80zM319 103q60 0 90 45t30 123t-30.5 123t-90.5 45q-61 0 -91 -45t-30 -123t30.5 -123t91.5 -45z" />
    <glyph glyph-name="Obreve" unicode="&#x14e;" horiz-adv-x="815" 
d="M410 800q-70 0 -118.5 37t-58.5 108h93q19 -52 84 -52q62 0 85 52h88q-6 -67 -55 -106t-118 -39zM406 -16q-167 0 -262 105.5t-95 287.5q0 180 97 286.5t262 106.5q167 0 262.5 -105.5t95.5 -287.5q0 -180 -97 -286.5t-263 -106.5zM407 117q88 0 140 65.5t52 194.5
q0 130 -52 195t-140 65t-139.5 -65.5t-51.5 -194.5t51.5 -194.5t139.5 -65.5z" />
    <glyph glyph-name="obreve" unicode="&#x14f;" horiz-adv-x="636" 
d="M315 -15q-130 0 -201.5 79t-71.5 207q0 126 74 205.5t205 79.5q130 0 202 -79t72 -206q0 -126 -74.5 -206t-205.5 -80zM319 103q60 0 90 45t30 123t-30.5 123t-90.5 45q-61 0 -91 -45t-30 -123t30.5 -123t91.5 -45zM319 606q-74 0 -122 41t-57 122h89q15 -66 91 -66
q37 0 60.5 17.5t31.5 48.5h84q-6 -77 -55 -120t-122 -43z" />
    <glyph glyph-name="Ohungarumlaut" unicode="&#x150;" horiz-adv-x="815" 
d="M248 805l74 142h138l-97 -142h-115zM444 805l73 142h139l-98 -142h-114zM406 -16q-167 0 -262 105.5t-95 287.5q0 180 97 286.5t262 106.5q167 0 262.5 -105.5t95.5 -287.5q0 -180 -97 -286.5t-263 -106.5zM407 117q88 0 140 65.5t52 194.5q0 130 -52 195t-140 65
t-139.5 -65.5t-51.5 -194.5t51.5 -194.5t139.5 -65.5z" />
    <glyph glyph-name="ohungarumlaut" unicode="&#x151;" horiz-adv-x="636" 
d="M160 610l85 168h139l-114 -168h-110zM357 610l85 168h139l-114 -168h-110zM315 -15q-130 0 -201.5 79t-71.5 207q0 126 74 205.5t205 79.5q130 0 202 -79t72 -206q0 -126 -74.5 -206t-205.5 -80zM319 103q60 0 90 45t30 123t-30.5 123t-90.5 45q-61 0 -91 -45t-30 -123
t30.5 -123t91.5 -45z" />
    <glyph glyph-name="OE" unicode="&#x152;" horiz-adv-x="1158" 
d="M407 115q88 0 140 66.5t52 195.5q0 131 -51.5 197t-140.5 66q-88 0 -140 -67.5t-52 -196.5q0 -128 52 -194.5t140 -66.5zM600 0v73q-74 -87 -209 -87q-155 0 -248.5 105.5t-93.5 285.5t94.5 285t257.5 105q124 0 198 -80v68h495v-136h-343v-176h298v-128h-298v-179h358
v-136h-509z" />
    <glyph glyph-name="oe" unicode="&#x153;" horiz-adv-x="995" 
d="M699 -15q-135 0 -189 87h-2q-64 -87 -193 -87q-130 0 -201.5 79t-71.5 207q0 127 73 206t206 79q130 0 190 -96h2q65 96 189 96q134 0 199 -87t59 -239h-378q2 -57 34 -92.5t85 -35.5q42 0 67 15t43 47l134 -34q-27 -67 -88.5 -106t-157.5 -39zM697 446
q-51 0 -80.5 -33.5t-33.5 -86.5h225q-2 55 -31 87.5t-80 32.5zM319 103q60 0 89.5 44.5t29.5 123.5q0 78 -30 122.5t-90 44.5t-90 -44.5t-30 -122.5t30.5 -123t90.5 -45z" />
    <glyph glyph-name="Racute" unicode="&#x154;" horiz-adv-x="717" 
d="M284 805l89 142h167l-134 -142h-122zM355 631h-114v-225h118q63 0 99.5 24t36.5 87t-36.5 88.5t-103.5 25.5zM512 0l-150 273h-121v-273h-159v755h304q128 0 200 -59.5t72 -168.5q0 -74 -37.5 -128t-104.5 -83v-2l171 -314h-175z" />
    <glyph glyph-name="racute" unicode="&#x155;" horiz-adv-x="432" 
d="M183 611l97 167h161l-140 -167h-118zM74 0v542h144v-100h4q28 68 74 90.5t112 17.5l-7 -150q-18 3 -49 3q-76 0 -103 -51q-21 -34 -21 -108v-244h-154z" />
    <glyph glyph-name="Rcommaaccent" unicode="&#x156;" horiz-adv-x="717" 
d="M305 -235l-12 50q68 13 77 45h-73v100h149v-48q0 -67 -29.5 -99t-111.5 -48zM355 631h-114v-225h118q63 0 99.5 24t36.5 87t-36.5 88.5t-103.5 25.5zM512 0l-150 273h-121v-273h-159v755h304q128 0 200 -59.5t72 -168.5q0 -74 -37.5 -128t-104.5 -83v-2l171 -314h-175z
" />
    <glyph glyph-name="rcommaaccent" unicode="&#x157;" horiz-adv-x="432" 
d="M84 -235l-12 50q68 13 77 45h-73v100h149v-48q0 -67 -29.5 -99t-111.5 -48zM74 0v542h144v-100h4q28 68 74 90.5t112 17.5l-7 -150q-18 3 -49 3q-76 0 -103 -51q-21 -34 -21 -108v-244h-154z" />
    <glyph glyph-name="Rcaron" unicode="&#x158;" horiz-adv-x="717" 
d="M507 954v-102l-160 -60l-160 60v104l161 -57zM355 631h-114v-225h118q63 0 99.5 24t36.5 87t-36.5 88.5t-103.5 25.5zM512 0l-150 273h-121v-273h-159v755h304q128 0 200 -59.5t72 -168.5q0 -74 -37.5 -128t-104.5 -83v-2l171 -314h-175z" />
    <glyph glyph-name="rcaron" unicode="&#x159;" horiz-adv-x="432" 
d="M406 782v-108l-160 -73l-160 72v110l160 -69zM74 0v542h144v-100h4q28 68 74 90.5t112 17.5l-7 -150q-18 3 -49 3q-76 0 -103 -51q-21 -34 -21 -108v-244h-154z" />
    <glyph glyph-name="Sacute" unicode="&#x15a;" horiz-adv-x="708" 
d="M351 -16q-132 0 -217 62.5t-102 153.5l159 25q17 -54 60 -83t104 -29q68 0 104.5 26t36.5 71q0 34 -25 57t-87 36l-110 24q-204 45 -205 217q0 98 76.5 162.5t207.5 64.5q125 0 199.5 -53t97.5 -143l-154 -27q-37 97 -144 97q-62 0 -92.5 -24t-30.5 -59q0 -36 26 -58.5
t87 -35.5l113 -24q207 -46 207 -217q0 -106 -78 -174.5t-233 -68.5zM298 805l89 142h167l-134 -142h-122z" />
    <glyph glyph-name="sacute" unicode="&#x15b;" horiz-adv-x="569" 
d="M220 611l97 167h161l-140 -167h-118zM282 -16q-106 0 -167.5 41.5t-76.5 117.5l141 22q26 -71 106 -71q92 0 92 54q0 22 -14 34.5t-54 20.5l-83 16q-86 16 -127.5 55t-41.5 110q0 74 62.5 123t164.5 49q100 0 159 -41t75 -109l-140 -23q-19 64 -95 64q-39 0 -59.5 -13.5
t-20.5 -35.5q0 -23 16.5 -34.5t54.5 -19.5l94 -18q82 -16 119.5 -54t37.5 -104q0 -84 -62 -134t-181 -50z" />
    <glyph glyph-name="Scircumflex" unicode="&#x15c;" horiz-adv-x="708" 
d="M203 797v105l160 60l160 -60v-107l-161 57zM351 -16q-132 0 -217 62.5t-102 153.5l159 25q17 -54 60 -83t104 -29q68 0 104.5 26t36.5 71q0 34 -25 57t-87 36l-110 24q-204 45 -205 217q0 98 76.5 162.5t207.5 64.5q125 0 199.5 -53t97.5 -143l-154 -27q-37 97 -144 97
q-62 0 -92.5 -24t-30.5 -59q0 -36 26 -58.5t87 -35.5l113 -24q207 -46 207 -217q0 -106 -78 -174.5t-233 -68.5z" />
    <glyph glyph-name="scircumflex" unicode="&#x15d;" horiz-adv-x="569" 
d="M131 602v109l160 73l160 -73v-110l-160 69zM282 -16q-106 0 -167.5 41.5t-76.5 117.5l141 22q26 -71 106 -71q92 0 92 54q0 22 -14 34.5t-54 20.5l-83 16q-86 16 -127.5 55t-41.5 110q0 74 62.5 123t164.5 49q100 0 159 -41t75 -109l-140 -23q-19 64 -95 64
q-39 0 -59.5 -13.5t-20.5 -35.5q0 -23 16.5 -34.5t54.5 -19.5l94 -18q82 -16 119.5 -54t37.5 -104q0 -84 -62 -134t-181 -50z" />
    <glyph glyph-name="Scedilla" unicode="&#x15e;" horiz-adv-x="708" 
d="M359 -232q-72 0 -119 43l45 44q34 -26 67 -26q40 0 40 31q0 32 -34 32q-17 0 -37 -10l-52 29l38 75q-114 11 -187 71t-88 143l159 25q17 -54 60 -83t104 -29q68 0 104.5 26t36.5 71q0 34 -25 57t-87 36l-110 24q-204 45 -205 217q0 98 76.5 162.5t207.5 64.5
q125 0 199.5 -53t97.5 -143l-154 -27q-37 97 -144 97q-62 0 -92.5 -24t-30.5 -59q0 -36 26 -58.5t87 -35.5l113 -24q207 -46 207 -217q0 -104 -75.5 -172t-224.5 -71l-20 -36l3 -2q20 5 44 5q39 0 65 -23.5t26 -63.5q0 -45 -33 -70.5t-88 -25.5z" />
    <glyph glyph-name="scedilla" unicode="&#x15f;" horiz-adv-x="569" 
d="M287 -232q-72 0 -119 43l45 44q34 -26 67 -26q40 0 40 31q0 32 -34 32q-17 0 -37 -10l-52 29l38 75q-168 18 -197 157l141 22q26 -71 106 -71q92 0 92 54q0 22 -14 34.5t-54 20.5l-83 16q-86 16 -127.5 55t-41.5 110q0 74 62.5 123t164.5 49q100 0 159 -41t75 -109
l-140 -23q-19 64 -95 64q-39 0 -59.5 -13.5t-20.5 -35.5q0 -23 16.5 -34.5t54.5 -19.5l94 -18q82 -16 119.5 -54t37.5 -104q0 -82 -59.5 -132t-175.5 -52l-20 -36l3 -2q20 5 44 5q39 0 65 -23.5t26 -63.5q0 -45 -33 -70.5t-88 -25.5z" />
    <glyph glyph-name="Scaron" unicode="&#x160;" horiz-adv-x="708" 
d="M518 954v-102l-160 -60l-160 60v104l161 -57zM351 -16q-132 0 -217 62.5t-102 153.5l159 25q17 -54 60 -83t104 -29q68 0 104.5 26t36.5 71q0 34 -25 57t-87 36l-110 24q-204 45 -205 217q0 98 76.5 162.5t207.5 64.5q125 0 199.5 -53t97.5 -143l-154 -27q-37 97 -144 97
q-62 0 -92.5 -24t-30.5 -59q0 -36 26 -58.5t87 -35.5l113 -24q207 -46 207 -217q0 -106 -78 -174.5t-233 -68.5z" />
    <glyph glyph-name="scaron" unicode="&#x161;" horiz-adv-x="569" 
d="M451 782v-108l-160 -73l-160 72v110l160 -69zM282 -16q-106 0 -167.5 41.5t-76.5 117.5l141 22q26 -71 106 -71q92 0 92 54q0 22 -14 34.5t-54 20.5l-83 16q-86 16 -127.5 55t-41.5 110q0 74 62.5 123t164.5 49q100 0 159 -41t75 -109l-140 -23q-19 64 -95 64
q-39 0 -59.5 -13.5t-20.5 -35.5q0 -23 16.5 -34.5t54.5 -19.5l94 -18q82 -16 119.5 -54t37.5 -104q0 -84 -62 -134t-181 -50z" />
    <glyph glyph-name="Tcommaaccent" unicode="&#x162;" horiz-adv-x="657" 
d="M260 -235l-12 50q68 13 77 45h-73v100h149v-48q0 -67 -29.5 -99t-111.5 -48zM29 621v134h599v-134h-220v-621h-159v621h-220z" />
    <glyph glyph-name="tcommaaccent" unicode="&#x163;" horiz-adv-x="415" 
d="M159 -235l-12 50q68 13 77 45h-73v100h149v-48q0 -67 -29.5 -99t-111.5 -48zM20 433v109h89l7 146h138v-146h115v-109h-112v-252q0 -40 17.5 -56.5t54.5 -16.5q11 0 26 1t17 1l7 -109q-2 0 -14.5 -2.5t-24.5 -4.5t-33 -4t-42 -2q-88 0 -125 44t-36 137l1 264h-85z" />
    <glyph glyph-name="Tcaron" unicode="&#x164;" horiz-adv-x="657" 
d="M490 954v-102l-160 -60l-160 60v104l161 -57zM29 621v134h599v-134h-220v-621h-159v621h-220z" />
    <glyph glyph-name="tcaron" unicode="&#x165;" horiz-adv-x="415" 
d="M331 572l25 206h136l-84 -206h-77zM20 433v109h89l7 146h138v-146h115v-109h-112v-252q0 -40 17.5 -56.5t54.5 -16.5q11 0 26 1t17 1l7 -109q-2 0 -14.5 -2.5t-24.5 -4.5t-33 -4t-42 -2q-88 0 -125 44t-36 137l1 264h-85z" />
    <glyph glyph-name="Tbar" unicode="&#x166;" horiz-adv-x="657" 
d="M544 353h-136v-353h-159v353h-136v101h136v167h-220v134h599v-134h-220v-167h136v-101z" />
    <glyph glyph-name="tbar" unicode="&#x167;" horiz-adv-x="416" 
d="M380 1q-2 0 -14.5 -2.5t-24.5 -4.5t-33 -4t-42 -2q-88 0 -125 44t-36 137v93h-85v99h86v72h-85v109h89l7 146h138v-146h115v-109h-112v-72h107v-99h-107v-81q0 -40 17.5 -56.5t54.5 -16.5q12 0 26 1t17 1z" />
    <glyph glyph-name="Utilde" unicode="&#x168;" horiz-adv-x="764" 
d="M384 -16q-307 0 -307 295v476h160v-477q0 -156 147 -156q146 0 146 156v477h157v-476q0 -137 -73 -216t-230 -79zM274 805h-86q1 71 33.5 109.5t89.5 38.5q33 0 82.5 -20.5t67.5 -20.5q20 0 32 11.5t12 32.5h88q-2 -70 -32 -109.5t-89 -39.5q-33 0 -85 21.5t-68 21.5
q-44 0 -45 -45z" />
    <glyph glyph-name="utilde" unicode="&#x169;" horiz-adv-x="641" 
d="M257 -13q-96 0 -142 57.5t-46 153.5v344h154v-317q0 -114 88 -114q51 0 76.5 34.5t25.5 96.5v300h154v-542h-145v93q-47 -106 -165 -106zM216 616h-86q1 71 33.5 109.5t89.5 38.5q33 0 82.5 -20.5t67.5 -20.5q44 0 44 44h88q-2 -70 -32 -109.5t-89 -39.5q-33 0 -85 21.5
t-68 21.5q-44 0 -45 -45z" />
    <glyph glyph-name="Umacron" unicode="&#x16a;" horiz-adv-x="764" 
d="M384 -16q-307 0 -307 295v476h160v-477q0 -156 147 -156q146 0 146 156v477h157v-476q0 -137 -73 -216t-230 -79zM206 811v105h353v-105h-353z" />
    <glyph glyph-name="umacron" unicode="&#x16b;" horiz-adv-x="641" 
d="M257 -13q-96 0 -142 57.5t-46 153.5v344h154v-317q0 -114 88 -114q51 0 76.5 34.5t25.5 96.5v300h154v-542h-145v93q-47 -106 -165 -106zM145 631v106h353v-106h-353z" />
    <glyph glyph-name="Ubreve" unicode="&#x16c;" horiz-adv-x="764" 
d="M384 -16q-307 0 -307 295v476h160v-477q0 -156 147 -156q146 0 146 156v477h157v-476q0 -137 -73 -216t-230 -79zM385 800q-70 0 -118.5 37t-58.5 108h93q19 -52 84 -52q62 0 85 52h88q-6 -67 -55 -106t-118 -39z" />
    <glyph glyph-name="ubreve" unicode="&#x16d;" horiz-adv-x="641" 
d="M257 -13q-96 0 -142 57.5t-46 153.5v344h154v-317q0 -114 88 -114q51 0 76.5 34.5t25.5 96.5v300h154v-542h-145v93q-47 -106 -165 -106zM323 606q-74 0 -122 41t-57 122h89q15 -66 91 -66q37 0 60.5 17.5t31.5 48.5h84q-6 -77 -55 -120t-122 -43z" />
    <glyph glyph-name="Uring" unicode="&#x16e;" horiz-adv-x="764" 
d="M384 -16q-307 0 -307 295v476h160v-477q0 -156 147 -156q146 0 146 156v477h157v-476q0 -137 -73 -216t-230 -79zM255 897q0 52 38 88t91 36t91 -36t38 -88t-38 -88.5t-91 -36.5t-91 36.5t-38 88.5zM321 897q0 -28 18.5 -47t44.5 -19q25 0 43 19t18 47q0 27 -18 45
t-43 18q-26 0 -44.5 -18t-18.5 -45z" />
    <glyph glyph-name="uring" unicode="&#x16f;" horiz-adv-x="641" 
d="M194 710q0 52 38 88t91 36t91 -36t38 -88t-38 -88t-91 -36t-91 36t-38 88zM260 710q0 -28 18.5 -46.5t44.5 -18.5q25 0 43 19t18 46t-18 45.5t-43 18.5q-26 0 -44.5 -18.5t-18.5 -45.5zM257 -13q-96 0 -142 57.5t-46 153.5v344h154v-317q0 -114 88 -114q51 0 76.5 34.5
t25.5 96.5v300h154v-542h-145v93q-47 -106 -165 -106z" />
    <glyph glyph-name="Uhungarumlaut" unicode="&#x170;" horiz-adv-x="764" 
d="M219 805l74 142h138l-97 -142h-115zM415 805l73 142h139l-98 -142h-114zM384 -16q-307 0 -307 295v476h160v-477q0 -156 147 -156q146 0 146 156v477h157v-476q0 -137 -73 -216t-230 -79z" />
    <glyph glyph-name="uhungarumlaut" unicode="&#x171;" horiz-adv-x="641" 
d="M257 -13q-96 0 -142 57.5t-46 153.5v344h154v-317q0 -114 88 -114q51 0 76.5 34.5t25.5 96.5v300h154v-542h-145v93q-47 -106 -165 -106zM162 610l85 168h139l-114 -168h-110zM359 610l85 168h139l-114 -168h-110z" />
    <glyph glyph-name="Uogonek" unicode="&#x172;" horiz-adv-x="764" 
d="M426 -232q-65 0 -100.5 27.5t-35.5 79.5q0 61 77 109q-290 8 -290 295v476h160v-477q0 -156 147 -156q146 0 146 156v477h157v-476q0 -249 -219 -288q-36 -27 -50.5 -46t-14.5 -39q0 -22 14 -34.5t39 -12.5q21 0 25 1v-90q-21 -2 -55 -2z" />
    <glyph glyph-name="uogonek" unicode="&#x173;" horiz-adv-x="641" 
d="M481 0h-59v93q-47 -106 -165 -106q-96 0 -142 57.5t-46 153.5v344h154v-317q0 -114 88 -114q51 0 76.5 34.5t25.5 96.5v300h154v-542q-44 -30 -61 -51t-17 -43t14 -34.5t39 -12.5q21 0 25 1v-90q-21 -2 -55 -2q-65 0 -100.5 27.5t-35.5 79.5q0 70 105 125z" />
    <glyph glyph-name="Wcircumflex" unicode="&#x174;" horiz-adv-x="1062" 
d="M377 797v105l160 60l160 -60v-107l-161 57zM665 0l-133 520l-132 -520h-197l-179 755h160l131 -577l148 577h149l147 -570l131 570h148l-178 -755h-195z" />
    <glyph glyph-name="wcircumflex" unicode="&#x175;" horiz-adv-x="866" 
d="M276 602v109l160 73l160 -73v-110l-160 69zM519 0l-68 259q-6 23 -10.5 50t-6.5 43l-2 16h-6q-7 -58 -20 -109l-69 -259h-181l-142 542h152l67 -277q6 -26 11.5 -58.5t7.5 -52.5l2 -20h5q9 73 25 131l75 277h148l75 -277q7 -26 14 -62.5t10 -59.5l3 -23h5q8 87 22 145
l66 277h146l-144 -542h-185z" />
    <glyph glyph-name="Ycircumflex" unicode="&#x176;" horiz-adv-x="687" 
d="M268 0v312l-256 443h170l170 -304l165 304h158l-247 -435v-320h-160zM193 797v105l160 60l160 -60v-107l-161 57z" />
    <glyph glyph-name="ycircumflex" unicode="&#x177;" horiz-adv-x="572" 
d="M134 -222l78 216l-202 548h161l99 -281q8 -23 13 -47t7 -37l1 -13h5q5 46 23 99l94 279h150l-280 -764h-149zM143 602v109l160 73l160 -73v-110l-160 69z" />
    <glyph glyph-name="Ydieresis" unicode="&#x178;" horiz-adv-x="687" 
d="M268 0v312l-256 443h170l170 -304l165 304h158l-247 -435v-320h-160zM398 811v140h140v-140h-140zM168 811v140h140v-140h-140z" />
    <glyph glyph-name="Zacute" unicode="&#x179;" horiz-adv-x="680" 
d="M275 805l89 142h167l-134 -142h-122zM45 0v104l386 518h-366v133h562v-107l-386 -515h391v-133h-587z" />
    <glyph glyph-name="zacute" unicode="&#x17a;" horiz-adv-x="542" 
d="M215 611l97 167h161l-140 -167h-118zM54 421v121h439v-102l-267 -318h273v-122h-453v103l268 318h-260z" />
    <glyph glyph-name="Zdotaccent" unicode="&#x17b;" horiz-adv-x="680" 
d="M45 0v104l386 518h-366v133h562v-107l-386 -515h391v-133h-587zM271 813v140h139v-140h-139z" />
    <glyph glyph-name="zdotaccent" unicode="&#x17c;" horiz-adv-x="542" 
d="M54 421v121h439v-102l-267 -318h273v-122h-453v103l268 318h-260zM212 631v141h139v-141h-139z" />
    <glyph glyph-name="Zcaron" unicode="&#x17d;" horiz-adv-x="680" 
d="M500 954v-102l-160 -60l-160 60v104l161 -57zM45 0v104l386 518h-366v133h562v-107l-386 -515h391v-133h-587z" />
    <glyph glyph-name="zcaron" unicode="&#x17e;" horiz-adv-x="542" 
d="M441 782v-108l-160 -73l-160 72v110l160 -69zM54 421v121h439v-102l-267 -318h273v-122h-453v103l268 318h-260z" />
    <glyph glyph-name="florin" unicode="&#x192;" horiz-adv-x="453" 
d="M400 433h-121l-60 -596h-141l59 596h-86v109h97l4 41q11 102 60.5 152.5t144.5 50.5q14 0 31 -2t27 -4l10 -3l-10 -124q-30 5 -44 5q-36 0 -54 -19t-23 -60l-4 -37h110v-109z" />
    <glyph glyph-name="AEacute" unicode="&#x1fc;" horiz-adv-x="989" 
d="M512 805l89 142h167l-134 -142h-122zM357 452l-61 -151h164v318h-46q-16 -66 -57 -167zM460 0v175h-216l-71 -175h-158l314 755h596v-136h-309v-176h264v-128h-264v-179h325v-136h-481z" />
    <glyph glyph-name="aeacute" unicode="&#x1fd;" horiz-adv-x="951" 
d="M428 611l97 167h161l-140 -167h-118zM42 151q0 174 270 174h82v23q0 45 -21.5 68t-71.5 23q-80 0 -96 -67l-143 30q14 62 75 108.5t168 46.5q120 0 176 -73q65 72 180 72q129 0 194.5 -86.5t63.5 -240.5h-383q1 -56 36 -91.5t90 -35.5q73 0 116 64l125 -40
q-28 -64 -90.5 -102.5t-154.5 -38.5q-148 0 -215 105q-69 -105 -211 -105q-81 0 -135.5 47t-54.5 119zM652 446q-50 0 -80.5 -32.5t-35.5 -84.5h228q-3 54 -32.5 85.5t-79.5 31.5zM270 92q57 0 91.5 38t34.5 95v7q-34 1 -57 1q-144 0 -144 -72q0 -31 21 -50t54 -19z" />
    <glyph glyph-name="Oslashacute" unicode="&#x1fe;" horiz-adv-x="815" 
d="M216 377q0 -97 29 -160l283 380q-47 43 -121 43q-87 0 -139 -68t-52 -195zM407 115q88 0 140 67t52 195q0 99 -29 160l-282 -380q46 -42 119 -42zM407 -16q-118 0 -204 60l-75 -101l-55 43l77 103q-101 109 -101 288q0 180 97 286t262 107q118 0 205 -59l73 98l56 -41
l-77 -103q101 -107 101 -288q0 -180 -97 -286.5t-262 -106.5zM341 805l89 142h167l-134 -142h-122z" />
    <glyph glyph-name="oslashacute" unicode="&#x1ff;" horiz-adv-x="636" 
d="M195 270q0 -58 17 -100l171 255q-29 19 -65 19q-61 0 -92 -46.5t-31 -127.5zM318 97q61 0 91.5 47t30.5 127q0 58 -16 97l-169 -253q25 -18 63 -18zM315 -15q-72 0 -128 28l-59 -88l-55 37l59 87q-90 79 -90 222q0 126 74 205.5t205 79.5q74 0 130 -29l54 81l57 -34
l-56 -84q89 -80 89 -219q0 -126 -74.5 -206t-205.5 -80zM255 611l97 167h161l-140 -167h-118z" />
    <glyph glyph-name="Scommaaccent" unicode="&#x218;" horiz-adv-x="708" 
d="M292 -235l-12 50q68 13 77 45h-73v100h149v-48q0 -67 -29.5 -99t-111.5 -48zM351 -16q-132 0 -217 62.5t-102 153.5l159 25q17 -54 60 -83t104 -29q68 0 104.5 26t36.5 71q0 34 -25 57t-87 36l-110 24q-204 45 -205 217q0 98 76.5 162.5t207.5 64.5q125 0 199.5 -53
t97.5 -143l-154 -27q-37 97 -144 97q-62 0 -92.5 -24t-30.5 -59q0 -36 26 -58.5t87 -35.5l113 -24q207 -46 207 -217q0 -106 -78 -174.5t-233 -68.5z" />
    <glyph glyph-name="scommaaccent" unicode="&#x219;" horiz-adv-x="569" 
d="M220 -235l-12 50q68 13 77 45h-73v100h149v-48q0 -67 -29.5 -99t-111.5 -48zM282 -16q-106 0 -167.5 41.5t-76.5 117.5l141 22q26 -71 106 -71q92 0 92 54q0 22 -14 34.5t-54 20.5l-83 16q-86 16 -127.5 55t-41.5 110q0 74 62.5 123t164.5 49q100 0 159 -41t75 -109
l-140 -23q-19 64 -95 64q-39 0 -59.5 -13.5t-20.5 -35.5q0 -23 16.5 -34.5t54.5 -19.5l94 -18q82 -16 119.5 -54t37.5 -104q0 -84 -62 -134t-181 -50z" />
    <glyph glyph-name="uni021A" unicode="&#x21a;" horiz-adv-x="657" 
d="M260 -235l-12 50q68 13 77 45h-73v100h149v-48q0 -67 -29.5 -99t-111.5 -48zM29 621v134h599v-134h-220v-621h-159v621h-220z" />
    <glyph glyph-name="uni021B" unicode="&#x21b;" horiz-adv-x="415" 
d="M159 -235l-12 50q68 13 77 45h-73v100h149v-48q0 -67 -29.5 -99t-111.5 -48zM20 433v109h89l7 146h138v-146h115v-109h-112v-252q0 -40 17.5 -56.5t54.5 -16.5q11 0 26 1t17 1l7 -109q-2 0 -14.5 -2.5t-24.5 -4.5t-33 -4t-42 -2q-88 0 -125 44t-36 137l1 264h-85z" />
    <glyph glyph-name="uni0237" unicode="&#x237;" horiz-adv-x="301" 
d="M31 -229q-39 0 -75 9l10 121q32 -5 40 -5q68 0 68 76v570h154v-565q0 -98 -50.5 -152t-146.5 -54z" />
    <glyph glyph-name="circumflex" unicode="&#x2c6;" horiz-adv-x="494" 
d="M87 602v109l160 73l160 -73v-110l-160 69z" />
    <glyph glyph-name="caron" unicode="&#x2c7;" horiz-adv-x="494" 
d="M407 782v-108l-160 -73l-160 72v110l160 -69z" />
    <glyph glyph-name="breve" unicode="&#x2d8;" horiz-adv-x="500" 
d="M248 606q-74 0 -122 41t-57 122h89q15 -66 91 -66q75 0 92 66h84q-6 -77 -55 -120t-122 -43z" />
    <glyph glyph-name="dotaccent" unicode="&#x2d9;" horiz-adv-x="501" 
d="M181 631v141h139v-141h-139z" />
    <glyph glyph-name="ring" unicode="&#x2da;" horiz-adv-x="500" 
d="M121 724q0 52 38 88t91 36t91 -36t38 -88t-38 -88t-91 -36t-91 36t-38 88zM187 724q0 -28 18.5 -46.5t44.5 -18.5q25 0 43 19t18 46t-18 45.5t-43 18.5q-26 0 -44.5 -18.5t-18.5 -45.5z" />
    <glyph glyph-name="ogonek" unicode="&#x2db;" horiz-adv-x="500" 
d="M310 -140v-90q-21 -2 -55 -2q-65 0 -100.5 27.5t-35.5 79.5q0 70 105 125h86q-44 -30 -61 -51t-17 -43t14 -34.5t39 -12.5q21 0 25 1z" />
    <glyph glyph-name="tilde" unicode="&#x2dc;" horiz-adv-x="500" 
d="M139 616h-86q1 71 33.5 109.5t89.5 38.5q33 0 82.5 -20.5t67.5 -20.5q44 0 44 44h88q-2 -70 -32 -109.5t-89 -39.5q-33 0 -85 21.5t-68 21.5q-44 0 -45 -45z" />
    <glyph glyph-name="hungarumlaut" unicode="&#x2dd;" horiz-adv-x="500" 
d="M47 610l85 168h139l-114 -168h-110zM244 610l85 168h139l-114 -168h-110z" />
    <glyph glyph-name="Wgrave" unicode="&#x1e80;" horiz-adv-x="1062" 
d="M513 947l89 -142h-122l-134 142h167zM665 0l-133 520l-132 -520h-197l-179 755h160l131 -577l148 577h149l147 -570l131 570h148l-178 -755h-195z" />
    <glyph glyph-name="wgrave" unicode="&#x1e81;" horiz-adv-x="866" 
d="M519 0l-68 259q-6 23 -10.5 50t-6.5 43l-2 16h-6q-7 -58 -20 -109l-69 -259h-181l-142 542h152l67 -277q6 -26 11.5 -58.5t7.5 -52.5l2 -20h5q9 73 25 131l75 277h148l75 -277q7 -26 14 -62.5t10 -59.5l3 -23h5q8 87 22 145l66 277h146l-144 -542h-185zM411 778l91 -167
h-118l-135 167h162z" />
    <glyph glyph-name="Wacute" unicode="&#x1e82;" horiz-adv-x="1062" 
d="M473 805l89 142h167l-134 -142h-122zM665 0l-133 520l-132 -520h-197l-179 755h160l131 -577l148 577h149l147 -570l131 570h148l-178 -755h-195z" />
    <glyph glyph-name="wacute" unicode="&#x1e83;" horiz-adv-x="866" 
d="M373 611l97 167h161l-140 -167h-118zM519 0l-68 259q-6 23 -10.5 50t-6.5 43l-2 16h-6q-7 -58 -20 -109l-69 -259h-181l-142 542h152l67 -277q6 -26 11.5 -58.5t7.5 -52.5l2 -20h5q9 73 25 131l75 277h148l75 -277q7 -26 14 -62.5t10 -59.5l3 -23h5q8 87 22 145l66 277
h146l-144 -542h-185z" />
    <glyph glyph-name="Wdieresis" unicode="&#x1e84;" horiz-adv-x="1062" 
d="M583 811v140h140v-140h-140zM353 811v140h140v-140h-140zM665 0l-133 520l-132 -520h-197l-179 755h160l131 -577l148 577h149l147 -570l131 570h148l-178 -755h-195z" />
    <glyph glyph-name="wdieresis" unicode="&#x1e85;" horiz-adv-x="866" 
d="M480 631v141h139v-141h-139zM253 631v141h139v-141h-139zM519 0l-68 259q-6 23 -10.5 50t-6.5 43l-2 16h-6q-7 -58 -20 -109l-69 -259h-181l-142 542h152l67 -277q6 -26 11.5 -58.5t7.5 -52.5l2 -20h5q9 73 25 131l75 277h148l75 -277q7 -26 14 -62.5t10 -59.5l3 -23h5
q8 87 22 145l66 277h146l-144 -542h-185z" />
    <glyph glyph-name="Ygrave" unicode="&#x1ef2;" horiz-adv-x="687" 
d="M268 0v312l-256 443h170l170 -304l165 304h158l-247 -435v-320h-160zM329 947l89 -142h-122l-134 142h167z" />
    <glyph glyph-name="ygrave" unicode="&#x1ef3;" horiz-adv-x="572" 
d="M134 -222l78 216l-202 548h161l99 -281q8 -23 13 -47t7 -37l1 -13h5q5 46 23 99l94 279h150l-280 -764h-149zM278 778l91 -167h-118l-135 167h162z" />
    <glyph glyph-name="uni2004" unicode="&#x2004;" horiz-adv-x="333" 
 />
    <glyph glyph-name="uni2007" unicode="&#x2007;" horiz-adv-x="400" 
 />
    <glyph glyph-name="uni2009" unicode="&#x2009;" horiz-adv-x="160" 
 />
    <glyph glyph-name="uni200A" unicode="&#x200a;" horiz-adv-x="80" 
 />
    <glyph glyph-name="uni200B" unicode="&#x200b;" horiz-adv-x="0" 
 />
    <glyph glyph-name="uni2012" unicode="&#x2012;" horiz-adv-x="610" 
d="M710 423v-130h-810v130h810z" />
    <glyph glyph-name="endash" unicode="&#x2013;" horiz-adv-x="530" 
d="M30 246v107h470v-107h-470z" />
    <glyph glyph-name="emdash" unicode="&#x2014;" horiz-adv-x="930" 
d="M30 246v107h870v-107h-870z" />
    <glyph glyph-name="quoteleft" unicode="&#x2018;" horiz-adv-x="254" 
d="M199 788l21 -59q-87 -38 -87 -106h77v-162h-167v123q0 152 156 204z" />
    <glyph glyph-name="quoteright" unicode="&#x2019;" horiz-adv-x="254" 
d="M54 427l-20 60q87 37 87 105h-77v163h166v-124q0 -73 -35.5 -124t-120.5 -80z" />
    <glyph glyph-name="quotesinglbase" unicode="&#x201a;" horiz-adv-x="254" 
d="M54 -165l-20 59q87 38 87 106h-77v163h166v-124q0 -152 -156 -204z" />
    <glyph glyph-name="quotedblleft" unicode="&#x201c;" horiz-adv-x="490" 
d="M199 788l21 -59q-87 -38 -87 -106h77v-162h-167v123q0 152 156 204zM436 788l21 -59q-87 -38 -87 -106h77v-162h-167v123q0 152 156 204z" />
    <glyph glyph-name="quotedblright" unicode="&#x201d;" horiz-adv-x="490" 
d="M54 427l-20 60q87 37 87 105h-77v163h166v-124q0 -73 -35.5 -124t-120.5 -80zM291 427l-20 60q87 37 87 105h-77v163h166v-124q0 -73 -35.5 -124t-120.5 -80z" />
    <glyph glyph-name="quotedblbase" unicode="&#x201e;" horiz-adv-x="490" 
d="M54 -165l-20 59q87 38 87 106h-77v163h166v-124q0 -152 -156 -204zM291 -165l-20 59q87 38 87 106h-77v163h166v-124q0 -152 -156 -204z" />
    <glyph glyph-name="dagger" unicode="&#x2020;" horiz-adv-x="325" 
d="M22 569v71h102v115h78v-115h102v-71h-102v-246h-78v246h-102z" />
    <glyph glyph-name="daggerdbl" unicode="&#x2021;" horiz-adv-x="325" 
d="M202 755v-104h102v-71h-103v-86h103v-71h-102v-100h-78v100h-102v71h103v86h-103v71h102v104h78z" />
    <glyph glyph-name="bullet" unicode="&#x2022;" horiz-adv-x="390" 
d="M61 295q0 55 39.5 94.5t94.5 39.5t94 -39t39 -95t-39 -95.5t-94 -39.5t-94.5 39.5t-39.5 95.5z" />
    <glyph glyph-name="ellipsis" unicode="&#x2026;" horiz-adv-x="880" 
d="M650 0v163h166v-163h-166zM357 0v163h166v-163h-166zM63 0v163h167v-163h-167z" />
    <glyph glyph-name="perthousand" unicode="&#x2030;" horiz-adv-x="1192" 
d="M35 582q0 88 47 138t120 50q76 0 118.5 -47.5t42.5 -140.5q0 -90 -45.5 -139t-119.5 -49q-77 0 -120 48.5t-43 139.5zM98 -14l510 784h102l-509 -784h-103zM198 693q-59 0 -59 -111q0 -110 60 -110q58 0 58 110q0 111 -59 111zM828 174q0 88 47 138t120 50
q76 0 118.5 -47.5t42.5 -140.5q0 -90 -45.5 -139t-119.5 -49q-77 0 -120 48.5t-43 139.5zM448 174q0 88 47 138t120 50q76 0 118.5 -47.5t42.5 -140.5q0 -90 -45.5 -139t-119.5 -49q-77 0 -120 48.5t-43 139.5zM991 285q-58 0 -58 -111t59 -111q58 0 58 111t-59 111z
M611 285q-59 0 -59 -111t60 -111q58 0 58 111t-59 111z" />
    <glyph glyph-name="uni2032" unicode="&#x2032;" horiz-adv-x="292" 
d="M50 426l50 329h144l-118 -329h-76z" />
    <glyph glyph-name="uni2033" unicode="&#x2033;" horiz-adv-x="503" 
d="M272 426l50 329h144l-118 -329h-76zM42 426l50 329h144l-118 -329h-76z" />
    <glyph glyph-name="guilsinglleft" unicode="&#x2039;" horiz-adv-x="336" 
d="M158 468h125l-110 -206l110 -209h-127l-117 208z" />
    <glyph glyph-name="guilsinglright" unicode="&#x203a;" horiz-adv-x="336" 
d="M179 53h-126l110 206l-110 209h128l116 -208z" />
    <glyph glyph-name="fraction" unicode="&#x2044;" horiz-adv-x="140" 
d="M-231 -14l509 784h101l-509 -784h-101z" />
    <glyph glyph-name="zero.sup" unicode="&#x2070;" horiz-adv-x="461" 
d="M46 609q0 108 48.5 163.5t136.5 55.5t136 -55t48 -164t-48 -164.5t-137 -55.5t-136.5 55t-47.5 165zM230 746q-36 0 -53 -31t-17 -106t17 -106t53 -31q37 0 54 30.5t17 106.5q0 75 -17 106t-54 31z" />
    <glyph glyph-name="four.sup" unicode="&#x2074;" horiz-adv-x="434" 
d="M344 399h-100v79h-212v70l176 272h136v-256h57v-86h-57v-79zM131 564h115v182h-10q-18 -44 -52 -96z" />
    <glyph glyph-name="five.sup" unicode="&#x2075;" horiz-adv-x="421" 
d="M211 391q-75 0 -118.5 34t-52.5 90l102 9q10 -56 67 -56q32 0 49.5 17.5t17.5 48.5q0 30 -18 47t-48 17q-38 0 -59 -27l-96 24l33 225h268v-87h-197l-12 -86h3q38 27 88 27q60 0 100 -36t40 -100q0 -67 -46 -107t-121 -40z" />
    <glyph glyph-name="six.sup" unicode="&#x2076;" horiz-adv-x="436" 
d="M390 722l-101 -16q-10 42 -56 42q-35 0 -54.5 -27t-23.5 -90h2q38 41 100 41q58 0 98 -34t40 -100q0 -63 -45 -105.5t-124 -42.5q-85 0 -132.5 50.5t-47.5 150.5q0 115 49 176t140 61q60 0 101.5 -29.5t53.5 -76.5zM293 534q0 31 -18 49t-49 18t-48 -18t-17 -49
t17.5 -48.5t48.5 -17.5q30 0 48 18t18 48z" />
    <glyph glyph-name="seven.sup" unicode="&#x2077;" horiz-adv-x="383" 
d="M66 399l168 333h-200v88h315v-70l-169 -351h-114z" />
    <glyph glyph-name="eight.sup" unicode="&#x2078;" horiz-adv-x="436" 
d="M218 832q71 0 115.5 -33t44.5 -86q0 -64 -61 -94v-1q74 -23 74 -100q0 -59 -48.5 -95t-126.5 -36t-125 35.5t-47 94.5q0 78 75 101v1q-61 29 -61 93q0 53 44 86.5t116 33.5zM158 704q0 -25 16 -39t44 -14t44 14t16 39q0 24 -16 37.5t-44 13.5q-60 0 -60 -51zM286 524
q0 27 -18 43.5t-50 16.5q-33 0 -50.5 -16.5t-17.5 -43.5t17.5 -43t50.5 -16q32 0 50 16t18 43z" />
    <glyph glyph-name="nine.sup" unicode="&#x2079;" horiz-adv-x="441" 
d="M149 683q0 -30 17 -48t48 -18t48 18t17 48t-17 48.5t-48 18.5t-48 -19t-17 -48zM42 499l96 18q18 -50 69 -50q73 0 78 114h-3q-33 -35 -92 -35q-60 0 -101.5 36.5t-41.5 100.5q0 61 45.5 103t121.5 42q86 0 133.5 -54t47.5 -152q0 -111 -48.5 -171.5t-139.5 -60.5
q-64 0 -108.5 28.5t-56.5 80.5z" />
    <glyph glyph-name="plus.sup" unicode="&#x207a;" horiz-adv-x="409" 
d="M58 553v84h101v100h91v-100h101v-84h-101v-104h-91v104h-101z" />
    <glyph glyph-name="minus.sup" unicode="&#x207b;" horiz-adv-x="409" 
d="M58 553v85h293v-85h-293z" />
    <glyph glyph-name="zero.sub" unicode="&#x2080;" horiz-adv-x="461" 
d="M46 130q0 108 48.5 163.5t136.5 55.5t136 -55t48 -164t-48 -164.5t-137 -55.5t-136.5 55t-47.5 165zM230 267q-36 0 -53 -31t-17 -106t17 -106t53 -31q37 0 54 30.5t17 106.5q0 75 -17 106t-54 31z" />
    <glyph glyph-name="one.sub" unicode="&#x2081;" horiz-adv-x="331" 
d="M259 -80h-105v304l-93 -51l-37 74l159 95h76v-422z" />
    <glyph glyph-name="two.sub" unicode="&#x2082;" horiz-adv-x="419" 
d="M146 193l-99 7q2 61 46.5 105t120.5 44q74 0 114.5 -34t40.5 -90q0 -52 -31 -88t-143 -125v-4h179v-88h-329v73q169 142 191 164q30 32 30 60q0 23 -14.5 36.5t-39.5 13.5q-63 0 -66 -74z" />
    <glyph glyph-name="three.sub" unicode="&#x2083;" horiz-adv-x="422" 
d="M211 -9q31 0 49 15t18 40q0 50 -65 50h-47v77h45q26 0 42 12t16 36t-16 36.5t-41 12.5q-59 0 -70 -62l-95 10q7 56 51.5 93.5t116.5 37.5q73 0 114 -31.5t41 -79.5q0 -73 -74 -95v-1q41 -9 63.5 -35.5t22.5 -65.5q0 -55 -48.5 -92.5t-122.5 -37.5q-82 0 -126.5 39
t-50.5 100l102 7q4 -32 25 -49t50 -17z" />
    <glyph glyph-name="four.sub" unicode="&#x2084;" horiz-adv-x="434" 
d="M344 -80h-100v79h-212v70l176 272h136v-256h57v-86h-57v-79zM131 85h115v182h-10q-18 -44 -52 -96z" />
    <glyph glyph-name="five.sub" unicode="&#x2085;" horiz-adv-x="421" 
d="M211 -88q-75 0 -118.5 34t-52.5 90l102 9q10 -56 67 -56q32 0 49.5 17.5t17.5 48.5q0 30 -18 47t-48 17q-38 0 -59 -27l-96 24l33 225h268v-87h-197l-12 -86h3q38 27 88 27q60 0 100 -36t40 -100q0 -67 -46 -107t-121 -40z" />
    <glyph glyph-name="six.sub" unicode="&#x2086;" horiz-adv-x="436" 
d="M390 243l-101 -16q-10 42 -56 42q-35 0 -54.5 -27t-23.5 -90h2q38 41 100 41q58 0 98 -34t40 -100q0 -63 -45 -105.5t-124 -42.5q-85 0 -132.5 50.5t-47.5 150.5q0 115 49 176t140 61q60 0 101.5 -29.5t53.5 -76.5zM293 55q0 31 -18 49t-49 18t-48 -18t-17 -49
t17.5 -48.5t48.5 -17.5q30 0 48 18t18 48z" />
    <glyph glyph-name="seven.sub" unicode="&#x2087;" horiz-adv-x="383" 
d="M66 -80l168 333h-200v88h315v-70l-169 -351h-114z" />
    <glyph glyph-name="eight.sub" unicode="&#x2088;" horiz-adv-x="436" 
d="M218 353q71 0 115.5 -33t44.5 -86q0 -64 -61 -94v-1q74 -23 74 -100q0 -59 -48.5 -95t-126.5 -36t-125 35.5t-47 94.5q0 78 75 101v1q-61 29 -61 93q0 53 44 86.5t116 33.5zM158 225q0 -25 16 -39t44 -14t44 14t16 39q0 24 -16 37.5t-44 13.5q-60 0 -60 -51zM286 45
q0 27 -18 43.5t-50 16.5q-33 0 -50.5 -16.5t-17.5 -43.5t17.5 -43t50.5 -16q32 0 50 16t18 43z" />
    <glyph glyph-name="nine.sub" unicode="&#x2089;" horiz-adv-x="441" 
d="M149 204q0 -30 17 -48t48 -18t48 18t17 48t-17 48.5t-48 18.5t-48 -19t-17 -48zM42 20l96 18q18 -50 69 -50q73 0 78 114h-3q-33 -35 -92 -35q-60 0 -101.5 36.5t-41.5 100.5q0 61 45.5 103t121.5 42q86 0 133.5 -54t47.5 -152q0 -111 -48.5 -171.5t-139.5 -60.5
q-64 0 -108.5 28.5t-56.5 80.5z" />
    <glyph glyph-name="plus.sub" unicode="&#x208a;" horiz-adv-x="409" 
d="M58 74v84h101v100h91v-100h101v-84h-101v-104h-91v104h-101z" />
    <glyph glyph-name="minus.sub" unicode="&#x208b;" horiz-adv-x="409" 
d="M58 74v85h293v-85h-293z" />
    <glyph glyph-name="Euro" unicode="&#x20ac;" horiz-adv-x="719" 
d="M684 190q-49 -206 -273 -206q-118 0 -191.5 66.5t-96.5 192.5h-90v92h80q-1 12 -1 36q0 30 1 45h-80v92h92q27 124 102.5 192t188.5 68q111 0 177 -52t88 -146l-143 -35q-17 53 -46 81.5t-79 28.5q-54 0 -88 -31.5t-48 -105.5h195v-92h-204q-1 -11 -1 -35q0 -32 1 -46
h204v-92h-193q29 -136 138 -136q96 0 129 111z" />
    <glyph glyph-name="uni20B9" unicode="&#x20b9;" horiz-adv-x="651" 
d="M316 233l191 -233h-183l-169 205h-70v104h83q125 0 148 116h-231v104h231q-11 59 -50.5 90.5t-100.5 31.5h-80v104h503v-105h-183v-1q55 -50 69 -120h114v-104h-113q-22 -131 -159 -190v-2z" />
    <glyph glyph-name="uni20BA" unicode="&#x20ba;" horiz-adv-x="687" 
d="M294 0h-159v255l-85 -28v97l85 29v79l-85 -28v97l85 28v226h157v-173l182 61v-97l-182 -61v-79l182 61v-98l-182 -61v-172h11q93 0 143 37.5t69 126.5l138 -28q-32 -134 -118.5 -203t-240.5 -69z" />
    <glyph glyph-name="trademark" unicode="&#x2122;" horiz-adv-x="645" 
d="M98 456v238h-81v61h232v-61h-81v-238h-70zM283 456v299h95l50 -140q6 -17 10 -31t4 -20l1 -5h3q1 17 14 55l49 141h93v-299h-66v209h-3q-3 -24 -15 -61l-48 -148h-56l-51 149l-15 60h-3v-209h-62z" />
    <glyph glyph-name="onethird" unicode="&#x2153;" horiz-adv-x="959" 
d="M749 71q31 0 49 15t18 40q0 50 -65 50h-47v77h45q26 0 42 12t16 36t-16 36.5t-41 12.5q-59 0 -70 -62l-95 10q7 56 51.5 93.5t116.5 37.5q73 0 114 -31.5t41 -79.5q0 -73 -74 -95v-1q41 -9 63.5 -35.5t22.5 -65.5q0 -55 -48.5 -92.5t-122.5 -37.5q-82 0 -126.5 39
t-50.5 100l102 7q4 -32 25 -49t50 -17zM259 334h-105v304l-93 -51l-37 74l159 95h76v-422zM147 -14l509 784h101l-509 -784h-101z" />
    <glyph glyph-name="twothirds" unicode="&#x2154;" horiz-adv-x="1075" 
d="M864 71q31 0 49 15t18 40q0 50 -65 50h-47v77h45q26 0 42 12t16 36t-16 36.5t-41 12.5q-59 0 -70 -62l-95 10q7 56 51.5 93.5t116.5 37.5q73 0 114 -31.5t41 -79.5q0 -73 -74 -95v-1q41 -9 63.5 -35.5t22.5 -65.5q0 -55 -48.5 -92.5t-122.5 -37.5q-82 0 -126.5 39
t-50.5 100l102 7q4 -32 25 -49t50 -17zM146 607l-99 7q2 61 46.5 105t120.5 44q74 0 114.5 -34t40.5 -90q0 -52 -31 -88t-143 -125v-4h179v-88h-329v73q169 142 191 164q30 32 30 60q0 23 -14.5 36.5t-39.5 13.5q-63 0 -66 -74zM261 -14l509 784h101l-509 -784h-101z" />
    <glyph glyph-name="oneeighth" unicode="&#x215b;" horiz-adv-x="975" 
d="M758 433q71 0 115.5 -33t44.5 -86q0 -64 -61 -94v-1q74 -23 74 -100q0 -59 -48.5 -95t-126.5 -36t-125 35.5t-47 94.5q0 78 75 101v1q-61 29 -61 93q0 53 44 86.5t116 33.5zM698 305q0 -25 16 -39t44 -14t44 14t16 39q0 24 -16 37.5t-44 13.5q-60 0 -60 -51zM826 125
q0 27 -18 43.5t-50 16.5q-33 0 -50.5 -16.5t-17.5 -43.5t17.5 -43t50.5 -16q32 0 50 16t18 43zM259 334h-105v304l-93 -51l-37 74l159 95h76v-422zM147 -14l509 784h101l-509 -784h-101z" />
    <glyph glyph-name="threeeighths" unicode="&#x215c;" horiz-adv-x="1039" 
d="M822 433q71 0 115.5 -33t44.5 -86q0 -64 -61 -94v-1q74 -23 74 -100q0 -59 -48.5 -95t-126.5 -36t-125 35.5t-47 94.5q0 78 75 101v1q-61 29 -61 93q0 53 44 86.5t116 33.5zM762 305q0 -25 16 -39t44 -14t44 14t16 39q0 24 -16 37.5t-44 13.5q-60 0 -60 -51zM890 125
q0 27 -18 43.5t-50 16.5q-33 0 -50.5 -16.5t-17.5 -43.5t17.5 -43t50.5 -16q32 0 50 16t18 43zM210 -14l509 784h101l-509 -784h-101zM211 405q31 0 49 15t18 40q0 50 -65 50h-47v77h45q26 0 42 12t16 36t-16 36.5t-41 12.5q-59 0 -70 -62l-95 10q7 56 51.5 93.5t116.5 37.5
q73 0 114 -31.5t41 -79.5q0 -73 -74 -95v-1q41 -9 63.5 -35.5t22.5 -65.5q0 -55 -48.5 -92.5t-122.5 -37.5q-82 0 -126.5 39t-50.5 100l102 7q4 -32 25 -49t50 -17z" />
    <glyph glyph-name="fiveeighths" unicode="&#x215d;" horiz-adv-x="1036" 
d="M818 433q71 0 115.5 -33t44.5 -86q0 -64 -61 -94v-1q74 -23 74 -100q0 -59 -48.5 -95t-126.5 -36t-125 35.5t-47 94.5q0 78 75 101v1q-61 29 -61 93q0 53 44 86.5t116 33.5zM758 305q0 -25 16 -39t44 -14t44 14t16 39q0 24 -16 37.5t-44 13.5q-60 0 -60 -51zM886 125
q0 27 -18 43.5t-50 16.5q-33 0 -50.5 -16.5t-17.5 -43.5t17.5 -43t50.5 -16q32 0 50 16t18 43zM211 326q-75 0 -118.5 34t-52.5 90l102 9q10 -56 67 -56q32 0 49.5 17.5t17.5 48.5q0 30 -18 47t-48 17q-38 0 -59 -27l-96 24l33 225h268v-87h-197l-12 -86h3q38 27 88 27
q60 0 100 -36t40 -100q0 -67 -46 -107t-121 -40zM207 -14l509 784h101l-509 -784h-101z" />
    <glyph glyph-name="seveneighths" unicode="&#x215e;" horiz-adv-x="937" 
d="M719 433q71 0 115.5 -33t44.5 -86q0 -64 -61 -94v-1q74 -23 74 -100q0 -59 -48.5 -95t-126.5 -36t-125 35.5t-47 94.5q0 78 75 101v1q-61 29 -61 93q0 53 44 86.5t116 33.5zM659 305q0 -25 16 -39t44 -14t44 14t16 39q0 24 -16 37.5t-44 13.5q-60 0 -60 -51zM787 125
q0 27 -18 43.5t-50 16.5q-33 0 -50.5 -16.5t-17.5 -43.5t17.5 -43t50.5 -16q32 0 50 16t18 43zM66 334l168 333h-200v88h315v-70l-169 -351h-114zM107 -14l509 784h101l-509 -784h-101z" />
    <glyph glyph-name="uni2190" unicode="&#x2190;" horiz-adv-x="950" 
d="M395 21l-336 335v4l336 335l84 -87l-192 -185h565v-130h-565l192 -185z" />
    <glyph glyph-name="arrowup" unicode="&#x2191;" horiz-adv-x="950" 
d="M168 470l335 336h4l335 -336l-87 -84l-185 192v-565h-130v565l-185 -192z" />
    <glyph glyph-name="uni2192" unicode="&#x2192;" horiz-adv-x="950" 
d="M911 356l-336 -335l-84 87l192 185h-565v130h565l-192 185l84 87l336 -335v-4z" />
    <glyph glyph-name="arrowdown" unicode="&#x2193;" horiz-adv-x="950" 
d="M488 -28l-335 336l87 84l185 -192v565h130v-565l185 192l87 -84l-335 -336h-4z" />
    <glyph glyph-name="uni2196" unicode="&#x2196;" horiz-adv-x="950" 
d="M197 188l-1 474l3 3l475 -1l-2 -121l-267 5l400 -399l-92 -92l-400 399l5 -266z" />
    <glyph glyph-name="uni2197" unicode="&#x2197;" horiz-adv-x="950" 
d="M307 665l474 1l3 -3l-1 -475l-121 2l5 267l-399 -400l-92 92l399 400l-266 -5z" />
    <glyph glyph-name="uni2198" unicode="&#x2198;" horiz-adv-x="950" 
d="M773 528l1 -474l-3 -3l-475 1l2 121l267 -5l-400 399l92 92l400 -399l-5 266z" />
    <glyph glyph-name="uni2199" unicode="&#x2199;" horiz-adv-x="950" 
d="M673 52l-474 -1l-3 3l1 475l121 -2l-5 -267l399 400l92 -92l-399 -400l266 5z" />
    <glyph glyph-name="minus" unicode="&#x2212;" horiz-adv-x="600" 
d="M65 267v119h470v-119h-470z" />
    <glyph glyph-name="infinity" unicode="&#x221e;" horiz-adv-x="875" 
d="M618 110q-69 0 -115 28.5t-77 93.5h-2q-54 -122 -176 -122q-95 0 -145.5 60.5t-50.5 154.5q0 96 54.5 156t150.5 60q135 0 192 -120h2q52 120 176 120q95 0 145.5 -59.5t50.5 -156.5q0 -95 -54 -155t-151 -60zM614 210q46 0 69.5 32t23.5 83q0 52 -24 87t-73 35
q-42 0 -70.5 -27t-52.5 -76q35 -75 63 -104.5t64 -29.5zM265 204q73 0 123 105q-35 74 -62 103t-66 29q-45 0 -68.5 -31t-23.5 -85q0 -52 24.5 -86.5t72.5 -34.5z" />
    <glyph glyph-name="approxequal" unicode="&#x2248;" horiz-adv-x="600" 
d="M64 348q0 73 37 114t107 41q42 0 102 -26.5t85 -26.5q53 0 62 55h78q0 -71 -38.5 -113t-101.5 -42q-44 0 -104.5 26.5t-88.5 26.5q-52 0 -58 -55h-80zM64 149q0 72 37 113t107 41q43 0 103 -25.5t84 -25.5q53 0 62 53h78q0 -71 -38 -112.5t-101 -41.5q-45 0 -105.5 26.5
t-88.5 26.5q-52 0 -58 -55h-80z" />
    <glyph glyph-name="notequal" unicode="&#x2260;" horiz-adv-x="600" 
d="M535 173h-271l-52 -99h-87l52 99h-112v105h166l51 97h-217v105h272l50 96h87l-50 -96h111v-105h-166l-51 -97h217v-105z" />
    <glyph glyph-name="lessequal" unicode="&#x2264;" horiz-adv-x="600" 
d="M535 142l-470 176v97l470 175v-118l-318 -104l318 -108v-118zM65 0v102h470v-102h-470z" />
    <glyph glyph-name="greaterequal" unicode="&#x2265;" horiz-adv-x="600" 
d="M65 591l470 -177v-96l-470 -176v118l318 104l-318 108v119zM65 0v102h470v-102h-470z" />
    <glyph glyph-name="uni24C5" unicode="&#x24c5;" horiz-adv-x="892" 
d="M54 377q0 168 114 280.5t278 112.5q165 0 279 -112.5t114 -280.5t-114.5 -280t-278.5 -112q-165 0 -278.5 112t-113.5 280zM118 377q0 -145 94.5 -239.5t233.5 -94.5q138 0 233 94.5t95 239.5t-95 240t-233 95q-139 0 -233.5 -95t-94.5 -240zM300 156v453h181
q79 0 123 -39.5t44 -113.5q0 -73 -44.5 -114.5t-125.5 -41.5h-70v-144h-108zM460 524h-52v-138h51q81 0 81 68q0 70 -80 70z" />
    <glyph glyph-name="uni2713" unicode="&#x2713;" horiz-adv-x="1000" 
d="M375 -14l-323 311l103 107l224 -218l481 521l100 -100l-567 -621h-18z" />
    <glyph glyph-name="uni2717" unicode="&#x2717;" horiz-adv-x="1000" 
d="M750 -5l-252 255l-251 -254l-96 100l250 252l-252 255l99 103l254 -256l252 254l95 -100l-250 -252l251 -253z" />
    <glyph glyph-name="apple" unicode="&#xf8ff;" horiz-adv-x="1241" 
d="M390 318v11h10v18h-10v41h11v-40h19v40h11v-41h-10v-9h-10v-10h-10v-10h-11zM350 338v9h-10v30h-10v11h10v10h11v-10h20v-11h-20v-29h20v-10h-21zM590 338v9h-10v30h-10v11h10v10h11v-10h20v-11h-20v-29h20v-10h-21zM700 338v9h-10v31h10v10h21v-10h10v-21h-30v-9h30v-10
h-31zM880 338v9h-10v31h10v10h21v-10h10v-21h-30v-9h30v-10h-31zM110 347v10h-10v11h10v10h11v-10h10v-11h-10v-10h-11zM180 347v10h-10v11h10v10h11v-10h10v-11h-10v-10h-11zM270 347v10h-10v11h10v10h11v-10h10v-11h-10v-10h-11zM520 338v9h-10v31h10v10h21v-10h10v-31
h-10v-9h-21zM630 338v70h11v-20h20v-10h10v-40h-11v39h-19v-39h-11zM960 347v10h-10v11h10v10h11v-10h10v-11h-10v-10h-11zM1050 347v10h-10v11h10v10h11v-10h10v-11h-10v-10h-11zM1120 347v10h-10v11h10v10h11v-10h10v-11h-10v-10h-11zM450 318v70h31v-10h10v-31h-10v-9
h-20v-20h-11zM780 318v20h-20v9h-10v31h10v10h31v-70h-11zM820 338v9h-10v41h11v-40h19v40h11v-50h-31zM240 328v10h10v10h11v-10h-10v-10h-11zM250 377v10h-10v11h11v-10h10v-11h-11zM300 328v10h-10v10h11v-10h10v-10h-11zM290 377v11h10v10h11v-11h-10v-10h-11zM930 328
v10h10v10h11v-10h-10v-10h-11zM940 377v10h-10v11h11v-10h10v-11h-11zM990 328v10h-10v10h11v-10h10v-10h-11zM980 377v11h10v10h11v-11h-10v-10h-11zM160 338v10h11v-10h-11zM160 377v11h11v-11h-11zM200 338v10h11v-10h-11zM200 377v11h11v-11h-11zM461 348h19v29h-19v-29
zM521 348h19v29h-19v-29zM701 368h19v9h-19v-9zM761 348h19v29h-19v-29zM881 368h19v9h-19v-9zM1030 338v10h11v-10h-11zM1030 377v11h11v-11h-11zM1070 338v10h11v-10h-11zM1070 377v11h11v-11h-11z" />
    <glyph glyph-name="fi" unicode="&#xfb01;" horiz-adv-x="696" 
d="M467 629v143h158v-143h-158zM469 0v542h154v-542h-154zM21 433v109h84v41q0 201 199 201q19 0 38.5 -2t29.5 -4l11 -1l-10 -124q-24 4 -44 4q-40 0 -55 -17.5t-15 -58.5v-39h112v-109h-112v-433h-154v433h-84z" />
    <glyph glyph-name="fl" unicode="&#xfb02;" horiz-adv-x="696" 
d="M469 0v778h154v-778h-154zM21 433v109h84v41q0 201 199 201q19 0 38.5 -2t29.5 -4l11 -1l-10 -124q-24 4 -44 4q-40 0 -55 -17.5t-15 -58.5v-39h112v-109h-112v-433h-154v433h-84z" />
    <glyph glyph-name="zero.zero" horiz-adv-x="718" 
d="M59 376q0 192 79.5 292t221.5 100q299 0 299 -392q0 -195 -79 -293.5t-221 -98.5q-300 0 -300 392zM209 376q0 -30 2 -76l266 280q-33 69 -118 69q-76 0 -113 -64t-37 -209zM360 103q74 0 111.5 64t37.5 209q0 28 -2 70l-266 -279q33 -64 119 -64z" />
    <glyph glyph-name="idotaccent" horiz-adv-x="301" 
d="M72 629v143h158v-143h-158zM74 0v542h154v-542h-154z" />
    <glyph glyph-name="germandbls.alt" horiz-adv-x="649" 
d="M288 -4l11 120q74 -10 114.5 22t40.5 95q0 120 -136 120h-16v113h11q51 0 81 28t30 75t-25.5 75t-69.5 28q-101 0 -101 -112v-560h-154v543q0 111 65 178t192 67q108 0 175 -53t67 -145q0 -117 -121 -167v-3q155 -40 155 -190q0 -119 -85.5 -187.5t-233.5 -46.5z" />
    <glyph glyph-name="a.alt" horiz-adv-x="662" 
d="M319 100q60 0 90.5 46t30.5 123t-29.5 123t-87.5 46q-61 0 -91.5 -45.5t-30.5 -123.5t29.5 -123.5t88.5 -45.5zM277 -12q-108 0 -170.5 74.5t-62.5 204.5q0 126 65 206.5t185 80.5q96 0 146 -70v58h148v-542h-148v67q-58 -79 -163 -79z" />
    <glyph glyph-name="t.alt" horiz-adv-x="399" 
d="M274 433v-433h-153v433h-103v109h103v146h153v-146h107v-109h-107z" />
    <glyph glyph-name="l.alt" horiz-adv-x="361" 
d="M226 778v-595q0 -41 17.5 -57.5t53.5 -16.5q26 0 40 2l7 -109q-51 -13 -103 -13q-169 0 -169 181v608h154z" />
    <glyph glyph-name="aacute.alt" horiz-adv-x="662" 
d="M263 611l97 167h161l-140 -167h-118zM319 100q60 0 90.5 46t30.5 123t-29.5 123t-87.5 46q-61 0 -91.5 -45.5t-30.5 -123.5t29.5 -123.5t88.5 -45.5zM277 -12q-108 0 -170.5 74.5t-62.5 204.5q0 126 65 206.5t185 80.5q96 0 146 -70v58h148v-542h-148v67
q-58 -79 -163 -79z" />
    <glyph glyph-name="abreve.alt" horiz-adv-x="662" 
d="M319 100q60 0 90.5 46t30.5 123t-29.5 123t-87.5 46q-61 0 -91.5 -45.5t-30.5 -123.5t29.5 -123.5t88.5 -45.5zM277 -12q-108 0 -170.5 74.5t-62.5 204.5q0 126 65 206.5t185 80.5q96 0 146 -70v58h148v-542h-148v67q-58 -79 -163 -79zM333 606q-74 0 -122 41t-57 122h89
q15 -66 91 -66q37 0 60.5 17.5t31.5 48.5h84q-6 -77 -55 -120t-122 -43z" />
    <glyph glyph-name="acircumflex.alt" horiz-adv-x="662" 
d="M170 602v109l160 73l160 -73v-110l-160 69zM319 100q60 0 90.5 46t30.5 123t-29.5 123t-87.5 46q-61 0 -91.5 -45.5t-30.5 -123.5t29.5 -123.5t88.5 -45.5zM277 -12q-108 0 -170.5 74.5t-62.5 204.5q0 126 65 206.5t185 80.5q96 0 146 -70v58h148v-542h-148v67
q-58 -79 -163 -79z" />
    <glyph glyph-name="adieresis.alt" horiz-adv-x="662" 
d="M368 631v141h139v-141h-139zM141 631v141h139v-141h-139zM319 100q60 0 90.5 46t30.5 123t-29.5 123t-87.5 46q-61 0 -91.5 -45.5t-30.5 -123.5t29.5 -123.5t88.5 -45.5zM277 -12q-108 0 -170.5 74.5t-62.5 204.5q0 126 65 206.5t185 80.5q96 0 146 -70v58h148v-542h-148
v67q-58 -79 -163 -79z" />
    <glyph glyph-name="agrave.alt" horiz-adv-x="662" 
d="M319 100q60 0 90.5 46t30.5 123t-29.5 123t-87.5 46q-61 0 -91.5 -45.5t-30.5 -123.5t29.5 -123.5t88.5 -45.5zM277 -12q-108 0 -170.5 74.5t-62.5 204.5q0 126 65 206.5t185 80.5q96 0 146 -70v58h148v-542h-148v67q-58 -79 -163 -79zM325 778l91 -167h-118l-135 167
h162z" />
    <glyph glyph-name="amacron.alt" horiz-adv-x="662" 
d="M319 100q60 0 90.5 46t30.5 123t-29.5 123t-87.5 46q-61 0 -91.5 -45.5t-30.5 -123.5t29.5 -123.5t88.5 -45.5zM277 -12q-108 0 -170.5 74.5t-62.5 204.5q0 126 65 206.5t185 80.5q96 0 146 -70v58h148v-542h-148v67q-58 -79 -163 -79zM153 631v106h353v-106h-353z" />
    <glyph glyph-name="aogonek.alt" horiz-adv-x="662" 
d="M319 100q60 0 90.5 46t30.5 123t-29.5 123t-87.5 46q-61 0 -91.5 -45.5t-30.5 -123.5t29.5 -123.5t88.5 -45.5zM502 0h-62v67q-58 -79 -163 -79q-108 0 -170.5 74.5t-62.5 204.5q0 126 65 206.5t185 80.5q96 0 146 -70v58h148v-542q-44 -30 -61 -51t-17 -43t14 -34.5
t39 -12.5q21 0 25 1v-90q-21 -2 -55 -2q-65 0 -100.5 27.5t-35.5 79.5q0 70 105 125z" />
    <glyph glyph-name="aring.alt" horiz-adv-x="662" 
d="M195 724q0 52 38 88t91 36t91 -36t38 -88t-38 -88t-91 -36t-91 36t-38 88zM261 724q0 -28 18.5 -46.5t44.5 -18.5q25 0 43 19t18 46t-18 45.5t-43 18.5q-26 0 -44.5 -18.5t-18.5 -45.5zM319 100q60 0 90.5 46t30.5 123t-29.5 123t-87.5 46q-61 0 -91.5 -45.5
t-30.5 -123.5t29.5 -123.5t88.5 -45.5zM277 -12q-108 0 -170.5 74.5t-62.5 204.5q0 126 65 206.5t185 80.5q96 0 146 -70v58h148v-542h-148v67q-58 -79 -163 -79z" />
    <glyph glyph-name="atilde.alt" horiz-adv-x="662" 
d="M319 100q60 0 90.5 46t30.5 123t-29.5 123t-87.5 46q-61 0 -91.5 -45.5t-30.5 -123.5t29.5 -123.5t88.5 -45.5zM277 -12q-108 0 -170.5 74.5t-62.5 204.5q0 126 65 206.5t185 80.5q96 0 146 -70v58h148v-542h-148v67q-58 -79 -163 -79zM217 616h-86q1 71 33.5 109.5
t89.5 38.5q33 0 82.5 -20.5t67.5 -20.5q44 0 44 44h88q-2 -70 -32 -109.5t-89 -39.5q-33 0 -85 21.5t-68 21.5q-44 0 -45 -45z" />
    <glyph glyph-name="lacute.alt" horiz-adv-x="361" 
d="M226 778v-595q0 -41 17.5 -57.5t53.5 -16.5q26 0 40 2l7 -109q-51 -13 -103 -13q-169 0 -169 181v608h154zM86 808l89 142h167l-134 -142h-122z" />
    <glyph glyph-name="lcaron.alt" horiz-adv-x="361" 
d="M226 778v-595q0 -41 17.5 -57.5t53.5 -16.5q26 0 40 2l7 -109q-51 -13 -103 -13q-169 0 -169 181v608h154zM269 572l25 206h136l-84 -206h-77z" />
    <glyph glyph-name="lcommaaccent.alt" horiz-adv-x="361" 
d="M146 -235l-12 50q68 13 77 45h-73v100h149v-48q0 -67 -29.5 -99t-111.5 -48zM226 778v-595q0 -41 17.5 -57.5t53.5 -16.5q26 0 40 2l7 -109q-51 -13 -103 -13q-169 0 -169 181v608h154z" />
    <glyph glyph-name="tcaron.alt" horiz-adv-x="399" 
d="M274 433v-433h-153v433h-103v109h103v146h153v-146h107v-109h-107zM341 572l25 206h136l-84 -206h-77z" />
    <glyph glyph-name="tcommaaccent.alt" horiz-adv-x="399" 
d="M130 -235l-12 50q68 13 77 45h-73v100h149v-48q0 -67 -29.5 -99t-111.5 -48zM274 433v-433h-153v433h-103v109h103v146h153v-146h107v-109h-107z" />
    <glyph glyph-name="tbar.alt" horiz-adv-x="399" 
d="M381 262h-107v-262h-153v262h-103v99h103v72h-103v109h103v146h153v-146h107v-109h-107v-72h107v-99z" />
    <glyph glyph-name="ldot.alt" horiz-adv-x="447" 
d="M294 312v163h166v-163h-166zM226 778v-595q0 -41 17.5 -57.5t53.5 -16.5q26 0 40 2l7 -109q-51 -13 -103 -13q-169 0 -169 181v608h154z" />
    <glyph glyph-name="ae.alt" horiz-adv-x="1001" 
d="M709 -15q-95 0 -145 69v-54h-133v56q-52 -68 -154 -68q-108 0 -170.5 74.5t-62.5 204.5q0 126 65 206.5t185 80.5q88 0 133 -60v48h137v-48q56 62 152 62q124 0 189 -86.5t60 -239.5h-381q4 -58 38.5 -93t88.5 -35q74 0 116 63l127 -39q-28 -63 -91 -102t-154 -39z
M703 447q-51 0 -82 -32.5t-36 -85.5h227q-2 53 -31 85.5t-78 32.5zM319 100q60 0 90.5 46t30.5 123t-29.5 123t-87.5 46q-61 0 -91.5 -45.5t-30.5 -123.5t29.5 -123.5t88.5 -45.5z" />
    <glyph glyph-name="aeacute.alt" horiz-adv-x="1001" 
d="M439 611l97 167h161l-140 -167h-118zM709 -15q-95 0 -145 69v-54h-133v56q-52 -68 -154 -68q-108 0 -170.5 74.5t-62.5 204.5q0 126 65 206.5t185 80.5q88 0 133 -60v48h137v-48q56 62 152 62q124 0 189 -86.5t60 -239.5h-381q4 -58 38.5 -93t88.5 -35q74 0 116 63
l127 -39q-28 -63 -91 -102t-154 -39zM703 447q-51 0 -82 -32.5t-36 -85.5h227q-2 53 -31 85.5t-78 32.5zM319 100q60 0 90.5 46t30.5 123t-29.5 123t-87.5 46q-61 0 -91.5 -45.5t-30.5 -123.5t29.5 -123.5t88.5 -45.5z" />
    <glyph glyph-name="f_l.alt" horiz-adv-x="757" 
d="M621 778v-595q0 -41 17.5 -57.5t53.5 -16.5q26 0 40 2l7 -109q-51 -13 -103 -13q-169 0 -169 181v608h154zM21 433v109h84v41q0 201 199 201q19 0 38.5 -2t29.5 -4l11 -1l-10 -124q-24 4 -44 4q-40 0 -55 -17.5t-15 -58.5v-39h112v-109h-112v-433h-154v433h-84z" />
    <glyph glyph-name="lslash.alt" horiz-adv-x="361" 
d="M241 -11q-169 0 -169 181v140l-78 -39v122l78 39v346h154v-269l81 40v-120l-81 -41v-205q0 -41 17.5 -57.5t53.5 -16.5q26 0 40 2l7 -109q-51 -13 -103 -13z" />
    <glyph glyph-name="comma.tab" horiz-adv-x="310" 
d="M84 -185l-33 59q49 25 71 53t23 73h-73v163h167v-131q0 -77 -36 -130.5t-119 -86.5z" />
    <glyph glyph-name="period.tab" horiz-adv-x="310" 
d="M72 0v163h167v-163h-167z" />
    <glyph glyph-name="colon.tab" horiz-adv-x="310" 
d="M72 366v163h167v-163h-167zM72 0v163h167v-163h-167z" />
    <glyph glyph-name="semicolon.tab" horiz-adv-x="310" 
d="M72 366v163h167v-163h-167zM91 -201l-38 61q48 29 69 60.5t22 79.5h-72v163h167v-129q0 -82 -33.5 -139t-114.5 -96z" />
    <glyph glyph-name="questiondown.uc" horiz-adv-x="568" 
d="M356 511l1 -46q1 -55 -18 -83.5t-75 -70.5q-54 -39 -74 -63.5t-20 -62.5q0 -39 28.5 -63t78.5 -24q108 0 130 118l143 -23q-11 -94 -82 -158.5t-194 -64.5q-122 0 -190 56t-68 153q0 69 29.5 111t95.5 89q49 36 63.5 53.5t15.5 48.5v30h136zM372 755v-163h-167v163h167z
" />
    <glyph glyph-name="exclamdown.uc" horiz-adv-x="326" 
d="M215 511l21 -259v-275h-146v275l22 259h103zM247 755v-163h-167v163h167z" />
    <glyph glyph-name="hyphen.uc" horiz-adv-x="441" 
d="M52 279v132h338v-132h-338z" />
    <glyph glyph-name="endash.uc" horiz-adv-x="530" 
d="M30 291v107h470v-107h-470z" />
    <glyph glyph-name="emdash.uc" horiz-adv-x="930" 
d="M30 291v107h870v-107h-870z" />
    <glyph glyph-name="at.uc" horiz-adv-x="1072" 
d="M521 -147q-202 0 -331 127t-129 329q0 222 143.5 362t360.5 140q140 0 243.5 -57.5t154.5 -150t51 -205.5q0 -146 -77 -231.5t-187 -85.5q-115 0 -143 86h-4q-54 -76 -150 -76q-74 0 -120.5 51.5t-46.5 145.5q0 129 65 213.5t170 84.5q88 0 124 -67h3l12 54h128l-54 -318
q-15 -87 58 -87q56 0 98.5 65t42.5 160q0 156 -101 252.5t-275 96.5q-182 0 -296 -121.5t-114 -303.5q0 -184 109.5 -289t277.5 -105q172 0 291 86l37 -53q-65 -50 -144.5 -76.5t-196.5 -26.5zM500 190q57 0 90 61t33 137q0 97 -77 97q-56 0 -89.5 -58t-33.5 -139
q0 -98 77 -98z" />
    <glyph glyph-name="slash.tab" horiz-adv-x="465" 
d="M-14 -163l353 961h104l-352 -961h-105z" />
    <glyph glyph-name="slash.tabuc" horiz-adv-x="434" 
d="M-12 -118l353 961h104l-352 -961h-105z" />
    <glyph glyph-name="slash.uc" horiz-adv-x="429" 
d="M-15 -106l353 961h104l-352 -961h-105z" />
    <glyph glyph-name="backslash.uc" horiz-adv-x="430" 
d="M94 855l353 -961h-106l-352 961h105z" />
    <glyph glyph-name="bar.uc" horiz-adv-x="284" 
d="M92 -106v961h99v-961h-99z" />
    <glyph glyph-name="parenleft.tab" horiz-adv-x="465" 
d="M410 -163h-94q-25 32 -38 50t-41.5 68.5t-44.5 96.5t-30 117.5t-14 147.5q0 90 16.5 169.5t46 139.5t50 92.5t48.5 70.5q5 6 7 9h94q-25 -41 -40 -70t-41.5 -93.5t-40.5 -145.5t-14 -172t14 -171.5t40.5 -145t41.5 -93.5t40 -70z" />
    <glyph glyph-name="parenleft.tabuc" horiz-adv-x="465" 
d="M404 -118h-94q-25 32 -38 50t-41.5 68.5t-44.5 96.5t-30 117.5t-14 147.5q0 90 16.5 169.5t46 139.5t50 92.5t48.5 70.5q5 6 7 9h94q-25 -41 -40 -70t-41.5 -93.5t-40.5 -145.5t-14 -172t14 -171.5t40.5 -145t41.5 -93.5t40 -70z" />
    <glyph glyph-name="parenleft.uc" horiz-adv-x="336" 
d="M332 -118h-94q-25 32 -38 50t-41.5 68.5t-44.5 96.5t-30 117.5t-14 147.5q0 90 16.5 169.5t46 139.5t50 92.5t48.5 70.5q5 6 7 9h94q-25 -41 -40 -70t-41.5 -93.5t-40.5 -145.5t-14 -172t14 -171.5t40.5 -145t41.5 -93.5t40 -70z" />
    <glyph glyph-name="parenright.tab" horiz-adv-x="465" 
d="M62 798h94q25 -33 38 -50.5t42 -68.5t45 -96.5t30 -117t14 -147.5t-14.5 -149t-29 -115.5t-47 -98t-40.5 -67t-38 -51.5h-94q25 41 40 70t41.5 93.5t40.5 145.5t14 172t-14 171.5t-40.5 145t-41.5 93.5t-40 70z" />
    <glyph glyph-name="parenright.tabuc" horiz-adv-x="465" 
d="M68 843h94q25 -33 38 -50.5t42 -68.5t45 -96.5t30 -117t14 -147.5t-14.5 -149t-29 -115.5t-47 -98t-40.5 -67t-38 -51.5h-94q25 41 40 70t41.5 93.5t40.5 145.5t14 172t-14 171.5t-40.5 145t-41.5 93.5t-40 70z" />
    <glyph glyph-name="parenright.uc" horiz-adv-x="336" 
d="M10 843h94q25 -33 38 -50.5t42 -68.5t45 -96.5t30 -117t14 -147.5t-14.5 -149t-29 -115.5t-47 -98t-40.5 -67t-38 -51.5h-94q25 41 40 70t41.5 93.5t40.5 145.5t14 172t-14 171.5t-40.5 145t-41.5 93.5t-40 70z" />
    <glyph glyph-name="bracketleft.tab" horiz-adv-x="465" 
d="M169 -163v961h238v-86h-122v-789h122v-86h-238z" />
    <glyph glyph-name="bracketleft.tabuc" horiz-adv-x="465" 
d="M168 -118v961h238v-86h-122v-789h122v-86h-238z" />
    <glyph glyph-name="bracketleft.uc" horiz-adv-x="336" 
d="M90 -118v961h238v-86h-122v-789h122v-86h-238z" />
    <glyph glyph-name="bracketright.tab" horiz-adv-x="465" 
d="M303 798v-961h-238v86h120v789h-120v86h238z" />
    <glyph glyph-name="bracketright.tabuc" horiz-adv-x="465" 
d="M305 843v-961h-238v86h120v789h-120v86h238z" />
    <glyph glyph-name="bracketright.uc" horiz-adv-x="336" 
d="M253 843v-961h-238v86h120v789h-120v86h238z" />
    <glyph glyph-name="braceleft.uc" horiz-adv-x="345" 
d="M35 310v103h31q74 0 67 86l-13 175q-7 92 41.5 130.5t143.5 38.5h36v-85h-25q-47 0 -63 -18t-14 -66l8 -175q3 -58 -17 -89t-70 -45v-4q48 -11 68.5 -42.5t18.5 -87.5l-8 -180q-2 -47 14 -65.5t63 -18.5h25v-85h-38q-95 0 -142 38t-41 131l13 178q6 81 -68 81h-30z" />
    <glyph glyph-name="braceleft.tab" horiz-adv-x="465" 
d="M117 265v103h31q74 0 67 86l-13 175q-7 92 41.5 130.5t143.5 38.5h36v-85h-25q-47 0 -63 -18t-14 -66l8 -175q3 -58 -17 -89t-70 -45v-4q48 -11 68.5 -42.5t18.5 -87.5l-8 -180q-2 -47 14 -65.5t63 -18.5h25v-85h-38q-95 0 -142 38t-41 131l13 178q6 81 -68 81h-30z" />
    <glyph glyph-name="braceleft.tabuc" horiz-adv-x="465" 
d="M104 310v103h31q74 0 67 86l-13 175q-7 92 41.5 130.5t143.5 38.5h36v-85h-25q-47 0 -63 -18t-14 -66l8 -175q3 -58 -17 -89t-70 -45v-4q48 -11 68.5 -42.5t18.5 -87.5l-8 -180q-2 -47 14 -65.5t63 -18.5h25v-85h-38q-95 0 -142 38t-41 131l13 178q6 81 -68 81h-30z" />
    <glyph glyph-name="braceright.uc" horiz-adv-x="345" 
d="M312 415v-103h-31q-74 0 -67 -86l13 -175q7 -92 -41.5 -130.5t-143.5 -38.5h-36v85h25q47 0 63 18t14 66l-8 175q-3 58 17 89t70 45v4q-48 11 -68.5 42.5t-18.5 87.5l8 180q2 47 -14 65.5t-63 18.5h-25v85h38q95 0 142 -38t41 -131l-13 -178q-6 -81 68 -81h30z" />
    <glyph glyph-name="braceright.tab" horiz-adv-x="465" 
d="M357 370v-103h-31q-74 0 -67 -86l13 -175q7 -92 -41.5 -130.5t-143.5 -38.5h-36v85h25q47 0 63 18t14 66l-8 175q-3 58 17 89t70 45v4q-48 11 -68.5 42.5t-18.5 87.5l8 180q2 47 -14 65.5t-63 18.5h-25v85h38q95 0 142 -38t41 -131l-13 -178q-6 -81 68 -81h30z" />
    <glyph glyph-name="braceright.tabuc" horiz-adv-x="465" 
d="M372 415v-103h-31q-74 0 -67 -86l13 -175q7 -92 -41.5 -130.5t-143.5 -38.5h-36v85h25q47 0 63 18t14 66l-8 175q-3 58 17 89t70 45v4q-48 11 -68.5 42.5t-18.5 87.5l8 180q2 47 -14 65.5t-63 18.5h-25v85h38q95 0 142 -38t41 -131l-13 -178q-6 -81 68 -81h30z" />
    <glyph glyph-name="degree.old" horiz-adv-x="393" 
d="M43 561q0 65 44 109.5t110 44.5t109.5 -44t43.5 -110q0 -65 -44 -108.5t-111 -43.5q-66 0 -109 43.5t-43 108.5zM112 561q0 -40 23 -65t61 -25t62 25t24 65q0 41 -24 66.5t-62 25.5t-61 -25.5t-23 -66.5z" />
    <glyph glyph-name="numbersign.tab" 
d="M361 272l25 152h-125l-25 -152h125zM317 0l29 181h-125l-29 -181h-91l29 181h-104v91h119l25 152h-104v91h119l26 160h91l-26 -160h125l26 160h91l-26 -160h100v-91h-115l-25 -152h100v-91h-115l-29 -181h-91z" />
    <glyph glyph-name="percent.old" horiz-adv-x="815" 
d="M43 539q0 84 45.5 131t116.5 47q73 0 114.5 -45.5t41.5 -132.5q0 -86 -44.5 -132.5t-115.5 -46.5q-74 0 -116 46t-42 133zM109 0l499 701h95l-496 -701h-98zM201 646q-58 0 -58 -107q0 -108 59 -108q57 0 57 108q0 107 -58 107zM454 165q0 84 46 131.5t116 47.5
q74 0 115 -45.5t41 -133.5q0 -85 -44.5 -131.5t-115.5 -46.5q-74 0 -116 46t-42 132zM612 273q-58 0 -58 -108q0 -107 59 -107q57 0 57 107q0 108 -58 108z" />
    <glyph glyph-name="percent.tab" horiz-adv-x="775" 
d="M189 395q-74 0 -116 48.5t-42 138.5q0 88 45.5 137.5t116.5 49.5q73 0 114 -47.5t41 -139.5q0 -89 -44 -138t-115 -49zM184 0h-103l510 755h102zM190 472q55 0 55 110t-56 110q-58 0 -58 -110t59 -110zM584 -14q-74 0 -116 48.5t-42 139.5q0 88 45.5 138t116.5 50
q73 0 114 -47.5t41 -140.5q0 -90 -44 -139t-115 -49zM585 63q55 0 55 111t-56 111q-58 0 -58 -111t59 -111z" />
    <glyph glyph-name="percent.tabold" horiz-adv-x="775" 
d="M31 539q0 84 45.5 131t115.5 47q72 0 113.5 -45.5t41.5 -132.5q0 -86 -44.5 -132.5t-114.5 -46.5q-74 0 -115.5 46t-41.5 133zM88 0l501 701h95l-499 -701h-97zM188 646q-58 0 -58 -107q0 -108 59 -108q56 0 56 108q0 107 -57 107zM428 165q0 84 45.5 131.5t115.5 47.5
q72 0 113.5 -45.5t41.5 -133.5q0 -85 -44.5 -131.5t-114.5 -46.5q-74 0 -115.5 46t-41.5 132zM585 273q-58 0 -58 -108q0 -107 59 -107q56 0 56 107q0 108 -57 108z" />
    <glyph glyph-name="perthousand.old" horiz-adv-x="1178" 
d="M43 539q0 84 45.5 131t116.5 47q73 0 114.5 -45.5t41.5 -132.5q0 -86 -44.5 -132.5t-115.5 -46.5q-74 0 -116 46t-42 133zM109 0l499 701h95l-496 -701h-98zM201 646q-58 0 -58 -107q0 -108 59 -108q57 0 57 108q0 107 -58 107zM817 165q0 84 45.5 131.5t116.5 47.5
q73 0 114.5 -45.5t41.5 -133.5q0 -85 -44.5 -131.5t-115.5 -46.5q-74 0 -116 46t-42 132zM454 165q0 84 46 131.5t116 47.5q74 0 115 -45.5t41 -133.5q0 -85 -44.5 -131.5t-115.5 -46.5q-74 0 -116 46t-42 132zM975 273q-58 0 -58 -108q0 -107 59 -107q57 0 57 107
q0 108 -58 108zM612 273q-58 0 -58 -108q0 -107 59 -107q57 0 57 107q0 108 -58 108z" />
    <glyph glyph-name="perthousand.tab" horiz-adv-x="1240" 
d="M215 394q-74 0 -116 48.5t-42 139.5q0 88 45.5 138t116.5 50q73 0 114 -47.5t41 -140.5q0 -90 -44 -139t-115 -49zM217 0h-102l504 755h102zM216 471q55 0 55 111q0 110 -56 110q-58 0 -58 -110q0 -111 59 -111zM619 -14q-74 0 -116 48.5t-42 139.5q0 88 45.5 138
t116.5 50q73 0 114 -47.5t41 -140.5q0 -90 -44 -139t-115 -49zM1004 -14q-74 0 -116 48.5t-42 139.5q0 88 45.5 138t116.5 50q73 0 114 -47.5t41 -140.5q0 -90 -44 -139t-115 -49zM620 63q56 0 56 111t-57 111q-58 0 -58 -111t59 -111zM1005 63q56 0 56 111t-57 111
t-57 -111t58 -111z" />
    <glyph glyph-name="perthousand.tabold" horiz-adv-x="1240" 
d="M58 539q0 83 45.5 130.5t115.5 47.5q73 0 114 -45.5t41 -132.5q0 -86 -44 -132.5t-115 -46.5q-73 0 -115 46.5t-42 132.5zM117 0l501 701h96l-499 -701h-98zM158 539q0 -108 58 -108q57 0 57 108q0 107 -58 107q-57 0 -57 -107zM844 165q0 84 45.5 131.5t115.5 47.5
q73 0 114 -45.5t41 -133.5q0 -85 -44 -131.5t-115 -46.5q-74 0 -115.5 46t-41.5 132zM459 165q0 84 45.5 131.5t115.5 47.5q72 0 113.5 -45.5t41.5 -133.5q0 -85 -44.5 -131.5t-114.5 -46.5q-74 0 -115.5 46t-41.5 132zM1001 273q-57 0 -57 -108q0 -107 58 -107q56 0 56 107
q0 108 -57 108zM616 273q-58 0 -58 -108q0 -107 59 -107q56 0 56 107q0 108 -57 108z" />
    <glyph glyph-name="ordfeminine.old" horiz-adv-x="467" 
d="M212 374q40 0 63 26.5t23 64.5v10q-22 2 -48 2q-89 0 -89 -54q0 -22 14 -35.5t37 -13.5zM177 290q-63 0 -100 34t-37 90q0 130 198 130l57 -2v15q0 69 -64 69q-51 0 -67 -53l-106 26q13 50 56.5 83t120.5 33q94 0 135.5 -40.5t41.5 -132.5v-140l3 -102h-112l-3 51
q-44 -61 -123 -61z" />
    <glyph glyph-name="ordmasculine.old" horiz-adv-x="502" 
d="M248 291q-99 0 -152.5 58t-53.5 154q0 95 55.5 153.5t154.5 58.5t153.5 -58t54.5 -154q0 -94 -56.5 -153t-155.5 -59zM251 384q41 0 62 32t21 87q0 56 -21 87.5t-63 31.5q-83 0 -83 -119q0 -55 21 -87t63 -32z" />
    <glyph glyph-name="guilsinglright.uc" horiz-adv-x="336" 
d="M179 98h-126l110 206l-110 209h128l116 -208z" />
    <glyph glyph-name="guilsinglleft.uc" horiz-adv-x="336" 
d="M158 513h125l-110 -206l110 -209h-127l-117 208z" />
    <glyph glyph-name="guillemotleft.uc" horiz-adv-x="550" 
d="M372 513h125l-109 -206l109 -209h-127l-117 208zM158 513h125l-110 -206l110 -209h-127l-117 208z" />
    <glyph glyph-name="guillemotright.uc" horiz-adv-x="550" 
d="M393 98h-126l110 206l-110 209h128l116 -208zM179 98h-126l110 206l-110 209h128l116 -208z" />
    <glyph glyph-name="minus.tab" 
d="M75 267v119h470v-119h-470z" />
    <glyph glyph-name="plus.tab" 
d="M75 268v118h175v178h120v-178h175v-118h-175v-184h-120v184h-175z" />
    <glyph glyph-name="multiply.tab" 
d="M151 84l-76 79l161 156l-161 159l75 80l161 -161l158 158l77 -80l-161 -155l161 -153l-77 -80l-158 156z" />
    <glyph glyph-name="less.tab" 
d="M545 55l-470 206v96l470 205v-115l-330 -137l330 -136v-119z" />
    <glyph glyph-name="equal.tab" 
d="M75 375v105h470v-105h-470zM75 173v105h470v-105h-470z" />
    <glyph glyph-name="greater.tab" 
d="M75 563l470 -205v-96l-470 -206v115l330 137l-330 136v119z" />
    <glyph glyph-name="plusminus.tab" 
d="M75 314v109h179v154h112v-154h179v-109h-179v-160h-112v160h-179zM75 0v102h470v-102h-470z" />
    <glyph glyph-name="lessequal.tab" 
d="M545 142l-470 176v97l470 175v-118l-318 -104l318 -108v-118zM75 0v102h470v-102h-470z" />
    <glyph glyph-name="notequal.tab" 
d="M545 173h-271l-52 -99h-87l52 99h-112v105h166l51 97h-217v105h272l50 96h87l-50 -96h111v-105h-166l-51 -97h217v-105z" />
    <glyph glyph-name="greaterequal.tab" 
d="M75 591l470 -177v-96l-470 -176v118l318 104l-318 108v119zM75 0v102h470v-102h-470z" />
    <glyph glyph-name="divide.tab" 
d="M244 444v127h132v-127h-132zM75 269v116h470v-116h-470zM244 82v127h132v-127h-132z" />
    <glyph glyph-name="approxequal.tab" 
d="M74 348q0 73 37 114t107 41q42 0 102 -26.5t85 -26.5q53 0 62 55h78q0 -71 -38.5 -113t-101.5 -42q-44 0 -104.5 26.5t-88.5 26.5q-52 0 -58 -55h-80zM74 149q0 72 37 113t107 41q43 0 103 -25.5t84 -25.5q53 0 62 53h78q0 -71 -38 -112.5t-101 -41.5q-45 0 -105.5 26.5
t-88.5 26.5q-52 0 -58 -55h-80z" />
    <glyph glyph-name="acute.uc" horiz-adv-x="500" 
d="M124 805l89 142h167l-134 -142h-122z" />
    <glyph glyph-name="breve.uc" horiz-adv-x="500" 
d="M249 800q-70 0 -118.5 37t-58.5 108h93q19 -52 84 -52q62 0 85 52h88q-6 -67 -55 -106t-118 -39z" />
    <glyph glyph-name="caron.uc" horiz-adv-x="494" 
d="M407 954v-102l-160 -60l-160 60v104l161 -57z" />
    <glyph glyph-name="circumflex.uc" horiz-adv-x="494" 
d="M87 797v105l160 60l160 -60v-107l-161 57z" />
    <glyph glyph-name="dieresis.uc" horiz-adv-x="500" 
d="M295 811v140h140v-140h-140zM65 811v140h140v-140h-140z" />
    <glyph glyph-name="dotaccent.uc" horiz-adv-x="501" 
d="M181 813v140h139v-140h-139z" />
    <glyph glyph-name="hungarumlaut.uc" horiz-adv-x="500" 
d="M44 805l74 142h138l-97 -142h-115zM240 805l73 142h139l-98 -142h-114z" />
    <glyph glyph-name="grave.uc" horiz-adv-x="500" 
d="M289 947l89 -142h-122l-134 142h167z" />
    <glyph glyph-name="macron.uc" horiz-adv-x="500" 
d="M73 811v105h353v-105h-353z" />
    <glyph glyph-name="tilde.uc" horiz-adv-x="500" 
d="M139 805h-86q1 71 33.5 109.5t89.5 38.5q33 0 82.5 -20.5t67.5 -20.5q20 0 32 11.5t12 32.5h88q-2 -70 -32 -109.5t-89 -39.5q-33 0 -85 21.5t-68 21.5q-44 0 -45 -45z" />
    <glyph glyph-name="commaaccent" horiz-adv-x="500" 
d="M202 -235l-12 50q68 13 77 45h-73v100h149v-48q0 -67 -29.5 -99t-111.5 -48z" />
    <glyph glyph-name="ring.uc" horiz-adv-x="500" 
d="M121 915q0 52 38 88t91 36t91 -36t38 -88t-38 -88.5t-91 -36.5t-91 36.5t-38 88.5zM187 915q0 -28 18.5 -47t44.5 -19q25 0 43 19t18 47q0 27 -18 45t-43 18q-26 0 -44.5 -18t-18.5 -45z" />
    <glyph glyph-name="caron.alt" horiz-adv-x="500" 
d="M149 572l25 206h136l-84 -206h-77z" />
    <glyph glyph-name="zero.tabzero" 
d="M43 376q0 392 268 392q266 0 266 -392q0 -391 -267 -391q-135 0 -201 94.5t-66 296.5zM183 376q0 -39 1 -56l231 250q-26 72 -104 72q-69 0 -98.5 -59t-29.5 -207zM309 111q70 0 99 58t29 207q0 35 -1 51l-230 -248q28 -68 103 -68z" />
    <glyph glyph-name="zero.tab" 
d="M43 375q0 201 67.5 296.5t200.5 95.5t199.5 -95.5t66.5 -296.5q0 -391 -267 -391q-135 0 -201 94.5t-66 296.5zM424 375q0 145 -26.5 204t-87.5 59t-87.5 -58.5t-26.5 -204.5t26.5 -203.5t88.5 -57.5q61 0 87 57.5t26 203.5z" />
    <glyph glyph-name="one.tab" 
d="M572 0h-478v127h182v449l-143 -89l-60 106l247 162h102v-628h150v-127z" />
    <glyph glyph-name="two.tab" 
d="M199 501l-134 13v10q2 101 67.5 173t191.5 72q120 0 180.5 -60.5t60.5 -156.5q0 -50 -12 -87t-51.5 -86t-83 -91t-137.5 -128l-33 -30v-3h328v-127h-514v126q28 27 79 74q187 175 233.5 230t46.5 113q0 48 -26.5 75t-74.5 27q-111 0 -119 -128z" />
    <glyph glyph-name="three.tab" 
d="M311 108q51 0 84.5 30.5t33.5 79.5q0 108 -124 108h-68v124h69q49 0 79 26.5t30 73.5q0 43 -28 69t-75 26q-102 0 -119 -122l-135 17q6 96 74.5 162t186.5 66q116 0 177 -56t61 -146q0 -61 -33 -103.5t-89 -62.5v-4q66 -17 102.5 -63.5t36.5 -114.5q0 -102 -71 -167.5
t-193 -65.5q-129 0 -194 63.5t-74 172.5l138 13q11 -64 42.5 -95t88.5 -31z" />
    <glyph glyph-name="four.tab" 
d="M494 0h-138v160h-318v107l290 488h166v-466h88v-129h-88v-160zM179 289h180v305h-6q-6 -25 -50 -99z" />
    <glyph glyph-name="five.tab" 
d="M305 -15q-128 0 -192 61.5t-75 158.5l140 12q12 -59 44 -84.5t83 -25.5q54 0 85.5 34.5t31.5 100.5q0 61 -32 95.5t-89 34.5q-71 0 -117 -54l-118 33l43 404h428v-130h-315l-17 -181h2q52 49 133 49q99 0 164 -64t65 -180q0 -122 -69.5 -193t-194.5 -71z" />
    <glyph glyph-name="six.tab" 
d="M572 588l-137 -34q-30 91 -107 91q-65 0 -98.5 -56t-36.5 -181h2q51 81 166 81q99 0 158.5 -62t59.5 -179q0 -112 -69.5 -187.5t-189.5 -75.5q-135 0 -205 88.5t-70 279.5q0 205 76.5 309.5t209.5 104.5q97 0 156.5 -48.5t84.5 -130.5zM433 239q0 62 -29 97.5t-85 35.5
t-85.5 -36t-29.5 -97q0 -63 30 -98.5t87 -35.5q52 0 82 36.5t30 97.5z" />
    <glyph glyph-name="seven.tab" 
d="M115 0l293 618h-360v137h523v-111l-296 -644h-160z" />
    <glyph glyph-name="eight.tab" 
d="M311 772q114 0 180 -58t66 -150q0 -115 -103 -169v-3q127 -52 127 -181q0 -104 -72 -165.5t-201 -61.5q-128 0 -198.5 60.5t-70.5 165.5q0 130 127 182v3q-103 52 -103 169q0 91 67 149.5t181 58.5zM203 552q0 -50 29.5 -76.5t77.5 -26.5t77.5 26.5t29.5 76.5
q0 51 -29.5 78t-77.5 27q-50 0 -78.5 -26.5t-28.5 -78.5zM433 217q0 55 -33.5 87t-89.5 32q-55 0 -89 -32t-34 -87t33.5 -86.5t89.5 -31.5t89.5 31.5t33.5 86.5z" />
    <glyph glyph-name="nine.tab" 
d="M188 516q0 -61 30.5 -95t82.5 -34t83 34t31 96q0 61 -31 95t-83 34q-50 0 -81.5 -34t-31.5 -96zM40 174l131 28q28 -95 118 -95q70 0 104 56t35 184h-3q-55 -74 -154 -74q-100 0 -164.5 62.5t-64.5 179.5q0 107 70 180t195 73q123 0 196 -90t73 -270q0 -219 -70.5 -321
t-218.5 -102q-104 0 -166.5 49t-80.5 140z" />
    <glyph glyph-name="zero.oldzero" horiz-adv-x="672" 
d="M53 349q0 179 75 271.5t210 92.5q131 0 206 -90.5t75 -273.5q0 -179 -75 -271.5t-209 -92.5t-208 91.5t-74 272.5zM196 349q0 -38 3 -71l243 258q-33 60 -106 60q-70 0 -105 -57t-35 -190zM336 102q70 0 105 56.5t35 190.5q0 25 -2 61l-242 -252q34 -56 104 -56z" />
    <glyph glyph-name="zero.old" horiz-adv-x="672" 
d="M53 349q0 181 74 272.5t211 91.5q133 0 207 -90t74 -274q0 -182 -74 -273t-210 -91t-209 90.5t-73 273.5zM336 595q-64 0 -95 -56.5t-31 -189.5q0 -131 31.5 -188t94.5 -57t94.5 56t31.5 189q0 130 -31.5 188t-94.5 58z" />
    <glyph glyph-name="one.old" horiz-adv-x="447" 
d="M349 0h-145v521l-124 -76l-59 110l226 146h102v-701z" />
    <glyph glyph-name="two.old" horiz-adv-x="600" 
d="M191 468l-140 9q2 100 68.5 168.5t187.5 68.5q115 0 177 -55t62 -141q0 -92 -49.5 -154.5t-204.5 -195.5q-29 -25 -44 -38v-3h306v-127h-507v110q237 213 270 245q68 67 78 111q4 15 4 35q0 42 -26 67.5t-69 25.5q-54 0 -82 -30t-31 -96z" />
    <glyph glyph-name="three.old" horiz-adv-x="609" 
d="M305 105q49 0 80 27.5t31 72.5q0 47 -29.5 72t-85.5 25h-70v115h68q44 0 71.5 23t27.5 68q0 40 -26.5 63.5t-68.5 23.5q-98 0 -115 -109l-135 16q13 96 78 154t175 58q114 0 176.5 -52t62.5 -135q0 -115 -119 -155v-4q65 -14 102.5 -58.5t37.5 -112.5q0 -91 -71.5 -151.5
t-190.5 -60.5q-124 0 -191.5 60.5t-77.5 159.5l145 12q19 -112 125 -112z" />
    <glyph glyph-name="four.old" horiz-adv-x="614" 
d="M489 0h-142v145h-321v93l285 463h178v-431h96v-125h-96v-145zM166 269h185v304h-4q-25 -59 -71 -131z" />
    <glyph glyph-name="five.old" horiz-adv-x="610" 
d="M299 -14q-122 0 -185.5 55.5t-76.5 146.5l142 16q20 -100 121 -100q52 0 84.5 32.5t32.5 90.5q0 53 -32.5 84.5t-85.5 31.5q-70 0 -112 -50l-122 40l56 368h409v-132h-306l-24 -154h2q55 44 140 44q96 0 159 -59t63 -167q0 -112 -72.5 -179.5t-192.5 -67.5z" />
    <glyph glyph-name="six.old" horiz-adv-x="632" 
d="M579 536l-136 -22q-29 85 -106 85q-128 0 -137 -216h3q54 73 168 73q91 0 155 -58t64 -168q0 -103 -71 -174t-189 -71q-131 0 -204.5 82.5t-73.5 255.5q0 186 76.5 288.5t213.5 102.5q194 0 237 -178zM444 222q0 54 -32.5 87.5t-84.5 33.5t-83.5 -33.5t-31.5 -87.5
q0 -55 31.5 -87.5t85.5 -32.5q49 0 82 33t33 87z" />
    <glyph glyph-name="seven.old" horiz-adv-x="546" 
d="M76 0l280 568h-328v133h489v-105l-286 -596h-155z" />
    <glyph glyph-name="eight.old" horiz-adv-x="627" 
d="M314 718q108 0 175.5 -54.5t67.5 -140.5q0 -103 -95 -157v-2q51 -20 84.5 -63t33.5 -105q0 -95 -73.5 -154.5t-194.5 -59.5q-123 0 -193.5 58t-70.5 154q0 61 33.5 105.5t83.5 64.5v2q-95 52 -95 156q0 85 68.5 140.5t175.5 55.5zM207 511q0 -44 30 -69.5t77 -25.5
t76.5 26t29.5 69q0 44 -30 70t-76 26q-48 0 -77.5 -25.5t-29.5 -70.5zM434 205q0 48 -33.5 78t-86.5 30q-54 0 -87.5 -30t-33.5 -78q0 -49 33.5 -78.5t87.5 -29.5t87 29.5t33 78.5z" />
    <glyph glyph-name="nine.old" horiz-adv-x="634" 
d="M191 472q0 -54 32 -86.5t86 -32.5q52 0 84.5 33t32.5 86q0 55 -31 88t-86 33q-52 0 -85 -33t-33 -88zM49 163l132 27q25 -88 112 -88q70 0 103 48t36 163h-3q-50 -69 -151 -69t-166.5 60.5t-65.5 170.5q0 101 72 170t195 69q124 0 197.5 -87t73.5 -252q0 -390 -288 -390
q-104 0 -167.5 47t-79.5 131z" />
    <glyph glyph-name="zero.taboldzero" 
d="M43 349q0 364 268 364q127 0 196.5 -90t69.5 -274q0 -364 -268 -364q-266 0 -266 364zM182 349q0 -41 1 -60l229 250q-28 61 -102 61q-68 0 -98 -55.5t-30 -195.5zM311 97q67 0 97 56t30 196q0 37 -1 54l-227 -247q28 -59 101 -59z" />
    <glyph glyph-name="zero.tabold" 
d="M43 349q0 364 268 364q266 0 266 -364q0 -183 -68.5 -273.5t-198.5 -90.5q-267 0 -267 364zM423 349q0 139 -26 194t-87 55t-87 -55t-26 -194q0 -140 26 -195t88 -55q61 0 86.5 55.5t25.5 194.5z" />
    <glyph glyph-name="one.tabold" 
d="M569 0h-477v127h182v395l-137 -80l-60 110l240 149h102v-574h150v-127z" />
    <glyph glyph-name="two.tabold" 
d="M200 468l-140 9q3 101 69 169t188 68q115 0 177 -55t62 -141q0 -40 -10 -74t-26 -61.5t-52 -65t-70 -67.5t-98 -85q-27 -23 -41 -35v-3h309v-127h-511v110q234 209 267 241q70 69 81 114q4 16 4 36q0 42 -25 67.5t-68 25.5q-56 0 -84 -30t-32 -96z" />
    <glyph glyph-name="three.tabold" 
d="M312 105q51 0 82 27t31 72q0 48 -31.5 73t-90.5 25h-62v114h61q48 0 77.5 23t29.5 68q0 41 -26.5 64.5t-69.5 23.5q-100 0 -114 -106l-137 12q12 98 76.5 155.5t176.5 57.5q117 0 178 -51t61 -134q0 -120 -121 -157v-4q67 -14 104 -58t37 -114q0 -91 -71 -150.5
t-191 -59.5q-127 0 -192 59t-75 160l143 10q20 -110 124 -110z" />
    <glyph glyph-name="four.tabold" 
d="M494 146v-146h-139v146h-317v97l289 458h167v-431h92v-124h-92zM360 269v297q-31 -66 -65 -121l-113 -176h178z" />
    <glyph glyph-name="five.tabold" 
d="M300 -14q-114 0 -178 52t-80 141l134 27q22 -102 125 -102q55 0 88.5 33.5t33.5 90.5q0 53 -32 84t-87 31q-70 0 -114 -50l-119 39l40 369h427v-127h-319l-16 -159h2q56 46 141 46q96 0 160 -60t64 -168q0 -112 -72.5 -179.5t-197.5 -67.5z" />
    <glyph glyph-name="six.tabold" 
d="M570 536l-135 -22q-28 87 -104 87q-68 0 -100 -53t-36 -165h2q51 73 164 73q92 0 154.5 -57.5t62.5 -168.5q0 -104 -68.5 -174.5t-187.5 -70.5q-130 0 -202.5 82.5t-72.5 255.5q0 188 74 289t211 101q103 0 162 -49t76 -128zM434 222q0 55 -30.5 88t-84.5 33
q-53 0 -83 -33t-30 -88q0 -56 30.5 -88t84.5 -32q50 0 81.5 32.5t31.5 87.5z" />
    <glyph glyph-name="seven.tabold" 
d="M112 0l300 575h-357v126h514v-105l-303 -596h-154z" />
    <glyph glyph-name="eight.tabold" 
d="M307 -18q-125 0 -196 56.5t-71 155.5q0 65 31.5 108t84.5 62l5 2q-98 50 -98 156q0 86 68 141t180 55t178.5 -54t66.5 -141q0 -102 -99 -157v-2q122 -44 122 -168q0 -97 -73 -155.5t-199 -58.5zM200 511q0 -44 31 -69t79 -25t78.5 25.5t30.5 68.5q0 44 -30.5 69.5
t-78.5 25.5q-50 0 -80 -25.5t-30 -69.5zM434 205q0 49 -34 78.5t-90 29.5t-90.5 -29.5t-34.5 -78.5q0 -48 34.5 -77t90.5 -29t90 29t34 77z" />
    <glyph glyph-name="nine.tabold" 
d="M185 474q0 -54 31 -86t87 -32q54 0 85.5 32t31.5 86q0 53 -32 86t-85 33t-85.5 -32.5t-32.5 -86.5zM42 163l130 26q26 -87 117 -87q69 0 102 49t35 163h-3q-46 -66 -154 -66q-99 0 -162 58.5t-63 168.5q0 102 70 170.5t192 68.5q124 0 196 -86.5t72 -252.5
q0 -192 -72.5 -291t-213.5 -99q-101 0 -166 48t-80 130z" />
    <glyph glyph-name="zero.num" horiz-adv-x="461" 
d="M46 544q0 108 48.5 163.5t136.5 55.5t136 -55t48 -164t-48 -164.5t-137 -55.5t-136.5 55t-47.5 165zM230 681q-36 0 -53 -31t-17 -106t17 -106t53 -31q37 0 54 30.5t17 106.5q0 75 -17 106t-54 31z" />
    <glyph glyph-name="one.num" horiz-adv-x="331" 
d="M259 334h-105v304l-93 -51l-37 74l159 95h76v-422z" />
    <glyph glyph-name="two.num" horiz-adv-x="419" 
d="M146 607l-99 7q2 61 46.5 105t120.5 44q74 0 114.5 -34t40.5 -90q0 -52 -31 -88t-143 -125v-4h179v-88h-329v73q169 142 191 164q30 32 30 60q0 23 -14.5 36.5t-39.5 13.5q-63 0 -66 -74z" />
    <glyph glyph-name="three.num" horiz-adv-x="422" 
d="M211 405q31 0 49 15t18 40q0 50 -65 50h-47v77h45q26 0 42 12t16 36t-16 36.5t-41 12.5q-59 0 -70 -62l-95 10q7 56 51.5 93.5t116.5 37.5q73 0 114 -31.5t41 -79.5q0 -73 -74 -95v-1q41 -9 63.5 -35.5t22.5 -65.5q0 -55 -48.5 -92.5t-122.5 -37.5q-82 0 -126.5 39
t-50.5 100l102 7q4 -32 25 -49t50 -17z" />
    <glyph glyph-name="four.num" horiz-adv-x="434" 
d="M344 334h-100v79h-212v70l176 272h136v-256h57v-86h-57v-79zM131 499h115v182h-10q-18 -44 -52 -96z" />
    <glyph glyph-name="five.num" horiz-adv-x="421" 
d="M211 326q-75 0 -118.5 34t-52.5 90l102 9q10 -56 67 -56q32 0 49.5 17.5t17.5 48.5q0 30 -18 47t-48 17q-38 0 -59 -27l-96 24l33 225h268v-87h-197l-12 -86h3q38 27 88 27q60 0 100 -36t40 -100q0 -67 -46 -107t-121 -40z" />
    <glyph glyph-name="six.num" horiz-adv-x="436" 
d="M390 657l-101 -16q-10 42 -56 42q-35 0 -54.5 -27t-23.5 -90h2q38 41 100 41q58 0 98 -34t40 -100q0 -63 -45 -105.5t-124 -42.5q-85 0 -132.5 50.5t-47.5 150.5q0 115 49 176t140 61q60 0 101.5 -29.5t53.5 -76.5zM293 469q0 31 -18 49t-49 18t-48 -18t-17 -49
t17.5 -48.5t48.5 -17.5q30 0 48 18t18 48z" />
    <glyph glyph-name="seven.num" horiz-adv-x="383" 
d="M66 334l168 333h-200v88h315v-70l-169 -351h-114z" />
    <glyph glyph-name="eight.num" horiz-adv-x="436" 
d="M218 767q71 0 115.5 -33t44.5 -86q0 -64 -61 -94v-1q74 -23 74 -100q0 -59 -48.5 -95t-126.5 -36t-125 35.5t-47 94.5q0 78 75 101v1q-61 29 -61 93q0 53 44 86.5t116 33.5zM158 639q0 -25 16 -39t44 -14t44 14t16 39q0 24 -16 37.5t-44 13.5q-60 0 -60 -51zM286 459
q0 27 -18 43.5t-50 16.5q-33 0 -50.5 -16.5t-17.5 -43.5t17.5 -43t50.5 -16q32 0 50 16t18 43z" />
    <glyph glyph-name="nine.num" horiz-adv-x="441" 
d="M149 618q0 -30 17 -48t48 -18t48 18t17 48t-17 48.5t-48 18.5t-48 -19t-17 -48zM42 434l96 18q18 -50 69 -50q73 0 78 114h-3q-33 -35 -92 -35q-60 0 -101.5 36.5t-41.5 100.5q0 61 45.5 103t121.5 42q86 0 133.5 -54t47.5 -152q0 -111 -48.5 -171.5t-139.5 -60.5
q-64 0 -108.5 28.5t-56.5 80.5z" />
    <glyph glyph-name="Euro.tab" 
d="M588 181q-22 -93 -84 -145t-161 -52q-107 0 -170 64t-81 199h-63v88h56q-1 12 -1 36q0 31 1 45h-56v88h64q38 264 257 264q188 0 234 -189l-126 -35q-15 49 -40 73.5t-69 24.5q-48 0 -75 -31t-37 -107h162v-88h-169v-34q0 -32 1 -47h168v-88h-161q11 -75 38 -107t74 -32
q44 0 70.5 23.5t41.5 78.5z" />
    <glyph glyph-name="dollar.tab" 
d="M193 565q0 -41 20.5 -62.5t64.5 -33.5v183q-42 -5 -63.5 -28.5t-21.5 -58.5zM436 211q0 74 -91 96v-195q91 13 91 99zM345 -142h-67v127q-108 8 -170 65t-77 153l135 21q12 -53 39 -80t73 -33v212l-26 6q-89 20 -142.5 74t-53.5 145t62 152.5t160 70.5v94h67v-95
q180 -16 225 -185l-132 -30q-26 79 -93 94v-196l21 -5q106 -25 159 -77t53 -142q0 -100 -61.5 -167t-171.5 -77v-127z" />
    <glyph glyph-name="uni20B9.tab" 
d="M553 425h-99q-10 -70 -49 -115t-106 -73l177 -237h-172l-154 201h-65v104h67q124 0 147 120h-214v104h214q-23 122 -150 122h-64v104h468v-105h-169v-1q56 -48 69 -120h100v-104z" />
    <glyph glyph-name="uni20BA.tab" 
d="M243 0h-128v259l-76 -25v97l76 25v79l-76 -25v98l76 25v222h146v-173l161 53v-97l-161 -54v-79l161 54v-97l-161 -54v-176h11q75 0 119.5 38t62.5 118l133 -27q-54 -261 -344 -261z" />
    <glyph glyph-name="cent.tab" 
d="M580 161q-20 -73 -74.5 -120t-146.5 -55v-128h-66v128q-118 9 -177.5 84t-59.5 197q0 115 61.5 194t175.5 93v132h66v-131q92 -6 148 -55t68 -111l-143 -25q-23 66 -73 78v-342q56 12 81 83zM207 271q0 -147 86 -170v340q-86 -24 -86 -170z" />
    <glyph glyph-name="sterling.tab" 
d="M569 131v-131h-527v105q143 13 110 189l-2 11h-92v106h71l-14 71q-24 125 39.5 206t193.5 81q99 0 157 -52.5t70 -151.5l-132 -25q-13 56 -34 80.5t-65 24.5q-107 0 -82 -149l15 -85h178v-106h-159q19 -116 -65 -170v-4h338z" />
    <glyph glyph-name="yen.tab" 
d="M566 108h-175v-108h-152v108h-186v92h186v88h-186v92h170l-193 375h156l133 -292l123 292h148l-187 -375h163v-92h-175v-88h175v-92z" />
    <glyph glyph-name="florin.tab" 
d="M514 433h-151l-61 -596h-140l59 596h-117v109h127l4 36q11 105 62.5 156.5t148.5 51.5q18 0 38.5 -2.5t31.5 -5.5l12 -2l-10 -124q-21 6 -59 6q-73 0 -82 -84l-3 -32h140v-109z" />
    <glyph glyph-name="Euro.old" horiz-adv-x="681" 
d="M644 182q-48 -197 -259 -197q-226 0 -270 241h-85v87h77q-1 12 -1 31l1 42h-77v86h88q24 116 93.5 179t178.5 63q202 0 251 -188l-140 -27q-29 98 -112 98q-97 0 -123 -125h174v-86h-184q-1 -18 -1 -39l1 -34h184v-87h-175q26 -124 125 -124q87 0 115 103z" />
    <glyph glyph-name="dollar.old" horiz-adv-x="633" 
d="M280 438l3 -1v171q-89 -10 -89 -84q0 -71 86 -86zM354 283l-5 1v-184q95 13 95 93q0 72 -90 90zM349 -139h-66v125q-108 6 -171 60t-80 145l140 19q12 -51 38 -77.5t73 -32.5v196l-33 6q-193 35 -194 204q0 91 61 146.5t166 63.5v95h66v-95q180 -14 221 -183l-130 -22
q-24 79 -91 94v-179l48 -9q187 -34 187 -202q0 -90 -60.5 -154t-174.5 -74v-126z" />
    <glyph glyph-name="uni20B9.old" horiz-adv-x="630" 
d="M305 222l163 -222h-174l-144 192h-73v104h80q124 0 148 98h-228v104h228q-25 99 -151 99h-77v103h493v-104h-171v-2q47 -39 63 -96h108v-104h-107q-26 -119 -158 -170v-2z" />
    <glyph glyph-name="uni20BA.old" horiz-adv-x="650" 
d="M287 0h-157v234l-85 -28v94l85 28v83l-85 -28v95l85 28v194h146v-145l179 60v-95l-179 -60v-83l179 60v-94l-179 -60v-151h16q84 0 131 35t67 117l128 -29q-61 -255 -331 -255z" />
    <glyph glyph-name="sterling.old" horiz-adv-x="627" 
d="M572 126v-126h-520v106q65 5 91.5 44.5t9.5 122.5l-2 10h-86v100h65l-13 64q-24 118 42 192.5t194 74.5q97 0 154.5 -48.5t68.5 -140.5l-132 -23q-11 49 -33.5 71.5t-64.5 22.5q-109 0 -83 -135l15 -78h169v-100h-150q14 -103 -65 -154v-3h340z" />
    <glyph glyph-name="yen.old" horiz-adv-x="671" 
d="M607 103h-191v-103h-151v103h-202v85h202v91h-202v85h177l-197 337h165l136 -251l128 251h157l-192 -337h170v-85h-191v-91h191v-85z" />
    <glyph glyph-name="florin.old" horiz-adv-x="447" 
d="M396 378h-121l-54 -541h-140l54 541h-88v110h99l4 41q10 104 59 153t137 49q17 0 35.5 -2.5t28.5 -4.5l11 -2l-10 -123q-24 6 -44 6q-36 0 -54 -19.5t-23 -61.5l-4 -36h110v-110z" />
    <glyph glyph-name="Euro.tabold" 
d="M589 182q-44 -197 -246 -197q-109 0 -171.5 58.5t-81.5 182.5h-60v87h52v31q0 29 1 42h-53v86h62q22 122 87 182t166 60q103 0 161 -47t82 -141l-129 -27q-26 98 -111 98q-47 0 -75 -27.5t-39 -97.5h164v-86h-171q-1 -12 -1 -39v-34h172v-87h-164q12 -67 40 -95.5
t75 -28.5q85 0 111 103z" />
    <glyph glyph-name="dollar.tabold" 
d="M191 523q0 -38 20 -58t67 -29v170q-43 -5 -65 -28t-22 -55zM348 284l-3 1v-183q94 13 94 92q0 37 -21 58.5t-70 31.5zM345 -139h-67v125q-220 11 -249 205l139 20q13 -52 38 -78t72 -32v196l-29 6q-194 37 -194 203q0 87 60.5 144t162.5 66v95h67v-95q180 -15 224 -174
l-131 -29q-25 75 -93 91v-181l37 -7q197 -36 197 -201q0 -90 -60.5 -153.5t-173.5 -74.5v-126z" />
    <glyph glyph-name="uni20B9.tabold" 
d="M296 222l156 -222h-167l-139 193h-61v103h69q120 0 143 99h-212v104h212q-26 98 -146 98h-66v103h467v-104h-150v-2q38 -40 50 -95h100v-104h-99q-21 -118 -157 -171v-2z" />
    <glyph glyph-name="uni20BA.tabold" 
d="M250 0h-125v234l-79 -26v96l79 26v82l-79 -26v96l79 27v191h140v-144l159 53v-97l-159 -53v-82l160 54v-97l-160 -53v-152h15q76 0 120.5 38t62.5 118l130 -24q-26 -130 -115.5 -195.5t-227.5 -65.5z" />
    <glyph glyph-name="sterling.tabold" 
d="M570 126v-126h-528v106q71 5 98.5 44t10.5 123l-2 10h-88v100h67l-14 64q-24 118 41 192.5t195 74.5q96 0 154.5 -49.5t70.5 -139.5l-133 -23q-11 49 -32.5 71.5t-63.5 22.5q-113 0 -85 -142l14 -71h175v-100h-156q17 -103 -62 -154v-3h338z" />
    <glyph glyph-name="yen.tabold" 
d="M566 103h-175v-103h-152v103h-186v85h186v91h-186v85h163l-186 337h160l129 -264l119 264h152l-180 -337h156v-85h-175v-91h175v-85z" />
    <glyph glyph-name="florin.tabold" 
d="M514 378h-151l-56 -541h-139l56 541h-119v110h130l4 41q20 202 208 202q18 0 38.5 -2.5t32.5 -4.5l12 -2l-9 -123q-24 6 -58 6q-76 0 -85 -81l-4 -36h140v-110z" />
    <glyph glyph-name="zero.den" horiz-adv-x="461" 
d="M46 210q0 108 48.5 163.5t136.5 55.5t136 -55t48 -164t-48 -164.5t-137 -55.5t-136.5 55t-47.5 165zM230 347q-36 0 -53 -31t-17 -106t17 -106t53 -31q37 0 54 30.5t17 106.5q0 75 -17 106t-54 31z" />
    <glyph glyph-name="one.den" horiz-adv-x="329" 
d="M259 0h-105v304l-93 -51l-37 74l159 95h76v-422z" />
    <glyph glyph-name="two.den" horiz-adv-x="419" 
d="M146 273l-99 7q2 61 46.5 105t120.5 44q74 0 114.5 -34t40.5 -90q0 -52 -31 -88t-143 -125v-4h179v-88h-329v73q169 142 191 164q30 32 30 60q0 23 -14.5 36.5t-39.5 13.5q-63 0 -66 -74z" />
    <glyph glyph-name="three.den" horiz-adv-x="422" 
d="M211 71q31 0 49 15t18 40q0 50 -65 50h-47v77h45q26 0 42 12t16 36t-16 36.5t-41 12.5q-59 0 -70 -62l-95 10q7 56 51.5 93.5t116.5 37.5q73 0 114 -31.5t41 -79.5q0 -73 -74 -95v-1q41 -9 63.5 -35.5t22.5 -65.5q0 -55 -48.5 -92.5t-122.5 -37.5q-82 0 -126.5 39
t-50.5 100l102 7q4 -32 25 -49t50 -17z" />
    <glyph glyph-name="four.den" horiz-adv-x="434" 
d="M344 0h-100v79h-212v70l176 272h136v-256h57v-86h-57v-79zM131 165h115v182h-10q-18 -44 -52 -96z" />
    <glyph glyph-name="five.den" horiz-adv-x="421" 
d="M211 -8q-75 0 -118.5 34t-52.5 90l102 9q10 -56 67 -56q32 0 49.5 17.5t17.5 48.5q0 30 -18 47t-48 17q-38 0 -59 -27l-96 24l33 225h268v-87h-197l-12 -86h3q38 27 88 27q60 0 100 -36t40 -100q0 -67 -46 -107t-121 -40z" />
    <glyph glyph-name="six.den" horiz-adv-x="437" 
d="M390 323l-101 -16q-10 42 -56 42q-35 0 -54.5 -27t-23.5 -90h2q38 41 100 41q58 0 98 -34t40 -100q0 -63 -45 -105.5t-124 -42.5q-85 0 -132.5 50.5t-47.5 150.5q0 115 49 176t140 61q60 0 101.5 -29.5t53.5 -76.5zM293 135q0 31 -18 49t-49 18t-48 -18t-17 -49
t17.5 -48.5t48.5 -17.5q30 0 48 18t18 48z" />
    <glyph glyph-name="seven.den" horiz-adv-x="383" 
d="M66 0l168 333h-200v88h315v-70l-169 -351h-114z" />
    <glyph glyph-name="eight.den" horiz-adv-x="436" 
d="M218 433q71 0 115.5 -33t44.5 -86q0 -64 -61 -94v-1q74 -23 74 -100q0 -59 -48.5 -95t-126.5 -36t-125 35.5t-47 94.5q0 78 75 101v1q-61 29 -61 93q0 53 44 86.5t116 33.5zM158 305q0 -25 16 -39t44 -14t44 14t16 39q0 24 -16 37.5t-44 13.5q-60 0 -60 -51zM286 125
q0 27 -18 43.5t-50 16.5q-33 0 -50.5 -16.5t-17.5 -43.5t17.5 -43t50.5 -16q32 0 50 16t18 43z" />
    <glyph glyph-name="nine.den" horiz-adv-x="441" 
d="M149 284q0 -30 17 -48t48 -18t48 18t17 48t-17 48.5t-48 18.5t-48 -19t-17 -48zM42 100l96 18q18 -50 69 -50q73 0 78 114h-3q-33 -35 -92 -35q-60 0 -101.5 36.5t-41.5 100.5q0 61 45.5 103t121.5 42q86 0 133.5 -54t47.5 -152q0 -111 -48.5 -171.5t-139.5 -60.5
q-64 0 -108.5 28.5t-56.5 80.5z" />
    <glyph glyph-name="space_uni0326" horiz-adv-x="500" 
d="M202 -235l-12 50q68 13 77 45h-73v100h149v-48q0 -67 -29.5 -99t-111.5 -48z" />
    <glyph glyph-name="space.tab" horiz-adv-x="310" 
 />
    <glyph glyph-name="one.sup" horiz-adv-x="331" 
d="M259 399h-105v304l-93 -51l-37 74l159 95h76v-422z" />
    <glyph glyph-name="two.sup" horiz-adv-x="419" 
d="M146 672l-99 7q2 61 46.5 105t120.5 44q74 0 114.5 -34t40.5 -90q0 -52 -31 -88t-143 -125v-4h179v-88h-329v73q169 142 191 164q30 32 30 60q0 23 -14.5 36.5t-39.5 13.5q-63 0 -66 -74z" />
    <glyph glyph-name="three.sup" horiz-adv-x="422" 
d="M211 470q31 0 49 15t18 40q0 50 -65 50h-47v77h45q26 0 42 12t16 36t-16 36.5t-41 12.5q-59 0 -70 -62l-95 10q7 56 51.5 93.5t116.5 37.5q73 0 114 -31.5t41 -79.5q0 -73 -74 -95v-1q41 -9 63.5 -35.5t22.5 -65.5q0 -55 -48.5 -92.5t-122.5 -37.5q-82 0 -126.5 39
t-50.5 100l102 7q4 -32 25 -49t50 -17z" />
    <glyph glyph-name="space_uni0326.alt" horiz-adv-x="501" 
d="M314 832q13 -47 14 -49q-64 -17 -73 -49h69v-100h-147v48q0 67 29 100t108 50z" />
    <glyph glyph-name="cent.old" horiz-adv-x="596" 
d="M566 161q-20 -73 -74.5 -120t-146.5 -55v-128h-66v128q-118 10 -177.5 84.5t-59.5 196.5q0 115 61.5 194t175.5 93v132h66v-131q92 -6 148.5 -55t67.5 -111l-143 -25q-23 67 -73 78v-342q56 11 81 83zM194 271q0 -148 85 -170v339q-85 -22 -85 -169z" />
    <glyph glyph-name="cent.tabold" 
d="M580 161q-20 -73 -74.5 -120t-146.5 -55v-128h-66v128q-118 9 -177.5 84t-59.5 197q0 115 61.5 194t175.5 93v132h66v-131q92 -6 148 -55t68 -111l-143 -25q-23 66 -73 78v-342q56 12 81 83zM207 271q0 -147 86 -170v340q-86 -24 -86 -170z" />
    </font>
</defs>
</svg>
